<?xml version="1.0" encoding="UTF-8"?>
<svg width="50px" height="93px" viewBox="0 0 50 93" version="1.1" xmlns="http://www.w3.org/2000/svg" xmlns:xlink="http://www.w3.org/1999/xlink">
    <!-- Generator: Sketch 60 (88103) - https://sketch.com -->
    <title>Group 6</title>
    <desc>Created with Sketch.</desc>
    <g id="Page-1" stroke="none" stroke-width="1" fill="none" fill-rule="evenodd">
        <g id="Product-Listing---Desktop" transform="translate(-256.000000, -1976.000000)">
            <g id="Group-6" transform="translate(257.000000, 1978.000000)">
                <path d="M7.83224837,40.5454755 C7.63244772,40.4918924 7.42764077,40.4591184 7.22109652,40.4476764 C5.56677874,40.356032 4.15139674,41.6228291 4.05975234,43.2771469 L1.58530033,87.9446877 C1.58427992,87.9631075 1.58376943,87.981552 1.58376943,88 C1.58376943,88.5522847 2.03148468,89 2.58376943,89 L45.3551279,89 C45.3735585,89 45.3919856,88.9994905 45.4103881,88.998472 C45.9618289,88.9679526 46.3841192,88.4961807 46.3535999,87.9447398 L43.881487,43.2772173 C43.8700544,43.0706475 43.8372845,42.8658143 43.7837003,42.665988 C43.3545696,41.0656715 41.7093776,40.1162379 40.1090611,40.5453686 L25.0056475,44.5954042 C24.3269251,44.7774061 23.6122334,44.7773964 22.933516,44.595376 L7.83224837,40.5454755 Z" id="Rectangle-18" stroke="#000000" stroke-width="4"></path>
                <path d="M23.9120985,37.8078284 C32.823784,37.8078284 39.4366305,25.4490068 39.4366305,16.394548 C39.4366305,7.34008916 32.823784,-1.52766688e-13 23.9120985,-1.52766688e-13 C15.0004131,-1.52766688e-13 8.50295276,7.34008916 8.50295276,16.394548 C8.50295276,25.4490068 15.0004131,37.8078284 23.9120985,37.8078284 Z" id="Oval-5" stroke="#000000" stroke-width="4"></path>
                <g id="Group-5" transform="translate(23.969792, 61.700000) rotate(-45.000000) translate(-23.969792, -61.700000) translate(16.469792, 54.200000)" fill="#58C2F7">
                    <circle id="Oval" cx="4.83333333" cy="4.83333333" r="4.83333333"></circle>
                    <circle id="Oval-Copy" cx="9.22220881" cy="9.66666667" r="4.83333333"></circle>
                    <rect id="Rectangle" x="0" y="4.83333333" width="9.66666667" height="9.66666667"></rect>
                </g>
            </g>
        </g>
    </g>
</svg>