<?xml version="1.0" encoding="UTF-8"?>
<svg width="64px" height="64px" viewBox="0 0 64 64" version="1.1" xmlns="http://www.w3.org/2000/svg" xmlns:xlink="http://www.w3.org/1999/xlink">
    <!-- Generator: Sketch 55.2 (78181) - https://sketchapp.com -->
    <title>Reach</title>
    <desc>Created with Sketch.</desc>
    <defs>
        <linearGradient x1="50%" y1="0%" x2="50%" y2="100%" id="linearGradient-1">
            <stop stop-color="#00C9FF" offset="0%"></stop>
            <stop stop-color="#0099FF" offset="100%"></stop>
        </linearGradient>
        <path d="M23.2674092,29.1031883 L25.9738379,29.8290059 L28.6808318,29.1031156 C30.2811483,28.6739849 31.9263403,29.6234186 32.355471,31.223735 C32.4090552,31.4235613 32.4418251,31.6283945 32.4532577,31.8349644 L32.9431177,40.6860301 C33.0346758,42.3403526 31.7678048,43.7556685 30.1134823,43.8472266 C30.0582749,43.850282 30.0029936,43.8518106 29.9477017,43.8518106 L22,43.8518106 C20.3431458,43.8518106 19,42.5086649 19,40.8518106 C19,40.7964666 19.0015315,40.7411331 19.0045927,40.6858738 L19.4949132,31.8348596 C19.5865576,30.1805418 21.0019396,28.9137447 22.6562573,29.0053891 C22.8628016,29.0168311 23.0676085,29.0496052 23.2674092,29.1031883 Z" id="path-2"></path>
        <path d="M37.2674092,29.1031883 L39.9738379,29.8290059 L42.6808318,29.1031156 C44.2811483,28.6739849 45.9263403,29.6234186 46.355471,31.223735 C46.4090552,31.4235613 46.4418251,31.6283945 46.4532577,31.8349644 L46.9431177,40.6860301 C47.0346758,42.3403526 45.7678048,43.7556685 44.1134823,43.8472266 C44.0582749,43.850282 44.0029936,43.8518106 43.9477017,43.8518106 L36,43.8518106 C34.3431458,43.8518106 33,42.5086649 33,40.8518106 C33,40.7964666 33.0015315,40.7411331 33.0045927,40.6858738 L33.4949132,31.8348596 C33.5865576,30.1805418 35.0019396,28.9137447 36.6562573,29.0053891 C36.8628016,29.0168311 37.0676085,29.0496052 37.2674092,29.1031883 Z" id="path-3"></path>
        <linearGradient x1="50%" y1="0%" x2="50%" y2="100%" id="linearGradient-4">
            <stop stop-color="#00C9FF" offset="0%"></stop>
            <stop stop-color="#0099FF" offset="100%"></stop>
        </linearGradient>
        <path d="M25.4832145,29 C28.0760251,29 30,25.4042622 30,22.7699124 C30,20.1355625 28.0760251,18 25.4832145,18 C22.8904038,18 21,20.1355625 21,22.7699124 C21,25.4042622 22.8904038,29 25.4832145,29 Z" id="path-5"></path>
        <path d="M39.4832145,29 C42.0760251,29 44,25.4042622 44,22.7699124 C44,20.1355625 42.0760251,18 39.4832145,18 C36.8904038,18 35,20.1355625 35,22.7699124 C35,25.4042622 36.8904038,29 39.4832145,29 Z" id="path-6"></path>
        <path d="M30.2674092,31.1031883 L32.9738379,31.8290059 L35.6808318,31.1031156 C37.2811483,30.6739849 38.9263403,31.6234186 39.355471,33.223735 C39.4090552,33.4235613 39.4418251,33.6283945 39.4532577,33.8349644 L39.9431177,42.6860301 C40.0346758,44.3403526 38.7678048,45.7556685 37.1134823,45.8472266 C37.0582749,45.850282 37.0029936,45.8518106 36.9477017,45.8518106 L29,45.8518106 C27.3431458,45.8518106 26,44.5086649 26,42.8518106 C26,42.7964666 26.0015315,42.7411331 26.0045927,42.6858738 L26.4949132,33.8348596 C26.5865576,32.1805418 28.0019396,30.9137447 29.6562573,31.0053891 C29.8628016,31.0168311 30.0676085,31.0496052 30.2674092,31.1031883 Z" id="path-7"></path>
        <path d="M32.4832145,29 C35.0760251,29 37,25.4042622 37,22.7699124 C37,20.1355625 35.0760251,18 32.4832145,18 C29.8904038,18 28,20.1355625 28,22.7699124 C28,25.4042622 29.8904038,29 32.4832145,29 Z" id="path-8"></path>
    </defs>
    <g id="Reach" stroke="none" stroke-width="1" fill="none" fill-rule="evenodd">
        <circle id="Oval" stroke="#073863" stroke-width="1.5" cx="32.5" cy="32.5" r="30.5"></circle>
        <g id="Rectangle-18">
            <path stroke="#073863" stroke-width="1.25" d="M23.1055157,29.7068566 C22.9473402,29.6644367 22.7852014,29.6384905 22.6216872,29.6294323 C21.3120189,29.5568805 20.1915082,30.5597615 20.1189564,31.8694298 L19.6286359,40.720444 C19.6262124,40.7641909 19.625,40.8079966 19.625,40.8518106 C19.625,42.1634869 20.6883237,43.2268106 22,43.2268106 L29.9477017,43.2268106 C29.9914745,43.2268106 30.0352388,43.2256005 30.0789447,43.2231816 C31.3886167,43.1506981 32.3915562,42.0302397 32.3190727,40.7205677 L31.8292127,31.869502 C31.8201619,31.7059675 31.794219,31.5438079 31.7517982,31.3856121 C31.4120697,30.1186949 30.1096261,29.3670599 28.8427089,29.7067884 L25.9738291,30.476089 L23.1055157,29.7068566 Z" stroke-linejoin="square" fill="url(#linearGradient-1)" fill-rule="evenodd"></path>
            <use stroke="#FFFFFF" stroke-width="1" xlink:href="#path-2"></use>
        </g>
        <g id="Rectangle-18-Copy">
            <path stroke="#073863" stroke-width="1.25" d="M37.1055157,29.7068566 C36.9473402,29.6644367 36.7852014,29.6384905 36.6216872,29.6294323 C35.3120189,29.5568805 34.1915082,30.5597615 34.1189564,31.8694298 L33.6286359,40.720444 C33.6262124,40.7641909 33.625,40.8079966 33.625,40.8518106 C33.625,42.1634869 34.6883237,43.2268106 36,43.2268106 L43.9477017,43.2268106 C43.9914745,43.2268106 44.0352388,43.2256005 44.0789447,43.2231816 C45.3886167,43.1506981 46.3915562,42.0302397 46.3190727,40.7205677 L45.8292127,31.869502 C45.8201619,31.7059675 45.794219,31.5438079 45.7517982,31.3856121 C45.4120697,30.1186949 44.1096261,29.3670599 42.8427089,29.7067884 L39.9738291,30.476089 L37.1055157,29.7068566 Z" stroke-linejoin="square" fill="url(#linearGradient-1)" fill-rule="evenodd"></path>
            <use stroke="#FFFFFF" stroke-width="1" xlink:href="#path-3"></use>
        </g>
        <g id="Oval-5">
            <use stroke="#073863" stroke-width="1.5" fill="url(#linearGradient-4)" fill-rule="evenodd" xlink:href="#path-5"></use>
            <path stroke="#FFFFFF" stroke-width="1" d="M25.4832145,29.5 C22.778488,29.5 20.5,25.9873915 20.5,22.7699124 C20.5,19.8242673 22.6452533,17.5 25.4832145,17.5 C28.3263162,17.5 30.5,19.8305197 30.5,22.7699124 C30.5,25.9773745 28.1909434,29.5 25.4832145,29.5 Z"></path>
        </g>
        <g id="Oval-5-Copy">
            <use stroke="#073863" stroke-width="1.5" fill="url(#linearGradient-4)" fill-rule="evenodd" xlink:href="#path-6"></use>
            <path stroke="#FFFFFF" stroke-width="1" d="M39.4832145,29.5 C36.778488,29.5 34.5,25.9873915 34.5,22.7699124 C34.5,19.8242673 36.6452533,17.5 39.4832145,17.5 C42.3263162,17.5 44.5,19.8305197 44.5,22.7699124 C44.5,25.9773745 42.1909434,29.5 39.4832145,29.5 Z"></path>
        </g>
        <g id="Rectangle-18">
            <path stroke="#073863" stroke-width="1.25" d="M30.1055157,31.7068566 C29.9473402,31.6644367 29.7852014,31.6384905 29.6216872,31.6294323 C28.3120189,31.5568805 27.1915082,32.5597615 27.1189564,33.8694298 L26.6286359,42.720444 C26.6262124,42.7641909 26.625,42.8079966 26.625,42.8518106 C26.625,44.1634869 27.6883237,45.2268106 29,45.2268106 L36.9477017,45.2268106 C36.9914745,45.2268106 37.0352388,45.2256005 37.0789447,45.2231816 C38.3886167,45.1506981 39.3915562,44.0302397 39.3190727,42.7205677 L38.8292127,33.869502 C38.8201619,33.7059675 38.794219,33.5438079 38.7517982,33.3856121 C38.4120697,32.1186949 37.1096261,31.3670599 35.8427089,31.7067884 L32.9738291,32.476089 L30.1055157,31.7068566 Z" stroke-linejoin="square" fill="url(#linearGradient-1)" fill-rule="evenodd"></path>
            <use stroke="#FFFFFF" stroke-width="0.8" xlink:href="#path-7"></use>
        </g>
        <g id="Oval-5">
            <use stroke="#073863" stroke-width="1.5" fill="url(#linearGradient-4)" fill-rule="evenodd" xlink:href="#path-8"></use>
            <path stroke="#FFFFFF" stroke-width="0.8" d="M32.4832145,29.4 C29.8450719,29.4 27.6,25.9389072 27.6,22.7699124 C27.6,19.8777852 29.7023512,17.6 32.4832145,17.6 C35.2694708,17.6 37.4,19.8842514 37.4,22.7699124 C37.4,25.9288101 35.1246591,29.4 32.4832145,29.4 Z"></path>
        </g>
    </g>
</svg>