<?xml version="1.0" encoding="UTF-8"?>
<svg width="64px" height="64px" viewBox="0 0 64 64" version="1.1" xmlns="http://www.w3.org/2000/svg" xmlns:xlink="http://www.w3.org/1999/xlink">
    <!-- Generator: Sketch 56.2 (81672) - https://sketch.com -->
    <title>Ambassador Program</title>
    <desc>Created with Sketch.</desc>
    <defs>
        <linearGradient x1="50%" y1="0%" x2="50%" y2="100%" id="linearGradient-1">
            <stop stop-color="#36D6F3" offset="0%"></stop>
            <stop stop-color="#19ADE4" offset="100%"></stop>
        </linearGradient>
        <linearGradient x1="50%" y1="0%" x2="50%" y2="100%" id="linearGradient-2">
            <stop stop-color="#F99A9B" offset="0%"></stop>
            <stop stop-color="#F16162" offset="100%"></stop>
        </linearGradient>
        <linearGradient x1="50%" y1="0%" x2="50%" y2="100%" id="linearGradient-3">
            <stop stop-color="#00C9FF" offset="0%"></stop>
            <stop stop-color="#0099FF" offset="100%"></stop>
        </linearGradient>
    </defs>
    <g id="Ambassador-Program" stroke="none" stroke-width="1" fill="none" fill-rule="evenodd">
        <g id="Group-2" transform="translate(14.000000, 1.000000)" stroke="#073863">
            <g id="Group-Copy">
                <path d="M6.71864093,61.9805369 L6.72018277,62.1754231 C6.71962836,62.1053467 6.69126758,62.0383771 6.64136731,61.9892224 C6.64905805,61.9814911 6.65674126,61.9737769 6.66441696,61.96608 C6.68153602,61.9706159 6.69980626,61.975484 6.71864093,61.9805369 Z M6.60148276,61.9522041 C6.60086066,61.9506967 6.60363242,61.9511165 6.61044447,61.9529312 C6.5651441,61.9408636 6.54850512,61.9362516 6.55170634,61.9368816 Z M6.7181019,61.9124044 C8.39642359,60.2393504 9.71292441,59.3958915 10.7509251,59.404335 C11.7868525,59.4127617 13.1094322,60.2747857 14.8077829,61.9669113 C14.8077926,61.9669209 14.8078056,61.9669262 14.8078193,61.9669261 C14.807826,61.9669273 14.8078192,61.9669215 14.8078188,61.9668752 L14.5382047,27.8879986 L6.44839813,27.8221928 L6.7181019,61.9124044 Z" id="Rectangle" fill="url(#linearGradient-1)" transform="translate(10.631065, 45.268293) rotate(-345.000000) translate(-10.631065, -45.268293) "></path>
                <path d="M20.0182007,61.3272747 L20.0166151,61.5276966 C20.0171927,61.454694 19.9881591,61.384593 19.9361771,61.3333837 C19.9437553,61.3257641 19.9513261,61.3181609 19.9588895,61.310574 C19.9775497,61.3157902 19.9975638,61.3214213 20.0182007,61.3272747 Z M19.8928982,61.2945332 C19.8924502,61.2935766 19.8941042,61.2938049 19.8981797,61.2949531 C19.8568159,61.2832996 19.8414589,61.2787768 19.844403,61.279355 Z M20.0188069,61.2506587 C21.7180739,59.5568188 23.0420707,58.6965228 24.0757007,58.6881148 C25.1159247,58.6796532 26.4311776,59.5249263 28.1085575,61.1962819 C28.1085429,61.1962806 28.1085331,61.1962786 28.1085231,61.1962785 C28.108504,61.1962784 28.1085233,61.1962594 28.1085225,61.196355 L28.3782276,27.1059726 L20.288421,27.1717784 L20.0188069,61.2506587 Z" id="Rectangle-Copy-3" fill="url(#linearGradient-1)" transform="translate(24.195560, 44.552072) rotate(-15.000000) translate(-24.195560, -44.552072) "></path>
                <path d="M16.5234804,33.6475613 L15.106065,34.8510928 C14.6850712,35.2085598 14.054004,35.1570612 13.696537,34.7360674 C13.656864,34.6893439 13.6215708,34.6390718 13.5911031,34.5858858 L12.6331376,32.9136119 C12.3916593,32.492075 11.8821569,32.3050691 11.4253146,32.4702969 L9.69483159,33.0961671 C9.17547142,33.284006 8.60217329,33.0152549 8.41433438,32.4958947 C8.39566341,32.4442709 8.38127508,32.3911973 8.37131523,32.3372119 L8.00636105,30.3590488 C7.91999814,29.8909355 7.51563505,29.5485827 7.03968841,29.5406184 L5.16204918,29.5091987 C4.60984174,29.4999582 4.16968002,29.0448148 4.17892046,28.4926074 C4.17967371,28.4475928 4.183466,28.4026805 4.19027142,28.358177 L4.50352502,26.3096812 C4.573824,25.8499669 4.31792592,25.4024674 3.88606703,25.2299071 L2.07108587,24.5046845 C1.55822737,24.2997587 1.30859863,23.7178795 1.51352447,23.205021 C1.52698393,23.1713366 1.54226621,23.1384095 1.55930355,23.1063858 L2.53677909,21.2690998 C2.75190283,20.8647481 2.66482371,20.3659344 2.32542212,20.0583875 L0.81777914,18.6922454 C0.408521826,18.3213992 0.377383457,17.6890004 0.748229645,17.2797431 C0.770257963,17.2554331 0.793469197,17.2322219 0.81777914,17.2101936 L2.32542212,15.8440515 C2.66482371,15.5365047 2.75190283,15.0376909 2.53677909,14.6333393 L1.55930355,12.7960533 C1.29990297,12.3084779 1.48487523,11.7029342 1.97245064,11.4435336 C2.00447443,11.4264963 2.0374015,11.411214 2.07108587,11.3977545 L3.88606703,10.672532 C4.31792592,10.4999716 4.573824,10.0524722 4.50352502,9.59275785 L4.19027142,7.54426202 C4.10678715,6.99832354 4.48168035,6.48807558 5.02761882,6.40459131 C5.07212234,6.39778588 5.11703464,6.3939936 5.16204918,6.39324034 L7.03968841,6.36182061 C7.51563505,6.35385629 7.91999814,6.01150352 8.00636105,5.54339021 L8.37131523,3.56522711 C8.47151604,3.02210811 8.99302979,2.66305198 9.53614878,2.76325279 C9.59013419,2.77321264 9.64320779,2.78760097 9.69483159,2.80627194 L11.4253146,3.43214209 C11.8821569,3.59736995 12.3916593,3.41036404 12.6331376,2.98882709 L13.5911031,1.31655318 C13.8656272,0.837329863 14.4766601,0.671388328 14.9558834,0.945912386 C15.0090694,0.976380082 15.0593415,1.01167325 15.106065,1.05134627 L16.5234804,2.25487774 C16.8967737,2.57184215 17.4446897,2.57184215 17.817983,2.25487774 L19.2353984,1.05134627 C19.6563922,0.693879244 20.2874594,0.745377864 20.6449264,1.16637166 C20.6845995,1.2130951 20.7198926,1.2633672 20.7503603,1.31655318 L21.7083259,2.98882709 C21.9498042,3.41036404 22.4593065,3.59736995 22.9161489,3.43214209 L24.6466318,2.80627194 C25.165992,2.61843304 25.7392901,2.88718413 25.927129,3.4065443 C25.9458,3.4581681 25.9601883,3.5112417 25.9701482,3.56522711 L26.3351024,5.54339021 C26.4214653,6.01150352 26.8258284,6.35385629 27.301775,6.36182061 L29.1794142,6.39324034 C29.7316217,6.40248078 30.1717834,6.85762422 30.162543,7.40983166 C30.1617897,7.4548462 30.1579974,7.4997585 30.151192,7.54426202 L29.8379384,9.59275785 C29.7676394,10.0524722 30.0235375,10.4999716 30.4553964,10.672532 L32.2703775,11.3977545 C32.783236,11.6026804 33.0328648,12.1845595 32.8279389,12.697418 C32.8144795,12.7311024 32.7991972,12.7640295 32.7821599,12.7960533 L31.8046843,14.6333393 C31.5895606,15.0376909 31.6766397,15.5365047 32.0160413,15.8440515 L33.5236843,17.2101936 C33.9329416,17.5810398 33.96408,18.2134386 33.5932338,18.6226959 C33.5712055,18.6470059 33.5479942,18.6702171 33.5236843,18.6922454 L32.0160413,20.0583875 C31.6766397,20.3659344 31.5895606,20.8647481 31.8046843,21.2690998 L32.7821599,23.1063858 C33.0415604,23.5939612 32.8565882,24.1995049 32.3690128,24.4589054 C32.336989,24.4759428 32.3040619,24.4912251 32.2703775,24.5046845 L30.4553964,25.2299071 C30.0235375,25.4024674 29.7676394,25.8499669 29.8379384,26.3096812 L30.151192,28.358177 C30.2346763,28.9041155 29.8597831,29.4143634 29.3138446,29.4978477 C29.2693411,29.5046531 29.2244288,29.5084454 29.1794142,29.5091987 L27.301775,29.5406184 C26.8258284,29.5485827 26.4214653,29.8909355 26.3351024,30.3590488 L25.9701482,32.3372119 C25.8699474,32.8803309 25.3484336,33.239387 24.8053146,33.1391862 C24.7513292,33.1292264 24.6982556,33.1148381 24.6466318,33.0961671 L22.9161489,32.4702969 C22.4593065,32.3050691 21.9498042,32.492075 21.7083259,32.9136119 L20.7503603,34.5858858 C20.4758363,35.0651092 19.8648033,35.2310507 19.38558,34.9565266 C19.332394,34.9260589 19.2821219,34.8907658 19.2353984,34.8510928 L17.817983,33.6475613 C17.4446897,33.3305969 16.8967737,33.3305969 16.5234804,33.6475613 Z" id="Star" fill="url(#linearGradient-2)"></path>
            </g>
            <g id="Combined-Shape-Copy-4" transform="translate(16.585366, 17.365854) rotate(-360.000000) translate(-16.585366, -17.365854) translate(8.585366, 9.365854)" fill="url(#linearGradient-3)" stroke-width="0.8">
                <path d="M9.71495027,6.7117164 L9.70211382,6.71116727 L9.70211382,6.41165252 L9.69911913,6.34164883 C9.62560815,4.62326143 8.20820126,3.26178862 6.48195122,3.26178862 C4.75570117,3.26178862 3.33829429,4.62326143 3.26478331,6.34164883 L3.26178862,6.41165252 L3.26178862,13.064878 C3.26178862,13.1201065 3.30656014,13.164878 3.36178862,13.164878 L10.0150141,13.164878 L10.0850178,13.1618834 C11.8034052,13.0883724 13.164878,11.6709655 13.164878,9.94471545 C13.164878,8.2184654 11.8034052,6.80105852 10.0850178,6.72754754 L10.0150141,6.72455285 L9.7154994,6.72455285 L9.71495027,6.7117164 Z" id="Combined-Shape-Copy-2" transform="translate(8.213333, 8.213333) rotate(-45.000000) translate(-8.213333, -8.213333) "></path>
            </g>
        </g>
    </g>
</svg>