<?xml version="1.0" encoding="UTF-8"?>
<svg width="64px" height="64px" viewBox="0 0 64 64" version="1.1" xmlns="http://www.w3.org/2000/svg" xmlns:xlink="http://www.w3.org/1999/xlink">
    <!-- Generator: Sketch 56.2 (81672) - https://sketch.com -->
    <title>Engagement</title>
    <desc>Created with Sketch.</desc>
    <defs>
        <linearGradient x1="5.60280171%" y1="26.1565937%" x2="80.4424555%" y2="78.3038549%" id="linearGradient-1">
            <stop stop-color="#FC8081" offset="0%"></stop>
            <stop stop-color="#F16162" offset="100%"></stop>
        </linearGradient>
        <linearGradient x1="41.7665268%" y1="-11.8857326%" x2="50%" y2="100%" id="linearGradient-2">
            <stop stop-color="#00C9FF" offset="0%"></stop>
            <stop stop-color="#0099FF" offset="100%"></stop>
        </linearGradient>
        <path d="M49.4769767,6.92276965 C51.8016023,7.02221492 53.6556977,8.93827261 53.6556977,11.2873775 C53.6556977,13.6364824 51.8016023,15.5525401 49.4769767,15.6519853 L49.4769767,15.6560403 L41.2396512,15.6560403 C40.9635088,15.6560403 40.7396512,15.4321827 40.7396512,15.1560403 L40.7396512,6.9187147 L40.7437061,6.9187147 C40.8431514,4.59408916 42.7592091,2.73999377 45.108314,2.73999377 C47.4574188,2.73999377 49.3734765,4.59408916 49.4729218,6.9187147 L49.4769767,6.9187147 L49.4769767,6.92276965 Z" id="path-3"></path>
    </defs>
    <g id="Engagement" stroke="none" stroke-width="1" fill="none" fill-rule="evenodd">
        <g id="Group" transform="translate(3.500000, 7.500000)">
            <path d="M8.45641702,38.9936814 C3.43769892,35.999234 0.0762782511,30.5155615 0.0762782511,24.2467872 C0.0762782511,14.769561 7.75908803,7.08675124 17.2363142,7.08675124 L37.3086842,7.08675124 C46.7859103,7.08675124 54.4687201,14.769561 54.4687201,24.2467872 C54.4687201,33.7240133 46.7859103,41.4068231 37.3086842,41.4068231 L17.2363142,41.4068231 C16.6669226,41.4068231 16.1040082,41.3790912 15.5488479,41.3249044 C9.7624702,47.3685444 0.435270685,53.6999707 8.45641346,38.9936879 Z" id="Path-2" stroke="#073863" fill="url(#linearGradient-1)"></path>
            <path d="M14.0829361,25.2380178 L40.5972085,25.2380178" id="Line-Copy" stroke="#FFFFFF" stroke-linecap="round"></path>
            <path d="M14.0829361,18.3310411 L40.5972085,18.3310411" id="Line-Copy-3" stroke="#FFFFFF" stroke-linecap="round"></path>
            <path d="M14.0829361,32.1449946 L40.5972085,32.1449946" id="Line-Copy-2" stroke="#FFFFFF" stroke-linecap="round"></path>
            <g id="Combined-Shape" transform="translate(47.197674, 9.198017) rotate(-45.000000) translate(-47.197674, -9.198017) ">
                <use stroke="#FFFFFF" stroke-width="1.1" fill="url(#linearGradient-2)" fill-rule="evenodd" xlink:href="#path-3"></use>
                <path stroke="#073863" stroke-width="0.5" d="M49.2331249,7.16256655 L49.2269767,7.16230354 L49.2269767,7.01884785 L49.2231502,6.92939969 C49.1291181,4.73131234 47.3162601,2.98999377 45.108314,2.98999377 C42.9003678,2.98999377 41.0875098,4.73131234 40.9934777,6.92939969 L40.9896512,7.01884785 L40.9896512,15.1560403 C40.9896512,15.2941115 41.10158,15.4060403 41.2396512,15.4060403 L49.3768436,15.4060403 L49.4662918,15.4022138 C51.6643791,15.3081817 53.4056977,13.4953237 53.4056977,11.2873775 C53.4056977,9.07943133 51.6643791,7.26657329 49.4662918,7.17254121 L49.3768436,7.1687147 L49.2333879,7.1687147 L49.2331249,7.16256655 Z" stroke-linejoin="square"></path>
            </g>
        </g>
    </g>
</svg>