<?xml version="1.0" encoding="UTF-8"?>
<svg width="64px" height="64px" viewBox="0 0 64 64" version="1.1" xmlns="http://www.w3.org/2000/svg" xmlns:xlink="http://www.w3.org/1999/xlink">
    <!-- Generator: Sketch 61 (89581) - https://sketch.com -->
    <title>experience</title>
    <desc>Created with Sketch.</desc>
    <defs>
        <linearGradient x1="50%" y1="17.0315215%" x2="50%" y2="100%" id="linearGradient-1">
            <stop stop-color="#F99A9B" offset="0%"></stop>
            <stop stop-color="#F16162" offset="100%"></stop>
        </linearGradient>
        <linearGradient x1="50%" y1="17.0315215%" x2="50%" y2="100%" id="linearGradient-2">
            <stop stop-color="#F99A9B" offset="0%"></stop>
            <stop stop-color="#F16162" offset="100%"></stop>
        </linearGradient>
        <linearGradient x1="49.2554855%" y1="12.4465878%" x2="50.7445145%" y2="87.5534122%" id="linearGradient-3">
            <stop stop-color="#72E6DC" offset="0%"></stop>
            <stop stop-color="#3EC8B7" offset="100%"></stop>
        </linearGradient>
        <linearGradient x1="49.4912129%" y1="33.1376045%" x2="50.5087871%" y2="66.8623955%" id="linearGradient-4">
            <stop stop-color="#72E6DC" offset="0%"></stop>
            <stop stop-color="#3EC8B7" offset="100%"></stop>
        </linearGradient>
        <linearGradient x1="49.2951327%" y1="16.7906828%" x2="50.7048673%" y2="83.2093172%" id="linearGradient-5">
            <stop stop-color="#83EEE5" offset="0%"></stop>
            <stop stop-color="#3EC8B7" offset="100%"></stop>
        </linearGradient>
        <linearGradient x1="5.60280171%" y1="26.1564262%" x2="80.4424555%" y2="78.3040537%" id="linearGradient-6">
            <stop stop-color="#3BCCA6" offset="0%"></stop>
            <stop stop-color="#60CFB2" offset="100%"></stop>
        </linearGradient>
        <linearGradient x1="11.2183019%" y1="10.0762264%" x2="59.5254222%" y2="91.4474812%" id="linearGradient-7">
            <stop stop-color="#5ACEF9" offset="0%"></stop>
            <stop stop-color="#19ADE4" offset="100%"></stop>
        </linearGradient>
        <linearGradient x1="50%" y1="0%" x2="50%" y2="100%" id="linearGradient-8">
            <stop stop-color="#9AF9AB" offset="0%"></stop>
            <stop stop-color="#61F1C0" offset="100%"></stop>
        </linearGradient>
    </defs>
    <g id="experience" stroke="none" stroke-width="1" fill="none" fill-rule="evenodd">
        <path d="M8.62151045,30.9873866 L39.637394,30.9873866 C40.1896788,30.9873866 40.637394,31.4351018 40.637394,31.9873866 L40.637394,56 C40.637394,57.1045695 39.7419635,58 38.637394,58 L8.62151045,58 C7.51694095,58 6.62151045,57.1045695 6.62151045,56 L6.62151045,32.9873866 C6.62151045,31.8828171 7.51694095,30.9873866 8.62151045,30.9873866 Z" id="Rectangle-12" stroke="#073863" fill="url(#linearGradient-1)"></path>
        <path d="M4.80994933,29.7151524 C3.53594479,30.1340736 2.81944139,31.4836195 3.18613929,32.7736254 L4.01757218,35.6985217 C4.02042286,35.7082972 4.02042286,35.7082972 4.02353788,35.7179918 C4.10979603,35.9803163 4.39237811,36.1230463 4.6547026,36.0367881 L38.335736,24.9617119 C38.5905369,24.8779277 38.7338376,24.6080185 38.660498,24.3500173 L37.8736367,21.5819191 C37.8643558,21.5492698 37.8544109,21.5168129 37.8438082,21.4845685 C37.4125174,20.172946 35.9996071,19.4592962 34.6879846,19.8905869 L4.80994933,29.7151524 Z" id="Rectangle-13" stroke="#073863" fill="url(#linearGradient-2)"></path>
        <path d="M21.6564848,23.5670013 L24.9995958,22.4807587 C25.9567202,22.1697702 26.4670547,21.0316466 26.1073165,19.9244865 C25.8709548,19.1970397 25.1677675,18.7935291 24.5543604,18.9928371 C24.4379328,19.0306668 24.3287755,19.0891071 24.2307706,19.1662732 L21.1366289,21.6025065 C20.7504961,21.9065357 20.5962022,22.477513 20.7721512,23.0190283 C20.9109754,23.4462853 21.3148101,23.6780182 21.6564848,23.5670013 Z" id="Rectangle-15" stroke="#073863" fill="url(#linearGradient-3)"></path>
        <path d="M17.5504588,24.9011301 C17.8921335,24.7901132 18.0826334,24.3652693 17.9438093,23.9380123 C17.7678603,23.396497 17.3074218,23.0252584 16.8163299,23.0062567 L12.8811348,22.8539934 C12.75649,22.8491706 12.6338295,22.8660524 12.5174019,22.9038821 C11.9039948,23.1031901 11.572282,23.8429602 11.8086437,24.5704069 C12.1683819,25.677567 13.2502233,26.2983613 14.2073478,25.9873727 L17.5504588,24.9011301 Z" id="Rectangle-15" stroke="#073863" fill="url(#linearGradient-4)"></path>
        <path d="M16.9287385,22.5225053 C16.6661115,22.607838 16.522386,22.8899151 16.6077187,23.1525421 L17.2263301,25.0564323 C17.3116628,25.3190593 17.5937399,25.4627848 17.8563669,25.3774521 L21.6632588,24.1405179 C21.9258858,24.0551853 22.0696112,23.7731082 21.9842785,23.5104812 L21.3656671,21.606591 C21.2803344,21.3439639 20.9982573,21.2002385 20.7356303,21.2855712 L16.9287385,22.5225053 Z" id="Rectangle-14" stroke="#073863" fill="url(#linearGradient-5)"></path>
        <line x1="38.2609686" y1="49.7803882" x2="38.2609686" y2="55.0861666" id="Line-3" stroke="#073863" stroke-linecap="round"></line>
        <g id="Group" transform="translate(42.962747, 15.820242)">
            <path d="M12.7379818,0.0296187249 C15.9737092,0.0296187249 18.5967846,2.6526941 18.5967846,5.88842156 C18.5967846,9.12414902 15.9737092,11.7472244 12.7379818,11.7472244 L5.88484586,11.7472244 C5.6905654,11.7472244 5.49849359,11.737768 5.30906561,11.7192904 C3.3066459,13.8108399 0.0579516807,16.0064664 3.0065792,10.706663 L2.8688378,10.9123239 C1.16550914,9.88756209 0.0260430244,8.02106011 0.0260430244,5.88842156 C0.0260430244,2.6526941 2.6491184,0.0296187249 5.88484586,0.0296187249 L12.7379818,0.0296187249 Z" id="Path-2" stroke="#073863" fill="url(#linearGradient-6)"></path>
            <line x1="4.80821522" y1="6.22684889" x2="13.8607542" y2="6.22684889" id="Line-Copy" stroke="#FFFFFF" stroke-width="0.75" stroke-linecap="round"></line>
            <line x1="4.80821522" y1="3.86865948" x2="13.8607542" y2="3.86865948" id="Line-Copy-3" stroke="#FFFFFF" stroke-width="0.75" stroke-linecap="round"></line>
            <line x1="4.80821522" y1="8.5850383" x2="13.8607542" y2="8.5850383" id="Line-Copy-2" stroke="#FFFFFF" stroke-width="0.75" stroke-linecap="round"></line>
        </g>
        <path d="M39.0173131,7.69377166 C38.030644,6.67571256 36.4498143,6.67956395 35.4676406,7.70532584 C34.5126503,8.70269802 34.4674383,10.3112065 35.3457345,11.3510553 L35.4907155,11.5110009 L39.3757071,15.5684059 L43.0269909,11.765483 C43.1374942,11.6823291 43.2421868,11.5893468 43.3402783,11.486902 C44.3378784,10.445029 44.3378784,8.74719881 43.3402783,7.70532584 C42.354403,6.67569804 40.7653508,6.67569804 39.7794778,7.70532339 L39.7794394,7.70536355 L39.7794166,7.70538736 C39.7057797,7.78981455 39.5831571,7.86738384 39.4059523,7.87004848 L39.1677806,7.87362987 L39.0173131,7.69377166 Z" id="Combined-Shape-Copy-6" stroke="#073863" fill="url(#linearGradient-7)" transform="translate(39.403956, 11.361982) rotate(-365.000000) translate(-39.403956, -11.361982) "></path>
        <path d="M22.9900757,47.2989978 L21.9502985,47.845641 C21.5400502,48.0613213 21.0326348,47.9035928 20.8169545,47.4933445 C20.7310694,47.3299814 20.7014326,47.1428621 20.7326322,46.9609547 L20.931212,45.8031458 C20.9868499,45.4787517 20.8793014,45.1477515 20.6436153,44.9180143 L19.8024179,44.0980495 C19.4705201,43.7745291 19.4637288,43.2432075 19.7872493,42.9113097 C19.9160768,42.7791462 20.0848796,42.6931369 20.2675251,42.6665969 L21.4300313,42.4976749 C21.7557414,42.4503464 22.037307,42.2457771 22.182969,41.9506336 L22.7028576,40.8972243 C22.9079818,40.4815973 23.4112,40.3109511 23.8268269,40.5160752 C23.9923318,40.5977568 24.1262944,40.7317194 24.2079759,40.8972243 L24.7278645,41.9506336 C24.8735266,42.2457771 25.1550921,42.4503464 25.4808023,42.4976749 L26.6433085,42.6665969 C27.1019801,42.7332458 27.4197773,43.1591022 27.3531284,43.6177738 C27.3265885,43.8004192 27.2405791,43.969222 27.1084157,44.0980495 L26.2672183,44.9180143 C26.0315322,45.1477515 25.9239837,45.4787517 25.9796216,45.8031458 L26.1782014,46.9609547 C26.2565519,47.4177729 25.9497431,47.8516128 25.4929249,47.9299633 C25.3110175,47.9611628 25.1238981,47.931526 24.9605351,47.845641 L23.9207579,47.2989978 C23.6294339,47.1458397 23.2813997,47.1458397 22.9900757,47.2989978 Z" id="Star" stroke="#073863" fill="url(#linearGradient-8)"></path>
    </g>
</svg>