<?xml version="1.0" encoding="UTF-8"?>
<svg width="64px" height="64px" viewBox="0 0 64 64" version="1.1" xmlns="http://www.w3.org/2000/svg" xmlns:xlink="http://www.w3.org/1999/xlink">
    <!-- Generator: Sketch 56.2 (81672) - https://sketch.com -->
    <title>interests</title>
    <desc>Created with Sketch.</desc>
    <defs>
        <linearGradient x1="50%" y1="0%" x2="50%" y2="100%" id="linearGradient-1">
            <stop stop-color="#00C9FF" offset="0%"></stop>
            <stop stop-color="#0099FF" offset="100%"></stop>
        </linearGradient>
        <linearGradient x1="50%" y1="0%" x2="50%" y2="100%" id="linearGradient-2">
            <stop stop-color="#00C9FF" offset="0%"></stop>
            <stop stop-color="#0099FF" offset="100%"></stop>
        </linearGradient>
        <linearGradient x1="10.2277075%" y1="11.5956347%" x2="59.6114475%" y2="88.4043653%" id="linearGradient-3">
            <stop stop-color="#7CF6E7" offset="0%"></stop>
            <stop stop-color="#3EC8B7" offset="100%"></stop>
        </linearGradient>
        <linearGradient x1="11.2183019%" y1="10.0762264%" x2="59.5254222%" y2="91.4474812%" id="linearGradient-4">
            <stop stop-color="#5ACEF9" offset="0%"></stop>
            <stop stop-color="#19ADE4" offset="100%"></stop>
        </linearGradient>
        <linearGradient x1="11.2183019%" y1="10.0762264%" x2="59.5254222%" y2="91.4474812%" id="linearGradient-5">
            <stop stop-color="#F16162" offset="0%"></stop>
            <stop stop-color="#F16162" offset="100%"></stop>
        </linearGradient>
    </defs>
    <g id="interests" stroke="none" stroke-width="1" fill="none" fill-rule="evenodd">
        <path d="M22.7607693,28.5130357 C22.6025938,28.4706157 22.4404549,28.4446696 22.2769407,28.4356114 C20.9672725,28.3630596 19.8467617,29.3659406 19.7742099,30.6756088 L18.5447808,52.8686333 C18.5423574,52.9123803 18.5411449,52.956186 18.5411449,53 C18.5411449,54.3116763 19.6044687,55.375 20.9161449,55.375 L41.0025917,55.375 C41.0463644,55.375 41.0901288,55.3737899 41.1338346,55.371371 C42.4435066,55.2988875 43.4464461,54.1784291 43.3739626,52.8687571 L42.1456924,30.6756811 C42.1366416,30.5121466 42.1106987,30.349987 42.0682779,30.1917912 C41.7285494,28.9248739 40.4261058,28.173239 39.1591885,28.5129675 L30.959406,30.7117692 L22.7607693,28.5130357 Z" id="Rectangle-18" stroke="#073863" stroke-width="1.25" fill="url(#linearGradient-1)"></path>
        <path d="M30.9284696,28.3446072 C35.7238982,28.3446072 39.2823084,21.6942551 39.2823084,16.8219994 C39.2823084,11.9497437 35.7238982,8 30.9284696,8 C26.133041,8 22.6367207,11.9497437 22.6367207,16.8219994 C22.6367207,21.6942551 26.133041,28.3446072 30.9284696,28.3446072 Z" id="Oval-5" stroke="#073863" stroke-width="1.5" fill="url(#linearGradient-2)"></path>
        <path d="M43.4092934,14.4555078 L43.470902,14.4009562 C43.5530308,14.3395086 43.6308424,14.2705923 43.7037382,14.1944614 C44.4338963,13.4318993 44.4338963,12.1869216 43.7037382,11.4243595 C42.9853049,10.6740425 41.8298617,10.6740425 41.1114284,11.4243595 C41.1070041,11.4289902 41.1070041,11.4289902 41.1026043,11.433636 L40.7421717,11.8150451 L40.3786227,11.4366054 L40.3580159,11.4151457 C39.6387179,10.673736 38.4897596,10.6774474 37.7745865,11.4243595 C37.0477475,12.1834551 37.044072,13.4215087 37.7634637,14.182845 L40.7169167,17.2673704 L43.4092934,14.4555078 Z" id="Combined-Shape-Copy-5" stroke="#073863" fill="url(#linearGradient-3)" transform="translate(40.739160, 14.026882) rotate(-7.000000) translate(-40.739160, -14.026882) "></path>
        <path d="M43.843033,45.9566863 L43.9046416,45.9021347 C43.9867705,45.8406871 44.064582,45.7717708 44.1374778,45.69564 C44.867636,44.9330779 44.867636,43.6881001 44.1374778,42.925538 C43.4190445,42.1752211 42.2636014,42.1752211 41.545168,42.925538 C41.5407438,42.9301687 41.5407438,42.9301687 41.5363439,42.9348145 L41.1759114,43.3162236 L40.8123624,42.9377839 L40.7917556,42.9163243 C40.0724576,42.1749145 38.9234993,42.1786259 38.2083262,42.925538 C37.4814872,43.6846336 37.4778116,44.9226872 38.1972034,45.6840235 L41.1506564,48.7685489 L43.843033,45.9566863 Z" id="Combined-Shape-Copy-6" stroke="#073863" fill="url(#linearGradient-4)" transform="translate(41.172900, 45.677158) rotate(-345.000000) translate(-41.172900, -45.677158) "></path>
        <path d="M20.8537684,36.8656666 L20.9153769,36.811115 C20.9975058,36.7496674 21.0753173,36.6807511 21.1482131,36.6046202 C21.8783713,35.8420581 21.8783713,34.5970804 21.1482131,33.8345183 C20.4297798,33.0842014 19.2743367,33.0842014 18.5559034,33.8345183 C18.5514791,33.839149 18.5514791,33.839149 18.5470792,33.8437948 L18.1866467,34.2252039 L17.8230977,33.8467642 L17.8024909,33.8253046 C17.0831929,33.0838948 15.9342346,33.0876062 15.2190615,33.8345183 C14.4922225,34.5936139 14.4885469,35.8316675 15.2079387,36.5930038 L18.1613917,39.6775292 L20.8537684,36.8656666 Z" id="Combined-Shape-Copy-7" stroke="#073863" fill="url(#linearGradient-5)" transform="translate(18.183635, 36.586139) rotate(-337.000000) translate(-18.183635, -36.586139) "></path>
    </g>
</svg>