<?xml version="1.0" encoding="UTF-8"?>
<svg width="64px" height="64px" viewBox="0 0 64 64" version="1.1" xmlns="http://www.w3.org/2000/svg" xmlns:xlink="http://www.w3.org/1999/xlink">
    <!-- Generator: Sketch 56.2 (81672) - https://sketch.com -->
    <title>Influencer Missions</title>
    <desc>Created with Sketch.</desc>
    <defs>
        <linearGradient x1="50%" y1="0%" x2="50%" y2="100%" id="linearGradient-1">
            <stop stop-color="#36D6F3" offset="0%"></stop>
            <stop stop-color="#19ADE4" offset="100%"></stop>
        </linearGradient>
        <linearGradient x1="50%" y1="0%" x2="50%" y2="100%" id="linearGradient-2">
            <stop stop-color="#00C9FF" offset="0%"></stop>
            <stop stop-color="#0099FF" offset="100%"></stop>
        </linearGradient>
        <linearGradient x1="19.899803%" y1="26.7563346%" x2="50%" y2="82%" id="linearGradient-3">
            <stop stop-color="#F99A9B" offset="0%"></stop>
            <stop stop-color="#F16162" offset="100%"></stop>
        </linearGradient>
        <linearGradient x1="50%" y1="0%" x2="50%" y2="100%" id="linearGradient-4">
            <stop stop-color="#EEEEEE" offset="0%"></stop>
            <stop stop-color="#D8D8D8" offset="100%"></stop>
        </linearGradient>
        <linearGradient x1="50%" y1="0%" x2="50%" y2="100%" id="linearGradient-5">
            <stop stop-color="#EEEEEE" offset="0%"></stop>
            <stop stop-color="#D8D8D8" offset="100%"></stop>
        </linearGradient>
        <path d="M24.9632086,15.8737396 C26.1735176,16.3094597 27.0388986,17.4677533 27.0388986,18.8281674 C27.0388986,20.5618667 25.6334576,21.9673077 23.8997583,21.9673077 L16.6391403,21.9673077 C14.905441,21.9673077 13.5,20.5618667 13.5,18.8281674 C13.5,17.8493108 13.948026,16.9750963 14.6502014,16.3994004 C14.6477021,16.3460257 14.646439,16.2923426 14.646439,16.2383767 C14.646439,14.287965 16.2962618,12.7068439 18.3314215,12.7068439 C18.3853393,12.7068439 18.4389866,12.7079537 18.49234,12.7101507 C19.164472,11.8504985 20.2360439,11.2942308 21.4431845,11.2942308 C23.4783441,11.2942308 25.1281669,12.8753519 25.1281669,14.8257636 C25.1281669,15.1906598 25.0704207,15.5426302 24.9632086,15.8737396 Z" id="path-6"></path>
    </defs>
    <g id="Influencer-Missions" stroke="none" stroke-width="1" fill="none" fill-rule="evenodd">
        <g id="Group" transform="translate(2.826923, 4.250000)" stroke="#073863">
            <path d="M15.8367349,26.0329454 L29.1610086,52.6814928 C29.4079978,53.1754713 29.2077735,53.7761444 28.713795,54.0231336 C28.5749396,54.0925613 28.4218265,54.1287064 28.2665814,54.1287064 L1.61803399,54.1287064 C1.06574924,54.1287064 0.618033989,53.6809912 0.618033989,53.1287064 C0.618033989,52.9734613 0.654179081,52.8203482 0.723606798,52.6814928 L14.0478805,26.0329454 C14.2948698,25.5389669 14.8955428,25.3387426 15.3895213,25.5857318 C15.5830487,25.6824955 15.7399712,25.839418 15.8367349,26.0329454 Z" id="Triangle" fill="url(#linearGradient-1)"></path>
            <path d="M36.2884615,12.911259 L36.2884615,2.84615385" id="Line-3" stroke-width="0.75" stroke-linecap="round"></path>
            <path d="M37.1828887,11.8021762 L57.622547,52.6814928 C57.8695363,53.1754713 57.669312,53.7761444 57.1753335,54.0231336 C57.036478,54.0925613 56.883365,54.1287064 56.7281199,54.1287064 L15.8488032,54.1287064 C15.2965185,54.1287064 14.8488032,53.6809912 14.8488032,53.1287064 C14.8488032,52.9734613 14.8849483,52.8203482 14.954376,52.6814928 L35.3940343,11.8021762 C35.6410236,11.3081977 36.2416966,11.1079733 36.7356751,11.3549626 C36.9292025,11.4517263 37.086125,11.6086488 37.1828887,11.8021762 Z" id="Triangle-Copy" fill="url(#linearGradient-2)"></path>
            <path d="M36.1224851,0.375 L36.1224851,5.31730769 L42.2278684,5.31730769 L41.0316925,3.1479384 C40.9281093,2.96008124 40.9281093,2.73222646 41.0316925,2.5443693 L42.2278684,0.375 L36.1224851,0.375 Z" id="Rectangle" stroke-width="0.75" fill="url(#linearGradient-3)"></path>
        </g>
        <path d="M31.5280663,13.8096261 C32.6977532,14.2660732 33.5264552,15.403791 33.5264552,16.7350626 C33.5264552,18.4687619 32.1210142,19.8742028 30.3873149,19.8742028 L23.6904823,19.8742028 C21.956783,19.8742028 20.551342,18.4687619 20.551342,16.7350626 C20.551342,15.7777374 20.9798748,14.9205013 21.6555783,14.3447166 C21.6519032,14.2787026 21.6500411,14.2122047 21.6500411,14.1452718 C21.6500411,12.1948601 23.2311622,10.613739 25.1815739,10.613739 C25.2332465,10.613739 25.2846599,10.6148488 25.3357915,10.6170458 C25.9799347,9.7573936 27.0068843,9.20112592 28.1637572,9.20112592 C30.1141689,9.20112592 31.69529,10.782247 31.69529,12.7326587 C31.69529,13.1082246 31.6366647,13.4700977 31.5280663,13.8096261 Z" id="Combined-Shape" stroke="#073863" stroke-width="0.7" fill="url(#linearGradient-4)"></path>
        <g id="Combined-Shape">
            <use stroke="#073863" stroke-width="1.25" fill="url(#linearGradient-5)" fill-rule="evenodd" xlink:href="#path-6"></use>
            <path stroke="#FFFFFF" stroke-width="0.7" d="M25.3826512,15.6688788 C26.5894947,16.2353738 27.3888986,17.4560007 27.3888986,18.8281674 C27.3888986,20.7551664 25.8267573,22.3173077 23.8997583,22.3173077 L16.6391403,22.3173077 C14.7121413,22.3173077 13.15,20.7551664 13.15,18.8281674 C13.15,17.8284983 13.5734033,16.8974739 14.2964411,16.242397 C14.2964397,16.241057 14.296439,16.2397169 14.296439,16.2383767 C14.296439,14.0919094 16.1051139,12.3578986 18.329392,12.3568444 C19.0891947,11.4704914 20.2215511,10.9442308 21.4431845,10.9442308 C23.6683918,10.9442308 25.4781669,12.6786435 25.4781669,14.8257636 C25.4781669,15.1120026 25.4458951,15.3942737 25.3826512,15.6688788 Z"></path>
        </g>
    </g>
</svg>