<?xml version="1.0" encoding="UTF-8"?>
<svg width="64px" height="64px" viewBox="0 0 64 64" version="1.1" xmlns="http://www.w3.org/2000/svg" xmlns:xlink="http://www.w3.org/1999/xlink">
    <!-- Generator: Sketch 56.2 (81672) - https://sketch.com -->
    <title>Reach</title>
    <desc>Created with Sketch.</desc>
    <defs>
        <linearGradient x1="50%" y1="0%" x2="50%" y2="100%" id="linearGradient-1">
            <stop stop-color="#00C9FF" offset="0%"></stop>
            <stop stop-color="#0099FF" offset="100%"></stop>
        </linearGradient>
        <path d="M10.3074671,25.7645425 L18.6793988,28.0097507 L27.0525117,25.7644699 C28.6528282,25.3353392 30.2980202,26.2847728 30.727151,27.8850893 C30.7807351,28.0849156 30.8135051,28.2897488 30.8249376,28.4963186 L32.0996404,51.5283628 C32.1911984,53.1826853 30.9243275,54.5980012 29.2700049,54.6895593 C29.2147976,54.6926147 29.1595163,54.6941433 29.1042244,54.6941433 L8.25447293,54.6941433 C6.59761868,54.6941433 5.25447293,53.3509976 5.25447293,51.6941433 C5.25447293,51.6387992 5.25600441,51.5834658 5.25906562,51.5282064 L6.5349711,28.4962138 C6.6266155,26.841896 8.0419975,25.575099 9.69631528,25.6667434 C9.90285953,25.6781853 10.1076665,25.7109594 10.3074671,25.7645425 Z" id="path-2"></path>
        <path d="M36.948464,25.7645425 L45.3203957,28.0097507 L53.6935086,25.7644699 C55.2938251,25.3353392 56.9390171,26.2847728 57.3681478,27.8850893 C57.421732,28.0849156 57.4545019,28.2897488 57.4659345,28.4963186 L58.7406372,51.5283628 C58.8321953,53.1826853 57.5653244,54.5980012 55.9110018,54.6895593 C55.8557944,54.6926147 55.8005131,54.6941433 55.7452213,54.6941433 L34.8954698,54.6941433 C33.2386155,54.6941433 31.8954698,53.3509976 31.8954698,51.6941433 C31.8954698,51.6387992 31.8970013,51.5834658 31.9000625,51.5282064 L33.175968,28.4962138 C33.2676124,26.841896 34.6829944,25.575099 36.3373121,25.6667434 C36.5438564,25.6781853 36.7486634,25.7109594 36.948464,25.7645425 Z" id="path-3"></path>
        <linearGradient x1="50%" y1="0%" x2="50%" y2="100%" id="linearGradient-4">
            <stop stop-color="#00C9FF" offset="0%"></stop>
            <stop stop-color="#0099FF" offset="100%"></stop>
        </linearGradient>
        <path d="M17.7457776,26.4322118 C22.6797105,26.4322118 26.3408968,19.5897805 26.3408968,14.5768015 C26.3408968,9.56382243 22.6797105,5.5 17.7457776,5.5 C12.8118447,5.5 9.21454167,9.56382243 9.21454167,14.5768015 C9.21454167,19.5897805 12.8118447,26.4322118 17.7457776,26.4322118 Z" id="path-5"></path>
        <path d="M44.3867745,26.4322118 C49.3207073,26.4322118 52.9818937,19.5897805 52.9818937,14.5768015 C52.9818937,9.56382243 49.3207073,5.5 44.3867745,5.5 C39.4528416,5.5 35.8555385,9.56382243 35.8555385,14.5768015 C35.8555385,19.5897805 39.4528416,26.4322118 44.3867745,26.4322118 Z" id="path-6"></path>
        <path d="M23.6279656,29.5703992 L31.9998973,31.8156074 L40.3730102,29.5703266 C41.9733267,29.1411959 43.6185187,30.0906295 44.0476494,31.690946 C44.1012335,31.8907723 44.1340035,32.0956055 44.145436,32.3021753 L45.4201388,55.3342194 C45.5116969,56.988542 44.2448259,58.4038579 42.5905034,58.495416 C42.535296,58.4984714 42.4800147,58.5 42.4247228,58.5 L21.5749714,58.5 C19.9181171,58.5 18.5749714,57.1568542 18.5749714,55.5 C18.5749714,55.4446559 18.5765028,55.3893225 18.579564,55.3340631 L19.8554695,32.3020705 C19.9471139,30.6477527 21.3624959,29.3809557 23.0168137,29.4726001 C23.223358,29.484042 23.4281649,29.5168161 23.6279656,29.5703992 Z" id="path-7"></path>
        <path d="M31.066276,26.4322118 C36.0002089,26.4322118 39.6613952,19.5897805 39.6613952,14.5768015 C39.6613952,9.56382243 36.0002089,5.5 31.066276,5.5 C26.1323431,5.5 22.5350401,9.56382243 22.5350401,14.5768015 C22.5350401,19.5897805 26.1323431,26.4322118 31.066276,26.4322118 Z" id="path-8"></path>
    </defs>
    <g id="Reach" stroke="none" stroke-width="1" fill="none" fill-rule="evenodd">
        <g id="Rectangle-18">
            <path stroke="#073863" stroke-width="1.25" d="M10.1455736,26.3682109 C9.98739814,26.3257909 9.8252593,26.2998448 9.6617451,26.2907866 C8.35207686,26.2182347 7.23156611,27.2211158 7.15901429,28.530784 L5.8831088,51.5627766 C5.88068535,51.6065236 5.87947293,51.6503293 5.87947293,51.6941433 C5.87947293,53.0058196 6.94279664,54.0691433 8.25447293,54.0691433 L29.1042244,54.0691433 C29.1479971,54.0691433 29.1917615,54.0679332 29.2354673,54.0655143 C30.5451394,53.9930308 31.5480788,52.8725724 31.4755954,51.5629004 L30.2008926,28.5308562 C30.1918418,28.3673218 30.165899,28.2051622 30.1234782,28.0469663 C29.7837497,26.7800491 28.481306,26.0284142 27.2143888,26.3681426 L18.67939,28.6568338 L10.1455736,26.3682109 Z" stroke-linejoin="square" fill="url(#linearGradient-1)" fill-rule="evenodd"></path>
            <use stroke="#FFFFFF" stroke-width="1" xlink:href="#path-2"></use>
        </g>
        <g id="Rectangle-18-Copy">
            <path stroke="#073863" stroke-width="1.25" d="M36.7865705,26.3682109 C36.628395,26.3257909 36.4662562,26.2998448 36.302742,26.2907866 C34.9930737,26.2182347 33.872563,27.2211158 33.8000112,28.530784 L32.5241057,51.5627766 C32.5216822,51.6065236 32.5204698,51.6503293 32.5204698,51.6941433 C32.5204698,53.0058196 33.5837935,54.0691433 34.8954698,54.0691433 L55.7452213,54.0691433 C55.788994,54.0691433 55.8327584,54.0679332 55.8764642,54.0655143 C57.1861362,53.9930308 58.1890757,52.8725724 58.1165922,51.5629004 L56.8418895,28.5308562 C56.8328387,28.3673218 56.8068958,28.2051622 56.7644751,28.0469663 C56.4247466,26.7800491 55.1223029,26.0284142 53.8553857,26.3681426 L45.3203869,28.6568338 L36.7865705,26.3682109 Z" stroke-linejoin="square" fill="url(#linearGradient-1)" fill-rule="evenodd"></path>
            <use stroke="#FFFFFF" stroke-width="1" xlink:href="#path-3"></use>
        </g>
        <g id="Oval-5">
            <use stroke="#073863" stroke-width="1.5" fill="url(#linearGradient-4)" fill-rule="evenodd" xlink:href="#path-5"></use>
            <path stroke="#FFFFFF" stroke-width="1" d="M17.7457776,26.9322118 C12.8994792,26.9322118 8.71454167,20.4805445 8.71454167,14.5768015 C8.71454167,9.21306428 12.6031176,5 17.7457776,5 C22.8993599,5 26.8408968,9.22592709 26.8408968,14.5768015 C26.8408968,20.4611214 22.5991419,26.9322118 17.7457776,26.9322118 Z"></path>
        </g>
        <g id="Oval-5-Copy">
            <use stroke="#073863" stroke-width="1.5" fill="url(#linearGradient-4)" fill-rule="evenodd" xlink:href="#path-6"></use>
            <path stroke="#FFFFFF" stroke-width="1" d="M44.3867745,26.9322118 C39.540476,26.9322118 35.3555385,20.4805445 35.3555385,14.5768015 C35.3555385,9.21306428 39.2441145,5 44.3867745,5 C49.5403568,5 53.4818937,9.22592709 53.4818937,14.5768015 C53.4818937,20.4611214 49.2401388,26.9322118 44.3867745,26.9322118 Z"></path>
        </g>
        <g id="Rectangle-18">
            <path stroke="#073863" stroke-width="1.25" d="M23.4660721,30.1740676 C23.3078966,30.1316476 23.1457577,30.1057015 22.9822435,30.0966433 C21.6725753,30.0240914 20.5520645,31.0269725 20.4795127,32.3366407 L19.2036072,55.3686333 C19.2011838,55.4123803 19.1999714,55.456186 19.1999714,55.5 C19.1999714,56.8116763 20.2632951,57.875 21.5749714,57.875 L42.4247228,57.875 C42.4684956,57.875 42.5122599,57.8737899 42.5559658,57.871371 C43.8656378,57.7988875 44.8685773,56.6784291 44.7960938,55.3687571 L43.5213911,32.3367129 C43.5123403,32.1731785 43.4863974,32.0110189 43.4439766,31.852823 C43.1042481,30.5859058 41.8018045,29.8342709 40.5348872,30.1739993 L31.9998885,32.4626905 L23.4660721,30.1740676 Z" stroke-linejoin="square" fill="url(#linearGradient-1)" fill-rule="evenodd"></path>
            <use stroke="#FFFFFF" stroke-width="0.8" xlink:href="#path-7"></use>
        </g>
        <g id="Oval-5">
            <use stroke="#073863" stroke-width="1.5" fill="url(#linearGradient-4)" fill-rule="evenodd" xlink:href="#path-8"></use>
            <path stroke="#FFFFFF" stroke-width="0.8" d="M31.066276,26.8322118 C26.2865614,26.8322118 22.1350401,20.4320602 22.1350401,14.5768015 C22.1350401,9.26658223 25.980714,5.1 31.066276,5.1 C36.163013,5.1 40.0613952,9.27965878 40.0613952,14.5768015 C40.0613952,20.4125571 35.8533561,26.8322118 31.066276,26.8322118 Z"></path>
        </g>
    </g>
</svg>