<svg xmlns="http://www.w3.org/2000/svg" width="12" height="12" viewBox="0 0 12 12">
  <path fill="#979797" fill-rule="evenodd" d="M19.6995048,15.0087441 C19.9966195,15.0087441 20.25441,15.122347 20.4728764,15.349552 C20.6913428,15.5767574 20.8005763,15.838917 20.8005763,16.1360317 C20.8005763,16.4331459 20.6913428,16.6909365 20.4728764,16.9094029 C20.25441,17.1278697 19.9966195,17.2371027 19.6995048,17.2371027 C19.4023905,17.2371027 19.1402305,17.1278697 18.9130255,16.9094029 C18.6858201,16.6909365 18.5722176,16.4331459 18.5722176,16.1360317 C18.5722176,15.838917 18.6858201,15.5767574 18.9130255,15.349552 C19.1402305,15.122347 19.4023905,15.0087441 19.6995048,15.0087441 L19.6995048,15.0087441 Z M10.7336389,6.0690943 L12.5687575,6.0690943 L13.0930771,7.17016535 L21.3773277,7.17016535 C21.5346238,7.17016535 21.6657034,7.22696659 21.7705677,7.34056952 C21.8754312,7.454172 21.9278634,7.58962108 21.9278634,7.7469172 C21.9278634,7.83430358 21.9016473,7.92169041 21.8492156,8.0090768 L19.8568009,11.6268826 C19.647073,12.0113837 19.3237427,12.203634 18.8868094,12.203634 L14.7184683,12.203634 L14.2203647,13.1211933 L14.1941486,13.1998416 C14.1941486,13.287228 14.2378418,13.3309212 14.3252282,13.3309212 L20.8005763,13.3309212 L20.8005763,14.4582088 L14.0892847,14.4582088 C13.79217,14.4582088 13.5343795,14.3446063 13.315913,14.1174009 C13.0974466,13.8901955 12.9882132,13.6280359 12.9882132,13.3309212 C12.9882132,13.1561484 13.0319068,12.9813747 13.1192932,12.806602 L13.8795568,11.4171548 L11.8609261,7.17016535 L10.7336389,7.17016535 L10.7336389,6.0690943 Z M14.0892847,15.0087441 C14.3863989,15.0087441 14.648559,15.122347 14.875764,15.349552 C15.1029694,15.5767574 15.2165718,15.838917 15.2165718,16.1360317 C15.2165718,16.4331459 15.1029694,16.6909365 14.875764,16.9094029 C14.648559,17.1278697 14.3863989,17.2371027 14.0892847,17.2371027 C13.79217,17.2371027 13.5343795,17.1278697 13.315913,16.9094029 C13.0974466,16.6909365 12.9882132,16.4331459 12.9882132,16.1360317 C12.9882132,15.838917 13.0974466,15.5767574 13.315913,15.349552 C13.5343795,15.122347 13.79217,15.0087441 14.0892847,15.0087441 L14.0892847,15.0087441 Z" transform="translate(-10.413 -5.754)"/>
</svg>
