<svg width="40" height="38" viewBox="0 0 40 38" fill="none" xmlns="http://www.w3.org/2000/svg">
<path fill-rule="evenodd" clip-rule="evenodd" d="M26.605 17.3269C27.5123 16.923 27.9203 15.86 27.5164 14.9528C27.1124 14.0455 26.0495 13.6375 25.1423 14.0414C24.235 14.4454 23.827 15.5083 24.2309 16.4156C24.6348 17.3228 25.6978 17.7308 26.605 17.3269Z" fill="#D8D8D8" stroke="#073863"/>
<path d="M10.0475 17.8458C9.99616 17.6744 10.0403 17.4886 10.1632 17.3587L9.79998 17.0151L10.1632 17.3587L20.5209 6.40878C20.766 6.14966 21.1958 6.22316 21.3409 6.54901L29.6571 25.2275C29.7984 25.5449 29.5808 25.9062 29.2342 25.9297L13.2014 27.0181C12.9685 27.0339 12.7556 26.8863 12.6886 26.6627L10.0475 17.8458Z" fill="url(#paint0_linear)" stroke="#073863"/>
<mask id="path-3-inside-1" fill="white">
<path fill-rule="evenodd" clip-rule="evenodd" d="M29.1525 4.04099C29.1853 3.96076 29.2119 3.8765 29.2318 3.78861C29.4283 2.92083 28.8916 2.02773 28.0332 1.79379C27.1748 1.55986 26.3196 2.07369 26.1232 2.94147C26.1224 2.94498 26.1216 2.9485 26.1208 2.95202L26.1103 2.94917L26.0999 2.94633L26.0999 2.94636C25.245 2.71941 24.396 3.23258 24.2003 4.09684C24.0046 4.9611 24.5361 5.85048 25.3885 6.08877L25.3885 6.08881L25.3989 6.09165L28.4971 6.93595L29.1525 4.04099Z"/>
</mask>
<path fill-rule="evenodd" clip-rule="evenodd" d="M29.1525 4.04099C29.1853 3.96076 29.2119 3.8765 29.2318 3.78861C29.4283 2.92083 28.8916 2.02773 28.0332 1.79379C27.1748 1.55986 26.3196 2.07369 26.1232 2.94147C26.1224 2.94498 26.1216 2.9485 26.1208 2.95202L26.1103 2.94917L26.0999 2.94633L26.0999 2.94636C25.245 2.71941 24.396 3.23258 24.2003 4.09684C24.0046 4.9611 24.5361 5.85048 25.3885 6.08877L25.3885 6.08881L25.3989 6.09165L28.4971 6.93595L29.1525 4.04099Z" fill="url(#paint1_linear)"/>
<path d="M29.2318 3.78861L30.2071 4.00941L30.2071 4.00941L29.2318 3.78861ZM29.1525 4.04099L28.2266 3.6632L28.1954 3.73965L28.1772 3.82018L29.1525 4.04099ZM28.0332 1.79379L28.2961 0.828978L28.2961 0.828978L28.0332 1.79379ZM26.1232 2.94147L27.0985 3.16229L27.0985 3.16227L26.1232 2.94147ZM26.1208 2.95202L25.8579 3.91684L26.8721 4.19323L27.0975 3.16643L26.1208 2.95202ZM26.1103 2.94917L25.8474 3.91398L25.8474 3.91399L26.1103 2.94917ZM26.0999 2.94633L26.3628 1.98151L25.3544 1.70669L25.1244 2.72633L26.0999 2.94633ZM26.0999 2.94636L25.8433 3.91288L26.847 4.17932L27.0754 3.16636L26.0999 2.94636ZM24.2003 4.09684L25.1756 4.31765L25.1756 4.31765L24.2003 4.09684ZM25.3885 6.08877L26.3641 6.30823L26.5726 5.38147L25.6577 5.1257L25.3885 6.08877ZM25.3885 6.08881L24.4128 5.86935L24.203 6.80223L25.1255 7.05363L25.3885 6.08881ZM25.3989 6.09165L25.6618 5.12684L25.6618 5.12684L25.3989 6.09165ZM28.4971 6.93595L28.2342 7.90077L29.2418 8.17536L29.4724 7.15676L28.4971 6.93595ZM28.2565 3.5678C28.2487 3.60227 28.2385 3.63402 28.2266 3.6632L30.0784 4.41877C30.132 4.28751 30.1751 4.15074 30.2071 4.00941L28.2565 3.5678ZM27.7703 2.75861C28.1121 2.85177 28.3347 3.22222 28.2565 3.5678L30.2071 4.00941C30.5218 2.61945 29.6711 1.20368 28.2961 0.828978L27.7703 2.75861ZM27.0985 3.16227C27.1692 2.84976 27.4611 2.67437 27.7703 2.75861L28.2961 0.828978C26.8884 0.445361 25.47 1.29762 25.1478 2.72066L27.0985 3.16227ZM27.0975 3.16643C27.0979 3.16501 27.0982 3.16363 27.0985 3.16229L25.1478 2.72064C25.1466 2.72634 25.1453 2.732 25.1441 2.73761L27.0975 3.16643ZM25.8474 3.91399L25.8579 3.91684L26.3837 1.9872L26.3733 1.98435L25.8474 3.91399ZM25.837 3.91114L25.8474 3.91398L26.3733 1.98435L26.3628 1.98151L25.837 3.91114ZM27.0754 3.16636L27.0754 3.16632L25.1244 2.72633L25.1244 2.72636L27.0754 3.16636ZM25.1756 4.31765C25.2461 4.00623 25.5361 3.83132 25.8433 3.91288L26.3565 1.97984C24.9539 1.6075 23.5458 2.45894 23.225 3.87603L25.1756 4.31765ZM25.6577 5.1257C25.318 5.03073 25.0977 4.66161 25.1756 4.31765L23.225 3.87603C22.9115 5.26058 23.7543 6.67023 25.1192 7.05184L25.6577 5.1257ZM26.3641 6.30827L26.3641 6.30823L24.4128 5.86932L24.4128 5.86935L26.3641 6.30827ZM25.6618 5.12684L25.6514 5.12399L25.1255 7.05363L25.136 7.05647L25.6618 5.12684ZM28.76 5.97113L25.6618 5.12684L25.136 7.05647L28.2342 7.90077L28.76 5.97113ZM28.1772 3.82018L27.5218 6.71514L29.4724 7.15676L30.1278 4.26179L28.1772 3.82018Z" fill="#073863" mask="url(#path-3-inside-1)"/>
<path d="M1.54466 21.7057C1.43234 21.4534 1.5458 21.1578 1.79807 21.0455L9.82741 17.4706C10.0797 17.3583 10.3752 17.4718 10.4875 17.724L14.4281 26.5747C14.5405 26.827 14.427 27.1226 14.1747 27.2349L6.14539 30.8098C5.89312 30.9221 5.59757 30.8086 5.48525 30.5564L1.54466 21.7057Z" fill="url(#paint2_linear)" stroke="#073863"/>
<mask id="path-6-inside-2" fill="white">
<path fill-rule="evenodd" clip-rule="evenodd" d="M36.7998 19.9151C36.7986 19.8285 36.7902 19.7405 36.7742 19.6518C36.6159 18.7762 35.773 18.1638 34.8914 18.2839C34.0098 18.404 33.4234 19.2111 33.5816 20.0866C33.5823 20.0902 33.5829 20.0937 33.5836 20.0973L33.5728 20.0987L33.5621 20.1002L33.5621 20.1002C32.6865 20.2254 32.1055 21.0295 32.2631 21.9015C32.4206 22.7735 33.2574 23.3845 34.1351 23.2708L34.1351 23.2709L34.1458 23.2694L37.3276 22.836L36.7998 19.9151Z"/>
</mask>
<path fill-rule="evenodd" clip-rule="evenodd" d="M36.7998 19.9151C36.7986 19.8285 36.7902 19.7405 36.7742 19.6518C36.6159 18.7762 35.773 18.1638 34.8914 18.2839C34.0098 18.404 33.4234 19.2111 33.5816 20.0866C33.5823 20.0902 33.5829 20.0937 33.5836 20.0973L33.5728 20.0987L33.5621 20.1002L33.5621 20.1002C32.6865 20.2254 32.1055 21.0295 32.2631 21.9015C32.4206 22.7735 33.2574 23.3845 34.1351 23.2708L34.1351 23.2709L34.1458 23.2694L37.3276 22.836L36.7998 19.9151Z" fill="url(#paint3_linear)"/>
<path d="M36.7742 19.6518L37.7582 19.474L37.7582 19.474L36.7742 19.6518ZM36.7998 19.9151L35.7999 19.9291L35.801 20.0117L35.8157 20.0929L36.7998 19.9151ZM34.8914 18.2839L34.7564 17.293L34.7564 17.293L34.8914 18.2839ZM33.5816 20.0866L34.5657 19.9088L34.5657 19.9088L33.5816 20.0866ZM33.5836 20.0973L33.7186 21.0881L34.7602 20.9462L34.5665 19.913L33.5836 20.0973ZM33.5728 20.0987L33.7078 21.0896L33.7078 21.0896L33.5728 20.0987ZM33.5621 20.1002L33.4272 19.1093L32.3915 19.2504L32.5782 20.2788L33.5621 20.1002ZM33.5621 20.1002L33.7036 21.0902L34.7316 20.9433L34.546 19.9216L33.5621 20.1002ZM32.2631 21.9015L33.2471 21.7237L33.2471 21.7237L32.2631 21.9015ZM34.1351 23.2708L35.1189 23.0916L34.9487 22.1571L34.0066 22.2791L34.1351 23.2708ZM34.1351 23.2709L33.1513 23.45L33.3226 24.3908L34.2701 24.2617L34.1351 23.2709ZM34.1458 23.2694L34.0109 22.2785L34.0109 22.2785L34.1458 23.2694ZM37.3276 22.836L37.4626 23.8269L38.4974 23.6859L38.3117 22.6582L37.3276 22.836ZM35.7901 19.8296C35.7964 19.8644 35.7994 19.8976 35.7999 19.9291L37.7997 19.9011C37.7977 19.7593 37.784 19.6165 37.7582 19.474L35.7901 19.8296ZM35.0264 19.2747C35.3775 19.2269 35.7271 19.4809 35.7901 19.8296L37.7582 19.474C37.5048 18.0715 36.1685 17.1007 34.7564 17.293L35.0264 19.2747ZM34.5657 19.9088C34.5087 19.5935 34.7089 19.318 35.0264 19.2747L34.7564 17.293C33.3107 17.49 32.3381 18.8287 32.5976 20.2645L34.5657 19.9088ZM34.5665 19.913C34.5662 19.9116 34.5659 19.9102 34.5657 19.9088L32.5976 20.2645C32.5986 20.2702 32.5997 20.2759 32.6007 20.2816L34.5665 19.913ZM33.7078 21.0896L33.7186 21.0881L33.4486 19.1064L33.4379 19.1079L33.7078 21.0896ZM33.6971 21.091L33.7078 21.0896L33.4379 19.1079L33.4272 19.1093L33.6971 21.091ZM34.546 19.9216L34.546 19.9215L32.5782 20.2788L32.5782 20.2789L34.546 19.9216ZM33.2471 21.7237C33.1903 21.4094 33.3889 21.1351 33.7036 21.0902L33.4207 19.1103C31.9841 19.3156 31.0206 20.6495 31.279 22.0793L33.2471 21.7237ZM34.0066 22.2791C33.6568 22.3244 33.3098 22.0707 33.2471 21.7237L31.279 22.0793C31.5315 23.4763 32.858 24.4446 34.2636 24.2625L34.0066 22.2791ZM35.1189 23.0917L35.1189 23.0916L33.1513 23.45L33.1513 23.45L35.1189 23.0917ZM34.0109 22.2785L34.0001 22.28L34.2701 24.2617L34.2808 24.2602L34.0109 22.2785ZM37.1927 21.8452L34.0109 22.2785L34.2808 24.2602L37.4626 23.8269L37.1927 21.8452ZM35.8157 20.0929L36.3436 23.0138L38.3117 22.6582L37.7839 19.7373L35.8157 20.0929Z" fill="#073863" mask="url(#path-6-inside-2)"/>
<path d="M9.59683 30.3646C9.41115 30.1072 9.50905 29.7443 9.79893 29.6152L11.0522 29.0572C11.262 28.9638 11.5086 29.0254 11.6498 29.2065L14.9042 33.3795C15.4119 34.0306 15.1734 34.9854 14.4192 35.3212C13.8698 35.5658 13.2242 35.3917 12.8723 34.904L9.59683 30.3646Z" fill="url(#paint4_linear)" stroke="#073863"/>
<mask id="path-9-inside-3" fill="white">
<path fill-rule="evenodd" clip-rule="evenodd" d="M36.7581 11.2097C36.8185 11.1476 36.8748 11.0795 36.9262 11.0054C37.4334 10.2745 37.2704 9.24535 36.5621 8.70688C35.8538 8.16841 34.8684 8.32448 34.3612 9.05547C34.3592 9.05843 34.3571 9.0614 34.3551 9.06437L34.3464 9.05781L34.3378 9.05126L34.3378 9.05129C33.6302 8.52061 32.6507 8.67837 32.1455 9.40639C31.6404 10.1344 31.8 11.1581 32.501 11.6984L32.501 11.6984L32.5096 11.705L35.0659 13.6484L36.7581 11.2097Z"/>
</mask>
<path fill-rule="evenodd" clip-rule="evenodd" d="M36.7581 11.2097C36.8185 11.1476 36.8748 11.0795 36.9262 11.0054C37.4334 10.2745 37.2704 9.24535 36.5621 8.70688C35.8538 8.16841 34.8684 8.32448 34.3612 9.05547C34.3592 9.05843 34.3571 9.0614 34.3551 9.06437L34.3464 9.05781L34.3378 9.05126L34.3378 9.05129C33.6302 8.52061 32.6507 8.67837 32.1455 9.40639C31.6404 10.1344 31.8 11.1581 32.501 11.6984L32.501 11.6984L32.5096 11.705L35.0659 13.6484L36.7581 11.2097Z" fill="url(#paint5_linear)"/>
<path d="M36.9262 11.0054L37.7477 11.5755L37.7477 11.5755L36.9262 11.0054ZM36.7581 11.2097L36.0411 10.5126L35.9836 10.5718L35.9365 10.6397L36.7581 11.2097ZM36.5621 8.70688L37.1673 7.91081L37.1673 7.91081L36.5621 8.70688ZM34.3612 9.05547L35.1828 9.62557L35.1828 9.62555L34.3612 9.05547ZM34.3551 9.06437L33.7499 9.86044L34.5867 10.4967L35.1804 9.62906L34.3551 9.06437ZM34.3464 9.05781L33.7412 9.85387L33.7412 9.85388L34.3464 9.05781ZM34.3378 9.05126L34.943 8.25519L34.1109 7.6226L33.5158 8.48186L34.3378 9.05126ZM34.3378 9.05129L33.7378 9.85132L34.5686 10.4743L35.1599 9.6207L34.3378 9.05129ZM32.1455 9.40639L32.9671 9.97648L32.9671 9.97648L32.1455 9.40639ZM32.501 11.6984L33.3234 12.2673L33.8638 11.4861L33.1114 10.9063L32.501 11.6984ZM32.501 11.6984L31.6786 11.1295L31.1346 11.9158L31.8958 12.4945L32.501 11.6984ZM32.5096 11.705L33.1148 10.9089L33.1148 10.9089L32.5096 11.705ZM35.0659 13.6484L34.4607 14.4445L35.2921 15.0765L35.8875 14.2185L35.0659 13.6484ZM36.1046 10.4354C36.0844 10.4644 36.0631 10.49 36.0411 10.5126L37.475 11.9069C37.5739 11.8052 37.6651 11.6946 37.7477 11.5755L36.1046 10.4354ZM35.9569 9.50295C36.239 9.71739 36.3066 10.1442 36.1046 10.4354L37.7477 11.5755C38.5602 10.4047 38.3018 8.77331 37.1673 7.91081L35.9569 9.50295ZM35.1828 9.62555C35.3655 9.3623 35.7018 9.30903 35.9569 9.50295L37.1673 7.91081C36.0058 7.02779 34.3714 7.28665 33.5396 8.48538L35.1828 9.62555ZM35.1804 9.62906C35.1812 9.62786 35.182 9.6267 35.1828 9.62557L33.5396 8.48536C33.5363 8.49016 33.533 8.49494 33.5298 8.49968L35.1804 9.62906ZM33.7412 9.85388L33.7499 9.86044L34.9603 8.2683L34.9516 8.26173L33.7412 9.85388ZM33.7326 9.84733L33.7412 9.85387L34.9516 8.26174L34.943 8.25519L33.7326 9.84733ZM35.1599 9.6207L35.1599 9.62067L33.5158 8.48186L33.5158 8.48188L35.1599 9.6207ZM32.9671 9.97648C33.1492 9.71415 33.4835 9.66059 33.7378 9.85132L34.9378 8.25126C33.7768 7.38063 32.1523 7.64258 31.324 8.8363L32.9671 9.97648ZM33.1114 10.9063C32.832 10.691 32.7661 10.2662 32.9671 9.97648L31.324 8.8363C30.5147 10.0026 30.768 11.6253 31.8906 12.4905L33.1114 10.9063ZM33.3234 12.2674L33.3234 12.2673L31.6786 11.1294L31.6786 11.1295L33.3234 12.2674ZM33.1148 10.9089L33.1062 10.9023L31.8958 12.4945L31.9044 12.501L33.1148 10.9089ZM35.6711 12.8523L33.1148 10.9089L31.9044 12.501L34.4607 14.4445L35.6711 12.8523ZM35.9365 10.6397L34.2444 13.0783L35.8875 14.2185L37.5797 11.7798L35.9365 10.6397Z" fill="#073863" mask="url(#path-9-inside-3)"/>
<path d="M2.61091 20.6284C2.42027 20.2002 2.61284 19.6986 3.04101 19.508C3.46919 19.3173 3.97084 19.5099 4.16147 19.9381L8.54984 29.7945C8.74047 30.2227 8.54791 30.7243 8.11973 30.915C7.69156 31.1056 7.18991 30.913 6.99927 30.4848L2.61091 20.6284Z" fill="url(#paint6_linear)" stroke="#073863"/>
<defs>
<linearGradient id="paint0_linear" x1="6.13" y1="12.6231" x2="15.2878" y2="33.1918" gradientUnits="userSpaceOnUse">
<stop stop-color="#00C9FF"/>
<stop offset="1" stop-color="#0099FF"/>
</linearGradient>
<linearGradient id="paint1_linear" x1="22.6577" y1="6.17697" x2="27.2515" y2="9.04497" gradientUnits="userSpaceOnUse">
<stop stop-color="#7CF6E7"/>
<stop offset="1" stop-color="#3EC8B7"/>
</linearGradient>
<linearGradient id="paint2_linear" x1="1.0379" y1="21.3081" x2="5.6168" y2="31.5924" gradientUnits="userSpaceOnUse">
<stop stop-color="#00C9FF"/>
<stop offset="1" stop-color="#0099FF"/>
</linearGradient>
<linearGradient id="paint3_linear" x1="31.696" y1="24.4043" x2="37.0083" y2="25.2436" gradientUnits="userSpaceOnUse">
<stop stop-color="#FF9B9C"/>
<stop offset="1" stop-color="#F16162"/>
</linearGradient>
<linearGradient id="paint4_linear" x1="7.84176" y1="28.9706" x2="11.493" y2="37.1714" gradientUnits="userSpaceOnUse">
<stop stop-color="#F99A9B"/>
<stop offset="1" stop-color="#F16162"/>
</linearGradient>
<linearGradient id="paint5_linear" x1="30.0528" y1="10.8066" x2="33.1683" y2="15.0911" gradientUnits="userSpaceOnUse">
<stop stop-color="#5ACEF9"/>
<stop offset="1" stop-color="#19ADE4"/>
</linearGradient>
<linearGradient id="paint6_linear" x1="0.870934" y1="18.3123" x2="6.9563" y2="31.9803" gradientUnits="userSpaceOnUse">
<stop stop-color="#F99A9B"/>
<stop offset="1" stop-color="#F16162"/>
</linearGradient>
</defs>
</svg>
