<?xml version="1.0" encoding="UTF-8"?>
<svg width="64px" height="64px" viewBox="0 0 64 64" version="1.1" xmlns="http://www.w3.org/2000/svg" xmlns:xlink="http://www.w3.org/1999/xlink">
    <!-- Generator: Sketch 56.2 (81672) - https://sketch.com -->
    <title>Shout Out</title>
    <desc>Created with Sketch.</desc>
    <defs>
        <linearGradient x1="50%" y1="3.68454368%" x2="50%" y2="100%" id="linearGradient-1">
            <stop stop-color="#00C9FF" offset="0%"></stop>
            <stop stop-color="#0099FF" offset="100%"></stop>
        </linearGradient>
        <linearGradient x1="50%" y1="3.68454368%" x2="50%" y2="100%" id="linearGradient-2">
            <stop stop-color="#00C9FF" offset="0%"></stop>
            <stop stop-color="#0099FF" offset="100%"></stop>
        </linearGradient>
        <linearGradient x1="50%" y1="3.68454368%" x2="50%" y2="100%" id="linearGradient-3">
            <stop stop-color="#00C9FF" offset="0%"></stop>
            <stop stop-color="#0099FF" offset="100%"></stop>
        </linearGradient>
        <linearGradient x1="50%" y1="-10.9364474%" x2="50%" y2="100%" id="linearGradient-4">
            <stop stop-color="#F99A9B" offset="0%"></stop>
            <stop stop-color="#F16162" offset="100%"></stop>
        </linearGradient>
        <linearGradient x1="50%" y1="-10.9364474%" x2="50%" y2="100%" id="linearGradient-5">
            <stop stop-color="#F99A9B" offset="0%"></stop>
            <stop stop-color="#F16162" offset="100%"></stop>
        </linearGradient>
        <linearGradient x1="10.2277075%" y1="8.40761285%" x2="59.6114475%" y2="91.5923872%" id="linearGradient-6">
            <stop stop-color="#7CF6E7" offset="0%"></stop>
            <stop stop-color="#3EC8B7" offset="100%"></stop>
        </linearGradient>
        <linearGradient x1="11.2183019%" y1="10.0762264%" x2="59.5254222%" y2="91.4474812%" id="linearGradient-7">
            <stop stop-color="#5ACEF9" offset="0%"></stop>
            <stop stop-color="#19ADE4" offset="100%"></stop>
        </linearGradient>
        <linearGradient x1="10.5678984%" y1="8.98064985%" x2="59.6114475%" y2="91.5923872%" id="linearGradient-8">
            <stop stop-color="#FF9B9C" offset="0%"></stop>
            <stop stop-color="#F16162" offset="100%"></stop>
        </linearGradient>
    </defs>
    <g id="Shout-Out" stroke="none" stroke-width="1" fill="none" fill-rule="evenodd">
        <circle id="Oval" stroke="#073863" fill="#D8D8D8" cx="43.3372436" cy="31.1454952" r="2.69393397"></circle>
        <path d="M20.4538712,23.744824 C20.2887061,23.8135491 20.1728422,23.9652784 20.1500356,24.1427115 L18.3047051,38.4991542 C18.2749381,38.730738 18.4094144,38.9520912 18.6286593,39.0323955 L42.2772466,47.6943181 C42.3323351,47.7144957 42.3905449,47.7248207 42.4492125,47.7248207 C42.7253548,47.7248207 42.9492125,47.5009631 42.9492125,47.2248207 L42.9492125,15.1341388 C42.9492125,15.0682072 42.9361727,15.0029266 42.9108439,14.9420544 C42.8047586,14.6871024 42.51208,14.5664221 42.257128,14.6725074 L20.4538712,23.744824 Z" id="Rectangle" stroke="#073863" fill="url(#linearGradient-1)"></path>
        <rect id="Rectangle" stroke="#073863" fill="url(#linearGradient-2)" x="6.12216805" y="23.5636933" width="15.1636038" height="16.5105708" rx="1"></rect>
        <rect id="Rectangle" stroke="#073863" fill="url(#linearGradient-3)" x="3.42823408" y="26.2576273" width="3.04090095" height="11.1227029" rx="1"></rect>
        <rect id="Rectangle" stroke="#073863" fill="url(#linearGradient-4)" x="6.12216805" y="22.2167264" width="3.04090095" height="19.2045048"></rect>
        <path d="M12.2353754,40.1674502 C12.2009841,40.1674502 12.1666845,40.1709985 12.1330214,40.1780387 C11.8627269,40.2345672 11.6894353,40.4995097 11.7459639,40.7698042 L13.6966692,50.097215 C13.8420282,50.7922578 14.4548238,51.2901531 15.1649038,51.2901531 L16.5288438,51.2901531 C16.6507272,51.2901531 16.7721562,51.2752977 16.890445,51.2459156 C17.6944405,51.0462088 18.1843132,50.2325473 17.9846064,49.4285519 L15.7784706,40.5469165 C15.7230936,40.3239753 15.5229323,40.1674502 15.2932164,40.1674502 L12.2353754,40.1674502 Z" id="Rectangle" stroke="#073863" fill="url(#linearGradient-5)"></path>
        <path d="M51.790122,20.0741579 L54.504346,17.2394783 L54.5659546,17.1849267 C54.6488287,17.1229216 54.7273443,17.0533817 54.8008975,16.9765642 C55.5376045,16.2071627 55.5376045,14.951096 54.8008975,14.1816944 C54.0759154,13.4245381 52.9098545,13.4245381 52.1848724,14.1816944 C52.1804084,14.1863668 52.1804084,14.1863668 52.175969,14.1910543 L51.8155365,14.5724635 L51.4519875,14.1940237 L51.431221,14.1723979 C50.7053648,13.4242284 49.5458483,13.4279739 48.8241561,14.1816944 C48.090798,14.9475985 48.0870897,16.1966789 48.8129537,16.9648647 L51.790122,20.0741579 Z" id="Combined-Shape-Copy-5" stroke="#073863" fill="url(#linearGradient-6)" transform="translate(51.812524, 16.955476) rotate(-7.000000) translate(-51.812524, -16.955476) "></path>
        <path d="M58.1518587,33.3741914 L60.8660827,30.5395118 L60.9276913,30.4849602 C61.0105653,30.4229551 61.089081,30.3534152 61.1626342,30.2765977 C61.8993411,29.5071962 61.8993411,28.2511295 61.1626342,27.481728 C60.4376521,26.7245716 59.2715912,26.7245716 58.5466091,27.481728 C58.542145,27.4864003 58.542145,27.4864003 58.5377056,27.4910878 L58.1772731,27.872497 L57.8137241,27.4940572 L57.7929576,27.4724314 C57.0671015,26.7242619 55.907585,26.7280075 55.1858927,27.481728 C54.4525346,28.247632 54.4488263,29.4967124 55.1746903,30.2648982 L58.1518587,33.3741914 Z" id="Combined-Shape-Copy-6" stroke="#073863" fill="url(#linearGradient-7)" transform="translate(58.174261, 30.255510) rotate(-345.000000) translate(-58.174261, -30.255510) "></path>
        <path d="M52.7315092,47.6933961 L55.4457332,44.8587165 L55.5073418,44.8041649 C55.5902159,44.7421599 55.6687315,44.6726199 55.7422847,44.5958024 C56.4789917,43.8264009 56.4789917,42.5703342 55.7422847,41.8009327 C55.0173026,41.0437763 53.8512417,41.0437763 53.1262596,41.8009327 C53.1217956,41.8056051 53.1217956,41.8056051 53.1173562,41.8102926 L52.7569237,42.1917017 L52.3933747,41.8132619 L52.3726082,41.7916361 C51.646752,41.0434667 50.4872355,41.0472122 49.7655433,41.8009327 C49.0321852,42.5668367 49.0284769,43.8159171 49.7543409,44.5841029 L52.7315092,47.6933961 Z" id="Combined-Shape-Copy-7" stroke="#073863" fill="url(#linearGradient-8)" transform="translate(52.753912, 44.574715) rotate(-30.000000) translate(-52.753912, -44.574715) "></path>
    </g>
</svg>