<svg width="16" height="10" viewBox="0 0 16 10" fill="none" xmlns="http://www.w3.org/2000/svg">
<path fill-rule="evenodd" clip-rule="evenodd" d="M1.04324 1.46836C1.42353 0.98162 2.1264 0.895319 2.61314 1.27561L8.60617 5.95787C9.09291 6.33816 9.17921 7.04103 8.79893 7.52777C8.41864 8.01451 7.71577 8.10081 7.22903 7.72053L1.236 3.03826C0.749258 2.65797 0.662957 1.95511 1.04324 1.46836Z" fill="black"/>
<path fill-rule="evenodd" clip-rule="evenodd" d="M14.8137 1.46836C14.4334 0.98162 13.7305 0.895319 13.2438 1.2756L7.25077 5.95787C6.76402 6.33816 6.67772 7.04103 7.05801 7.52777C7.43829 8.01451 8.14116 8.10081 8.6279 7.72053L14.6209 3.03826C15.1077 2.65797 15.194 1.95511 14.8137 1.46836Z" fill="black"/>
</svg>
