<?xml version="1.0" encoding="UTF-8"?>
<svg width="33px" height="37px" viewBox="0 0 33 37" version="1.1" xmlns="http://www.w3.org/2000/svg" xmlns:xlink="http://www.w3.org/1999/xlink">
    <!-- Generator: Sketch 52.2 (67145) - http://www.bohemiancoding.com/sketch -->
    <title>Shape</title>
    <desc>Created with Sketch.</desc>
    <g id="Landing-Page" stroke="none" stroke-width="1" fill="none" fill-rule="evenodd">
        <g id="Design-V3" transform="translate(-1128.000000, -5856.000000)" fill="#FFFFFF" fill-rule="nonzero">
            <g id="Footer" transform="translate(0.000000, 5748.000000)">
                <g id="Social-Icons">
                    <path d="M1132.83398,144.949367 L1143.59766,144.949367 L1143.59766,132.068125 L1139.73047,132.068125 L1139.73047,127.821561 L1143.59766,127.821561 L1143.59766,122.513357 C1143.59766,119.58638 1145.76615,117.205152 1148.43164,117.205152 L1153.26562,117.205152 L1153.26562,121.451716 L1149.39844,121.451716 C1148.33219,121.451716 1147.46484,122.404151 1147.46484,123.574998 L1147.46484,127.821561 L1153.09115,127.821561 L1152.44662,132.068125 L1147.46484,132.068125 L1147.46484,144.949367 L1156.16602,144.949367 C1158.8315,144.949367 1161,142.56814 1161,139.641163 L1161,114.02023 C1161,111.093253 1158.8315,108.712025 1156.16602,108.712025 L1132.83398,108.712025 C1130.1685,108.712025 1128,111.093253 1128,114.02023 L1128,139.641163 C1128,142.56814 1130.1685,144.949367 1132.83398,144.949367 Z M1129.93359,114.02023 C1129.93359,112.264099 1131.23474,110.835307 1132.83398,110.835307 L1156.16602,110.835307 C1157.76526,110.835307 1159.06641,112.264099 1159.06641,114.02023 L1159.06641,139.641163 C1159.06641,141.397294 1157.76526,142.826085 1156.16602,142.826085 L1149.39844,142.826085 L1149.39844,134.191406 L1154.08463,134.191406 L1155.3737,125.698279 L1149.39844,125.698279 L1149.39844,123.574998 L1155.19922,123.574998 L1155.19922,115.081871 L1148.43164,115.081871 C1144.69991,115.081871 1141.66406,118.415533 1141.66406,122.513357 L1141.66406,125.698279 L1137.79688,125.698279 L1137.79688,134.191406 L1141.66406,134.191406 L1141.66406,142.826085 L1132.83398,142.826085 C1131.23474,142.826085 1129.93359,141.397294 1129.93359,139.641163 L1129.93359,114.02023 Z" id="Shape"></path>
                </g>
            </g>
        </g>
    </g>
</svg>