<?xml version="1.0" encoding="UTF-8"?>
<svg width="64px" height="64px" viewBox="0 0 64 64" version="1.1" xmlns="http://www.w3.org/2000/svg" xmlns:xlink="http://www.w3.org/1999/xlink">
    <!-- Generator: Sketch 55.2 (78181) - https://sketchapp.com -->
    <title>Ambassador Program</title>
    <desc>Created with Sketch.</desc>
    <defs>
        <linearGradient x1="50%" y1="0%" x2="50%" y2="100%" id="linearGradient-1">
            <stop stop-color="#36D6F3" offset="0%"></stop>
            <stop stop-color="#19ADE4" offset="100%"></stop>
        </linearGradient>
        <linearGradient x1="50%" y1="0%" x2="50%" y2="100%" id="linearGradient-2">
            <stop stop-color="#F99A9B" offset="0%"></stop>
            <stop stop-color="#F16162" offset="100%"></stop>
        </linearGradient>
        <linearGradient x1="50%" y1="0%" x2="50%" y2="100%" id="linearGradient-3">
            <stop stop-color="#00C9FF" offset="0%"></stop>
            <stop stop-color="#0099FF" offset="100%"></stop>
        </linearGradient>
    </defs>
    <g id="Ambassador-Program" stroke="none" stroke-width="1" fill="none" fill-rule="evenodd">
        <g id="Group-2" transform="translate(21.000000, 11.500000)" stroke="#073863">
            <g id="Group-Copy">
                <path d="M4.48013207,39.2416154 C4.4801315,39.2416146 4.48013174,39.2416223 4.48010281,39.2416495 C5.44352811,38.3357361 6.22316843,37.8708063 6.88877297,37.8762206 C7.5501862,37.8816008 8.3311138,38.3547723 9.30322623,39.2698875 C9.30320778,39.2698863 9.30319526,39.2698839 9.30318252,39.269884 C9.30315774,39.2698842 9.30318234,39.2698592 9.3031833,39.269983 L9.13525446,18.0439923 L4.31213147,18.0047591 L4.48014654,39.2416491 C4.48014646,39.2416381 4.48014222,39.2416275 4.48013467,39.2416195 Z" id="Rectangle" fill="url(#linearGradient-1)" transform="translate(6.810526, 29.000000) rotate(-345.000000) translate(-6.810526, -29.000000) "></path>
                <path d="M13.0076348,38.8110125 C13.0076352,38.8110132 13.0076349,38.8110081 13.0076545,38.8109897 C13.9797321,37.8959209 14.7606364,37.4227721 15.4220342,37.417392 C16.0876282,37.4119778 16.8672535,37.8768926 17.830661,38.7827709 L17.9986757,17.5459305 L13.1755527,17.5851637 L13.0076251,38.8109894 C13.0076251,38.810997 13.0076279,38.8110043 13.0076331,38.8110098 Z" id="Rectangle-Copy-3" fill="url(#linearGradient-1)" transform="translate(15.500281, 28.541171) rotate(-15.000000) translate(-15.500281, -28.541171) "></path>
                <path d="M10.3527487,21.7529753 L10.0068696,22.0466623 C9.58587579,22.4041293 8.95480861,22.3526307 8.59734159,21.9316369 C8.55766857,21.8849134 8.5223754,21.8346413 8.4919077,21.7814553 L8.24320157,21.3473011 C8.00172327,20.9257642 7.49222092,20.7387583 7.03537857,20.9039861 L6.60946574,21.0580276 C6.09010556,21.2458665 5.51680744,20.9771154 5.32896853,20.4577552 C5.31029756,20.4061314 5.29590922,20.3530578 5.28594938,20.2990724 L5.18243053,19.7379687 C5.09606763,19.2698554 4.69170453,18.9275026 4.2157579,18.9195383 L3.71837221,18.9112152 C3.16616477,18.9019748 2.72600304,18.4468313 2.73524348,17.8946239 C2.73599674,17.8496093 2.73978902,17.804697 2.74659445,17.7601935 L2.84192636,17.1367784 C2.91222534,16.6770641 2.65632726,16.2295647 2.22446837,16.0570043 L1.69894521,15.847018 C1.18608671,15.6420921 0.936457968,15.0602129 1.14138381,14.5473544 C1.15484327,14.5136701 1.17012555,14.480743 1.18716289,14.4487192 L1.49364429,13.8726496 C1.70876803,13.4682979 1.62168891,12.9694842 1.28228733,12.6619374 L0.81777914,12.2410259 C0.408521826,11.8701797 0.377383457,11.2377809 0.748229645,10.8285236 C0.770257963,10.8042136 0.793469197,10.7810024 0.81777914,10.7589741 L1.28228733,10.3380626 C1.62168891,10.0305158 1.70876803,9.53170207 1.49364429,9.12735042 L1.18716289,8.55128078 C0.927762315,8.06370536 1.11273457,7.45816168 1.60030999,7.1987611 C1.63233377,7.18172376 1.66526085,7.16644148 1.69894521,7.15298202 L2.22446837,6.94299569 C2.65632726,6.77043533 2.91222534,6.32293587 2.84192636,5.86322157 L2.74659445,5.23980648 C2.66311017,4.693868 3.03800337,4.18362004 3.58394185,4.10013576 C3.62844537,4.09333034 3.67335766,4.08953806 3.71837221,4.0887848 L4.2157579,4.08046173 C4.69170453,4.07249741 5.09606763,3.73014464 5.18243053,3.26203132 L5.28594938,2.70092758 C5.38615019,2.15780858 5.90766394,1.79875245 6.45078293,1.89895326 C6.50476833,1.90891311 6.55784193,1.92330144 6.60946574,1.94197242 L7.03537857,2.09601388 C7.49222092,2.26124173 8.00172327,2.07423583 8.24320157,1.65269888 L8.4919077,1.21854466 C8.76643176,0.739321343 9.37746474,0.573379808 9.85668805,0.847903866 C9.90987403,0.878371562 9.96014613,0.913664733 10.0068696,0.953337747 L10.3527487,1.24702469 C10.726042,1.5639891 11.273958,1.5639891 11.6472513,1.24702469 L11.9931304,0.953337747 C12.4141242,0.595870724 13.0451914,0.647369344 13.4026584,1.06836314 C13.4423314,1.11508658 13.4776246,1.16535868 13.5080923,1.21854466 L13.7567984,1.65269888 C13.9982767,2.07423583 14.5077791,2.26124173 14.9646214,2.09601388 L15.3905343,1.94197242 C15.9098944,1.75413351 16.4831926,2.0228846 16.6710315,2.54224477 C16.6897024,2.59386857 16.7040908,2.64694217 16.7140506,2.70092758 L16.8175695,3.26203132 C16.9039324,3.73014464 17.3082955,4.07249741 17.7842421,4.08046173 L18.2816278,4.0887848 C18.8338352,4.09802524 19.273997,4.55316867 19.2647565,5.10537612 C19.2640033,5.15039066 19.260211,5.19530296 19.2534056,5.23980648 L19.1580736,5.86322157 C19.0877747,6.32293587 19.3436727,6.77043533 19.7755316,6.94299569 L20.3010548,7.15298202 C20.8139133,7.35790787 21.063542,7.93978705 20.8586162,8.45264555 C20.8451567,8.48632992 20.8298744,8.519257 20.8128371,8.55128078 L20.5063557,9.12735042 C20.291232,9.53170207 20.3783111,10.0305158 20.7177127,10.3380626 L21.1822209,10.7589741 C21.5914782,11.1298203 21.6226165,11.7622191 21.2517704,12.1714764 C21.229742,12.1957864 21.2065308,12.2189976 21.1822209,12.2410259 L20.7177127,12.6619374 C20.3783111,12.9694842 20.291232,13.4682979 20.5063557,13.8726496 L20.8128371,14.4487192 C21.0722377,14.9362946 20.8872654,15.5418383 20.39969,15.8012389 C20.3676662,15.8182762 20.3347392,15.8335585 20.3010548,15.847018 L19.7755316,16.0570043 C19.3436727,16.2295647 19.0877747,16.6770641 19.1580736,17.1367784 L19.2534056,17.7601935 C19.3368898,18.306132 18.9619966,18.81638 18.4160581,18.8998642 C18.3715546,18.9066697 18.3266423,18.9104619 18.2816278,18.9112152 L17.7842421,18.9195383 C17.3082955,18.9275026 16.9039324,19.2698554 16.8175695,19.7379687 L16.7140506,20.2990724 C16.6138498,20.8421914 16.0923361,21.2012475 15.5492171,21.1010467 C15.4952317,21.0910869 15.4421581,21.0766986 15.3905343,21.0580276 L14.9646214,20.9039861 C14.5077791,20.7387583 13.9982767,20.9257642 13.7567984,21.3473011 L13.5080923,21.7814553 C13.2335682,22.2606787 12.6225353,22.4266202 12.1433119,22.1520961 C12.090126,22.1216284 12.0398539,22.0863353 11.9931304,22.0466623 L11.6472513,21.7529753 C11.273958,21.4360109 10.726042,21.4360109 10.3527487,21.7529753 Z" id="Star" fill="url(#linearGradient-2)"></path>
            </g>
            <g id="Combined-Shape-Copy-4" transform="translate(11.000000, 11.500000) rotate(-360.000000) translate(-11.000000, -11.500000) translate(5.500000, 6.000000)" fill="url(#linearGradient-3)" stroke-width="0.8">
                <path d="M6.08566115,4.43767219 L6.07166667,4.43707352 L6.07166667,4.11053823 L6.06987955,4.06876265 C6.02607423,3.04477262 5.18129817,2.23333333 4.1525,2.23333333 C3.12370183,2.23333333 2.27892577,3.04477262 2.23512045,4.06876265 L2.23333333,4.11053823 L2.23333333,8.19 C2.23333333,8.24522847 2.27810486,8.29 2.33333333,8.29 L6.4127951,8.29 L6.45457068,8.28821288 C7.47856071,8.24440756 8.29,7.39963151 8.29,6.37083333 C8.29,5.34203516 7.47856071,4.49725911 6.45457068,4.45345379 L6.4127951,4.45166667 L6.08625982,4.45166667 L6.08566115,4.43767219 Z" id="Combined-Shape-Copy-2" transform="translate(5.261667, 5.261667) rotate(-45.000000) translate(-5.261667, -5.261667) "></path>
            </g>
        </g>
        <circle id="Oval-Copy" stroke="#073863" stroke-width="1.5" cx="32" cy="32" r="30.5"></circle>
    </g>
</svg>