<?xml version="1.0" encoding="UTF-8"?>
<svg width="64px" height="64px" viewBox="0 0 64 64" version="1.1" xmlns="http://www.w3.org/2000/svg" xmlns:xlink="http://www.w3.org/1999/xlink">
    <!-- Generator: Sketch 55.2 (78181) - https://sketchapp.com -->
    <title>Giveaway Campaigns</title>
    <desc>Created with Sketch.</desc>
    <defs>
        <linearGradient x1="50%" y1="0%" x2="50%" y2="100%" id="linearGradient-1">
            <stop stop-color="#F99A9B" offset="0%"></stop>
            <stop stop-color="#F16162" offset="100%"></stop>
        </linearGradient>
        <linearGradient x1="50%" y1="0%" x2="50%" y2="100%" id="linearGradient-2">
            <stop stop-color="#F99A9B" offset="0%"></stop>
            <stop stop-color="#F16162" offset="100%"></stop>
        </linearGradient>
        <linearGradient x1="50%" y1="0%" x2="50%" y2="100%" id="linearGradient-3">
            <stop stop-color="#72E6DC" offset="0%"></stop>
            <stop stop-color="#3EC8B7" offset="100%"></stop>
        </linearGradient>
        <linearGradient x1="10.2277075%" y1="17.0079551%" x2="59.6114475%" y2="82.9920449%" id="linearGradient-4">
            <stop stop-color="#00C9FF" offset="0%"></stop>
            <stop stop-color="#0099FF" offset="100%"></stop>
        </linearGradient>
        <linearGradient x1="50%" y1="0%" x2="50%" y2="100%" id="linearGradient-5">
            <stop stop-color="#74C8FF" offset="0%"></stop>
            <stop stop-color="#0099FF" offset="100%"></stop>
        </linearGradient>
        <linearGradient x1="50%" y1="0%" x2="50%" y2="100%" id="linearGradient-6">
            <stop stop-color="#74C8FF" offset="0%"></stop>
            <stop stop-color="#0099FF" offset="100%"></stop>
        </linearGradient>
    </defs>
    <g id="Giveaway-Campaigns" stroke="none" stroke-width="1" fill="none" fill-rule="evenodd">
        <path d="" id="Path-5" stroke="#979797" stroke-width="0.5"></path>
        <path d="" id="Path-7" stroke="#979797"></path>
        <path d="" id="Path-8" stroke="#979797"></path>
        <g id="Group" transform="translate(17.906617, 40.908425) rotate(25.000000) translate(-17.906617, -40.908425) translate(3.906617, 37.408425)" stroke="#073863">
            <path d="M0.725351339,3.34731491 L1.92876422,5.81722797 C2.17066786,6.31371672 2.76925316,6.52009873 3.2657419,6.27819509 C3.29921173,6.26188762 3.33174472,6.2437237 3.36318892,6.22378816 L6.41958015,4.28604414 C6.71708769,4.09745457 7.09187393,4.07927644 7.40622503,4.23821086 C11.3875897,6.25117 14.088769,7.11264537 15.509763,6.82263699 C17.7301162,6.36948869 28.1007071,2.31724773 27.6218326,0.571358852 C27.3058955,-0.580490184 24.151857,0.00924078351 18.1597171,2.34055176 C18.0344296,2.38931729 17.9005919,2.4122996 17.7662127,2.4081429" id="Path-6" fill="url(#linearGradient-1)"></path>
            <path d="M0.584696966,3.62935146 C5.59695923,1.64218776 10.8518253,1.10990083 16.3492953,2.03249067 C17.33253,2.54333019 16.4284237,3.24228378 13.6369764,4.12935146" id="Path-9" fill="url(#linearGradient-2)"></path>
        </g>
        <circle id="Oval-Copy-5" stroke="#073863" stroke-width="1.5" cx="32" cy="32" r="30.5"></circle>
        <g id="Group" transform="translate(47.332527, 40.908425) scale(-1, 1) rotate(25.000000) translate(-47.332527, -40.908425) translate(33.332527, 37.408425)" stroke="#073863">
            <path d="M0.725351339,3.34731491 L1.92876422,5.81722797 C2.17066786,6.31371672 2.76925316,6.52009873 3.2657419,6.27819509 C3.29921173,6.26188762 3.33174472,6.2437237 3.36318892,6.22378816 L6.41958015,4.28604414 C6.71708769,4.09745457 7.09187393,4.07927644 7.40622503,4.23821086 C11.3875897,6.25117 14.088769,7.11264537 15.509763,6.82263699 C17.7301162,6.36948869 28.1007071,2.31724773 27.6218326,0.571358852 C27.3058955,-0.580490184 24.151857,0.00924078351 18.1597171,2.34055176 C18.0344296,2.38931729 17.9005919,2.4122996 17.7662127,2.4081429" id="Path-6" fill="url(#linearGradient-1)"></path>
            <path d="M0.584696966,3.62935146 C5.59695923,1.64218776 10.8518253,1.10990083 16.3492953,2.03249067 C17.33253,2.54333019 16.4284237,3.24228378 13.6369764,4.12935146" id="Path-9" fill="url(#linearGradient-2)"></path>
        </g>
        <g id="Group-2" transform="translate(22.500000, 21.070141)" stroke="#073863" stroke-width="0.8">
            <rect id="Rectangle" fill="url(#linearGradient-3)" x="0" y="5.49166014" width="20.5" height="12.5"></rect>
            <path d="M1.87052154,5.12113861 L18.6294785,5.12113861 C19.662539,5.12113861 20.5,5.95859962 20.5,6.99166014 L20.5,6.99166014 L0,6.99166014 C-1.26513426e-16,5.95859962 0.837461018,5.12113861 1.87052154,5.12113861 Z" id="Rectangle-Copy-4" fill="#3EC8B7"></path>
            <path d="M13.375573,13.0487219 L13.4257196,13.0070705 C13.5249307,12.9375021 13.6187161,12.8596523 13.7063557,12.7738691 C14.5743471,11.9242637 14.5743471,10.5504013 13.7063557,9.70079596 C12.8335846,8.84651206 11.4150682,8.84651206 10.5422971,9.70079596 C10.5369912,9.70600087 10.5369912,9.70600087 10.5317152,9.71122201 L10.2523473,9.98829053 L9.97071371,9.71352532 L9.94705564,9.69043742 C9.07305136,8.8461185 7.66245979,8.850389 6.79364946,9.70079596 C5.92959924,10.5465437 5.92527161,11.9127199 6.78115397,12.7616383 L9.80531312,15.7217389 C10.0385455,15.9500309 10.4114778,15.9500309 10.6447101,15.7217389 L13.375573,13.0487219 Z" id="Combined-Shape-Copy" fill="url(#linearGradient-4)"></path>
            <path d="M12.5779991,4.54437586 L16.3688952,4.54437586 C17.5416093,4.54437586 18.4961593,3.56701958 18.4961593,2.35672986 C18.4961593,1.545508 17.8575688,0.891660143 17.0746104,0.891660143 C16.9228062,0.891660143 16.7719532,0.916725094 16.6277873,0.965928527 L12.6423549,2.32614626 C12.0895651,2.51481198 11.714367,3.04780883 11.714367,3.65055286 C11.714367,4.14628387 12.1031696,4.54437586 12.5779991,4.54437586 Z" id="Rectangle-15" fill="url(#linearGradient-5)"></path>
            <path d="M7.92200095,4.54437586 C8.39683036,4.54437586 8.785633,4.14628387 8.785633,3.65055286 C8.785633,3.04780883 8.41043491,2.51481198 7.85764512,2.32614626 L3.87221267,0.965928527 C3.72804682,0.916725094 3.57719384,0.891660143 3.42538959,0.891660143 C2.64243121,0.891660143 2.00384068,1.545508 2.00384068,2.35672986 C2.00384068,3.56701958 2.95839066,4.54437586 4.13110479,4.54437586 L7.92200095,4.54437586 Z" id="Rectangle-15" fill="url(#linearGradient-5)"></path>
            <path d="M7.99857752,1.89166014 C7.66720667,1.89166014 7.39857752,2.16028929 7.39857752,2.49166014 L7.39857752,4.49166014 C7.39857752,4.82303099 7.66720667,5.09166014 7.99857752,5.09166014 L12.4722617,5.09166014 C12.8036326,5.09166014 13.0722617,4.82303099 13.0722617,4.49166014 L13.0722617,2.49166014 C13.0722617,2.16028929 12.8036326,1.89166014 12.4722617,1.89166014 L7.99857752,1.89166014 Z" id="Rectangle-14" fill="url(#linearGradient-6)"></path>
        </g>
    </g>
</svg>