<?xml version="1.0" encoding="UTF-8"?>
<svg width="64px" height="64px" viewBox="0 0 64 64" version="1.1" xmlns="http://www.w3.org/2000/svg" xmlns:xlink="http://www.w3.org/1999/xlink">
    <!-- Generator: Sketch 55.2 (78181) - https://sketchapp.com -->
    <title>Influencer Missions</title>
    <desc>Created with Sketch.</desc>
    <defs>
        <linearGradient x1="50%" y1="0%" x2="50%" y2="100%" id="linearGradient-1">
            <stop stop-color="#36D6F3" offset="0%"></stop>
            <stop stop-color="#19ADE4" offset="100%"></stop>
        </linearGradient>
        <linearGradient x1="50%" y1="0%" x2="50%" y2="100%" id="linearGradient-2">
            <stop stop-color="#00C9FF" offset="0%"></stop>
            <stop stop-color="#0099FF" offset="100%"></stop>
        </linearGradient>
        <linearGradient x1="19.899803%" y1="26.7563346%" x2="50%" y2="82%" id="linearGradient-3">
            <stop stop-color="#F99A9B" offset="0%"></stop>
            <stop stop-color="#F16162" offset="100%"></stop>
        </linearGradient>
        <linearGradient x1="50%" y1="0%" x2="50%" y2="100%" id="linearGradient-4">
            <stop stop-color="#EEEEEE" offset="0%"></stop>
            <stop stop-color="#D8D8D8" offset="100%"></stop>
        </linearGradient>
        <linearGradient x1="50%" y1="0%" x2="50%" y2="100%" id="linearGradient-5">
            <stop stop-color="#EEEEEE" offset="0%"></stop>
            <stop stop-color="#D8D8D8" offset="100%"></stop>
        </linearGradient>
        <path d="M27.0552277,20.6680332 C27.9057151,20.9742149 28.5138206,21.788151 28.5138206,22.7441176 C28.5138206,23.9623928 27.5262135,24.95 26.3079383,24.95 L21.2058824,24.95 C19.9876072,24.95 19,23.9623928 19,22.7441176 C19,22.0562725 19.3148291,21.4419596 19.8082496,21.0374165 C19.8064933,20.9999099 19.8056058,20.9621867 19.8056058,20.9242647 C19.8056058,19.5537051 20.9649408,18.4426471 22.3950529,18.4426471 C22.4329411,18.4426471 22.4706393,18.4434269 22.5081308,18.4449707 C22.9804398,17.8408908 23.7334363,17.45 24.5816972,17.45 C26.0118094,17.45 27.1711443,18.5610581 27.1711443,19.9316176 C27.1711443,20.1880312 27.1305659,20.4353618 27.0552277,20.6680332 Z" id="path-6"></path>
    </defs>
    <g id="Influencer-Missions" stroke="none" stroke-width="1" fill="none" fill-rule="evenodd">
        <g id="Group" transform="translate(11.500000, 12.500000)" stroke="#073863">
            <path d="M11.3944272,18.8252427 L20.2763932,36.5891747 C20.5233825,37.0831532 20.3231581,37.6838262 19.8291796,37.9308155 C19.6903242,38.0002432 19.5372111,38.0363883 19.381966,38.0363883 L1.61803399,38.0363883 C1.06574924,38.0363883 0.618033989,37.588673 0.618033989,37.0363883 C0.618033989,36.8811432 0.654179081,36.7280301 0.723606798,36.5891747 L9.60557281,18.8252427 C9.85256206,18.3312642 10.4532351,18.1310398 10.9472136,18.3780291 C11.140741,18.4747928 11.2976635,18.6317153 11.3944272,18.8252427 Z" id="Triangle" fill="url(#linearGradient-1)"></path>
            <path d="M25.5,9.07277657 L25.5,2" id="Line-3" stroke-width="0.75" stroke-linecap="round"></path>
            <path d="M26.3944272,8.82524267 L40.2763932,36.5891747 C40.5233825,37.0831532 40.3231581,37.6838262 39.8291796,37.9308155 C39.6903242,38.0002432 39.5372111,38.0363883 39.381966,38.0363883 L11.618034,38.0363883 C11.0657492,38.0363883 10.618034,37.588673 10.618034,37.0363883 C10.618034,36.8811432 10.6541791,36.7280301 10.7236068,36.5891747 L24.6055728,8.82524267 C24.8525621,8.33126417 25.4532351,8.13103983 25.9472136,8.37802907 C26.140741,8.47479278 26.2976635,8.63171527 26.3944272,8.82524267 Z" id="Triangle-Copy" fill="url(#linearGradient-2)"></path>
            <path d="M25.4948544,0.375 L25.4948544,3.625 L29.4848531,3.625 L28.7552409,2.30178455 C28.6516577,2.11392739 28.6516577,1.88607261 28.7552409,1.69821545 L29.4848531,0.375 L25.4948544,0.375 Z" id="Rectangle" stroke-width="0.75" fill="url(#linearGradient-3)"></path>
        </g>
        <circle id="Oval-Copy-3" stroke="#073863" stroke-width="1.5" cx="32" cy="32" r="30.5"></circle>
        <path d="M31.6683709,19.2175751 C32.490313,19.5383217 33.0726442,20.3377991 33.0726442,21.2732872 C33.0726442,22.4915624 32.085037,23.4791696 30.8667618,23.4791696 L26.1608795,23.4791696 C24.9426043,23.4791696 23.9549971,22.4915624 23.9549971,21.2732872 C23.9549971,20.6005722 24.2561282,19.9981901 24.7309469,19.5935847 C24.7283644,19.5471964 24.7270559,19.5004681 24.7270559,19.4534343 C24.7270559,18.0828747 25.838114,16.9718166 27.2086736,16.9718166 C27.244984,16.9718166 27.2811123,16.9725965 27.3170427,16.9741403 C27.7696838,16.3700604 28.4913241,15.9791696 29.3042618,15.9791696 C30.6748214,15.9791696 31.7858795,17.0902276 31.7858795,18.4607872 C31.7858795,18.7246983 31.7446833,18.9789876 31.6683709,19.2175751 Z" id="Combined-Shape" stroke="#073863" stroke-width="0.7" fill="url(#linearGradient-4)"></path>
        <g id="Combined-Shape">
            <use stroke="#073863" stroke-width="1.25" fill="url(#linearGradient-5)" fill-rule="evenodd" xlink:href="#path-6"></use>
            <path stroke="#FFFFFF" stroke-width="0.7" d="M27.4687462,20.4663727 C28.3110207,20.8957087 28.8638206,21.767512 28.8638206,22.7441176 C28.8638206,24.1556925 27.7195131,25.3 26.3079383,25.3 L21.2058824,25.3 C19.7943075,25.3 18.65,24.1556925 18.65,22.7441176 C18.65,22.0276381 18.9470152,21.3591435 19.4559381,20.8812101 C19.4795919,19.3497097 20.7631319,18.1180343 22.3459591,18.0930345 C22.899062,17.4689987 23.7093459,17.1 24.5816972,17.1 C26.201857,17.1 27.5211443,18.3643497 27.5211443,19.9316176 C27.5211443,20.1125969 27.5034725,20.2914423 27.4687462,20.4663727 Z"></path>
        </g>
    </g>
</svg>