<svg xmlns="http://www.w3.org/2000/svg" width="15" height="15" viewBox="0 0 15 15">
  <path fill="none" stroke="#5E5E5E" stroke-width=".5" d="M10.3908172,17.4361459 L10.5381101,17.3260169 C11.7447046,16.4238534 13.1769931,15.1931627 14.4686592,13.7926772 C16.5789988,11.504587 17.6409133,9.4545048 17.6409133,7.71015058 C17.6409133,5.52605738 15.8546795,3.74830141 13.6590013,3.74830141 C12.4664136,3.74830141 11.3383183,4.28282325 10.5837083,5.19693574 L10.3909133,5.43048187 L10.1981184,5.19693574 C9.44350835,4.28282325 8.31541307,3.74830141 7.12282543,3.74830141 C4.92714716,3.74830141 3.14091334,5.52605738 3.14091334,7.71015058 C3.14091334,9.45446162 4.20278219,11.5045095 6.31304006,13.7926164 C7.60471312,15.1931584 9.03682132,16.4237294 10.2434885,17.3259861 L10.3908172,17.4361459 Z" transform="rotate(-30 5.382 12.689)"/>
</svg>
