<?xml version="1.0" encoding="UTF-8"?>
<svg width="15px" height="14px" viewBox="0 0 15 14" version="1.1" xmlns="http://www.w3.org/2000/svg" xmlns:xlink="http://www.w3.org/1999/xlink">
    <!-- Generator: Sketch 59.1 (86144) - https://sketch.com -->
    <title>blue-heart-outline</title>
    <desc>Created with Sketch.</desc>
    <g id="Page-1" stroke="none" stroke-width="1" fill="none" fill-rule="evenodd">
        <g id="blue-heart-outline" stroke="#D70000">
            <path d="M7.49990654,13.3795943 L7.50089358,13.3788693 C8.69616336,12.5008521 10.1175564,11.3009501 11.3969817,9.93807378 C13.4671248,7.73294308 14.5,5.77390565 14.5,4.13795708 C14.5,2.13495687 12.8279114,0.5 10.7680879,0.5 C9.64832317,0.5 8.58974302,0.992783993 7.88280484,1.83412423 L7.5,2.28970737 L7.11719516,1.83412423 C6.41025698,0.992783993 5.35167683,0.5 4.23191209,0.5 C2.17208863,0.5 0.5,2.13495687 0.5,4.13795708 C0.5,5.77386518 1.53283127,7.73287075 3.60289543,9.93801884 C4.88232614,11.3009486 6.30353966,12.5007334 7.49888096,13.378841 L7.49990654,13.3795943 Z" id="Path-Copy"></path>
        </g>
    </g>
</svg>