<?xml version="1.0" encoding="UTF-8"?>
<svg width="955px" height="229px" viewBox="0 0 955 229" version="1.1" xmlns="http://www.w3.org/2000/svg" xmlns:xlink="http://www.w3.org/1999/xlink">
    <!-- Generator: Sketch 54.1 (76490) - https://sketchapp.com -->
    <title>Mobile - graph fill</title>
    <desc>Created with Sketch.</desc>
    <defs>
        <linearGradient x1="85.751582%" y1="49.6646244%" x2="-2.2278609%" y2="52.0336534%" id="linearGradient-1">
            <stop stop-color="#71C0F6" offset="0%"></stop>
            <stop stop-color="#1444E5" offset="92.3775338%"></stop>
            <stop stop-color="#7676FF" offset="100%"></stop>
        </linearGradient>
        <linearGradient x1="66.4789244%" y1="46.7396998%" x2="5.94158209%" y2="51.4711927%" id="linearGradient-2">
            <stop stop-color="#166DE1" offset="0%"></stop>
            <stop stop-color="#7676FF" offset="100%"></stop>
        </linearGradient>
        <linearGradient x1="50%" y1="-84.5277032%" x2="50%" y2="100%" id="linearGradient-3">
            <stop stop-color="#79BFF4" offset="0%"></stop>
            <stop stop-color="#4048D2" offset="100%"></stop>
        </linearGradient>
        <ellipse id="path-4" cx="1.74586379" cy="-15.2983495" rx="1.74586379" ry="1.93085965"></ellipse>
        <filter x="-701.7%" y="-608.5%" width="1503.3%" height="1368.9%" filterUnits="objectBoundingBox" id="filter-5">
            <feOffset dx="0" dy="1" in="SourceAlpha" result="shadowOffsetOuter1"></feOffset>
            <feGaussianBlur stdDeviation="8" in="shadowOffsetOuter1" result="shadowBlurOuter1"></feGaussianBlur>
            <feColorMatrix values="0 0 0 0 0.690196078   0 0 0 0 0.752941176   0 0 0 0 0.929411765  0 0 0 0.856884058 0" type="matrix" in="shadowBlurOuter1"></feColorMatrix>
        </filter>
        <linearGradient x1="50%" y1="-84.5277032%" x2="50%" y2="100%" id="linearGradient-6">
            <stop stop-color="#79BFF4" offset="0%"></stop>
            <stop stop-color="#4048D2" offset="100%"></stop>
        </linearGradient>
        <ellipse id="path-7" cx="1.74586379" cy="2.00368337" rx="1.74586379" ry="2.00368337"></ellipse>
        <filter x="-701.7%" y="-586.4%" width="1503.3%" height="1322.7%" filterUnits="objectBoundingBox" id="filter-8">
            <feOffset dx="0" dy="1" in="SourceAlpha" result="shadowOffsetOuter1"></feOffset>
            <feGaussianBlur stdDeviation="8" in="shadowOffsetOuter1" result="shadowBlurOuter1"></feGaussianBlur>
            <feColorMatrix values="0 0 0 0 0.690196078   0 0 0 0 0.752941176   0 0 0 0 0.929411765  0 0 0 0.856884058 0" type="matrix" in="shadowBlurOuter1"></feColorMatrix>
        </filter>
        <linearGradient x1="50%" y1="-84.5277032%" x2="50%" y2="100%" id="linearGradient-9">
            <stop stop-color="#79BFF4" offset="0%"></stop>
            <stop stop-color="#4048D2" offset="100%"></stop>
        </linearGradient>
        <ellipse id="path-10" cx="1.74586379" cy="3.66778108" rx="1.74586379" ry="1.90724616"></ellipse>
        <filter x="-701.7%" y="-616.1%" width="1503.3%" height="1384.6%" filterUnits="objectBoundingBox" id="filter-11">
            <feOffset dx="0" dy="1" in="SourceAlpha" result="shadowOffsetOuter1"></feOffset>
            <feGaussianBlur stdDeviation="8" in="shadowOffsetOuter1" result="shadowBlurOuter1"></feGaussianBlur>
            <feColorMatrix values="0 0 0 0 0.690196078   0 0 0 0 0.752941176   0 0 0 0 0.929411765  0 0 0 0.856884058 0" type="matrix" in="shadowBlurOuter1"></feColorMatrix>
        </filter>
    </defs>
    <g id="Mobile---graph-fill" stroke="none" stroke-width="1" fill="none" fill-rule="evenodd">
        <g id="Web---Graph-fill" transform="translate(-1.000000, 9.000000)">
            <path d="M133.678713,172.863512 C146.590532,172.863512 160.092666,190.293726 171.978381,193.206458 C185.277166,196.465479 209.281966,178.374895 229.686132,180.980452 C236.708812,181.87723 235.29566,173.157704 238.516298,172.863512 C250.660586,171.75418 262.089765,174.234518 271.827456,174.72458 C274.836266,174.876002 288.495631,168.325869 295.778829,169.836916 C302.343552,171.1989 302.015851,177.863005 308.599239,172.863512 C311.384453,170.748392 316.606793,169.623994 318.718465,165.279896 C331.359097,139.275788 352.149807,130.04141 362.74897,148.40302 C385.854769,168.362532 401.67778,149.973981 424.853802,160.469862 C447.282636,175.163226 464.439814,175.163226 491.255618,141.832854 C491.62434,141.374556 505.516411,150.240663 507.962704,149.973981 C513.425741,149.378431 519.774246,147.186517 536.35784,138.602365 C541.00019,136.199349 561.465221,157.75009 562.049401,154.060034 C563.192675,146.838391 567.978546,138.629469 570.877062,130.958349 C571.351421,129.702926 581.19331,129.211059 600.402731,129.482748 C610.062814,111.377586 617.159474,97.3297932 621.692712,87.3393705 C622.404172,85.7714451 640.444074,92.4698925 649.146963,93.7024997 C657.014708,94.8168238 663.48593,74.8638526 673.992696,78.1395006 C684.499462,81.4151486 684.694968,78.5740969 693.022494,69.8785138 C695.364795,67.4326889 702.476482,73.3723931 730.755237,34.954504 C736.505518,32.3953436 782.481346,48.3965182 817.858185,59.1784487 C825.030667,61.3644326 841.191005,49.5529675 852.481854,43.3881163 C858.457964,40.1251356 883.636789,50.8005797 891.341612,48.3965182 C904.600569,44.2594536 891.341612,40.2385507 908.563431,20.3369348 C910.091673,18.5708909 921.982809,18.0052969 931.622015,15.7569309 C936.646846,14.5848779 944.561243,9.33256763 955.365206,1.0658141e-13 C955.941607,62.3393921 955.941607,103.634509 955.365206,123.88535 C954.788804,144.136192 954.788804,169.507742 955.365206,200 C681.535452,200 516.314886,200 459.703507,200 C403.092128,200 249.857626,199.518256 0,198.554768 C5.31087784,192.010074 10.1746741,190.202879 14.5913888,193.133182 C21.5050236,197.720086 35.5480335,186.627036 41.704899,186.078206 C54.3371663,184.95215 66.2799097,188.34348 77.178283,188.737727 C78.2354118,188.775968 84.9950602,187.068537 90.2805184,188.737727 C95.6387963,190.429914 99.5633131,195.483506 106.547812,193.206458 C116.712047,189.89277 120.766894,172.863512 133.678713,172.863512 Z" id="Path-2" fill-opacity="0.329999983" fill="url(#linearGradient-1)"></path>
            <path d="M0.952191235,197.671744 C2.88090455,196.239151 6.65411999,191.01269 15.6875588,192.486211 C24.7209975,193.959731 46.0506079,178.06306 58.0767951,187.029132 C66.1524145,193.049875 86.2060057,181.082868 98.1007227,192.486211 C109.99544,203.889554 120.911169,175.082645 127.130961,172.73251 C144.324211,166.236078 150.066435,184.972422 168.441975,192.486211 C179.837603,197.145902 189.803167,190.382331 204.748581,183.36046 C213.902765,179.059508 227.117687,188.868261 239.272765,172.73251 C277.268675,179.059508 285.11598,169.836916 295.778829,169.836916 C303.256289,169.836916 299.809504,187.459948 318.993672,162.862457 C338.17784,138.264967 342.644817,129.882148 361.617056,146.372303 C380.589296,162.862457 400.586866,156.306312 420.148297,160.41635 C446.279842,172.73251 460.082921,181.864939 485.589479,146.372303 C498.758787,128.047075 497.827582,169.165882 534.249034,138.264967 C542.407398,131.343197 564.502495,169.836916 564.502495,146.372303 C564.502495,118.780595 595.958128,135.871184 601.003961,128.479179 C615.5146,107.221496 615.5146,81.7952312 626.503208,87.30241 C642.202859,95.1706301 657.912687,95.1706301 667.990667,78.5818289 C670.124426,75.0695665 680.344962,81.4199742 686.173587,74.725034 C687.445279,73.26433 715.195495,58.88067 719.941991,48.2176702 C734.632967,15.2144006 759.452368,48.8815498 782.260961,49.1555844 C800.458056,49.374214 810.249274,60.5868229 825.12599,58.738781 C872.085702,20.735221 890.430086,74.7446188 904.923675,27.2571632 C907.26418,16.6412029 934.790739,20.6466386 942.207383,10.4746017 C949.624028,0.302564794 954.181994,0.105833622 955.365206,5.68434189e-14" id="Path-3" stroke="url(#linearGradient-2)" stroke-width="3.75830916"></path>
        </g>
        <g id="Web-x-axis" transform="translate(340.000000, 8.000000)">
            <g id="2-months" transform="translate(329.206618, 66.151982)">
                <g id="Rectangle-11-+-Oval-1-+-Oval-1-Copy-+-Oval-3-+-Oval-3-Copy-Copy-Copy" transform="translate(0.951135, 0.000000)">
                    <rect id="Rectangle-11" fill="url(#linearGradient-3)" transform="translate(1.745864, 69.231820) scale(-1, 1) translate(-1.745864, -69.231820) " x="1.5871489" y="0.825702193" width="1" height="136.812235"></rect>
                    <g id="Oval-1-+-Oval-1-Copy" transform="translate(0.000000, 27.525162)">
                        <g id="Oval-1">
                            <use fill="black" fill-opacity="1" filter="url(#filter-5)" xlink:href="#path-4"></use>
                            <use fill="#FFFFFF" fill-rule="evenodd" xlink:href="#path-4"></use>
                        </g>
                        <ellipse id="Oval-1-Copy" fill="#0099FF" cx="1.74586379" cy="-15.1633244" rx="1" ry="1"></ellipse>
                    </g>
                </g>
            </g>
            <g id="3-months" transform="translate(585.737591, 0.000000)">
                <g id="Rectangle-11-+-Oval-1-+-Oval-1-Copy-+-Oval-3-+-Oval-3-Copy-Copy" transform="translate(0.585995, 0.000000)">
                    <rect id="Rectangle-11" fill="url(#linearGradient-6)" x="1.5871489" y="0" width="1" height="203.472489"></rect>
                    <g id="Oval-1-+-Oval-1-Copy" transform="translate(0.000000, 16.136324)">
                        <g id="Oval-1">
                            <use fill="black" fill-opacity="1" filter="url(#filter-8)" xlink:href="#path-7"></use>
                            <use fill="#FFFFFF" fill-rule="evenodd" xlink:href="#path-7"></use>
                        </g>
                        <ellipse id="Oval-1-Copy" fill="#0099FF" cx="1.74586379" cy="2.00368337" rx="1" ry="1"></ellipse>
                    </g>
                </g>
            </g>
            <g id="1-month" transform="translate(0.000000, 127.289342)">
                <g id="Rectangle-11-+-Oval-1-+-Oval-1-Copy-+-Oval-3-+-Oval-3-Copy-Copy-Copy-Copy" transform="translate(0.665641, 0.000000)">
                    <rect id="Rectangle-11" fill="url(#linearGradient-9)" transform="translate(1.745864, 38.409003) scale(-1, 1) translate(-1.745864, -38.409003) " x="1.5871489" y="0" width="1" height="76.8180069"></rect>
                    <g id="Oval-1-+-Oval-1-Copy" transform="translate(0.000000, 7.842383)">
                        <g id="Oval-1">
                            <use fill="black" fill-opacity="1" filter="url(#filter-11)" xlink:href="#path-10"></use>
                            <use fill="#FFFFFF" fill-rule="evenodd" xlink:href="#path-10"></use>
                        </g>
                        <ellipse id="Oval-1-Copy" fill="#0099FF" cx="1.74586379" cy="3.66778108" rx="1" ry="1"></ellipse>
                    </g>
                </g>
            </g>
        </g>
        <path d="M320.156,223 L319.051,223 L319.051,216.396 L316.659,216.396 L316.659,215.512 C316.971002,215.512 317.274332,215.488167 317.569,215.4405 C317.863668,215.392833 318.130165,215.304001 318.3685,215.174 C318.606835,215.043999 318.808333,214.866334 318.973,214.641 C319.137667,214.415666 319.250333,214.129668 319.311,213.783 L320.156,213.783 L320.156,223 Z M327.202,216.279 L328.242,216.279 L328.242,217.267 L328.268,217.267 C328.770669,216.50433 329.494329,216.123 330.439,216.123 C330.855002,216.123 331.231998,216.209666 331.57,216.383 C331.908002,216.556334 332.146333,216.850998 332.285,217.267 C332.510334,216.902998 332.807165,216.621334 333.1755,216.422 C333.543835,216.222666 333.948998,216.123 334.391,216.123 C334.729002,216.123 335.034499,216.159833 335.3075,216.2335 C335.580501,216.307167 335.814499,216.421999 336.0095,216.578 C336.204501,216.734001 336.356166,216.935499 336.4645,217.1825 C336.572834,217.429501 336.627,217.726332 336.627,218.073 L336.627,223 L335.522,223 L335.522,218.593 C335.522,218.384999 335.504667,218.190001 335.47,218.008 C335.435333,217.825999 335.370334,217.667834 335.275,217.5335 C335.179666,217.399166 335.047501,217.293 334.8785,217.215 C334.709499,217.137 334.490668,217.098 334.222,217.098 C333.675997,217.098 333.247002,217.253998 332.935,217.566 C332.622998,217.878002 332.467,218.293997 332.467,218.814 L332.467,223 L331.362,223 L331.362,218.593 C331.362,218.376332 331.3425,218.177001 331.3035,217.995 C331.2645,217.812999 331.197334,217.654834 331.102,217.5205 C331.006666,217.386166 330.878834,217.282167 330.7185,217.2085 C330.558166,217.134833 330.352335,217.098 330.101,217.098 C329.780332,217.098 329.505168,217.162999 329.2755,217.293 C329.045832,217.423001 328.859501,217.578999 328.7165,217.761 C328.573499,217.943001 328.4695,218.131499 328.4045,218.3265 C328.3395,218.521501 328.307,218.683999 328.307,218.814 L328.307,223 L327.202,223 L327.202,216.279 Z M339.097,219.646 C339.097,220.053335 339.151166,220.415165 339.2595,220.7315 C339.367834,221.047835 339.517332,221.312166 339.708,221.5245 C339.898668,221.736834 340.121832,221.899333 340.3775,222.012 C340.633168,222.124667 340.903999,222.181 341.19,222.181 C341.476001,222.181 341.746832,222.124667 342.0025,222.012 C342.258168,221.899333 342.481332,221.736834 342.672,221.5245 C342.862668,221.312166 343.012166,221.047835 343.1205,220.7315 C343.228834,220.415165 343.283,220.053335 343.283,219.646 C343.283,219.238665 343.228834,218.876835 343.1205,218.5605 C343.012166,218.244165 342.862668,217.977668 342.672,217.761 C342.481332,217.544332 342.258168,217.379667 342.0025,217.267 C341.746832,217.154333 341.476001,217.098 341.19,217.098 C340.903999,217.098 340.633168,217.154333 340.3775,217.267 C340.121832,217.379667 339.898668,217.544332 339.708,217.761 C339.517332,217.977668 339.367834,218.244165 339.2595,218.5605 C339.151166,218.876835 339.097,219.238665 339.097,219.646 Z M337.927,219.646 C337.927,219.151998 337.996333,218.690502 338.135,218.2615 C338.273667,217.832498 338.481665,217.459835 338.759,217.1435 C339.036335,216.827165 339.378665,216.578001 339.786,216.396 C340.193335,216.213999 340.661331,216.123 341.19,216.123 C341.727336,216.123 342.197498,216.213999 342.6005,216.396 C343.003502,216.578001 343.343665,216.827165 343.621,217.1435 C343.898335,217.459835 344.106333,217.832498 344.245,218.2615 C344.383667,218.690502 344.453,219.151998 344.453,219.646 C344.453,220.140002 344.383667,220.599331 344.245,221.024 C344.106333,221.448669 343.898335,221.819165 343.621,222.1355 C343.343665,222.451835 343.003502,222.698832 342.6005,222.8765 C342.197498,223.054168 341.727336,223.143 341.19,223.143 C340.661331,223.143 340.193335,223.054168 339.786,222.8765 C339.378665,222.698832 339.036335,222.451835 338.759,222.1355 C338.481665,221.819165 338.273667,221.448669 338.135,221.024 C337.996333,220.599331 337.927,220.140002 337.927,219.646 Z M345.753,216.279 L346.793,216.279 L346.793,217.345 L346.819,217.345 C347.278336,216.530329 348.006328,216.123 349.003,216.123 C349.445002,216.123 349.813332,216.183666 350.108,216.305 C350.402668,216.426334 350.640999,216.595332 350.823,216.812 C351.005001,217.028668 351.132833,217.286499 351.2065,217.5855 C351.280167,217.884501 351.317,218.215998 351.317,218.58 L351.317,223 L350.212,223 L350.212,218.45 C350.212,218.033998 350.090668,217.704668 349.848,217.462 C349.605332,217.219332 349.271669,217.098 348.847,217.098 C348.508998,217.098 348.216501,217.149999 347.9695,217.254 C347.722499,217.358001 347.516667,217.505332 347.352,217.696 C347.187333,217.886668 347.063834,218.109832 346.9815,218.3655 C346.899166,218.621168 346.858,218.900665 346.858,219.204 L346.858,223 L345.753,223 L345.753,216.279 Z M354.515,216.279 L355.854,216.279 L355.854,217.254 L354.515,217.254 L354.515,221.427 C354.515,221.557001 354.525833,221.661 354.5475,221.739 C354.569167,221.817 354.610333,221.877666 354.671,221.921 C354.731667,221.964334 354.816166,221.9925 354.9245,222.0055 C355.032834,222.0185 355.173666,222.025 355.347,222.025 L355.854,222.025 L355.854,223 L355.009,223 C354.722999,223 354.478168,222.9805 354.2745,222.9415 C354.070832,222.9025 353.906167,222.831001 353.7805,222.727 C353.654833,222.622999 353.561667,222.475668 353.501,222.285 C353.440333,222.094332 353.41,221.843002 353.41,221.531 L353.41,217.254 L352.266,217.254 L352.266,216.279 L353.41,216.279 L353.41,214.264 L354.515,214.264 L354.515,216.279 Z M357.076,213.718 L358.181,213.718 L358.181,217.267 L358.207,217.267 C358.293667,217.058999 358.414999,216.883501 358.571,216.7405 C358.727001,216.597499 358.902499,216.4805 359.0975,216.3895 C359.292501,216.2985 359.496166,216.231334 359.7085,216.188 C359.920834,216.144666 360.126666,216.123 360.326,216.123 C360.768002,216.123 361.136332,216.183666 361.431,216.305 C361.725668,216.426334 361.963999,216.595332 362.146,216.812 C362.328001,217.028668 362.455833,217.286499 362.5295,217.5855 C362.603167,217.884501 362.64,218.215998 362.64,218.58 L362.64,223 L361.535,223 L361.535,218.45 C361.535,218.033998 361.413668,217.704668 361.171,217.462 C360.928332,217.219332 360.594669,217.098 360.17,217.098 C359.831998,217.098 359.539501,217.149999 359.2925,217.254 C359.045499,217.358001 358.839667,217.505332 358.675,217.696 C358.510333,217.886668 358.386834,218.109832 358.3045,218.3655 C358.222166,218.621168 358.181,218.900665 358.181,219.204 L358.181,223 L357.076,223 L357.076,213.718 Z" id="1month" fill="#190AB2" fill-rule="nonzero" opacity="0.5"></path>
        <path d="M645.85,217.046 C645.824,216.577998 645.871666,216.144669 645.993,215.746 C646.114334,215.347331 646.302832,215.002835 646.5585,214.7125 C646.814168,214.422165 647.132665,214.194667 647.514,214.03 C647.895335,213.865333 648.328664,213.783 648.814,213.783 C649.212669,213.783 649.587498,213.841499 649.9385,213.9585 C650.289502,214.075501 650.594999,214.244499 650.855,214.4655 C651.115001,214.686501 651.320833,214.961665 651.4725,215.291 C651.624167,215.620335 651.7,216.001665 651.7,216.435 C651.7,216.842335 651.637167,217.201998 651.5115,217.514 C651.385833,217.826002 651.219001,218.105499 651.011,218.3525 C650.802999,218.599501 650.564668,218.822666 650.296,219.022 C650.027332,219.221334 649.750001,219.411999 649.464,219.594 C649.177999,219.767334 648.892001,219.938499 648.606,220.1075 C648.319999,220.276501 648.057835,220.456332 647.8195,220.647 C647.581165,220.837668 647.377501,221.043499 647.2085,221.2645 C647.039499,221.485501 646.929,221.738999 646.877,222.025 L651.609,222.025 L651.609,223 L645.59,223 C645.633334,222.453997 645.730833,221.988169 645.8825,221.6025 C646.034167,221.216831 646.226999,220.881001 646.461,220.595 C646.695001,220.308999 646.959332,220.057668 647.254,219.841 C647.548668,219.624332 647.856332,219.420668 648.177,219.23 C648.567002,218.987332 648.909332,218.764168 649.204,218.5605 C649.498668,218.356832 649.743499,218.151001 649.9385,217.943 C650.133501,217.734999 650.280833,217.509668 650.3805,217.267 C650.480167,217.024332 650.53,216.742668 650.53,216.422 C650.53,216.170665 650.482334,215.943168 650.387,215.7395 C650.291666,215.535832 650.163834,215.360334 650.0035,215.213 C649.843166,215.065666 649.654668,214.953 649.438,214.875 C649.221332,214.797 648.991668,214.758 648.749,214.758 C648.428332,214.758 648.153168,214.825166 647.9235,214.9595 C647.693832,215.093834 647.505334,215.269332 647.358,215.486 C647.210666,215.702668 647.1045,215.947499 647.0395,216.2205 C646.9745,216.493501 646.946333,216.768665 646.955,217.046 L645.85,217.046 Z M656.952,216.279 L657.992,216.279 L657.992,217.267 L658.018,217.267 C658.520669,216.50433 659.244329,216.123 660.189,216.123 C660.605002,216.123 660.981998,216.209666 661.32,216.383 C661.658002,216.556334 661.896333,216.850998 662.035,217.267 C662.260334,216.902998 662.557165,216.621334 662.9255,216.422 C663.293835,216.222666 663.698998,216.123 664.141,216.123 C664.479002,216.123 664.784499,216.159833 665.0575,216.2335 C665.330501,216.307167 665.564499,216.421999 665.7595,216.578 C665.954501,216.734001 666.106166,216.935499 666.2145,217.1825 C666.322834,217.429501 666.377,217.726332 666.377,218.073 L666.377,223 L665.272,223 L665.272,218.593 C665.272,218.384999 665.254667,218.190001 665.22,218.008 C665.185333,217.825999 665.120334,217.667834 665.025,217.5335 C664.929666,217.399166 664.797501,217.293 664.6285,217.215 C664.459499,217.137 664.240668,217.098 663.972,217.098 C663.425997,217.098 662.997002,217.253998 662.685,217.566 C662.372998,217.878002 662.217,218.293997 662.217,218.814 L662.217,223 L661.112,223 L661.112,218.593 C661.112,218.376332 661.0925,218.177001 661.0535,217.995 C661.0145,217.812999 660.947334,217.654834 660.852,217.5205 C660.756666,217.386166 660.628834,217.282167 660.4685,217.2085 C660.308166,217.134833 660.102335,217.098 659.851,217.098 C659.530332,217.098 659.255168,217.162999 659.0255,217.293 C658.795832,217.423001 658.609501,217.578999 658.4665,217.761 C658.323499,217.943001 658.2195,218.131499 658.1545,218.3265 C658.0895,218.521501 658.057,218.683999 658.057,218.814 L658.057,223 L656.952,223 L656.952,216.279 Z M668.847,219.646 C668.847,220.053335 668.901166,220.415165 669.0095,220.7315 C669.117834,221.047835 669.267332,221.312166 669.458,221.5245 C669.648668,221.736834 669.871832,221.899333 670.1275,222.012 C670.383168,222.124667 670.653999,222.181 670.94,222.181 C671.226001,222.181 671.496832,222.124667 671.7525,222.012 C672.008168,221.899333 672.231332,221.736834 672.422,221.5245 C672.612668,221.312166 672.762166,221.047835 672.8705,220.7315 C672.978834,220.415165 673.033,220.053335 673.033,219.646 C673.033,219.238665 672.978834,218.876835 672.8705,218.5605 C672.762166,218.244165 672.612668,217.977668 672.422,217.761 C672.231332,217.544332 672.008168,217.379667 671.7525,217.267 C671.496832,217.154333 671.226001,217.098 670.94,217.098 C670.653999,217.098 670.383168,217.154333 670.1275,217.267 C669.871832,217.379667 669.648668,217.544332 669.458,217.761 C669.267332,217.977668 669.117834,218.244165 669.0095,218.5605 C668.901166,218.876835 668.847,219.238665 668.847,219.646 Z M667.677,219.646 C667.677,219.151998 667.746333,218.690502 667.885,218.2615 C668.023667,217.832498 668.231665,217.459835 668.509,217.1435 C668.786335,216.827165 669.128665,216.578001 669.536,216.396 C669.943335,216.213999 670.411331,216.123 670.94,216.123 C671.477336,216.123 671.947498,216.213999 672.3505,216.396 C672.753502,216.578001 673.093665,216.827165 673.371,217.1435 C673.648335,217.459835 673.856333,217.832498 673.995,218.2615 C674.133667,218.690502 674.203,219.151998 674.203,219.646 C674.203,220.140002 674.133667,220.599331 673.995,221.024 C673.856333,221.448669 673.648335,221.819165 673.371,222.1355 C673.093665,222.451835 672.753502,222.698832 672.3505,222.8765 C671.947498,223.054168 671.477336,223.143 670.94,223.143 C670.411331,223.143 669.943335,223.054168 669.536,222.8765 C669.128665,222.698832 668.786335,222.451835 668.509,222.1355 C668.231665,221.819165 668.023667,221.448669 667.885,221.024 C667.746333,220.599331 667.677,220.140002 667.677,219.646 Z M675.503,216.279 L676.543,216.279 L676.543,217.345 L676.569,217.345 C677.028336,216.530329 677.756328,216.123 678.753,216.123 C679.195002,216.123 679.563332,216.183666 679.858,216.305 C680.152668,216.426334 680.390999,216.595332 680.573,216.812 C680.755001,217.028668 680.882833,217.286499 680.9565,217.5855 C681.030167,217.884501 681.067,218.215998 681.067,218.58 L681.067,223 L679.962,223 L679.962,218.45 C679.962,218.033998 679.840668,217.704668 679.598,217.462 C679.355332,217.219332 679.021669,217.098 678.597,217.098 C678.258998,217.098 677.966501,217.149999 677.7195,217.254 C677.472499,217.358001 677.266667,217.505332 677.102,217.696 C676.937333,217.886668 676.813834,218.109832 676.7315,218.3655 C676.649166,218.621168 676.608,218.900665 676.608,219.204 L676.608,223 L675.503,223 L675.503,216.279 Z M684.265,216.279 L685.604,216.279 L685.604,217.254 L684.265,217.254 L684.265,221.427 C684.265,221.557001 684.275833,221.661 684.2975,221.739 C684.319167,221.817 684.360333,221.877666 684.421,221.921 C684.481667,221.964334 684.566166,221.9925 684.6745,222.0055 C684.782834,222.0185 684.923666,222.025 685.097,222.025 L685.604,222.025 L685.604,223 L684.759,223 C684.472999,223 684.228168,222.9805 684.0245,222.9415 C683.820832,222.9025 683.656167,222.831001 683.5305,222.727 C683.404833,222.622999 683.311667,222.475668 683.251,222.285 C683.190333,222.094332 683.16,221.843002 683.16,221.531 L683.16,217.254 L682.016,217.254 L682.016,216.279 L683.16,216.279 L683.16,214.264 L684.265,214.264 L684.265,216.279 Z M686.826,213.718 L687.931,213.718 L687.931,217.267 L687.957,217.267 C688.043667,217.058999 688.164999,216.883501 688.321,216.7405 C688.477001,216.597499 688.652499,216.4805 688.8475,216.3895 C689.042501,216.2985 689.246166,216.231334 689.4585,216.188 C689.670834,216.144666 689.876666,216.123 690.076,216.123 C690.518002,216.123 690.886332,216.183666 691.181,216.305 C691.475668,216.426334 691.713999,216.595332 691.896,216.812 C692.078001,217.028668 692.205833,217.286499 692.2795,217.5855 C692.353167,217.884501 692.39,218.215998 692.39,218.58 L692.39,223 L691.285,223 L691.285,218.45 C691.285,218.033998 691.163668,217.704668 690.921,217.462 C690.678332,217.219332 690.344669,217.098 689.92,217.098 C689.581998,217.098 689.289501,217.149999 689.0425,217.254 C688.795499,217.358001 688.589667,217.505332 688.425,217.696 C688.260333,217.886668 688.136834,218.109832 688.0545,218.3655 C687.972166,218.621168 687.931,218.900665 687.931,219.204 L687.931,223 L686.826,223 L686.826,213.718 Z M694.73,220.881 C694.738667,221.123668 694.794999,221.329499 694.899,221.4985 C695.003001,221.667501 695.139499,221.801833 695.3085,221.9015 C695.477501,222.001167 695.668166,222.072666 695.8805,222.116 C696.092834,222.159334 696.311666,222.181 696.537,222.181 C696.710334,222.181 696.892332,222.168 697.083,222.142 C697.273668,222.116 697.449166,222.068334 697.6095,221.999 C697.769834,221.929666 697.901999,221.827834 698.006,221.6935 C698.110001,221.559166 698.162,221.388001 698.162,221.18 C698.162,220.893999 698.053668,220.677334 697.837,220.53 C697.620332,220.382666 697.349502,220.2635 697.0245,220.1725 C696.699498,220.0815 696.346335,219.999167 695.965,219.9255 C695.583665,219.851833 695.230502,219.747834 694.9055,219.6135 C694.580498,219.479166 694.309668,219.290668 694.093,219.048 C693.876332,218.805332 693.768,218.467335 693.768,218.034 C693.768,217.695998 693.843833,217.405668 693.9955,217.163 C694.147167,216.920332 694.342165,216.723167 694.5805,216.5715 C694.818835,216.419833 695.087499,216.307167 695.3865,216.2335 C695.685501,216.159833 695.982332,216.123 696.277,216.123 C696.658335,216.123 697.009332,216.1555 697.33,216.2205 C697.650668,216.2855 697.934499,216.398166 698.1815,216.5585 C698.428501,216.718834 698.625666,216.935499 698.773,217.2085 C698.920334,217.481501 699.007,217.821665 699.033,218.229 L697.928,218.229 C697.910667,218.012332 697.854334,217.832501 697.759,217.6895 C697.663666,217.546499 697.542334,217.431667 697.395,217.345 C697.247666,217.258333 697.085168,217.1955 696.9075,217.1565 C696.729832,217.1175 696.550001,217.098 696.368,217.098 C696.203333,217.098 696.036501,217.111 695.8675,217.137 C695.698499,217.163 695.544667,217.2085 695.406,217.2735 C695.267333,217.3385 695.154667,217.425166 695.068,217.5335 C694.981333,217.641834 694.938,217.782666 694.938,217.956 C694.938,218.146668 695.005166,218.304833 695.1395,218.4305 C695.273834,218.556167 695.444999,218.660166 695.653,218.7425 C695.861001,218.824834 696.094999,218.894166 696.355,218.9505 C696.615001,219.006834 696.874999,219.065333 697.135,219.126 C697.412335,219.186667 697.683165,219.260333 697.9475,219.347 C698.211835,219.433667 698.445832,219.548499 698.6495,219.6915 C698.853168,219.834501 699.017833,220.014332 699.1435,220.231 C699.269167,220.447668 699.332,220.716332 699.332,221.037 C699.332,221.444335 699.247501,221.782332 699.0785,222.051 C698.909499,222.319668 698.688501,222.536333 698.4155,222.701 C698.142499,222.865667 697.834835,222.9805 697.4925,223.0455 C697.150165,223.1105 696.810002,223.143 696.472,223.143 C696.099331,223.143 695.744002,223.104 695.406,223.026 C695.067998,222.948 694.769001,222.820168 694.509,222.6425 C694.248999,222.464832 694.041001,222.230835 693.885,221.9405 C693.728999,221.650165 693.642333,221.297002 693.625,220.881 L694.73,220.881 Z" id="2months" fill="#190AB2" fill-rule="nonzero" opacity="0.5"></path>
        <path d="M903.112,217.735 C903.155334,217.743667 903.194333,217.748 903.229,217.748 L903.593,217.748 C903.827001,217.748 904.050166,217.7155 904.2625,217.6505 C904.474834,217.5855 904.661166,217.490167 904.8215,217.3645 C904.981834,217.238833 905.109666,217.080668 905.205,216.89 C905.300334,216.699332 905.348,216.482668 905.348,216.24 C905.348,215.745998 905.192002,215.375501 904.88,215.1285 C904.567998,214.881499 904.178002,214.758 903.71,214.758 C903.415332,214.758 903.157501,214.812166 902.9365,214.9205 C902.715499,215.028834 902.533501,215.173999 902.3905,215.356 C902.247499,215.538001 902.141334,215.750332 902.072,215.993 C902.002666,216.235668 901.968,216.491332 901.968,216.76 L900.863,216.76 C900.880333,216.317998 900.951833,215.915002 901.0775,215.551 C901.203167,215.186998 901.382999,214.875001 901.617,214.615 C901.851001,214.354999 902.143498,214.151334 902.4945,214.004 C902.845502,213.856666 903.250664,213.783 903.71,213.783 C904.108669,213.783 904.479165,213.832833 904.8215,213.9325 C905.163835,214.032167 905.460665,214.181666 905.712,214.381 C905.963335,214.580334 906.160499,214.835998 906.3035,215.148 C906.446501,215.460002 906.518,215.828331 906.518,216.253 C906.518,216.669002 906.396668,217.037332 906.154,217.358 C905.911332,217.678668 905.608002,217.921333 905.244,218.086 L905.244,218.112 C905.807336,218.233334 906.225499,218.497665 906.4985,218.905 C906.771501,219.312335 906.908,219.793331 906.908,220.348 C906.908,220.807336 906.823501,221.212498 906.6545,221.5635 C906.485499,221.914502 906.258001,222.206999 905.972,222.441 C905.685999,222.675001 905.350169,222.850499 904.9645,222.9675 C904.578831,223.084501 904.169335,223.143 903.736,223.143 C903.267998,223.143 902.843335,223.078001 902.462,222.948 C902.080665,222.817999 901.755668,222.625168 901.487,222.3695 C901.218332,222.113832 901.012501,221.799669 900.8695,221.427 C900.726499,221.054331 900.659333,220.629669 900.668,220.153 L901.773,220.153 C901.790333,220.751003 901.963665,221.238498 902.293,221.6155 C902.622335,221.992502 903.10333,222.181 903.736,222.181 C904.004668,222.181 904.260332,222.139834 904.503,222.0575 C904.745668,221.975166 904.957999,221.858167 905.14,221.7065 C905.322001,221.554833 905.467166,221.368501 905.5755,221.1475 C905.683834,220.926499 905.738,220.677335 905.738,220.4 C905.738,220.113999 905.686001,219.860501 905.582,219.6395 C905.477999,219.418499 905.339334,219.232167 905.166,219.0805 C904.992666,218.928833 904.786835,218.816167 904.5485,218.7425 C904.310165,218.668833 904.052335,218.632 903.775,218.632 C903.540999,218.632 903.320001,218.645 903.112,218.671 L903.112,217.735 Z M911.952,216.279 L912.992,216.279 L912.992,217.267 L913.018,217.267 C913.520669,216.50433 914.244329,216.123 915.189,216.123 C915.605002,216.123 915.981998,216.209666 916.32,216.383 C916.658002,216.556334 916.896333,216.850998 917.035,217.267 C917.260334,216.902998 917.557165,216.621334 917.9255,216.422 C918.293835,216.222666 918.698998,216.123 919.141,216.123 C919.479002,216.123 919.784499,216.159833 920.0575,216.2335 C920.330501,216.307167 920.564499,216.421999 920.7595,216.578 C920.954501,216.734001 921.106166,216.935499 921.2145,217.1825 C921.322834,217.429501 921.377,217.726332 921.377,218.073 L921.377,223 L920.272,223 L920.272,218.593 C920.272,218.384999 920.254667,218.190001 920.22,218.008 C920.185333,217.825999 920.120334,217.667834 920.025,217.5335 C919.929666,217.399166 919.797501,217.293 919.6285,217.215 C919.459499,217.137 919.240668,217.098 918.972,217.098 C918.425997,217.098 917.997002,217.253998 917.685,217.566 C917.372998,217.878002 917.217,218.293997 917.217,218.814 L917.217,223 L916.112,223 L916.112,218.593 C916.112,218.376332 916.0925,218.177001 916.0535,217.995 C916.0145,217.812999 915.947334,217.654834 915.852,217.5205 C915.756666,217.386166 915.628834,217.282167 915.4685,217.2085 C915.308166,217.134833 915.102335,217.098 914.851,217.098 C914.530332,217.098 914.255168,217.162999 914.0255,217.293 C913.795832,217.423001 913.609501,217.578999 913.4665,217.761 C913.323499,217.943001 913.2195,218.131499 913.1545,218.3265 C913.0895,218.521501 913.057,218.683999 913.057,218.814 L913.057,223 L911.952,223 L911.952,216.279 Z M923.847,219.646 C923.847,220.053335 923.901166,220.415165 924.0095,220.7315 C924.117834,221.047835 924.267332,221.312166 924.458,221.5245 C924.648668,221.736834 924.871832,221.899333 925.1275,222.012 C925.383168,222.124667 925.653999,222.181 925.94,222.181 C926.226001,222.181 926.496832,222.124667 926.7525,222.012 C927.008168,221.899333 927.231332,221.736834 927.422,221.5245 C927.612668,221.312166 927.762166,221.047835 927.8705,220.7315 C927.978834,220.415165 928.033,220.053335 928.033,219.646 C928.033,219.238665 927.978834,218.876835 927.8705,218.5605 C927.762166,218.244165 927.612668,217.977668 927.422,217.761 C927.231332,217.544332 927.008168,217.379667 926.7525,217.267 C926.496832,217.154333 926.226001,217.098 925.94,217.098 C925.653999,217.098 925.383168,217.154333 925.1275,217.267 C924.871832,217.379667 924.648668,217.544332 924.458,217.761 C924.267332,217.977668 924.117834,218.244165 924.0095,218.5605 C923.901166,218.876835 923.847,219.238665 923.847,219.646 Z M922.677,219.646 C922.677,219.151998 922.746333,218.690502 922.885,218.2615 C923.023667,217.832498 923.231665,217.459835 923.509,217.1435 C923.786335,216.827165 924.128665,216.578001 924.536,216.396 C924.943335,216.213999 925.411331,216.123 925.94,216.123 C926.477336,216.123 926.947498,216.213999 927.3505,216.396 C927.753502,216.578001 928.093665,216.827165 928.371,217.1435 C928.648335,217.459835 928.856333,217.832498 928.995,218.2615 C929.133667,218.690502 929.203,219.151998 929.203,219.646 C929.203,220.140002 929.133667,220.599331 928.995,221.024 C928.856333,221.448669 928.648335,221.819165 928.371,222.1355 C928.093665,222.451835 927.753502,222.698832 927.3505,222.8765 C926.947498,223.054168 926.477336,223.143 925.94,223.143 C925.411331,223.143 924.943335,223.054168 924.536,222.8765 C924.128665,222.698832 923.786335,222.451835 923.509,222.1355 C923.231665,221.819165 923.023667,221.448669 922.885,221.024 C922.746333,220.599331 922.677,220.140002 922.677,219.646 Z M930.503,216.279 L931.543,216.279 L931.543,217.345 L931.569,217.345 C932.028336,216.530329 932.756328,216.123 933.753,216.123 C934.195002,216.123 934.563332,216.183666 934.858,216.305 C935.152668,216.426334 935.390999,216.595332 935.573,216.812 C935.755001,217.028668 935.882833,217.286499 935.9565,217.5855 C936.030167,217.884501 936.067,218.215998 936.067,218.58 L936.067,223 L934.962,223 L934.962,218.45 C934.962,218.033998 934.840668,217.704668 934.598,217.462 C934.355332,217.219332 934.021669,217.098 933.597,217.098 C933.258998,217.098 932.966501,217.149999 932.7195,217.254 C932.472499,217.358001 932.266667,217.505332 932.102,217.696 C931.937333,217.886668 931.813834,218.109832 931.7315,218.3655 C931.649166,218.621168 931.608,218.900665 931.608,219.204 L931.608,223 L930.503,223 L930.503,216.279 Z M939.265,216.279 L940.604,216.279 L940.604,217.254 L939.265,217.254 L939.265,221.427 C939.265,221.557001 939.275833,221.661 939.2975,221.739 C939.319167,221.817 939.360333,221.877666 939.421,221.921 C939.481667,221.964334 939.566166,221.9925 939.6745,222.0055 C939.782834,222.0185 939.923666,222.025 940.097,222.025 L940.604,222.025 L940.604,223 L939.759,223 C939.472999,223 939.228168,222.9805 939.0245,222.9415 C938.820832,222.9025 938.656167,222.831001 938.5305,222.727 C938.404833,222.622999 938.311667,222.475668 938.251,222.285 C938.190333,222.094332 938.16,221.843002 938.16,221.531 L938.16,217.254 L937.016,217.254 L937.016,216.279 L938.16,216.279 L938.16,214.264 L939.265,214.264 L939.265,216.279 Z M941.826,213.718 L942.931,213.718 L942.931,217.267 L942.957,217.267 C943.043667,217.058999 943.164999,216.883501 943.321,216.7405 C943.477001,216.597499 943.652499,216.4805 943.8475,216.3895 C944.042501,216.2985 944.246166,216.231334 944.4585,216.188 C944.670834,216.144666 944.876666,216.123 945.076,216.123 C945.518002,216.123 945.886332,216.183666 946.181,216.305 C946.475668,216.426334 946.713999,216.595332 946.896,216.812 C947.078001,217.028668 947.205833,217.286499 947.2795,217.5855 C947.353167,217.884501 947.39,218.215998 947.39,218.58 L947.39,223 L946.285,223 L946.285,218.45 C946.285,218.033998 946.163668,217.704668 945.921,217.462 C945.678332,217.219332 945.344669,217.098 944.92,217.098 C944.581998,217.098 944.289501,217.149999 944.0425,217.254 C943.795499,217.358001 943.589667,217.505332 943.425,217.696 C943.260333,217.886668 943.136834,218.109832 943.0545,218.3655 C942.972166,218.621168 942.931,218.900665 942.931,219.204 L942.931,223 L941.826,223 L941.826,213.718 Z M949.73,220.881 C949.738667,221.123668 949.794999,221.329499 949.899,221.4985 C950.003001,221.667501 950.139499,221.801833 950.3085,221.9015 C950.477501,222.001167 950.668166,222.072666 950.8805,222.116 C951.092834,222.159334 951.311666,222.181 951.537,222.181 C951.710334,222.181 951.892332,222.168 952.083,222.142 C952.273668,222.116 952.449166,222.068334 952.6095,221.999 C952.769834,221.929666 952.901999,221.827834 953.006,221.6935 C953.110001,221.559166 953.162,221.388001 953.162,221.18 C953.162,220.893999 953.053668,220.677334 952.837,220.53 C952.620332,220.382666 952.349502,220.2635 952.0245,220.1725 C951.699498,220.0815 951.346335,219.999167 950.965,219.9255 C950.583665,219.851833 950.230502,219.747834 949.9055,219.6135 C949.580498,219.479166 949.309668,219.290668 949.093,219.048 C948.876332,218.805332 948.768,218.467335 948.768,218.034 C948.768,217.695998 948.843833,217.405668 948.9955,217.163 C949.147167,216.920332 949.342165,216.723167 949.5805,216.5715 C949.818835,216.419833 950.087499,216.307167 950.3865,216.2335 C950.685501,216.159833 950.982332,216.123 951.277,216.123 C951.658335,216.123 952.009332,216.1555 952.33,216.2205 C952.650668,216.2855 952.934499,216.398166 953.1815,216.5585 C953.428501,216.718834 953.625666,216.935499 953.773,217.2085 C953.920334,217.481501 954.007,217.821665 954.033,218.229 L952.928,218.229 C952.910667,218.012332 952.854334,217.832501 952.759,217.6895 C952.663666,217.546499 952.542334,217.431667 952.395,217.345 C952.247666,217.258333 952.085168,217.1955 951.9075,217.1565 C951.729832,217.1175 951.550001,217.098 951.368,217.098 C951.203333,217.098 951.036501,217.111 950.8675,217.137 C950.698499,217.163 950.544667,217.2085 950.406,217.2735 C950.267333,217.3385 950.154667,217.425166 950.068,217.5335 C949.981333,217.641834 949.938,217.782666 949.938,217.956 C949.938,218.146668 950.005166,218.304833 950.1395,218.4305 C950.273834,218.556167 950.444999,218.660166 950.653,218.7425 C950.861001,218.824834 951.094999,218.894166 951.355,218.9505 C951.615001,219.006834 951.874999,219.065333 952.135,219.126 C952.412335,219.186667 952.683165,219.260333 952.9475,219.347 C953.211835,219.433667 953.445832,219.548499 953.6495,219.6915 C953.853168,219.834501 954.017833,220.014332 954.1435,220.231 C954.269167,220.447668 954.332,220.716332 954.332,221.037 C954.332,221.444335 954.247501,221.782332 954.0785,222.051 C953.909499,222.319668 953.688501,222.536333 953.4155,222.701 C953.142499,222.865667 952.834835,222.9805 952.4925,223.0455 C952.150165,223.1105 951.810002,223.143 951.472,223.143 C951.099331,223.143 950.744002,223.104 950.406,223.026 C950.067998,222.948 949.769001,222.820168 949.509,222.6425 C949.248999,222.464832 949.041001,222.230835 948.885,221.9405 C948.728999,221.650165 948.642333,221.297002 948.625,220.881 L949.73,220.881 Z" id="3months" fill="#190AB2" fill-rule="nonzero" opacity="0.5"></path>
    </g>
</svg>