<?xml version="1.0" encoding="UTF-8"?>
<svg width="3007px" height="690px" viewBox="0 0 3007 690" version="1.1" xmlns="http://www.w3.org/2000/svg" xmlns:xlink="http://www.w3.org/1999/xlink">
    <!-- Generator: Sketch 54.1 (76490) - https://sketchapp.com -->
    <title>Web - Graph fill</title>
    <desc>Created with Sketch.</desc>
    <defs>
        <linearGradient x1="85.751582%" y1="49.6668831%" x2="-2.2278609%" y2="52.0199568%" id="linearGradient-1">
            <stop stop-color="#71C0F6" offset="0%"></stop>
            <stop stop-color="#1444E5" offset="92.3775338%"></stop>
            <stop stop-color="#7676FF" offset="100%"></stop>
        </linearGradient>
        <linearGradient x1="66.4789244%" y1="46.7616578%" x2="5.94158209%" y2="51.4612843%" id="linearGradient-2">
            <stop stop-color="#166DE1" offset="0%"></stop>
            <stop stop-color="#7676FF" offset="100%"></stop>
        </linearGradient>
        <linearGradient x1="50%" y1="-84.5277032%" x2="50%" y2="100%" id="linearGradient-3">
            <stop stop-color="#79BFF4" offset="0%"></stop>
            <stop stop-color="#4048D2" offset="100%"></stop>
        </linearGradient>
        <ellipse id="path-4" cx="5.5" cy="-48.1944368" rx="5.5" ry="6.082793"></ellipse>
        <filter x="-663.6%" y="-559.0%" width="1427.3%" height="1300.1%" filterUnits="objectBoundingBox" id="filter-5">
            <feOffset dx="0" dy="5" in="SourceAlpha" result="shadowOffsetOuter1"></feOffset>
            <feGaussianBlur stdDeviation="23.5" in="shadowOffsetOuter1" result="shadowBlurOuter1"></feGaussianBlur>
            <feColorMatrix values="0 0 0 0 0.690196078   0 0 0 0 0.752941176   0 0 0 0 0.929411765  0 0 0 0.856884058 0" type="matrix" in="shadowBlurOuter1"></feColorMatrix>
        </filter>
        <linearGradient x1="50%" y1="-84.5277032%" x2="50%" y2="100%" id="linearGradient-6">
            <stop stop-color="#79BFF4" offset="0%"></stop>
            <stop stop-color="#4048D2" offset="100%"></stop>
        </linearGradient>
        <ellipse id="path-7" cx="5.5" cy="6.31220981" rx="5.5" ry="6.31220981"></ellipse>
        <filter x="-663.6%" y="-538.6%" width="1427.3%" height="1256.5%" filterUnits="objectBoundingBox" id="filter-8">
            <feOffset dx="0" dy="5" in="SourceAlpha" result="shadowOffsetOuter1"></feOffset>
            <feGaussianBlur stdDeviation="23.5" in="shadowOffsetOuter1" result="shadowBlurOuter1"></feGaussianBlur>
            <feColorMatrix values="0 0 0 0 0.690196078   0 0 0 0 0.752941176   0 0 0 0 0.929411765  0 0 0 0.856884058 0" type="matrix" in="shadowBlurOuter1"></feColorMatrix>
        </filter>
        <linearGradient x1="50%" y1="-84.5277032%" x2="50%" y2="100%" id="linearGradient-9">
            <stop stop-color="#79BFF4" offset="0%"></stop>
            <stop stop-color="#4048D2" offset="100%"></stop>
        </linearGradient>
        <ellipse id="path-10" cx="5.5" cy="11.5546218" rx="5.5" ry="6.00840336"></ellipse>
        <filter x="-663.6%" y="-565.9%" width="1427.3%" height="1315.0%" filterUnits="objectBoundingBox" id="filter-11">
            <feOffset dx="0" dy="5" in="SourceAlpha" result="shadowOffsetOuter1"></feOffset>
            <feGaussianBlur stdDeviation="23.5" in="shadowOffsetOuter1" result="shadowBlurOuter1"></feGaussianBlur>
            <feColorMatrix values="0 0 0 0 0.690196078   0 0 0 0 0.752941176   0 0 0 0 0.929411765  0 0 0 0.856884058 0" type="matrix" in="shadowBlurOuter1"></feColorMatrix>
        </filter>
    </defs>
    <g id="Web---Graph-fill" stroke="none" stroke-width="1" fill="none" fill-rule="evenodd">
        <g transform="translate(-3.000000, 29.000000)">
            <path d="M421.171845,542.791427 C461.852178,542.791427 504.392375,597.5223 541.839838,606.668279 C583.739356,616.901604 659.36954,560.09717 723.65547,568.27862 C745.78132,571.094501 741.329003,543.715191 751.476034,542.791427 C789.738165,539.308125 825.747251,547.096387 856.427089,548.63518 C865.90673,549.110645 908.942303,528.543229 931.888948,533.287916 C952.571945,537.564547 951.53948,558.489835 972.281285,542.791427 C981.056458,536.149949 997.510104,532.61934 1004.1632,518.978873 C1043.98912,437.325973 1109.49291,408.330028 1142.88692,465.985483 C1215.68469,528.658349 1265.53711,470.918301 1338.55612,503.875366 C1409.22102,550.012529 1463.2769,550.012529 1547.76352,445.355161 C1548.92522,443.916106 1592.69396,471.755681 1600.40132,470.918301 C1617.61332,469.048274 1637.61509,462.165662 1689.86382,435.211425 C1704.49014,427.665956 1768.96783,495.335282 1770.80836,483.748506 C1774.41039,461.072547 1789.48889,435.296533 1798.62104,411.209215 C1800.11556,407.267189 1831.12369,405.722726 1891.64542,406.575829 C1922.08075,349.725619 1944.43968,305.615551 1958.72223,274.245623 C1960.96377,269.322338 2017.80079,290.355462 2045.22035,294.225849 C2070.00868,297.724827 2090.39709,235.072497 2123.5,245.358032 C2156.60291,255.643566 2157.21887,246.722664 2183.45581,219.418533 C2190.83552,211.738643 2213.2418,230.389314 2302.33763,109.757143 C2320.45462,101.721379 2465.30734,151.965067 2576.76658,185.820329 C2599.3644,192.684318 2650.27961,155.596318 2685.85287,136.238685 C2704.68137,125.992926 2784.01047,159.51382 2808.2855,151.965067 C2850.05953,138.974684 2808.2855,126.349049 2862.54504,63.8579753 C2867.35996,58.3125974 2904.8245,56.5366323 2935.19405,49.476763 C2951.02542,45.7965167 2975.96074,29.3042624 3010,2.84217094e-13 C3011.81603,195.745691 3011.81603,325.412358 3010,389 C3008.18397,452.587642 3008.18397,532.254309 3010,628 C2147.26442,628 1626.71594,628 1448.35456,628 C1269.99319,628 787.208336,626.487324 0,623.461971 C16.7325984,602.911632 32.0566092,597.237039 45.9720326,606.438192 C67.7543212,620.841071 111.998616,586.008894 131.396606,584.285566 C171.196177,580.749751 208.823314,591.398528 243.16003,592.636463 C246.490649,592.756541 267.787784,587.395207 284.440294,592.636463 C301.322233,597.949929 313.686924,613.81821 335.692478,606.668279 C367.716198,596.263296 380.491512,542.791427 421.171845,542.791427 Z" id="Path-2" fill-opacity="0.329999983" fill="url(#linearGradient-1)"></path>
            <path d="M3,620.689275 C9.07665742,616.190935 20.9646542,599.779848 49.4256558,604.406702 C77.8866575,609.033556 145.088317,559.118007 182.978354,587.271474 C208.421624,606.176608 271.603022,568.600205 309.078846,604.406702 C346.55467,640.213198 380.946068,549.759505 400.542315,542.380081 C454.711843,521.981284 472.803455,580.813404 530.697938,604.406702 C566.601318,619.038133 597.999101,597.800518 645.086534,575.751843 C673.927958,562.246856 715.563255,593.046339 753.859382,542.380081 C873.570344,562.246856 898.294282,533.287916 931.888948,533.287916 C955.44764,533.287916 944.588103,588.624236 1005.03027,511.388116 C1065.47244,434.151996 1079.54622,407.829945 1139.32068,459.60903 C1199.09515,511.388116 1262.10004,490.801819 1323.73083,503.707339 C1406.0616,542.380081 1449.54995,571.05591 1529.91162,459.60903 C1571.40321,402.067817 1568.46933,531.180869 1683.21976,434.151996 C1708.92373,412.417639 1778.53715,533.287916 1778.53715,459.60903 C1778.53715,372.971067 1877.64213,426.635517 1893.53967,403.424621 C1939.25729,336.675498 1939.25729,256.837026 1973.87831,274.129568 C2023.34206,298.835778 2072.83788,298.835778 2104.58984,246.746943 C2111.31252,235.718439 2143.51362,255.658719 2161.87745,234.636607 C2165.88408,230.049996 2253.31468,184.885304 2268.26912,151.403484 C2314.55491,47.7732177 2392.7516,153.488066 2464.61299,154.348535 C2521.94526,155.035032 2552.79374,190.242624 2599.66473,184.439772 C2747.6173,65.1085939 2805.41362,234.698103 2851.07752,85.5874925 C2858.45158,52.2533771 2945.17752,64.8304452 2968.5446,32.8902493 C2991.91169,0.950053452 3006.27214,0.332317573 3010,5.68434189e-14" id="Path-3" stroke="url(#linearGradient-2)" stroke-width="11.8398127"></path>
        </g>
        <g id="Web-x-axis" transform="translate(1075.000000, 26.000000)">
            <g id="2-months" transform="translate(1038.000000, 221.000000)">
                <g id="Rectangle-11-+-Oval-1-+-Oval-1-Copy-+-Oval-3-+-Oval-3-Copy-Copy-Copy">
                    <rect id="Rectangle-11" fill="url(#linearGradient-3)" transform="translate(5.500000, 205.500000) scale(-1, 1) translate(-5.500000, -205.500000) " x="5" y="-10" width="1" height="431"></rect>
                    <g id="Oval-1-+-Oval-1-Copy" transform="translate(0.000000, 74.111390)">
                        <g id="Oval-1">
                            <use fill="black" fill-opacity="1" filter="url(#filter-5)" xlink:href="#path-4"></use>
                            <use fill="#FFFFFF" fill-rule="evenodd" xlink:href="#path-4"></use>
                        </g>
                        <ellipse id="Oval-1-Copy" fill="#0099FF" cx="5.5" cy="-47.7690667" rx="2.5" ry="2.76490591"></ellipse>
                    </g>
                </g>
            </g>
            <g id="3-months" transform="translate(1845.000000, 0.000000)">
                <g id="Rectangle-11-+-Oval-1-+-Oval-1-Copy-+-Oval-3-+-Oval-3-Copy-Copy">
                    <rect id="Rectangle-11" fill="url(#linearGradient-6)" x="5" y="0" width="1" height="641"></rect>
                    <g id="Oval-1-+-Oval-1-Copy" transform="translate(0.000000, 49.984615)">
                        <g id="Oval-1">
                            <use fill="black" fill-opacity="1" filter="url(#filter-8)" xlink:href="#path-7"></use>
                            <use fill="#FFFFFF" fill-rule="evenodd" xlink:href="#path-7"></use>
                        </g>
                        <ellipse id="Oval-1-Copy" fill="#0099FF" cx="5.5" cy="6.31220981" rx="2.5" ry="2.86918628"></ellipse>
                    </g>
                </g>
            </g>
            <g id="1-month" transform="translate(0.000000, 401.000000)">
                <g id="Rectangle-11-+-Oval-1-+-Oval-1-Copy-+-Oval-3-+-Oval-3-Copy-Copy-Copy-Copy">
                    <rect id="Rectangle-11" fill="url(#linearGradient-9)" transform="translate(5.500000, 121.000000) scale(-1, 1) translate(-5.500000, -121.000000) " x="5" y="0" width="1" height="242"></rect>
                    <g id="Oval-1-+-Oval-1-Copy" transform="translate(0.000000, 24.705882)">
                        <g id="Oval-1">
                            <use fill="black" fill-opacity="1" filter="url(#filter-11)" xlink:href="#path-10"></use>
                            <use fill="#FFFFFF" fill-rule="evenodd" xlink:href="#path-10"></use>
                        </g>
                        <ellipse id="Oval-1-Copy" fill="#0099FF" cx="5.5" cy="11.5546218" rx="2.5" ry="2.73109244"></ellipse>
                    </g>
                </g>
            </g>
        </g>
        <path d="M1052.216,682 L1050.686,682 L1050.686,672.856 L1047.374,672.856 L1047.374,671.632 C1047.806,671.632 1048.226,671.599 1048.634,671.533 C1049.042,671.467 1049.411,671.344001 1049.741,671.164 C1050.071,670.983999 1050.35,670.738002 1050.578,670.426 C1050.806,670.113998 1050.962,669.718002 1051.046,669.238 L1052.216,669.238 L1052.216,682 Z M1061.972,672.694 L1063.412,672.694 L1063.412,674.062 L1063.448,674.062 C1064.144,673.005995 1065.14599,672.478 1066.454,672.478 C1067.03,672.478 1067.552,672.597999 1068.02,672.838 C1068.488,673.078001 1068.818,673.485997 1069.01,674.062 C1069.322,673.557997 1069.733,673.168001 1070.243,672.892 C1070.753,672.615999 1071.314,672.478 1071.926,672.478 C1072.394,672.478 1072.817,672.528999 1073.195,672.631 C1073.573,672.733001 1073.897,672.891999 1074.167,673.108 C1074.437,673.324001 1074.647,673.602998 1074.797,673.945 C1074.947,674.287002 1075.022,674.697998 1075.022,675.178 L1075.022,682 L1073.492,682 L1073.492,675.898 C1073.492,675.609999 1073.468,675.340001 1073.42,675.088 C1073.372,674.835999 1073.282,674.617001 1073.15,674.431 C1073.018,674.244999 1072.835,674.098001 1072.601,673.99 C1072.367,673.881999 1072.064,673.828 1071.692,673.828 C1070.936,673.828 1070.342,674.043998 1069.91,674.476 C1069.478,674.908002 1069.262,675.483996 1069.262,676.204 L1069.262,682 L1067.732,682 L1067.732,675.898 C1067.732,675.597999 1067.705,675.322001 1067.651,675.07 C1067.597,674.817999 1067.504,674.599001 1067.372,674.413 C1067.24,674.226999 1067.063,674.083001 1066.841,673.981 C1066.619,673.878999 1066.334,673.828 1065.986,673.828 C1065.542,673.828 1065.161,673.917999 1064.843,674.098 C1064.525,674.278001 1064.267,674.493999 1064.069,674.746 C1063.871,674.998001 1063.727,675.258999 1063.637,675.529 C1063.547,675.799001 1063.502,676.023999 1063.502,676.204 L1063.502,682 L1061.972,682 L1061.972,672.694 Z M1078.442,677.356 C1078.442,677.920003 1078.517,678.420998 1078.667,678.859 C1078.817,679.297002 1079.024,679.662999 1079.288,679.957 C1079.552,680.251001 1079.861,680.475999 1080.215,680.632 C1080.569,680.788001 1080.944,680.866 1081.34,680.866 C1081.736,680.866 1082.111,680.788001 1082.465,680.632 C1082.819,680.475999 1083.128,680.251001 1083.392,679.957 C1083.656,679.662999 1083.863,679.297002 1084.013,678.859 C1084.163,678.420998 1084.238,677.920003 1084.238,677.356 C1084.238,676.791997 1084.163,676.291002 1084.013,675.853 C1083.863,675.414998 1083.656,675.046001 1083.392,674.746 C1083.128,674.445998 1082.819,674.218001 1082.465,674.062 C1082.111,673.905999 1081.736,673.828 1081.34,673.828 C1080.944,673.828 1080.569,673.905999 1080.215,674.062 C1079.861,674.218001 1079.552,674.445998 1079.288,674.746 C1079.024,675.046001 1078.817,675.414998 1078.667,675.853 C1078.517,676.291002 1078.442,676.791997 1078.442,677.356 Z M1076.822,677.356 C1076.822,676.671997 1076.918,676.033003 1077.11,675.439 C1077.302,674.844997 1077.59,674.329002 1077.974,673.891 C1078.358,673.452998 1078.832,673.108001 1079.396,672.856 C1079.96,672.603999 1080.608,672.478 1081.34,672.478 C1082.084,672.478 1082.735,672.603999 1083.293,672.856 C1083.851,673.108001 1084.322,673.452998 1084.706,673.891 C1085.09,674.329002 1085.378,674.844997 1085.57,675.439 C1085.762,676.033003 1085.858,676.671997 1085.858,677.356 C1085.858,678.040003 1085.762,678.675997 1085.57,679.264 C1085.378,679.852003 1085.09,680.364998 1084.706,680.803 C1084.322,681.241002 1083.851,681.582999 1083.293,681.829 C1082.735,682.075001 1082.084,682.198 1081.34,682.198 C1080.608,682.198 1079.96,682.075001 1079.396,681.829 C1078.832,681.582999 1078.358,681.241002 1077.974,680.803 C1077.59,680.364998 1077.302,679.852003 1077.11,679.264 C1076.918,678.675997 1076.822,678.040003 1076.822,677.356 Z M1087.658,672.694 L1089.098,672.694 L1089.098,674.17 L1089.134,674.17 C1089.77,673.041994 1090.77799,672.478 1092.158,672.478 C1092.77,672.478 1093.28,672.561999 1093.688,672.73 C1094.096,672.898001 1094.426,673.131999 1094.678,673.432 C1094.93,673.732002 1095.107,674.088998 1095.209,674.503 C1095.311,674.917002 1095.362,675.375997 1095.362,675.88 L1095.362,682 L1093.832,682 L1093.832,675.7 C1093.832,675.123997 1093.664,674.668002 1093.328,674.332 C1092.992,673.995998 1092.53,673.828 1091.942,673.828 C1091.474,673.828 1091.069,673.899999 1090.727,674.044 C1090.385,674.188001 1090.1,674.391999 1089.872,674.656 C1089.644,674.920001 1089.473,675.228998 1089.359,675.583 C1089.245,675.937002 1089.188,676.323998 1089.188,676.744 L1089.188,682 L1087.658,682 L1087.658,672.694 Z M1099.79,672.694 L1101.644,672.694 L1101.644,674.044 L1099.79,674.044 L1099.79,679.822 C1099.79,680.002001 1099.805,680.145999 1099.835,680.254 C1099.865,680.362001 1099.922,680.446 1100.006,680.506 C1100.09,680.566 1100.207,680.605 1100.357,680.623 C1100.507,680.641 1100.702,680.65 1100.942,680.65 L1101.644,680.65 L1101.644,682 L1100.474,682 C1100.078,682 1099.739,681.973 1099.457,681.919 C1099.175,681.865 1098.947,681.766001 1098.773,681.622 C1098.599,681.477999 1098.47,681.274001 1098.386,681.01 C1098.302,680.745999 1098.26,680.398002 1098.26,679.966 L1098.26,674.044 L1096.676,674.044 L1096.676,672.694 L1098.26,672.694 L1098.26,669.904 L1099.79,669.904 L1099.79,672.694 Z M1103.336,669.148 L1104.866,669.148 L1104.866,674.062 L1104.902,674.062 C1105.022,673.773999 1105.19,673.531001 1105.406,673.333 C1105.622,673.134999 1105.865,672.973001 1106.135,672.847 C1106.405,672.720999 1106.687,672.628 1106.981,672.568 C1107.275,672.508 1107.56,672.478 1107.836,672.478 C1108.448,672.478 1108.958,672.561999 1109.366,672.73 C1109.774,672.898001 1110.104,673.131999 1110.356,673.432 C1110.608,673.732002 1110.785,674.088998 1110.887,674.503 C1110.989,674.917002 1111.04,675.375997 1111.04,675.88 L1111.04,682 L1109.51,682 L1109.51,675.7 C1109.51,675.123997 1109.342,674.668002 1109.006,674.332 C1108.67,673.995998 1108.208,673.828 1107.62,673.828 C1107.152,673.828 1106.747,673.899999 1106.405,674.044 C1106.063,674.188001 1105.778,674.391999 1105.55,674.656 C1105.322,674.920001 1105.151,675.228998 1105.037,675.583 C1104.923,675.937002 1104.866,676.323998 1104.866,676.744 L1104.866,682 L1103.336,682 L1103.336,669.148 Z" id="1month" fill="#190AB2" fill-rule="nonzero" opacity="0.5"></path>
        <path d="M2084.1,672.756 C2084.064,672.107997 2084.13,671.508003 2084.298,670.956 C2084.466,670.403997 2084.727,669.927002 2085.081,669.525 C2085.435,669.122998 2085.876,668.808001 2086.404,668.58 C2086.932,668.351999 2087.532,668.238 2088.204,668.238 C2088.756,668.238 2089.275,668.318999 2089.761,668.481 C2090.247,668.643001 2090.67,668.876998 2091.03,669.183 C2091.39,669.489002 2091.675,669.869998 2091.885,670.326 C2092.095,670.782002 2092.2,671.309997 2092.2,671.91 C2092.2,672.474003 2092.113,672.971998 2091.939,673.404 C2091.765,673.836002 2091.534,674.222998 2091.246,674.565 C2090.958,674.907002 2090.628,675.215999 2090.256,675.492 C2089.884,675.768001 2089.5,676.031999 2089.104,676.284 C2088.708,676.524001 2088.312,676.760999 2087.916,676.995 C2087.52,677.229001 2087.157,677.477999 2086.827,677.742 C2086.497,678.006001 2086.215,678.290998 2085.981,678.597 C2085.747,678.903002 2085.594,679.253998 2085.522,679.65 L2092.074,679.65 L2092.074,681 L2083.74,681 C2083.8,680.243996 2083.935,679.599003 2084.145,679.065 C2084.355,678.530997 2084.622,678.066002 2084.946,677.67 C2085.27,677.273998 2085.636,676.926001 2086.044,676.626 C2086.452,676.325998 2086.878,676.044001 2087.322,675.78 C2087.862,675.443998 2088.336,675.135001 2088.744,674.853 C2089.152,674.570999 2089.491,674.286001 2089.761,673.998 C2090.031,673.709999 2090.235,673.398002 2090.373,673.062 C2090.511,672.725998 2090.58,672.336002 2090.58,671.892 C2090.58,671.543998 2090.514,671.229001 2090.382,670.947 C2090.25,670.664999 2090.073,670.422001 2089.851,670.218 C2089.629,670.013999 2089.368,669.858001 2089.068,669.75 C2088.768,669.641999 2088.45,669.588 2088.114,669.588 C2087.67,669.588 2087.289,669.680999 2086.971,669.867 C2086.653,670.053001 2086.392,670.295998 2086.188,670.596 C2085.984,670.896002 2085.837,671.234998 2085.747,671.613 C2085.657,671.991002 2085.618,672.371998 2085.63,672.756 L2084.1,672.756 Z M2099.472,671.694 L2100.912,671.694 L2100.912,673.062 L2100.948,673.062 C2101.644,672.005995 2102.64599,671.478 2103.954,671.478 C2104.53,671.478 2105.052,671.597999 2105.52,671.838 C2105.988,672.078001 2106.318,672.485997 2106.51,673.062 C2106.822,672.557997 2107.233,672.168001 2107.743,671.892 C2108.253,671.615999 2108.814,671.478 2109.426,671.478 C2109.894,671.478 2110.317,671.528999 2110.695,671.631 C2111.073,671.733001 2111.397,671.891999 2111.667,672.108 C2111.937,672.324001 2112.147,672.602998 2112.297,672.945 C2112.447,673.287002 2112.522,673.697998 2112.522,674.178 L2112.522,681 L2110.992,681 L2110.992,674.898 C2110.992,674.609999 2110.968,674.340001 2110.92,674.088 C2110.872,673.835999 2110.782,673.617001 2110.65,673.431 C2110.518,673.244999 2110.335,673.098001 2110.101,672.99 C2109.867,672.881999 2109.564,672.828 2109.192,672.828 C2108.436,672.828 2107.842,673.043998 2107.41,673.476 C2106.978,673.908002 2106.762,674.483996 2106.762,675.204 L2106.762,681 L2105.232,681 L2105.232,674.898 C2105.232,674.597999 2105.205,674.322001 2105.151,674.07 C2105.097,673.817999 2105.004,673.599001 2104.872,673.413 C2104.74,673.226999 2104.563,673.083001 2104.341,672.981 C2104.119,672.878999 2103.834,672.828 2103.486,672.828 C2103.042,672.828 2102.661,672.917999 2102.343,673.098 C2102.025,673.278001 2101.767,673.493999 2101.569,673.746 C2101.371,673.998001 2101.227,674.258999 2101.137,674.529 C2101.047,674.799001 2101.002,675.023999 2101.002,675.204 L2101.002,681 L2099.472,681 L2099.472,671.694 Z M2115.942,676.356 C2115.942,676.920003 2116.017,677.420998 2116.167,677.859 C2116.317,678.297002 2116.524,678.662999 2116.788,678.957 C2117.052,679.251001 2117.361,679.475999 2117.715,679.632 C2118.069,679.788001 2118.444,679.866 2118.84,679.866 C2119.236,679.866 2119.611,679.788001 2119.965,679.632 C2120.319,679.475999 2120.628,679.251001 2120.892,678.957 C2121.156,678.662999 2121.363,678.297002 2121.513,677.859 C2121.663,677.420998 2121.738,676.920003 2121.738,676.356 C2121.738,675.791997 2121.663,675.291002 2121.513,674.853 C2121.363,674.414998 2121.156,674.046001 2120.892,673.746 C2120.628,673.445998 2120.319,673.218001 2119.965,673.062 C2119.611,672.905999 2119.236,672.828 2118.84,672.828 C2118.444,672.828 2118.069,672.905999 2117.715,673.062 C2117.361,673.218001 2117.052,673.445998 2116.788,673.746 C2116.524,674.046001 2116.317,674.414998 2116.167,674.853 C2116.017,675.291002 2115.942,675.791997 2115.942,676.356 Z M2114.322,676.356 C2114.322,675.671997 2114.418,675.033003 2114.61,674.439 C2114.802,673.844997 2115.09,673.329002 2115.474,672.891 C2115.858,672.452998 2116.332,672.108001 2116.896,671.856 C2117.46,671.603999 2118.108,671.478 2118.84,671.478 C2119.584,671.478 2120.235,671.603999 2120.793,671.856 C2121.351,672.108001 2121.822,672.452998 2122.206,672.891 C2122.59,673.329002 2122.878,673.844997 2123.07,674.439 C2123.262,675.033003 2123.358,675.671997 2123.358,676.356 C2123.358,677.040003 2123.262,677.675997 2123.07,678.264 C2122.878,678.852003 2122.59,679.364998 2122.206,679.803 C2121.822,680.241002 2121.351,680.582999 2120.793,680.829 C2120.235,681.075001 2119.584,681.198 2118.84,681.198 C2118.108,681.198 2117.46,681.075001 2116.896,680.829 C2116.332,680.582999 2115.858,680.241002 2115.474,679.803 C2115.09,679.364998 2114.802,678.852003 2114.61,678.264 C2114.418,677.675997 2114.322,677.040003 2114.322,676.356 Z M2125.158,671.694 L2126.598,671.694 L2126.598,673.17 L2126.634,673.17 C2127.27,672.041994 2128.27799,671.478 2129.658,671.478 C2130.27,671.478 2130.78,671.561999 2131.188,671.73 C2131.596,671.898001 2131.926,672.131999 2132.178,672.432 C2132.43,672.732002 2132.607,673.088998 2132.709,673.503 C2132.811,673.917002 2132.862,674.375997 2132.862,674.88 L2132.862,681 L2131.332,681 L2131.332,674.7 C2131.332,674.123997 2131.164,673.668002 2130.828,673.332 C2130.492,672.995998 2130.03,672.828 2129.442,672.828 C2128.974,672.828 2128.569,672.899999 2128.227,673.044 C2127.885,673.188001 2127.6,673.391999 2127.372,673.656 C2127.144,673.920001 2126.973,674.228998 2126.859,674.583 C2126.745,674.937002 2126.688,675.323998 2126.688,675.744 L2126.688,681 L2125.158,681 L2125.158,671.694 Z M2137.29,671.694 L2139.144,671.694 L2139.144,673.044 L2137.29,673.044 L2137.29,678.822 C2137.29,679.002001 2137.305,679.145999 2137.335,679.254 C2137.365,679.362001 2137.422,679.446 2137.506,679.506 C2137.59,679.566 2137.707,679.605 2137.857,679.623 C2138.007,679.641 2138.202,679.65 2138.442,679.65 L2139.144,679.65 L2139.144,681 L2137.974,681 C2137.578,681 2137.239,680.973 2136.957,680.919 C2136.675,680.865 2136.447,680.766001 2136.273,680.622 C2136.099,680.477999 2135.97,680.274001 2135.886,680.01 C2135.802,679.745999 2135.76,679.398002 2135.76,678.966 L2135.76,673.044 L2134.176,673.044 L2134.176,671.694 L2135.76,671.694 L2135.76,668.904 L2137.29,668.904 L2137.29,671.694 Z M2140.836,668.148 L2142.366,668.148 L2142.366,673.062 L2142.402,673.062 C2142.522,672.773999 2142.69,672.531001 2142.906,672.333 C2143.122,672.134999 2143.365,671.973001 2143.635,671.847 C2143.905,671.720999 2144.187,671.628 2144.481,671.568 C2144.775,671.508 2145.06,671.478 2145.336,671.478 C2145.948,671.478 2146.458,671.561999 2146.866,671.73 C2147.274,671.898001 2147.604,672.131999 2147.856,672.432 C2148.108,672.732002 2148.285,673.088998 2148.387,673.503 C2148.489,673.917002 2148.54,674.375997 2148.54,674.88 L2148.54,681 L2147.01,681 L2147.01,674.7 C2147.01,674.123997 2146.842,673.668002 2146.506,673.332 C2146.17,672.995998 2145.708,672.828 2145.12,672.828 C2144.652,672.828 2144.247,672.899999 2143.905,673.044 C2143.563,673.188001 2143.278,673.391999 2143.05,673.656 C2142.822,673.920001 2142.651,674.228998 2142.537,674.583 C2142.423,674.937002 2142.366,675.323998 2142.366,675.744 L2142.366,681 L2140.836,681 L2140.836,668.148 Z M2151.78,678.066 C2151.792,678.402002 2151.87,678.686999 2152.014,678.921 C2152.158,679.155001 2152.347,679.340999 2152.581,679.479 C2152.815,679.617001 2153.079,679.716 2153.373,679.776 C2153.667,679.836 2153.97,679.866 2154.282,679.866 C2154.522,679.866 2154.774,679.848 2155.038,679.812 C2155.302,679.776 2155.545,679.71 2155.767,679.614 C2155.989,679.518 2156.172,679.377001 2156.316,679.191 C2156.46,679.004999 2156.532,678.768001 2156.532,678.48 C2156.532,678.083998 2156.382,677.784001 2156.082,677.58 C2155.782,677.375999 2155.407,677.211001 2154.957,677.085 C2154.507,676.958999 2154.018,676.845001 2153.49,676.743 C2152.962,676.640999 2152.473,676.497001 2152.023,676.311 C2151.573,676.124999 2151.198,675.864002 2150.898,675.528 C2150.598,675.191998 2150.448,674.724003 2150.448,674.124 C2150.448,673.655998 2150.553,673.254002 2150.763,672.918 C2150.973,672.581998 2151.243,672.309001 2151.573,672.099 C2151.903,671.888999 2152.275,671.733001 2152.689,671.631 C2153.103,671.528999 2153.514,671.478 2153.922,671.478 C2154.45,671.478 2154.936,671.523 2155.38,671.613 C2155.824,671.703 2156.217,671.858999 2156.559,672.081 C2156.901,672.303001 2157.174,672.602998 2157.378,672.981 C2157.582,673.359002 2157.702,673.829997 2157.738,674.394 L2156.208,674.394 C2156.184,674.093998 2156.106,673.845001 2155.974,673.647 C2155.842,673.448999 2155.674,673.290001 2155.47,673.17 C2155.266,673.049999 2155.041,672.963 2154.795,672.909 C2154.549,672.855 2154.3,672.828 2154.048,672.828 C2153.82,672.828 2153.589,672.846 2153.355,672.882 C2153.121,672.918 2152.908,672.981 2152.716,673.071 C2152.524,673.161 2152.368,673.280999 2152.248,673.431 C2152.128,673.581001 2152.068,673.775999 2152.068,674.016 C2152.068,674.280001 2152.161,674.498999 2152.347,674.673 C2152.533,674.847001 2152.77,674.990999 2153.058,675.105 C2153.346,675.219001 2153.67,675.315 2154.03,675.393 C2154.39,675.471 2154.75,675.552 2155.11,675.636 C2155.494,675.72 2155.869,675.821999 2156.235,675.942 C2156.601,676.062001 2156.925,676.220999 2157.207,676.419 C2157.489,676.617001 2157.717,676.865999 2157.891,677.166 C2158.065,677.466001 2158.152,677.837998 2158.152,678.282 C2158.152,678.846003 2158.035,679.313998 2157.801,679.686 C2157.567,680.058002 2157.261,680.357999 2156.883,680.586 C2156.505,680.814001 2156.079,680.973 2155.605,681.063 C2155.131,681.153 2154.66,681.198 2154.192,681.198 C2153.676,681.198 2153.184,681.144001 2152.716,681.036 C2152.248,680.927999 2151.834,680.751001 2151.474,680.505 C2151.114,680.258999 2150.826,679.935002 2150.61,679.533 C2150.394,679.130998 2150.274,678.642003 2150.25,678.066 L2151.78,678.066 Z" id="2months" fill="#190AB2" fill-rule="nonzero" opacity="0.5"></path>
        <path d="M2897.232,674.71 C2897.292,674.722 2897.346,674.728 2897.394,674.728 L2897.898,674.728 C2898.222,674.728 2898.531,674.683 2898.825,674.593 C2899.119,674.503 2899.377,674.371001 2899.599,674.197 C2899.821,674.022999 2899.998,673.804001 2900.13,673.54 C2900.262,673.275999 2900.328,672.976002 2900.328,672.64 C2900.328,671.955997 2900.112,671.443002 2899.68,671.101 C2899.248,670.758998 2898.708,670.588 2898.06,670.588 C2897.652,670.588 2897.295,670.662999 2896.989,670.813 C2896.683,670.963001 2896.431,671.163999 2896.233,671.416 C2896.035,671.668001 2895.888,671.961998 2895.792,672.298 C2895.696,672.634002 2895.648,672.987998 2895.648,673.36 L2894.118,673.36 C2894.142,672.747997 2894.241,672.190003 2894.415,671.686 C2894.589,671.181997 2894.838,670.750002 2895.162,670.39 C2895.486,670.029998 2895.891,669.748001 2896.377,669.544 C2896.863,669.339999 2897.424,669.238 2898.06,669.238 C2898.612,669.238 2899.125,669.306999 2899.599,669.445 C2900.073,669.583001 2900.484,669.789999 2900.832,670.066 C2901.18,670.342001 2901.453,670.695998 2901.651,671.128 C2901.849,671.560002 2901.948,672.069997 2901.948,672.658 C2901.948,673.234003 2901.78,673.743998 2901.444,674.188 C2901.108,674.632002 2900.688,674.967999 2900.184,675.196 L2900.184,675.232 C2900.964,675.400001 2901.543,675.765997 2901.921,676.33 C2902.299,676.894003 2902.488,677.559996 2902.488,678.328 C2902.488,678.964003 2902.371,679.524998 2902.137,680.011 C2901.903,680.497002 2901.588,680.901998 2901.192,681.226 C2900.796,681.550002 2900.331,681.792999 2899.797,681.955 C2899.263,682.117001 2898.696,682.198 2898.096,682.198 C2897.448,682.198 2896.86,682.108001 2896.332,681.928 C2895.804,681.747999 2895.354,681.481002 2894.982,681.127 C2894.61,680.772998 2894.325,680.338003 2894.127,679.822 C2893.929,679.305997 2893.836,678.718003 2893.848,678.058 L2895.378,678.058 C2895.402,678.886004 2895.642,679.560997 2896.098,680.083 C2896.554,680.605003 2897.22,680.866 2898.096,680.866 C2898.468,680.866 2898.822,680.809001 2899.158,680.695 C2899.494,680.580999 2899.788,680.419001 2900.04,680.209 C2900.292,679.998999 2900.493,679.741002 2900.643,679.435 C2900.793,679.128998 2900.868,678.784002 2900.868,678.4 C2900.868,678.003998 2900.796,677.653002 2900.652,677.347 C2900.508,677.040998 2900.316,676.783001 2900.076,676.573 C2899.836,676.362999 2899.551,676.207001 2899.221,676.105 C2898.891,676.002999 2898.534,675.952 2898.15,675.952 C2897.826,675.952 2897.52,675.97 2897.232,676.006 L2897.232,674.71 Z M2909.472,672.694 L2910.912,672.694 L2910.912,674.062 L2910.948,674.062 C2911.644,673.005995 2912.64599,672.478 2913.954,672.478 C2914.53,672.478 2915.052,672.597999 2915.52,672.838 C2915.988,673.078001 2916.318,673.485997 2916.51,674.062 C2916.822,673.557997 2917.233,673.168001 2917.743,672.892 C2918.253,672.615999 2918.814,672.478 2919.426,672.478 C2919.894,672.478 2920.317,672.528999 2920.695,672.631 C2921.073,672.733001 2921.397,672.891999 2921.667,673.108 C2921.937,673.324001 2922.147,673.602998 2922.297,673.945 C2922.447,674.287002 2922.522,674.697998 2922.522,675.178 L2922.522,682 L2920.992,682 L2920.992,675.898 C2920.992,675.609999 2920.968,675.340001 2920.92,675.088 C2920.872,674.835999 2920.782,674.617001 2920.65,674.431 C2920.518,674.244999 2920.335,674.098001 2920.101,673.99 C2919.867,673.881999 2919.564,673.828 2919.192,673.828 C2918.436,673.828 2917.842,674.043998 2917.41,674.476 C2916.978,674.908002 2916.762,675.483996 2916.762,676.204 L2916.762,682 L2915.232,682 L2915.232,675.898 C2915.232,675.597999 2915.205,675.322001 2915.151,675.07 C2915.097,674.817999 2915.004,674.599001 2914.872,674.413 C2914.74,674.226999 2914.563,674.083001 2914.341,673.981 C2914.119,673.878999 2913.834,673.828 2913.486,673.828 C2913.042,673.828 2912.661,673.917999 2912.343,674.098 C2912.025,674.278001 2911.767,674.493999 2911.569,674.746 C2911.371,674.998001 2911.227,675.258999 2911.137,675.529 C2911.047,675.799001 2911.002,676.023999 2911.002,676.204 L2911.002,682 L2909.472,682 L2909.472,672.694 Z M2925.942,677.356 C2925.942,677.920003 2926.017,678.420998 2926.167,678.859 C2926.317,679.297002 2926.524,679.662999 2926.788,679.957 C2927.052,680.251001 2927.361,680.475999 2927.715,680.632 C2928.069,680.788001 2928.444,680.866 2928.84,680.866 C2929.236,680.866 2929.611,680.788001 2929.965,680.632 C2930.319,680.475999 2930.628,680.251001 2930.892,679.957 C2931.156,679.662999 2931.363,679.297002 2931.513,678.859 C2931.663,678.420998 2931.738,677.920003 2931.738,677.356 C2931.738,676.791997 2931.663,676.291002 2931.513,675.853 C2931.363,675.414998 2931.156,675.046001 2930.892,674.746 C2930.628,674.445998 2930.319,674.218001 2929.965,674.062 C2929.611,673.905999 2929.236,673.828 2928.84,673.828 C2928.444,673.828 2928.069,673.905999 2927.715,674.062 C2927.361,674.218001 2927.052,674.445998 2926.788,674.746 C2926.524,675.046001 2926.317,675.414998 2926.167,675.853 C2926.017,676.291002 2925.942,676.791997 2925.942,677.356 Z M2924.322,677.356 C2924.322,676.671997 2924.418,676.033003 2924.61,675.439 C2924.802,674.844997 2925.09,674.329002 2925.474,673.891 C2925.858,673.452998 2926.332,673.108001 2926.896,672.856 C2927.46,672.603999 2928.108,672.478 2928.84,672.478 C2929.584,672.478 2930.235,672.603999 2930.793,672.856 C2931.351,673.108001 2931.822,673.452998 2932.206,673.891 C2932.59,674.329002 2932.878,674.844997 2933.07,675.439 C2933.262,676.033003 2933.358,676.671997 2933.358,677.356 C2933.358,678.040003 2933.262,678.675997 2933.07,679.264 C2932.878,679.852003 2932.59,680.364998 2932.206,680.803 C2931.822,681.241002 2931.351,681.582999 2930.793,681.829 C2930.235,682.075001 2929.584,682.198 2928.84,682.198 C2928.108,682.198 2927.46,682.075001 2926.896,681.829 C2926.332,681.582999 2925.858,681.241002 2925.474,680.803 C2925.09,680.364998 2924.802,679.852003 2924.61,679.264 C2924.418,678.675997 2924.322,678.040003 2924.322,677.356 Z M2935.158,672.694 L2936.598,672.694 L2936.598,674.17 L2936.634,674.17 C2937.27,673.041994 2938.27799,672.478 2939.658,672.478 C2940.27,672.478 2940.78,672.561999 2941.188,672.73 C2941.596,672.898001 2941.926,673.131999 2942.178,673.432 C2942.43,673.732002 2942.607,674.088998 2942.709,674.503 C2942.811,674.917002 2942.862,675.375997 2942.862,675.88 L2942.862,682 L2941.332,682 L2941.332,675.7 C2941.332,675.123997 2941.164,674.668002 2940.828,674.332 C2940.492,673.995998 2940.03,673.828 2939.442,673.828 C2938.974,673.828 2938.569,673.899999 2938.227,674.044 C2937.885,674.188001 2937.6,674.391999 2937.372,674.656 C2937.144,674.920001 2936.973,675.228998 2936.859,675.583 C2936.745,675.937002 2936.688,676.323998 2936.688,676.744 L2936.688,682 L2935.158,682 L2935.158,672.694 Z M2947.29,672.694 L2949.144,672.694 L2949.144,674.044 L2947.29,674.044 L2947.29,679.822 C2947.29,680.002001 2947.305,680.145999 2947.335,680.254 C2947.365,680.362001 2947.422,680.446 2947.506,680.506 C2947.59,680.566 2947.707,680.605 2947.857,680.623 C2948.007,680.641 2948.202,680.65 2948.442,680.65 L2949.144,680.65 L2949.144,682 L2947.974,682 C2947.578,682 2947.239,681.973 2946.957,681.919 C2946.675,681.865 2946.447,681.766001 2946.273,681.622 C2946.099,681.477999 2945.97,681.274001 2945.886,681.01 C2945.802,680.745999 2945.76,680.398002 2945.76,679.966 L2945.76,674.044 L2944.176,674.044 L2944.176,672.694 L2945.76,672.694 L2945.76,669.904 L2947.29,669.904 L2947.29,672.694 Z M2950.836,669.148 L2952.366,669.148 L2952.366,674.062 L2952.402,674.062 C2952.522,673.773999 2952.69,673.531001 2952.906,673.333 C2953.122,673.134999 2953.365,672.973001 2953.635,672.847 C2953.905,672.720999 2954.187,672.628 2954.481,672.568 C2954.775,672.508 2955.06,672.478 2955.336,672.478 C2955.948,672.478 2956.458,672.561999 2956.866,672.73 C2957.274,672.898001 2957.604,673.131999 2957.856,673.432 C2958.108,673.732002 2958.285,674.088998 2958.387,674.503 C2958.489,674.917002 2958.54,675.375997 2958.54,675.88 L2958.54,682 L2957.01,682 L2957.01,675.7 C2957.01,675.123997 2956.842,674.668002 2956.506,674.332 C2956.17,673.995998 2955.708,673.828 2955.12,673.828 C2954.652,673.828 2954.247,673.899999 2953.905,674.044 C2953.563,674.188001 2953.278,674.391999 2953.05,674.656 C2952.822,674.920001 2952.651,675.228998 2952.537,675.583 C2952.423,675.937002 2952.366,676.323998 2952.366,676.744 L2952.366,682 L2950.836,682 L2950.836,669.148 Z M2961.78,679.066 C2961.792,679.402002 2961.87,679.686999 2962.014,679.921 C2962.158,680.155001 2962.347,680.340999 2962.581,680.479 C2962.815,680.617001 2963.079,680.716 2963.373,680.776 C2963.667,680.836 2963.97,680.866 2964.282,680.866 C2964.522,680.866 2964.774,680.848 2965.038,680.812 C2965.302,680.776 2965.545,680.71 2965.767,680.614 C2965.989,680.518 2966.172,680.377001 2966.316,680.191 C2966.46,680.004999 2966.532,679.768001 2966.532,679.48 C2966.532,679.083998 2966.382,678.784001 2966.082,678.58 C2965.782,678.375999 2965.407,678.211001 2964.957,678.085 C2964.507,677.958999 2964.018,677.845001 2963.49,677.743 C2962.962,677.640999 2962.473,677.497001 2962.023,677.311 C2961.573,677.124999 2961.198,676.864002 2960.898,676.528 C2960.598,676.191998 2960.448,675.724003 2960.448,675.124 C2960.448,674.655998 2960.553,674.254002 2960.763,673.918 C2960.973,673.581998 2961.243,673.309001 2961.573,673.099 C2961.903,672.888999 2962.275,672.733001 2962.689,672.631 C2963.103,672.528999 2963.514,672.478 2963.922,672.478 C2964.45,672.478 2964.936,672.523 2965.38,672.613 C2965.824,672.703 2966.217,672.858999 2966.559,673.081 C2966.901,673.303001 2967.174,673.602998 2967.378,673.981 C2967.582,674.359002 2967.702,674.829997 2967.738,675.394 L2966.208,675.394 C2966.184,675.093998 2966.106,674.845001 2965.974,674.647 C2965.842,674.448999 2965.674,674.290001 2965.47,674.17 C2965.266,674.049999 2965.041,673.963 2964.795,673.909 C2964.549,673.855 2964.3,673.828 2964.048,673.828 C2963.82,673.828 2963.589,673.846 2963.355,673.882 C2963.121,673.918 2962.908,673.981 2962.716,674.071 C2962.524,674.161 2962.368,674.280999 2962.248,674.431 C2962.128,674.581001 2962.068,674.775999 2962.068,675.016 C2962.068,675.280001 2962.161,675.498999 2962.347,675.673 C2962.533,675.847001 2962.77,675.990999 2963.058,676.105 C2963.346,676.219001 2963.67,676.315 2964.03,676.393 C2964.39,676.471 2964.75,676.552 2965.11,676.636 C2965.494,676.72 2965.869,676.821999 2966.235,676.942 C2966.601,677.062001 2966.925,677.220999 2967.207,677.419 C2967.489,677.617001 2967.717,677.865999 2967.891,678.166 C2968.065,678.466001 2968.152,678.837998 2968.152,679.282 C2968.152,679.846003 2968.035,680.313998 2967.801,680.686 C2967.567,681.058002 2967.261,681.357999 2966.883,681.586 C2966.505,681.814001 2966.079,681.973 2965.605,682.063 C2965.131,682.153 2964.66,682.198 2964.192,682.198 C2963.676,682.198 2963.184,682.144001 2962.716,682.036 C2962.248,681.927999 2961.834,681.751001 2961.474,681.505 C2961.114,681.258999 2960.826,680.935002 2960.61,680.533 C2960.394,680.130998 2960.274,679.642003 2960.25,679.066 L2961.78,679.066 Z" id="3months" fill="#190AB2" fill-rule="nonzero" opacity="0.5"></path>
    </g>
</svg>