<?xml version="1.0" encoding="UTF-8"?>
<svg width="135px" height="131px" viewBox="0 0 135 131" version="1.1" xmlns="http://www.w3.org/2000/svg" xmlns:xlink="http://www.w3.org/1999/xlink">
    <!-- Generator: Sketch 54.1 (76490) - https://sketchapp.com -->
    <title>Hearts 1</title>
    <desc>Created with Sketch.</desc>
    <g id="Hearts-1" stroke="none" stroke-width="1" fill="none" fill-rule="evenodd">
        <g transform="translate(67.500000, 65.500000) rotate(10.000000) translate(-67.500000, -65.500000) translate(9.000000, 10.000000)" fill="#71C0F6">
            <path d="M9.09435591,100.5 C7.22757789,100.5 6.63668571,101.137034 6,101.863086 C5.36331429,101.137034 4.80584545,100.5 2.93906743,100.5 C1.07228941,100.5 4.54747351e-13,101.691176 4.54747351e-13,103.440219 C4.54747351e-13,104.809792 0.871621978,106.393921 2.59068132,108.148597 C3.91363516,109.498971 5.35276484,110.544472 5.76229451,110.832738 L5.99992088,111 L6.23752088,110.832763 C6.6471033,110.544472 8.08628571,109.498946 9.40921319,108.148647 C11.1283516,106.39397 12,104.809816 12,103.440219 C12,101.691176 10.9611339,100.5 9.09435591,100.5 Z" id="Path-Copy-7"></path>
            <path d="M111.565258,2.62845898 C109.69848,2.62845898 109.107587,3.26549297 108.470902,3.99154488 C107.834216,3.26549297 107.276747,2.62845898 105.409969,2.62845898 C103.543191,2.62845898 102.470902,3.81963483 102.470902,5.56867789 C102.470902,6.93825055 103.342524,8.52237953 105.061583,10.2770565 C106.384537,11.6274295 107.823666,12.6729314 108.233196,12.9611975 L108.470822,13.128459 L108.708422,12.9612222 C109.118005,12.6729314 110.557187,11.6274048 111.880115,10.2771059 C113.599253,8.52242895 114.470902,6.93827526 114.470902,5.56867789 C114.470902,3.81963483 113.432036,2.62845898 111.565258,2.62845898 Z" id="Path-Copy-3" transform="translate(108.470902, 7.878459) rotate(40.000000) translate(-108.470902, -7.878459) "></path>
            <path d="M111.415508,47.2966334 C109.54873,47.2966334 108.957838,47.9336674 108.321152,48.6597193 C107.684467,47.9336674 107.126998,47.2966334 105.26022,47.2966334 C103.393442,47.2966334 102.321152,48.4878092 102.321152,50.2368523 C102.321152,51.6064249 103.192774,53.1905539 104.911834,54.9452308 C106.234788,56.2956039 107.673917,57.3411058 108.083447,57.6293718 L108.321073,57.7966334 L108.558673,57.6293966 C108.968256,57.3411058 110.407438,56.2955792 111.730366,54.9452803 C113.449504,53.1906033 114.321152,51.6064496 114.321152,50.2368523 C114.321152,48.4878092 113.282286,47.2966334 111.415508,47.2966334 Z" id="Path-Copy-4" transform="translate(108.321152, 52.546633) rotate(-30.000000) translate(-108.321152, -52.546633) "></path>
        </g>
    </g>
</svg>