<?xml version="1.0" encoding="UTF-8"?>
<svg width="67px" height="66px" viewBox="0 0 67 66" version="1.1" xmlns="http://www.w3.org/2000/svg" xmlns:xlink="http://www.w3.org/1999/xlink">
    <!-- Generator: Sketch 54.1 (76490) - https://sketchapp.com -->
    <title>Hearts 3</title>
    <desc>Created with Sketch.</desc>
    <g id="Hearts-3" stroke="none" stroke-width="1" fill="none" fill-rule="evenodd">
        <g fill="#71C0F6">
            <path d="M10.9791836,52.1517053 C9.1205202,52.1448963 8.53452008,52.7778254 7.90325016,53.4993329 C7.2666838,52.7731808 6.70931465,52.1360632 4.85065122,52.1292543 C2.9919878,52.1224453 1.9287042,53.3060644 1.93508373,55.0497544 C1.94007916,56.4151354 2.81369034,57.9975952 4.53167727,59.753172 C5.85380584,61.1042375 7.29049323,62.1517887 7.69929417,62.4406663 L7.9364977,62.6082826 L8.1724549,62.4424243 C8.57920541,62.1565098 10.0083184,61.1194324 11.3205702,59.7780914 C13.0258358,58.0350553 13.8879171,56.4589292 13.8829216,55.0935236 C13.8765421,53.3498336 12.8378471,52.1585142 10.9791836,52.1517053 Z" id="Path-Copy-5" transform="translate(7.908999, 57.368754) rotate(40.000000) translate(-7.908999, -57.368754) "></path>
            <path d="M61.4759648,2.29339096 C59.6195577,2.29937865 59.029905,2.93712823 58.3944276,3.66387777 C57.7636079,2.94121257 57.2112794,2.30714636 55.3548723,2.31313405 C53.4984653,2.31912175 52.4283124,3.51153108 52.4227023,5.25733518 C52.4183094,6.62437158 53.2800079,8.20277127 54.9838888,9.94868491 C56.2951616,11.2923139 57.7229426,12.3312637 58.1292725,12.6176823 L58.3650423,12.7838719 L58.6018587,12.6161827 C59.0100903,12.3271121 60.4446308,11.2789054 61.7645398,9.92686379 C63.4797556,8.16992212 64.3516426,6.58590623 64.3560356,5.21884516 C64.3616457,3.47304106 63.3323718,2.28740326 61.4759648,2.29339096 Z" id="Path-Copy-4" transform="translate(58.389372, 7.538620) rotate(-30.000000) translate(-58.389372, -7.538620) "></path>
        </g>
    </g>
</svg>