<?xml version="1.0" encoding="UTF-8"?>
<svg width="87px" height="182px" viewBox="0 0 87 182" version="1.1" xmlns="http://www.w3.org/2000/svg" xmlns:xlink="http://www.w3.org/1999/xlink">
    <!-- Generator: Sketch 54.1 (76490) - https://sketchapp.com -->
    <title>Hearts 4</title>
    <desc>Created with Sketch.</desc>
    <g id="Hearts-4" stroke="none" stroke-width="1" fill="none" fill-rule="evenodd">
        <g fill="#71C0F6">
            <path d="M10.1048399,88 C8.0306421,88 7.37409524,88.7051445 6.66666667,89.5088246 C5.9592381,88.7051445 5.33982828,88 3.26563048,88 C1.19143267,88 -1.5187851e-13,89.3185343 -1.5187851e-13,91.2545819 C-1.5187851e-13,92.7705869 0.968468864,94.5240882 2.8785348,96.4663721 C4.34848352,97.9611246 5.94751648,99.1184097 6.40254945,99.4374967 L6.66657875,99.6226415 L6.93057875,99.437524 C7.38567033,99.1184097 8.9847619,97.9610972 10.4546813,96.4664268 C12.3648352,94.5241429 13.3333333,92.7706142 13.3333333,91.2545819 C13.3333333,89.3185343 12.1790377,88 10.1048399,88 Z" id="Path-Copy-2"></path>
            <path d="M19.281235,2.91611556 C17.2102712,2.91996968 16.5534328,3.62743776 15.8456082,4.43369016 C15.1407816,3.63006675 14.5236528,2.92496956 12.452689,2.92882369 C10.3817252,2.93267781 9.18969082,4.25548949 9.18607977,6.1945672 C9.18325217,7.71294479 10.1469405,9.46739085 12.0504056,11.4091654 C13.5152745,12.903526 15.1096558,14.0596511 15.5633842,14.3783919 L15.8266565,14.5633359 L16.0905901,14.3774382 C16.5455674,14.0569788 18.1443243,12.8948838 19.6147397,11.3951427 C21.525538,9.44626973 22.4957967,7.68819714 22.4986244,6.16979216 C22.5022354,4.23071446 21.3521988,2.91226144 19.281235,2.91611556 Z" id="Path-Copy-3" transform="translate(15.842353, 8.739722) rotate(40.000000) translate(-15.842353, -8.739722) "></path>
            <path d="M81.107456,167.561694 C79.035215,167.558305 78.3804441,168.263044 77.6750011,169.066329 C76.9669217,168.260732 76.3469397,167.553908 74.2746986,167.550519 C72.2024576,167.547129 71.0143116,168.864965 71.0174871,170.802847 C71.0199737,172.320287 71.990405,174.077031 73.9018547,176.024276 C75.3728684,177.522846 76.972291,178.683839 77.427418,179.003972 L77.6915019,179.189724 L77.9549492,179.004862 C78.4090881,178.686189 80.0047728,177.530394 81.470854,176.03671 C83.3760201,174.095708 84.3407284,172.342101 84.3382418,170.824633 C84.3350663,168.886752 83.179697,167.565083 81.107456,167.561694 Z" id="Path-Copy-4" transform="translate(77.677864, 173.370118) rotate(-30.000000) translate(-77.677864, -173.370118) "></path>
        </g>
    </g>
</svg>