<?xml version="1.0" encoding="UTF-8"?>
<svg width="156px" height="156px" viewBox="0 0 156 156" version="1.1" xmlns="http://www.w3.org/2000/svg" xmlns:xlink="http://www.w3.org/1999/xlink">
    <!-- Generator: Sketch 56.3 (81716) - https://sketch.com -->
    <title>personalized-engagement copy 4</title>
    <desc>Created with Sketch.</desc>
    <defs>
        <linearGradient x1="50%" y1="0%" x2="50%" y2="100%" id="linearGradient-1">
            <stop stop-color="#33CFFF" offset="0%"></stop>
            <stop stop-color="#17A2FF" offset="100%"></stop>
        </linearGradient>
        <linearGradient x1="10.5678984%" y1="12.1247489%" x2="59.6114475%" y2="88.4043653%" id="linearGradient-2">
            <stop stop-color="#FF9B9C" offset="0%"></stop>
            <stop stop-color="#F16162" offset="100%"></stop>
        </linearGradient>
        <linearGradient x1="10.2277075%" y1="11.5956347%" x2="59.6114475%" y2="88.4043653%" id="linearGradient-3">
            <stop stop-color="#7CF6E7" offset="0%"></stop>
            <stop stop-color="#3EC8B7" offset="100%"></stop>
        </linearGradient>
    </defs>
    <g id="personalized-engagement-copy-4" stroke="none" stroke-width="1" fill="none" fill-rule="evenodd">
        <g id="Group-2" transform="translate(35.450759, 12.438433)">
            <rect id="Rectangle" stroke="#073863" stroke-width="6" x="3" y="3" width="81.553845" height="81.553845" rx="22"></rect>
            <circle id="Oval" stroke="#073863" stroke-width="6" cx="43.8551683" cy="43.4248133" r="17.460854"></circle>
            <circle id="Oval" fill="#073863" cx="66.7319023" cy="20.5480793" r="5.41587998"></circle>
        </g>
        <g id="Group-Copy" transform="translate(6.000000, 105.000000)" stroke="#073863" stroke-width="4">
            <path d="M0.0614880696,7.33511568 L0.0614880696,34.6171838 C0.0614880696,35.7217533 0.95691857,36.6171838 2.06148807,36.6171838 C2.20286022,36.6171838 2.34383393,36.6021943 2.48204521,36.5724668 L24.0538547,31.9326379 C25.9122844,31.5329127 27.8495586,31.7318902 29.5879328,32.5010433 L62.0944016,46.8837059 C66.7694293,48.9521971 72.103483,48.93523 76.7652569,46.8370392 L124.653756,25.283182 C128.682752,23.4697946 130.478857,18.7336074 128.66547,14.7046116 C127.457685,12.0211466 124.874174,10.2174035 121.938873,10.0082682 C121.63759,9.9868023 121.328773,9.97606934 121.012422,9.97606934 C114.784507,9.97606934 103.601184,13.0313101 87.4624539,19.1417916 C87.9700521,13.0158027 84.4363926,10.8654962 76.8614753,12.6908721 C65.4990994,15.428936 61.3720951,-1.54558759 39.6164237,0.280684666 C26.1543497,1.41075378 13.8284402,2.77221093 2.63869517,4.36505613 C1.16008743,4.57554295 0.0614880696,5.84160118 0.0614880696,7.33511568 Z" id="Path-7" fill="url(#linearGradient-1)"></path>
            <path d="M87.6582068,18.9646209 L77.6327531,23.4450162 C74.4010888,24.8892534 70.7627948,25.1441043 67.3613478,24.1644954 L49.306083,18.9646209" id="Path-8" stroke-linecap="round"></path>
        </g>
        <path d="M131.119391,19.748944 L136.507554,14.1216573 L136.630771,14.0125541 C136.795145,13.889572 136.950878,13.751642 137.096773,13.5992731 C138.558111,12.0730814 138.558111,9.58139496 137.096773,8.05520321 C135.658884,6.5535018 133.34634,6.5535018 131.908451,8.05520321 C131.899597,8.06447122 131.899597,8.06447122 131.890791,8.07376922 L131.169926,8.83658752 L130.442828,8.07970801 L130.401589,8.03676283 C128.961969,6.55288826 126.662405,6.5603164 125.231041,8.05520321 C123.776346,9.57445719 123.768989,12.0522855 125.208783,13.5760273 L131.119391,19.748944 Z" id="Combined-Shape-Copy-11" stroke="#073863" stroke-width="2" fill="url(#linearGradient-2)" transform="translate(131.163902, 13.263541) rotate(16.000000) translate(-131.163902, -13.263541) "></path>
        <path d="M20.4960776,87.3051812 L25.884241,81.6778945 L26.0074582,81.5687913 C26.1718323,81.4458091 26.3275652,81.3078791 26.4734594,81.1555102 C27.9347979,79.6293185 27.9347979,77.1376321 26.4734594,75.6114403 C25.0355706,74.1097389 22.723027,74.1097389 21.2851382,75.6114403 C21.2762834,75.6207084 21.2762834,75.6207084 21.2674775,75.6300064 L20.5466125,76.3928247 L19.8195145,75.6359451 L19.778276,75.593 C18.3386563,74.1091254 16.0390917,74.1165535 14.6077279,75.6114403 C13.1530324,77.1306943 13.1456761,79.6085227 14.5854699,81.1322644 L20.4960776,87.3051812 Z" id="Combined-Shape-Copy-12" stroke="#073863" stroke-width="2" fill="url(#linearGradient-3)" transform="translate(20.540589, 80.819778) rotate(-387.000000) translate(-20.540589, -80.819778) "></path>
    </g>
</svg>