<?xml version="1.0" encoding="UTF-8"?>
<svg width="128px" height="128px" viewBox="0 0 128 128" version="1.1" xmlns="http://www.w3.org/2000/svg" xmlns:xlink="http://www.w3.org/1999/xlink">
    <!-- Generator: Sketch 56.3 (81716) - https://sketch.com -->
    <title>personalized-engagement copy 4</title>
    <desc>Created with Sketch.</desc>
    <defs>
        <linearGradient x1="50%" y1="0%" x2="50%" y2="100%" id="linearGradient-1">
            <stop stop-color="#33CFFF" offset="0%"></stop>
            <stop stop-color="#17A2FF" offset="100%"></stop>
        </linearGradient>
        <linearGradient x1="50%" y1="0%" x2="50%" y2="117.005991%" id="linearGradient-2">
            <stop stop-color="#FD8C8D" offset="0%"></stop>
            <stop stop-color="#F16162" offset="100%"></stop>
        </linearGradient>
        <linearGradient x1="11.2183019%" y1="10.0762264%" x2="59.5254222%" y2="91.4474812%" id="linearGradient-3">
            <stop stop-color="#5ACEF9" offset="0%"></stop>
            <stop stop-color="#19ADE4" offset="100%"></stop>
        </linearGradient>
        <linearGradient x1="10.5678984%" y1="12.1247489%" x2="59.6114475%" y2="88.4043653%" id="linearGradient-4">
            <stop stop-color="#FF9B9C" offset="0%"></stop>
            <stop stop-color="#F16162" offset="100%"></stop>
        </linearGradient>
        <linearGradient x1="10.2277075%" y1="11.5956347%" x2="59.6114475%" y2="88.4043653%" id="linearGradient-5">
            <stop stop-color="#7CF6E7" offset="0%"></stop>
            <stop stop-color="#3EC8B7" offset="100%"></stop>
        </linearGradient>
    </defs>
    <g id="personalized-engagement-copy-4" stroke="none" stroke-width="1" fill="none" fill-rule="evenodd">
        <g id="Group" transform="translate(2.898235, 87.897827)" stroke="#073863" stroke-width="2">
            <path d="M0,5.92723868 L0,24.2827383 C5.7935996e-16,25.3873078 0.8954305,26.2827383 2,26.2827383 C2.14137215,26.2827383 2.28234586,26.2677488 2.42055714,26.2380213 L16.5861317,23.1911818 C18.4445614,22.7914566 20.3818356,22.9904341 22.1202097,23.7595871 L42.8969143,32.9523522 C47.5719421,35.0208435 52.9059958,35.0038763 57.5677697,32.9056856 L89.9926634,18.311753 C92.940481,16.9849746 94.2546049,13.5197344 92.9278367,10.5719122 C91.9825569,8.47168358 89.8934856,7.12102381 87.5903324,7.12102381 C87.5903324,7.12102381 87.5903324,7.12102381 87.5903324,7.12102381 C83.0801966,7.12102381 74.98145,9.33357022 63.2940929,13.758663 C63.6616857,9.32234004 61.1026777,7.76512956 55.6170687,9.08703158 C47.3886553,11.0698846 44.3999585,-1.2227378 28.6449211,0.099813324 C19.1825595,0.894127969 10.4953187,1.84630152 2.58319879,2.95633399 C1.101891,3.16415188 -1.83184445e-16,4.43142417 0,5.92723868 Z" id="Path-7" fill="url(#linearGradient-1)"></path>
            <path d="M63.4358533,13.6303594 L57.5558814,16.2581306 C54.3242171,17.7023678 50.6859231,17.9572188 47.2844761,16.9776099 L35.6619854,13.6303594" id="Path-8" stroke-linecap="round"></path>
        </g>
        <path d="M94.2423829,32.2482816 C90.9092182,30.2595295 88.6767419,26.6175669 88.6767419,22.4541816 C88.6767419,16.1599136 93.7792541,11.0574013 100.073522,11.0574013 L113.404519,11.0574013 C119.698787,11.0574013 124.801299,16.1599136 124.801299,22.4541816 C124.801299,28.7484494 119.698787,33.8509616 113.404519,33.8509616 L100.073522,33.8509616 C99.6953625,33.8509616 99.3215049,33.8325435 98.9527971,33.7965555 C95.109793,37.8104195 88.9151637,42.0154154 94.2423829,32.2482816 Z" id="Path-2-Copy" stroke="#073863" stroke-width="2" fill="url(#linearGradient-2)" fill-rule="nonzero"></path>
        <g id="Group-2" transform="translate(40.382615, 36.803411)">
            <rect id="Rectangle" stroke="#073863" stroke-width="4" x="2" y="2" width="51.6399127" height="51.6399127" rx="15"></rect>
            <circle id="Oval" stroke="#073863" stroke-width="4" cx="27.8696811" cy="27.5961932" r="11.0962619"></circle>
            <circle id="Oval" fill="#073863" cx="42.4077003" cy="13.058174" r="3.44175735"></circle>
        </g>
        <path d="M106.694467,29.5105666 L112.088447,23.8772048 L112.211664,23.7681016 C112.376237,23.6449711 112.532157,23.506875 112.678226,23.3543233 C114.141308,21.8263106 114.141308,19.3316717 112.678226,17.803659 C111.238594,16.3001365 108.923223,16.3001365 107.483591,17.803659 C107.474726,17.8129381 107.474726,17.8129381 107.465909,17.8222472 L106.745044,18.5850655 L106.017946,17.828186 L105.976665,17.7851965 C104.535299,16.2995222 102.232924,16.3069594 100.799824,17.803659 C99.3433928,19.3247257 99.3360278,21.8054899 100.777545,23.3310554 L106.694467,29.5105666 Z" id="Combined-Shape-Copy-9" stroke="#073863" stroke-width="2" fill="url(#linearGradient-3)"></path>
        <path d="M42.2988431,37.4494548 L47.6928234,31.816093 L47.8160406,31.7069898 C47.9806131,31.5838593 48.1365335,31.4457632 48.2826027,31.2932115 C49.7456848,29.7651988 49.7456848,27.2705599 48.2826027,25.7425472 C46.8429703,24.2390247 44.5275997,24.2390247 43.0879673,25.7425472 C43.0791019,25.7518262 43.0791019,25.7518262 43.0702855,25.7611354 L42.3494205,26.5239537 L41.6223225,25.7670741 L41.5810414,25.7240847 C40.1396756,24.2384104 37.8372999,24.2458476 36.4042004,25.7425472 C34.9477691,27.2636139 34.9404041,29.7443781 36.3819211,31.2699436 L42.2988431,37.4494548 Z" id="Combined-Shape-Copy-10" stroke="#073863" stroke-width="2" fill="url(#linearGradient-4)" transform="translate(42.343397, 30.956502) rotate(16.000000) translate(-42.343397, -30.956502) "></path>
        <path d="M28.7224541,52.4862772 L34.1164344,46.8529155 L34.2396516,46.7438123 C34.4042241,46.6206817 34.5601445,46.4825857 34.7062137,46.3300339 C36.1692958,44.8020212 36.1692958,42.3073823 34.7062137,40.7793696 C33.2665813,39.2758472 30.9512107,39.2758472 29.5115783,40.7793696 C29.5027129,40.7886487 29.5027129,40.7886487 29.4938965,40.7979578 L28.7730315,41.5607761 L28.0459335,40.8038966 L28.0046524,40.7609071 C26.5632866,39.2752328 24.2609109,39.28267 22.8278114,40.7793696 C21.3713801,42.3004363 21.3640151,44.7812006 22.8055321,46.306766 L28.7224541,52.4862772 Z" id="Combined-Shape-Copy-8" stroke="#073863" stroke-width="2" fill="url(#linearGradient-5)" transform="translate(28.767008, 45.993324) rotate(-387.000000) translate(-28.767008, -45.993324) "></path>
        <path d="M26.3561588,30.8414229 L31.7501391,25.2080612 L31.8733563,25.098958 C32.0379288,24.9758274 32.1938492,24.8377314 32.3399185,24.6851797 C33.8030006,23.1571669 33.8030006,20.6625281 32.3399185,19.1345153 C30.900286,17.6309929 28.5849154,17.6309929 27.145283,19.1345153 C27.1364176,19.1437944 27.1364176,19.1437944 27.1276012,19.1531035 L26.4067362,19.9159218 L25.6796382,19.1590423 L25.6383571,19.1160529 C24.1969913,17.6303785 21.8946156,17.6378157 20.4615161,19.1345153 C19.0050848,20.655582 18.9977198,23.1363463 20.4392368,24.6619117 L26.3561588,30.8414229 Z" id="Combined-Shape-Copy-9" stroke="#073863" stroke-width="2" fill="url(#linearGradient-3)" transform="translate(26.400713, 24.647116) rotate(-6.000000) translate(-26.400713, -24.647116) "></path>
    </g>
</svg>