<?xml version="1.0" encoding="UTF-8"?>
<svg width="77px" height="77px" viewBox="0 0 77 77" version="1.1" xmlns="http://www.w3.org/2000/svg" xmlns:xlink="http://www.w3.org/1999/xlink">
    <!-- Generator: Sketch 54.1 (76490) - https://sketchapp.com -->
    <title>Instagram</title>
    <desc>Created with Sketch.</desc>
    <g id="Instagram" stroke="none" stroke-width="1" fill="none" fill-rule="evenodd">
        <g id="Boost-Icon---web" transform="translate(-37.000000, -37.000000)" fill-rule="nonzero">
            <g id="Group-12">
                <g id="instagram-(1)-2" transform="translate(75.986429, 75.458200) rotate(40.000000) translate(-75.986429, -75.458200) translate(22.486429, 21.958200)">
                    <g id="instagram-(1)" transform="translate(53.395670, 53.723294) rotate(-40.000000) translate(-53.395670, -53.723294) translate(15.895670, 16.223294)">
                        <path d="M63.8712646,0.162199652 L11.3237567,0.162199652 C5.31440657,0.162199652 0.436842085,5.07276802 0.436842085,11.1227802 L0.436842085,64.0258492 C0.436842085,70.0758614 5.31440657,74.9864297 11.3237567,74.9864297 L63.8712646,74.9864297 C69.8806147,74.9864297 74.7581792,70.0758614 74.7581792,64.0258492 L74.7581792,11.1227802 C74.7581792,5.07276802 69.8806147,0.162199652 63.8712646,0.162199652 Z" id="Path" stroke="#5E5E5E" stroke-width="1.32752006"></path>
                        <path d="M57.6326925,21.7450755 C54.1201246,21.7450755 51.2622922,18.8679057 51.2622922,15.3315701 C51.2622922,11.7952345 54.1201246,8.91806466 57.6326925,8.91806466 C61.1452605,8.91806466 64.0030928,11.7952345 64.0030928,15.3315701 C64.0030928,18.8679057 61.1452605,21.7450755 57.6326925,21.7450755 Z M57.6326925,13.1937349 C56.4609148,13.1937349 55.5092257,14.1518636 55.5092257,15.3315701 C55.5092257,16.5112766 56.4609148,17.4694052 57.6326925,17.4694052 C58.8044702,17.4694052 59.7561593,16.5112766 59.7561593,15.3315701 C59.7561593,14.1518636 58.8044702,13.1937349 57.6326925,13.1937349 Z" id="Shape" fill="#5E5E5E"></path>
                        <path d="M37.2233234,21.0433185 C26.7300134,21.0433185 18.1826434,29.6798385 18.1826434,40.2838348 C18.1826434,50.8872745 26.7300134,59.5243512 37.2233234,59.5243512 C47.7166333,59.5243512 56.4050454,50.8872745 56.4050454,40.2838348 C56.4050454,29.6798385 47.7166333,21.0433185 37.2233234,21.0433185 Z M37.2233234,55.2486809 C29.0572076,55.2486809 22.4139056,48.5356559 22.4139056,40.2838348 C22.4139056,32.0320138 29.0572076,25.3189888 37.2233234,25.3189888 C45.3894391,25.3189888 52.1737831,32.0320138 52.1737831,40.2838348 C52.1737831,48.5356559 45.3894391,55.2486809 37.2233234,55.2486809 Z" id="Shape" fill="#0099FF"></path>
                        <path d="M56.637604,40.1804134 C56.637604,50.7838531 47.9811346,59.4209298 37.526403,59.4209298 L37.526403,55.1452595 C45.6624963,55.1452595 52.1737831,48.5356559 52.1737831,40.2838348 C52.1737831,32.0320138 45.3594166,25.3189888 37.2233234,25.3189888 L37.526403,20.9398971 C47.9811346,20.9398971 56.637604,29.5764171 56.637604,40.1804134 Z" id="Path" fill="#5E5E5E"></path>
                    </g>
                </g>
            </g>
        </g>
    </g>
</svg>