<?xml version="1.0" encoding="UTF-8"?>
<svg width="98px" height="68px" viewBox="0 0 98 68" version="1.1" xmlns="http://www.w3.org/2000/svg" xmlns:xlink="http://www.w3.org/1999/xlink">
    <!-- Generator: Sketch 54.1 (76490) - https://sketchapp.com -->
    <title>rocket</title>
    <desc>Created with Sketch.</desc>
    <g id="rocket" stroke="none" stroke-width="1" fill="none" fill-rule="evenodd">
        <g id="Boost-Icon---web" transform="translate(-66.000000, -25.000000)">
            <path d="M159.415309,34.6143678 C161.176381,31.4601501 161.317009,30.6626099 162.583648,28.1421695 C163.850287,25.6217292 158.168842,25.6143678 155.612666,25.6143678 C153.056489,25.6143678 157.654236,37.7685855 159.415309,34.6143678 Z" id="Oval" transform="translate(158.810770, 30.375673) rotate(-10.000000) translate(-158.810770, -30.375673) "></path>
            <g id="Group-12" fill-rule="nonzero">
                <g id="Group-9" transform="translate(77.989656, 12.202899)">
                    <g id="Group" transform="translate(64.618126, 27.835581) rotate(-4.000000) translate(-64.618126, -27.835581) translate(35.118126, 2.335581)">
                        <path d="M17.3871249,50.2395361 C17.4255034,50.2395361 17.4638819,50.2366453 17.5022603,50.2301411 C17.8114604,50.1781073 18.0475242,49.9266104 18.0786614,49.6151301 C18.0873509,49.5291297 18.9476078,41.4039016 23.1974799,38.9077228 C23.3690968,39.2907497 23.548679,39.6766673 23.7333301,40.0633076 L23.6717798,40.0633076 C23.2879951,40.0633076 22.9766226,40.3740653 22.9766226,40.7570921 L22.9766226,42.7784621 C22.9766226,43.161489 23.2879951,43.4722466 23.6717798,43.4722466 L25.1135067,43.4722466 L25.1135067,45.9120554 C25.1135067,46.2950822 25.4248791,46.6058399 25.8086638,46.6058399 L32.4647932,46.6058399 C32.8485779,46.6058399 33.1599503,46.2950822 33.1599503,45.9120554 L33.1599503,43.4722466 L34.6009531,43.4722466 C34.9847378,43.4722466 35.2961102,43.1622117 35.2961102,42.7784621 L35.2961102,40.7570921 C35.2961102,40.3740653 34.9847378,40.0633076 34.6009531,40.0633076 L34.5394027,40.0633076 C34.7240539,39.6766673 34.9036361,39.2907497 35.075253,38.9077228 C39.3186079,41.4024562 40.1861061,49.5298524 40.1947956,49.6151301 C40.2259328,49.9266104 40.4619966,50.1781073 40.7711967,50.2301411 C40.8095751,50.2366453 40.8486777,50.2395361 40.8863321,50.2395361 C41.1535331,50.2395361 41.4019069,50.08488 41.5170423,49.8362739 C44.2795678,43.8632231 44.8610377,38.5275868 43.2469698,33.9782395 C42.031169,30.5519559 39.8450446,28.4229048 38.4547304,27.3468162 C39.639394,18.4511982 37.1339319,11.5559922 34.7986384,7.3159572 C32.3590714,2.88657687 29.7102331,0.513255774 29.5987183,0.414246946 C29.5950977,0.411356177 29.590753,0.409188101 29.5871324,0.406297332 C29.5827877,0.402683871 29.5784429,0.399793103 29.5733741,0.396179642 C29.5574434,0.383171183 29.5407886,0.370885416 29.5234096,0.359322341 C29.5118237,0.351372727 29.5009619,0.342700421 29.4893759,0.335473499 C29.4792382,0.329691962 29.4691005,0.325355809 29.4589628,0.320296964 C29.442308,0.311624657 29.4256532,0.303675044 29.4089984,0.296448122 C29.3959642,0.291389277 29.3836541,0.284885047 29.3706199,0.279826202 C29.3583098,0.275490049 29.3452756,0.27259928 29.3329656,0.268985819 C29.317759,0.264649666 29.3018283,0.260313513 29.2858976,0.256700052 C29.2721393,0.253809284 29.2591051,0.250195823 29.2453468,0.248027746 C29.2308644,0.24585967 29.2163819,0.244414285 29.2018995,0.242968901 C29.187417,0.241523517 29.1729346,0.240800825 29.157728,0.240078132 C29.1439697,0.23935544 29.1302114,0.23935544 29.1164531,0.240078132 C29.1005224,0.240800825 29.0853158,0.241523517 29.0693852,0.242968901 C29.0556268,0.244414285 29.0425926,0.245136978 29.0288343,0.247305054 C29.0158001,0.249473131 29.0027659,0.252363899 28.9890076,0.255254668 C28.9723528,0.258868129 28.955698,0.263204282 28.9390432,0.268263127 C28.9267331,0.271876588 28.9151472,0.274767357 28.9035612,0.27910351 C28.8912511,0.283439663 28.8789411,0.2892212 28.866631,0.295002738 C28.8485279,0.302952351 28.831149,0.310901965 28.8137701,0.320296964 C28.8043565,0.325355809 28.7942188,0.32896927 28.7848052,0.334750807 C28.7732193,0.341255037 28.7630815,0.349927343 28.7522197,0.357876957 C28.7341167,0.370162723 28.7167377,0.38244849 28.7000829,0.396179642 C28.6964623,0.39907041 28.6921176,0.401238487 28.688497,0.404851948 C28.6841523,0.408465409 28.6798075,0.410633485 28.6761869,0.414246946 C28.5646721,0.513255774 25.9158338,2.88585418 23.4762668,7.3159572 C21.1409734,11.5559922 18.6355113,18.4511982 19.8201748,27.3468162 C18.4298606,28.4229048 16.2444604,30.5519559 15.0286596,33.9782395 C13.4138675,38.5275868 13.9960616,43.8625004 16.7578629,49.8355512 C16.8708259,50.0856027 17.1191998,50.2395361 17.3871249,50.2395361 Z M31.768912,45.2182709 L26.5023727,45.2182709 L26.5023727,43.4715239 L31.768912,43.4715239 L31.768912,45.2182709 L31.768912,45.2182709 Z M33.9050719,42.0846776 L24.3662128,42.0846776 L24.3662128,41.4501539 L24.8412368,41.4501539 C24.842685,41.4501539 24.8441333,41.4501539 24.8448574,41.4501539 C24.8463056,41.4501539 24.8477539,41.4501539 24.8499263,41.4501539 L33.4213584,41.4501539 C33.4228066,41.4501539 33.4242549,41.4501539 33.4264272,41.4501539 C33.4278755,41.4501539 33.4293237,41.4501539 33.4300478,41.4501539 L33.9043478,41.4501539 L33.9050719,42.0846776 L33.9050719,42.0846776 Z M41.9348607,34.4422079 C43.2288668,38.0874672 42.9718034,42.3275022 41.1738085,47.0719763 C40.547443,44.1862665 39.0354762,39.5169523 35.6255857,37.6271123 C36.8298006,34.7139402 37.6951264,31.800768 38.2056324,28.9432432 C39.4272262,30.014273 40.9978469,31.8022134 41.9348607,34.4422079 Z M25.0367497,7.37810872 C25.1164032,7.24079721 25.1967807,7.10565377 25.2764341,6.97267841 C25.2909166,6.94810688 25.305399,6.92353535 25.3206056,6.89896381 C25.4140173,6.74430769 25.5081532,6.59254233 25.6015649,6.44439044 C25.6182197,6.41765083 25.6348745,6.39163391 25.6515293,6.36561699 C25.7297345,6.24203663 25.8079397,6.12062434 25.8861448,6.00065744 C25.9071444,5.96885899 25.9281439,5.93706053 25.9484193,5.90526208 C26.1337946,5.62413482 26.3169974,5.35601602 26.4973038,5.10090569 C26.5183033,5.07127531 26.5385788,5.04236762 26.5595783,5.01345993 C26.6385076,4.90288803 26.7167128,4.79448421 26.7941938,4.68897115 C26.8057798,4.67379461 26.8166416,4.65789539 26.8282276,4.64271885 C26.9172946,4.52202926 27.0049133,4.40423043 27.091808,4.29004507 C27.1070145,4.26980969 27.1222211,4.250297 27.1381518,4.23006162 C27.2112881,4.13466625 27.2829762,4.04143896 27.3539401,3.95037975 C27.3705949,3.92869898 27.3879739,3.90701822 27.4046287,3.88533745 C27.4886268,3.77837901 27.5719009,3.67431134 27.6530025,3.57457982 C27.6530025,3.57457982 27.6530025,3.57457982 27.6530025,3.57385713 C27.7326559,3.47557099 27.8108611,3.38089832 27.8876181,3.28911641 C27.9035487,3.26960372 27.9202035,3.25009103 27.9361342,3.23130104 C28.0063741,3.14674605 28.0758898,3.06508184 28.1432331,2.98703108 C28.148302,2.98124954 28.1533708,2.97546801 28.1584397,2.96968647 C28.2323001,2.8836861 28.3047123,2.80129919 28.374228,2.72252575 C28.3850899,2.71023998 28.3959517,2.69795421 28.4068135,2.68566845 C28.4661915,2.61845807 28.5241213,2.55413847 28.5798787,2.49270964 C28.5900164,2.48114656 28.6008782,2.46958349 28.6117401,2.45802041 C28.7391855,2.31781813 28.8572174,2.19206969 28.9629392,2.0807751 C28.9723528,2.07065741 28.9817664,2.06126241 28.99118,2.05186741 C29.0418685,1.99838819 29.0911088,1.94852243 29.1360044,1.90227013 C29.7819212,2.5606427 31.0245146,3.93014437 32.3467613,5.94067399 C32.3496578,5.94501015 32.3525543,5.9493463 32.3554508,5.95368245 C32.451759,6.10038896 32.5487914,6.25070893 32.6458237,6.40464237 C32.6508926,6.41331467 32.6559614,6.42126429 32.6617544,6.4292139 C32.7587867,6.58314733 32.8558191,6.74069423 32.9528514,6.90113189 C32.9666098,6.92425804 32.9810922,6.94810688 32.9948505,6.97123303 C33.0730557,7.10131762 33.1512609,7.23429298 33.229466,7.36871373 C33.2432244,7.39328526 33.2577068,7.4171341 33.2714651,7.44170564 C32.036113,8.22654933 30.6182821,8.63848387 29.1352803,8.63848387 C27.6522784,8.63848387 26.2344475,8.22654933 24.9998195,7.44170564 C25.0121296,7.42074756 25.0244397,7.3990668 25.0367497,7.37810872 Z M24.3329032,8.66016464 C25.7724577,9.55485755 27.4169388,10.0253302 29.1360044,10.0253302 L29.1360044,10.0253302 C30.85507,10.0253302 32.4995511,9.55485755 33.9391056,8.66016464 C36.0955409,12.8228716 38.220839,19.303975 37.0231412,27.5592877 C36.5423242,30.8721086 35.5567942,34.2788795 34.0933436,37.6856504 C33.7580751,38.4661579 33.3880488,39.2640101 32.9948505,40.0633076 L25.2771582,40.0633076 C24.8846841,39.2661782 24.5146578,38.468326 24.1786652,37.6863731 C22.7152146,34.2796022 21.7296846,30.8728313 21.2488676,27.5600103 C20.0504456,19.303975 22.1764678,12.8221489 24.3329032,8.66016464 Z M16.3364239,34.4422079 C17.2734378,31.8029361 18.8440584,30.0149957 20.0656522,28.9425205 C20.5768823,31.800768 21.441484,34.7132175 22.6456989,37.6263896 C19.2358084,39.5162297 17.7238417,44.1862665 17.0974761,47.0712536 C15.2994812,42.3275022 15.0424179,38.0874672 16.3364239,34.4422079 Z" id="Shape" fill="#0099FF" transform="translate(29.137637, 25.239536) rotate(61.000000) translate(-29.137637, -25.239536) "></path>
                        <path d="M35.7355742,25.1001177 C37.6243517,25.1001177 39.1614723,23.5592247 39.1614723,21.6644424 C39.1614723,19.7702744 37.6243517,18.228767 35.7355742,18.228767 C33.8467967,18.228767 32.3096761,19.7696601 32.3096761,21.6644424 C32.3096761,23.5586103 33.846184,25.1001177 35.7355742,25.1001177 Z M35.7355742,19.4077837 C36.9761757,19.4077837 37.9858109,20.4203003 37.9858109,21.6644424 C37.9858109,22.9085845 36.9761757,23.9211011 35.7355742,23.9211011 C34.4949727,23.9211011 33.4853375,22.9085845 33.4853375,21.6644424 C33.4853375,20.4203003 34.49436,19.4077837 35.7355742,19.4077837 Z" id="Shape" fill="#5E5E5E" transform="translate(35.735574, 21.664442) rotate(61.000000) translate(-35.735574, -21.664442) "></path>
                    </g>
                    <path d="M22.4006296,31.6734859 C22.4018956,29.056202 22.1833559,26.932865 21.9127271,26.9330127 C21.6420983,26.9331604 21.4215069,29.0517987 21.4202386,31.6740209 L21.4006406,72.1925395 C21.3993746,74.8098234 21.6179143,76.9331604 21.8885431,76.9330127 C22.1591719,76.932865 22.3797633,74.8142267 22.3810316,72.1920045 L22.4006296,31.6734859 Z" id="Path" fill="#0099FF" transform="translate(21.900635, 51.933013) rotate(-120.000000) translate(-21.900635, -51.933013) "></path>
                    <path d="M30.5692592,35.9741196 C30.5702274,34.0890097 30.2831356,32.5597288 29.9283101,32.5599112 C29.5734846,32.5600935 29.2848237,34.0861135 29.2838536,35.9747802 L29.2688647,65.1584157 C29.2678965,67.0435256 29.5549883,68.5728065 29.9098138,68.5726241 C30.2646393,68.5724418 30.5533003,67.0464219 30.5542703,65.1577551 L30.5692592,35.9741196 Z" id="Path-Copy-6" fill="#0099FF" transform="translate(29.919062, 50.566268) rotate(-120.000000) translate(-29.919062, -50.566268) "></path>
                </g>
                <path d="M87.2607604,69.7233788 C87.0146004,69.723375 86.8148887,69.9218628 86.8148925,70.1675473 C86.8148962,70.4132318 87.014614,70.6117258 87.260774,70.6117297 C90.046098,70.6117732 92.3121983,72.8692376 92.312241,75.6439459 C92.3122837,78.4186543 90.0462528,80.6760479 87.2609288,80.6760044 C86.7792912,80.6759969 86.3036904,80.6079751 85.8457378,80.4742526 C84.8615577,80.1892247 83.9967377,79.6173353 83.3446336,78.8201228 C83.1890389,78.6299578 82.908509,78.6017298 82.7176212,78.7562628 C82.5267334,78.9112585 82.4979417,79.1907185 82.6535363,79.3808835 C83.3311858,80.2090962 84.2043668,80.8304927 85.1969082,81.1951022 C84.2531976,84.945131 80.83115,87.6272493 76.9130255,87.6271881 C73.8583189,87.6271404 71.0167709,85.9854977 69.4975049,83.3430929 C68.7613274,82.0642263 68.3720934,80.6039936 68.3720706,79.1197074 C68.3720692,79.0267081 68.3739255,78.9337089 68.3767108,78.8416351 C68.382745,78.5964134 68.1886005,78.3928299 67.9424404,78.3863485 C67.9387248,78.3863485 67.9345447,78.3863484 67.9308291,78.3863483 C67.689778,78.3863446 67.4914596,78.5778921 67.4854254,78.8189497 C67.4831047,78.9184265 67.480784,79.0192913 67.4807855,79.1196934 C67.4808077,80.5618755 67.8143067,81.9837047 68.4483046,83.2667339 C68.0391229,83.3472343 67.620187,83.3888692 67.196606,83.3888625 C63.6602617,83.3888073 60.7833965,80.5229055 60.7833423,77.0000392 C60.7832952,73.9375422 62.9712922,71.2988968 65.9855826,70.7252173 C66.2270974,70.6794155 66.3859367,70.4466886 66.3394877,70.2056301 C66.2935031,69.9650344 66.0598809,69.8067933 65.8183661,69.8530578 C62.3842116,70.5063121 59.8920036,73.5123229 59.8920572,77.0000253 C59.8921189,81.01241 63.1688842,84.2766878 67.1966196,84.2767507 C67.7748635,84.2767597 68.3461395,84.209217 68.9002298,84.0773611 C70.615032,86.8229472 73.6539733,88.5154881 76.9130391,88.515539 C81.2296642,88.5156064 85.0005119,85.5665256 86.0533631,81.4403374 C86.4486137,81.5222384 86.8526884,81.5643489 87.260478,81.5643553 C90.5371931,81.5644064 93.2031118,78.9086492 93.2030616,75.6444225 C93.2034759,72.3788078 90.5374755,69.72343 87.2607604,69.7233788 Z" id="Path" fill="#0099FF" transform="translate(76.547559, 79.119459) rotate(61.000000) translate(-76.547559, -79.119459) "></path>
                <g id="Group-8" transform="translate(72.000000, 71.000000)" fill="#0099FF">
                    <path d="M4.80222893,4.59055412 L4.80231424,10.1376574 C4.80231801,10.3828792 5.00203581,10.5818359 5.24819584,10.5818398 C5.49435587,10.5818436 5.69406755,10.3828931 5.69406378,10.1376713 L5.69397847,4.59056805 C5.6939747,4.3453462 5.4942569,4.14638951 5.24809687,4.14638566 C5.00193684,4.14638182 4.80222516,4.34533227 4.80222893,4.59055412 Z" id="Path" transform="translate(5.248146, 7.364113) rotate(61.000000) translate(-5.248146, -7.364113) "></path>
                    <path d="M7.12557953,6.51080822 C6.8794195,6.51080438 6.67970782,6.70929215 6.67971159,6.95497668 L6.6797673,10.5773198 C6.67977107,10.8225416 6.87948887,11.0214983 7.1256489,11.0215022 C7.37180893,11.021506 7.57152062,10.8230182 7.57151684,10.5773337 L7.57146113,6.95499061 C7.57099291,6.70976875 7.37173956,6.51081207 7.12557953,6.51080822 Z" id="Path" transform="translate(7.125614, 8.766155) rotate(61.000000) translate(-7.125614, -8.766155) "></path>
                    <path d="M10.0858751,7.91697022 C10.0858713,7.67174837 9.88615349,7.47279168 9.63999346,7.47278783 C9.39383343,7.47278399 9.19412174,7.67127176 9.19412552,7.91695629 L9.19418391,11.7132681 C9.19418768,11.9584899 9.39344102,12.1574466 9.6400655,12.1574505 C9.88668999,12.1574543 10.0859372,11.9589665 10.0859334,11.713282 L10.0858751,7.91697022 Z" id="Path" transform="translate(9.640029, 9.815119) rotate(61.000000) translate(-9.640029, -9.815119) "></path>
                    <path d="M5.94261608,0.442057814 C5.94261231,0.196835967 5.74289451,-0.00212072623 5.49673449,-0.00212457119 C5.25057446,-0.00212841614 5.05086277,0.196359356 5.05086655,0.442043885 L5.05092493,4.23835569 C5.0509287,4.48357753 5.2506465,4.68253423 5.49680653,4.68253807 C5.74296656,4.68254192 5.94267825,4.48405414 5.94267447,4.23836961 L5.94261608,0.442057814 Z" id="Path" transform="translate(5.496771, 2.340207) rotate(61.000000) translate(-5.496771, -2.340207) "></path>
                    <path d="M5.05383746,2.77314891 C4.80767743,2.77314507 4.60796575,2.97209552 4.60796952,3.21731737 L4.60802523,6.83966046 C4.608029,7.08488231 4.8077468,7.283839 5.05390683,7.28384285 C5.30006686,7.28384669 5.49977854,7.08489624 5.49977477,6.83967439 L5.49971906,3.2173313 C5.49971529,2.97210945 5.29999749,2.77315276 5.05383746,2.77314891 Z" id="Path" transform="translate(5.053872, 5.028496) rotate(61.000000) translate(-5.053872, -5.028496) "></path>
                    <path d="M1.92980887,3.29725346 C1.68364884,3.29724962 1.48393716,3.49620007 1.48394093,3.74142192 L1.48395865,4.89350192 C1.48396242,5.13872377 1.68368022,5.33768046 1.92984025,5.3376843 C2.17600028,5.33768815 2.37571197,5.13920038 2.37570819,4.89351585 L2.37569047,3.74143585 C2.37568669,3.49575132 2.1759689,3.29725731 1.92980887,3.29725346 Z" id="Path" transform="translate(1.929825, 4.317469) rotate(61.000000) translate(-1.929825, -4.317469) "></path>
                    <path d="M6.07306785,10.7721659 C5.82690782,10.772162 5.62719614,10.9711125 5.62719991,11.2163343 L5.62721763,12.3684143 C5.6272214,12.6136362 5.82647474,12.8125929 6.07309923,12.8125967 C6.31972371,12.8126006 6.51897094,12.6141128 6.51896716,12.3684283 L6.51894944,11.2163483 C6.51894567,10.9706637 6.31922787,10.7721697 6.07306785,10.7721659 Z" id="Path" transform="translate(6.073084, 11.792381) rotate(61.000000) translate(-6.073084, -11.792381) "></path>
                </g>
            </g>
        </g>
    </g>
</svg>