<svg xmlns="http://www.w3.org/2000/svg" xmlns:xlink="http://www.w3.org/1999/xlink" width="235" height="295"><defs><rect id="A" x="4.5" y="4.5" width="226" height="286" rx="7"/><filter x="-3.5%" y="-2.4%" width="107.1%" height="105.6%" id="B"><feOffset dy="1" in="SourceAlpha"/><feGaussianBlur stdDeviation="2.5"/><feColorMatrix values="0 0 0 0 0 0 0 0 0 0 0 0 0 0 0 0 0 0 0.21 0"/></filter><linearGradient x1="50%" y1="0%" x2="50%" y2="117.005991%" id="C"><stop stop-color="#fd8c8d" offset="0%"/><stop stop-color="#f16162" offset="100%"/></linearGradient><linearGradient x1="50%" y1="0%" x2="50%" y2="100%" id="D"><stop stop-color="#f99a9b" offset="0%"/><stop stop-color="#f16162" offset="100%"/></linearGradient><linearGradient x1="10.2277075%" y1="11.5956347%" x2="59.6114475%" y2="88.4043653%" id="E"><stop stop-color="#7cf6e7" offset="0%"/><stop stop-color="#3ec8b7" offset="100%"/></linearGradient><linearGradient x1="11.2183019%" y1="10.0762264%" x2="59.5254222%" y2="91.4474812%" id="F"><stop stop-color="#5acef9" offset="0%"/><stop stop-color="#19ade4" offset="100%"/></linearGradient><linearGradient x1="10.5678984%" y1="12.1247489%" x2="59.6114475%" y2="88.4043653%" id="G"><stop stop-color="#ff9b9c" offset="0%"/><stop stop-color="#f16162" offset="100%"/></linearGradient><linearGradient x1="50%" y1="0%" x2="50%" y2="100%" id="H"><stop stop-color="#00c9ff" offset="0%"/><stop stop-color="#09f" offset="100%"/></linearGradient><linearGradient x1="50%" y1="0.839826897%" x2="50%" y2="84.8516306%" id="I"><stop stop-color="#66bffb" offset="0%"/><stop stop-color="#09f" offset="100%"/></linearGradient><path id="J" d="M103.395 66.275l-.637.335c-.3.158-.672.042-.83-.258-.063-.12-.085-.257-.062-.4l.122-.71a1 1 0 0 0-.288-.885l-.515-.502c-.243-.237-.248-.626-.01-.87.094-.097.218-.16.352-.18l.712-.103a1 1 0 0 0 .753-.547l.318-.645c.15-.304.52-.43.823-.28.12.06.22.158.28.28l.318.645a1 1 0 0 0 .753.547l.712.103c.336.05.57.36.52.696-.02.134-.082.257-.18.352l-.515.502a1 1 0 0 0-.288.885l.122.71c.057.334-.167.652-.502.7-.133.023-.27.001-.4-.062l-.637-.335a1 1 0 0 0-.931 0z"/></defs><g fill="none" fill-rule="evenodd"><use fill="#000" filter="url(#B)" xlink:href="#A"/><use fill="#fff" xlink:href="#A"/><g stroke="#073863"><g fill-rule="nonzero"><path d="M124.747 60.636c-1.594-.95-2.662-2.693-2.662-4.685 0-3.01 2.44-5.45 5.45-5.45h6.376c3.01 0 5.45 2.44 5.45 5.45s-2.44 5.45-5.45 5.45h-6.376c-.18 0-.36-.01-.536-.026-1.838 1.92-4.8 3.93-2.253-.74z" fill="url(#C)"/><use xlink:href="#J" fill="url(#D)"/><path d="M113.678 55.74l.055-.062c.05-.048.097-.1.14-.16a1.39 1.39 0 0 0-.231-1.883 1.2 1.2 0 0 0-1.743.214l-.723.098-.017-.014a1.2 1.2 0 0 0-1.736.22 1.39 1.39 0 0 0 .222 1.875l2.37 1.937 1.663-2.227z" fill="url(#E)"/><path d="M132.706 56.997l.064-.057a1.34 1.34 0 0 0 .165-.146c.52-.542.52-1.43 0-1.973-.507-.53-1.32-.53-1.826 0l-.76.01-.016-.016c-.508-.523-1.315-.52-1.82.007-.517.54-.52 1.423-.01 1.964l2.202 2.3 2-2.088z" fill="url(#F)"/><path d="M132.49 75.278l.026-.078c.027-.064.05-.13.067-.2a1.39 1.39 0 0 0-.948-1.643 1.2 1.2 0 0 0-1.521.878l-.628.373-.02-.006a1.2 1.2 0 0 0-1.512.88 1.39 1.39 0 0 0 .937 1.639l2.94.856.66-2.7z" fill="url(#G)"/></g><g stroke-width="1.25"><path d="M113.035 74.18c-.158-.042-.32-.068-.483-.077-1.3-.073-2.43.93-2.503 2.24l-.63 11.407c0 1.312 1.063 2.375 2.375 2.375l10.307-.004c1.3-.073 2.313-1.193 2.24-2.503l-.625-11.275c-.01-.163-.035-.325-.077-.483-.34-1.267-1.64-2.02-2.908-1.68l-3.85 1.03-3.848-1.03z" fill="url(#H)"/><path d="M116.864 73.607c2.997 0 5.22-4.203 5.22-7.282s-2.224-5.575-5.22-5.575-5.182 2.496-5.182 5.575 2.185 7.282 5.182 7.282z" fill="url(#H)"/></g><path d="M104.747 80.746a5.24 5.24 0 0 0 2.56-4.504c0-2.895-2.347-5.24-5.24-5.24h-6.13c-2.895 0-5.24 2.347-5.24 5.24s2.347 5.24 5.24 5.24h6.13l.515-.025c1.767 1.846 4.616 3.78 2.166-.712z" fill="url(#I)"/><use xlink:href="#J" x="-4.86" y="12.435" fill="url(#D)"/><circle stroke-width="1.5" cx="117.5" cy="70" r="30.5"/></g><text font-family="Muli-Bold, Muli" font-size="14" font-weight="bold" letter-spacing=".371" fill="#343434"><tspan x="72.588" y="133.25">Personalized </tspan><tspan x="73.365" y="151.25">Engagement</tspan></text><text font-family="Muli-Regular, Muli" font-size="12" letter-spacing=".318" fill="#343434"><tspan x="19.58" y="187">Our assistant engages and builds </tspan><tspan x="28.643" y="202">your community with likes and </tspan><tspan x="21.491" y="217">relevant, personalized comments </tspan><tspan x="73.847" y="232">and messages. </tspan></text></g></svg>