<svg id="draw.id" overflow="visible" v:layers="{&quot;default&quot;:{&quot;name&quot;:&quot;Default&quot;,&quot;print&quot;:0,&quot;display&quot;:1,&quot;publish&quot;:0},&quot;jwuktd3clp&quot;:{&quot;name&quot;:&quot;cc&quot;,&quot;print&quot;:0,&quot;display&quot;:1,&quot;publish&quot;:0},&quot;jxk6ceb1sb&quot;:{&quot;name&quot;:&quot;Untitled layer&quot;,&quot;print&quot;:1,&quot;display&quot;:1,&quot;publish&quot;:1}}" v:ver="2" x="500.5" xmlns:v="http://vecta.io" y="500.5" xmlns="http://www.w3.org/2000/svg" xmlns:xlink="http://www.w3.org/1999/xlink"><style xmlns="http://www.w3.org/1999/xhtml"><![CDATA[#draw\.id{stroke:#000;stroke-linecap:round;stroke-linejoin:round;fill:#fff;fill-rule:evenodd;font-family:Roboto;font-size:14px;text-anchor:middle}#draw\.id text{stroke:none}]]></style><defs><style type="text/css">@import url("https://fonts.googleapis.com/css?family=Roboto+Condensed:400,400i,700,700i"); @import url("https://fonts.googleapis.com/css?family=Roboto:400,400i,700,700i"); @import url("https://fonts.googleapis.com/css?family=Cousine:400,400i,700,700i"); @import url("https://fonts.googleapis.com/css?family=Anonymous+Pro:400,400i,700,700i"); @import url("https://fonts.googleapis.com/css?family=Lato:400,400i,700,700i"); @import url("https://fonts.googleapis.com/css?family=Open+Sans:400,400i,700,700i"); @import url("https://fonts.googleapis.com/css?family=Barlow+Condensed" rel"); @import url("https://fonts.googleapis.com/css?family=Alfa+Slab+One"); @import url("https://fonts.googleapis.com/css?family=Montserrat:400,400i,700,700i");</style><linearGradient x1="50%" y1="0%" x2="50%" y2="100%" id="L50050100000C9FF1000099FF.grad"><stop stop-color="#00C9FF" offset="0%"/><stop stop-color="#0099FF" offset="100%"/></linearGradient><linearGradient x1="10.2277075%" y1="11.5956347%" x2="59.6114475%" y2="88.4043653%" id="L1011598807CF6E799.47006121003EC8B7.grad"><stop stop-color="#7CF6E7" stop-opacity="0.994700612" offset="0%"/><stop stop-color="#3EC8B7" offset="100%"/></linearGradient><linearGradient x1="11.2183019%" y1="10.0762264%" x2="59.5254222%" y2="91.4474812%" id="L1110599105ACEF910019ADE4.grad"><stop stop-color="#5ACEF9" offset="0%"/><stop stop-color="#19ADE4" offset="100%"/></linearGradient><linearGradient x1="11.2183019%" y1="10.0762264%" x2="59.5254222%" y2="91.4474812%" id="L111059910F16162100F16162.grad"><stop stop-color="#F16162" offset="0%"/><stop stop-color="#F16162" offset="100%"/></linearGradient></defs><title xmlns="http://www.w3.org/1999/xhtml">Untitled drawing</title><desc xmlns="http://www.w3.org/1999/xhtml"></desc><svg height="354" id="jnpok80i2" overflow="visible" rs_id="1120" style="fill: rgb(115, 132, 140) !important; stroke: rgb(0, 0, 0) !important;" v:setup="{&quot;paper&quot;:&quot;CUSTOM&quot;,&quot;unit&quot;:&quot;px&quot;,&quot;scale&quot;:{&quot;from&quot;:&quot;1&quot;,&quot;to&quot;:&quot;1&quot;},&quot;width&quot;:235,&quot;height&quot;:295,&quot;orient&quot;:0}" viewBox="0 0 235 295" width="282"><g id="jz8xe4uods" transform="translate(0 0)" class="NoPrint.cls"><svg width="235px" height="295px" viewBox="0 0 235 295" version="1.1" class="Ignore.cls" stroke="initial" stroke-linecap="initial" stroke-linejoin="initial" fill="initial" text-anchor="initial" fill-rule="initial" x="0" y="0"><title>results</title><desc>Created with Sketch.</desc><defs><rect id="jz8xe4ufd7" x="4.5" y="4.5" width="226" height="286" rx="7"/><filter x="-3.5%" y="-2.4%" width="107.1%" height="105.6%" filterUnits="objectBoundingBox" id="jz8xe4ufd8"><feOffset dx="0" dy="1" in="SourceAlpha" result="shadowOffsetOuter1"/><feGaussianBlur stdDeviation="2.5" in="shadowOffsetOuter1" result="shadowBlurOuter1"/><feColorMatrix values="0 0 0 0 0 0 0 0 0 0 0 0 0 0 0 0 0 0 0.21 0" type="matrix" in="shadowBlurOuter1"/></filter><linearGradient x1="50%" y1="0%" x2="50%" y2="100%" id="jz8xe4ufd9"><stop stop-color="#00C9FF" offset="0%"/><stop stop-color="#0099FF" offset="100%"/></linearGradient><linearGradient x1="50%" y1="0%" x2="50%" y2="100%" id="jz8xe4ufda"><stop stop-color="#00C9FF" offset="0%"/><stop stop-color="#0099FF" offset="100%"/></linearGradient><linearGradient x1="10.2277075%" y1="11.5956347%" x2="59.6114475%" y2="88.4043653%" id="jz8xe4ufdb"><stop stop-color="#7CF6E7" stop-opacity="0.994700612" offset="0%"/><stop stop-color="#3EC8B7" offset="100%"/></linearGradient><linearGradient x1="11.2183019%" y1="10.0762264%" x2="59.5254222%" y2="91.4474812%" id="jz8xe4ufdc"><stop stop-color="#5ACEF9" offset="0%"/><stop stop-color="#19ADE4" offset="100%"/></linearGradient><linearGradient x1="11.2183019%" y1="10.0762264%" x2="59.5254222%" y2="91.4474812%" id="jz8xe4ufdd"><stop stop-color="#F16162" offset="0%"/><stop stop-color="#F16162" offset="100%"/></linearGradient></defs><g stroke="none" stroke-width="1" fill="none" fill-rule="evenodd" xmlns="http://www.w3.org/2000/svg" xmlns:xlink="http://www.w3.org/1999/xlink"><g><use fill="black" fill-opacity="1" filter="url(#jz8xe4ufd8)" xlink:href="#jz8xe4ufd7"/><use fill="#FFFFFF" fill-rule="evenodd" xlink:href="#jz8xe4ufd7"/></g><g transform="translate(88.051246, 34.216142)" stroke="#073863" stroke-width="1.5"><circle cx="30.5" cy="31" r="30.5"/></g><path d="M113.495524,67.3800809 C113.337349,67.3376609 113.17521,67.3117148 113.011695,67.3026566 C111.702027,67.2301048 110.581516,68.2329858 110.508965,69.542654 L109.715347,83.8686333 C109.712924,83.9123803 109.711711,83.956186 109.711711,84 C109.711711,85.3116763 110.775035,86.375 112.086711,86.375 L125.015612,86.375 C125.059384,86.375 125.103149,86.3737899 125.146855,86.371371 C126.456527,86.2988875 127.459466,85.1784291 127.386983,83.8687571 L126.594112,69.5427263 C126.585061,69.3791918 126.559118,69.2170322 126.516698,69.0588364 C126.176969,67.7919192 124.874525,67.0402842 123.607608,67.3800127 L118.551164,68.7359167 L113.495524,67.3800809 Z" stroke="#073863" stroke-width="1.25" fill="url(#L50050100000C9FF1000099FF.grad)"/><path d="M118.528609,66.8346094 C122.025275,66.8346094 124.619949,61.9853944 124.619949,58.4327079 C124.619949,54.8800214 122.025275,52 118.528609,52 C115.031942,52 112.482542,54.8800214 112.482542,58.4327079 C112.482542,61.9853944 115.031942,66.8346094 118.528609,66.8346094 Z" stroke="#073863" stroke-width="1.5" fill="url(#L50050100000C9FF1000099FF.grad)"/><path d="M127.5314,56.6134877 L127.593008,56.5589361 C127.646931,56.5185921 127.698088,56.4732828 127.746099,56.4231414 C128.228363,55.9194746 128.228363,55.094249 127.746099,54.5905821 C127.27556,54.0991605 126.522032,54.0991605 126.051492,54.5905821 C126.048573,54.5936373 126.048573,54.5936373 126.045671,54.5967022 L125.321689,54.5996716 L125.307127,54.5845042 C124.836076,54.0989722 124.086781,54.1013926 123.618379,54.5905821 C123.138309,55.0919569 123.135873,55.9126102 123.610268,56.4146711 L125.666018,58.5616539 L127.5314,56.6134877 Z" stroke="#073863" fill="url(#L1011598807CF6E799.47006121003EC8B7.grad)" transform="translate(125.682237, 56.394602) rotate(-7.000000) translate(-125.682237, -56.394602) "/><path d="M128.575132,75.1662453 L128.636741,75.1116937 C128.690663,75.0713497 128.741821,75.0260404 128.789831,74.975899 C129.272096,74.4722322 129.272096,73.6470066 128.789831,73.1433397 C128.319292,72.6519181 127.565764,72.6519181 127.095225,73.1433397 C127.092306,73.1463949 127.092306,73.1463949 127.089403,73.1494598 L126.365422,73.1524292 L126.350859,73.1372618 C125.879808,72.6517298 125.130513,72.6541502 124.662111,73.1433397 C124.182041,73.6447145 124.179605,74.4653678 124.654,74.9674287 L126.70975,77.1144115 L128.575132,75.1662453 Z" stroke="#073863" fill="url(#L1110599105ACEF910019ADE4.grad)" transform="translate(126.725969, 75.056076) rotate(-345.000000) translate(-126.725969, -75.056076) "/><path d="M111.084663,79.8426843 L111.146271,79.7881327 C111.200194,79.7477887 111.251351,79.7024794 111.299362,79.652338 C111.781626,79.1486712 111.781626,78.3234456 111.299362,77.8197787 C110.828823,77.3283571 110.075295,77.3283571 109.604755,77.8197787 C109.601836,77.8228339 109.601836,77.8228339 109.598934,77.8258988 L108.874952,77.8288682 L108.86039,77.8137008 C108.389339,77.3281688 107.640044,77.3305892 107.171642,77.8197787 C106.691572,78.3211535 106.689136,79.1418068 107.163531,79.6438677 L109.219281,81.7908505 L111.084663,79.8426843 Z" stroke="#073863" fill="url(#L111059910F16162100F16162.grad)" transform="translate(109.235500, 79.732515) rotate(-337.000000) translate(-109.235500, -79.732515) "/><text font-family="Muli-Bold, Muli" font-size="14" font-weight="bold" letter-spacing="0.371" fill="#343434"><tspan x="59.3265" y="133.25">Human Powered</tspan><tspan x="91.7855" y="151.25">Results</tspan></text><text font-family="Muli-Regular, Muli" font-size="12" font-weight="normal" letter-spacing="0.318" fill="#343434"><tspan x="22.205" y="186.283858">Bots on Instagram are dead. Our </tspan><tspan x="22.058" y="201.283858">team drives real results with real </tspan><tspan x="51.149" y="216.283858">people for real growth.</tspan></text><path d="M140.900459,70.4821886 L137.714384,65.3148074 L134.528309,70.4821886 L136.016511,70.4821886 L136.016511,74.5560762 L139.412257,74.5560762 L139.412257,70.4821886 L140.900459,70.4821886 Z" stroke="#073863" fill="#F16162"/><path d="M111.916355,51.820714 L108.73028,46.6533327 L105.544205,51.820714 L107.032407,51.820714 L107.032407,55.8946016 L110.428153,55.8946016 L110.428153,51.820714 L111.916355,51.820714 Z" stroke="#073863" fill="#5ACEF9"/><path d="M104.88958,73.9259115 L101.703504,68.7585302 L98.517429,73.9259115 L100.005631,73.9259115 L100.005631,77.9997991 L103.401378,77.9997991 L103.401378,73.9259115 L104.88958,73.9259115 Z" stroke="#073863" fill="#7CF6E7"/></g></svg><rect x="0" y="0" width="235" height="295" class="Rim.cls" stroke="none" fill="none"/></g></svg></svg>