<svg xmlns="http://www.w3.org/2000/svg" xmlns:xlink="http://www.w3.org/1999/xlink" width="235" height="295"><defs><rect id="A" x="4.5" y="4.5" width="226" height="286" rx="7"/><filter x="-3.5%" y="-2.4%" width="107.1%" height="105.6%" id="B"><feOffset dy="1" in="SourceAlpha"/><feGaussianBlur stdDeviation="2.5"/><feColorMatrix values="0 0 0 0 0 0 0 0 0 0 0 0 0 0 0 0 0 0 0.21 0"/></filter><linearGradient x1="50%" y1="0%" x2="50%" y2="100%" id="C"><stop stop-color="#00c9ff" offset="0%"/><stop stop-color="#09f" offset="100%"/></linearGradient><linearGradient x1="10.2277075%" y1="11.5956347%" x2="59.6114475%" y2="88.4043653%" id="D"><stop stop-color="#7cf6e7" stop-opacity=".995" offset="0%"/><stop stop-color="#3ec8b7" offset="100%"/></linearGradient><linearGradient x1="11.2183019%" y1="10.0762264%" x2="59.5254222%" y2="91.4474812%" id="E"><stop stop-color="#5acef9" offset="0%"/><stop stop-color="#19ade4" offset="100%"/></linearGradient><linearGradient x1="11.2183019%" y1="10.0762264%" x2="59.5254222%" y2="91.4474812%" id="F"><stop stop-color="#f16162" offset="0%"/><stop stop-color="#f16162" offset="100%"/></linearGradient><path id="G" d="M127.53 56.613l.062-.055c.054-.04.105-.086.153-.136.482-.504.482-1.33 0-1.833-.47-.49-1.224-.49-1.695 0l-.73.01-.015-.015c-.47-.486-1.22-.483-1.69.006-.48.5-.483 1.322-.008 1.824l2.056 2.147 1.865-1.948z"/></defs><g fill="none" fill-rule="evenodd"><use fill="#000" filter="url(#B)" xlink:href="#A"/><use fill="#fff" xlink:href="#A"/><g stroke="#073863"><circle cx="118.551" cy="65.216" r="30.5" stroke-width="1.5"/><path d="M113.496 67.38c-.158-.042-.32-.068-.484-.077-1.3-.073-2.43.93-2.503 2.24L109.712 84c0 1.312 1.063 2.375 2.375 2.375l13.06-.004c1.3-.072 2.313-1.193 2.24-2.503l-.793-14.326c-.01-.164-.035-.326-.077-.484-.34-1.267-1.642-2.02-2.91-1.68l-5.056 1.356-5.056-1.356z" stroke-width="1.25" fill="url(#C)"/><path d="M118.53 66.835c3.497 0 6.09-4.85 6.09-8.402S122.025 52 118.53 52s-6.046 2.88-6.046 6.433 2.55 8.402 6.046 8.402z" stroke-width="1.5" fill="url(#C)"/><use xlink:href="#G" fill="url(#D)" transform="matrix(.992546 -.121869 .121869 .992546 -5.935957 15.737169)"/><use xlink:href="#G" x="1.045" y="18.553" fill="url(#E)" transform="matrix(.965926 .258819 -.258819 .965926 23.744025 -30.241621)"/><use xlink:href="#G" x="-16.445" y="23.23" fill="url(#F)" transform="matrix(.920505 .390731 -.390731 .920505 39.837668 -36.343362)"/></g><text font-family="Muli-Bold, Muli" font-size="14" font-weight="bold" letter-spacing=".371" fill="#343434"><tspan x="59.327" y="133.25">Human Powered</tspan><tspan x="91.786" y="151.25">Results</tspan></text><text font-family="Muli-Regular, Muli" font-size="12" letter-spacing=".318" fill="#343434"><tspan x="22.205" y="186.284">Bots on Instagram are dead. Our </tspan><tspan x="22.058" y="201.284">team drives real results with real </tspan><tspan x="51.149" y="216.284">people for real growth.</tspan></text><g stroke="#073863"><path d="M140.9 70.482l-3.186-5.167-3.186 5.167h1.488v4.074h3.396v-4.074h1.488z" fill="#f16162"/><path d="M111.916 51.82l-3.186-5.167-3.186 5.167h1.488v4.074h3.396V51.82h1.488z" fill="#5acef9"/><path d="M104.9 73.926l-3.186-5.167-3.186 5.167h1.488V78h3.396v-4.074h1.488z" fill="#7cf6e7"/></g></g></svg>