<svg xmlns="http://www.w3.org/2000/svg" xmlns:xlink="http://www.w3.org/1999/xlink" width="235" height="295"><defs><rect id="A" x="4.5" y="4.5" width="226" height="286" rx="7"/><filter x="-3.5%" y="-2.4%" width="107.1%" height="105.6%" id="B"><feOffset dy="1" in="SourceAlpha"/><feGaussianBlur stdDeviation="2.5"/><feColorMatrix values="0 0 0 0 0 0 0 0 0 0 0 0 0 0 0 0 0 0 0.21 0"/></filter><linearGradient x1="50%" y1="0%" x2="50%" y2="100%" id="C"><stop stop-color="#00c9ff" offset="0%"/><stop stop-color="#09f" offset="100%"/></linearGradient><linearGradient x1="10.2277075%" y1="11.5956347%" x2="59.6114475%" y2="88.4043653%" id="D"><stop stop-color="#7cf6e7" stop-opacity=".994700612" offset="0%"/><stop stop-color="#3ec8b7" offset="100%"/></linearGradient><linearGradient x1="11.2183019%" y1="10.0762264%" x2="59.5254222%" y2="91.4474812%" id="E"><stop stop-color="#5acef9" offset="0%"/><stop stop-color="#19ade4" offset="100%"/></linearGradient><linearGradient x1="11.2183019%" y1="10.0762264%" x2="59.5254222%" y2="91.4474812%" id="F"><stop stop-color="#f16162" offset="0%"/><stop stop-color="#f16162" offset="100%"/></linearGradient><path id="G" d="M127.5314 56.6134877l.061608-.0545516c.053923-.040344.10508-.0856533.15309-.1357947.482264-.5036668.482264-1.3288924 0-1.8325593-.47054-.4914216-1.224067-.4914216-1.694607 0l-.00582.00612-.723982.0029694-.014562-.0151674c-.47105-.485532-1.220346-.4831116-1.688748.006078-.48007.5013748-.482506 1.322028-.00811 1.82409l2.05575 2.1469828 1.865382-1.9481662z"/></defs><g fill="none" fill-rule="evenodd"><use fill="#000" filter="url(#B)" xlink:href="#A"/><use fill="#fff" xlink:href="#A"/><g stroke="#073863"><circle cx="118.551246" cy="65.216142" r="30.5" stroke-width="1.5"/><path d="M113.495524 67.380081c-.158175-.04242-.320314-.068366-.48383-.0774243-1.309668-.0725518-2.43018.9303292-2.50273 2.2399974l-.793618 14.3259793L109.71171 84c0 1.3116763 1.063324 2.375 2.375 2.375h12.9289l.131243-.00363c1.309672-.0724835 2.31261-1.192942 2.240128-2.502614l-.79287-14.3260308c-.00905-.1635345-.034994-.325694-.077414-.48389-.33973-1.2669172-1.642173-2.0185522-2.9091-1.6788237l-5.056444 1.355904-5.05564-1.3558358z" stroke-width="1.25" fill="url(#C)"/><path d="M118.52861 66.8346094c3.496666 0 6.09134-4.849215 6.09134-8.4019015S122.025275 52 118.52861 52s-6.046067 2.8800214-6.046067 6.432708 2.5494 8.4019015 6.046067 8.4019015z" stroke-width="1.5" fill="url(#C)"/><use xlink:href="#G" fill="url(#D)" transform="matrix(.992546151641322 -.12186934340514748 .12186934340514748 .992546151641322 -5.935956781357177 15.737168512436128)"/><path d="M128.575132 75.1662453l.06161-.0545516c.053922-.040344.10508-.0856533.1531-.1357947.482265-.5036668.482265-1.3288924 0-1.8325593-.47054-.4914216-1.224067-.4914216-1.694606 0l-.005822.00612-.72398.0029694-.014563-.0151674c-.47105-.485532-1.220346-.4831116-1.688748.006078-.48007.5013748-.482506 1.322028-.00811 1.82409l2.05575 2.1469828 1.865382-1.9481662z" fill="url(#E)" transform="matrix(.9659258262890683 .2588190451025207 -.2588190451025207 .9659258262890683 23.74402460085436 -30.241620514586742)"/><use xlink:href="#G" x="-16.446737" y="23.2291966" fill="url(#F)" transform="matrix(.9205048534524399 .3907311284892747 -.3907311284892747 .9205048534524399 39.83766764393403 -36.343362221559644)"/></g><text font-family="Muli-Bold, Muli" font-size="14" font-weight="bold" letter-spacing=".371" fill="#343434"><tspan x="59.3265" y="133.25">Human Powered</tspan><tspan x="91.7855" y="151.25">Results</tspan></text><text font-family="Muli-Regular, Muli" font-size="12" letter-spacing=".318" fill="#343434"><tspan x="22.205" y="186.283858">Bots on Instagram are dead. Our </tspan><tspan x="22.058" y="201.283858">team drives real results with real </tspan><tspan x="51.149" y="216.283858">people for real growth.</tspan></text><g stroke="#073863"><path d="M140.90046 70.4821886l-3.186075-5.1673812-3.186075 5.1673812h1.488202v4.0738876h3.395746v-4.0738876h1.488202z" fill="#f16162"/><path d="M111.916355 51.820714l-3.186075-5.1673813-3.186075 5.1673813h1.488202v4.0738876h3.395746V51.820714h1.488202z" fill="#5acef9"/><path d="M104.88958 73.9259115l-3.186076-5.1673813-3.186075 5.1673813h1.488202v4.0738876h3.395747v-4.0738876h1.488202z" fill="#7cf6e7"/></g></g></svg>