<?xml version="1.0" encoding="UTF-8"?>
<svg width="64px" height="64px" viewBox="0 0 64 64" version="1.1" xmlns="http://www.w3.org/2000/svg" xmlns:xlink="http://www.w3.org/1999/xlink">
    <!-- Generator: Sketch 57.1 (83088) - https://sketch.com -->
    <title>shoutout-angle</title>
    <desc>Created with Sketch.</desc>
    <defs>
        <linearGradient x1="31.0091024%" y1="6.47770746%" x2="70.5016847%" y2="96.984631%" id="linearGradient-1">
            <stop stop-color="#00C9FF" offset="0%"></stop>
            <stop stop-color="#0099FF" offset="100%"></stop>
        </linearGradient>
        <linearGradient x1="34.0730138%" y1="6.47770746%" x2="67.1940293%" y2="96.984631%" id="linearGradient-2">
            <stop stop-color="#00C9FF" offset="0%"></stop>
            <stop stop-color="#0099FF" offset="100%"></stop>
        </linearGradient>
        <linearGradient x1="31.6227348%" y1="6.47770746%" x2="69.8392358%" y2="96.984631%" id="linearGradient-3">
            <stop stop-color="#00C9FF" offset="0%"></stop>
            <stop stop-color="#0099FF" offset="100%"></stop>
        </linearGradient>
        <linearGradient x1="21.2009291%" y1="-7.26152999%" x2="73.630415%" y2="96.984631%" id="linearGradient-4">
            <stop stop-color="#F99A9B" offset="0%"></stop>
            <stop stop-color="#F16162" offset="100%"></stop>
        </linearGradient>
        <linearGradient x1="21.324541%" y1="-7.26152999%" x2="73.5289881%" y2="96.984631%" id="linearGradient-5">
            <stop stop-color="#F99A9B" offset="0%"></stop>
            <stop stop-color="#F16162" offset="100%"></stop>
        </linearGradient>
        <linearGradient x1="10.2277075%" y1="8.40761285%" x2="59.6114475%" y2="91.5923872%" id="linearGradient-6">
            <stop stop-color="#7CF6E7" offset="0%"></stop>
            <stop stop-color="#3EC8B7" offset="100%"></stop>
        </linearGradient>
        <linearGradient x1="11.2183019%" y1="10.0762264%" x2="59.5254222%" y2="91.4474812%" id="linearGradient-7">
            <stop stop-color="#5ACEF9" offset="0%"></stop>
            <stop stop-color="#19ADE4" offset="100%"></stop>
        </linearGradient>
        <linearGradient x1="10.5678984%" y1="8.98064985%" x2="59.6114475%" y2="91.5923872%" id="linearGradient-8">
            <stop stop-color="#FF9B9C" offset="0%"></stop>
            <stop stop-color="#F16162" offset="100%"></stop>
        </linearGradient>
    </defs>
    <g id="shoutout-angle" stroke="none" stroke-width="1" fill="none" fill-rule="evenodd">
        <ellipse id="Oval" stroke="#073863" fill="#D8D8D8" transform="translate(42.442979, 28.983558) rotate(-20.000000) translate(-42.442979, -28.983558) " cx="42.4429791" cy="28.983558" rx="3.63761249" ry="3.32494123"></ellipse>
        <path d="M18.8029443,29.0074736 C18.6712452,29.1285438 18.6142633,29.3107505 18.6535178,29.4852834 L21.6191037,42.6708615 C21.6703382,42.89866 21.8724118,43.0606704 22.1059003,43.0611456 L45.6312517,43.1090198 C45.6899191,43.1091392 45.7481498,43.0989326 45.8032793,43.0788671 C46.0627682,42.9844209 46.1965618,42.6974997 46.1021155,42.4380107 L35.8515669,14.2748598 C35.8290169,14.2129043 35.7944363,14.1560205 35.7498155,14.1074823 C35.5629292,13.9041891 35.2466262,13.8908887 35.043333,14.077775 L18.8029443,29.0074736 Z" id="Rectangle" stroke="#073863" fill="url(#linearGradient-1)"></path>
        <path d="M6.55501031,33.3010553 C6.29552135,33.3955016 6.16172781,33.6824227 6.25617407,33.9419117 L11.1985462,47.5209676 C11.2929925,47.7804565 11.5799136,47.9142501 11.8394026,47.8198038 L24.2293476,43.3102326 C24.4888366,43.2157864 24.6226301,42.9288652 24.5281839,42.6693762 L19.5858117,29.0903204 C19.4913655,28.8308314 19.2044443,28.6970379 18.9449553,28.7914841 L6.55501031,33.3010553 Z" id="Rectangle" stroke="#073863" fill="url(#linearGradient-2)"></path>
        <path d="M5.04239051,36.5448789 C4.78290156,36.6393252 4.64910802,36.9262464 4.74355427,37.1857353 L7.95472259,46.0083478 C8.04916885,46.2678367 8.33609002,46.4016303 8.59557897,46.307184 L10.2835263,45.6928214 C10.5430153,45.5983752 10.6768088,45.311454 10.5823625,45.051965 L7.37119422,36.2293526 C7.27674796,35.9698636 6.98982679,35.8360701 6.73033783,35.9305164 L5.04239051,36.5448789 Z" id="Rectangle" stroke="#073863" fill="url(#linearGradient-3)"></path>
        <path d="M6.96618301,31.8047632 C6.24058028,32.068861 5.86645661,32.8711718 6.1305544,33.5967745 L11.3241659,47.8661048 C11.5882637,48.5917075 12.3905745,48.9658312 13.1161772,48.7017334 C13.84178,48.4376356 14.2159036,47.6353248 13.9518058,46.909722 L8.75819435,32.6403918 C8.49409655,31.914789 7.69178575,31.5406654 6.96618301,31.8047632 Z" id="Rectangle" stroke="#073863" fill="url(#linearGradient-4)"></path>
        <path d="M16.7197363,46.1615315 C16.687419,46.173294 16.6564015,46.1883594 16.6271765,46.2064885 C16.3925166,46.3520541 16.3202915,46.6602878 16.4658571,46.8949477 L21.0938587,54.3555429 C21.4681701,54.9589537 22.2142998,55.2172339 22.8815567,54.9743722 L23.8477209,54.6227172 C23.9622538,54.5810306 24.0712789,54.52554 24.1723847,54.4574727 C24.8595896,53.994827 25.0416308,53.062689 24.5789851,52.3754842 L19.8904933,45.4112899 C19.7622055,45.2207338 19.5205807,45.1421075 19.3047184,45.220675 L16.7197363,46.1615315 Z" id="Rectangle" stroke="#073863" fill="url(#linearGradient-5)"></path>
        <path d="M44.238341,15.8259427 L46.8292015,13.1291619 C46.9050598,13.0722497 46.9769673,13.008478 47.0443821,12.9380715 C47.7252828,12.2269528 47.7252828,11.0653812 47.0443821,10.3542625 C46.3752062,9.65538899 45.299625,9.65538899 44.6304491,10.3542625 C44.6264412,10.3584572 44.6264412,10.3584572 44.6224548,10.362665 L44.2665201,10.7391737 L43.9029153,10.3700668 L43.9427069,10.4011567 L43.8786738,10.3455065 C43.2086884,9.6551008 42.1392614,9.65862213 41.4731812,10.3542625 C40.7922804,11.0653812 40.7922804,12.2269528 41.4723385,12.9371936 L41.4810059,12.9462037 L44.238341,15.8259427 Z" id="Combined-Shape-Copy-5" stroke="#073863" fill="url(#linearGradient-6)" transform="translate(44.258779, 12.939194) rotate(-27.000000) translate(-44.258779, -12.939194) "></path>
        <path d="M54.1280246,25.5231726 L56.7188851,22.8263918 C56.7947435,22.7694796 56.866651,22.705708 56.9340657,22.6353014 C57.6149665,21.9241827 57.6149665,20.7626111 56.9340657,20.0514924 C56.2648898,19.3526189 55.1893087,19.3526189 54.5201327,20.0514924 C54.5161249,20.0556871 54.5161249,20.0556871 54.5121385,20.0598949 L54.1562037,20.4364036 L53.792599,20.0672967 L53.8323905,20.0983866 L53.7683575,20.0427364 C53.0983721,19.3523307 52.028945,19.355852 51.3628648,20.0514924 C50.6819641,20.7626111 50.6819641,21.9241827 51.3620222,22.6344235 L51.3706895,22.6434336 L54.1280246,25.5231726 Z" id="Combined-Shape-Copy-6" stroke="#073863" fill="url(#linearGradient-7)" transform="translate(54.148463, 22.636424) rotate(-365.000000) translate(-54.148463, -22.636424) "></path>
        <path d="M53.9438843,39.9058965 L56.5347448,37.2091157 C56.6106032,37.1522035 56.6825107,37.0884318 56.7499255,37.0180252 C57.4308262,36.3069065 57.4308262,35.145335 56.7499255,34.4342163 C56.0807495,33.7353428 55.0051684,33.7353428 54.3359925,34.4342163 C54.3319846,34.438411 54.3319846,34.438411 54.3279982,34.4426188 L53.9720635,34.8191275 L53.6084587,34.4500206 L53.6482502,34.4811104 L53.5842172,34.4254603 C52.9142318,33.7350546 51.8448047,33.7385759 51.1787245,34.4342163 C50.4978238,35.145335 50.4978238,36.3069065 51.1778819,37.0171473 L51.1865492,37.0261575 L53.9438843,39.9058965 Z" id="Combined-Shape-Copy-7" stroke="#073863" fill="url(#linearGradient-8)" transform="translate(53.964323, 37.019148) rotate(-50.000000) translate(-53.964323, -37.019148) "></path>
        <circle id="Oval-Copy-2" stroke="#073863" stroke-width="1.5" cx="31.5504659" cy="31.5879071" r="30.5"></circle>
    </g>
</svg>