<?xml version="1.0" encoding="UTF-8"?>
<svg width="1077px" height="634px" viewBox="0 0 1077 634" version="1.1" xmlns="http://www.w3.org/2000/svg" xmlns:xlink="http://www.w3.org/1999/xlink">
    <!-- Generator: Sketch 60.1 (88133) - https://sketch.com -->
    <title>Group 12</title>
    <desc>Created with Sketch.</desc>
    <defs>
        <rect id="path-1" x="1.13686838e-13" y="2.27373675e-13" width="1070.96429" height="628" rx="9"></rect>
        <filter x="-0.5%" y="-0.6%" width="100.9%" height="101.6%" filterUnits="objectBoundingBox" id="filter-3">
            <feOffset dx="0" dy="1" in="SourceAlpha" result="shadowOffsetOuter1"></feOffset>
            <feGaussianBlur stdDeviation="1.5" in="shadowOffsetOuter1" result="shadowBlurOuter1"></feGaussianBlur>
            <feColorMatrix values="0 0 0 0 0   0 0 0 0 0   0 0 0 0 0  0 0 0 0.5 0" type="matrix" in="shadowBlurOuter1"></feColorMatrix>
        </filter>
        <linearGradient x1="49.9994744%" y1="100%" x2="49.9994744%" y2="0%" id="linearGradient-4">
            <stop stop-color="#808080" stop-opacity="0.25" offset="0%"></stop>
            <stop stop-color="#808080" stop-opacity="0.12" offset="54%"></stop>
            <stop stop-color="#808080" stop-opacity="0.1" offset="100%"></stop>
        </linearGradient>
        <linearGradient x1="50.0143552%" y1="99.9984335%" x2="50.0143552%" y2="-0.00903255555%" id="linearGradient-5">
            <stop stop-color="#808080" stop-opacity="0.25" offset="0%"></stop>
            <stop stop-color="#808080" stop-opacity="0.12" offset="54%"></stop>
            <stop stop-color="#808080" stop-opacity="0.1" offset="100%"></stop>
        </linearGradient>
    </defs>
    <g id="Page-1" stroke="none" stroke-width="1" fill="none" fill-rule="evenodd">
        <g id="Group-12" transform="translate(3.000000, 2.000000)">
            <mask id="mask-2" fill="white">
                <use xlink:href="#path-1"></use>
            </mask>
            <g id="Mask" opacity="0.0466889881">
                <use fill="black" fill-opacity="1" filter="url(#filter-3)" xlink:href="#path-1"></use>
                <use fill="#FFFFFF" fill-rule="evenodd" xlink:href="#path-1"></use>
            </g>
            <g id="undraw_add_to_cart_vkjp" mask="url(#mask-2)">
                <g transform="translate(201.995502, 115.258929)">
                    <path d="M666.460557,357.19241 C665.848653,357.639099 665.285702,358.073551 664.686037,358.495764 C662.473494,360.060544 660.157207,361.473213 657.753173,362.724015 C645.160204,369.363166 629.636218,372.606253 614.516089,374.809105 C580.60441,379.753283 545.982923,380.713971 511.508294,381.656302 C418.35826,384.214058 324.981822,386.765695 232.058193,380.873066 C195.343997,378.547834 157.822089,374.656129 124.552909,362.724015 C119.784143,361.018845 115.109202,359.138262 110.528086,357.082267 C101.257752,352.915206 92.3545593,347.842528 84.9505298,341.784686 C77.9931897,336.106224 72.3514417,329.583335 68.9798547,322.167067 C61.9490862,306.722629 65.669458,289.375171 73.6976288,274.236685 C77.0318913,268.112362 80.7921069,262.229741 84.9505298,256.632228 C91.1491099,248.108416 97.9840693,239.829364 104.219364,231.311671 C126.406976,201.034698 140.884607,162.729553 120.404205,131.675463 C114.517695,122.753913 106.01224,114.921552 101.214919,105.608384 C95.0958859,93.6946274 95.5670514,80.4652789 97.5129038,67.6153104 C97.7658238,65.9835684 98.0330216,64.3681438 98.3144971,62.7690366 C101.637132,43.714369 107.890783,23.1850146 127.171855,11.2896152 C147.199449,-1.07083071 175.640712,-0.446689381 200.496223,3.94677604 C239.150152,10.8490448 274.805755,25.2165334 310.840738,38.1888826 C346.875721,51.1612317 384.575081,63.0137979 424.17746,64.2865567 C459.147731,65.4124587 499.937203,56.9865508 523.146694,35.086533 C545.68921,13.8167756 588.063511,12.195232 618.603602,25.0452005 C639.567408,33.8627265 655.207656,49.7477352 661.803973,67.6153104 C663.139931,71.2024926 664.101646,74.9181196 664.673799,78.7029975 C665.202516,82.1620348 665.374752,85.6662106 665.187798,89.1604243 C665.096012,90.8859915 664.91856,92.5932016 664.673799,94.2820546 C659.570526,129.539921 622.837973,157.350924 600.509623,188.845585 C589.599388,204.228833 581.895526,222.708311 589.39746,239.297009 C600.840051,264.574732 640.63212,273.563591 664.661561,292.373497 C669.183534,295.796868 673.164676,299.881147 676.471294,304.489182 C688.128051,321.230855 683.826371,343.840681 666.460557,357.19241 Z" id="Path" fill="#80CCFF" fill-rule="nonzero" opacity="0.1"></path>
                    <g id="d00831fc-a64a-413c-b5dd-d7bd6eafa01d" stroke-width="1" fill="none" fill-rule="evenodd">
                        <path d="M157.864922,199.394797 C157.864922,199.394797 129.717372,149.512443 87.3002383,135.144954 C69.4999725,129.111588 53.9637487,117.766902 43.341108,102.261273 C38.3121162,94.8994915 33.9697683,87.0914583 30.3687589,78.9355208" id="Path" stroke="#535461" stroke-width="2"></path>
                        <path d="M3.6958957,69.7019005 C8.52993147,74.3707224 31.0357334,79.2659485 31.0357334,79.2659485 C31.0357334,79.2659485 25.5286041,56.9192414 20.6823302,52.2259434 C15.8344496,47.6352792 8.1963745,47.796268 3.54622949,52.5871235 C-1.10391551,57.3779789 -1.03720478,65.0174592 3.6958957,69.7263767 L3.6958957,69.7019005 Z" id="Path" fill="#80CCFF" fill-rule="nonzero"></path>
                        <path d="M16.4296026,110.142587 C23.0320388,111.45206 44.5771526,103.29539 44.5771526,103.29539 C44.5771526,103.29539 27.7804081,87.5327616 21.1718529,86.2232886 C14.6389195,85.0729228 8.38461199,89.3552773 7.0945724,95.8620705 C5.80453281,102.368864 9.95193537,108.713466 16.4296026,110.142587 L16.4296026,110.142587 Z" id="Path" fill="#80CCFF" fill-rule="nonzero"></path>
                        <path d="M62.7812747,153.918146 C69.1450686,151.715295 83.5859856,133.804886 83.5859856,133.804886 C83.5859856,133.804886 61.1413739,128.671018 54.783699,130.87387 C50.5363107,132.193365 47.3440753,135.720514 46.453474,140.07806 C45.5628726,144.435606 47.1151539,148.932445 50.5041944,151.812685 C53.8932348,154.692925 58.581535,155.499761 62.7384414,153.918146 L62.7812747,153.918146 Z" id="Path" fill="#80CCFF" fill-rule="nonzero"></path>
                        <path d="M105.308551,179.122442 C111.953821,178.021016 129.233969,162.81522 129.233969,162.81522 C129.233969,162.81522 107.982569,153.96098 101.337299,155.056287 C94.691614,156.152918 90.1932169,162.429305 91.2898479,169.07499 C92.3864789,175.720675 98.6628661,180.219073 105.308551,179.122442 L105.308551,179.122442 Z" id="Path" fill="#80CCFF" fill-rule="nonzero"></path>
                        <path d="M63.3258686,85.8316705 C63.3258686,92.5626064 51.1489936,112.100678 51.1489936,112.100678 C51.1489936,112.100678 38.9476426,92.5748445 38.9415236,85.8439086 C38.8424759,81.4229511 41.1443848,77.294763 44.9573911,75.0551965 C48.7703975,72.8156299 53.4969947,72.8156299 57.310001,75.0551965 C61.1230074,77.294763 63.4249163,81.4229511 63.3258686,85.8439086 L63.3258686,85.8316705 Z" id="Path" fill="#80CCFF" fill-rule="nonzero"></path>
                        <path d="M112.694224,115.980144 C110.681062,122.405128 93.2112239,137.396758 93.2112239,137.396758 C93.2112239,137.396758 87.4103809,115.092884 89.3990665,108.637305 C91.6197192,102.496358 98.2835551,99.1944002 104.514792,101.147401 C110.746029,103.100402 114.333085,109.615205 112.65139,115.925073 L112.694224,115.980144 Z" id="Path" fill="#80CCFF" fill-rule="nonzero"></path>
                        <path d="M156.653354,151.80708 C155.759975,158.482945 141.074297,176.209782 141.074297,176.209782 C141.074297,176.209782 131.589796,155.233738 132.507651,148.557874 C133.496421,141.969323 139.589686,137.393646 146.192623,138.281281 C152.79556,139.168917 157.464123,145.19131 156.67783,151.80708 L156.653354,151.80708 Z" id="Path" fill="#80CCFF" fill-rule="nonzero"></path>
                        <path d="M3.6958957,69.7019005 C8.52993147,74.3707224 31.0357334,79.2659485 31.0357334,79.2659485 C31.0357334,79.2659485 25.5286041,56.9192414 20.6823302,52.2259434 C15.8344496,47.6352792 8.1963745,47.796268 3.54622949,52.5871235 C-1.10391551,57.3779789 -1.03720478,65.0174592 3.6958957,69.7263767 L3.6958957,69.7019005 Z" id="Path" fill="#000000" fill-rule="nonzero" opacity="0.25"></path>
                        <path d="M16.4296026,110.142587 C23.0320388,111.45206 44.5771526,103.29539 44.5771526,103.29539 C44.5771526,103.29539 27.7804081,87.5327616 21.1718529,86.2232886 C14.6389195,85.0729228 8.38461199,89.3552773 7.0945724,95.8620705 C5.80453281,102.368864 9.95193537,108.713466 16.4296026,110.142587 L16.4296026,110.142587 Z" id="Path" fill="#000000" fill-rule="nonzero" opacity="0.25"></path>
                        <path d="M62.7812747,153.918146 C69.1450686,151.715295 83.5859856,133.804886 83.5859856,133.804886 C83.5859856,133.804886 61.1413739,128.671018 54.783699,130.87387 C50.5363107,132.193365 47.3440753,135.720514 46.453474,140.07806 C45.5628726,144.435606 47.1151539,148.932445 50.5041944,151.812685 C53.8932348,154.692925 58.581535,155.499761 62.7384414,153.918146 L62.7812747,153.918146 Z" id="Path" fill="#000000" fill-rule="nonzero" opacity="0.25"></path>
                        <path d="M105.308551,179.122442 C111.953821,178.021016 129.233969,162.81522 129.233969,162.81522 C129.233969,162.81522 107.982569,153.96098 101.337299,155.056287 C94.691614,156.152918 90.1932169,162.429305 91.2898479,169.07499 C92.3864789,175.720675 98.6628661,180.219073 105.308551,179.122442 L105.308551,179.122442 Z" id="Path" fill="#000000" fill-rule="nonzero" opacity="0.25"></path>
                        <path d="M63.3258686,85.8316705 C63.3258686,92.5626064 51.1489936,112.100678 51.1489936,112.100678 C51.1489936,112.100678 38.9476426,92.5748445 38.9415236,85.8439086 C38.8424759,81.4229511 41.1443848,77.294763 44.9573911,75.0551965 C48.7703975,72.8156299 53.4969947,72.8156299 57.310001,75.0551965 C61.1230074,77.294763 63.4249163,81.4229511 63.3258686,85.8439086 L63.3258686,85.8316705 Z" id="Path" fill="#000000" fill-rule="nonzero" opacity="0.25"></path>
                        <path d="M112.694224,115.980144 C110.681062,122.405128 93.2112239,137.396758 93.2112239,137.396758 C93.2112239,137.396758 87.4103809,115.092884 89.3990665,108.637305 C91.6197192,102.496358 98.2835551,99.1944002 104.514792,101.147401 C110.746029,103.100402 114.333085,109.615205 112.65139,115.925073 L112.694224,115.980144 Z" id="Path" fill="#000000" fill-rule="nonzero" opacity="0.25"></path>
                        <path d="M156.653354,151.80708 C155.759975,158.482945 141.074297,176.209782 141.074297,176.209782 C141.074297,176.209782 131.589796,155.233738 132.507651,148.557874 C133.496421,141.969323 139.589686,137.393646 146.192623,138.281281 C152.79556,139.168917 157.464123,145.19131 156.67783,151.80708 L156.653354,151.80708 Z" id="Path" fill="#000000" fill-rule="nonzero" opacity="0.25"></path>
                        <path d="M156.243379,198.403514 C156.243379,198.403514 150.736249,141.386368 117.766902,111.060442 C103.944007,98.3328542 94.3371259,81.6890854 90.9043486,63.1851308 C89.2930221,54.4147872 88.4901004,45.5150557 88.5054651,36.5979341" id="Path" stroke="#535461" stroke-width="2"></path>
                        <path d="M67.8539527,17.3658146 C70.3749941,23.6133469 88.9829723,37.1670041 88.9829723,37.1670041 C88.9829723,37.1670041 92.9909387,14.4959883 90.4760163,8.24845597 C87.9583271,1.99647658 80.8491062,-1.03076385 74.5971267,1.48692516 C68.3451473,4.00461418 65.3179067,11.1138351 67.8355956,17.3658146 L67.8539527,17.3658146 Z" id="Path" fill="#80CCFF" fill-rule="nonzero"></path>
                        <path d="M63.0872263,59.4953541 C68.5943556,63.3687018 91.5835612,64.6353415 91.5835612,64.6353415 C91.5835612,64.6353415 82.6681307,43.4267745 77.1610013,39.5534268 C71.6541901,35.6670612 64.0395158,36.9806918 60.1531501,42.487503 C56.2667845,47.9943141 57.5804151,55.6089885 63.0872263,59.4953541 Z" id="Path" fill="#80CCFF" fill-rule="nonzero"></path>
                        <path d="M87.7530468,118.28702 C94.4839826,118.85609 114.946028,108.337472 114.946028,108.337472 C114.946028,108.337472 96.5093824,94.551292 89.7968037,93.988341 C85.4002926,93.5202479 81.0947852,95.4684067 78.5442166,99.0799189 C75.9936481,102.691431 75.5975647,107.400554 77.5090396,111.387367 C79.4205145,115.374181 83.3401153,118.014152 87.7530468,118.28702 L87.7530468,118.28702 Z" id="Path" fill="#80CCFF" fill-rule="nonzero"></path>
                        <path d="M116.414596,158.57473 C122.937484,160.263583 144.898692,153.361314 144.898692,153.361314 C144.898692,153.361314 129.056517,136.656355 122.539747,134.967502 C116.067487,133.399475 109.53411,137.313498 107.863178,143.759957 C106.192245,150.206416 110.001692,156.801316 116.420715,158.57473 L116.414596,158.57473 Z" id="Path" fill="#80CCFF" fill-rule="nonzero"></path>
                        <path d="M115.833287,56.276743 C113.110318,62.4324898 94.0556504,75.3497676 94.0556504,75.3497676 C94.0556504,75.3497676 90.8125631,52.5624902 93.5355326,46.4006243 C95.2519404,42.3430624 99.0233797,39.5267145 103.401323,39.0332787 C107.779266,38.5398429 112.082981,40.446044 114.659506,44.0197517 C117.23603,47.5934594 117.684737,52.2789937 115.833287,56.276743 L115.833287,56.276743 Z" id="Path" fill="#80CCFF" fill-rule="nonzero"></path>
                        <path d="M148.753683,103.809388 C144.311265,108.869828 122.264391,115.496741 122.264391,115.496741 C122.264391,115.496741 125.984763,92.7828916 130.433299,87.7224516 C133.306954,84.4498301 137.708243,82.9588796 141.979243,83.8112267 C146.250244,84.6635737 149.742089,87.7297266 151.139435,91.8546952 C152.536781,95.9796637 151.627338,100.536767 148.753683,103.809388 L148.753683,103.809388 Z" id="Path" fill="#80CCFF" fill-rule="nonzero"></path>
                        <path d="M174.45362,154.407669 C170.929057,160.147322 150.320155,170.40282 150.320155,170.40282 C150.320155,170.40282 150.148822,147.38302 153.673385,141.643367 C157.19815,135.898305 164.712829,134.098398 170.457892,137.623163 C176.202954,141.147927 178.002861,148.662607 174.478096,154.407669 L174.45362,154.407669 Z" id="Path" fill="#80CCFF" fill-rule="nonzero"></path>
                    </g>
                    <ellipse id="Oval" fill="#80CCFF" fill-rule="nonzero" opacity="0.1" cx="249.754435" cy="512.885076" rx="68.2455708" ry="8.88483536"></ellipse>
                    <g id="5cfdbbb0-8197-4f02-a5fd-2740d54b5dec" stroke-width="1" fill="none" fill-rule="evenodd" transform="translate(89.337876, 446.389318)">
                        <ellipse id="Oval" fill="#80CCFF" fill-rule="nonzero" opacity="0.1" cx="22.5669923" cy="65.8104262" rx="20.7312825" ry="3.54903892"></ellipse>
                        <path d="M44.4693256,0.807349931 C44.4693256,0.807349931 49.9954603,8.04467395 41.9126075,18.9258245 C33.8297547,29.8069751 27.1661823,39.0574629 29.8336244,45.8720225 C29.8336244,45.8720225 42.0233315,25.5893968 51.9784267,25.3075539 C61.9335219,25.025711 55.4008052,13.0071228 44.4693256,0.807349931 Z" id="Path" fill="#80CCFF" fill-rule="nonzero"></path>
                        <path d="M44.4693256,0.807349931 C44.9520414,1.50778549 45.3317045,2.27389137 45.5966973,3.08222507 C55.2800154,14.4566008 60.4437807,25.0760401 51.1328979,25.3377514 C42.4662276,25.5893968 32.0581705,41.0907584 29.5719131,45.0063621 C29.6540181,45.3097214 29.751446,45.6087243 29.8638219,45.90222 C29.8638219,45.90222 42.053529,25.6195943 52.0086242,25.3377514 C61.9637194,25.0559084 55.4008052,13.0071228 44.4693256,0.807349931 Z" id="Path" fill="#000000" fill-rule="nonzero" opacity="0.1"></path>
                        <path d="M54.746527,10.0276403 C54.746527,12.5742926 54.4646841,14.6377855 54.1123804,14.6377855 C53.7600767,14.6377855 53.468168,12.6246217 53.468168,10.0276403 C53.468168,7.43065897 53.8305374,8.67882056 54.1828411,8.67882056 C54.5351448,8.67882056 54.746527,7.48098807 54.746527,10.0276403 Z" id="Path" fill="#FFD037" fill-rule="nonzero"></path>
                        <path d="M58.2796295,13.0675177 C56.0450177,14.2854819 54.0922487,15.0202867 53.9211298,14.7082463 C53.7500109,14.3962059 55.4310027,13.1581101 57.6656146,11.940146 C59.9002264,10.7221819 59.0144343,11.6079739 59.1855533,11.940146 C59.3566722,12.272318 60.5142414,11.8495536 58.2796295,13.0675177 Z" id="Path" fill="#FFD037" fill-rule="nonzero"></path>
                        <path d="M15.2583182,0.807349931 C15.2583182,0.807349931 9.73218347,8.04467395 17.8150363,18.9258245 C25.8978891,29.8069751 32.5614614,39.0574629 29.8940194,45.8720225 C29.8940194,45.8720225 17.7043123,25.5893968 7.74921709,25.3075539 C-2.20587812,25.025711 4.34697019,13.0071228 15.2583182,0.807349931 Z" id="Path" fill="#80CCFF" fill-rule="nonzero"></path>
                        <path d="M15.2583182,0.807349931 C14.7756024,1.50778549 14.3959393,2.27389137 14.1309465,3.08222507 C4.44762838,14.4566008 -0.716136873,25.0760401 8.5947459,25.3377514 C17.2714821,25.5893968 27.6694733,41.0907584 30.1557307,45.0063621 C30.0782118,45.3110693 29.9806976,45.610337 29.8638219,45.90222 C29.8638219,45.90222 17.6741148,25.6195943 7.71901963,25.3377514 C-2.23607557,25.0559084 4.34697019,13.0071228 15.2583182,0.807349931 Z" id="Path" fill="#000000" fill-rule="nonzero" opacity="0.1"></path>
                        <path d="M4.9811168,10.0276403 C4.9811168,12.5742926 5.26295974,14.6377855 5.61526341,14.6377855 C5.96756709,14.6377855 6.25947584,12.6246217 6.25947584,10.0276403 C6.25947584,7.43065897 5.89710635,8.67882056 5.54480268,8.67882056 C5.19249901,8.67882056 4.9811168,7.48098807 4.9811168,10.0276403 Z" id="Path" fill="#FFD037" fill-rule="nonzero"></path>
                        <path d="M1.45808008,13.0675177 C3.69269194,14.2854819 5.63539505,15.0202867 5.80651398,14.7082463 C5.9776329,14.3962059 4.2966411,13.1581101 2.06202923,11.940146 C-0.172582635,10.7221819 0.713209456,11.6079739 0.542090529,11.940146 C0.370971602,12.272318 -0.776531788,11.8495536 1.45808008,13.0675177 Z" id="Path" fill="#FFD037" fill-rule="nonzero"></path>
                        <path d="M6.74263516,44.956033 C6.74263516,44.956033 22.2037335,44.4728737 26.8742736,41.1612192 C31.5448137,37.8495646 50.6497386,33.873566 51.8073078,39.1983844 C52.964877,44.5232028 75.0392185,65.6614231 57.585088,65.8023446 C40.1309575,65.9432661 17.0299024,63.0845734 12.3794939,60.2560782 C7.72908545,57.427583 6.74263516,44.956033 6.74263516,44.956033 Z" id="Path" fill="#A8A8A8" fill-rule="nonzero"></path>
                        <path d="M57.8870626,63.9502339 C40.4329321,64.0911553 17.331877,61.2324627 12.6814685,58.4039675 C9.13830014,56.2398163 7.72908545,48.4992014 7.25599194,44.9359014 L6.74263516,44.9359014 C6.74263516,44.9359014 7.74921709,57.3973855 12.3694281,60.2359466 C16.9896391,63.0745076 40.1208917,65.9231344 57.5750222,65.782213 C62.6079318,65.782213 64.3593843,63.9502339 64.2587261,61.2928576 C63.5641846,62.9235203 61.6416132,63.9200364 57.8870626,63.9502339 Z" id="Path" fill="#000000" fill-rule="nonzero" opacity="0.2"></path>
                        <path d="M345.170484,44.2496768 C345.170484,44.2496768 306.989626,41.9469051 311.495834,68.7042091 C311.495834,68.7042091 310.592786,73.4271487 314.882263,75.5764023 C314.882263,75.5764023 314.954507,73.5987278 318.80149,74.2669831 C320.170366,74.4975283 321.561829,74.5642214 322.946479,74.4656536 C324.82202,74.3421205 326.605086,73.6060503 328.021608,72.3705828 L328.021608,72.3705828 C328.021608,72.3705828 338.749814,67.945649 342.921895,50.3994318 C342.921895,50.3994318 346.010318,46.5705094 345.892922,45.5861874 L339.445161,48.2953306 C339.445161,48.2953306 341.648598,52.9460263 339.914746,56.8110706 C339.914746,56.8110706 339.707045,48.4669096 338.46987,48.6836411 C338.217016,48.6836411 335.119563,50.291066 335.119563,50.291066 C335.119563,50.291066 338.912363,58.4184955 336.02261,64.2702448 C336.02261,64.2702448 337.106268,54.3367198 333.909479,50.878047 L329.39424,53.5239769 C329.39424,53.5239769 333.819174,61.8861988 330.821055,68.7132396 C330.821055,68.7132396 331.588646,58.2469165 328.44604,54.1651408 L324.337173,57.3709602 C324.337173,57.3709602 328.491192,65.6157859 325.953628,71.2778951 C325.953628,71.2778951 325.628531,59.0957813 323.443156,58.1746726 C323.443156,58.1746726 319.830965,61.3443702 319.298167,62.6899113 C319.298167,62.6899113 322.142767,68.6680872 320.381824,71.8287542 C320.381824,71.8287542 319.298167,63.7013247 318.404149,63.7013247 C318.404149,63.7013247 314.791958,69.119611 314.4488,72.7318019 C314.4488,72.7318019 314.611349,67.2503023 317.537223,63.1504656 C315.471789,63.5439348 313.566458,64.5326976 312.055724,65.9950659 C312.055724,65.9950659 312.615613,62.193235 318.377058,61.8591074 C318.377058,61.8591074 321.339054,57.7773316 322.133736,57.5335088 C322.133736,57.5335088 316.354231,57.045863 312.850406,58.5991051 C312.850406,58.5991051 315.929799,54.9869142 323.190302,56.6394915 L327.244987,53.3343369 C327.244987,53.3343369 319.641325,52.2868015 316.408414,53.4427026 C316.408414,53.4427026 320.12897,50.2639746 328.337674,52.5396549 L332.762608,49.9027555 C332.762608,49.9027555 326.269695,48.5030315 322.404651,48.9997078 C322.404651,48.9997078 326.486426,46.7962713 334.053966,49.1803173 L337.214633,47.7625324 C337.214633,47.7625324 332.455572,46.8594847 331.064878,46.6879056 C329.674185,46.5163265 329.601941,46.1551075 329.601941,46.1551075 C332.613541,45.6530094 335.705409,45.9968976 338.533083,47.14846 C338.533083,47.14846 345.28788,44.6741092 345.170484,44.2496768 Z" id="Path" fill="#80CCFF" fill-rule="nonzero"></path>
                        <path d="M278.281739,45.6764922 C278.281739,45.6764922 256.753081,44.3761034 259.317737,59.4660309 C259.052124,61.0353476 259.824253,62.5978155 261.232198,63.3401056 C261.232198,63.3401056 261.232198,62.2203264 263.444665,62.5996065 C264.214548,62.7248393 264.995956,62.7642126 265.774528,62.7170027 C266.830902,62.6397843 267.83448,62.2250565 268.637189,61.5340102 L268.637189,61.5340102 C268.637189,61.5340102 274.687609,59.032568 277.044564,49.1441954 C277.044564,49.1441954 278.778415,46.9859114 278.715202,46.4350523 L275.103011,47.9792639 C275.103011,47.9792639 276.340186,50.6071327 275.364895,52.7834777 C275.364895,52.7834777 275.247499,48.0785991 274.552152,48.1869648 C274.407664,48.1869648 272.664782,49.0900126 272.664782,49.0900126 C272.664782,49.0900126 274.795975,53.6052512 273.18855,56.9736192 C273.18855,56.9736192 273.793592,51.3476319 271.996527,49.4151097 L269.440902,50.914169 C269.440902,50.914169 271.933313,55.6280781 270.244614,59.4750614 C270.244614,59.4750614 270.678077,53.5691293 268.899073,51.275388 L266.587271,53.0814835 C266.587271,53.0814835 268.926165,57.7321793 267.490319,60.9199377 C267.490319,60.9199377 267.300679,54.0477446 266.072534,53.5330074 C265.19322,54.2744714 264.407771,55.1205719 263.73364,56.0525105 C263.73364,56.0525105 265.341065,59.429909 264.347713,61.208913 C264.347713,61.208913 263.73364,56.630461 263.236964,56.6124001 C263.236964,56.6124001 261.214137,59.6466404 261.006436,61.7236502 C261.097966,59.796528 261.69602,57.9276099 262.740288,56.3053639 C261.576928,56.5254684 260.503367,57.0810835 259.651864,57.9037583 C259.651864,57.9037583 259.967931,55.7545047 263.264055,55.5738952 C263.264055,55.5738952 264.925663,53.2711235 265.377187,53.1356664 C265.377187,53.1356664 262.117185,52.8557216 260.13951,53.7316779 C260.13951,53.7316779 261.882392,51.708851 265.973199,52.6299596 L268.257909,50.7606508 C268.257909,50.7606508 263.968433,50.1736698 262.153307,50.8238642 C262.153307,50.8238642 264.248377,49.0177687 268.881012,50.3362184 L271.364393,48.8552201 C269.450486,48.4311361 267.489039,48.2611036 265.530705,48.3495134 C265.530705,48.3495134 267.833477,47.112338 272.095862,48.4488487 L273.901958,47.6541667 C273.901958,47.6541667 271.192814,47.1213685 270.443285,47.0400942 C269.693755,46.9588199 269.612481,46.7420885 269.612481,46.7420885 C271.311615,46.4594619 273.055835,46.6532641 274.651487,47.3019781 C274.651487,47.3019781 278.344952,45.920315 278.281739,45.6764922 Z" id="Path" fill="#80CCFF" fill-rule="nonzero"></path>
                        <ellipse id="Oval" fill="#80CCFF" fill-rule="nonzero" opacity="0.1" cx="262.634999" cy="66.5997814" rx="10.322808" ry="1.7439243"></ellipse>
                        <path d="M319.253014,13.6995723 C319.253014,13.6995723 293.272331,12.1282693 296.333663,30.3427418 C296.011082,32.2379445 296.943993,34.1256306 298.645465,35.020529 C298.645465,35.020529 298.645465,33.6749879 301.309456,34.1174813 C302.240779,34.2661794 303.185672,34.311607 304.126965,34.2529385 C305.403268,34.1615346 306.616121,33.6611931 307.585638,32.8261231 L307.585638,32.8261231 C307.585638,32.8261231 314.891294,29.8099437 317.726864,17.8626223 C317.726864,17.8626223 319.830965,15.2618449 319.74969,14.5935895 L315.360878,16.4628983 C315.360878,16.4628983 316.859938,19.6325958 315.685976,22.2604647 C315.685976,22.2604647 315.541488,16.5802945 314.692623,16.7157517 C314.530075,16.7157517 312.416943,17.8084394 312.416943,17.8084394 C312.416943,17.8084394 314.999659,23.326061 313.049076,27.3265624 C313.049076,27.3265624 313.789575,20.5356436 311.61323,18.2057804 L308.524807,20.0118759 C308.524807,20.0118759 311.540987,25.7010765 309.500099,30.3517723 C309.500099,30.3517723 310.023866,23.2267258 307.874613,20.4182474 L305.075165,22.5945924 C305.075165,22.5945924 307.910735,28.2025187 306.185914,32.0585325 C306.185914,32.0585325 305.960152,23.7685544 304.470123,23.136421 C304.470123,23.136421 302.022864,25.2947051 301.652614,26.1796918 C301.652614,26.1796918 303.594167,30.2524371 302.384083,32.4016906 C302.384083,32.4016906 301.652614,26.8840691 301.047572,26.8569776 C301.047572,26.8569776 298.609343,30.4691685 298.338429,33.0247936 C298.454934,30.705703 299.177297,28.457661 300.4335,26.504789 C299.028624,26.7719838 297.732364,27.4436533 296.703913,28.4373111 C296.703913,28.4373111 297.083193,25.8455642 301.038542,25.6198022 C301.038542,25.6198022 303.052338,22.8474457 303.594167,22.6758667 C303.594167,22.6758667 299.656879,22.3507695 297.272833,23.4073353 C297.272833,23.4073353 299.367903,20.960076 304.316605,22.0708247 L307.079931,19.8222359 C307.079931,19.8222359 301.896437,19.1088282 299.702031,19.8944797 C299.702031,19.8944797 302.230565,17.7361956 307.82946,19.3074987 L310.836609,17.5014032 C310.836609,17.5014032 306.420706,16.5983555 303.792837,16.8963612 C303.792837,16.8963612 306.565194,15.397302 311.721596,17.0137574 L313.87085,16.0565269 C313.87085,16.0565269 310.628908,15.415363 309.680708,15.3160277 C308.732508,15.2166925 308.687356,14.9548086 308.687356,14.9548086 C310.736833,14.6137641 312.840751,14.8482274 314.764867,15.6320944 C314.764867,15.6320944 319.343319,13.9885476 319.253014,13.6995723 Z" id="Path" fill="#80CCFF" fill-rule="nonzero"></path>
                        <ellipse id="Oval" fill="#80CCFF" fill-rule="nonzero" opacity="0.1" cx="288.322698" cy="47.5940661" rx="12.4644694" ry="2.10494722"></ellipse>
                    </g>
                    <g id="1cf578eb-5ffb-4cd7-95b8-45aaaddab7e0" stroke-width="1" fill="none" fill-rule="evenodd" transform="translate(83.218844, 58.742713)">
                        <path d="M582.593095,299.63067 L582.593095,0.330427761 L0.458927446,0.330427761 L0.458927446,282.460665 C7.89355208,288.665364 16.8334587,293.884899 26.1588644,298.17434 C30.7522183,300.291526 35.4434766,302.22718 40.2326395,303.981302 L575.647993,303.981302 L582.593095,299.63067 Z" id="Path" fill="url(#linearGradient-4)" fill-rule="nonzero"></path>
                        <path d="M581.467193,299.753051 L581.467193,8.89707343 L1.73168623,8.89707343 L1.73168623,283.090925 C9.1357157,289.124291 18.0389082,294.196969 27.3092426,298.388507 C31.886279,300.428184 36.5612199,302.308767 41.3340653,304.030255 L574.53433,304.030255 L581.467193,299.753051 Z" id="Path" fill="#FF7D7D" fill-rule="nonzero"></path>
                        <rect id="Rectangle" fill="#5A5773" fill-rule="nonzero" x="1.73780526" y="1.1809733" width="579.729388" height="15.383248"></rect>
                    </g>
                    <g id="6703b009-63cb-4af0-a0d7-9948e224c180" stroke-width="1" fill="none" fill-rule="evenodd" transform="translate(92.397393, 63.637939)">
                        <circle id="Oval" fill="#FFFFFF" fill-rule="nonzero" cx="4.13646605" cy="3.9773712" r="3.9773712"></circle>
                        <circle id="Oval" fill="#FFFFFF" fill-rule="nonzero" cx="14.8447731" cy="3.9773712" r="3.9773712"></circle>
                        <circle id="Oval" fill="#FFFFFF" fill-rule="nonzero" cx="25.5530802" cy="3.9773712" r="3.9773712"></circle>
                    </g>
                    <g id="8c4e1fb4-b9ff-4530-b767-610e84618ea6" stroke-width="1" fill="none" fill-rule="evenodd" transform="translate(100.352135, 108.918781)">
                        <rect id="Rectangle" fill="#80CCFF" fill-rule="nonzero" x="132.752413" y="0.195809044" width="95.7628605" height="60.1745668"></rect>
                        <rect id="Rectangle" fill="#5A5773" fill-rule="nonzero" opacity="0.2" x="0.159094848" y="0.195809044" width="95.7628605" height="60.1745668"></rect>
                        <rect id="Rectangle" fill="#5A5773" fill-rule="nonzero" opacity="0.2" x="265.34573" y="0.195809044" width="95.7628605" height="60.1745668"></rect>
                        <rect id="Rectangle" fill="#5A5773" fill-rule="nonzero" opacity="0.2" x="0.159094848" y="86.2232886" width="95.7628605" height="60.1745668"></rect>
                        <rect id="Rectangle" fill="#5A5773" fill-rule="nonzero" opacity="0.2" x="132.752413" y="86.2232886" width="95.7628605" height="60.1745668"></rect>
                        <rect id="Rectangle" fill="#5A5773" fill-rule="nonzero" opacity="0.2" x="265.34573" y="86.2232886" width="95.7628605" height="60.1745668"></rect>
                        <rect id="Rectangle" fill="#5A5773" fill-rule="nonzero" opacity="0.2" x="0.159094848" y="172.244649" width="95.7628605" height="60.1745668"></rect>
                        <rect id="Rectangle" fill="#5A5773" fill-rule="nonzero" opacity="0.2" x="132.752413" y="172.244649" width="95.7628605" height="60.1745668"></rect>
                        <rect id="Rectangle" fill="#5A5773" fill-rule="nonzero" opacity="0.2" x="265.34573" y="172.244649" width="95.7628605" height="60.1745668"></rect>
                    </g>
                    <g id="2796dd85-6618-42ad-b8a0-d6b4cc80ab2d" stroke-width="1" fill="none" fill-rule="evenodd" transform="translate(210.494722, 123.604459)">
                        <path d="M101.251633,136.295333 C101.251633,136.295333 84.051032,104.855743 86.9514535,99.7402317 C89.851875,94.6247204 91.9874173,87.2206909 91.9874173,87.2206909 C91.9874173,87.2206909 98.3389732,82.8761778 98.3389732,81.1016583 C98.3389732,79.3271388 103.368818,75.221268 106.018359,73.4345104 C108.6679,71.6477529 107.34007,63.2096069 106.018359,62.1877285 C104.696648,61.16585 102.59782,57.586216 102.59782,57.586216 C102.59782,57.586216 104.43353,52.4768237 102.59782,50.9409465 C100.76211,49.4050694 102.867057,47.8814302 102.59782,46.339434 C102.328582,44.7974378 102.59782,39.1862849 102.59782,39.1862849 C100.450039,36.200197 98.0697358,34.8050575 95.8301698,34.2910588 L95.6343608,33.4833465 L94.5023397,28.7166201 C94.5023397,28.7166201 100.009469,18.1612888 91.0756815,12.6358024 C90.4437612,12.2401975 89.7830974,11.8924796 89.0992339,11.5955668 C89.0992339,11.5955668 89.0992339,11.3385674 89.0502817,10.9041161 C88.927901,9.32540571 88.55464,5.39698677 87.7530468,2.82087404 C87.2880003,1.34006814 86.6822161,0.342665827 85.917337,0.569070033 C85.7295086,0.623470801 85.557451,0.722089192 85.4155763,0.856664566 C85.051514,1.18654947 84.7326074,1.56306496 84.4671262,1.97644754 C84.4671262,1.97644754 84.4671262,1.97644754 84.4671262,1.97644754 C84.4565303,2.00102512 84.4420697,2.02374884 84.424293,2.04375689 C83.409959,3.86441497 82.6989986,5.83815678 82.3193458,7.88743304 C82.0480044,9.09905319 81.8437261,10.3247228 81.7074425,11.5588526 C81.3204485,12.293835 80.979174,13.0519959 80.6855641,13.8290137 C79.6024953,16.6376497 78.3358556,21.5022806 80.6427309,25.1002718 C82.6008213,28.1597881 85.2381244,32.3635635 87.1533816,35.4230798 L87.2145719,35.5209843 L87.3308335,35.7106744 L87.1289054,35.839174 L87.1289054,36.3103396 L87.3063574,38.8864523 L88.7871633,61.1474929 C88.3420166,61.0184598 87.8879839,60.9223358 87.428738,60.8598984 C86.7744284,60.7641866 86.1134849,60.7212151 85.4522905,60.7313987 C84.1611746,55.6587207 80.6182547,50.9409465 79.9451611,45.6418643 C79.8800486,45.1119287 79.8453173,44.5787011 79.8411376,44.0447968 C79.8962089,40.709924 80.7283973,37.3628132 80.661088,34.0340594 C80.661088,33.4221562 80.661088,32.8102529 80.5998976,32.1983496 L80.5998976,32.1983496 C80.5998976,32.0331358 80.5693025,31.8618028 80.5509454,31.6904699 C79.8710452,26.7737737 76.8101582,22.5086784 72.3697988,20.2907122 C70.8339216,19.5258331 69.1695447,19.0179534 67.6765007,18.1796459 C64.2253663,16.2460316 62.0163956,12.758183 58.8834509,10.3656413 C56.5520994,8.58500276 53.0703699,7.63043367 50.469781,8.52993147 C49.0910725,8.73774462 47.724551,9.01962799 46.3761482,9.37435797 L46.3761482,9.37435797 C43.0892436,10.2344562 39.9367596,11.5440446 37.0079093,13.2660627 C36.6101721,13.504705 36.212435,13.7494663 35.833055,14.0309418 C35.0046999,14.5715047 34.348553,15.3380712 33.9422739,16.2399126 C33.6792712,17.0041422 33.5792195,17.8149777 33.6485604,18.6202163 C33.6485604,19.2015244 33.6485604,19.7950705 33.6852746,20.3763786 C33.5139416,30.1668308 22.9647294,37.7421932 22.0958268,47.3001221 C22.0958268,47.5265263 22.0591126,47.7529305 22.0468745,47.9793348 C22.0468745,48.0466441 22.0468745,48.1139535 22.0468745,48.1873819 C22.0468745,48.4627383 22.0468745,48.7442138 22.0468745,49.0256893 L22.0468745,49.0256893 C22.0468745,49.154189 22.0468745,49.2765697 22.0468745,49.4050694 C22.0468745,49.533569 22.0468745,49.6620687 22.0468745,49.7905684 C22.1998503,53.9821057 24.3782259,57.8860486 24.7759631,62.0592288 C24.8126773,62.4324898 24.8310344,62.7996317 24.8371534,63.1728927 C24.7695052,65.0901403 24.4041166,66.9852068 23.7540846,68.7901647 C22.4280572,69.1435697 21.1514906,69.6615967 19.9541654,70.3321609 C16.7477923,72.3942749 10.9591874,75.9555519 8.84812116,82.7660352 C8.30528565,84.5341619 8.03498691,86.3746693 8.04652789,88.2242123 C8.01083662,94.7597989 7.41304748,101.280204 6.25977037,107.713331 C5.99291473,109.333955 5.61675568,110.934676 5.13386837,112.504534 C5.08843523,112.657223 5.07592153,112.817815 5.09715417,112.975699 L3.82439539,129.497087 L3.59799118,132.403628 L3.27980148,136.540094 C3.27980148,136.540094 3.37158697,136.790974 3.50620569,137.213187 C3.70565114,137.840668 3.87312013,138.477867 4.00796636,139.122326 C4.36377237,140.522576 4.42007029,141.982151 4.17318024,143.405648 C4.04742841,144.01047 3.73493804,144.560539 3.27980148,144.97824 C3.24065831,145.012751 3.20574055,145.051776 3.17577793,145.094501 C2.814755,145.602381 2.49044628,147.113782 2.20897077,149.304396 C2.09882819,150.16106 1.99480463,151.140106 1.89078108,152.155865 C1.27887782,158.672635 0.899497795,168.426373 0.666974555,176.491258 C0.446689381,184.446 0.367141957,190.730247 0.367141957,190.730247 C1.39748557,191.395117 2.4998178,191.941151 3.65306247,192.357909 C3.56739602,192.572075 3.47561053,192.792361 3.38994407,193.024884 C2.34962788,195.724844 1.67863147,198.552908 1.39513944,201.432435 C0.881140697,207.447444 2.56387467,214.129427 10.9530684,217.568324 C11.4890667,217.791171 12.0388814,217.979211 12.5990882,218.131275 C14.4347979,218.620797 15.7871042,218.486179 16.7845065,217.874275 C16.7845065,218.235298 16.8273397,218.584083 16.8456968,218.932868 C16.9313633,220.425912 17.0047916,221.790456 17.0415058,222.934715 C17.3046242,230.093984 19.0791437,242.613524 19.0791437,242.613524 C19.0791437,242.613524 19.691047,247.729036 19.1586911,249.258794 C18.6263353,250.788552 19.1586911,256.925942 19.1586911,256.925942 C19.1586911,256.925942 20.9944009,259.985458 19.1586911,261.527454 C17.3229813,263.06945 16.7783874,270.706003 17.3229813,271.752358 C17.3399513,271.789006 17.3503091,271.828365 17.3535765,271.868619 C17.7574327,274.408018 15.4750335,312.137973 15.4750335,312.137973 C15.4750335,312.137973 13.315015,317.91434 11.5955668,323.910992 C9.91895187,329.748549 8.65843115,335.794153 10.2126654,336.926174 C10.9836635,337.489125 12.7765401,337.911338 15.0528202,338.235647 C15.0528202,338.486527 15.016106,338.737408 14.9916299,338.994407 C14.7713447,341.6929 14.4225599,344.599441 13.9207992,345.333725 C13.1926343,346.37396 12.4277552,354.438845 12.0544943,358.795597 L12.0177801,359.279 C11.233913,361.137845 10.5756583,363.047192 10.0474516,364.994177 C10.0474516,364.994177 4.19153734,379.679855 6.17410391,383.492012 C6.3587412,383.834542 6.60569174,384.139598 6.90226879,384.39151 L6.90226879,384.39151 C6.96097931,384.453434 7.02439907,384.510716 7.0919588,384.562843 C9.91283284,386.820766 16.9803155,387.291931 19.5441902,387.395955 L19.4462857,391.03066 L19.4462857,391.165279 L22.7811584,391.165279 L22.7811584,391.073494 C22.7811584,390.614566 22.8545868,388.509619 22.9647294,385.694864 C22.9647294,385.193103 23.0014436,384.666866 23.0259197,384.128392 C23.0259197,383.706178 23.068753,383.277846 23.0871101,382.837276 C24.0695655,380.22688 24.5612225,377.457419 24.5373208,374.668367 C24.5408423,371.467737 24.9730164,368.281997 25.8223176,365.196105 C26.2417459,363.60658 26.8092177,362.05986 27.5172897,360.576235 C27.5172897,360.576235 28.5575252,355.069106 27.1073145,351.171282 C26.8308304,350.397324 26.4161755,349.679971 25.883508,349.054097 C25.883508,348.925597 25.883508,348.797097 25.883508,348.662479 C25.883508,348.52786 25.883508,348.368765 25.883508,348.215789 C25.883508,348.062813 25.883508,347.964909 25.883508,347.83029 C25.8508665,345.194381 26.1135832,342.56311 26.6667441,339.98569 C26.6638678,339.944947 26.6638678,339.904052 26.6667441,339.86331 C26.7156964,339.649143 26.7707677,339.447215 26.825839,339.251406 L26.8625532,339.116788 L27.945622,339.153502 C31.2682567,339.245287 33.7097507,339.245287 33.7097507,339.245287 C33.7097507,339.245287 36.3592918,325.697749 36.0961734,319.823478 C36.0961734,319.566478 36.0961734,319.297241 36.0961734,319.028004 C36.0043879,313.190446 37.69936,305.254061 37.69936,305.254061 L39.8349023,284.541136 C39.8349023,284.541136 38.7763097,280.955383 39.8349023,278.422103 C40.4896388,276.843393 41.841945,273.912376 42.7842761,271.893095 C43.2248464,270.956883 43.5736313,270.222599 43.720488,269.90441 L43.8061545,269.733077 C43.4724561,269.618705 43.1555403,269.460247 42.8638235,269.261911 L42.8638235,269.261911 C42.0010399,268.686722 41.2300418,267.56082 43.8122735,265.902562 C47.7835257,263.344807 46.4618147,256.956537 46.4618147,256.956537 C46.4618147,256.956537 45.2930794,254.65578 46.6698618,252.612024 C48.0466441,250.568267 46.6698618,242.901119 46.6698618,242.901119 C47.804108,240.874203 48.7150568,238.730191 49.3867123,236.50673 C50.3718765,233.447213 52.8623228,218.486179 54.037177,211.271839 C54.4226761,208.903774 54.6490803,207.374015 54.6490803,207.374015 L54.6857945,207.747276 L54.7225087,208.151133 L54.7225087,208.151133 L55.0529365,211.559434 L55.0957697,212.012242 L55.7076729,218.455583 C55.7076729,218.455583 56.9314795,235.393066 56.1666004,242.032216 C56.1666004,242.075049 56.1666004,242.117883 56.1666004,242.154597 C56.1069374,242.842383 55.9567436,243.519284 55.719911,244.167759 C54.3125335,247.349655 54.5695329,259.991577 54.6429613,262.787975 C54.6429613,263.014379 54.6429613,263.19795 54.6429613,263.350926 C54.6429613,263.503902 53.645559,265.847491 53.8964393,267.670963 L53.8964393,267.670963 C53.9472711,268.133054 54.1135043,268.57494 54.3798429,268.95596 C54.7463086,269.551088 54.9115082,270.248359 54.8510084,270.944645 L54.8510084,271.005836 C54.8445404,271.300773 54.8200184,271.595037 54.77758,271.886976 C54.5919822,273.071307 54.2801759,274.232375 53.847487,275.350349 C53.847487,275.350349 52.4278715,279.082959 52.9663463,281.03493 C52.9663463,281.03493 52.9663463,281.03493 52.9663463,281.03493 C53.0310312,281.288002 53.1500503,281.523952 53.3151312,281.726381 C53.4393417,281.951819 53.5085305,282.203414 53.5170593,282.460665 C53.5141777,282.483009 53.5141777,282.50563 53.5170593,282.527974 C54.0127009,286.646083 52.7338231,304.825729 51.9750631,314.775276 C51.6691114,318.703695 51.4488262,321.347117 51.4488262,321.347117 L49.3499981,343.069683 L49.5580452,343.216539 C49.7966874,343.387872 50.2433768,343.681586 50.843042,344.03649 C50.843042,344.03649 50.843042,344.03649 50.843042,344.085442 L50.7512565,344.740179 C50.4514239,346.832888 50.0475678,349.268263 49.6069974,351.128449 C49.5702832,351.269186 49.5396881,351.403805 49.5029739,351.532305 C48.6999647,351.672565 47.9350844,351.978934 47.2572889,352.431803 C42.8026332,360.343712 44.7729617,366.61572 47.2572889,368.439192 C47.9609777,368.953191 48.4382622,370.391163 48.7564519,372.177921 L49.3683552,380.065354 C49.3683552,380.383544 49.3683552,380.677257 49.3683552,380.970971 C49.3691858,381.216246 49.4084148,381.459878 49.4846168,381.693017 L49.6743068,384.085558 L49.9313062,387.414312 L51.962825,387.414312 L51.962825,383.38187 L52.0729676,383.38187 C55.2793407,383.492012 60.4499232,383.626631 62.7017272,383.449179 L62.7629176,383.449179 C63.0015598,383.449179 63.2034879,383.406346 63.3748208,383.38187 C63.4966197,383.363583 63.6157769,383.330712 63.7297247,383.283965 C64.9229361,382.708776 67.8967859,374.276749 65.2166496,372.361492 C62.5365133,370.446235 61.9429672,365.018653 61.9429672,365.018653 C61.7104439,364.308845 61.4779207,363.635751 61.2392784,362.993253 C61.2392784,362.852515 61.2392784,362.717896 61.2392784,362.577159 C61.16585,359.952094 61.1964452,357.106744 61.5574681,355.564747 C61.9613243,353.869775 62.1693714,350.308498 62.2550378,347.187792 C62.2550378,346.949149 62.2550378,346.716626 62.2550378,346.484103 L62.2550378,346.410675 C62.7195933,346.293253 63.1755182,346.144004 63.6195821,345.963985 L63.7174866,345.921152 C64.5371291,345.578035 65.3052416,345.122933 65.9998858,344.568846 L73.4895817,311.379213 L74.2789369,307.518103 L78.7764259,285.556895 C78.7764259,285.556895 77.1915965,277.889747 78.7764259,276.616988 C79.357734,276.151942 79.5168289,274.169375 79.4801147,271.874738 C79.4189243,267.860653 78.7764259,262.812451 78.7764259,262.812451 C78.7764259,262.812451 80.8936112,259.489816 81.9583229,257.446059 C83.0230345,255.402302 81.9583229,250.035911 81.9583229,250.035911 L84.044913,237.748893 C84.044913,237.748893 86.4313357,223.179477 92.2505357,210.910816 C96.5338586,201.885243 93.80477,177.513136 91.0267292,164.540787 C90.9533008,164.20424 90.8798724,163.873813 90.806444,163.555623 L90.806444,163.506671 C92.115917,162.858053 93.7191036,162.074817 95.4324327,161.254867 L96.0810502,160.948915 C98.2533067,159.927036 100.554063,158.874563 102.616177,157.999541 L102.750796,157.94447 C104.235024,157.297183 105.752651,156.72935 107.297237,156.243379 C107.752298,156.104221 108.21938,156.007936 108.692376,155.955784 C112.369915,155.717142 101.251633,136.295333 101.251633,136.295333 Z M18.4550024,177.874159 L19.5564282,177.874159 C19.4279286,178.112801 19.3055479,178.357563 19.1831673,178.602324 C19.1097389,178.749181 19.0363105,178.889919 18.9690011,179.036775 C18.565145,179.875083 18.191884,180.731747 17.8859323,181.570055 C18.008313,180.664438 18.1612888,179.679274 18.3326217,178.6268 C18.3754549,178.394277 18.4182882,178.11892 18.4550024,177.874159 Z M15.4811525,193.826477 C15.4838598,193.797986 15.4838598,193.769302 15.4811525,193.740811 L15.389367,193.453216 C15.3220577,193.257407 15.2608673,193.061598 15.199677,192.841313 C15.579057,192.727091 15.9645561,192.598591 16.3561742,192.455814 L16.4357216,192.455814 C16.4357216,192.523123 16.4357216,192.590433 16.4357216,192.657742 C16.4051264,192.945336 16.3684123,193.232931 16.3316981,193.514407 L16.3316981,193.514407 C16.3350091,193.551046 16.3350091,193.58791 16.3316981,193.624549 C16.3316981,193.857072 16.2766268,194.077358 16.2521506,194.297643 C16.1970793,194.738213 16.142008,195.166545 16.0930558,195.576521 C15.9767942,195.191021 15.8605325,194.811641 15.7381519,194.43838 C15.6157712,194.236452 15.5484619,194.028405 15.4811525,193.826477 Z" id="Shape" fill="url(#linearGradient-5)" fill-rule="nonzero"></path>
                        <path d="M94.9061959,38.2194777 L88.2976407,40.5569482 L85.8989799,36.579577 C84.0632701,33.5200607 81.5177525,29.3346424 79.6392095,26.2934832 C76.3226938,20.9454486 80.661088,12.7948972 80.661088,12.7948972 C80.661088,12.7948972 81.4443241,4.61375059 84.234603,2.09270916 C87.0248819,-0.428332283 87.801999,12.7948972 87.801999,12.7948972 C99.0059477,17.8859323 93.0031767,29.8608792 93.0031767,29.8608792 L94.0923646,34.6092485 L94.9061959,38.2194777 Z" id="Path" fill="#EFB7B9" fill-rule="nonzero"></path>
                        <path d="M94.9061959,38.2194777 L88.2976407,40.5569482 L85.8989799,36.579577 L85.8989799,36.2307921 C85.8989799,36.2307921 89.6866611,33.6302033 94.1046026,34.6092485 L94.9061959,38.2194777 Z" id="Path" fill="#000000" fill-rule="nonzero" opacity="0.1"></path>
                        <path d="M84.234603,65.0208406 L87.5449997,62.2183237 L85.8867418,36.9956712 C85.8867418,36.9956712 94.4533875,31.133638 100.792705,40.3060678 C100.792705,40.3060678 100.535706,45.9111017 100.792705,47.4408599 C101.049705,48.970618 99.0120668,50.5003762 100.792705,52.0240153 C102.573344,53.5476544 100.792705,58.6509276 100.792705,58.6509276 C100.792705,58.6509276 102.805867,62.2183237 104.078626,63.2340831 C105.351385,64.2498425 106.630262,72.6635123 104.078626,74.4441508 C101.526989,76.2247893 96.7419057,80.3061841 96.7419057,82.0868226 C96.7419057,83.8674611 90.6228731,88.2058552 90.6228731,88.2058552 L85.2503624,81.1016583 L84.234603,65.0208406 Z" id="Path" fill="#FF6484" fill-rule="nonzero"></path>
                        <path d="M12.6419214,218.131275 C0.293713566,212.893383 3.03504018,200.098486 5.36027257,193.655144 C5.82494907,192.349655 6.37060236,191.07442 6.99405428,189.836868 L13.9207992,185.633093 C13.9207992,185.633093 15.3342957,189.237203 16.8456968,194.071238 C20.3519025,205.31802 24.384345,223.118286 12.6419214,218.131275 Z" id="Path" fill="#EFB7B9" fill-rule="nonzero"></path>
                        <path d="M29.6161179,334.876298 C28.7801469,336.505439 28.1629111,338.237814 27.7804081,340.028524 C27.1691629,342.9096 26.9021359,345.853058 26.9849338,348.797097 C27.0338861,350.834735 27.205219,352.168684 27.205219,352.168684 L13.4496337,361.628709 C13.4496337,361.628709 13.5291811,360.521164 13.6637998,358.893501 C14.0187037,354.561226 14.7591067,346.520817 15.4566764,345.480582 C15.94008,344.758536 16.2766268,341.858114 16.4907929,339.16574 C16.704959,336.473366 16.7906255,334.111419 16.7906255,334.111419 C16.7906255,334.111419 33.3426087,327.90672 29.6161179,334.876298 Z" id="Path" fill="#EFB7B9" fill-rule="nonzero"></path>
                        <path d="M62.102062,341.662305 C62.102062,341.662305 62.102062,344.293489 62.0041575,347.353006 C61.906253,350.412522 61.722682,354.022751 61.337183,355.705485 C60.9822791,357.247481 60.9578029,360.080593 61.0251123,362.69342 C61.1168978,365.752937 61.337183,368.506501 61.337183,368.506501 C61.337183,368.506501 47.2940031,355.228201 48.7258567,354.175727 C49.1113558,353.894251 49.4907358,352.76223 49.8395207,351.256948 C50.2678529,349.421239 50.653352,346.973626 50.9409465,344.893154 C51.2836124,342.414946 51.4977785,340.420142 51.4977785,340.420142 L62.102062,341.662305 Z" id="Path" fill="#EFB7B9" fill-rule="nonzero"></path>
                        <path d="M29.6161179,334.876298 C28.7801469,336.505439 28.1629111,338.237814 27.7804081,340.028524 C24.015318,339.929717 20.2575722,339.641759 16.5213881,339.16574 C16.7294352,336.534556 16.8212207,334.111419 16.8212207,334.111419 C16.8212207,334.111419 33.3426087,327.90672 29.6161179,334.876298 Z" id="Path" fill="#000000" fill-rule="nonzero" opacity="0.1"></path>
                        <path d="M62.102062,341.662305 C62.102062,341.662305 62.102062,344.293489 62.0041575,347.353006 C57.6229302,348.472789 53.1193221,346.233223 50.9409465,344.905392 C51.2836124,342.427184 51.4977785,340.43238 51.4977785,340.43238 L62.102062,341.662305 Z" id="Path" fill="#000000" fill-rule="nonzero" opacity="0.1"></path>
                        <path d="M90.8553963,211.510481 C85.2503624,223.748547 82.9557252,238.262892 82.9557252,238.262892 L80.9180873,250.500957 C80.9180873,250.500957 81.9399658,255.848992 80.9180873,257.88663 C79.8962089,259.924268 77.858571,263.240783 77.858571,263.240783 C77.858571,263.240783 79.3883292,275.72361 77.858571,276.996369 C76.3288129,278.269127 77.858571,285.911799 77.858571,285.911799 L72.7614169,311.611736 L65.6266248,344.727941 C58.7488322,350.339093 49.5947594,343.204301 49.5947594,343.204301 L51.6140401,321.549045 C51.6140401,321.549045 54.6735564,283.611043 53.4007976,282.056808 C52.1280389,280.502574 53.9086774,275.686896 53.9086774,275.686896 C53.9086774,275.686896 55.6954349,271.097621 54.4226761,269.316983 C53.1499173,267.536344 54.6735564,263.711949 54.6735564,263.711949 C54.6735564,263.711949 54.1656767,248.169606 55.6954349,244.60221 C57.225193,241.034814 55.6954349,218.969582 55.6954349,218.969582 L55.0835316,212.097909 L54.7286277,208.29187 L54.6980326,207.918609 C54.6980326,207.918609 54.4655093,209.442248 54.0861293,211.804195 C52.9602273,218.994058 50.5615665,233.893903 49.6131165,236.959538 C48.9683656,239.168734 48.0925865,241.30383 47.0002895,243.329451 C47.0002895,243.329451 48.3220006,250.972123 47.0002895,253.009761 C45.6785785,255.047399 46.7983615,257.342036 46.7983615,257.342036 C46.7983615,257.342036 48.0711202,263.711949 44.2467249,266.257466 C40.4223295,268.802984 44.2467249,270.081862 44.2467249,270.081862 C44.2467249,270.081862 41.4442079,276.200894 40.4284485,278.740293 C39.4126891,281.279691 40.4284485,284.859325 40.4284485,284.859325 L38.3908106,305.492703 C38.3908106,305.492703 36.6040531,314.151135 36.8610525,320.013168 C37.1180519,325.875201 34.5664153,339.373787 34.5664153,339.373787 C34.5664153,339.373787 14.9487967,339.373787 11.9259946,337.07915 C8.90319246,334.784513 16.9741965,312.401091 16.9741965,312.401091 C16.9741965,312.401091 19.2688337,273.165854 18.754835,272.150095 C18.2408362,271.134335 18.754835,263.485544 20.5415925,261.961905 C22.32835,260.438266 20.5415925,257.372631 20.5415925,257.372631 C20.5415925,257.372631 20.0337128,251.253598 20.5415925,249.729959 C21.0494722,248.20632 20.4620451,243.103047 20.4620451,243.103047 C20.4620451,243.103047 18.754835,230.62022 18.5039546,223.485428 C18.2530743,216.350636 16.9741965,200.306533 16.9741965,200.306533 C16.9741965,200.306533 18.3081456,190.381462 18.5100737,185.657569 C18.5835021,183.919763 19.3606192,181.747507 20.3457835,179.70375 C21.4484656,177.396145 22.7163636,175.171188 24.1395837,173.046242 C24.1395837,173.046242 84.5038404,155.203143 87.0371199,156.977663 C87.7102135,157.448828 88.6892588,160.649082 89.6560659,165.28119 C92.3484403,178.222944 94.9796243,202.515503 90.8553963,211.510481 Z" id="Path" fill="#444053" fill-rule="nonzero"></path>
                        <circle id="Oval" fill="#A1616A" fill-rule="nonzero" cx="53.6639161" cy="38.2194777" r="17.5799807"></circle>
                        <path d="M89.6560659,165.293428 C87.6306661,166.333664 86.2722409,167.04959 86.2722409,167.04959 C86.2722409,167.04959 57.7391918,180.554295 49.6253545,179.789416 C43.3472271,179.177513 27.3214806,179.526298 20.3396644,179.697631 C21.4423465,177.390026 22.7102445,175.165069 24.1334646,173.040123 C24.1334646,173.040123 84.5038404,155.203143 87.0371199,156.977663 C87.7102135,157.461066 88.6892588,160.649082 89.6560659,165.293428 Z" id="Path" fill="#000000" fill-rule="nonzero" opacity="0.1"></path>
                        <path d="M41.4319699,66.2935994 C41.4319699,66.2935994 25.1492241,68.8635931 21.3064716,71.3846345 C17.4637191,73.9056759 9.85164251,78.7764259 9.85164251,89.2216146 C9.85164251,99.6668033 8.07100402,110.368991 7.04912557,113.422389 C6.02724713,116.475786 23.0993481,141.190559 23.0993481,141.190559 L16.9803155,178.645157 C16.9803155,178.645157 41.456446,177.880278 49.6069974,178.645157 C57.7575489,179.410036 86.2783599,165.905331 86.2783599,165.905331 C86.2783599,165.905331 103.093462,156.989901 106.660858,156.726782 C110.228254,156.463664 99.5260655,137.109164 99.5260655,137.109164 C99.5260655,137.109164 82.9618442,105.779717 85.7643612,100.682563 C88.5668781,95.5854085 90.6228731,88.1997361 90.6228731,88.1997361 L87.5633568,62.2183237 C87.5633568,62.2183237 82.9802013,60.6885655 79.1558059,63.4910824 C75.3314105,66.2935994 62.3407043,64.7638412 62.3407043,64.7638412 L41.4319699,66.2935994 Z" id="Path" fill="#FF6484" fill-rule="nonzero"></path>
                        <path d="M13.7922995,111.64175 L7.40402947,113.422389 L5.63562904,137.396758 C5.63562904,137.396758 7.93026627,143.766671 5.63562904,145.804309 C3.34099181,147.841947 2.8331121,191.409459 2.8331121,191.409459 C2.8331121,191.409459 10.2249035,196.757494 18.8833347,192.682218 C18.8833347,192.682218 17.6105759,187.842063 21.4349713,170.262083 C25.2593666,152.682102 25.2532476,143.766671 25.2532476,143.766671 C25.2532476,143.766671 25.2532476,121.854416 27.0400051,118.28702 C28.8267627,114.719624 27.0400051,105.804193 27.0400051,105.804193 C27.0400051,105.804193 23.4726091,100.964038 23.7234895,99.1833997 C23.9743698,97.4027612 13.7922995,111.64175 13.7922995,111.64175 Z" id="Path" fill="#000000" fill-rule="nonzero" opacity="0.1"></path>
                        <path d="M16.8456968,194.089596 C13.0940777,195.352692 9.01065781,195.204758 5.36027257,193.673501 C5.82494907,192.368012 6.37060236,191.092777 6.99405428,189.855225 L13.9207992,185.65145 C13.9207992,185.65145 15.3587719,189.25556 16.8456968,194.089596 Z" id="Path" fill="#000000" fill-rule="nonzero" opacity="0.1"></path>
                        <path d="M13.4068005,111.64175 L7.03688751,113.422389 L5.25624902,137.396758 C5.25624902,137.396758 7.55088625,143.766671 5.25624902,145.804309 C2.96161179,147.841947 2.45373208,191.409459 2.45373208,191.409459 C2.45373208,191.409459 9.85164251,196.751375 18.5039546,192.657742 C18.5039546,192.657742 17.2311958,187.817587 21.0494722,170.237606 C24.8677486,152.657626 24.8738676,143.742195 24.8738676,143.742195 C24.8738676,143.742195 24.8738676,121.829939 26.6545061,118.262543 C28.4351446,114.695147 26.6545061,105.779717 26.6545061,105.779717 C26.6545061,105.779717 23.0871101,100.939562 23.3441094,99.1589236 C23.6011088,97.3782851 13.4068005,111.64175 13.4068005,111.64175 Z" id="Path" fill="#FF6484" fill-rule="nonzero"></path>
                        <path d="M78.6295691,115.460026 C78.6295691,115.460026 75.3191725,143.993076 65.6327439,149.347229 C65.6327439,149.347229 87.2880003,143.234316 78.6295691,115.460026 Z" id="Path" fill="#000000" fill-rule="nonzero" opacity="0.1"></path>
                        <path d="M29.9710218,118.011663 C29.9710218,118.011663 41.9398496,123.867577 39.1495707,127.942853 C36.3592918,132.018129 29.9710218,118.011663 29.9710218,118.011663 Z" id="Path" fill="#000000" fill-rule="nonzero" opacity="0.1"></path>
                        <path d="M29.9710218,129.729611 C29.9710218,129.729611 37.6136935,137.629282 36.0900544,140.431799 C34.5664153,143.234316 29.9710218,129.729611 29.9710218,129.729611 Z" id="Path" fill="#000000" fill-rule="nonzero" opacity="0.1"></path>
                        <path d="M91.6202754,64.2559615 C91.6202754,64.2559615 94.6186014,69.3469967 94.9061959,72.6635123 C95.1937904,75.980028 91.6202754,64.2559615 91.6202754,64.2559615 Z" id="Path" fill="#000000" fill-rule="nonzero" opacity="0.1"></path>
                        <path d="M91.6202754,57.3781689 C91.6202754,57.3781689 93.1255574,56.099291 96.9683099,57.3781689 C100.811062,58.6570467 91.6202754,57.3781689 91.6202754,57.3781689 Z" id="Path" fill="#000000" fill-rule="nonzero" opacity="0.1"></path>
                        <path d="M76.910121,206.284828 C70.597714,207.180332 64.1606284,206.355877 58.2776666,203.898405 L55.0651745,212.122385 L54.7102706,208.316346 C55.2365074,205.122211 56.2583859,201.701672 58.2776666,200.838889 C58.2776666,200.838889 65.3512684,206.474518 76.910121,206.284828 Z" id="Path" fill="#000000" fill-rule="nonzero" opacity="0.1"></path>
                        <path d="M24.6474634,216.987016 C24.6474634,216.987016 40.3183059,220.236222 44.7117713,219.661033 L24.6474634,216.987016 Z" id="Path" fill="#000000" fill-rule="nonzero" opacity="0.1"></path>
                        <path d="M26.2751261,221.092887 C26.2751261,221.092887 32.9632287,220.805292 36.3042205,222.14536 L26.2751261,221.092887 Z" id="Path" fill="#000000" fill-rule="nonzero" opacity="0.1"></path>
                        <path d="M27.0400051,223.864808 C30.0915427,224.513099 33.1890168,224.922277 36.3042205,225.088615 L27.0400051,223.864808 Z" id="Path" fill="#000000" fill-rule="nonzero" opacity="0.1"></path>
                        <path d="M26.6545061,258.926865 C26.9421006,258.737175 40.0307114,255.677659 41.6583741,257.874392 L26.6545061,258.926865 Z" id="Path" fill="#000000" fill-rule="nonzero" opacity="0.1"></path>
                        <path d="M26.6545061,262.940951 C26.6545061,262.940951 38.0236687,261.600882 38.3112632,262.940951 C38.5988577,264.281019 26.6545061,262.940951 26.6545061,262.940951 Z" id="Path" fill="#000000" fill-rule="nonzero" opacity="0.1"></path>
                        <path d="M26.6545061,266.569537 C26.6545061,266.569537 38.7885478,264.060734 40.2204014,264.672637 C41.652255,265.28454 26.6545061,266.569537 26.6545061,266.569537 Z" id="Path" fill="#000000" fill-rule="nonzero" opacity="0.1"></path>
                        <path d="M27.2296951,352.174803 L13.4741098,361.634828 C13.4741098,361.634828 13.5536572,360.527283 13.688276,358.89962 C16.7477923,351.37321 20.7312825,347.401958 20.7312825,347.401958 C23.833632,346.594246 25.7917225,347.340767 27.00941,348.803216 C27.0583622,350.834735 27.2296951,352.174803 27.2296951,352.174803 Z" id="Path" fill="#000000" fill-rule="nonzero" opacity="0.1"></path>
                        <path d="M28.5697633,360.67414 C26.6259023,365.108791 25.6476438,369.906221 25.699937,374.747915 C25.7774112,378.718015 24.7703739,382.634036 22.7872775,386.074244 C22.5003647,386.558946 22.1771723,387.021234 21.8204703,387.457145 C21.8204703,387.457145 12.2625414,387.377598 8.91543052,384.605676 C8.53935011,384.308029 8.23243714,383.932217 8.01593273,383.50425 C6.10067552,379.685974 11.7424236,365.067605 11.7424236,365.067605 C14.7040354,353.796347 20.7190444,347.775219 20.7190444,347.775219 C31.4334706,345.003297 28.5697633,360.67414 28.5697633,360.67414 Z" id="Path" fill="#444053" fill-rule="nonzero"></path>
                        <path d="M22.7872775,386.043649 C22.5003647,386.528351 22.1771723,386.990639 21.8204703,387.42655 C21.8204703,387.42655 12.2625414,387.347003 8.91543052,384.575081 C10.5614503,379.129142 15.8115803,362.650587 18.2714314,365.453104 C20.5844257,368.084288 22.1937313,380.744567 22.7872775,386.043649 Z" id="Path" fill="#000000" fill-rule="nonzero" opacity="0.1"></path>
                        <path d="M21.4778045,366.474982 L20.8108299,391.15916 L24.017203,391.15916 C24.017203,391.15916 24.5373208,369.503904 25.9691744,366.474982 C27.4010281,363.446061 21.4778045,366.474982 21.4778045,366.474982 Z" id="Path" fill="#444053" fill-rule="nonzero"></path>
                        <path d="M61.337183,368.506501 C61.337183,368.506501 47.2940031,355.228201 48.7258567,354.175727 C49.1113558,353.894251 49.4907358,352.76223 49.8395207,351.256948 C52.5380141,350.785783 57.1823598,351.911685 61.0251123,362.69342 C61.1168978,365.752937 61.337183,368.506501 61.337183,368.506501 Z" id="Path" fill="#000000" fill-rule="nonzero" opacity="0.1"></path>
                        <path d="M63.4360111,383.31456 C63.3282825,383.360913 63.2152463,383.393796 63.0994643,383.412465 C61.4473255,383.700059 55.3588881,383.534845 51.9505869,383.412465 C50.6526192,383.369618 49.6218246,382.306357 49.6192355,381.007685 C49.6192355,380.08983 49.6192355,378.970047 49.5458071,377.776836 C49.3867123,374.007512 48.9339038,369.522261 47.5815976,368.51262 C45.1890559,366.676911 43.2982748,360.447735 47.5815976,352.560302 C47.5815976,352.560302 55.7933394,346.288294 61.716563,365.141033 C61.716563,365.141033 62.291752,370.519663 64.8678648,372.428801 C67.4439775,374.337939 64.5863893,382.769966 63.4360111,383.31456 Z" id="Path" fill="#444053" fill-rule="nonzero"></path>
                        <path d="M63.0872263,383.412465 C61.4350875,383.700059 55.34665,383.534845 51.9383489,383.412465 C50.6403811,383.369618 49.6095865,382.306357 49.6069974,381.007685 C49.6069974,380.08983 49.6069974,378.970047 49.533569,377.776836 C50.5676855,373.212037 52.0546105,368.51262 53.9698677,367.44179 C53.9821057,367.435671 59.7768296,366.780934 63.0872263,383.412465 Z" id="Path" fill="#000000" fill-rule="nonzero" opacity="0.1"></path>
                        <polygon id="Path" fill="#444053" fill-rule="nonzero" points="48.6218332 366.884958 50.1638294 387.42655 52.1219198 387.42655 52.1219198 365.134914"></polygon>
                        <path d="M53.4069167,10.2065464 C47.8561359,10.6197372 42.4829422,12.3457865 37.7299551,15.2425102 C36.5061486,15.9829132 35.2823421,16.882411 34.7744624,18.2102411 C34.333892,19.3606192 34.517463,20.6578541 34.5358201,21.8816606 C34.701034,32.4186348 22.9524913,40.3917343 23.3196333,50.9225894 C23.4664901,55.1018887 25.5653183,58.9935935 25.9508173,63.1606547 C26.5933158,70.1118757 22.4813258,76.5062648 18.5406688,82.2642745 C22.6005237,82.5113477 26.5996171,81.1856208 29.7079034,78.5622598 C33.8660132,92.4220307 34.4032162,107.116113 31.2682567,121.242512 L36.9038857,121.242512 C37.4604744,121.201951 38.0196256,121.270546 38.5499055,121.44444 C39.0444625,121.679299 39.487476,122.01 39.8532594,122.417367 C45.1217465,127.661377 48.6524283,135.414192 46.6392666,142.57346 L58.6325705,138.075971 C61.5023968,136.999021 64.4150564,135.903714 66.9116217,134.129195 C69.408187,132.354676 71.5008961,129.778563 72.0271329,126.755761 C72.3514417,124.920051 72.2474181,122.729437 73.7588192,121.664726 C74.5034298,121.268668 75.2978403,120.974366 76.1207658,120.789704 C79.4128053,119.627088 80.8691351,115.821049 81.5422287,112.394391 C82.3618333,108.19027 82.619045,103.895865 82.3071077,99.62397 C81.7747519,92.4647019 79.6575666,85.1952911 81.4014909,78.2073559 C82.3866552,74.285056 84.5772688,70.6319935 84.7547208,66.5811939 C85.0423153,59.9053293 79.8227805,54.1534387 79.0456633,47.5142883 C78.5010694,42.8882996 80.1715653,38.2072397 79.6269714,33.581251 C79.0133198,28.7354558 76.0737309,24.4939511 71.7517765,22.2182074 C70.2770896,21.4594474 68.6922602,20.9515677 67.2359304,20.1132602 C63.9132957,18.1857649 61.7899914,14.7162734 58.7733083,12.3298507 C55.7566252,9.943428 50.7328994,9.04393021 48.4627383,12.1462797 L53.4069167,10.2065464 Z" id="Path" fill="#000000" fill-rule="nonzero" opacity="0.1"></path>
                        <path d="M53.4069167,9.44166733 C47.8561359,9.85485812 42.4829422,11.5809075 37.7299551,14.4776312 C36.5061486,15.2180341 35.2823421,16.1175319 34.7744624,17.445362 C34.333892,18.5957401 34.517463,19.892975 34.5358201,21.1167816 C34.701034,31.6537557 22.9524913,39.6268552 23.3196333,50.1638294 C23.4664901,54.3370096 25.5653183,58.2287144 25.9508173,62.4018946 C26.5933158,69.3531157 22.4813258,75.7475048 18.5406688,81.5116335 C22.5993649,81.7498572 26.59526,80.4251906 29.7079034,77.8096188 C33.8652487,91.6653308 34.4024544,106.355272 31.2682567,120.477633 L36.9038857,120.477633 C37.4608745,120.439041 38.0200353,120.509716 38.5499055,120.68568 C39.0454716,120.91615 39.4889285,121.245099 39.8532594,121.652487 C45.1217465,126.902617 48.6524283,134.649313 46.6392666,141.808581 L58.6325705,137.311092 C61.5023968,136.234142 64.4150564,135.138835 66.9116217,133.364316 C69.408187,131.589796 71.5008961,129.013684 72.0271329,125.990882 C72.3514417,124.155172 72.2474181,121.964558 73.7588192,120.899846 C74.5034298,120.503789 75.2978403,120.209487 76.1207658,120.024825 C79.4128053,118.862209 80.8691351,115.05617 81.5422287,111.629512 C82.3690602,107.422219 82.6324498,103.123619 82.3254648,98.8468529 C81.793109,91.6875847 79.6759237,84.418174 81.419848,77.4302387 C82.4050123,73.5079388 84.5956259,69.8548764 84.7730779,65.8040768 C85.0606724,59.1282122 79.8411376,53.3763215 79.0640204,46.7371711 C78.5194265,42.1111825 80.1899224,37.4362416 79.6453285,32.8041339 C79.0296798,27.9591043 76.09067,23.7184352 71.7701336,21.4410903 C70.2954467,20.6823302 68.7106173,20.1744505 67.2542875,19.3422621 C63.9316528,17.4086478 61.8083485,13.9391563 58.7916654,11.5527336 C55.7749823,9.16631086 50.7512565,8.26681307 48.4810954,11.3691626 L53.4069167,9.44166733 Z" id="Path" fill="#925978" fill-rule="nonzero"></path>
                        <g id="Group" opacity="0.1" transform="translate(18.357098, 18.357098)" fill="#000000" fill-rule="nonzero">
                            <path d="M16.1664842,0.214166142 C16.1418887,0.449967561 16.129634,0.686893294 16.12977,0.923973925 C16.1481271,0.691450686 16.1603651,0.452808414 16.1664842,0.214166142 Z" id="Path"></path>
                            <path d="M60.6396132,24.7086537 C60.8598984,21.4655664 61.5819443,18.2102411 61.3127068,14.9793918 C61.1107787,18.2224791 60.3887329,21.4778045 60.6396132,24.7086537 Z" id="Path"></path>
                            <path d="M7.59371948,40.8323047 C7.23881559,37.0385044 5.47041516,33.4894655 5.05432094,29.7017843 C4.97132699,30.3960683 4.94064537,31.0956093 4.96253545,31.7944935 C5.10939224,35.9248405 7.15926816,39.7859501 7.57536238,43.89794 C7.67648241,42.8788391 7.68262789,41.8525434 7.59371948,40.8323047 Z" id="Path"></path>
                            <path d="M63.0872263,55.903482 C62.5143195,58.3934565 62.3081759,60.9537603 62.475323,63.5033205 C62.5363193,62.0164015 62.7412445,60.5388906 63.0872263,59.091498 C64.0723905,55.1691981 66.2630042,51.5161356 66.4404562,47.465336 C66.4693681,46.7458911 66.4366135,46.0252917 66.3425516,45.3114365 C65.8652671,48.9522609 63.9622479,52.342205 63.0872263,55.903482 Z" id="Path"></path>
                            <path d="M11.3508055,56.2339098 C8.7986432,58.3727334 5.63970944,59.6568528 2.31911336,59.9053293 C1.62154364,60.9945171 0.899497795,62.0592288 0.183570979,63.1117024 C4.24226705,63.3499261 8.23816219,62.0252595 11.3508055,59.4096877 C13.5861501,66.8481443 14.7845411,74.5594404 14.9120825,82.3254648 C15.0936203,73.4957387 13.8919854,64.6920079 11.3508055,56.2339098 Z" id="Path"></path>
                            <path d="M63.2034879,90.0660411 C62.5303943,93.4926994 61.0740646,97.2987376 57.782025,98.4552348 C56.9579297,98.6389149 56.1631193,98.9354245 55.4200784,99.3363755 C53.9086774,100.401087 54.0127009,102.603939 53.6883922,104.427411 C53.1621554,107.450213 51.0755653,110.020206 48.5728809,111.77025 C46.0701966,113.520293 43.1636561,114.646195 40.2938298,115.723145 L28.8512388,120.006468 C28.7918842,121.155166 28.6072178,122.293942 28.3005259,123.402531 L40.2938298,118.905042 C43.1636561,117.828092 46.0763156,116.732785 48.5728809,114.958266 C51.0694462,113.183746 53.1621554,110.607634 53.6883922,107.584831 C54.0127009,105.749122 53.9086774,103.558508 55.4200784,102.493796 C56.1646891,102.097739 56.9590996,101.803437 57.782025,101.618775 C61.0740646,100.456158 62.5303943,96.6501202 63.2034879,93.2234619 C63.9001921,89.6575393 64.1896415,86.0240248 64.0662715,82.3927742 C63.9855881,84.9695767 63.6970568,87.5356636 63.2034879,90.0660411 Z" id="Path"></path>
                            <path d="M21.5145187,100.070659 C21.1504271,99.6614445 20.7070123,99.3304448 20.2111647,99.0977332 C19.6807831,98.9240336 19.1220657,98.853415 18.565145,98.8896861 L13.5658953,98.8896861 C13.3700863,99.9543978 13.1620392,101.019109 12.9539921,102.077702 L18.5896211,102.077702 C19.1466098,102.03911 19.7057707,102.109785 20.2356409,102.285749 C20.731207,102.516219 21.1746639,102.845168 21.5389948,103.252556 C25.3939854,107.095309 28.3127639,112.27201 28.8145246,117.583331 C29.4325469,111.231775 26.1405073,104.696648 21.5145187,100.070659 Z" id="Path"></path>
                        </g>
                        <path d="M11.9137565,139.28142 C11.9137565,139.28142 16.4663168,137.372282 17.4820762,139.28142 C18.4978356,141.190559 11.9137565,139.28142 11.9137565,139.28142 Z" id="Path" fill="#000000" fill-rule="nonzero" opacity="0.1"></path>
                        <path d="M13.5230621,142.555103 C13.5230621,142.555103 18.0756224,140.645965 19.0975008,142.555103 C20.1193792,144.464241 13.5230621,142.555103 13.5230621,142.555103 Z" id="Path" fill="#000000" fill-rule="nonzero" opacity="0.1"></path>
                    </g>
                    <g id="5f43f84a-a268-4bb5-a31a-6b0c09aee323" stroke-width="1" fill="none" fill-rule="evenodd" transform="translate(438.734639, 5.507129)" opacity="0.1">
                        <path d="M67.4378585,13.5964905 C67.4378585,13.5964905 44.1549394,12.195232 46.902385,28.508573 C46.902385,28.508573 46.3577911,31.3906373 48.970618,32.7001103 C48.970618,32.7001103 49.0134513,31.4763038 51.3570408,31.898517 C52.1916376,32.0389778 53.0399375,32.0800577 53.8842012,32.0208977 C55.0240718,31.9419694 56.1069735,31.4929089 56.9681937,30.7420199 L56.9681937,30.7420199 C56.9681937,30.7420199 63.5094395,28.0435265 66.0549571,17.3474575 C66.0549571,17.3474575 67.9396191,15.009987 67.8906669,14.4103218 L63.9622479,16.0930558 C63.9622479,16.0930558 65.3023161,18.9261679 64.2437234,21.2819954 C64.2437234,21.2819954 64.1213428,16.1909603 63.3625828,16.313341 C63.2096069,16.313341 61.3249449,17.2923862 61.3249449,17.2923862 C61.3249449,17.2923862 63.6318202,22.2304455 61.8878959,25.8223176 C61.8878959,25.8223176 62.5487514,19.7399992 60.602899,17.6534091 L57.8248582,19.2994289 C57.8248582,19.2994289 60.5233516,24.396583 58.6937609,28.5575252 C58.6937609,28.5575252 59.1649264,22.1753742 57.2435501,19.691047 L54.7347468,21.6430184 C54.7347468,21.6430184 57.2741453,26.642268 55.7443871,30.0934024 C55.7443871,30.0934024 55.5424591,22.6587778 54.20851,22.1019458 C54.20851,22.1019458 52.0178963,24.0355601 51.6874685,24.8310344 C51.6874685,24.8310344 53.4191547,28.5024539 52.342205,30.399354 C52.342205,30.399354 51.6813495,25.4551757 51.1183985,25.4306996 C51.1183985,25.4306996 48.9339038,28.710501 48.7074996,30.9378289 C48.8136514,28.8594999 49.4612382,26.8450196 50.5860426,25.0941528 C49.325865,25.3326959 48.1638546,25.9371116 47.2450508,26.831958 C47.2450508,26.831958 47.5815976,24.5128447 51.1245175,24.3047976 C51.1245175,24.3047976 52.9296321,21.8204703 53.4130357,21.6674945 C53.4130357,21.6674945 49.8884729,21.3737809 47.7529305,22.322231 C47.7529305,22.322231 49.6314736,20.1316173 54.0616532,21.0984245 L56.5092662,19.0791437 C56.5092662,19.0791437 51.8710395,18.4672404 49.900711,19.1464531 C49.900711,19.1464531 52.1647531,17.2128388 57.1762408,18.6202163 L59.8686151,17.0109107 C59.8686151,17.0109107 55.9157201,16.1542461 53.5598925,16.4663168 C53.5598925,16.4663168 56.0442197,15.1262486 60.6579703,16.5764594 L62.5854656,15.7136758 C62.5854656,15.7136758 59.6850441,15.1446057 58.8406176,15.0528202 C57.9961911,14.9610347 57.9472389,14.7285115 57.9472389,14.7285115 C59.782146,14.4231171 61.6658527,14.6350076 63.3870589,15.3404148 C63.3870589,15.3404148 67.5051678,13.8534898 67.4378585,13.5964905 Z" id="Path" fill="#80CCFF" fill-rule="nonzero"></path>
                        <path d="M34.2543446,0.367141957 C34.2543446,0.367141957 14.6734402,13.0396585 26.5504825,24.5495589 C26.5504825,24.5495589 27.8171223,27.192981 30.6991866,26.7034583 C30.6991866,26.7034583 30.013855,25.699937 32.1493974,24.6413443 C32.9064719,24.2601564 33.6152012,23.7897245 34.2604636,23.2400859 C35.1324563,22.5006789 35.7402649,21.4976873 35.9921499,20.3824976 L35.9921499,20.3824976 C35.9921499,20.3824976 39.6635694,14.3246554 35.3802466,4.20377541 C35.3802466,4.20377541 35.5148653,1.20544943 35.0987711,0.764879077 L32.9326335,4.43629865 C32.9326335,4.43629865 35.6923173,5.92322357 36.2369112,8.44426501 C36.2369112,8.44426501 33.1223236,4.42406058 32.5654916,4.96865449 C32.455349,5.07879707 31.5007799,6.96957815 31.5007799,6.96957815 C31.5007799,6.96957815 36.2919825,9.57628605 37.0079093,13.498586 C37.0079093,13.498586 33.948393,8.20562274 31.1275189,7.68550497 L29.8547601,10.6226406 C29.8547601,10.6226406 35.0559379,13.131444 36.0472211,17.5677426 C36.0472211,17.5677426 32.63892,12.1462797 29.6222369,11.2834961 L28.7655723,14.3430125 C28.7655723,14.3430125 33.7831791,16.88853 34.5847724,20.5844257 C34.5847724,20.5844257 30.019974,14.7223925 28.6125965,15.0772964 C28.6125965,15.0772964 28.0006933,17.9287656 28.1965023,18.7487159 C28.1965023,18.7487159 31.7577793,20.6578541 32.0270167,22.8484678 C32.0270167,22.8484678 28.5636443,19.2565956 28.1169549,19.5564282 C28.1169549,19.5564282 28.3005259,23.4909662 29.444785,25.4368186 C28.3007614,23.6994969 27.6300351,21.6936457 27.4989326,19.6176186 C26.6253613,20.5562528 26.0466306,21.7307356 25.8345557,22.9953246 C25.8345557,22.9953246 24.7331298,20.9270916 27.4683374,18.6630495 C27.4683374,18.6630495 27.4683374,15.6035332 27.7436939,15.1813199 C27.7436939,15.1813199 24.7331298,17.0170297 23.5705136,19.0607866 C23.5705136,19.0607866 23.7907988,16.1848413 27.945622,14.3613696 L28.7410962,11.2712581 C28.7410962,11.2712581 24.6291063,13.510824 23.4603711,15.2425102 C23.4603711,15.2425102 24.1395837,12.3420888 29.0042146,10.506379 L30.2280211,7.61207658 C30.2280211,7.61207658 26.5566016,9.27033441 24.8187963,10.9163542 C24.8187963,10.9163542 26.0426028,8.35859856 30.6074012,6.79824524 L31.6476367,4.96253545 C31.6476367,4.96253545 28.9736194,6.22305617 28.2393355,6.65138845 C27.5050516,7.07972074 27.3275997,6.92062589 27.3275997,6.92062589 C28.6241045,5.58674747 30.2660316,4.63972631 32.0698499,4.18541831 C32.0698499,4.18541831 34.4623917,0.53847487 34.2543446,0.367141957 Z" id="Path" fill="#80CCFF" fill-rule="nonzero"></path>
                        <path d="M4.45465575,15.1323677 C4.45465575,15.1323677 -7.25105365,35.3251753 8.5544076,40.1775682 C8.5544076,40.1775682 10.885759,41.9582067 13.2293485,40.1775682 C13.2293485,40.1775682 12.1707559,39.6023791 13.5903714,37.6871219 C14.0835371,37.0035334 14.4943129,36.2641368 14.814178,35.4842701 C15.2564538,34.4290772 15.3444867,33.2588836 15.0650583,32.1493974 L15.0650583,32.1493974 C15.0650583,32.1493974 15.5851761,25.0880337 7.17150623,18.008313 C7.17150623,18.008313 5.9476997,15.2792244 5.33579644,15.0772964 L5.07267804,19.3606192 C5.07267804,19.3606192 8.20562274,19.4340476 9.83940445,21.4349713 C9.83940445,21.4349713 5.23789192,19.2627147 5.00536868,19.9908796 C4.95641642,20.1377363 4.96253545,22.2549216 4.96253545,22.2549216 C4.96253545,22.2549216 10.4635458,22.4201355 12.9111588,25.5897944 C12.9111588,25.5897944 7.77117142,22.2671597 5.03596384,23.074872 L5.23177289,26.269007 C5.23177289,26.269007 11.0020206,26.1466264 13.8963231,29.6528321 C13.8963231,29.6528321 8.38919372,26.3669115 5.32967741,26.9665767 L5.94158067,30.0811643 C5.94158067,30.0811643 11.5710907,30.0811643 13.9575134,33.0060619 C13.9575134,33.0060619 7.22657752,29.8486411 6.13127068,30.7848531 C6.13127068,30.7848531 6.87167363,33.6118462 7.43462463,34.2665827 C7.43462463,34.2665827 11.4731862,34.3522491 12.7092307,36.1818399 C12.7092307,36.1818399 7.9914566,34.5480582 7.7283382,35.0253427 C7.7283382,35.0253427 9.6803096,38.4458819 11.5833287,39.6574504 C9.77774092,38.6338362 8.2698813,37.15761 7.20822042,35.3741276 C6.85625199,36.6063352 6.87327133,37.9146973 7.25717268,39.1373326 C7.25717268,39.1373326 5.33579644,37.7972645 6.74317394,34.5358201 C6.74317394,34.5358201 5.33579644,31.8067315 5.41534387,31.3110899 C5.41534387,31.3110899 3.57963408,34.327773 3.45725343,36.6591244 C3.45725343,36.6591244 2.34358949,33.9973452 5.21953482,30.4911395 L4.52808414,27.3704329 C4.52808414,27.3704329 1.87854301,31.2315425 1.62154364,33.3058945 C1.62154364,33.3058945 0.91173586,30.4115921 4.41794155,26.5749587 L4.18541831,23.448133 C4.18541831,23.448133 1.65213881,26.5994348 0.868902632,28.8451198 C0.868902632,28.8451198 0.783236175,26.0181267 4.15482315,22.5486352 L4.24660864,20.4375689 C4.24660864,20.4375689 2.41089885,22.7689204 1.97644754,23.4970852 C1.54199622,24.2252501 1.28499685,24.1212266 1.28499685,24.1212266 C1.83647244,22.3428688 2.87010192,20.7521808 4.27108477,19.5258331 C4.27108477,19.5258331 4.71165512,15.187439 4.45465575,15.1323677 Z" id="Path" fill="#80CCFF" fill-rule="nonzero"></path>
                    </g>
                    <path d="M543.694405,250.825266 C538.858414,250.825266 534.938069,254.745611 534.938069,259.581602 C534.938069,264.417592 538.858414,268.337937 543.694405,268.337937 C548.530396,268.337937 552.450741,264.417592 552.450741,259.581602 C552.437295,254.751191 548.524815,250.838712 543.694405,250.825266 Z M518.092373,182.114649 L518.092373,190.870984 L526.848708,190.870984 L542.611336,222.800097 L536.021138,233.526761 C535.301829,234.795472 534.924403,236.229268 534.925831,237.687703 C534.925831,243.549736 538.933798,246.444039 544.367499,246.444039 L595.565445,246.444039 L595.565445,238.02425 L545.438329,238.02425 C545.142663,238.04233 544.853438,237.93275 544.64398,237.723292 C544.434522,237.513834 544.324943,237.224609 544.343023,236.928943 C544.458435,236.550219 544.614352,236.185046 544.808069,235.839755 L549.183177,228.931367 L581.80374,228.931367 C585.017207,228.957746 587.975156,227.18345 589.464769,224.335974 L605.233516,197.22254 C605.540979,196.534034 605.691469,195.785765 605.674087,195.031927 C605.661795,193.893583 605.189014,192.808742 604.363552,192.024784 C603.53809,191.240826 602.430324,190.824587 601.292859,190.870984 L536.486185,190.870984 L532.325243,182.114649 L518.092373,182.114649 Z M586.80299,250.825266 C581.967797,250.828645 578.050522,254.750485 578.052773,259.585678 C578.055026,264.420872 581.975953,268.33906 586.811147,268.337935 C591.646341,268.336809 595.565445,264.416796 595.565445,259.581602 C595.551984,254.74881 591.63579,250.835351 586.80299,250.825266 Z" id="Shape" fill="#80CCFF" fill-rule="nonzero"></path>
                </g>
            </g>
            <g id="Group-18-Copy-70" mask="url(#mask-2)">
                <g transform="translate(756.536643, 315.000000)">
                    <circle id="Oval" fill="#FFFFFF" cx="6.90931033" cy="6.90931033" r="6.90931033"></circle>
                    <circle id="Oval-Copy-12" fill="#FFFFFF" cx="16.459963" cy="6.90931033" r="6.90931033"></circle>
                    <polygon id="Rectangle" fill="#FFFEFE" transform="translate(11.656544, 11.683330) rotate(-45.000000) translate(-11.656544, -11.683330) " points="4.7472335 4.77401925 18.5658542 4.77401925 18.5658542 18.5926399 4.7472335 18.5926399"></polygon>
                </g>
            </g>
        </g>
    </g>
</svg>