<?xml version="1.0" encoding="UTF-8"?>
<svg width="519px" height="305px" viewBox="0 0 519 305" version="1.1" xmlns="http://www.w3.org/2000/svg" xmlns:xlink="http://www.w3.org/1999/xlink">
    <!-- Generator: Sketch 60.1 (88133) - https://sketch.com -->
    <title>Group 11</title>
    <desc>Created with Sketch.</desc>
    <defs>
        <rect id="path-1" x="0" y="0.821428571" width="518.428571" height="304" rx="9"></rect>
        <linearGradient x1="50.0031015%" y1="99.9982817%" x2="50.0031015%" y2="-0.00171833116%" id="linearGradient-3">
            <stop stop-color="#808080" stop-opacity="0.25" offset="0%"></stop>
            <stop stop-color="#808080" stop-opacity="0.12" offset="54%"></stop>
            <stop stop-color="#808080" stop-opacity="0.1" offset="100%"></stop>
        </linearGradient>
        <linearGradient x1="49.9964552%" y1="99.9928459%" x2="49.9964552%" y2="-0.00802762243%" id="linearGradient-4">
            <stop stop-color="#000000" stop-opacity="0.12" offset="0%"></stop>
            <stop stop-color="#000000" stop-opacity="0.09" offset="55%"></stop>
            <stop stop-color="#000000" stop-opacity="0.02" offset="100%"></stop>
        </linearGradient>
        <linearGradient x1="49.9922122%" y1="99.9530713%" x2="49.9922122%" y2="-0.0400799968%" id="linearGradient-5">
            <stop stop-color="#808080" stop-opacity="0.25" offset="0%"></stop>
            <stop stop-color="#808080" stop-opacity="0.12" offset="54%"></stop>
            <stop stop-color="#808080" stop-opacity="0.1" offset="100%"></stop>
        </linearGradient>
        <linearGradient x1="49.870761%" y1="90.1555772%" x2="50.0723805%" y2="9.84505503%" id="linearGradient-6">
            <stop stop-color="#000000" stop-opacity="0.12" offset="0%"></stop>
            <stop stop-color="#000000" stop-opacity="0.09" offset="55%"></stop>
            <stop stop-color="#000000" stop-opacity="0.02" offset="100%"></stop>
        </linearGradient>
        <linearGradient x1="50%" y1="100%" x2="50%" y2="0%" id="linearGradient-7">
            <stop stop-color="#000000" stop-opacity="0.12" offset="0%"></stop>
            <stop stop-color="#000000" stop-opacity="0.09" offset="55%"></stop>
            <stop stop-color="#000000" stop-opacity="0.02" offset="100%"></stop>
        </linearGradient>
    </defs>
    <g id="Page-1" stroke="none" stroke-width="1" fill="none" fill-rule="evenodd">
        <g id="Group-11" transform="translate(0.000000, -0.321429)">
            <mask id="mask-2" fill="white">
                <use xlink:href="#path-1"></use>
            </mask>
            <use id="Mask-Copy-3" fill="#FFFFFF" opacity="0.0523623512" xlink:href="#path-1"></use>
            <g id="undraw_escaping_my1b-(1)" mask="url(#mask-2)" fill-rule="nonzero">
                <g transform="translate(164.255692, -8.000000)">
                    <path d="M39.5373214,151.377148 C38.4675207,151.377148 37.3868038,151.3602 36.3260563,151.327067 L36.3501556,150.55663 C37.8733282,150.604074 39.427756,150.617248 40.9580943,150.596169 L40.9686359,151.367356 C40.4922752,151.373759 40.0151704,151.377024 39.5373214,151.377148 Z" id="Path" fill="#3F3D56"></path>
                    <path d="M45.6085541,151.198282 L45.5633668,150.428598 C47.0888015,150.338603 48.6338162,150.212079 50.1554857,150.052797 L50.236068,150.819465 C48.7027086,150.980255 47.1460385,151.107907 45.6085541,151.198282 Z" id="Path" fill="#3F3D56"></path>
                    <path d="M31.6902433,151.078179 C30.1520099,150.96032 28.5975821,150.805932 27.0698853,150.618406 L27.1640154,149.853241 C28.6800371,150.03888 30.2224152,150.192519 31.7489785,150.30925 L31.6902433,151.078179 Z" id="Path" fill="#3F3D56"></path>
                    <path d="M54.8409856,150.230151 L54.725383,149.468003 C56.2410252,149.237926 57.7683425,148.970947 59.2636507,148.673841 L59.413899,149.429972 C57.9069158,149.729335 56.3683029,149.998571 54.8409856,150.230151 Z" id="Path" fill="#3F3D56"></path>
                    <path d="M22.476076,149.948126 C20.9564813,149.690564 19.4225749,149.394586 17.9170998,149.067738 L18.0807185,148.31387 C19.5747059,148.638461 21.0967499,148.932176 22.6048765,149.187481 L22.476076,149.948126 Z" id="Path" fill="#3F3D56"></path>
                    <path d="M63.9461394,148.420419 L63.7608756,147.671814 C65.2486534,147.303918 66.7447155,146.897236 68.2076597,146.46344 L68.4268152,147.203002 C66.9525754,147.640214 65.4452127,148.049886 63.9461394,148.420419 Z" id="Path" fill="#3F3D56"></path>
                    <path d="M13.4038727,147.978343 C11.9132661,147.581828 10.4132515,147.145774 8.94543327,146.681477 L9.17776702,145.946439 C10.6344818,146.406967 12.1230087,146.83963 13.6019401,147.232758 L13.4038727,147.978343 Z" id="Path" fill="#3F3D56"></path>
                    <path d="M72.8464494,145.780001 L72.5934021,145.05174 C74.037121,144.549785 75.4891293,144.007167 76.9098776,143.438567 L77.1960626,144.154779 C75.7647678,144.727523 74.3014639,145.274281 72.8464494,145.780001 Z" id="Path" fill="#3F3D56"></path>
                    <path d="M4.54009111,145.176001 C3.09241476,144.643925 1.63570489,144.069677 0.210811963,143.469443 L0.510175201,142.758504 C1.92414706,143.35422 3.36956133,143.923948 4.80631661,144.452259 L4.54009111,145.176001 Z" id="Path" fill="#3F3D56"></path>
                    <path d="M81.4564296,142.334879 L81.1371118,141.632975 C82.5235937,141.002993 83.9172315,140.330461 85.2792396,139.634208 L85.6301921,140.321048 C84.2576375,141.022573 82.8534581,141.700004 81.4564296,142.334879 Z" id="Path" fill="#3F3D56"></path>
                    <path d="M89.7075525,138.117058 L89.3257244,137.447542 C90.6553488,136.68878 91.9827111,135.891232 93.2701594,135.076735 L93.682114,135.72818 C92.3848733,136.549073 91.0477185,137.353023 89.7075525,138.117058 Z" id="Path" fill="#3F3D56"></path>
                    <path d="M97.5440841,133.159305 L97.1027618,132.527441 C98.3548152,131.652702 99.6042319,130.736535 100.816371,129.804933 L101.286312,130.416463 C100.065139,131.355216 98.8059299,132.278164 97.5440841,133.159305 Z" id="Path" fill="#3F3D56"></path>
                    <path d="M104.900133,127.505675 L104.403077,126.915987 C105.570029,125.931288 106.731328,124.905171 107.855335,123.865877 L108.378748,124.43222 C107.246461,125.479419 106.076119,126.513446 104.900133,127.505675 Z" id="Path" fill="#3F3D56"></path>
                    <path d="M111.714669,121.202473 L111.165658,120.660984 C112.241501,119.570849 113.305634,118.442683 114.327986,117.30812 L114.901105,117.824002 C113.870859,118.967618 112.798796,120.104064 111.714669,121.202473 Z" id="Path" fill="#3F3D56"></path>
                    <path d="M117.930522,114.303576 L117.334806,113.814055 C118.306702,112.631269 119.263532,111.410865 120.179698,110.185922 L120.797251,110.647583 C119.874308,111.881939 118.909952,113.11215 117.930522,114.303576 Z" id="Path" fill="#3F3D56"></path>
                    <path d="M123.494152,106.863933 L122.856265,106.430896 C123.716323,105.16453 124.558679,103.861292 125.359618,102.556496 L126.017089,102.960167 C125.209374,104.27473 124.360626,105.58816 123.494152,106.863933 Z" id="Path" fill="#3F3D56"></path>
                    <path d="M128.358518,98.9438083 L127.683729,98.5710137 C128.42404,97.2312223 129.143268,95.855282 129.822197,94.4812242 L130.51356,94.8231382 C129.829732,96.207363 129.104482,97.5938498 128.358518,98.9438083 Z" id="Path" fill="#3F3D56"></path>
                    <path d="M132.476926,90.6068299 L131.770507,90.2972997 C132.385063,88.8938694 132.975111,87.4565523 133.524511,86.0256321 L134.244487,86.3020246 C133.690948,87.7442404 133.095997,89.1924786 132.476926,90.6068299 Z" id="Path" fill="#3F3D56"></path>
                    <path d="M135.811719,81.9188991 L135.079692,81.6763983 C135.560934,80.2262726 136.015079,78.7441427 136.429271,77.2706767 L137.171844,77.4792906 C136.754257,78.9640523 136.296346,80.4578573 135.811719,81.9188991 Z" id="Path" fill="#3F3D56"></path>
                    <path d="M138.325238,72.9816911 L137.574006,72.806964 C137.919311,71.3206943 138.234888,69.802795 138.51239,68.2961863 L139.270773,68.4355136 C138.991369,69.954167 138.67318,71.4833669 138.325238,72.9816911 Z" id="Path" fill="#3F3D56"></path>
                    <path d="M140.005815,63.8516791 L139.2414,63.7469976 C139.448881,62.2366286 139.623982,60.6965077 139.762181,59.1691904 L140.530356,59.238477 C140.391034,60.7778587 140.214424,62.3296351 140.005815,63.8516791 Z" id="Path" fill="#3F3D56"></path>
                    <path d="M140.844406,54.6068235 L140.073968,54.5721826 C140.142506,53.0441113 140.177521,51.4942028 140.177521,49.9657569 L140.948713,49.9657569 C140.948713,51.5058729 140.913693,53.0674565 140.844406,54.6068235 Z" id="Path" fill="#3F3D56"></path>
                    <path d="M139.679573,38.8934913 C139.52556,37.3731426 139.313703,36.6318608 139.090028,35.1181012 L139.852925,35.0055098 C140.078108,36.5307572 140.271282,37.6950724 140.426799,39.226909 L139.679573,38.8934913 Z" id="Path" fill="#3F3D56"></path>
                    <path d="M138.311681,30.5773793 C138.017591,29.0730376 137.685844,27.5587113 137.325104,26.0765813 L138.074453,25.8943287 C138.43783,27.3877543 138.772213,28.9137508 139.068561,30.429393 L138.311681,30.5773793 Z" id="Path" fill="#3F3D56"></path>
                    <path d="M136.13217,21.6258694 C135.702139,20.1574845 135.232198,18.6804356 134.735497,17.2352086 L135.464512,16.9844234 C135.965333,18.4407587 136.439044,19.9294778 136.872461,21.4089711 L136.13217,21.6258694 Z" id="Path" fill="#3F3D56"></path>
                    <path d="M133.137394,12.91345 C132.574817,11.4942098 131.972325,10.0698787 131.346488,8.67981887 L132.049896,8.36313274 C132.680632,9.76392639 133.287643,11.1991736 133.85436,12.6291525 L133.137394,12.91345 Z" id="Path" fill="#3F3D56"></path>
                    <path d="M115.633634,241.557076 C126.146052,253.661762 126.106539,270.909867 126.106539,270.909867 C126.106539,270.909867 109.023026,268.532398 98.5106079,256.427712 C87.9981896,244.323027 88.0377083,227.074897 88.0377083,227.074897 C88.0377083,227.074897 105.121216,229.452391 115.633634,241.557076 Z" id="Path" fill="#3F3D56"></path>
                    <path d="M102.033207,145.108316 C106.664451,160.457124 121.274865,169.624157 121.274865,169.624157 C121.274865,169.624157 128.376541,153.905862 123.745297,138.557055 C119.114052,123.208248 104.503644,114.041195 104.503644,114.041195 C104.503644,114.041195 97.4019674,129.759504 102.033207,145.108316 Z" id="Path" fill="#80CCFF"></path>
                    <path d="M108.08655,141.606273 C119.89233,152.453297 121.790821,169.596672 121.790821,169.596672 C121.790821,169.596672 104.548363,169.153521 92.7425726,158.306483 C80.9367823,147.459444 79.0383017,130.316109 79.0383017,130.316109 C79.0383017,130.316109 96.2807844,130.75925 108.08655,141.606273 Z" id="Path" fill="#3F3D56"></path>
                    <path d="M145.353025,186.817795 C132.502825,196.40459 128.866313,213.265032 128.866313,213.265032 C128.866313,213.265032 146.064097,214.582208 158.914297,204.995409 C171.764498,195.40861 175.401009,178.548172 175.401009,178.548172 C175.401009,178.548172 158.203226,177.231001 145.353025,186.817795 Z" id="Path" fill="#3F3D56"></path>
                    <path d="M153.988933,314.010067 C153.988933,314.010067 153.875583,314.157915 153.648882,314.424042 L108.658644,314.424042 C113.106257,311.427257 118.099655,309.334116 123.354765,308.263696 C139.110466,305.287007 153.988933,314.010067 153.988933,314.010067 Z" id="Path" fill="#3F3D56"></path>
                    <path d="M126.14417,267.47235 C126.089959,267.743405 126.030819,268.014461 125.97168,268.285516 C125.917469,268.551643 125.85833,268.81777 125.79919,269.083897 C125.675983,269.655577 125.547848,270.227257 125.414785,270.798937 C121.863053,286.387256 115.445961,301.179991 106.490202,314.424042 L104.706166,314.424042 C113.53271,301.748514 120.180955,286.791195 123.9708,270.508169 C124.079222,270.035054 124.187644,269.561915 124.291138,269.083897 C124.434058,268.448149 124.567121,267.812401 124.700185,267.176654 C124.94167,266.013554 125.168361,264.84391 125.380257,263.667721 C130.288821,236.626266 128.243586,205.725972 119.155873,169.384859 C119.027738,168.872319 118.894675,168.35485 118.76654,167.837381 C118.746826,167.773313 118.732042,167.714174 118.717257,167.650106 L120.146457,167.285414 C120.30909,167.921161 120.471723,168.556884 120.6245,169.192657 L120.713209,169.532708 C130.141002,207.450883 131.915182,239.509313 126.14417,267.47235 Z" id="Path" fill="#3F3D56"></path>
                    <circle id="Oval" fill="#3F3D56" cx="82.0949766" cy="107.375991" r="13.9918309"></circle>
                    <path d="M335.561692,265.288034 C326.763969,274.956559 326.470446,289.016977 326.470446,289.016977 C326.470446,289.016977 340.440848,287.401626 349.238591,277.733106 C358.036334,268.064586 358.329837,254.004163 358.329837,254.004163 C358.329837,254.004163 344.35939,255.619524 335.561692,265.288034 Z" id="Path" fill="#3F3D56"></path>
                    <path d="M348.46943,186.925355 C344.404439,199.349363 332.321744,206.545894 332.321744,206.545894 C332.321744,206.545894 326.829702,193.599114 330.894693,181.175101 C334.959683,168.751088 347.042383,161.554562 347.042383,161.554562 C347.042383,161.554562 352.534415,174.501342 348.46943,186.925355 Z" id="Path" fill="#80CCFF"></path>
                    <path d="M343.601229,183.956369 C333.772984,192.575294 331.901682,206.513722 331.901682,206.513722 C331.901682,206.513722 345.965121,206.478115 355.793366,197.859176 C365.621612,189.240236 367.492913,175.301827 367.492913,175.301827 C367.492913,175.301827 353.429474,175.337449 343.601229,183.956369 Z" id="Path" fill="#3F3D56"></path>
                    <path d="M312.369892,220.106442 C322.663583,228.16373 325.309462,241.976078 325.309462,241.976078 C325.309462,241.976078 311.265933,242.724984 300.972227,234.667695 C290.678521,226.610407 288.032662,212.798059 288.032662,212.798059 C288.032662,212.798059 302.076191,212.049158 312.369892,220.106442 Z" id="Path" fill="#3F3D56"></path>
                    <path d="M337.064555,314.424052 L335.724064,314.424052 C331.775464,306.325333 328.856581,297.764019 327.035541,288.939933 C326.892621,288.254903 326.75463,287.569872 326.626494,286.874985 C326.58214,286.658141 326.542714,286.436369 326.503288,286.214596 C325.479849,280.553701 324.836094,274.830704 324.576331,269.083906 C323.684313,250.469805 326.404722,229.81047 332.781912,206.484936 C332.806553,206.391299 332.831195,206.297662 332.860764,206.204024 C332.998756,205.691484 333.141676,205.178943 333.284621,204.661474 L334.442766,204.98674 C334.427981,205.036023 334.418125,205.080377 334.40334,205.12966 C334.285061,205.553492 334.166782,205.972395 334.053432,206.391299 C327.622031,229.790757 324.881909,250.474734 325.778856,269.083906 C325.996536,273.783167 326.470354,278.467058 327.198199,283.11471 C327.350976,284.080652 327.513609,285.041666 327.686099,285.997752 C327.85366,286.909483 328.031078,287.819572 328.218353,288.728017 C330.057599,297.636003 333.030534,306.271646 337.064555,314.424052 L337.064555,314.424052 Z" id="Path" fill="#3F3D56"></path>
                    <circle id="Oval" fill="#3F3D56" cx="365.43453" cy="156.544649" r="11.4084036"></circle>
                    <path d="M242.323364,258.902072 L241.998098,269.083892 L240.559041,314.424037 L198.688402,314.424037 L194.435329,269.083892 L192.335883,246.679946 L181.227548,210.023424 L253.431729,195.583573 C253.431729,195.583573 258.985897,216.691382 261.203622,232.240095 C263.426245,247.793746 242.323364,258.902072 242.323364,258.902072 Z" id="Path" fill="#2F2E41"></path>
                    <path d="M242.323364,258.902072 L241.998098,269.083892 L240.559041,314.424037 L198.688402,314.424037 L194.435329,269.083892 L192.335883,246.679946 L181.227548,210.023424 L253.431729,195.583573 C253.431729,195.583573 258.985897,216.691382 261.203622,232.240095 C263.426245,247.793746 242.323364,258.902072 242.323364,258.902072 Z" id="Path" fill="#000000" opacity="0.2"></path>
                    <path d="M257.796305,10.0130212 L257.796246,10.0130212 C235.634431,10.0130212 217.668738,29.9510052 217.668738,54.5457523 L217.668738,85.7936433 L227.279154,85.7936433 L232.84304,74.216047 L231.452054,85.7936433 L293.224114,85.7936433 L298.282191,75.2685544 L297.017689,85.7936433 L303.972557,85.7936433 L303.972557,61.2584495 C303.972557,32.9564112 283.298742,10.0130212 257.796305,10.0130212 Z" id="Path" fill="#2F2E41"></path>
                    <path d="M220.105569,154.48353 L213.440647,180.032411 L275.646621,177.810769 L274.535788,156.705172 C274.535788,156.705172 227.88132,144.486141 220.105569,154.48353 Z" id="Path" fill="#FFB9B9"></path>
                    <polygon id="Path" fill="#FFB9B9" points="160.121188 256.678941 180.116192 301.111791 198.99987 277.784779 183.448692 246.681439"></polygon>
                    <circle id="Oval" fill="#FFB9B9" cx="250.09774" cy="53.3988191" r="25.5488812"></circle>
                    <path d="M287.865653,86.7234514 L276.113147,96.5208999 L274.535798,97.8316589 L273.424964,111.161509 L230.102948,111.161509 C230.102948,111.161509 236.012528,106.040645 241.499982,100.742003 C241.611041,100.619831 241.733213,100.486536 241.866572,100.364295 C242.610806,99.6423028 243.277271,98.9757682 243.877156,98.3759526 C244.199273,98.0427173 244.510267,97.7316543 244.787971,97.4428327 C245.243447,96.9651841 245.6878,96.5097817 246.132089,96.0543055 C246.138138,96.0483401 246.142046,96.0405438 246.143207,96.0321282 C247.279988,94.8423307 248.348107,93.5887763 249.342378,92.2775502 L249.353497,92.266432 C249.620289,91.9128828 249.868696,91.5458282 250.09773,91.1667265 C253.430192,85.6126228 245.654445,74.5044153 245.654445,74.5044153 L270.092508,62.2853841 C270.94786,74.3266425 281.13407,82.3689789 285.688409,85.3904462 C287.021419,86.2679751 287.865653,86.7234514 287.865653,86.7234514 Z" id="Path" fill="#FFB9B9"></path>
                    <path d="M347.849985,273.341376 C331.187669,277.784661 330.07685,244.460028 330.07685,244.460028 L307.335317,198.976963 C302.529934,189.3662 299.225611,179.075838 297.537386,168.464129 L292.308933,135.599561 L290.720465,137.499023 L290.720465,137.510141 L287.865648,138.932028 L270.514634,111.161509 L265.649233,103.385768 L265.649233,94.4991976 L282.311549,86.7234514 L288.976471,86.7234514 C288.976471,86.7234514 289.12087,86.7012101 289.376352,86.6789737 C292.442233,86.3568615 312.392597,85.0238613 313.414514,104.496586 C313.81675,112.139077 313.78203,118.470715 313.574057,123.438689 C312.941396,137.183089 314.245588,150.94815 317.448289,164.329162 C318.624304,169.153807 319.907282,173.343912 321.19026,175.589131 C325.633545,183.364877 341.185038,244.460028 341.185038,244.460028 C341.185038,244.460028 364.512301,268.898091 347.849985,273.341376 Z" id="Path" fill="#FFB9B9"></path>
                    <path d="M245.654455,98.9424777 L241.444465,106.618224 L238.956178,111.161509 L226.770521,133.377929 C226.770521,133.377929 223.315883,136.199392 217.717277,139.842916 C208.408595,145.896836 193.145924,154.205826 177.894372,155.594349 C153.456309,157.815991 176.783538,78.9477002 176.783538,78.9477002 C176.783538,78.9477002 184.559285,47.8447153 195.667492,51.1771766 C206.7757,54.5096379 197.889159,65.6178503 190.113388,86.7234514 C182.337617,107.829053 189.002555,131.156301 189.002555,131.156301 C189.002555,131.156301 212.329793,116.715627 224.548825,105.607415 C230.913807,99.8200165 236.379099,98.2537855 240.144726,98.0871358 L240.155849,98.0871358 C241.403591,98.0186037 242.654912,98.1157246 243.877136,98.3759624 C244.488763,98.4982634 245.084873,98.688272 245.654455,98.9424777 L245.654455,98.9424777 Z" id="Path" fill="#FFB9B9"></path>
                    <path d="M249.342388,92.2775552 C249.29798,92.3997271 248.775858,93.3883887 244.78798,97.4428327 C246.415245,95.8204586 247.936519,94.0951409 249.342388,92.2775552 Z" id="Path" fill="#D0CDE1"></path>
                    <path d="M291.753526,136.154983 L290.72047,137.510141 L274.535798,165.591732 C274.535798,165.591732 253.430202,157.815981 237.878709,155.594339 C222.77157,153.439346 216.051046,164.903026 215.673407,165.558373 L220.105569,147.818617 L217.717277,139.842931 C217.439574,138.909811 217.117461,137.876755 216.773108,136.71041 C213.440647,125.602197 225.659678,113.383166 225.659678,113.383166 L240.144755,98.0871408 L240.155878,98.0871408 C241.40362,98.0186086 242.654942,98.1157295 243.877166,98.3759673 C243.277281,98.975783 242.610816,99.6423176 241.866582,100.36431 C241.733223,100.486531 241.611051,100.619846 241.499992,100.742018 C237.245529,105.085308 239.456053,106.296127 241.444465,106.618239 C242.102122,106.719106 242.768354,106.752615 243.432813,106.718244 C248.0649,107.384709 258.206717,103.319132 265.649233,99.9200211 C270.714575,97.6094971 274.535798,95.6100312 274.535798,95.6100312 L284.233247,86.7234662 L285.688419,85.3904659 C287.021419,86.2679899 287.865653,86.7234662 287.865653,86.7234662 L288.976486,86.7234662 C288.976486,86.7234662 289.120885,86.7012249 289.376367,86.6789885 L284.318476,90.4321669 C279.201572,94.2291536 276.355649,100.359116 276.757435,106.718234 L276.757435,106.718234 L291.753526,136.154983 Z" id="Path" fill="#D0CDE1"></path>
                    <path d="M231.213782,167.81338 L214.973843,174.155155 C214.973843,174.155155 126.796624,140.042856 113.466755,167.81338 C100.136885,195.583904 160.121237,262.233168 160.121237,262.233168 L186.780942,250.014137 L175.672729,216.689505 C175.672729,216.689505 240.100347,271.119733 266.760052,241.127567 C293.419756,211.135401 275.646621,168.727403 275.646621,168.727403 C275.646621,168.727403 258.984305,155.594349 231.213782,167.81338 Z" id="Path" fill="#2F2E41"></path>
                    <path d="M184.559299,288.892868 L174.561911,296.668619 C174.561911,296.668619 183.448481,332.214889 180.116014,337.768968 C176.783548,343.323047 170.118626,358.874569 182.337657,357.763746 C194.556688,356.652922 207.886538,337.768993 208.997372,331.10407 C210.108205,324.439148 217.883937,304.444366 217.883937,304.444366 C217.883937,304.444366 231.213791,273.341376 221.216403,272.230557 C211.219014,271.119738 195.295787,270.376273 195.295787,270.376273 L184.559299,288.892868 Z" id="Path" fill="#2F2E41"></path>
                    <path d="M269.203831,22.280315 C265.174837,17.092535 259.23238,13.8065967 252.598717,13.8065967 L251.810898,13.8065967 C236.621146,13.8065967 224.307482,27.5515603 224.307482,44.5068921 L224.307482,44.5069562 L229.397165,44.5069562 L230.219137,38.2503956 L231.424313,44.5069562 L261.610949,44.5069562 L264.140017,39.2137899 L263.507719,44.5069562 L269.446293,44.5069562 C272.217436,58.2691852 268.235753,72.0314143 257.501244,85.7936433 L267.617463,85.7936433 L272.675541,75.2073107 L271.411039,85.7936433 L290.695026,85.7936433 L294.488601,61.4449996 C294.488601,43.2101541 283.893629,27.7473558 269.203831,22.280315 Z" id="Path" fill="#2F2E41"></path>
                </g>
            </g>
            <g id="Group-19-Copy-2" mask="url(#mask-2)" fill-rule="nonzero">
                <g transform="translate(342.719977, 8.806993)">
                    <rect id="Rectangle" fill="url(#linearGradient-3)" x="2.84217094e-14" y="-5.96855898e-13" width="26.8912876" height="48.9767247" rx="12.25"></rect>
                    <rect id="Rectangle" fill="#FFFFFF" x="0.363643738" y="0.662325287" width="26.1640001" height="47.6537573" rx="2"></rect>
                    <path d="M19.6893098,2.79489489 C19.5391949,3.79720646 18.6869231,4.53917802 17.6823139,4.54214762 L9.00908168,4.54214762 C8.00477627,4.53878022 7.15295482,3.79690476 7.00288637,2.79489489 L2.4076904,2.79489489 C2.15467758,2.79489489 1.91195479,2.89594787 1.73297258,3.07639598 C1.55399037,3.2568441 1.45342638,3.50167524 1.45342638,3.75697456 L1.45342638,45.2774429 C1.45342638,45.5327421 1.55357435,45.7776583 1.7324064,45.9582579 C1.91123846,46.1388576 2.15387694,46.2403303 2.40688985,46.2403303 L24.3533536,46.2403303 C24.6063665,46.2403303 24.8490893,46.1392773 25.0280715,45.9588292 C25.2070537,45.7783811 25.3076177,45.53355 25.3076177,45.2782507 L25.3076177,3.75778235 C25.3076177,3.50248312 25.2074697,3.2575669 25.0286376,3.07696728 C24.8498056,2.89636766 24.6071671,2.79489489 24.3541542,2.79489489 L19.6893098,2.79489489 Z" id="Path" fill="#FF6174"></path>
                    <rect id="Rectangle" fill="#DBDBDB" x="10.5673536" y="2.42712341" width="5.83081048" height="1" rx="0.5"></rect>
                    <ellipse id="Oval" fill="#DBDBDB" cx="17.6367213" cy="2.57440032" rx="1" ry="1"></ellipse>
                    <path d="M18.9536788,15.3487784 L17.0403789,13.8953657 L17.8744242,12.8013087 L16.4824026,11.6988358 L15.6124934,12.8114077 L13.6449806,11.3175991 C13.4910375,11.2010399 13.2793135,11.2010399 13.1253704,11.3175991 L7.91008534,15.2351648 C7.71241661,15.4034812 7.52725856,15.5962036 7.52559047,16.0371927 L7.51975215,16.0371927 L7.50640529,22.0730211 L7.50640529,22.0730211 L7.50640529,22.3414859 C7.50596446,22.5160296 7.57425619,22.683602 7.6962591,22.8073387 C7.81826201,22.9310755 7.98398217,23.0008406 8.15696274,23.0012864 L8.41384868,23.0012864 L13.3589031,23.012227 L18.5616775,23.0240113 C18.7346581,23.0244561 18.9007297,22.9555472 19.0233583,22.8324418 C19.1459868,22.7093364 19.2151271,22.5421187 19.215569,22.3675749 L19.2297477,16.0742223 L19.2405903,16.0742223 C19.2405903,15.6323916 19.1513475,15.5170948 18.9536788,15.3487784 Z" id="Path" fill="url(#linearGradient-4)"></path>
                    <path d="M18.7268184,16.1659548 C18.7268184,15.7636785 18.6434139,15.6610054 18.4649282,15.5053127 L13.6216274,11.8301227 C13.481029,11.7236625 13.287654,11.7236625 13.1470556,11.8301227 L8.38882733,15.4051644 C8.15622256,15.572817 8.0242095,15.8484266 8.03852831,16.1364994 L8.03352404,16.1364994 L8.02101276,21.6438141 L8.02101276,21.6438141 L8.02101276,21.8887146 C8.0205519,22.2202491 8.28628924,22.4895176 8.61485359,22.4904459 L8.84922032,22.4904459 L13.3614052,22.5005449 L18.1079569,22.5114861 C18.4365222,22.5119511 18.7033792,22.2438124 18.7042992,21.9122789 L18.7168099,16.1701627 L18.7268184,16.1659548 Z" id="Path" fill="url(#linearGradient-5)"></path>
                    <path d="M8.1139525,16.1704518 L18.6087446,16.170667 L18.608863,21.9969411 C18.608863,22.0902393 18.5721361,22.1797155 18.5067564,22.245686 C18.4413768,22.3116565 18.3527019,22.3487153 18.2602392,22.3487153 L8.5019091,22.3485153 C8.39993472,22.3485132 8.30213611,22.3076359 8.23002785,22.2348761 C8.1579196,22.1621162 8.11740842,22.0634338 8.11740633,21.9605379 L8.11728868,16.1704518 L8.1139525,16.1704518 Z" id="Path" fill="#FF6174" transform="translate(13.361408, 19.259584) rotate(0.130000) translate(-13.361408, -19.259584) "></path>
                    <path d="M8.1139525,16.1704518 L18.6087446,16.170667 L18.608863,21.9969411 C18.608863,22.0902393 18.5721361,22.1797155 18.5067564,22.245686 C18.4413768,22.3116565 18.3527019,22.3487153 18.2602392,22.3487153 L8.5019091,22.3485153 C8.39993472,22.3485132 8.30213611,22.3076359 8.23002785,22.2348761 C8.1579196,22.1621162 8.11740842,22.0634338 8.11740633,21.9605379 L8.11728868,16.1704518 L8.1139525,16.1704518 Z" id="Path" fill="#FFFFFF" opacity="0.2" transform="translate(13.361408, 19.259584) rotate(0.130000) translate(-13.361408, -19.259584) "></path>
                    <path d="M8.12193284,16.1566974 L8.11025449,21.5083194 C8.10981335,21.7263874 8.19524023,21.9357014 8.34774381,22.0902144 C8.50024739,22.2447274 8.7073353,22.3317825 8.92345034,22.3322285 L17.7885175,22.3524264" id="Path" fill="#F5F5F5"></path>
                    <path d="M18.6175585,16.1802617 L18.6058819,21.53525 C18.6054399,21.753318 18.5191645,21.9622773 18.3660352,22.1161591 C18.212906,22.2700408 18.0054666,22.3562396 17.7893516,22.3557945 L8.92428439,22.3355948" id="Path" fill="#FFFFFF"></path>
                    <path d="M13.1462215,11.9698253 L8.47556803,15.4455603 C8.24753924,15.6073623 8.1175394,15.8757462 8.13110734,16.1566974 L18.6309032,16.1903607 C18.6309032,15.7990249 18.5474987,15.6963519 18.3740173,15.5482334 L13.615789,11.9715085 C13.4770445,11.8656709 13.2857078,11.8649851 13.1462215,11.9698253 L13.1462215,11.9698253 Z" id="Path" fill="#FF6174"></path>
                    <path d="M13.1462215,11.9698253 L8.47556803,15.4455603 C8.24753924,15.6073623 8.1175394,15.8757462 8.13110734,16.1566974 L18.6309032,16.1903607 C18.6309032,15.7990249 18.5474987,15.6963519 18.3740173,15.5482334 L13.615789,11.9715085 C13.4770445,11.8656709 13.2857078,11.8649851 13.1462215,11.9698253 L13.1462215,11.9698253 Z" id="Path" fill="#000000" opacity="0.2"></path>
                    <polygon id="Path" fill="url(#linearGradient-6)" points="17.4807548 13.1791791 16.2105039 12.1743299 13.1403832 16.0977866 11.4906417 14.8067994 10.4572596 16.1322915 12.8584759 17.982931 12.8584759 17.982931 13.4539843 18.4651577"></polygon>
                    <polygon id="Path" fill="#FFFFFF" points="17.3873417 13.1547733 16.2363593 12.2643792 13.1862557 16.2778853 11.4923098 14.9675416 10.6090558 16.1289252 12.878493 17.8827827 12.878493 17.8827827 13.4606566 18.3229303"></polygon>
                    <rect id="Rectangle" fill="url(#linearGradient-7)" x="4.93838204" y="27.2310792" width="17.0145235" height="5.13365216"></rect>
                    <rect id="Rectangle" fill="#69F0AE" x="5.52221373" y="27.7360285" width="15.8468601" height="3.70296221"></rect>
                </g>
            </g>
        </g>
    </g>
</svg>