<?xml version="1.0" encoding="UTF-8"?>
<svg width="525px" height="310px" viewBox="0 0 525 310" version="1.1" xmlns="http://www.w3.org/2000/svg" xmlns:xlink="http://www.w3.org/1999/xlink">
    <!-- Generator: Sketch 60.1 (88133) - https://sketch.com -->
    <title>Group 11</title>
    <desc>Created with Sketch.</desc>
    <defs>
        <rect id="path-1" x="1.70530257e-13" y="0" width="518.428571" height="304" rx="9"></rect>
        <filter x="-1.0%" y="-1.3%" width="101.9%" height="103.3%" filterUnits="objectBoundingBox" id="filter-2">
            <feOffset dx="0" dy="1" in="SourceAlpha" result="shadowOffsetOuter1"></feOffset>
            <feGaussianBlur stdDeviation="1.5" in="shadowOffsetOuter1" result="shadowBlurOuter1"></feGaussianBlur>
            <feColorMatrix values="0 0 0 0 0   0 0 0 0 0   0 0 0 0 0  0 0 0 0.5 0" type="matrix" in="shadowBlurOuter1"></feColorMatrix>
        </filter>
        <linearGradient x1="50.0134006%" y1="99.9991192%" x2="50.0134006%" y2="-0.017041968%" id="linearGradient-3">
            <stop stop-color="#808080" stop-opacity="0.25" offset="0%"></stop>
            <stop stop-color="#808080" stop-opacity="0.12" offset="54%"></stop>
            <stop stop-color="#808080" stop-opacity="0.1" offset="100%"></stop>
        </linearGradient>
    </defs>
    <g id="Page-1" stroke="none" stroke-width="1" fill="none" fill-rule="evenodd">
        <g id="Group-11" transform="translate(3.000000, 2.000000)">
            <rect id="Mask-Copy" fill="#FFFFFF" opacity="0.0523623512" x="-1.13686838e-13" y="0" width="518.428571" height="304" rx="9"></rect>
            <g id="Mask" opacity="0.0484328497">
                <use fill="black" fill-opacity="1" filter="url(#filter-2)" xlink:href="#path-1"></use>
                <use fill="#FFFFFF" fill-rule="evenodd" xlink:href="#path-1"></use>
            </g>
            <g id="undraw_gifts_btw0" transform="translate(152.642512, 79.035714)">
                <ellipse id="Oval" fill="#FF6174" fill-rule="nonzero" opacity="0.1" cx="182.320016" cy="184.469179" rx="182.320016" ry="28.6758916"></ellipse>
                <polygon id="Path" fill="#F86D70" fill-rule="nonzero" points="302.181984 128.697829 302.181984 148.575436 296.925823 159.178998 296.925823 159.178998 296.759634 159.514637 282.848568 158.595705 277.501165 158.240515 265.089066 157.4226 265.089066 133.64442 277.501165 133.993093 283.050602 134.149507 297.092013 134.547059"></polygon>
                <polygon id="Path" fill="#000000" fill-rule="nonzero" opacity="0.1" points="302.181984 129.870934 302.181984 148.575436 300.894828 151.166042 300.894828 151.166042 299.581602 153.82182 299.581602 153.82182 296.925823 159.178998 297.222358 139.301392 297.281013 135.290025 299.806447 132.497385 299.806447 132.497385 300.907862 131.278659"></polygon>
                <polygon id="Path" fill="#F86D70" fill-rule="nonzero" points="302.892364 123.418858 302.892364 130.362986 302.181984 131.500246 300.904603 133.530368 299.777119 135.329129 297.281013 139.30465 297.222358 139.301392 263.994169 137.590614 263.994169 130.744245 264.078893 130.653003 268.044638 126.358137 269.481692 124.803773 272.078815 121.994839"></polygon>
                <polygon id="Path" fill="#000000" fill-rule="nonzero" opacity="0.1" points="297.281013 132.455022 297.281013 139.30465 263.994169 137.590614 263.994169 130.744245 264.078893 130.653003"></polygon>
                <polygon id="Path" fill="#000000" fill-rule="nonzero" opacity="0.15" points="302.892364 123.418858 302.892364 130.362986 297.281013 139.30465 297.281013 132.455022"></polygon>
                <polygon id="Path" fill="#3F3D56" fill-rule="nonzero" points="300.911121 126.615568 300.907862 131.278659 300.904603 133.530368 300.894828 151.166042 300.894828 151.166042 299.581602 153.82182 299.777119 135.329129 299.806447 132.497385 299.806447 132.497385 299.852068 128.319828 268.044638 126.358137 269.481692 124.803773"></polygon>
                <polygon id="Path" fill="#3F3D56" fill-rule="nonzero" points="285.299053 126.843672 283.070154 131.682729 283.050602 134.149507 282.848568 158.595705 277.501165 158.240515 277.501165 131.360125 280.352462 126.843672"></polygon>
                <path d="M277.960631,127.169534 C276.672412,127.599718 275.287308,127.648377 273.972076,127.309655 C273.716532,127.259525 273.477128,127.147654 273.27473,126.983793 C273.05607,126.742123 272.906383,126.446125 272.841333,126.126775 C272.608741,125.46745 272.480117,124.77596 272.460074,124.0771 C272.444022,123.367023 272.75965,122.68999 273.313834,122.245753 C273.430498,122.175604 273.539687,122.093713 273.639696,122.001356 C273.757733,121.851174 273.843186,121.678047 273.89061,121.493011 C274.281645,120.329682 275.034387,119.10444 276.246595,118.915439 C277.364303,118.745991 278.380994,119.524802 279.244529,120.257993 L281.134531,121.867753 C281.562883,120.712316 282.657895,119.939428 283.890066,119.922825 C285.122237,119.906223 286.237676,120.649328 286.697003,121.792805 C287.840983,120.501097 289.284372,119.509747 290.900628,118.905664 C291.244333,118.72836 291.649026,118.712841 292.005301,118.863302 C292.208607,119.010493 292.362095,119.21628 292.445215,119.453112 C292.960684,120.579383 293.240144,121.799251 293.266389,123.037599 C293.53845,122.944543 293.838976,123.047849 293.99632,123.288513 C294.141804,123.526884 294.224747,123.798129 294.237459,124.0771 C294.288494,124.509693 294.313522,124.944958 294.312407,125.38055 C294.361168,125.839885 294.245727,126.30165 293.986545,126.683999 C293.602027,127.133689 292.934009,127.17931 292.357233,127.192345 C292.643991,127.446517 292.503871,127.958121 292.187784,128.169932 C291.849663,128.351352 291.464597,128.426321 291.083111,128.385001 C289.613471,128.385001 288.049332,128.329604 286.824089,127.514948 C286.341813,127.189086 285.937743,126.762206 285.452208,126.439602 C284.266069,125.654274 282.773619,125.618429 281.401738,125.683602 C280.124358,125.745515 279.140253,126.771982 277.960631,127.169534 Z" id="Path" fill="#3F3D56" fill-rule="nonzero"></path>
                <path d="M277.690166,126.84693 C277.690166,126.84693 265.421446,128.557708 263.70741,135.971078 L266.278464,135.593077 L268.083742,138.825632 C268.083742,138.825632 269.986778,131.598004 275.598129,129.883968 C281.20948,128.169932 283.207016,127.88969 283.207016,127.88969 C283.207016,127.88969 287.117365,128.83795 290.623645,140.15841 L292.621181,137.398355 L296.140495,138.160873 C296.140495,138.160873 293.572699,129.313709 286.628571,126.843672 L277.690166,126.84693 Z" id="Path" fill="#3F3D56" fill-rule="nonzero"></path>
                <polygon id="Path" fill="#FF6174" fill-rule="nonzero" points="285.035104 136.472906 285.035104 163.323968 277.937821 177.642362 277.937821 177.645621 277.712976 178.098569 258.920491 176.857034 251.696122 176.378016 234.930501 175.270084 234.930501 143.153085 251.696122 143.625586 259.194216 143.837396 278.162666 144.371811"></polygon>
                <polygon id="Path" fill="#000000" fill-rule="nonzero" opacity="0.1" points="285.035104 138.056597 285.035104 163.323968 283.301516 166.820472 283.301516 166.82373 281.522308 170.408217 281.522308 170.408217 277.937821 177.642362 278.338632 150.7913 278.420097 145.375467 281.828618 141.605239 281.828618 141.60198 283.314551 139.959634"></polygon>
                <polygon id="Path" fill="#FF6174" fill-rule="nonzero" points="285.999657 129.339778 285.999657 138.721356 285.035104 140.256168 283.314551 142.996671 281.789515 145.427605 278.420097 150.797817 278.338632 150.7913 233.454344 148.484194 233.454344 139.23296 233.565137 139.112391 238.925574 133.312041 240.864455 131.210228 244.373993 127.413931"></polygon>
                <polygon id="Path" fill="#000000" fill-rule="nonzero" opacity="0.1" points="278.420097 141.546584 278.420097 150.797817 233.454344 148.484194 233.454344 139.23296 233.565137 139.112391"></polygon>
                <polygon id="Path" fill="#000000" fill-rule="nonzero" opacity="0.15" points="285.999657 129.339778 285.999657 138.721356 278.420097 150.797817 278.420097 141.546584"></polygon>
                <polygon id="Path" fill="#3F3D56" fill-rule="nonzero" points="283.321068 133.657455 283.314551 139.959634 283.314551 142.996671 283.301516 166.820472 283.301516 166.82373 281.522308 170.408217 281.789515 145.427605 281.828618 141.605239 281.828618 141.60198 281.890532 135.958043 238.925574 133.312041 240.864455 131.210228"></polygon>
                <polygon id="Path" fill="#3F3D56" fill-rule="nonzero" points="262.231253 133.967024 259.220285 140.503824 259.194216 143.837396 258.920491 176.857034 251.696122 176.378016 251.696122 140.070427 255.551074 133.967024"></polygon>
                <path d="M252.318519,134.406938 C250.578561,134.986672 248.708325,135.052294 246.932013,134.595938 C246.587032,134.529845 246.263611,134.379886 245.990271,134.159283 C245.694268,133.833452 245.491634,133.433811 245.403719,133.002471 C245.089401,132.110382 244.915705,131.174844 244.888856,130.229382 C244.911666,129.28764 245.270115,128.303535 246.042409,127.759345 C246.197351,127.663911 246.343481,127.554858 246.479065,127.433483 C246.635129,127.229942 246.746198,126.995585 246.804927,126.745913 C247.329565,125.175256 248.349515,123.516617 249.988603,123.265703 C251.497346,123.03434 252.872485,124.086876 254.035814,125.077498 L256.587316,127.251 C257.168469,125.692733 258.646981,124.651354 260.309941,124.628999 C261.972901,124.606643 263.478872,125.607901 264.101703,127.149982 C265.646725,125.401698 267.596953,124.059028 269.781485,123.239634 C270.26702,123.057151 270.834021,122.913771 271.277194,123.180978 C271.549627,123.381064 271.756133,123.657918 271.870263,123.976083 C272.565109,125.498021 272.942109,127.145734 272.978195,128.818398 C273.340254,128.693593 273.741018,128.827181 273.955782,129.14426 C274.152741,129.467382 274.264833,129.835044 274.281645,130.213089 C274.350564,130.796026 274.385382,131.382491 274.385921,131.969487 C274.385921,132.588626 274.327266,133.272937 273.923196,133.729144 C273.401816,134.335248 272.499178,134.400421 271.700815,134.419973 C272.085332,134.762128 271.896332,135.449698 271.469452,135.739715 C271.012789,135.985215 270.492373,136.086344 269.977003,136.029733 C267.989242,136.010181 265.877653,135.954785 264.225531,134.850111 C263.573806,134.416714 263.026357,133.836679 262.371374,133.403282 C260.768131,132.340971 258.754301,132.292091 256.896886,132.380074 C255.241505,132.481091 253.911986,133.872524 252.318519,134.406938 Z" id="Path" fill="#3F3D56" fill-rule="nonzero"></path>
                <path d="M251.953553,133.967024 C251.953553,133.967024 235.380191,136.280647 233.053533,146.300916 L236.523968,145.786053 L238.964677,150.155868 C238.964677,150.155868 241.535732,140.379996 249.115291,138.079408 C256.694851,135.778819 259.392992,135.381267 259.392992,135.381267 C259.392992,135.381267 264.658928,136.665165 269.413261,151.954629 L272.111401,148.226763 L276.878768,149.256488 C276.878768,149.256488 273.408334,137.307114 264.030014,133.967024 L251.953553,133.967024 Z" id="Path" fill="#3F3D56" fill-rule="nonzero"></path>
                <polygon id="Path" fill="#3F3D56" fill-rule="nonzero" points="311.931787 149.810454 311.931787 166.429437 307.539162 175.292894 307.539162 175.292894 307.399041 175.573136 295.769012 174.804101 291.29818 174.507566 280.922721 173.823255 280.922721 153.945648 291.29818 154.235666 295.93846 154.366011 307.679283 154.69839"></polygon>
                <polygon id="Path" fill="#000000" fill-rule="nonzero" opacity="0.1" points="311.931787 150.788041 311.931787 166.429437 310.8597 168.593163 310.8597 168.593163 309.758285 170.812286 309.758285 170.815545 307.539162 175.292894 307.786817 158.673912 307.838955 155.320787 309.947285 152.984354 309.947285 152.984354 310.869476 151.967663"></polygon>
                <polygon id="Path" fill="#3F3D56" fill-rule="nonzero" points="312.528115 145.395019 312.528115 151.201887 311.931787 152.150146 310.866217 153.847889 309.924475 155.353374 307.838955 158.673912 307.786817 158.673912 280.007047 157.243376 280.007047 151.517973 280.075478 151.443025 283.392758 147.852021 284.59519 146.555089 286.765434 144.202362"></polygon>
                <polygon id="Path" fill="#000000" fill-rule="nonzero" opacity="0.1" points="307.838955 152.948509 307.838955 158.673912 280.007047 157.243376 280.007047 151.517973 280.075478 151.443025"></polygon>
                <polygon id="Path" fill="#000000" fill-rule="nonzero" opacity="0.15" points="312.528115 145.395019 312.528115 151.201887 307.838955 158.673912 307.838955 152.948509"></polygon>
                <polygon id="Path" fill="#FF6174" fill-rule="nonzero" points="310.869476 148.06709 310.869476 151.967663 310.866217 153.847889 310.8597 168.593163 310.8597 168.593163 309.758285 170.812286 309.924475 155.353374 309.947285 152.984354 309.947285 152.984354 309.986389 149.491109 283.392758 147.852021 284.59519 146.555089"></polygon>
                <polygon id="Path" fill="#FF6174" fill-rule="nonzero" points="297.818686 148.259349 295.954753 152.30656 295.93846 154.366011 295.769012 174.804101 291.29818 174.507566 291.29818 152.036094 293.683492 148.259349"></polygon>
                <path d="M291.682697,148.533073 C290.605678,148.890657 289.448616,148.931375 288.349125,148.650384 C288.135561,148.607226 287.935506,148.513345 287.765831,148.37666 C287.584291,148.174941 287.459481,147.928695 287.404124,147.663021 C287.207137,147.110943 287.097202,146.531589 287.078262,145.945726 C287.065567,145.353043 287.329327,144.788187 287.7919,144.417431 C287.88896,144.358607 287.979607,144.289802 288.062366,144.212138 C288.161172,144.08734 288.232266,143.942929 288.270918,143.788517 C288.59678,142.81093 289.228953,141.79098 290.242385,141.634566 C291.177611,141.491187 292.028111,142.142912 292.748267,142.755533 L294.3287,144.101345 C294.687872,143.136028 295.603732,142.490993 296.633622,142.478002 C297.663511,142.465011 298.59535,143.086739 298.978757,144.04269 C299.937293,142.964986 301.144173,142.137283 302.494812,141.631308 C302.781438,141.482269 303.119672,141.469123 303.417003,141.595463 C303.586677,141.718471 303.715066,141.890036 303.785227,142.087515 C304.216304,143.029393 304.449225,144.04981 304.469538,145.085449 C304.696449,145.006202 304.948131,145.092339 305.078901,145.294001 C305.199817,145.491086 305.270325,145.714921 305.284194,145.945726 C305.325925,146.307011 305.346598,146.670419 305.346108,147.034106 C305.382843,147.419445 305.281187,147.805275 305.059349,148.122487 C304.733487,148.500487 304.179521,148.539591 303.68421,148.549367 C303.783608,148.673074 303.82518,148.833471 303.798384,148.989886 C303.771588,149.146301 303.678997,149.283714 303.544089,149.367281 C303.260671,149.518794 302.93813,149.581258 302.61864,149.546506 C301.390138,149.546506 300.080172,149.500885 299.056964,148.816574 C298.652894,148.549367 298.313997,148.190918 297.909928,147.920452 C296.932341,147.268727 295.671253,147.232882 294.524218,147.288279 C293.491234,147.340417 292.67006,148.200694 291.682697,148.533073 Z" id="Path" fill="#FF6174" fill-rule="nonzero"></path>
                <path d="M291.457852,148.259349 C291.457852,148.259349 281.199704,149.689885 279.769168,155.894305 L281.916601,155.568443 L283.425344,158.273101 C283.425344,158.273101 285.015553,152.228353 289.707971,150.797817 C294.40039,149.367281 296.068805,149.129402 296.068805,149.129402 C296.068805,149.129402 299.327429,149.924506 302.260191,159.384292 L303.931865,157.080444 L306.864627,157.732169 C306.864627,157.732169 304.717194,150.338351 298.913584,148.282159 L291.457852,148.259349 Z" id="Path" fill="#FF6174" fill-rule="nonzero"></path>
                <path d="M253.133175,138.848443 C253.133175,138.848443 245.178874,135.456215 242.829406,137.870856 C240.479938,140.285496 253.133175,138.848443 253.133175,138.848443 Z" id="Path" fill="#000000" fill-rule="nonzero" opacity="0.1"></path>
                <path d="M248.659084,140.20403 C248.659084,140.20403 256.704627,144.723742 253.947831,145.489519 C251.191035,146.255295 248.659084,140.20403 248.659084,140.20403 Z" id="Path" fill="#000000" fill-rule="nonzero" opacity="0.1"></path>
                <path d="M76.1084233,158.097135 C76.1084233,178.437466 87.9144182,194.919587 102.477209,194.919587 C117.04,194.919587 128.845995,178.430949 128.845995,158.097135 C128.845995,137.763321 117.04,121.274683 102.477209,121.274683 C87.9144182,121.274683 76.1084233,137.760062 76.1084233,158.097135 Z M77.9267355,157.605083 C77.9267355,139.799961 88.3087118,125.364256 101.111846,125.364256 C113.91498,125.364256 124.316508,139.806478 124.316508,157.605083 C124.316508,175.403687 113.934531,189.845909 101.128139,189.845909 C88.3217462,189.845909 77.9267355,175.410205 77.9267355,157.605083 Z" id="Shape" fill="#35323E" fill-rule="nonzero"></path>
                <path d="M99.2935334,77.6254141 L101.111846,108.543239 L136.845917,108.543239 C139.945094,108.513651 142.942692,109.647343 145.24665,111.720398 C147.316909,113.610286 148.602966,116.207981 148.850688,119.000164 L148.850688,165.373643 L144.288614,165.373643 L144.321201,162.189967 L99.2772403,162.189967 L99.2772403,157.627893 L144.383114,157.627893 L144.754598,120.420924 C144.76084,119.953126 144.712725,119.486186 144.611218,119.029491 C144.330976,117.804249 143.545648,115.568833 141.443836,114.314262 C140.523046,113.783443 139.476051,113.510999 138.413315,113.525675 L97.9216527,113.525675 L95.6406159,81.2457455 L82.0195673,81.2457455 L82.0195673,77.6254141 L99.2935334,77.6254141 Z" id="Path" fill="#464353" fill-rule="nonzero"></path>
                <path d="M99.2935334,77.6254141 L101.111846,108.543239 L136.845917,108.543239 C139.945094,108.513651 142.942692,109.647343 145.24665,111.720398 C147.316909,113.610286 148.602966,116.207981 148.850688,119.000164 L148.850688,165.373643 L144.288614,165.373643 L144.321201,162.189967 L99.2772403,162.189967 L99.2772403,157.627893 L144.383114,157.627893 L144.754598,120.420924 C144.76084,119.953126 144.712725,119.486186 144.611218,119.029491 C144.330976,117.804249 143.545648,115.568833 141.443836,114.314262 C140.523046,113.783443 139.476051,113.510999 138.413315,113.525675 L97.9216527,113.525675 L95.6406159,81.2457455 L82.0195673,81.2457455 L82.0195673,77.6254141 L99.2935334,77.6254141 Z" id="Path" fill="#000000" fill-rule="nonzero" opacity="0.1"></path>
                <polygon id="Path" fill="#35323E" fill-rule="nonzero" points="98.1595323 94.2183278 63.8331865 93.0843266 65.6514987 140.81991 147.941532 141.729066 145.895116 122.408684 101.111846 129.910037"></polygon>
                <rect id="Rectangle" fill="#464353" fill-rule="nonzero" x="67.0136036" y="157.640928" width="45.4643227" height="4.54578055"></rect>
                <path d="M97.9216527,154.196562 L97.9216527,140.836203 L101.558277,140.836203 L101.558277,154.196562 C102.904089,155.203477 103.839314,157.282479 103.839314,159.690602 C103.839314,163.079571 102.004709,165.826591 99.7464822,165.826591 C97.4882557,165.826591 95.6536504,163.079571 95.6536504,159.690602 C95.656909,157.282479 96.5856168,155.203477 97.9216527,154.196562 Z" id="Path" fill="#464353" fill-rule="nonzero"></path>
                <path d="M115.795206,165.572419 C114.239944,164.128161 111.860608,164.043531 110.206665,165.373643 L110.206665,165.373643 C110.206665,165.373643 104.751729,169.010267 109.750458,184.469179 C109.750458,184.469179 113.390341,186.750216 111.56877,179.467192 C109.747199,172.184167 110.659614,167.644904 112.477926,167.644904 C114.296239,167.644904 116.570758,172.646891 116.570758,172.646891 L119.754434,171.284787 C119.754434,171.284787 118.317381,167.931662 115.795206,165.572419 Z" id="Path" fill="#464353" fill-rule="nonzero"></path>
                <path d="M149.893448,165.572419 C148.338186,164.128161 145.95885,164.043531 144.304907,165.373643 L144.304907,165.373643 C144.304907,165.373643 138.849971,169.010267 143.8487,184.469179 C143.8487,184.469179 147.488583,186.750216 145.670271,179.467192 C143.851959,172.184167 144.757856,167.644904 146.579427,167.644904 C148.400998,167.644904 150.669,172.646891 150.669,172.646891 L153.852676,171.284787 C153.852676,171.284787 152.415623,167.931662 149.893448,165.572419 Z" id="Path" fill="#464353" fill-rule="nonzero"></path>
                <ellipse id="Oval" fill="#35323E" fill-rule="nonzero" cx="149.53174" cy="183.103816" rx="10.2288209" ry="13.6406003"></ellipse>
                <ellipse id="Oval" fill="#35323E" fill-rule="nonzero" cx="115.433498" cy="183.103816" rx="10.2288209" ry="13.6406003"></ellipse>
                <path d="M176.454492,182.168591 C175.401957,181.096504 173.798714,180.301399 172.830902,180.301399 C170.794262,180.301399 162.765013,170.773183 162.230598,169.424112 C162.035081,168.93206 161.709218,169.09825 161.376839,169.531647 C160.725114,167.990318 159.871355,165.820074 159.643251,164.268969 C160.503528,164.050641 161.054235,163.890969 161.054235,163.890969 C161.054235,163.890969 161.158511,160.821345 160.40251,160.502 L160.382958,160.502 C159.653027,160.071861 159.653027,153.740355 159.653027,153.740355 C159.653027,153.740355 157.942249,148.145297 158.157318,146.12495 C158.372387,144.104603 153.885262,128.727156 153.885262,128.727156 C153.885262,128.727156 152.708899,119.48244 150.567983,118.547215 C148.759447,117.755369 133.525379,113.408365 128.819926,112.072329 C128.718909,111.844225 127.988977,110.410431 125.623216,110.410431 C123.052161,110.410431 115.345515,110.517965 112.77772,107.552617 C112.460287,107.160038 112.194193,106.728595 111.985874,106.26872 C113.256737,103.932286 113.338203,100.077334 112.881996,99.1877295 C112.230271,97.9168661 111.813167,95.3751393 111.813167,95.3751393 C111.813167,95.3751393 111.487305,89.2358916 111.057166,87.6456831 C110.627028,86.0554746 108.815233,73.0340129 108.815233,73.0340129 C108.815233,73.0340129 105.17535,69.5635782 102.604295,68.8140947 C101.484674,68.4452332 100.433322,67.8947868 99.4923095,67.1847827 C99.531413,66.9729721 99.5705165,66.7807133 99.5998441,66.6177821 C101.272376,65.2208933 102.421251,63.297676 102.858468,61.1628454 C102.907937,61.0470118 102.942959,60.9255292 102.962744,60.8011382 C102.982881,60.6346535 102.991591,60.4669851 102.988813,60.2993101 C103.021399,59.9929994 103.040951,59.6834301 103.04421,59.3706022 L103.04421,59.2761021 C103.04421,59.2402573 103.04421,59.2044124 103.04421,59.1685675 C103.077044,59.0174298 103.137828,58.8737575 103.223434,58.7449464 C103.598176,58.2072734 104.37047,58.0932216 104.98635,57.8260144 C105.079168,57.7834226 105.169471,57.7355511 105.256815,57.682635 L105.335022,57.630497 C105.393678,57.5946521 105.449074,57.5588073 105.501212,57.5197038 L105.592454,57.4447554 L105.726057,57.3307036 L105.81404,57.2427207 C105.853144,57.2036172 105.892247,57.1645137 105.928092,57.1221516 L106.012816,57.0211343 C106.045402,56.9787722 106.077989,56.9396687 106.107316,56.8973066 L106.185523,56.7832547 C106.213892,56.7434772 106.240003,56.702136 106.26373,56.659427 C106.289799,56.6170649 106.315868,56.5747028 106.338679,56.5290821 C106.361489,56.4834613 106.381041,56.4476164 106.400592,56.408513 C106.420144,56.3694095 106.449472,56.3107542 106.469024,56.2618749 C106.486189,56.225781 106.501418,56.1887974 106.514644,56.1510817 C106.537455,56.0956851 106.560265,56.0402884 106.579817,55.9848918 L106.609144,55.896909 C106.628696,55.8317365 106.651507,55.766564 106.671058,55.6981329 C106.671058,55.6981329 106.671058,55.6981329 106.671058,55.6785812 C106.815297,55.1271968 106.865966,54.5555133 106.820955,53.9873553 L106.820955,53.9873553 C106.820955,53.8439758 106.794886,53.703855 106.772076,53.5637342 C106.612403,52.5861469 106.260472,51.5792321 106.377782,50.6146794 L106.377782,50.6146794 C106.377782,50.5299552 106.403851,50.4452309 106.420144,50.3605067 C106.420144,50.3605067 106.420144,50.340955 106.420144,50.3311791 C106.439481,50.2430924 106.46341,50.156077 106.491834,50.0704892 C106.625438,49.6827129 106.853541,49.3275229 106.977369,48.9397466 L106.977369,48.9397466 C107.002581,48.8595088 107.023252,48.7779138 107.039283,48.6953498 L107.039283,48.6301774 C107.039283,48.5617462 107.058835,48.4933151 107.062093,48.424884 C107.062093,48.4085909 107.062093,48.3922978 107.062093,48.3760047 C107.069526,48.1970942 107.057507,48.0179056 107.026248,47.8415903 L107.026248,47.8415903 C106.867275,47.0784029 106.457813,46.3902314 105.86292,45.8864159 C104.979832,45.1108634 103.823021,44.6839836 102.685761,44.3092419 C99.7529994,43.3316546 96.6996687,42.4062054 93.5942,42.2074294 C92.2320951,42.1194465 90.4496278,41.699084 89.3579887,42.5332918 C88.0838667,43.510879 87.2887624,44.2440694 85.7050711,44.9088287 C84.5612941,45.3878464 83.3686377,46.1242955 83.0981719,47.281107 C83.0356841,47.7956301 83.0171515,48.3145421 83.0427753,48.832212 C82.9906373,49.8749717 82.4888092,50.8460417 82.1662054,51.8431807 C81.963553,52.4267088 81.8815157,53.0453141 81.9250672,53.6614929 C81.9250672,53.6614929 81.9250672,53.6810446 81.9250672,53.6908205 C81.9250672,53.7625102 81.944619,53.8342 81.9576535,53.9026311 C81.9576535,53.9026311 81.9576535,53.9287001 81.9576535,53.9384759 C81.9894899,54.0936639 82.03642,54.2453682 82.0977743,54.3914247 C82.0977743,54.4109764 82.1140674,54.4272695 82.1205847,54.4468213 C82.1271019,54.466373 82.1727227,54.5543559 82.2020503,54.6064939 L82.2313779,54.6618905 C82.27374,54.7303216 82.3161021,54.7954941 82.3649815,54.8606665 C82.5637576,55.1246151 82.8309647,55.3462015 83.0167063,55.6231846 C83.2492589,56.0556124 83.3765326,56.5367965 83.3881894,57.0276515 C83.4403274,57.5229624 83.4892068,58.0215319 83.5413448,58.5168427 C83.5413448,58.5559462 83.5413448,58.5917911 83.5413448,58.6276359 C83.5250516,58.8459637 83.5152758,59.0675502 83.5152758,59.2793607 C83.5167181,59.7923195 83.5581193,60.3043864 83.6391035,60.8109141 C82.5539817,61.6288287 81.4362736,62.6096745 81.2049113,63.3265718 C81.0445049,63.5317823 80.9542615,63.7830933 80.94748,64.0434691 L80.94748,64.0434691 C79.9275307,64.841832 75.5935607,64.3693315 75.5935607,64.3693315 C75.5935607,64.3693315 72.0612122,66.2756266 70.7773144,65.5326603 C69.4934165,64.789694 61.783512,70.7203898 61.783512,70.7203898 C61.783512,70.7203898 59.7501306,70.8279244 59.642596,71.6751666 C59.642596,71.6751666 57.0748002,73.5814617 55.1456948,73.5814617 C53.2165894,73.5814617 52.0402261,76.0156539 52.0402261,76.0156539 C52.0402261,76.0156539 48.8304814,77.4983278 47.7583941,77.7101384 C46.6863068,77.9219489 44.8679945,78.9810018 45.4056675,79.4046229 C45.9433405,79.828244 45.2981329,80.7797622 44.3335802,81.5227285 C43.3690275,82.2656948 41.8700604,86.0848022 43.1572169,86.6029234 C44.4443734,87.1210446 47.9734633,88.1931319 48.938016,88.721029 C49.306456,88.9136498 49.7239961,88.9919386 50.1371896,88.9458741 C50.6045821,88.9764387 51.0727646,88.899523 51.5058117,88.721029 L51.6557084,88.5352875 C52.9135373,89.4900643 54.5526252,90.4709102 56.1297993,90.6273241 C58.6128708,90.8749795 63.950497,91.8916702 66.2119821,92.3315845 C66.2119821,92.4717053 66.2119821,92.6118262 66.2119821,92.751947 C66.1924303,96.7079166 66.3781719,100.807266 67.1406899,102.061836 C68.7471916,104.711097 68.9590021,125.462015 68.9590021,125.462015 C68.9590021,125.462015 73.9903177,126.204981 75.7043539,127.791931 C77.333666,129.290898 85.5388813,132.028143 87.1584175,128.472984 L87.6732801,128.69457 C91.8443188,130.503107 97.3807211,133.07742 98.0161528,134.234231 C99.0426194,136.140526 106.42992,139.317685 106.42992,139.317685 C106.42992,139.317685 111.249425,139.421961 109.854734,143.879758 C108.460043,148.337556 119.102709,159.006291 119.102709,159.006291 C119.086114,159.680619 119.302473,160.340057 119.71533,160.873483 C119.85047,161.043546 120.003409,161.198669 120.171538,161.336207 C120.598417,161.66207 121.927936,162.258398 123.469265,162.522347 C123.863559,163.408692 124.176387,164.177728 124.12099,164.301555 C124.065593,164.425383 124.583715,164.884849 125.264767,165.484436 L125.264767,165.484436 C125.788723,166.651213 126.404359,167.774613 127.10589,168.844077 L127.10589,168.844077 C127.339879,169.238439 127.667905,169.568705 128.060667,169.805371 C129.103426,170.228992 139.967679,176.687585 142.004319,176.899396 C143.897579,177.098172 147.742756,178.02688 151.203415,175.331998 L150.64619,179.848451 L150.460448,181.347418 C150.460448,181.347418 155.921902,183.569799 158.170353,183.569799 C160.418803,183.569799 168.017915,187.170579 168.017915,187.170579 C168.017915,187.170579 173.04923,188.229632 176.369768,186.00725 C178.106615,184.843921 177.614562,183.33192 176.454492,182.168591 Z M141.913077,133.067644 C141.375404,134.230973 141.724077,136.349078 141.97825,136.349078 C142.232423,136.349078 143.412044,138.043563 142.770095,139.949858 C142.128147,141.856153 146.944393,159.218102 149.085309,161.548018 C149.085309,161.548018 149.085309,161.606673 149.046205,161.707691 C148.889791,162.414812 148.440101,165.292177 151.441294,165.464884 L151.78345,165.464884 C152.011553,167.276679 152.353709,170.127975 152.562261,172.493736 C152.079984,171.089269 150.21931,169.66525 148.361894,168.544284 C146.975248,167.719221 145.536221,166.985557 144.053993,166.347971 C144.053993,166.347971 138.058125,164.920694 136.774227,163.741072 C135.490329,162.56145 131.661446,160.446603 131.661446,160.446603 L131.661446,160.446603 C131.058601,159.902413 130.380807,159.289791 129.742117,158.703239 C129.777961,158.455584 129.800772,158.194894 129.813806,157.917911 C129.662395,157.362446 129.472948,156.818057 129.246806,156.288599 C128.995892,155.71834 128.673288,155.164373 128.314839,154.939528 C127.46108,154.411631 124.567422,143.505017 124.567422,142.230895 C124.567422,140.956773 122.749109,134.925059 122.10716,133.866007 C121.465211,132.806954 120.715728,130.151175 120.715728,130.151175 C120.715728,130.151175 130.455755,131.643625 139.557092,130.8029 C139.540799,130.842004 142.431199,131.901056 141.913077,133.067644 Z M66.5280686,84.1491795 L66.5280686,84.2730072 L65.961068,84.1328864 C66.3129994,84.1491795 66.5280686,84.1491795 66.5280686,84.1491795 Z M97.4328591,67.9896628 C97.4328591,68.1819217 97.4328591,68.3806977 97.4328591,68.5794738 L97.3220659,68.4654219 C97.2308244,68.3644046 97.1461002,68.2601286 97.0581173,68.1558527 C97.1852037,68.1167492 97.3090314,68.0483181 97.4328591,67.9896628 Z M107.909335,90.2753927 C107.801801,89.6529955 107.743146,89.2978055 107.743146,89.2978055 L107.782249,88.7014773 L107.909335,90.2753927 Z M58.3782499,82.757747 C58.6041927,82.6812475 58.8381745,82.6309523 59.0755954,82.6078503 C59.2825528,82.6258543 59.4845643,82.6810487 59.6719236,82.7707815 C59.9228377,82.888092 60.1835276,82.9988852 60.4474761,83.0966439 L58.5802845,82.7707815 C58.514493,82.761153 58.4479274,82.7578793 58.3815085,82.7610057 L58.3782499,82.757747 Z" id="Shape" fill="url(#linearGradient-3)" fill-rule="nonzero"></path>
                <path d="M121.765005,159.224619 C121.765005,159.224619 123.915697,163.675899 123.811421,163.991986 C123.707145,164.308073 128.43215,168.088076 128.43215,168.088076 L133.580776,164.412348 L133.056137,161.890173 C133.056137,161.890173 127.278597,156.676375 126.864752,156.080047 C126.450906,155.483719 121.765005,159.224619 121.765005,159.224619 Z" id="Path" fill="#A1616A" fill-rule="nonzero"></path>
                <path d="M151.128466,174.289238 C147.54398,177.756414 143.353389,176.703878 141.352594,176.495326 C139.351799,176.286775 128.69284,169.873802 127.666373,169.45344 C127.280239,169.219121 126.958764,168.892045 126.731148,168.501922 L126.731148,168.501922 C126.044297,167.437829 125.44074,166.322228 124.92587,165.165091 C124.99756,165.184642 128.494064,166.181781 129.377151,165.165091 C129.377151,165.165091 130.84679,163.359813 131.162877,163.359813 C131.478963,163.359813 131.185687,160.195689 131.185687,160.195689 C131.185687,160.195689 134.946139,162.310536 136.207227,163.454313 C137.468314,164.59809 143.350131,166.028626 143.350131,166.028626 C144.808446,166.661686 146.223568,167.389929 147.586342,168.208645 C150.3855,169.919423 153.161848,172.31777 151.128466,174.289238 Z" id="Path" fill="#67647E" fill-rule="nonzero"></path>
                <path d="M151.128466,174.289238 C147.54398,177.756414 143.353389,176.703878 141.352594,176.495326 C139.351799,176.286775 128.69284,169.873802 127.666373,169.45344 C127.280239,169.219121 126.958764,168.892045 126.731148,168.501922 C127.975942,167.758955 136.096433,172.923874 138.370953,173.868875 C140.645473,174.813876 146.393685,174.289238 149.652309,172.923874 C151.281622,172.242822 149.629499,170.147527 147.576566,168.218421 C150.3855,169.919423 153.161848,172.31777 151.128466,174.289238 Z" id="Path" fill="#000000" fill-rule="nonzero" opacity="0.1"></path>
                <path d="M150.711362,163.359813 C150.711362,163.359813 152.210329,174.602066 151.82907,176.068447 C151.447811,177.534828 161.220425,171.024097 161.220425,171.024097 C161.220425,171.024097 157.802128,163.978951 158.802526,162.359415 C159.802923,160.739879 150.711362,163.359813 150.711362,163.359813 Z" id="Path" fill="#A1616A" fill-rule="nonzero"></path>
                <path d="M160.060355,163.571623 C160.060355,163.571623 153.966728,165.357349 150.610345,165.145539 C147.677583,164.963056 148.104463,162.121536 148.260877,161.417673 C148.283687,161.316656 148.299981,161.258 148.299981,161.258 C146.198168,158.947636 141.45687,141.706256 142.108595,139.822771 C142.76032,137.939287 141.583956,136.238285 141.333042,136.238285 C141.082128,136.238285 140.743231,134.136472 141.26787,132.979661 C141.792508,131.822849 138.957505,130.773572 138.957505,130.773572 C130.025617,131.614297 120.464814,130.121848 120.464814,130.121848 C120.464814,130.121848 121.198004,132.761333 121.830177,133.81061 C122.46235,134.859887 124.248076,140.852497 124.248076,142.113584 C124.248076,143.374672 127.083079,154.196562 127.923804,154.721201 C128.275736,154.942787 128.591822,155.493494 128.839478,156.057236 C129.060749,156.579745 129.246904,157.116438 129.396702,157.663738 C129.07084,164.702366 121.093728,161.971639 119.946693,161.026638 C119.257391,160.459633 118.869857,159.605132 118.897416,158.713015 C118.897416,158.713015 108.469819,148.125745 109.835182,143.716827 C111.200546,139.307909 106.472282,139.200374 106.472282,139.200374 C106.472282,139.200374 99.2251023,136.039509 98.2149289,134.149507 C97.5925317,132.986178 92.1538881,130.431417 88.0610563,128.635915 C85.4965192,127.51169 83.4598792,126.680741 83.4598792,126.680741 L85.1641395,120.580596 L86.5164685,115.761091 L89.0451608,114.809573 L97.1200312,111.782311 L111.637201,109.784775 L112.96672,109.957482 L127.066786,111.782311 C127.066786,111.782311 147.66129,117.664128 149.763103,118.592836 C151.864915,119.521544 153.021727,128.69457 153.021727,128.69457 C153.021727,128.69457 157.433904,143.931896 157.225352,145.93595 C157.0168,147.940004 158.694991,153.492699 158.694991,153.492699 C158.694991,153.492699 158.694991,159.778585 159.40863,160.205465 L159.43144,160.205465 C160.161372,160.52481 160.060355,163.571623 160.060355,163.571623 Z" id="Path" fill="#4C4981" fill-rule="nonzero"></path>
                <path d="M138.941212,130.786607 C130.009324,131.627332 120.448521,130.134882 120.448521,130.134882 C119.816348,128.15038 110.998511,122.685668 110.998511,122.685668 C118.229398,120.906459 138.941212,130.786607 138.941212,130.786607 Z" id="Path" fill="#000000" fill-rule="nonzero" opacity="0.1"></path>
                <path d="M129.380409,157.686548 C129.054547,164.725176 121.077435,161.994449 119.9304,161.049448 C119.765346,160.912959 119.615652,160.758895 119.483968,160.589982 C122.276609,161.619708 127.2232,162.411553 128.83296,156.080047 C129.05091,156.602798 129.233798,157.139487 129.380409,157.686548 L129.380409,157.686548 Z" id="Path" fill="#444053" fill-rule="nonzero"></path>
                <path d="M160.060355,163.571623 C160.060355,163.571623 153.966728,165.357349 150.610345,165.145539 C147.677583,164.963056 148.104463,162.121536 148.260877,161.417673 C151.346794,161.319914 156.658351,161.029897 159.415147,160.195689 L159.437958,160.195689 C160.161372,160.52481 160.060355,163.571623 160.060355,163.571623 Z" id="Path" fill="#444053" fill-rule="nonzero"></path>
                <path d="M129.380409,157.686548 C129.054547,164.725176 121.077435,161.994449 119.9304,161.049448 C119.765346,160.912959 119.615652,160.758895 119.483968,160.589982 C122.276609,161.619708 127.2232,162.411553 128.83296,156.080047 C129.05091,156.602798 129.233798,157.139487 129.380409,157.686548 L129.380409,157.686548 Z" id="Path" fill="#000000" fill-rule="nonzero" opacity="0.1"></path>
                <path d="M160.060355,163.571623 C160.060355,163.571623 153.966728,165.357349 150.610345,165.145539 C147.677583,164.963056 148.104463,162.121536 148.260877,161.417673 C151.346794,161.319914 156.658351,161.029897 159.415147,160.195689 L159.437958,160.195689 C160.161372,160.52481 160.060355,163.571623 160.060355,163.571623 Z" id="Path" fill="#000000" fill-rule="nonzero" opacity="0.1"></path>
                <path d="M175.08587,185.531491 C171.827246,187.737579 166.890431,186.688302 166.890431,186.688302 C166.890431,186.688302 159.43144,183.103816 157.225352,183.103816 C155.019263,183.103816 149.658827,180.897728 149.658827,180.897728 L149.838051,179.411795 L150.711362,172.291701 C150.711362,172.291701 158.897026,172.083149 159.222888,171.3467 C159.222888,171.3467 160.695786,167.726369 161.220425,169.065664 C161.745063,170.404958 169.627675,179.861485 171.621953,179.861485 C172.573471,179.861485 174.147386,180.650072 175.18037,181.712384 C176.311113,182.875712 176.780355,184.377938 175.08587,185.531491 Z" id="Path" fill="#67647E" fill-rule="nonzero"></path>
                <path d="M146.820565,123.431892 C146.820565,123.431892 139.977455,127.739793 141.88375,128.684794 C143.790045,129.629795 146.820565,123.431892 146.820565,123.431892 Z" id="Path" fill="#000000" fill-rule="nonzero" opacity="0.1"></path>
                <path d="M149.658827,131.731608 C149.658827,131.731608 143.773752,137.320148 145.97984,137.466786 C148.185929,137.613424 149.658827,131.731608 149.658827,131.731608 Z" id="Path" fill="#000000" fill-rule="nonzero" opacity="0.1"></path>
                <path d="M155.964264,149.491109 C155.964264,149.491109 152.992399,155.122011 154.100331,156.080047 C155.208263,157.038082 155.964264,149.491109 155.964264,149.491109 Z" id="Path" fill="#000000" fill-rule="nonzero" opacity="0.1"></path>
                <path d="M123.074972,155.164373 C124.124249,156.216909 113.090548,151.697197 115.612723,151.485387 C118.134898,151.273576 123.074972,155.164373 123.074972,155.164373 Z" id="Path" fill="#000000" fill-rule="nonzero" opacity="0.1"></path>
                <path d="M101.00757,76.3578094 L100.658897,76.3056714 C99.3554473,76.1036367 94.6141493,75.3606704 90.3649035,74.4384798 C89.3286611,74.2136348 88.3250049,73.9790138 87.4028143,73.7378757 C84.1441902,72.8841162 81.9641707,71.9619256 83.3556032,71.2091834 C85.1999844,70.2087858 86.1710544,68.3904736 86.6826584,66.826334 C86.7326239,66.6720925 86.7782447,66.5221958 86.8195206,66.3766439 C87.045914,65.5879442 87.1879171,64.7774338 87.2431417,63.9587449 C87.2431417,63.9587449 99.1175677,59.7551199 96.8039447,63.9587449 C95.6699435,66.0214539 96.4324615,67.7029039 97.5045488,68.8825258 C98.2401356,69.6615889 99.1057308,70.3066503 100.062569,70.7888209 L101.00757,76.3578094 Z" id="Path" fill="#A1616A" fill-rule="nonzero"></path>
                <path d="M88.2956773,73.0991853 C88.2956773,73.0991853 92.5318885,76.1459988 96.878893,73.6238238 C101.225897,71.1016488 106.892645,95.9030364 106.892645,95.9030364 L112.77772,110.400655 C112.77772,110.400655 116.59031,113.555003 111.845753,114.920366 C107.101197,116.28573 96.5790996,113.555003 93.9070279,117.546817 C91.2349561,121.538632 86.1906061,122.170805 85.6594504,122.170805 C85.1282947,122.170805 83.140534,107.145289 83.140534,107.145289 L82.6061197,85.3874566 L88.2956773,73.0991853 Z" id="Path" fill="#000000" fill-rule="nonzero" opacity="0.1"></path>
                <path d="M111.637201,114.079641 C106.892645,115.445005 96.367289,112.714278 93.7147691,116.706092 C92.5879753,118.328593 91.017741,119.592247 89.1917989,120.345975 C88.0106615,120.872549 86.7514773,121.202755 85.463933,121.323563 C85.3955019,121.323563 85.2977431,121.04658 85.1804327,120.570821 C84.440725,117.530524 82.9450166,106.298047 82.9450166,106.298047 L82.4268953,84.5467316 L87.4191074,73.7313584 L88.1001598,72.2519431 C88.7709637,72.6981871 89.4987266,73.0522042 90.2638862,73.3044787 C92.3771404,74.0872978 94.7284343,73.8952337 96.6866342,72.7798402 C97.9607562,72.0401325 99.34893,73.6498928 100.67519,76.2991542 C103.865383,82.6730228 106.697127,95.0557942 106.697127,95.0557942 L112.582202,109.553413 C112.722674,109.674228 112.856475,109.80259 112.983013,109.93793 C113.800928,110.824276 115.368326,113.004295 111.637201,114.079641 Z" id="Path" fill="#F3F5F9" fill-rule="nonzero"></path>
                <path d="M89.0353849,114.809573 C89.2693663,116.646632 89.3163137,118.502695 89.1755057,120.349234 C89.009547,122.97364 88.6830739,125.585425 88.1979185,128.169932 C88.1706633,128.332173 88.1281114,128.49147 88.0708322,128.645691 C85.5062951,127.521466 83.469655,126.690516 83.469655,126.690516 L85.1641395,120.580596 C84.4244319,117.5403 82.9287234,106.307823 82.9287234,106.307823 L82.4106022,84.5565075 L87.4028143,73.7411343 C84.1441902,72.8873748 81.9641707,71.9651842 83.3556032,71.212442 C85.3759501,70.1142857 86.3502787,68.0320249 86.8195206,66.3799026 C87.6769011,67.570947 88.6796216,68.6502945 89.8044202,69.5929059 L89.8695927,69.6483025 L90.2475931,73.3142545 L90.3649035,74.4417385 L90.6060417,76.7814305 C90.6060417,76.7814305 89.4492302,104.414562 88.6085052,105.991737 C87.7677802,107.568911 88.1881427,110.615724 88.9343676,114.187176 C88.9669538,114.389211 89.0027987,114.594504 89.0353849,114.809573 Z" id="Path" fill="#000000" fill-rule="nonzero" opacity="0.1"></path>
                <path d="M88.5042292,113.763555 C89.2406782,117.348041 88.6085052,123.213565 87.7677802,127.739793 C86.9270552,132.266022 77.991908,129.316967 76.3169752,127.739793 C74.6420425,126.162619 69.6954512,125.429429 69.6954512,125.429429 C69.6954512,125.429429 69.4868992,104.831666 67.9097252,102.205215 C67.1602417,100.960421 66.9810173,96.8936582 67.0005691,92.9670162 C67.0005691,89.4379263 67.1895693,86.0228883 67.2547418,84.8628182 C67.2710349,84.595611 67.2775521,84.4489729 67.2775521,84.4489729 C67.2775521,84.4489729 60.4344416,72.8906334 60.5550107,72.0499084 C60.6755798,71.2091834 62.6568232,71.1049074 62.6568232,71.1049074 C62.6568232,71.1049074 70.2200897,65.2198324 71.4811772,65.9562814 C72.7422647,66.6927305 76.2094407,64.7994699 76.2094407,64.7994699 C76.2094407,64.7994699 80.6053245,65.2980394 81.511222,64.4507971 C81.6245367,64.3551176 81.6851235,64.210921 81.6741532,64.0630209 C81.5698772,62.7172091 86.1515026,59.8463613 86.2948821,59.7583785 C82.4334126,63.2320717 88.6769363,68.5827324 89.3840577,69.1692847 L89.4492302,69.2246813 L90.1856792,76.3578094 C90.1856792,76.3578094 89.0288677,103.990941 88.1881427,105.568115 C87.3474177,107.145289 87.7677802,110.192103 88.5042292,113.763555 Z" id="Path" fill="#80CCFF" fill-rule="nonzero"></path>
                <circle id="Oval" fill="#444053" fill-rule="nonzero" cx="88.0969012" cy="83.7451101" r="1"></circle>
                <path d="M89.1755057,69.5896472 L85.9820542,72.6788228 L81.30267,64.8581251 C81.4146905,64.7614999 81.4749902,64.6179865 81.4656012,64.4703489 C81.3613253,63.1245371 85.9429507,60.2536893 86.0830715,60.1657065 C82.221602,63.6524342 88.471643,69.0030949 89.1755057,69.5896472 Z" id="Path" fill="#000000" fill-rule="nonzero" opacity="0.1"></path>
                <circle id="Oval" fill="#000000" fill-rule="nonzero" opacity="0.1" cx="87.0476242" cy="100.556352" r="1"></circle>
                <circle id="Oval" fill="#444053" fill-rule="nonzero" cx="87.0476242" cy="100.344541" r="1"></circle>
                <path d="M89.3840577,69.1692847 L86.1906061,72.2584603 L81.5079634,64.4377626 C81.621278,64.3420831 81.6818648,64.1978865 81.6708946,64.0499864 C81.5666186,62.7041746 86.148244,59.8333268 86.2916235,59.745344 C82.4334126,63.2288131 88.6769363,68.5827324 89.3840577,69.1692847 Z" id="Path" fill="#80CCFF" fill-rule="nonzero"></path>
                <path d="M128.226856,112.818554 C125.600405,113.975365 108.365543,110.928552 105.846626,110.192103 C103.32771,109.455654 99.6552407,103.782389 101.431191,99.6830403 C103.207141,95.5836913 100.799018,91.5788423 100.799018,91.5788423 C100.799018,91.5788423 97.0157552,83.4909374 96.1750302,81.9137634 C95.3343052,80.3365894 93.568131,75.7484467 93.3367687,74.9794114 C93.3198843,74.80504 93.3739114,74.6312135 93.4866654,74.4971351 C94.1709764,73.457634 96.8039447,71.6165114 96.8039447,71.6165114 C97.5469109,71.8837186 97.6381524,69.7590957 97.6088248,68.1982148 C97.5925317,67.3249035 97.5403937,66.627558 97.5403937,66.627558 C97.5403937,66.627558 97.8890665,66.982748 98.4593257,67.4650244 C98.6678776,67.6409901 98.9057572,67.8332489 99.1664471,68.0320249 C100.157888,68.8282631 101.280416,69.4457642 102.483726,69.8568544 C105.005901,70.5998207 108.577353,74.0441863 108.577353,74.0441863 L107.524818,90.1841512 C107.524818,90.1841512 109.942717,105.359563 112.464892,108.302101 C114.987067,111.244638 122.566626,111.137104 125.072508,111.137104 C127.57839,111.137104 128.226856,112.818554 128.226856,112.818554 Z" id="Path" fill="#000000" fill-rule="nonzero" opacity="0.1"></path>
                <path d="M128.43215,112.189639 C125.805699,113.343192 108.574095,110.296379 106.05192,109.55993 C103.529745,108.823481 99.860534,103.150216 101.639743,99.0541259 C103.418951,94.9580355 101.00757,90.9629624 101.00757,90.9629624 C101.00757,90.9629624 97.2243072,82.8717989 96.3835821,81.2946248 C95.5428571,79.7174508 93.792976,75.1293081 93.5485792,74.3602729 C93.5269775,74.1864415 93.5816381,74.0117652 93.6984759,73.8812551 C94.3795284,72.8384954 97.0157552,70.9973728 97.0157552,70.9973728 C97.7587215,71.2678386 97.849963,69.1432157 97.8206354,67.5823348 C97.8043422,66.705765 97.7522042,66.0084194 97.7522042,66.0084194 C97.7522042,66.0084194 98.100877,66.3636094 98.6678776,66.8491444 C98.8764295,67.0218515 99.1143091,67.2173689 99.3782576,67.416145 C100.367858,68.2075617 101.488355,68.8196442 102.68902,69.2246813 C105.211195,69.9709063 108.782647,73.4152719 108.782647,73.4152719 L107.73337,89.5519782 C107.73337,89.5519782 110.151269,104.72739 112.670185,107.669928 C115.189102,110.612465 122.77192,110.508189 125.28106,110.508189 C127.790201,110.508189 128.43215,112.189639 128.43215,112.189639 Z" id="Path" fill="#80CCFF" fill-rule="nonzero"></path>
                <path d="M99.8540168,66.4287819 C99.8540168,66.4287819 99.7529994,66.9860066 99.5868096,67.8365075 C99.0230676,70.7203898 97.6739973,77.0225687 96.6996687,76.7781719 C96.0023231,76.6022062 94.8227012,75.3671877 93.9070279,74.3016176 C94.5913389,73.2588579 97.2243072,71.4177353 97.2243072,71.4177353 C97.9672734,71.6882011 98.0585149,69.5635782 98.0291873,68.0026973 L98.8796882,67.2695069 L99.8540168,66.4287819 Z" id="Path" fill="#000000" fill-rule="nonzero" opacity="0.1"></path>
                <path d="M99.6422062,66.0084194 C99.6422062,66.0084194 99.5444475,66.5656441 99.3782576,67.416145 C98.8112571,70.3000273 97.4621867,76.6022062 96.4911167,76.3578094 C95.7937712,76.1818437 94.6141493,74.9468252 93.6984759,73.8812551 C94.3795284,72.8384954 97.0157552,70.9973728 97.0157552,70.9973728 C97.7587215,71.2678386 97.849963,69.1432157 97.8206354,67.5823348 L98.6678776,66.8491444 L99.6422062,66.0084194 Z" id="Path" fill="#80CCFF" fill-rule="nonzero"></path>
                <polygon id="Path" fill="#E65555" fill-rule="nonzero" points="99.2120678 82.0506256 99.2120678 92.7128435 96.393358 98.3991425 96.393358 98.3991425 96.3053752 98.5783668 88.8431261 98.0863146 85.9755369 97.8940557 79.318168 97.4541415 79.318168 84.7031456 85.9755369 84.8921458 88.9539193 84.97687 96.4813409 85.1886806"></polygon>
                <polygon id="Path" fill="#000000" fill-rule="nonzero" opacity="0.1" points="99.2120678 82.6795401 99.2120678 92.7128435 98.5244981 94.1010173 98.5244981 94.1010173 97.8173767 95.5250361 97.8173767 95.5250361 96.393358 98.3991425 96.5530306 87.7369246 96.5856168 85.5862327 97.9379458 84.0905243 97.9379458 84.0872656 98.5277568 83.4355408"></polygon>
                <polygon id="Path" fill="#F86D70" fill-rule="nonzero" points="99.5933268 79.2221399 99.5933268 82.9434886 99.2120678 83.5528513 98.5277568 84.6444904 97.9216527 85.6090431 96.5856168 87.7401832 96.5530306 87.7369246 78.7348743 86.8212512 78.7348743 83.1487819 78.7772364 83.0999026 80.9051179 80.7960553 81.6774118 79.9651062 83.0688443 78.4563633"></polygon>
                <polygon id="Path" fill="#000000" fill-rule="nonzero" opacity="0.1" points="96.5856168 84.0677139 96.5856168 87.7401832 78.7348743 86.8212512 78.7348743 83.1487819 78.7772364 83.0999026"></polygon>
                <polygon id="Path" fill="#000000" fill-rule="nonzero" opacity="0.15" points="99.5933268 79.2221399 99.5933268 82.9434886 96.5856168 87.7401832 96.5856168 84.0677139"></polygon>
                <polygon id="Path" fill="#3F3D56" fill-rule="nonzero" points="98.5310154 80.9329176 98.5277568 83.4355408 98.5277568 84.6444904 98.5244981 94.1010173 98.5244981 94.1010173 97.8173767 95.5250361 97.9216527 85.6090431 97.9379458 84.0905243 97.9379458 84.0872656 97.9640148 81.8485909 80.9051179 80.7960553 81.6774118 79.9651062"></polygon>
                <polygon id="Path" fill="#3F3D56" fill-rule="nonzero" points="90.1596102 81.0567453 88.9636952 83.6538686 88.9539193 84.97687 88.8431261 98.0863146 85.9755369 97.8940557 85.9755369 83.4811616 87.5070902 81.0567453"></polygon>
                <path d="M86.2231924,81.232711 C85.5329176,81.4640919 84.7903197,81.4901281 84.085535,81.3076593 C83.9482555,81.2819826 83.8194936,81.2226402 83.7107932,81.1349523 C83.5928088,81.0060413 83.5127415,80.8470344 83.4794309,80.6754863 C83.3532689,80.3214918 83.2839792,79.9497468 83.2741376,79.5740713 C83.264837,79.1947706 83.4336659,78.8329944 83.730345,78.5964841 C83.7919035,78.5585909 83.8497312,78.5149474 83.903052,78.4661392 C83.9682866,78.3860981 84.0150222,78.292627 84.0399142,78.1924147 C84.2484662,77.5700175 84.6525356,76.9117755 85.3010018,76.8107581 C85.9494679,76.7097408 86.4480374,77.1366205 86.910762,77.5309141 L87.9241941,78.3944494 C88.1547539,77.7764232 88.740966,77.3632366 89.4005313,77.3538657 C90.0600966,77.3444948 90.6578106,77.7408607 90.9058351,78.3520873 C91.5197636,77.6604474 92.2940717,77.1300687 93.160803,76.8074995 C93.3449793,76.7117907 93.5620088,76.7022509 93.7538725,76.7814305 C93.8624633,76.865295 93.9449654,76.9783115 93.9917521,77.1072929 C94.2663808,77.7118443 94.4149545,78.3660119 94.4284077,79.0298811 C94.57471,78.9761074 94.7386064,79.0334711 94.8194426,79.1667433 C94.8990063,79.2942054 94.9439345,79.4402221 94.9497876,79.5903645 C94.9785664,79.8216901 94.9927152,80.0546017 94.9921497,80.28771 C95.0154984,80.534881 94.9496113,80.7822465 94.8064081,80.9850555 C94.5640834,81.1949045 94.2451845,81.2941175 93.9265796,81.25878 C93.9902601,81.3382905 94.016737,81.4413156 93.9992828,81.5416773 C93.9818286,81.642039 93.9221235,81.7300759 93.8353381,81.7834184 C93.6540464,81.8815586 93.447271,81.9224592 93.2422686,81.9007289 C92.4536815,81.9007289 91.6129565,81.8681427 90.9612317,81.431487 C90.7005418,81.25878 90.4854726,81.0274177 90.2247827,80.8579692 C89.589351,80.4343481 88.7877295,80.4147963 88.0512805,80.4506412 C87.3832625,80.4669343 86.8423309,81.0209004 86.2231924,81.232711 Z" id="Path" fill="#3F3D56" fill-rule="nonzero"></path>
                <path d="M86.0765543,81.0600039 C86.0765543,81.0600039 79.4973923,81.9756773 78.581719,85.94794 L79.9568583,85.7459053 L80.9344455,87.4794933 C80.9344455,87.4794933 81.9543949,83.6017307 84.9621049,82.6827987 C87.9698149,81.7638667 89.0419022,81.61397 89.0419022,81.61397 C89.0419022,81.61397 91.1339388,82.1223153 93.0206821,88.1931319 L94.0927694,86.7137166 L95.9795128,87.1210446 C95.9795128,87.1210446 94.6011148,82.376488 90.8797661,81.0534866 L86.0765543,81.0600039 Z" id="Path" fill="#3F3D56" fill-rule="nonzero"></path>
                <path d="M106.368006,96.9523134 C106.368006,96.9523134 101.111846,95.9030364 99.6422062,93.5894134 C98.1725668,91.2757903 88.1653323,89.2815124 89.3840577,91.6994114 C90.6027831,94.1173105 99.6422062,102.022732 99.6422062,102.022732 L103.552555,107.630824 L108.766354,106.304564 L110.969183,102.022732 L106.368006,96.9523134 Z" id="Path" fill="#A1616A" fill-rule="nonzero"></path>
                <path d="M93.9363555,102.948182 C93.9363555,102.948182 99.0263263,104.838184 99.8018788,107.360359 C100.577431,109.882534 93.9363555,102.948182 93.9363555,102.948182 Z" id="Path" fill="#000000" fill-rule="nonzero" opacity="0.1"></path>
                <path d="M90.8145936,105.884202 C90.8145936,105.884202 90.351869,108.510653 96.7322549,108.298842 L90.8145936,105.884202 Z" id="Path" fill="#000000" fill-rule="nonzero" opacity="0.1"></path>
                <path d="M63.2857377,72.2584603 L60.9753732,72.0499084 C60.9753732,72.0499084 58.4531982,73.9399103 56.5599376,73.9399103 C54.6666771,73.9399103 53.5131241,76.3578094 53.5131241,76.3578094 C53.5131241,76.3578094 50.3620347,77.8274488 49.3094991,78.0392594 C48.2569636,78.25107 46.4744962,79.3003469 46.9991347,79.7207094 C47.5237731,80.1410719 46.8948587,81.0860729 45.9498577,81.8225219 C45.0048568,82.558971 43.5319587,86.3389749 44.7930462,86.8636133 C46.0541337,87.3882518 49.5213097,88.4407874 50.4663107,88.9654258 C51.4113116,89.4900643 52.5681232,88.9654258 52.5681232,88.9654258 C52.5681232,88.9654258 58.1338531,81.7149873 60.9721146,83.0836094 C63.8103761,84.4522315 67.6979146,84.4489729 67.6979146,84.4489729 L70.7479867,78.0392594 L63.2857377,72.2584603 Z" id="Path" fill="#000000" fill-rule="nonzero" opacity="0.1"></path>
                <path d="M111.637201,106.832462 C111.21989,107.554132 110.503586,108.053157 109.682027,108.194566 C107.626207,108.434981 105.542832,108.24296 103.56559,107.630824 C103.56559,107.630824 114.1496,104.267924 103.956624,96.0920366 L106.687351,96.0920366 L107.599766,95.7466225 L107.182662,93.5698616 L106.583075,73.9399103 L108.789164,73.4152719 C108.789164,73.4152719 110.565114,86.3389749 110.991994,87.9161489 C111.418874,89.4933229 111.731701,95.5869499 111.731701,95.5869499 C111.731701,95.5869499 112.152064,98.1091249 112.784237,99.3702124 C113.237186,100.318472 113.129651,104.590528 111.637201,106.832462 Z" id="Path" fill="#80CCFF" fill-rule="nonzero"></path>
                <path d="M111.216839,106.832462 C110.799186,107.553818 110.083048,108.052728 109.261664,108.194566 C107.202626,108.43607 105.115837,108.244041 103.135451,107.630824 C103.135451,107.630824 113.719462,104.267924 103.526486,96.0920366 L106.260472,96.0920366 L107.169628,95.7466225 C108.675112,98.3958838 111.02458,103.111113 111.216839,106.832462 Z" id="Path" fill="#000000" fill-rule="nonzero" opacity="0.1"></path>
                <path d="M111.637201,106.832462 C111.21989,107.554132 110.503586,108.053157 109.682027,108.194566 C107.626207,108.434981 105.542832,108.24296 103.56559,107.630824 C103.56559,107.630824 114.1496,104.267924 103.956624,96.0920366 L106.687351,96.0920366 L107.599766,95.7466225 C109.088957,98.3958838 111.444943,103.111113 111.637201,106.832462 Z" id="Path"></path>
                <path d="M111.637201,106.832462 C111.21989,107.554132 110.503586,108.053157 109.682027,108.194566 C107.626207,108.434981 105.542832,108.24296 103.56559,107.630824 C103.56559,107.630824 114.1496,104.267924 103.956624,96.0920366 L106.687351,96.0920366 L107.599766,95.7466225 C109.088957,98.3958838 111.444943,103.111113 111.637201,106.832462 Z" id="Path" fill="#80CCFF" fill-rule="nonzero"></path>
                <path d="M97.5045488,68.8825258 C93.8222683,70.5475953 89.4908962,69.7194046 86.6826584,66.8132996 C86.7326239,66.659058 86.7782447,66.5091613 86.8195206,66.3636094 C87.045914,65.5749097 87.1879171,64.7643993 87.2431417,63.9457104 C87.2431417,63.9457104 99.1175677,59.7420854 96.8039447,63.9457104 C95.6699435,66.0214539 96.4324615,67.7029039 97.5045488,68.8825258 Z" id="Path" fill="#000000" fill-rule="nonzero" opacity="0.1"></path>
                <path d="M103.109382,59.7551199 L103.109382,59.8463613 C103.109382,60.1722237 103.08983,60.4654999 103.057244,60.7685519 C103.024658,61.071604 102.982296,61.3453284 102.926899,61.6288287 C102.076288,65.8622891 98.4953271,69.0012704 94.186926,69.290072 C89.8785248,69.5788736 85.9106576,66.9459067 84.5026389,62.8638472 C84.440725,62.6781056 84.3820698,62.4923641 84.3299318,62.3033639 C84.1001335,61.4734684 83.9839367,60.6162432 83.9845155,59.7551199 C83.9845155,59.5335334 83.9845155,59.3152056 84.0105866,59.103395 C84.3661051,53.9655131 88.7274731,50.032499 93.8746446,50.2081404 C99.0218161,50.3837818 103.104932,54.6049544 103.109382,59.7551199 L103.109382,59.7551199 Z" id="Path" fill="#A1616A" fill-rule="nonzero"></path>
                <path d="M103.109382,59.8463613 C103.058827,60.1509818 103.041346,60.4601744 103.057244,60.7685519 C103.060027,60.9351435 103.051317,61.1017286 103.031175,61.2671214 C103.012464,61.3917493 102.977403,61.5133663 102.926899,61.6288287 C102.539123,62.5347262 101.278035,63.1212785 100.447086,62.5379848 C100.126234,62.2740777 99.8708262,61.939482 99.7008614,61.5603976 C98.8177743,59.9310856 97.589273,58.0313077 95.656909,57.9987215 C94.8324771,57.9824284 94.0569246,58.3245839 93.2585617,58.5331358 C92.4601988,58.7416878 91.5184564,58.7612395 90.9221282,58.2072734 C90.4659209,57.7901696 90.2508517,57.0765309 89.6382304,56.9298928 C89.025609,56.7832547 88.4586085,57.3469967 88.1783668,57.90748 C87.8981251,58.4679634 87.6732801,59.103395 87.1062795,59.390154 C86.8521068,59.5139817 86.555572,59.5498265 86.3079166,59.6834301 C85.1641395,60.3123446 85.688778,62.5053986 84.5026389,62.8605886 L84.388587,62.8866576 L84.3299318,62.3001052 C84.221311,61.2312766 84.1126902,60.1624479 84.0040694,59.0936192 C84.3595879,53.9557373 88.7209559,50.0227231 93.8681274,50.1983646 C99.0152988,50.374006 103.098414,54.5951785 103.102865,59.745344 L103.109382,59.8463613 Z" id="Path" fill="#000000" fill-rule="nonzero" opacity="0.1"></path>
                <path d="M86.122175,45.4823465 C85.0012083,45.9581056 83.8411382,46.691296 83.5771896,47.8383317 C83.517363,48.3487022 83.499924,48.863152 83.5250516,49.3764023 C83.4729137,50.4126447 82.9776028,51.3739388 82.6647749,52.3645605 C82.351947,53.3551822 82.2346365,54.5152524 82.8668096,55.359236 C83.0655857,55.6231846 83.3262756,55.8415124 83.5022413,56.1184954 C83.7325992,56.546934 83.8587501,57.0236285 83.8704658,57.5099279 L84.388587,62.6813643 C85.7246229,62.4337088 85.1282947,60.1233444 86.3079166,59.4781368 C86.555572,59.3445332 86.8521068,59.3054297 87.1062795,59.181602 C87.6732801,58.8981017 87.8948665,58.2496355 88.1783668,57.6989281 C88.4618671,57.1482206 89.0158332,56.5844787 89.6382304,56.7213409 C90.2606276,56.8582031 90.4659209,57.5816176 90.9221282,57.9954629 C91.5184564,58.5396531 92.466716,58.5135841 93.2618203,58.3213253 C94.0569246,58.1290665 94.8324771,57.7706178 95.656909,57.7836523 C97.589273,57.8162385 98.8177743,59.7062405 99.7008614,61.3453284 C99.8720325,61.7236937 100.127246,62.0580345 100.447086,62.3229156 C101.38557,62.9746404 102.868244,62.1502085 103.031175,61.0487936 C103.119158,60.4329137 102.926899,59.745344 103.285348,59.2207055 C103.643797,58.696067 104.409573,58.5689807 105.012419,58.3082908 C106.547231,57.6011694 107.02299,55.6850984 106.768817,54.0720795 C106.583075,52.915268 106.117092,51.719353 106.50161,50.6049035 C106.631955,50.2203859 106.8568,49.8684545 106.977369,49.4839369 C107.303231,48.4020737 106.7623,47.2029 105.895506,46.440382 C105.028712,45.677864 103.894711,45.2477256 102.780261,44.8729838 C99.912672,43.9149484 96.9147379,42.9862405 93.8548899,42.7874644 C92.518854,42.7027402 90.7689729,42.2856363 89.7099201,43.1133268 C88.471643,44.1039485 87.6765387,44.8241045 86.122175,45.4823465 Z" id="Path" fill="#464353" fill-rule="nonzero"></path>
                <circle id="Oval" fill="#000000" fill-rule="nonzero" opacity="0.1" cx="88.6215397" cy="75.442136" r="1"></circle>
                <circle id="Oval" fill="#444053" fill-rule="nonzero" cx="88.6215397" cy="75.2335841" r="1"></circle>
                <circle id="Oval" fill="#000000" fill-rule="nonzero" opacity="0.1" cx="85.2618983" cy="108.435705" r="1"></circle>
                <circle id="Oval" fill="#444053" fill-rule="nonzero" cx="85.2618983" cy="108.227153" r="1"></circle>
                <circle id="Oval" fill="#000000" fill-rule="nonzero" opacity="0.1" cx="87.0476242" cy="117.159041" r="1"></circle>
                <circle id="Oval" fill="#444053" fill-rule="nonzero" cx="87.0476242" cy="116.947231" r="1"></circle>
                <path d="M105.106919,83.7581446 C105.106919,83.7581446 106.26373,91.6049113 105.106919,92.9735334 C103.950107,94.3421555 105.106919,83.7581446 105.106919,83.7581446 Z" id="Path" fill="#000000" fill-rule="nonzero" opacity="0.1"></path>
                <path d="M70.7479867,98.3176769 C70.7479867,98.3176769 68.5386396,103.072009 70.7479867,107.630824 C72.9573339,112.189639 74.3324732,114.040538 73.5829897,116.950489 C72.8335061,119.86044 70.7479867,98.3176769 70.7479867,98.3176769 Z" id="Path" fill="#000000" fill-rule="nonzero" opacity="0.1"></path>
                <path d="M175.08587,185.531491 C171.827246,187.737579 166.890431,186.688302 166.890431,186.688302 C166.890431,186.688302 159.43144,183.103816 157.225352,183.103816 C155.019263,183.103816 149.658827,180.897728 149.658827,180.897728 L149.838051,179.411795 C152.018071,179.832157 156.96792,180.829296 157.53818,181.31809 C158.274629,181.950263 167.314052,184.997077 167.314052,184.997077 C167.314052,184.997077 173.466334,184.228041 175.18037,181.699349 C176.311113,182.875712 176.780355,184.377938 175.08587,185.531491 Z" id="Path" fill="#000000" fill-rule="nonzero" opacity="0.1"></path>
                <g id="Group" opacity="0.1" transform="translate(82.117326, 47.890470)" fill="#000000" fill-rule="nonzero">
                    <path d="M1.40772559,0.648466186 C1.40772559,0.534414344 1.40772559,0.420362502 1.40772559,0.303052037 C1.40772559,0.436655623 1.40772559,0.567000585 1.40772559,0.697345547 C1.40931636,0.681091255 1.40931636,0.664720477 1.40772559,0.648466186 Z" id="Path"></path>
                    <path d="M22.8950926,9.58361333 C22.2922471,9.863855 21.5329877,9.96161372 21.1680218,10.4960281 C20.8030559,11.0304424 21.001832,11.7082362 20.9138492,12.3241162 C20.7509179,13.4255311 19.268244,14.2564802 18.3297603,13.5982382 C18.0092487,13.334003 17.7539064,12.9994934 17.5835354,12.6206509 C16.7004483,10.9913389 15.471947,9.0915611 13.5395829,9.05897486 C12.715151,9.05897486 11.9395985,9.38483726 11.1444943,9.59664783 C10.34939,9.80845839 9.40113038,9.82475151 8.80480218,9.27078542 C8.34859482,8.85694017 8.13352563,8.1433015 7.52090431,7.99666342 C6.90828299,7.85002534 6.34454103,8.41050867 6.06104073,8.97425063 C5.77754044,9.53799259 5.55595401,10.1734243 4.98895342,10.4569246 C4.73478074,10.5807523 4.43824596,10.6198558 4.19059053,10.7534594 C3.01422725,11.4051842 3.60729682,13.7090314 2.27126096,13.9566868 L1.75313974,8.78525044 C1.74142408,8.298951 1.6152731,7.82225658 1.38491522,7.39381797 C1.20894952,7.11683492 0.948259599,6.89850711 0.749483531,6.63455857 C0.512478575,6.30756143 0.364279833,5.92471468 0.319345157,5.52336776 C0.206354185,6.20614696 0.360371499,6.90622566 0.749483531,7.47854219 C0.948259599,7.74249074 1.20894952,7.96081855 1.38491522,8.2378016 C1.6152731,8.66624021 1.74142408,9.14293463 1.75313974,9.62923407 L2.27126096,14.8006704 C3.60729682,14.553015 3.01422725,12.2426506 4.19059053,11.597443 C4.43824596,11.4638394 4.73478074,11.4247359 4.98895342,11.3009082 C5.55595401,11.0174079 5.78079906,10.3689417 6.06104073,9.81823426 C6.3412824,9.2675268 6.89850711,8.70378484 7.52090431,8.84064705 C8.1433015,8.97750926 8.34859482,9.7009238 8.80480218,10.1147691 C9.40113038,10.6589593 10.34939,10.6328903 11.1444943,10.4406315 C11.9395985,10.2483726 12.715151,9.88992399 13.5395829,9.90295849 C15.471947,9.93554473 16.7004483,11.8255467 17.5835354,13.4646346 C17.7547064,13.8429998 18.00992,14.1773407 18.3297603,14.4422218 C19.268244,15.0939466 20.7509179,14.2695147 20.9138492,13.1680998 C21.001832,12.5522198 20.8095732,11.8646502 21.1680218,11.3400117 C21.5264705,10.8153732 22.2922471,10.6882869 22.8950926,10.427597 C24.2995595,9.77587215 24.8144221,8.12374976 24.6971117,6.61500682 C24.6026116,7.84350809 24.0421282,9.05571623 22.8950926,9.58361333 Z" id="Path"></path>
                    <path d="M24.8600429,0.762518028 C24.7394738,1.14703567 24.5146287,1.49896706 24.3842838,1.8834847 C24.2474273,2.33614493 24.2107331,2.81316861 24.2767492,3.28143442 C24.2978454,3.09739252 24.3382578,2.91608282 24.3973183,2.74050283 C24.5276632,2.35598519 24.7525083,2.00405379 24.8730774,1.61953615 C24.9795825,1.26341053 25.0007921,0.887220057 24.9349912,0.521379848 C24.9141526,0.602989189 24.8891369,0.683474568 24.8600429,0.762518028 L24.8600429,0.762518028 Z" id="Path"></path>
                </g>
                <path d="M76.1051647,95.3718807 C73.6872656,94.8439836 68.0140012,93.1690509 68.0140012,93.1690509 L67.0005691,92.9670162 C67.0005691,89.4379263 67.1895693,86.0228883 67.2547418,84.8628182 L67.2775521,84.8628182 C67.2775521,84.8628182 72.1133502,86.4367336 73.2669031,87.2774586 C74.4204561,88.1181836 77.9951666,87.9096317 77.9951666,87.9096317 C77.9951666,87.9096317 83.5641551,88.2354941 88.1881427,93.3743442 C92.8121302,98.5131943 78.5230637,95.9030364 76.1051647,95.3718807 Z" id="Path" fill="#000000" fill-rule="nonzero" opacity="0.1"></path>
                <path d="M52.4866576,85.9935607 C52.0448864,86.1907543 51.7360869,86.6018857 51.6698045,87.0811077 C51.603522,87.5603297 51.789134,88.0398444 52.1607952,88.3495459 C53.4381758,89.4085987 55.308626,90.6794621 57.0910934,90.8586864 C60.0694757,91.1584798 67.2319314,92.595533 67.9455701,92.7389125 L68.0563633,92.7649815 C68.6461742,92.9376886 73.814352,94.4529487 76.0921302,94.9515182 C78.5100292,95.4826739 92.7990957,98.1091249 88.1751082,92.9604989 C83.9193452,88.2192009 78.8652193,87.577252 78.0733736,87.5023036 C78.0115026,87.4990458 77.949503,87.4990458 77.887632,87.5023036 C77.3467004,87.5283726 74.3031456,87.6326486 73.2408341,86.8505788 C72.6913036,86.5070104 72.109607,86.2177991 71.5039875,85.9870435 C69.2196489,85.0417588 66.836978,84.3542817 64.4001871,83.9373689 L59.4698889,83.1064198 C59.1887102,83.0573074 58.8992647,83.0936299 58.6389398,83.2106958 L52.4866576,85.9935607 Z" id="Path" fill="#A1616A" fill-rule="nonzero"></path>
                <path d="M62.8653752,72.2584603 L60.5550107,72.0499084 C60.5550107,72.0499084 58.0328357,73.9399103 56.1395751,73.9399103 C54.2463146,73.9399103 53.0927616,76.3578094 53.0927616,76.3578094 C53.0927616,76.3578094 49.9416722,77.8274488 48.8891366,78.0392594 C47.8366011,78.25107 46.0541337,79.3003469 46.5787722,79.7207094 C47.1034106,80.1410719 46.4744962,81.0860729 45.5294952,81.8225219 C44.5844943,82.558971 43.1115962,86.3389749 44.3726837,86.8636133 C45.6337712,87.3882518 49.1009472,88.4407874 50.0459482,88.9654258 C50.9909491,89.4900643 52.1477607,88.9654258 52.1477607,88.9654258 C52.1477607,88.9654258 57.7134905,81.7149873 60.5517521,83.0836094 C63.3900136,84.4522315 67.2905866,84.4489729 67.2905866,84.4489729 L70.3406587,78.0392594 L62.8653752,72.2584603 Z" id="Path" fill="#80CCFF" fill-rule="nonzero"></path>
                <polygon id="Path" fill="#464353" fill-rule="nonzero" points="67.9227597 110.804724 67.9227597 138.082666 111.56877 138.082666 111.56877 142.64474 68.3789671 142.64474 68.3789671 162.196484 63.8168934 162.196484 63.8168934 110.804724"></polygon>
                <path d="M47.9180667,77.6254141 L65.1887741,77.6254141 L67.0070863,108.543239 L102.747675,108.543239 C105.846852,108.513651 108.84445,109.647343 111.148408,111.720398 C113.218667,113.610286 114.504724,116.207981 114.752446,119.000164 L114.752446,165.373643 L110.206665,165.373643 L110.656355,120.437217 C110.662598,119.969419 110.614483,119.502479 110.512976,119.045784 C110.232734,117.820542 109.447406,115.585126 107.345593,114.330555 C106.424804,113.799736 105.377809,113.527292 104.315073,113.541968 L63.8331865,113.541968 L61.5521497,81.2620386 L47.9180667,81.2620386 L47.9180667,77.6254141 Z" id="Path" fill="#464353" fill-rule="nonzero"></path>
                <path d="M42.0101813,158.097135 C42.0101813,178.437466 53.8161762,194.919587 68.3789671,194.919587 C82.9417579,194.919587 94.7477529,178.430949 94.7477529,158.097135 C94.7477529,137.763321 82.9417579,121.274683 68.3789671,121.274683 C53.8161762,121.274683 42.0101813,137.760062 42.0101813,158.097135 Z M43.8284935,157.605083 C43.8284935,139.799961 54.2104697,125.364256 67.0136036,125.364256 C79.8167375,125.364256 90.2019723,139.799961 90.2019723,157.605083 C90.2019723,175.410205 79.8199961,189.845909 67.0136036,189.845909 C54.2072111,189.845909 43.8284935,175.410205 43.8284935,157.605083 Z" id="Shape" fill="#35323E" fill-rule="nonzero"></path>
                <ellipse id="Oval" fill="#35323E" fill-rule="nonzero" cx="65.6514987" cy="159.234395" rx="4.09283181" ry="6.13924771"></ellipse>
                <ellipse id="Oval" fill="#464353" fill-rule="nonzero" cx="64.7423426" cy="159.462499" rx="1" ry="1.81831222"></ellipse>
                <path d="M113.84329,150.370937 L113.84329,155.369667 C115.270567,154.480062 116.837965,154.717942 118.222881,155.317529 C120.454726,156.336139 122.118072,158.294422 122.762144,160.661672 C123.863559,164.474262 126.020768,171.975615 127.936839,179.027277 C130.664307,189.011701 135.666295,186.730665 135.666295,186.730665 L170.44559,189.233288 L185.22345,181.738453 L185.22345,177.176379 L147.941532,177.176379 C147.941532,177.176379 139.30292,180.360055 135.666295,181.738453 C132.029671,183.116851 133.385258,180.373089 128.591822,163.219692 C123.798386,146.066295 113.84329,150.370937 113.84329,150.370937 Z" id="Path" fill="#464353" fill-rule="nonzero"></path>
                <polygon id="Path" fill="#000000" fill-rule="nonzero" opacity="0.1" points="135.666295 186.74044 170.44559 189.239805 185.22345 181.738453 148.850688 181.285504"></polygon>
                <ellipse id="Oval" fill="#FF6174" fill-rule="nonzero" cx="334.035034" cy="181.529901" rx="19.3790372" ry="3.72786591"></ellipse>
                <ellipse id="Oval" fill="#3F3D56" fill-rule="nonzero" cx="333.71243" cy="179.946209" rx="2.25496784" ry="2.95231339"></ellipse>
                <ellipse id="Oval" fill="#3F3D56" fill-rule="nonzero" cx="333.71243" cy="176.335654" rx="2.25496784" ry="2.95231339"></ellipse>
                <ellipse id="Oval" fill="#3F3D56" fill-rule="nonzero" cx="333.71243" cy="172.728357" rx="2.25496784" ry="2.95231339"></ellipse>
                <ellipse id="Oval" fill="#3F3D56" fill-rule="nonzero" cx="333.71243" cy="169.117802" rx="2.25496784" ry="2.95231339"></ellipse>
                <ellipse id="Oval" fill="#3F3D56" fill-rule="nonzero" cx="333.71243" cy="165.507246" rx="2.25496784" ry="2.95231339"></ellipse>
                <ellipse id="Oval" fill="#3F3D56" fill-rule="nonzero" cx="333.71243" cy="161.896691" rx="2.25496784" ry="2.95231339"></ellipse>
                <ellipse id="Oval" fill="#3F3D56" fill-rule="nonzero" cx="333.71243" cy="158.286135" rx="2.25496784" ry="2.95231339"></ellipse>
                <path d="M342.158784,133.585765 C342.466394,133.192266 342.747266,132.778578 342.999509,132.347488 L337.068813,131.369901 L343.481785,131.415521 C344.722694,128.711279 344.79693,125.615734 343.687079,122.855116 L335.08757,127.316172 L343.019061,121.483235 C340.993606,117.98136 337.182213,115.90366 333.141475,116.098679 C329.100737,116.293697 325.507145,118.728786 323.828342,122.40944 C322.149539,126.090094 322.666586,130.400108 325.168318,133.579248 C324.688874,134.190789 324.275957,134.851675 323.936558,135.550715 L331.633428,139.549047 L323.418437,136.802027 C322.248095,140.261334 322.902529,144.077639 325.158542,146.949382 C321.67614,151.379609 322.182898,157.742191 326.322654,161.565339 C330.46241,165.388487 336.84514,165.388487 340.984896,161.565339 C345.124652,157.742191 345.63141,151.379609 342.149008,146.949382 C345.227348,143.027886 345.227348,137.51052 342.149008,133.589024 L342.158784,133.585765 Z" id="Path" fill="#FF6174" fill-rule="nonzero"></path>
                <path d="M322.857785,140.265944 C322.852599,142.690509 323.666765,145.045732 325.168318,146.949382 C321.685916,151.379609 322.192674,157.742191 326.33243,161.565339 C330.472186,165.388487 336.854916,165.388487 340.994672,161.565339 C345.134428,157.742191 345.641186,151.379609 342.158784,146.949382 C343.621906,145.111518 322.857785,139.053736 322.857785,140.265944 Z" id="Path" fill="#000000" fill-rule="nonzero" opacity="0.1"></path>
                <ellipse id="Oval" fill="#FF6174" fill-rule="nonzero" cx="30.3312727" cy="182.331522" rx="13.3342896" ry="2.56453713"></ellipse>
                <ellipse id="Oval" fill="#3F3D56" fill-rule="nonzero" cx="30.1096862" cy="181.243142" rx="1.55110505" ry="2.03338141"></ellipse>
                <ellipse id="Oval" fill="#3F3D56" fill-rule="nonzero" cx="30.1096862" cy="178.76007" rx="1.55110505" ry="2.03338141"></ellipse>
                <ellipse id="Oval" fill="#3F3D56" fill-rule="nonzero" cx="30.1096862" cy="176.276999" rx="1.55110505" ry="2.03338141"></ellipse>
                <ellipse id="Oval" fill="#3F3D56" fill-rule="nonzero" cx="30.1096862" cy="173.790668" rx="1.55110505" ry="2.03338141"></ellipse>
                <ellipse id="Oval" fill="#3F3D56" fill-rule="nonzero" cx="30.1096862" cy="171.307597" rx="1.55110505" ry="2.03338141"></ellipse>
                <ellipse id="Oval" fill="#3F3D56" fill-rule="nonzero" cx="30.1096862" cy="168.824525" rx="1.55110505" ry="2.03338141"></ellipse>
                <ellipse id="Oval" fill="#3F3D56" fill-rule="nonzero" cx="30.1096862" cy="166.341454" rx="1.55110505" ry="2.03338141"></ellipse>
                <path d="M35.9198129,149.344471 C36.1320007,149.074291 36.3257828,148.79015 36.499848,148.49397 L32.4200507,147.842245 L36.8322276,147.874831 C37.68873,146.014166 37.7394273,143.882519 36.9723485,141.983239 L31.0546872,145.052863 L36.5128825,141.041497 C35.1206642,138.630482 32.4982758,137.19913 29.7173559,137.332363 C26.9364361,137.465596 24.4628961,139.141093 23.307548,141.674162 C22.1521998,144.20723 22.5086088,147.173484 24.2311284,149.360764 C23.9016203,149.781428 23.6176204,150.235828 23.3838862,150.716352 L28.6791503,153.469889 L23.0319548,151.57337 C22.7734097,152.34208 22.6413476,153.147658 22.6409199,153.958683 C22.6373915,155.626783 23.1977868,157.247106 24.2311284,158.556601 C21.8294674,161.605851 22.1757294,165.989095 25.0263751,168.62343 C27.8770207,171.257765 32.2739206,171.257765 35.1245663,168.62343 C37.975212,165.989095 38.3214739,161.605851 35.9198129,158.556601 C38.0446808,155.859564 38.0446808,152.057801 35.9198129,149.360764 L35.9198129,149.344471 Z" id="Path" fill="#FF6174" fill-rule="nonzero"></path>
                <path d="M22.6474371,153.942389 C22.6439087,155.61049 23.204304,157.230813 24.2376457,158.540308 C21.8359846,161.589558 22.1822466,165.972802 25.0328923,168.607137 C27.883538,171.241472 32.2804378,171.241472 35.1310835,168.607137 C37.9817292,165.972802 38.3279912,161.589558 35.9263302,158.540308 C36.9169519,157.275962 22.6474371,153.108182 22.6474371,153.942389 Z" id="Path" fill="#000000" fill-rule="nonzero" opacity="0.1"></path>
                <ellipse id="Oval" fill="#FF6174" fill-rule="nonzero" cx="198.150411" cy="174.344635" rx="9.74980316" ry="1.87370883"></ellipse>
                <ellipse id="Oval" fill="#3F3D56" fill-rule="nonzero" cx="197.98748" cy="173.546272" rx="1.13400117" ry="1.48593257"></ellipse>
                <ellipse id="Oval" fill="#3F3D56" fill-rule="nonzero" cx="197.98748" cy="171.731218" rx="1.13400117" ry="1.48593257"></ellipse>
                <ellipse id="Oval" fill="#3F3D56" fill-rule="nonzero" cx="197.98748" cy="169.916164" rx="1.13400117" ry="1.48593257"></ellipse>
                <ellipse id="Oval" fill="#3F3D56" fill-rule="nonzero" cx="197.98748" cy="168.101111" rx="1.13400117" ry="1.48593257"></ellipse>
                <ellipse id="Oval" fill="#3F3D56" fill-rule="nonzero" cx="197.98748" cy="166.282799" rx="1.13400117" ry="1.48593257"></ellipse>
                <ellipse id="Oval" fill="#3F3D56" fill-rule="nonzero" cx="197.98748" cy="164.467745" rx="1.13400117" ry="1.48593257"></ellipse>
                <ellipse id="Oval" fill="#3F3D56" fill-rule="nonzero" cx="197.98748" cy="162.652691" rx="1.13400117" ry="1.48593257"></ellipse>
                <path d="M202.236726,150.234075 C202.392305,150.037906 202.533863,149.831014 202.660347,149.614937 L199.678706,149.122884 L202.904744,149.148953 C203.232007,148.433089 203.400955,147.655039 203.400055,146.867917 C203.400909,146.171045 203.267021,145.48058 203.005761,144.834535 L198.678308,147.079727 L202.670123,144.146966 C201.646176,142.395874 199.732341,141.360672 197.706381,141.462056 C195.680422,141.56344 193.879498,142.784539 193.035488,144.629108 C192.191478,146.473678 192.444841,148.634746 193.692614,150.234075 C193.451164,150.537013 193.242531,150.864709 193.070216,151.211662 L196.941462,153.222233 L192.816044,151.837318 C192.227276,153.578227 192.556955,155.498698 193.692614,156.943582 C191.939826,159.171825 192.194037,162.373027 194.276534,164.296706 C196.35903,166.220385 199.57031,166.220385 201.652806,164.296706 C203.735302,162.373027 203.989513,159.171825 202.236726,156.943582 C203.787985,154.969989 203.787985,152.191375 202.236726,150.217782 L202.236726,150.234075 Z" id="Path" fill="#FF6174" fill-rule="nonzero"></path>
                <path d="M192.5292,153.587199 C192.526964,154.807241 192.936906,155.992283 193.692614,156.950099 C191.939826,159.178342 192.194037,162.379544 194.276534,164.303223 C196.35903,166.226902 199.57031,166.226902 201.652806,164.303223 C203.735302,162.379544 203.989513,159.178342 202.236726,156.950099 C202.966658,156.02465 192.5292,152.977837 192.5292,153.587199 Z" id="Path" fill="#000000" fill-rule="nonzero" opacity="0.1"></path>
                <circle id="Oval" fill="#FF6174" fill-rule="nonzero" opacity="0.1" cx="182.337938" cy="5.10147729" r="4.97591892"></circle>
                <circle id="Oval" fill="#FF6174" fill-rule="nonzero" opacity="0.1" cx="189.099583" cy="23.3921341" r="8.34207757"></circle>
                <circle id="Oval" fill="#FF6174" fill-rule="nonzero" opacity="0.1" cx="313.945617" cy="57.5653245" r="4.97591892"></circle>
                <circle id="Oval" fill="#FF6174" fill-rule="nonzero" opacity="0.1" cx="296.140495" cy="35.3773533" r="8.34207757"></circle>
                <circle id="Oval" fill="#FF6174" fill-rule="nonzero" opacity="0.1" cx="307.183972" cy="75.8559813" r="8.34207757"></circle>
                <circle id="Oval" fill="#FF6174" fill-rule="nonzero" opacity="0.1" cx="168.374734" cy="73.4120133" r="6.81704151"></circle>
                <circle id="Oval" fill="#FF6174" fill-rule="nonzero" opacity="0.1" cx="188.700401" cy="105.998254" r="6.81704151"></circle>
            </g>
            <g id="undraw_my_universe_lxnl-copy" transform="translate(298.535818, 69.892857)" fill-rule="nonzero">
                <polygon id="Path" fill="#F2F2F2" points="1.12441791 151.320702 0.672308407 151.320702 0.672308407 150.868593 0.583970876 150.868593 0.583970876 151.320702 0.131861375 151.320702 0.131861375 151.40904 0.583970876 151.40904 0.583970876 151.86115 0.672308407 151.86115 0.672308407 151.40904 1.12441791 151.40904"></polygon>
                <polygon id="Path" fill="#F2F2F2" points="146.285811 114.596111 145.833701 114.596111 145.833701 114.144001 145.745364 114.144001 145.745364 114.596111 145.293254 114.596111 145.293254 114.684448 145.745364 114.684448 145.745364 115.136558 145.833701 115.136558 145.833701 114.684448 146.285811 114.684448"></polygon>
                <polygon id="Path" fill="#F2F2F2" points="103.109602 127.003067 102.657492 127.003067 102.657492 126.550958 102.569155 126.550958 102.569155 127.003067 102.117045 127.003067 102.117045 127.091405 102.569155 127.091405 102.569155 127.543514 102.657492 127.543514 102.657492 127.091405 103.109602 127.091405"></polygon>
                <polygon id="Path" fill="#F2F2F2" points="172.836698 129.484459 172.384589 129.484459 172.384589 129.032349 172.296251 129.032349 172.296251 129.484459 171.844142 129.484459 171.844142 129.572796 172.296251 129.572796 172.296251 130.024906 172.384589 130.024906 172.384589 129.572796 172.836698 129.572796"></polygon>
                <polygon id="Path" fill="#F2F2F2" points="88.7175319 140.154441 88.2654224 140.154441 88.2654224 139.702332 88.1770849 139.702332 88.1770849 140.154441 87.7249754 140.154441 87.7249754 140.242779 88.1770849 140.242779 88.1770849 140.694889 88.2654224 140.694889 88.2654224 140.242779 88.7175319 140.242779"></polygon>
                <polygon id="Path" fill="#F2F2F2" points="120.479341 140.65072 120.027231 140.65072 120.027231 140.19861 119.938894 140.19861 119.938894 140.65072 119.486784 140.65072 119.486784 140.739057 119.938894 140.739057 119.938894 141.191167 120.027231 141.191167 120.027231 140.739057 120.479341 140.739057"></polygon>
                <polygon id="Path" fill="#F2F2F2" points="1.62069617 98.4670671 1.16858667 98.4670671 1.16858667 98.0149576 1.08024914 98.0149576 1.08024914 98.4670671 0.628139641 98.4670671 0.628139641 98.5554046 1.08024914 98.5554046 1.08024914 99.0075141 1.16858667 99.0075141 1.16858667 98.5554046 1.62069617 98.5554046"></polygon>
                <polygon id="Path" fill="#F2F2F2" points="97.1542624 94.496841 96.7021529 94.496841 96.7021529 94.0447315 96.6138154 94.0447315 96.6138154 94.496841 96.1617059 94.496841 96.1617059 94.5851785 96.6138154 94.5851785 96.6138154 95.037288 96.7021529 95.037288 96.7021529 94.5851785 97.1542624 94.5851785"></polygon>
                <polygon id="Path" fill="#F2F2F2" points="137.84908 80.6010495 137.396971 80.6010495 137.396971 80.14894 137.308633 80.14894 137.308633 80.6010495 136.856524 80.6010495 136.856524 80.689387 137.308633 80.689387 137.308633 81.1414965 137.396971 81.1414965 137.396971 80.689387 137.84908 80.689387"></polygon>
                <polygon id="Path" fill="#F2F2F2" points="133.382576 84.8194148 132.930466 84.8194148 132.930466 84.3673053 132.842129 84.3673053 132.842129 84.8194148 132.390019 84.8194148 132.390019 84.9077523 132.842129 84.9077523 132.842129 85.3598618 132.930466 85.3598618 132.930466 84.9077523 133.382576 84.9077523"></polygon>
                <circle id="Oval" fill="#F2F2F2" cx="115.764697" cy="73.3251139" r="1"></circle>
                <path d="M109.642887,1.51526906 C109.642887,1.51526906 103.266855,-4.20117418 94.6921912,6.57212375 C86.1175276,17.3454217 72.7058705,22.6221351 69.6277864,26.7995351 C69.6277864,26.7995351 82.3798525,21.5228192 86.7771162,19.3241874 C91.1743798,17.1255555 90.9545062,17.565273 90.9545062,17.565273 C90.9545062,17.565273 85.0181993,21.7426729 83.9188834,25.9200729 C82.8195675,30.0974729 83.6990321,33.6152843 81.7202515,37.7926868 C79.741471,41.9700892 119.536722,40.6509071 119.536722,40.6509071 C119.536722,40.6509071 123.494259,33.835148 122.394943,26.7995326 C121.295627,19.7639172 121.955225,2.3947213 109.642887,1.51526906 Z" id="Path" fill="#2F2E41"></path>
                <path d="M97.5830469,19.4986763 C97.5830469,19.4986763 98.9695069,29.2038941 93.0275325,31.3826252 C87.0855581,33.5613562 89.2642817,36.5323385 89.2642817,36.5323385 L98.1772433,40.8897857 L107.684404,37.9187985 L110.853456,33.1652195 C110.853456,33.1652195 105.703745,31.9768241 107.090205,28.4116379 C108.476665,24.8464518 108.872799,23.6580589 108.872799,23.6580589 L97.5830469,19.4986763 Z" id="Path" fill="#FFB9B9"></path>
                <path d="M97.5830469,19.4986763 C97.5830469,19.4986763 98.9695069,29.2038941 93.0275325,31.3826252 C87.0855581,33.5613562 89.2642817,36.5323385 89.2642817,36.5323385 L98.1772433,40.8897857 L107.684404,37.9187985 L110.853456,33.1652195 C110.853456,33.1652195 105.703745,31.9768241 107.090205,28.4116379 C108.476665,24.8464518 108.872799,23.6580589 108.872799,23.6580589 L97.5830469,19.4986763 Z" id="Path" fill="#000000" opacity="0.1"></path>
                <path d="M122.539347,47.2278919 C122.539347,47.2278919 121.152887,65.4499495 121.549024,66.2422131 C121.945161,67.0344767 121.549024,94.5656276 121.549024,94.5656276 C121.549024,94.5656276 124.321947,109.420564 120.756761,110.212827 C117.191574,111.005091 117.983838,93.5752969 117.983838,93.5752969 L114.418654,70.5996603 L114.814786,47.8220909 L122.539347,47.2278919 Z" id="Path" fill="#FFB9B9"></path>
                <path d="M122.539347,47.2278919 C122.539347,47.2278919 121.152887,65.4499495 121.549024,66.2422131 C121.945161,67.0344767 121.549024,94.5656276 121.549024,94.5656276 C121.549024,94.5656276 124.321947,109.420564 120.756761,110.212827 C117.191574,111.005091 117.983838,93.5752969 117.983838,93.5752969 L114.418654,70.5996603 L114.814786,47.8220909 L122.539347,47.2278919 Z" id="Path" fill="#000000" opacity="0.1"></path>
                <path d="M83.9165112,102.092132 C83.9165112,102.092132 77.3803378,126.85036 77.5784049,138.932376 C77.7764721,151.014392 80.351325,167.849995 80.351325,167.849995 C80.351325,167.849995 80.7474568,175.178431 80.1532604,175.970695 C79.5590639,176.762959 83.1242476,180.130078 83.1242476,180.130078 L86.8875058,177.951342 L88.2739659,176.366817 L88.2739659,174.980354 C88.2739659,174.980354 86.0952422,168.246106 87.8778341,162.898338 C89.6604259,157.55057 90.6507566,144.082084 88.8681573,139.922702 L101.148238,103.478589 L83.9165112,102.092132 Z" id="Path" fill="#FFB9B9"></path>
                <path d="M83.5203794,176.961013 C83.5203794,176.961013 81.1435886,173.990026 79.5590614,174.980367 C77.9745343,175.970707 75.3996788,182.704938 75.3996788,182.704938 C75.3996788,182.704938 66.4867172,191.221768 72.8248234,191.6179 C79.1629296,192.014031 81.9358522,189.835308 82.7281158,188.250781 C83.5203794,186.666254 90.8488138,182.506871 90.8488138,182.506871 C90.8488138,182.506871 90.0565527,174.980369 88.8681673,174.7823 C87.6797818,174.58423 85.8971825,177.753277 85.8971825,177.753277 L83.5203794,176.961013 Z" id="Path" fill="#2F2E41"></path>
                <path d="M105.505688,103.676656 L105.505688,128.236815 C105.52869,131.216889 105.727098,134.193025 106.099884,137.149779 C106.694081,141.507227 102.732765,173.990024 102.732765,173.990024 L103.128897,179.733933 L108.080543,179.337802 L108.67474,174.386155 L115.805109,152.598914 C115.805109,152.598914 118.1819,139.328503 116.993505,134.376857 C115.805109,129.425211 123.133546,97.734677 123.133546,97.734677 L105.505688,103.676656 Z" id="Path" fill="#FFB9B9"></path>
                <path d="M101.54437,178.347473 L103.011284,178.02856 C103.011284,178.02856 104.119225,175.574553 105.505688,176.168757 C106.48134,176.618745 107.405649,177.172582 108.2626,177.820672 L108.872807,178.94168 C108.872807,178.94168 110.259267,181.912667 112.041859,183.893326 C113.82445,185.873985 115.805109,190.231432 112.834122,190.627574 C109.863135,191.023716 105.901817,191.22177 104.713424,190.231442 C103.525031,189.241114 104.317292,187.656587 103.128897,187.260455 C101.940502,186.864323 100.950173,185.675928 101.14825,185.279796 C101.346327,184.883664 101.54437,178.347473 101.54437,178.347473 Z" id="Path" fill="#2F2E41"></path>
                <circle id="Oval" fill="#FFB9B9" cx="105.505688" cy="17.5180173" r="8.80278041"></circle>
                <path d="M88.8681524,32.9671523 L91.4844048,32.0537522 C91.4844048,32.0537522 90.4526771,33.7594085 95.9985222,34.7497367 C101.544367,35.740065 107.287721,36.0906806 109.862855,32.8453508 C109.862855,32.8453508 110.853458,32.3729484 112.239921,33.7594085 C113.626383,35.1458685 114.418644,34.7497318 114.418644,34.7497318 L113.428321,39.8994451 L111.447662,49.4066056 L108.872807,56.5369878 L101.54437,54.9524607 L93.6217364,49.2085509 L90.6507492,41.4839797 L90.6507492,34.3536223 L88.8681524,32.9671523 Z" id="Path" fill="#FF6174"></path>
                <path d="M113.032189,35.7400749 L115.012836,34.3536124 C115.012836,34.3536124 121.747084,35.5420077 122.143206,38.7110621 L116.993495,48.6143545 C118.043831,51.369953 117.972728,54.4273909 116.79543,57.1311843 C114.814771,61.6866987 115.012836,62.6770269 115.012836,62.6770269 L113.626376,68.6190038 L88.4720156,70.5996504 C88.4720156,70.5996504 87.4816923,68.2228621 87.0855531,67.8267303 C86.6894139,67.4305985 86.6894213,66.044136 87.0855531,66.044136 C87.4816849,66.044136 87.0855531,65.4499396 86.6894213,64.8557431 C86.2932895,64.2615467 86.0952249,64.0634795 86.6894213,63.2712159 C87.2836178,62.4789523 85.699098,55.3485825 85.699098,55.3485825 L85.699098,47.6240113 L78.9648501,38.7110497 C78.9648501,38.7110497 81.3416409,35.1458635 82.5300362,34.7497318 C83.7184316,34.3536 89.3715671,32.791383 89.3715671,32.791383 L90.6507244,34.6748731 L92.4333162,49.0104738 L95.0081716,57.7253683 L105.849618,55.8833174 L110.061182,48.8124067 L112.834105,40.4936415 L113.032189,35.7400749 Z" id="Path" fill="#FF6174"></path>
                <path d="M120.558691,37.5226667 L122.143216,38.7110621 C122.143216,38.7110621 123.529678,49.8027474 123.133539,50.5950109 C122.7374,51.3872745 115.805102,52.1795381 115.607037,51.7834063 C115.408973,51.3872745 120.558691,37.5226667 120.558691,37.5226667 Z" id="Path" fill="#FF6174"></path>
                <path d="M87.8778291,31.9768241 L89.8584757,45.0491683 C89.8584757,45.0491683 88.0758838,64.4596212 88.4720156,68.4209367 L88.8681474,69.6093321 C88.8681474,69.6093321 88.0758838,69.2132003 87.8778241,70.0054639 C87.6797644,70.7977275 87.8778241,73.3725829 87.8778241,73.3725829 C87.8778241,73.3725829 86.6894288,74.5609783 86.2932994,81.0971541 C85.8971701,87.6333299 81.1435861,103.28053 82.926178,103.874726 C84.7087698,104.468922 95.4043257,107.439912 101.148235,106.845713 C106.892145,106.251514 127.490991,99.3192116 127.292919,97.5366198 C127.094847,95.754028 117.191572,70.5996603 117.191572,70.5996603 C117.191572,70.5996603 115.408978,67.6286731 115.408978,67.2325413 C115.408978,66.8364095 117.785768,65.2518823 117.191572,63.6673576 C116.597375,62.082833 113.428321,45.4453001 113.428321,45.4453001 L115.607045,33.5613513 L112.636058,32.7690877 L110.457331,44.2569047 C110.457331,44.2569047 101.940502,48.4162873 93.0275424,44.6530365 L91.0468834,31.1845605 L87.8778291,31.9768241 Z" id="Path" fill="#2F2E41"></path>
                <path d="M97.4073941,11.2005216 C97.4073941,11.2005216 112.064266,21.3018786 116.025581,16.7463642 C119.986896,12.1908498 109.093278,8.22953435 109.093278,8.22953435 L99.9822496,7.23921107 L97.4073941,11.2005216 Z" id="Path" fill="#2F2E41"></path>
                <path d="M80.5493922,38.1168632 L78.964865,38.7110621 C78.964865,38.7110621 75.9938778,51.1892099 76.7861414,51.1892099 C77.5784049,51.1892099 87.085563,52.3776053 87.085563,51.9814735 C87.085563,51.5853417 85.3029712,41.8801164 85.3029712,41.8801164 L80.5493922,38.1168632 Z" id="Path" fill="#FF6174"></path>
            </g>
            <g id="Group-7-Copy" transform="translate(382.264134, 109.300853)" fill-rule="nonzero">
                <polygon id="Path" fill="#80CCFF" points="43.1552466 33.4688501 37.2600168 45.3623732 37.071926 45.7385548 21.4655418 44.7079203 15.4672485 44.3111259 1.54337529 43.3912846 1.54337529 16.715885 15.4672485 17.1101027 21.694858 17.2853106 37.445531 17.73106 43.1552466 11.1684943"></polygon>
                <polygon id="Path" fill="#000000" opacity="0.1" points="43.1552466 12.48513 43.1552466 33.4688501 41.7149348 36.3726631 41.7149348 36.3752396 40.2359741 39.351197 40.2359741 39.3537736 37.2600168 45.3623732 37.5923964 23.0620174 37.6593877 18.5632975 40.4910562 15.4301683 40.4910562 15.4301683 41.7252411 14.0645775"></polygon>
                <polygon id="Path" fill="#80CCFF" points="43.9539884 5.24749865 43.9539884 13.0365195 43.1552466 14.3119298 41.7252411 16.5896322 40.4575606 18.6070994 37.6593877 23.064594 37.5923964 23.0620174 0.316920134 21.1450371 0.316920134 13.4616563 0.409677247 13.3611694 4.85944206 8.54295273 6.47238518 6.80118028 9.38392788 3.64743846"></polygon>
                <polygon id="Path" fill="#000000" opacity="0.1" points="37.6593877 15.3837898 37.6593877 23.064594 0.316920134 21.1450371 0.316920134 13.4616563 0.409677247 13.3611694"></polygon>
                <polygon id="Path" fill="#000000" opacity="0.15" points="43.9539884 5.24749865 43.9539884 13.0365195 37.6593877 23.064594 37.6593877 15.3837898"></polygon>
                <polygon id="Path" fill="#3F3D56" points="41.7303943 8.83153041 41.7252411 14.0645775 41.7252411 16.5896322 41.7149348 36.3726631 41.7149348 36.3752396 40.2359741 39.351197 40.4575606 18.6070994 40.4910562 15.4301683 40.4910562 15.4301683 40.5425879 10.7433576 4.85944206 8.54295273 6.47238518 6.80118028"></polygon>
                <polygon id="Path" fill="#3F3D56" points="24.2173361 9.08918906 21.7154707 14.5180567 21.694858 17.2853106 21.4655418 44.7079203 15.4672485 44.3111259 15.4672485 14.154758 18.6673689 9.08918906"></polygon>
                <path d="M15.9825658,9.44475799 C14.538389,9.92500337 12.9865269,9.97956451 11.5121883,9.60192976 C11.22938,9.54379762 10.9644398,9.41927571 10.7392124,9.23863107 C10.4946558,8.96739274 10.3273716,8.63549386 10.2548141,8.27756432 C9.9945172,7.5372261 9.85024212,6.76109574 9.82710075,5.97667262 C9.84513686,5.20369668 10.1440209,4.37403584 10.7830143,3.91540345 C10.9136613,3.83781015 11.0354777,3.74623185 11.146313,3.64228529 C11.2806126,3.47540626 11.3765008,3.28099074 11.4271609,3.07285968 C11.8651806,1.76910693 12.7154542,0.390633176 14.0707386,0.181929673 C15.3255363,-0.00873772451 16.4669641,0.867301671 17.433184,1.68923275 L19.5537146,3.49284327 C20.037718,2.20037017 21.264914,1.33706983 22.6449113,1.31826722 C24.0249085,1.29946462 25.2751697,2.12900935 25.794207,3.40781592 C27.0785193,1.95956471 28.6984071,0.848380082 30.5119368,0.171623328 C30.9138843,0.022181313 31.3853996,-0.101494837 31.7512749,0.122668185 C31.9772506,0.289813097 32.148527,0.5202739 32.2434029,0.784850905 C32.8212684,2.04780832 33.1343158,3.41574626 33.1632443,4.80432578 C33.4682834,4.70058833 33.8048057,4.81736263 33.9800222,5.08775029 C34.1449502,5.35516771 34.2389519,5.66022981 34.2531404,5.97409603 C34.3098561,6.45900413 34.3381679,6.94680695 34.3381679,7.43502055 C34.3381679,7.95033784 34.2892126,8.50430393 33.9542563,8.89594507 C33.5213898,9.39837943 32.7741797,9.45248775 32.1094204,9.46794727 C32.4289172,9.75137178 32.2717454,10.323374 31.918753,10.5655731 C31.5383026,10.7685329 31.1054881,10.8520428 30.6768384,10.8051956 C29.027823,10.7897361 27.2731677,10.7433576 25.8998471,9.82609279 C25.3587639,9.46537068 24.9052847,8.98354901 24.3538952,8.62282691 C23.0218,7.74163434 21.3495954,7.70040896 19.8087967,7.77255338 C18.4122868,7.85500415 17.3069312,9.01189147 15.9825658,9.44475799 Z" id="Path" fill="#3F3D56"></path>
                <path d="M15.6862584,9.08918906 C15.6862584,9.08918906 1.9221335,11.008746 4.26325641e-14,19.3311202 L2.88320025,18.9059835 L4.9083972,22.5338172 C4.9083972,22.5338172 7.04438738,14.422723 13.3389881,12.5031661 C19.6335888,10.5836092 21.8726424,10.2615359 21.8726424,10.2615359 C21.8726424,10.2615359 26.2528394,11.3308193 30.1950167,24.0256608 L32.4366469,20.933757 L36.3839774,21.7891837 C36.3839774,21.7891837 33.5033537,11.8667493 25.7143329,9.09176565 L15.6862584,9.08918906 Z" id="Path" fill="#3F3D56"></path>
                <circle id="Oval" fill="#FF718D" cx="42.3565048" cy="31.4230405" r="1"></circle>
                <path d="M42.1658374,25.3732155 C42.2147925,25.7055951 43.2634632,27.0402669 42.8821284,27.2773129 C42.5007936,27.5143588 41.8798363,27.3726466 42.4518385,28.1353162 C43.0238407,28.8979857 42.9671558,30.0419901 42.5961273,29.8977013 C42.2250989,29.7534125 41.5964118,28.0399825 41.5964118,27.3726466 C41.5964118,26.7053107 42.1658374,25.3732155 42.1658374,25.3732155 Z" id="Path" fill="#000000" opacity="0.1"></path>
            </g>
            <path d="M378.348894,109.928571 C378.348894,109.928571 376.298325,111.121052 375.006467,122.177801 C373.714609,133.23455 373.095338,144.975222 373.095338,144.975222 C373.095338,144.975222 373.095338,154.843875 381.847163,155.181452 C381.847163,155.181452 385.349534,155.865375 386.465043,156.715894 C387.580552,157.566413 405.084202,151.779376 396.808109,150.578127 C388.532015,149.376878 385.509478,149.894204 385.509478,149.894204 C385.509478,149.894204 381.051542,146.825321 381.051542,143.94057 C381.051542,141.055819 385.509478,123.896376 385.509478,123.896376 L378.348894,109.928571 Z" id="Path-Copy" fill="#FBB3B2" fill-rule="nonzero"></path>
            <path d="M378.85679,109.366863 L377.272263,109.961062 C377.272263,109.961062 374.301276,122.43921 375.09354,122.43921 C375.885803,122.43921 385.392961,123.627605 385.392961,123.231473 C385.392961,122.835342 383.610369,113.130116 383.610369,113.130116 L378.85679,109.366863 Z" id="Path-Copy-2" fill="#FF6174" fill-rule="nonzero"></path>
        </g>
    </g>
</svg>