<?xml version="1.0" encoding="UTF-8"?>
<svg width="520px" height="305px" viewBox="0 0 520 305" version="1.1" xmlns="http://www.w3.org/2000/svg" xmlns:xlink="http://www.w3.org/1999/xlink">
    <!-- Generator: Sketch 60.1 (88133) - https://sketch.com -->
    <title>Group 11</title>
    <desc>Created with Sketch.</desc>
    <defs>
        <linearGradient x1="50%" y1="99.9980297%" x2="50%" y2="0.0111575578%" id="linearGradient-1">
            <stop stop-color="#808080" stop-opacity="0.25" offset="0%"></stop>
            <stop stop-color="#808080" stop-opacity="0.12" offset="54%"></stop>
            <stop stop-color="#808080" stop-opacity="0.1" offset="100%"></stop>
        </linearGradient>
    </defs>
    <g id="Page-1" stroke="none" stroke-width="1" fill="none" fill-rule="evenodd">
        <g id="Group-11" transform="translate(0.915547, 0.485564)">
            <rect id="Mask-Copy-2" fill="#FFFFFF" opacity="0.0523623512" x="-1.13686838e-13" y="0" width="518.428571" height="304" rx="9"></rect>
            <g id="undraw_at_the_park_2e47-(1)" transform="translate(151.136396, 43.320747)" fill-rule="nonzero">
                <path d="M17.6105721,196.694182 C17.1480193,196.006468 16.6933199,195.300577 16.2589392,194.595871 L16.9605268,194.160037 C17.389048,194.855818 17.8377081,195.552441 18.2940216,196.230854 L17.6105721,196.694182 Z" id="Path" fill="#3F3D56"></path>
                <path d="M13.7719922,190.158287 C13.0069768,188.65106 12.2959114,187.094106 11.6587823,185.530481 L12.421987,185.216743 C13.0508761,186.759345 13.7522569,188.29548 14.5070079,189.78229 L13.7719922,190.158287 Z M9.93502312,180.742774 C9.4289746,179.130835 8.98413953,177.477252 8.61260663,175.828319 L9.41727921,175.645577 C9.78357987,177.272473 10.2223723,178.903617 10.7215745,180.493726 L9.93502312,180.742774 Z M7.70058673,170.820876 C7.46679086,169.149908 7.29924738,167.445993 7.20218481,165.756037 L8.02580263,165.70833 C8.1212545,167.37586 8.28678375,169.057135 8.51735483,170.705667 L7.70058673,170.820876 Z M7.94082541,160.685913 L7.11640054,160.66651 C7.15607466,158.974117 7.26560237,157.265556 7.4418199,155.588519 L8.26221632,155.675444 C8.08823003,157.330232 7.98009262,159.015956 7.94084236,160.685913 L7.94082541,160.685913 Z M8.99138938,150.708427 L8.1810607,150.553983 C8.49520514,148.893527 8.88244492,147.225997 9.3321121,145.597685 L10.127134,145.818834 C9.68330946,147.425316 9.30129175,149.07041 8.99138938,150.708427 L8.99138938,150.708427 Z M11.6628074,141.040427 L10.8891315,140.753782 C11.4723106,139.167717 12.129392,137.586098 12.8420512,136.052996 L13.5895489,136.40312 C12.8863539,137.915603 12.238133,139.475791 11.6628074,141.040427 L11.6628074,141.040427 Z M124.624426,138.481014 C123.97963,136.946095 123.262135,135.418045 122.491681,133.939122 L123.222668,133.555441 C124.003604,135.054571 124.730963,136.60345 125.384399,138.159191 L124.624426,138.481014 Z M15.8914483,131.942086 L15.1753643,131.531334 C16.0106605,130.064543 16.9178483,128.613709 17.8717533,127.218879 L18.5515914,127.687462 C17.6105721,129.063683 16.7154696,130.495103 15.8914483,131.942086 Z M119.992638,129.589069 C119.104379,128.180694 118.146446,126.791521 117.14542,125.46037 L117.803909,124.961464 C118.81843,126.310816 119.789249,127.718783 120.689391,129.146159 L119.992638,129.589069 Z M21.5510466,123.666899 L20.9114862,123.143735 C21.9755427,121.833188 23.1064485,120.55117 24.2734136,119.332815 L24.867871,119.906518 C23.7166161,121.108697 22.6006,122.37375 21.5510466,123.666899 Z M113.970564,121.579504 C112.864219,120.334654 111.693033,119.120962 110.489415,117.971946 L111.057891,117.371968 C112.277615,118.53655 113.464706,119.766629 114.585951,121.028039 L113.970564,121.579504 Z M28.4799048,116.431567 L27.9341822,115.81097 C29.1961889,114.692679 30.5202194,113.612996 31.869421,112.60205 L32.3627874,113.265493 C31.0315205,114.263112 29.7251975,115.328236 28.4799048,116.431567 Z M106.725955,114.662557 C105.432131,113.615821 104.079104,112.610135 102.704731,111.673778 L103.167891,110.988491 C104.560992,111.937787 105.932143,112.95682 107.243475,114.017703 L106.725955,114.662557 Z M36.4901338,110.430358 L36.052752,109.728477 C37.4808916,108.831743 38.962598,107.984534 40.4569899,107.210304 L40.8351691,107.946126 C39.360916,108.709865 37.899145,109.545753 36.4901338,110.430358 L36.4901338,110.430358 Z M98.4525301,109.026616 C97.003448,108.205686 95.5044376,107.436507 93.9971601,106.740508 L94.3419113,105.988108 C95.8697312,106.693812 97.3890941,107.473502 98.8579115,108.305346 L98.4525301,109.026616 Z M45.3688938,105.830659 L45.052335,105.066092 C46.6067467,104.418001 48.2066481,103.82752 49.8077668,103.311233 L50.0598874,104.099603 C48.4805114,104.608858 46.902146,105.191251 45.3688904,105.830659 L45.3688938,105.830659 Z M89.3685803,104.831814 C87.8075325,104.262965 86.2025854,103.752741 84.5984453,103.315491 L84.8147202,102.516595 C86.4406098,102.959707 88.0675065,103.476804 89.6501004,104.053537 L89.3685803,104.831814 Z M54.8811681,102.764044 L54.6950998,101.957451 C56.3330714,101.576201 58.0093031,101.259025 59.6768776,101.014423 L59.7960899,101.833736 C58.1508651,102.075118 56.4973867,102.388046 54.8811647,102.764044 L54.8811681,102.764044 Z M79.7195727,102.201649 C78.0892511,101.900053 76.4228905,101.662718 74.7667909,101.496551 L74.8489537,100.672588 C76.5273996,100.841182 78.2165067,101.081536 79.8689916,101.387391 L79.7195727,102.201649 Z M64.7706178,101.3132 L64.7186617,100.486814 C66.396304,100.380482 68.1067707,100.342681 69.7876344,100.373204 L69.7727311,101.201211 C68.1128066,101.170701 66.4263037,101.208503 64.7706144,101.313217 L64.7706178,101.3132 Z" id="Shape" fill="#3F3D56"></path>
                <path d="M127.108569,145.605586 C126.887662,144.817607 126.647627,144.023361 126.394902,143.244883 L127.17905,142.988155 C127.435195,143.777346 127.678659,144.582505 127.902383,145.3812 L127.108569,145.605586 Z" id="Path" fill="#3F3D56"></path>
                <path d="M142.699702,119.109051 L141.874877,119.109051 C141.874877,118.280439 141.889376,117.439701 141.918172,116.610482 L142.742597,116.639188 C142.714201,117.459093 142.699702,118.289926 142.699702,119.109051 Z" id="Path" fill="#3F3D56"></path>
                <path d="M143.092181,111.660237 L142.271784,111.572501 C142.448592,109.904972 142.68762,108.223898 142.982432,106.575975 L143.794368,106.722331 C143.502981,108.350847 143.26677,110.012314 143.092181,111.660237 Z M144.848157,101.847903 L144.049107,101.643322 C144.461921,100.018244 144.939177,98.3889173 145.467179,96.8004256 L146.249715,97.062409 C145.727756,98.6323114 145.25634,100.242231 144.848157,101.847903 Z M276.392511,93.1122267 C275.775907,91.5756871 275.095669,90.0425855 274.370724,88.5559794 L275.111776,88.1921103 C275.845181,89.6965058 276.533473,91.2478018 277.15773,92.8029376 L276.392511,93.1122267 Z M147.993006,92.3864901 L147.231399,92.0683097 C147.872773,90.5210576 148.57899,88.9764403 149.330919,87.4772938 L150.067542,87.8496525 C149.324687,89.3312172 148.626727,90.8574427 147.993006,92.3864901 L147.993006,92.3864901 Z M272.027537,84.1567867 C271.19828,82.7259725 270.306599,81.3062622 269.376654,79.9373228 L270.058103,79.4707613 C270.999323,80.856091 271.901475,82.2925661 272.740396,83.7403596 L272.027537,84.1567867 Z M152.461676,83.4749483 L151.753445,83.050423 C152.608276,81.6127361 153.527543,80.1859658 154.485276,78.8099359 L155.161489,79.2841768 C154.214838,80.6440479 153.306443,82.0540398 152.461682,83.4749483 L152.461676,83.4749483 Z M266.43177,75.9185938 C265.405977,74.6189738 264.321781,73.3411872 263.20899,72.1206085 L263.81714,71.5614645 C264.94322,72.7965954 266.040705,74.0893426 267.078583,75.4043249 L266.43177,75.9185938 Z M158.152488,75.2984089 L157.511717,74.7768351 C158.563895,73.4741855 159.675675,72.193771 160.816456,70.9711704 L161.418563,71.5371905 C160.291079,72.7456645 159.192183,74.0111217 158.152494,75.2984089 L158.152488,75.2984089 Z M259.724829,68.5625622 C258.525853,67.4228426 257.271696,66.3126392 255.996601,65.2624724 L256.519367,64.622466 C257.809769,65.6847613 259.078822,66.8083084 260.291897,67.9613684 L259.724829,68.5625622 Z M164.942798,68.0196146 L164.382176,67.4119259 C165.60693,66.2736223 166.888268,65.1648316 168.190953,64.1166902 L168.706869,64.7627728 C167.419498,65.7988027 166.153059,66.8944505 164.942805,68.0196146 L164.942798,68.0196146 Z M252.043641,62.2375226 C250.69605,61.2805477 249.29731,60.360765 247.885684,59.5036537 L248.312605,58.7953219 C249.740744,59.6625431 251.156402,60.593239 252.5197,61.5615323 L252.043641,62.2375226 Z M172.691873,61.78391 L172.223074,61.1026673 C173.59624,60.1509482 175.021361,59.2370306 176.459165,58.3859819 L176.878022,59.0991645 C175.457115,59.9403075 174.048708,60.843499 172.691873,61.78391 Z M243.54329,57.0760546 C242.072862,56.3220374 240.557328,55.6128954 239.038165,54.9678374 L239.359556,54.2053374 C240.896843,54.8578876 242.430503,55.5757065 243.918652,56.3386354 L243.54329,57.0760546 Z M181.244407,56.7228979 L180.877506,55.9814143 C182.371698,55.2366969 183.9118,54.5370589 185.455327,53.9021075 L185.768264,54.6682532 C184.242835,55.2957226 182.720854,55.9870752 181.244386,56.7228979 L181.244407,56.7228979 Z M234.393271,53.1911477 C232.833027,52.6578777 231.231305,52.1747386 229.632804,51.7552785 L229.841425,50.9543642 C231.459248,51.378675 233.080316,51.8676622 234.659081,52.407199 L234.393271,53.1911477 Z M190.426206,52.9461401 L190.169253,52.1593763 C191.754465,51.6378297 193.379951,51.1674455 195.000805,50.7613121 L195.200569,51.5646603 C193.598844,51.9659191 191.992486,52.4306595 190.426206,52.9461401 Z M224.782524,50.6687262 C223.160663,50.3665141 221.506984,50.1196888 219.867402,49.9349255 L219.959226,49.1121744 C221.618543,49.2991639 223.291957,49.548818 224.93315,49.8544681 L224.782524,50.6687262 Z M200.061724,50.532477 L199.920359,49.716602 C201.563566,49.4293472 203.239194,49.1982926 204.901326,49.0294976 L204.984293,49.8534571 C203.341892,50.0200294 201.685596,50.2484594 200.061724,50.532477 L200.061724,50.532477 Z M214.912392,49.555289 C213.260728,49.4879711 211.581679,49.4790765 209.942497,49.5281998 L209.917529,48.7006014 C211.576443,48.6508721 213.274824,48.6595626 214.946224,48.7280922 L214.912392,49.555289 Z" id="Shape" fill="#3F3D56"></path>
                <path d="M278.805369,100.217164 C278.584662,99.4291852 278.346234,98.6337275 278.097338,97.8524203 L278.882682,97.6001383 C279.134803,98.3905512 279.376045,99.1954993 279.59957,99.9927782 L278.805369,100.217164 Z" id="Path" fill="#3F3D56"></path>
                <polygon id="Path" fill="#3F3D56" points="106.672652 137.668839 191.469476 185.664129 91.3367389 243.620938 7.44190806 193.814369"></polygon>
                <polygon id="Path" fill="#3F3D56" points="236.574205 66.1286384 321.371368 114.123929 221.238631 172.080737 137.3438 122.274169"></polygon>
                <polygon id="Path" fill="#D0CDE1" points="106.672652 133.141155 191.469476 181.136445 91.3367389 239.092913 7.44190806 189.286345"></polygon>
                <polygon id="Path" fill="#D0CDE1" points="236.574205 61.6009542 321.371368 109.596244 221.238631 167.552712 137.3438 117.746484"></polygon>
                <path d="M128.786364,130.819911 C128.786364,149.926323 117.473054,156.597095 103.515168,156.597095 C103.191862,156.597095 102.868568,156.592421 102.547591,156.585409 C101.900974,156.571402 101.25903,156.541061 100.626374,156.496697 C88.0291616,155.602431 78.2439904,148.588415 78.2439904,130.819911 C78.2439904,112.434994 101.647457,89.233202 103.4105,87.5123892 C103.410487,87.511766 103.410728,87.5111644 103.411167,87.5107236 C103.411606,87.5102828 103.412205,87.5100409 103.412826,87.5100541 C103.480306,87.4423448 103.515168,87.4096526 103.515168,87.4096526 C103.515168,87.4096526 128.786364,111.715845 128.786364,130.819911 Z" id="Path" fill="#D0CDE1"></path>
                <path d="M102.594112,153.67381 L111.837341,140.710499 L102.570843,155.098088 L102.547591,156.585409 C101.900974,156.571402 101.25903,156.541061 100.626374,156.496697 L101.621862,137.383283 L101.61489,137.233847 L101.631167,137.208153 L101.726523,135.40096 L92.436787,120.978344 L101.754441,134.046726 L101.77771,134.429654 L102.528978,119.988354 L94.5766362,105.08477 L102.626665,117.455009 L103.4105,87.5123892 L103.412826,87.4096526 L103.412826,87.5100541 L103.282576,111.120451 L111.200039,101.759875 L103.25001,113.154144 L103.040686,126.084766 L110.4348,113.674823 L103.010446,127.987697 L102.894136,135.176829 L113.623636,117.903311 L102.852282,137.684498 L102.594112,153.67381 Z" id="Path" fill="#3F3D56"></path>
                <path d="M51.2061338,165.231645 C51.2061338,184.338057 39.8928273,191.008829 25.9349421,191.008829 C25.6116353,191.008829 25.2883421,191.004155 24.9673615,190.997143 C24.3207479,190.983135 23.6788003,190.952795 23.0461438,190.908431 C10.4489352,190.014165 0.663760627,183.000148 0.663760627,165.231645 C0.663760627,146.846732 24.0672303,123.644936 25.8302703,121.924123 C25.8302581,121.9235 25.8304998,121.922898 25.8309394,121.922457 C25.8313791,121.922017 25.8319787,121.921775 25.8325998,121.921788 C25.9000594,121.854079 25.9349421,121.82139 25.9349421,121.82139 C25.9349421,121.82139 51.2061338,146.127582 51.2061338,165.231645 Z" id="Path" fill="#D0CDE1"></path>
                <path d="M25.0138819,188.085544 L34.2571114,175.122233 L24.9906166,189.509822 L24.9673615,190.997143 C24.3207479,190.983135 23.6788003,190.952795 23.0461438,190.908431 L24.0416354,171.795017 L24.0346636,171.645581 L24.0509401,171.619887 L24.1462971,169.812694 L14.8565675,155.390095 L24.1742215,168.45848 L24.1974868,168.841405 L24.9487587,154.400104 L16.9964099,139.496504 L25.0464351,151.866742 L25.8302703,121.924123 L25.8325998,121.82139 L25.8325998,121.921791 L25.70235,145.532189 L33.6198094,136.171613 L25.6697833,147.565882 L25.4604566,160.4965 L32.8545702,148.086557 L25.4302195,162.399431 L25.3139099,169.588563 L36.0434066,152.315045 L25.272052,172.096235 L25.0138819,188.085544 Z" id="Path" fill="#3F3D56"></path>
                <path d="M45.9517744,199.635904 C51.4380861,198.917524 56.7130489,198.306855 61.7766627,197.803895 L59.8288634,194.525612 C60.5057582,194.33644 63.4373299,196.234054 63.4373299,196.234054 L60.9615291,186.753402 C64.3452027,187.134628 65.9185156,196.804312 65.9185156,196.804312 L69.755556,193.58374 L67.8655045,197.231517 C83.3603889,195.872789 96.7305681,195.453959 107.969365,195.558728 L106.302242,192.75286 C106.979136,192.563689 109.910708,194.461303 109.910708,194.461303 L107.434907,184.98065 C110.818581,185.361877 112.391894,195.031561 112.391894,195.031561 L116.228934,191.810989 L114.22707,195.67458 C123.646235,195.937935 131.321041,196.563992 137.24179,197.246181 C135.579207,192.885559 129.766457,188.691111 129.766457,188.691111 C134.23714,189.862873 136.562217,191.768841 137.76518,193.535005 C138.004556,184.506684 136.360214,175.527909 132.937769,167.17538 C132.937769,167.17538 141.95121,184.243326 140.590761,195.617474 L140.417799,197.63796 C148.267697,198.67194 152.206371,199.700577 152.206371,199.700577 L45.9517744,199.635904 Z" id="Path" fill="#3F3D56"></path>
                <path d="M74.0881448,165.728311 L74.6812849,165.727211 L74.6812849,165.727211 L74.0881448,165.728311 L74.0881448,165.728311 Z" id="Rectangle" fill="#E6E8EC" transform="translate(74.384715, 165.727761) rotate(-37.236020) translate(-74.384715, -165.727761) "></path>
                <path d="M300.197493,99.1716338 C294.847285,102.911036 293.14477,109.741147 293.14477,109.741147 C293.14477,109.741147 300.116659,110.508491 305.466867,106.769099 C310.817075,103.029707 312.51959,96.1995824 312.51959,96.1995824 C312.51959,96.1995824 305.547701,95.4322282 300.197493,99.1716338 Z" id="Path" fill="#3F3D56"></path>
                <path d="M302.314372,101.077805 C299.608868,107.032015 293.220439,109.937909 293.220439,109.937909 C293.220439,109.937909 291.218503,103.190124 293.92401,97.2359084 C296.629518,91.2816922 303.017943,88.3758047 303.017943,88.3758047 C303.017943,88.3758047 305.019879,95.1235927 302.314372,101.077805 Z" id="Path" fill="#FF6174"></path>
                <ellipse id="Oval" fill="#F2F2F2" cx="71.6299209" cy="157.611223" rx="1.23723919" ry="1.24200698"></ellipse>
                <ellipse id="Oval" fill="#F2F2F2" cx="66.2685567" cy="148.089178" rx="4.12412839" ry="4.14002098"></ellipse>
                <ellipse id="Oval" fill="#FF6174" cx="257.172982" cy="106.77469" rx="7.83584258" ry="7.8660385"></ellipse>
                <path d="M237.966834,0.844127626 C230.507399,2.00779268 223.813972,6.09846662 219.359034,12.2162471 C214.904095,18.3340276 213.05257,25.9777774 214.211774,33.4659575 C216.62568,49.0592697 252.718181,96.134607 252.718181,96.134607 C252.718181,96.134607 272.877342,40.2840453 270.463436,24.6907398 C269.30424,17.2025575 265.22927,10.4833357 259.134974,6.01122791 C253.040678,1.53912009 245.42627,-0.319541581 237.966834,0.844127626 Z M244.632256,43.9013078 C238.659941,44.8329848 232.716624,42.0614231 229.573665,36.8789977 C226.430705,31.6965722 226.707056,25.123873 230.273855,20.2257394 C233.840653,15.3276057 239.99548,13.0686412 245.868348,14.5021974 C251.741217,15.9357537 256.175567,20.7795163 257.103667,26.7748464 C258.370961,34.9613425 252.787324,42.6291154 244.632256,43.9013078 L244.632256,43.9013078 Z" id="Shape" fill="#FF6174"></path>
            </g>
            <g id="undraw_nature_benefits_mr3v-copy-2" transform="translate(242.791318, 30.651786)" fill-rule="nonzero">
                <rect id="Rectangle" fill="#3F3D56" x="52.5463091" y="221.555923" width="23.6039236" height="1"></rect>
                <rect id="Rectangle" fill="#3F3D56" x="0.745535714" y="221.555923" width="39.4042083" height="1"></rect>
                <path d="M72.5396177,221.624414 L55.9599177,221.624414 C55.9599177,221.624414 55.6238368,216.695314 57.6122872,216.639302 C59.6007376,216.58329 59.3766808,218.82379 61.869237,215.743102 C64.3617932,212.662414 67.3864676,212.830453 67.7785535,214.650859 C68.1706395,216.471264 67.0223857,217.927589 69.1228545,217.47949 C71.2233234,217.031391 74.2479993,218.207653 72.5396177,221.624414 Z" id="Path" fill="#FF6174"></path>
                <path d="M63.9698966,221.625536 L63.9139397,221.623293 C64.0444391,218.378014 64.7241094,216.292889 65.2712982,215.115177 C65.8654197,213.836393 66.437934,213.318715 66.4436498,213.313628 L66.480873,213.355488 C66.4752392,213.36052 65.9093984,213.873057 65.3200363,215.143183 C64.7758692,216.315917 64.0999171,218.392483 63.9698966,221.625536 Z" id="Path" fill="#F2F2F2"></path>
                <path d="M69.9705088,221.632237 L69.9167401,221.616592 C70.3336966,220.241183 71.085325,218.990684 72.1042905,217.97712 L72.1419234,218.018583 C71.1304985,219.025093 70.3844319,220.266692 69.9705088,221.632237 Z" id="Path" fill="#F2F2F2"></path>
                <path d="M58.5712959,221.628271 L58.5158023,221.620558 C58.69657,220.403851 58.5053022,219.160917 57.9670962,218.054848 C57.7463308,217.590917 57.4541133,217.164513 57.1011122,216.791204 L57.1398668,216.750781 C57.4974871,217.128658 57.7935706,217.560334 58.0173049,218.030043 C58.560499,219.146174 58.7536084,220.400439 58.5712959,221.628271 Z" id="Path" fill="#F2F2F2"></path>
                <path d="M203.949199,145.806389 L187.369499,145.806389 C187.369499,145.806389 187.033418,140.877288 189.021868,140.821276 C191.010319,140.765264 190.786262,143.005764 193.278818,139.925076 C195.771374,136.844388 198.796049,137.012427 199.188135,138.832833 C199.580221,140.653239 198.431967,142.109564 200.532436,141.661464 C202.632905,141.213365 205.65758,142.389627 203.949199,145.806389 Z" id="Path" fill="#3F3D56"></path>
                <path d="M161.133942,74.0645985 L161.077985,74.0623551 C161.208484,70.8170766 161.888155,68.731951 162.435344,67.5542396 C163.029465,66.2754554 163.601979,65.7577778 163.607695,65.7526906 L163.644918,65.7945503 C163.639285,65.7995823 163.073444,66.3121191 162.484082,67.582245 C161.939915,68.7549794 161.263962,70.8315455 161.133942,74.0645985 Z" id="Path" fill="#F2F2F2"></path>
                <path d="M167.134554,74.0712989 L167.080785,74.0556547 C167.497742,72.6802458 168.24937,71.4297464 169.268336,70.4161825 L169.305969,70.4576452 C168.294544,71.4641556 167.548477,72.7057547 167.134554,74.0712989 Z" id="Path" fill="#F2F2F2"></path>
                <path d="M155.735341,74.0673335 L155.679848,74.0596201 C155.860615,72.842913 155.669348,71.5999791 155.131142,70.4939106 C154.910376,70.0299794 154.618159,69.6035754 154.265158,69.2302662 L154.303912,69.1898432 C154.661532,69.5677207 154.957616,69.999396 155.18135,70.469105 C155.724544,71.5852362 155.917654,72.8395018 155.735341,74.0673335 L155.735341,74.0673335 Z" id="Path" fill="#F2F2F2"></path>
                <circle id="Oval" fill="#3F3D56" cx="60.4692828" cy="219.929177" r="1.55396801"></circle>
                <circle id="Oval" fill="#3F3D56" cx="65.1311868" cy="219.929177" r="1.55396801"></circle>
                <circle id="Oval" fill="#3F3D56" cx="69.7930908" cy="219.929177" r="1.55396801"></circle>
                <path d="M62.7719757,137.001793 C63.5399542,138.056593 64.1588888,139.212208 64.6113087,140.436018 C64.7170774,140.711737 64.8119684,140.987359 64.89904,141.263346 L64.9003298,141.2651 C66.1939856,145.333068 65.8297086,149.374329 65.6895478,150.500391 C65.665118,150.701899 65.6471979,150.809561 65.6471979,150.809561 L65.3394148,150.758087 C62.8669841,150.288533 60.4845285,149.430338 58.280597,148.215398 C58.0846558,148.103204 57.8874431,147.989262 57.6928877,147.867942 C56.1064955,146.900641 54.5562739,145.634105 53.3351645,143.982316 L53.3184141,143.959556 C53.1947183,143.79149 53.0745259,143.620843 52.9608786,143.448098 C51.9716679,141.92242 51.256397,140.235763 50.8472772,138.464082 C50.7936088,138.244491 50.7442746,138.027096 50.6997251,137.808884 C50.220636,135.389775 50.1198046,132.910976 50.4008293,130.460948 C50.4252591,130.259439 50.4431862,130.151787 50.4431862,130.151787 C50.4431862,130.151787 50.5513014,130.166673 50.7509609,130.203252 C53.1533372,130.659153 55.4712536,131.48202 57.6233378,132.642965 C57.81411,132.748155 58.0044385,132.856392 58.1955681,132.969409 C59.4978841,133.72992 60.6879616,134.668064 61.7315206,135.756818 C61.9124025,135.947569 62.0888471,136.146973 62.2583016,136.351539 C62.4364156,136.560529 62.6076402,136.77728 62.7719757,137.001793 Z" id="Path" fill="#FF6174"></path>
                <path d="M61.7067052,139.038155 C62.0051837,138.170022 62.190577,137.267054 62.2583073,136.351546 C62.0888527,136.146987 61.9124081,135.947576 61.7315263,135.756825 C61.6739856,135.807759 61.6403809,135.880445 61.6388533,135.957275 C61.5185691,137.627395 61.1492121,139.340496 60.0759499,140.672908 C59.8005938,141.016192 59.478715,141.319404 59.1196112,141.573785 L55.4345738,136.5669 C55.5377616,136.501745 55.6401299,136.431806 55.7399187,136.358362 C56.8938571,135.514431 57.7529796,134.328786 58.1955681,132.969408 C58.0044385,132.856392 57.81411,132.748154 57.6233378,132.642963 C57.2054442,134.013528 56.3243128,135.196307 55.1306742,135.988967 C55.1031209,136.006544 55.0755733,136.024123 55.0480314,136.041703 L50.7509609,130.20325 C50.5513014,130.166671 50.4431862,130.151786 50.4431862,130.151786 C50.4431862,130.151786 50.4252591,130.259433 50.4008293,130.460946 L54.6708395,136.262631 C54.106423,136.550625 53.5079156,136.766233 52.8895048,136.904345 C52.112501,137.076126 51.3714505,137.382234 50.6997251,137.808883 C50.7442746,138.027095 50.7936088,138.244489 50.8472772,138.464081 C50.889779,138.454831 50.9299973,138.437162 50.9655582,138.412115 C51.3394988,138.149184 51.7461136,137.936112 52.1751288,137.778282 C52.5781603,137.632795 52.9967173,137.548758 53.4093947,137.44205 C53.9857977,137.298649 54.5407715,137.079857 55.0599616,136.791333 L58.7540261,141.810467 C58.5667407,141.9187 58.3715897,142.01271 58.1702201,142.091706 C57.3416726,142.418128 56.5155267,142.381101 55.6476087,142.445006 C54.6762566,142.523364 53.7459231,142.870705 52.9608856,143.448097 C53.074533,143.620842 53.1947253,143.791488 53.3184212,143.959554 L53.3351715,143.982314 L53.3386764,143.979735 C54.0737695,143.440625 54.9509288,143.129126 55.8613966,143.083859 C56.7561021,143.038016 57.6005015,143.026504 58.4470284,142.684176 C58.6866219,142.585563 58.9184563,142.469064 59.1405686,142.335663 L61.2175909,145.157724 C60.1321951,146.099623 58.9234397,146.932576 57.7785184,147.775237 C57.7438701,147.799876 57.7147155,147.831442 57.6929005,147.867935 C57.8874544,147.989255 58.0846685,148.103197 58.2806097,148.215391 C59.3883064,147.402834 60.5490626,146.588998 61.6028521,145.68117 L65.3394303,150.75808 L65.6472134,150.809554 C65.6472134,150.809554 65.6651335,150.701892 65.6895633,150.500384 L61.9297914,145.391964 C63.2088144,144.240099 64.2980019,142.925651 64.9003453,141.265092 L64.8990555,141.263339 C64.8119839,140.987352 64.7171,140.71173 64.6113242,140.436011 C64.5198649,140.460818 64.4492069,140.533517 64.4270137,140.625646 C63.8949026,142.355955 62.8228215,143.700988 61.5432489,144.866766 L59.5048794,142.097223 C60.5354413,141.352229 61.2723316,140.248508 61.7067052,139.038155 Z" id="Path" fill="#F2F2F2"></path>
                <path d="M63.8532395,149.196523 C64.2093237,149.685594 64.4963016,150.22141 64.7060727,150.788845 C64.7551131,150.916686 64.7991101,151.044482 64.8394822,151.172447 L64.8400812,151.173259 C65.4399016,153.059424 65.2709994,154.933206 65.206011,155.455319 C65.194684,155.548751 65.1863745,155.59867 65.1863745,155.59867 L65.0436666,155.574803 C63.897293,155.357089 62.7926376,154.959176 61.7707571,154.395854 C61.679905,154.343834 61.5884653,154.291002 61.4982575,154.234751 C60.7146833,153.77039 60.0285288,153.158572 59.4777445,152.433137 L59.4699746,152.422584 C59.4126191,152.344658 59.3568924,152.265536 59.3041987,152.18544 C58.8455385,151.478041 58.5138938,150.696001 58.3242001,149.874539 C58.2993168,149.772723 58.2764424,149.671924 58.255786,149.570746 C58.033651,148.449096 57.9868996,147.29977 58.1172003,146.163783 C58.1285273,146.070351 58.1368368,146.020437 58.1368368,146.020437 C58.1368368,146.020437 58.186965,146.027339 58.2795405,146.0443 C59.393433,146.255683 60.4681645,146.637216 61.4660056,147.175502 C61.5544603,147.224276 61.6427073,147.274462 61.7313272,147.326863 C62.3351624,147.679484 62.8869567,148.114466 63.3708158,148.619281 C63.4546848,148.707725 63.5364956,148.800182 63.6150713,148.89503 C63.6976538,148.991925 63.7770432,149.092423 63.8532395,149.196523 Z" id="Path" fill="#3F3D56"></path>
                <path d="M63.3593136,150.140706 C63.4977068,149.738186 63.5836668,149.319513 63.6150713,148.895026 C63.5365012,148.800177 63.4546905,148.707721 63.3708158,148.619277 C63.3441379,148.642894 63.3285579,148.676595 63.32785,148.712217 C63.2720795,149.48659 63.1008294,150.280891 62.6031909,150.898681 C62.4755181,151.057849 62.3262748,151.198438 62.1597718,151.316385 L60.4511571,148.994883 C60.4990024,148.964672 60.5464662,148.932243 60.5927349,148.89819 C61.1277729,148.506891 61.5261157,147.957152 61.7313272,147.326859 C61.6427073,147.274458 61.5544574,147.224272 61.4660056,147.175498 C61.272244,147.810978 60.8636962,148.359389 60.3102503,148.726916 L60.2719323,148.751367 L58.2795405,146.044296 C58.186965,146.027335 58.1368368,146.020432 58.1368368,146.020432 C58.1368368,146.020432 58.1285245,146.070347 58.1172003,146.163779 L60.0970459,148.853803 C59.8353472,148.987336 59.5578417,149.087305 59.2711077,149.151342 C58.9108402,149.230991 58.5672429,149.372922 58.2557888,149.570742 C58.2764453,149.67192 58.2993197,149.772718 58.3242029,149.874534 C58.3439094,149.870246 58.3625571,149.862053 58.3790453,149.850439 C58.5524274,149.728528 58.7409596,149.629734 58.939878,149.556554 C59.1267483,149.489098 59.3208177,149.450133 59.512162,149.400656 C59.7794188,149.334167 60.0367397,149.232721 60.2774687,149.098943 L61.9902649,151.426129 C61.903428,151.47631 61.8129439,151.519897 61.7195764,151.556521 C61.3354073,151.70787 60.9523584,151.690703 60.5499358,151.720333 C60.0995563,151.756666 59.6681957,151.917715 59.304203,152.185429 C59.3568966,152.265529 59.4126247,152.34464 59.4699789,152.422573 L59.4777487,152.433126 L59.4793733,152.431931 C59.8202085,152.181966 60.2269139,152.037535 60.6490634,152.016545 C61.063905,151.99529 61.455423,151.989955 61.8479243,151.831227 C61.9590152,151.785505 62.0665085,151.731488 62.1694939,151.669636 L63.1325303,152.978121 C62.6292721,153.414844 62.068818,153.801053 61.5379585,154.19177 C61.5218938,154.203195 61.5083763,154.217831 61.4982617,154.234751 C61.5884695,154.291002 61.6799093,154.343834 61.7707613,154.395854 C62.2843576,154.019101 62.8225575,153.641755 63.3111589,153.220829 L65.0436708,155.574808 L65.1863787,155.598676 C65.1863787,155.598676 65.1946868,155.548757 65.2060152,155.455325 L63.4627457,153.086742 C64.0557808,152.552664 64.5607964,151.943203 64.8400812,151.173265 L64.8394822,151.172452 C64.7991101,151.044487 64.7551131,150.916692 64.7060727,150.788851 C64.6636665,150.800353 64.630905,150.834061 64.6206143,150.876777 C64.3738936,151.679057 63.8768103,152.302698 63.2835209,152.843226 L62.3384046,151.559092 C62.8132162,151.199345 63.168912,150.705163 63.3593136,150.140706 Z" id="Path" fill="#F2F2F2"></path>
                <path d="M39.0686386,161.661657 C40.7684606,158.789484 44.1314282,158.655628 44.1314282,158.655628 C44.1314282,158.655628 47.408443,158.236566 49.5106284,162.610921 C51.4700323,166.68818 54.1742587,170.624857 49.9459866,171.579313 L49.1822382,169.202185 L48.7092527,171.756288 C48.1072278,171.799588 47.5032845,171.80991 46.9001316,171.787207 C42.3719946,171.641012 38.0596274,171.829979 38.1984759,170.205094 C38.3830534,168.045034 37.4330675,164.425262 39.0686386,161.661657 Z" id="Path" fill="#2F2E41"></path>
                <polygon id="Path" fill="#FFB9B9" points="32.5143872 176.328225 32.0219206 184.12759 35.2236598 194.800242 36.9477167 192.173048 34.8952075 184.045512 36.2088755 177.723971"></polygon>
                <polygon id="Path" fill="#FFB9B9" points="49.7549559 181.74677 49.7549559 186.262036 52.5463063 192.829952 50.4117193 192.829952 47.4562134 187.247252 47.4562134 181.418318"></polygon>
                <polygon id="Path" fill="#FFB9B9" points="34.8131297 219.101053 33.4175252 222.549167 35.7983454 223.61646 37.1118722 220.82511"></polygon>
                <polygon id="Path" fill="#FFB9B9" points="44.5827853 223.944912 44.254333 230.102157 47.2920579 229.034864 47.7024467 223.61646"></polygon>
                <path d="M52.5872886,192.870945 L49.4265347,224.355325 L43.8439032,224.601618 L43.5155144,203.256267 L42.1198562,212.286992 L36.9477167,222.220796 L33.9101062,219.511579 L35.2236598,195.785399 C34.5668795,192.255207 36.7014156,189.545988 36.7014156,189.545988 L36.9838309,186.482109 L37.0380135,185.903326 L37.1940008,184.209654 L47.2509441,184.168605 L47.9208583,185.276922 L48.2574605,185.833545 L49.5086322,187.904039 L52.5872886,192.870945 Z" id="Path" fill="#2F2E41"></path>
                <path d="M34.238495,221.728211 L33.9101062,220.743042 L31.8576676,224.026941 C31.8576676,224.026941 29.887328,229.527475 32.4323533,229.527475 C34.9773785,229.527475 35.7162535,225.833087 35.7162535,225.833087 L36.6193265,222.631284 C36.6193265,222.631284 34.4847876,222.384991 34.238495,221.728211 Z" id="Path" fill="#2F2E41"></path>
                <path d="M44.6648786,229.034888 C44.6648786,229.034888 47.6203845,228.378108 47.7024863,228.788595 C47.7845881,229.199083 48.3592666,231.662008 48.3592666,231.662008 C48.3592666,231.662008 53.6956041,236.752053 50.0833136,236.998345 C46.4710231,237.244638 44.8290737,235.848981 44.6648786,235.110103 C44.5006835,234.371225 44.1722934,233.714445 43.5155074,233.386055 C42.8587214,233.057665 42.0377516,231.990398 42.5303369,231.169423 C43.0229221,230.348447 44.3383673,228.527479 44.3383673,228.527479 L44.6648786,229.034888 Z" id="Path" fill="#2F2E41"></path>
                <circle id="Oval" fill="#FFB9B9" cx="44.5006835" cy="165.245127" r="4.02277817"></circle>
                <path d="M41.9556611,166.558688 C41.9556611,166.558688 40.8062899,170.909855 39.6569313,171.484538 C38.5075728,172.05922 43.5155144,174.932633 43.5155144,174.932633 L46.388927,174.02956 C46.388927,174.02956 43.4334211,171.812928 45.9784393,168.529027 L41.9556611,166.558688 Z" id="Path" fill="#FFB9B9"></path>
                <path d="M43.3513193,173.044391 C43.3513193,173.044391 41.4354025,171.977123 40.3409231,170.74566 C39.2464436,169.514197 35.2236655,170.74566 35.2236655,170.74566 L35.2236655,181.007848 L35.8804458,184.455944 L37.029817,185.276919 L47.3741018,184.620139 L50.0833192,175.753608 L45.4010625,172.854937 C45.4010625,172.854937 44.6648786,173.865365 43.3513193,173.044391 Z" id="Path" fill="#575A89"></path>
                <polygon id="Path" fill="#575A89" points="36.2088755 170.909821 35.2236598 170.745665 31.1187827 176.574599 36.7014834 178.709186"></polygon>
                <polygon id="Path" fill="#575A89" points="48.7697402 175.425228 50.083267 175.753539 51.0684827 182.403533 46.79945 182.731844"></polygon>
                <polygon id="Path" fill="#575A89" points="47.9208499 185.276961 37.0379881 185.903352 36.9838818 186.482134 48.2574958 185.833565"></polygon>
                <circle id="Oval" fill="#2F2E41" cx="43.7198316" cy="158.670176" r="2.43160534"></circle>
                <path d="M46.4073952,158.030275 C46.4072697,156.786499 45.4686099,155.743306 44.2317482,155.612339 C44.3167715,155.603331 44.4022073,155.598768 44.4877065,155.59867 C45.8306458,155.59867 46.9193131,156.687338 46.9193131,158.030277 C46.9193131,159.373216 45.8306458,160.461884 44.4877065,160.461884 C44.4022073,160.461785 44.3167715,160.457222 44.2317482,160.448213 C45.4686107,160.317247 46.4072711,159.274052 46.4073952,158.030275 L46.4073952,158.030275 Z" id="Path" fill="#2F2E41"></path>
                <polygon id="Path" fill="#2F2E41" points="39.8201559 161.384845 43.1425395 159.6444 47.7307007 160.3564 48.6800339 164.549006 46.3170136 164.45817 45.6568597 162.917763 45.6568597 164.432741 44.5665393 164.390784 43.9336505 161.938481 43.538095 164.549006 39.6619337 164.469895"></polygon>
                <polygon id="Path" fill="#FF6174" points="69.9343607 171.473629 66.8264246 171.473629 66.8264246 168.365693 66.543885 168.365693 66.543885 171.473629 63.435949 171.473629 63.435949 171.756168 66.543885 171.756168 66.543885 174.864104 66.8264246 174.864104 66.8264246 171.756168 69.9343607 171.756168"></polygon>
                <polygon id="Path" fill="#FF6174" points="28.8248434 171.473629 25.7169074 171.473629 25.7169074 168.365693 25.4343677 168.365693 25.4343677 171.473629 22.3264317 171.473629 22.3264317 171.756168 25.4343677 171.756168 25.4343677 174.864104 25.7169074 174.864104 25.7169074 171.756168 28.8248434 171.756168"></polygon>
                <polygon id="Path" fill="#FF6174" points="245.503155 3.99364667 242.395219 3.99364667 242.395219 0.885710653 242.11268 0.885710653 242.11268 3.99364667 239.004744 3.99364667 239.004744 4.27618631 242.11268 4.27618631 242.11268 7.38412232 242.395219 7.38412232 242.395219 4.27618631 245.503155 4.27618631"></polygon>
            </g>
            <g id="Group-6-Copy-2" transform="translate(204.291318, 174.320747)" fill-rule="nonzero">
                <g id="undraw_things_to_say_ewwb" transform="translate(13.826087, 40.500000) scale(-1, 1) translate(-13.826087, -40.500000) translate(0.826087, 0.000000)">
                    <path d="M11.5778052,76.8930842 L11.485668,76.8893917 C11.7005414,71.5459054 12.8196495,68.1126538 13.7206173,66.1735068 C14.6988621,64.0679373 15.6415311,63.2155586 15.6509432,63.2071828 L15.7122323,63.276105 C15.7029559,63.2843907 14.7712745,64.1283035 13.8008663,66.219621 C12.9048729,68.1505762 11.7918903,71.5697275 11.5778052,76.8930842 Z" id="Path" fill="#F2F2F2"></path>
                    <path d="M21.458063,76.9041175 L21.3695295,76.8783585 C22.435633,73.2190941 24.9461588,70.9087382 24.971423,70.8858155 L25.033387,70.9540851 C23.3680341,72.6113468 22.1396045,74.6556918 21.458063,76.9041175 Z" id="Path" fill="#F2F2F2"></path>
                    <path d="M2.68878337,76.8975886 L2.59741228,76.8848898 C2.8950541,74.8815306 2.58012375,72.834988 1.69394495,71.0138 C1.33044703,70.2499189 0.849301927,69.5478267 0.268075428,68.9331554 L0.331886284,68.8665971 C0.920721809,69.4887895 1.40823539,70.199561 1.77662444,70.9729562 C2.67101266,72.8107134 2.98897179,74.8759138 2.68878337,76.8975886 Z" id="Path" fill="#F2F2F2"></path>
                    <path d="M1.45466102,28.1870266 L0.835506211,38.5063582 C0.835506211,38.5063582 -1.22836084,44.2851849 1.45466596,44.2851849 C4.13769276,44.2851849 2.48659887,38.093585 2.48659887,38.093585 L4.96323909,27.98064 L1.45466102,28.1870266 Z" id="Path" fill="#FFB9B9"></path>
                    <path d="M21.4741644,26.9487059 L22.0933242,37.2680387 C22.0933242,37.2680387 24.1571912,43.0468642 21.4741644,43.0468642 C18.7911376,43.0468642 20.4422315,36.8552655 20.4422315,36.8552655 L17.9655925,26.7423193 L21.4741644,26.9487059 Z" id="Path" fill="#FFB9B9"></path>
                    <path d="M9.09096703,70.7026724 L9.50374019,75.8623394 C9.50374019,75.8623394 7.8526426,79.9900723 10.5356731,80.4028454 C10.5625026,80.4069735 10.5890655,80.4108959 10.615362,80.4146127 C11.2901339,80.5074177 11.9685728,80.2717362 12.440486,79.7805867 C12.9123991,79.2894372 13.1208009,78.602128 13.0011246,77.9316003 L12.5995463,75.6559528 C12.5995463,75.6559528 12.8059329,71.5282199 11.5676122,70.7026724 C10.3292915,69.8771248 9.09096703,70.7026724 9.09096703,70.7026724 Z" id="Path" fill="#2F2E41"></path>
                    <path d="M13.0123133,66.1621688 C13.0123133,66.1621688 12.5995402,67.4004895 12.8059267,68.638809 C13.0123133,69.8771285 13.2186999,73.3856992 13.2186999,73.3856992 C13.2186999,73.3856992 13.2186999,77.1006589 14.663406,77.1006589 C15.1793731,77.1006589 15.6163655,76.6531366 15.9649812,76.0777507 C16.6939109,74.844552 16.88589,73.3665965 16.496207,71.9880956 L15.6953389,69.0515773 L15.6953389,66.7813286 L13.0123133,66.1621688 Z" id="Path" fill="#2F2E41"></path>
                    <path d="M5.37600732,28.3934132 C5.37600732,28.3934132 0.835506211,34.3786253 3.31214026,43.2532508 C5.78877431,52.1278763 5.99516706,54.6045165 5.99516706,54.6045165 L7.43987314,71.5282224 C7.43987314,71.5282224 9.91651336,72.3537687 11.9803804,71.115448 L11.3612194,54.8109043 L11.3612194,44.9043447 L12.5995402,55.8428372 L12.5995402,66.7813286 C12.5995402,66.7813286 15.4889523,69.6707419 17.5528194,66.9877151 L17.9655925,54.8109031 C17.9655925,54.8109031 19.203912,37.8871984 18.3783657,36.2361058 C17.5528194,34.5850131 15.6953389,28.8061863 15.6953389,28.8061863 L5.37600732,28.3934132 Z" id="Path" fill="#2F2E41"></path>
                    <path d="M9.48621633,0.546221773 C9.48621633,0.546221773 7.38730401,-0.203391092 6.03800208,2.79506037 C4.68870016,5.79351183 2.58978784,9.09179856 2.58978784,9.09179856 L3.78916596,9.39164247 C3.78916596,9.39164247 4.0890111,7.29273015 4.83862273,6.99288501 L4.53877882,9.69148762 C4.53877882,9.69148762 13.5341209,12.839858 17.5820254,9.39164247 L17.4321028,8.3421857 C17.4321028,8.3421857 18.0317919,8.49210827 18.0317919,9.39164247 L18.4815596,8.94187599 C18.4815596,8.94187599 18.0317919,8.04234179 16.6824912,6.84296244 C15.7968685,6.05574309 15.4925301,4.55806569 15.3879409,3.62169978 C15.3095889,2.83981765 14.9967621,2.09986901 14.490488,1.49889879 C13.5938123,0.459691823 11.9599363,-0.644828682 9.48621633,0.546221773 Z" id="Path" fill="#2F2E41"></path>
                    <circle id="Oval" fill="#FFB9B9" cx="10.5356731" cy="6.51642806" r="3.92134629"></circle>
                    <path d="M9.50374019,8.99306581 L8.2654207,13.9463475 L11.9803841,24.6784535 L14.8697926,13.3271853 C14.8697926,13.3271853 12.186767,11.4697048 12.8059267,8.99306581 L9.50374019,8.99306581 Z" id="Path" fill="#FFB9B9"></path>
                    <path d="M19.6166852,37.2680387 C19.6166852,37.2680387 13.6314731,39.5382911 12.3931536,36.0297192 C11.1548341,32.5211473 11.3612194,29.8381192 11.3612194,29.8381192 C11.3612194,29.8381192 9.50374019,37.0616521 6.40794023,37.0616521 C3.31214026,37.0616521 1.66105007,36.0297192 1.66105007,36.0297192 C1.66105007,36.0297192 3.93130248,28.8061863 5.99516953,27.5678656 C5.99516953,27.5678656 6.00548596,27.543101 6.02406713,27.4976887 C6.13964273,27.2087559 6.54828414,26.0632991 6.26140424,25.056132 C6.2031842,24.8489245 6.1133845,24.6519248 5.99516583,24.4720669 C5.1696195,23.2337461 4.34406824,22.8209693 4.55045975,19.7251767 L2.89936216,13.9463512 L8.59357989,12.6337317 L11.5676035,21.9954267 L14.2753962,12.8297883 L19.2039096,13.5335743 C19.2039096,13.5335743 19.6166852,20.9634937 17.552812,23.6465193 C17.2283004,24.0691636 16.9822414,24.5465964 16.8263266,25.056132 C16.4672156,26.1953893 16.5518419,27.394496 16.7458456,28.3521326 L16.7478985,28.3521326 C16.8774821,29.0050074 17.0781879,29.6417242 17.3464254,30.2508924 L19.6166852,37.2680387 Z" id="Path" fill="#80CCFF"></path>
                    <path d="M17.9655925,13.7399609 L19.203912,13.5335743 C19.203912,13.5335743 19.7198791,13.4303804 20.6486193,14.1527341 C21.8346349,15.0751922 21.8869388,27.5678656 21.8869388,27.5678656 L17.9655925,27.7742584 L17.9655925,13.7399609 Z" id="Path" fill="#80CCFF"></path>
                    <path d="M3.93129877,14.3591207 L2.89936586,13.9463475 C2.89936586,13.9463475 2.4865927,13.7399609 2.28020612,14.9782804 C2.07381954,16.2165999 1.04188662,29.0125729 1.04188662,29.0125729 L5.37600608,28.8061863 L5.37600608,19.5187864 L3.93129877,14.3591207 Z" id="Path" fill="#80CCFF"></path>
                    <path d="M6.00003412,7.08731575 C6.00003412,7.08731575 7.19941347,5.43816868 8.24887271,5.13832477 C9.29833196,4.83848086 9.44825206,3.33925636 9.44825206,3.33925636 C9.44825206,3.33925636 12.1468547,6.33770782 13.7960005,6.48762546 C15.4451463,6.6375431 13.9459231,2.88948864 13.9459231,2.88948864 L10.9474716,2.13987578 L8.09894644,2.43972092 L5.85010784,3.93894665 L6.00003412,7.08731575 Z" id="Path" fill="#2F2E41"></path>
                    <circle id="Oval" fill="#2F2E41" cx="11.6707999" cy="26.2263534" r="1.23831949"></circle>
                </g>
                <path d="M4.82033263,37.7597492 L5.33192687,38.4328592 C5.34173205,38.4458332 5.33921552,38.4642908 5.32629502,38.4741663 L5.30959024,38.4868592 L7.97466633,41.9933375 C8.1282174,42.1954061 8.08891323,42.4836883 7.8868723,42.6372758 L5.695881,44.3025213 C5.5988527,44.3762521 5.47650777,44.4084162 5.35576356,44.3919371 C5.23501935,44.375458 5.12576776,44.3116857 5.05204546,44.214651 L2.480451,40.8311636 L2.46835969,40.8403553 C2.45923221,40.8473049 2.44620417,40.8455693 2.43921437,40.8364726 L2.14805752,40.4533925 C2.14470621,40.448991 2.14324279,40.4434374 2.14398984,40.4379559 C2.14473689,40.4324744 2.14763308,40.427515 2.15204002,40.4241709 L2.16413426,40.4149791 L2.05446143,40.2706817 L2.04226741,40.2799527 C2.0326487,40.2872045 2.01897462,40.2852993 2.01170459,40.2756943 L1.7245185,39.8978381 C1.71728092,39.8882642 1.71913798,39.8746418 1.72867415,39.8673546 L1.74087111,39.8580836 L1.59116198,39.6611098 L1.57876252,39.6705363 C1.57468837,39.6736427 1.56954529,39.6749996 1.56446895,39.6743075 C1.55939261,39.6736153 1.55480055,39.670931 1.55170676,39.6668473 L1.39498937,39.4606524 C1.38849888,39.4521521 1.39011515,39.4400018 1.39860209,39.4334939 L1.41100154,39.4240674 L1.0936723,39.0065505 C0.94014912,38.8045424 0.979442984,38.5163292 1.18143991,38.3627913 L3.37243122,36.6975458 C3.57445374,36.5440002 3.86269175,36.583257 4.01629317,36.7852371 L4.76233839,37.7668221 L4.77904317,37.7541262 C4.79201094,37.7443276 4.81045738,37.7468398 4.82033263,37.7597492 L4.82033263,37.7597492 Z" id="Path" fill="#3F3D56"></path>
                <circle id="Oval" fill="#E6E8EC" cx="2.69133274" cy="37.5765542" r="1"></circle>
                <path d="M3.89607861,36.9907423 L7.82252426,42.1568254 C7.87426165,42.2247602 7.89350824,42.312009 7.87515372,42.3954056 C7.8603629,42.4631155 7.8219283,42.523339 7.76674578,42.5652709 L5.66942393,44.1593244 C5.63214634,44.1877467 5.58854872,44.2067333 5.54234785,44.2146656 C5.53154462,44.2165941 5.52063474,44.2178682 5.50967785,44.2184809 C5.41284676,44.2239449 5.31962877,44.1809412 5.26093741,44.1037309 L1.33449176,38.9376477 C1.28769769,38.8760854 1.26727718,38.7984549 1.27772294,38.7218358 C1.2881687,38.6452167 1.32862498,38.5758858 1.390191,38.5290966 L1.70409828,38.2905164 L1.73470806,38.3307904 C1.77323442,38.3814831 1.83032096,38.4147944 1.89340856,38.4233958 C1.95649616,38.4319972 2.02041668,38.415184 2.07110752,38.3766552 L3.13775426,37.5659567 C3.1884461,37.5274304 3.22175683,37.4703445 3.23035818,37.4072576 C3.23895954,37.3441707 3.22214692,37.2802509 3.18361904,37.2295602 L3.15300633,37.1892833 L3.48751285,36.935046 C3.5490676,36.8882248 3.62670724,36.8677873 3.70333678,36.8782336 C3.77996632,36.8886798 3.84930249,36.9291533 3.89607861,36.9907423 Z" id="Path" fill="#FF6174"></path>
            </g>
            <g id="undraw_successful_purchase_uyin-copy-2" transform="translate(337.166318, 107.500000)" fill-rule="nonzero">
                <rect id="Rectangle" fill="#FF6174" opacity="0.1" x="0" y="9.76371308" width="10.0140647" height="3.75527426" rx="1.87763713"></rect>
                <rect id="Rectangle" fill="#FF6174" opacity="0.1" x="29.7918425" y="6.38396624" width="10.0140647" height="3.75527426" rx="1.87763713"></rect>
                <rect id="Rectangle" fill="#FF6174" opacity="0.1" x="21.1547117" y="52.8241913" width="10.0140647" height="3.75527426" rx="1.87763713"></rect>
                <path d="M48.6821238,22.9334599 L44.0931786,9.61225035 L42.4433615,9.86260197 L40.9662869,10.0516174 C41.0038397,9.55091421 41.0689311,7.75338959 40.1526442,6.81081575 C40.0637693,6.48786217 39.8296906,6.12109705 39.3790577,5.70801688 C37.183474,3.69518987 36.7265823,7.81222222 36.7265823,7.81222222 C36.7265823,7.81222222 36.225879,8.68094233 35.5361603,9.89514768 L35.1744023,9.82630098 L35.0717581,10.7225598 C33.5446132,13.422602 31.5155134,17.0764838 31.5155134,17.4194655 C31.5155134,17.9689873 31.2413783,18.7000141 31.2413783,18.7000141 C31.2413783,18.7000141 29.6866948,21.2611111 29.137173,22.5429114 C28.8172809,23.299108 28.3490839,23.9835268 27.7602391,24.5557384 C27.7602391,24.5557384 27.6275527,24.6571308 27.4097468,24.80609 C27.4236151,24.5637909 27.4656227,24.3239275 27.5349226,24.0913361 C27.7352039,23.4366667 28.2008579,22.875879 28.324782,22.2024332 C28.3537948,22.041005 28.3647109,21.8768442 28.3573277,21.7129958 C28.3861181,20.9231364 28.0018284,20.1457947 27.8416034,19.3559353 C27.6550914,18.4409001 27.7552321,17.4332349 27.2670464,16.6383685 C26.891519,16.0312658 26.2255837,15.6532349 25.5333615,15.4792405 C24.8974684,15.3202672 24.2715893,15.3765963 23.6306892,15.3090014 C23.0423629,15.2464135 22.4803235,14.9860478 21.8919972,14.8896624 C21.5777231,14.8213206 21.2524316,14.8213206 20.9381575,14.8896624 C19.9430098,15.1637975 19.6313221,16.4180591 18.8627426,17.1077778 C18.5861041,17.3581294 18.2468776,17.530872 17.996526,17.805007 C17.6322644,18.2043179 17.5058368,18.7613502 17.5246132,19.3071167 C17.5197982,19.4900514 17.5306867,19.6730619 17.5571589,19.854135 C17.6522925,20.5088045 17.9051477,21.1284248 18.0578622,21.7705767 C18.1733171,22.2458197 18.2358678,22.732372 18.2443741,23.2213643 C18.2443741,23.331519 18.2443741,23.4416737 18.2343601,23.5505767 C18.2389159,23.771055 18.1802781,23.9882319 18.0653727,24.1764557 C17.9264276,24.3679747 17.6973558,24.4606048 17.4933193,24.5832771 C16.8263636,24.0539562 16.3257783,23.3439247 16.051294,22.5379044 C16.051294,22.5379044 16.0174965,22.5804641 15.9599156,22.6630802 L15.9599156,22.5379044 C15.9599156,22.5379044 14.7081575,20.7003235 14.5178903,19.1994655 L14.9535021,19.2445288 L15.9549086,5.15599156 L13.3975668,4.78046414 C13.3262166,4.05319269 13.1321941,2.99796062 12.6177215,2.2281294 C13.0470745,1.38194093 13.2636287,0.236582278 11.3809845,0.122672293 C9.1778903,-0.0112658228 9.31308017,1.70489451 9.54715893,2.64371308 C9.44104174,3.15600229 9.39899431,3.67949273 9.42198312,4.2021519 L7.16881857,3.87419128 L7.15630098,4.05694796 L6.62054852,4.05694796 L4.98074543,18.4296343 L6.37770745,18.3595359 L11.497398,18.8927848 C11.9067229,22.6142616 12.5501266,27.2132208 13.313699,28.2972433 C13.3391158,28.3338503 13.3671447,28.3685727 13.3975668,28.4011392 L13.3975668,34.9866385 C13.3975668,34.9866385 13.3061885,43.4985935 11.7502532,44.8667651 C12.704758,44.5271645 13.7142917,44.3688146 14.7269339,44.3998594 C14.7094093,44.4561885 14.6918847,44.5162729 14.6743601,44.5801125 C14.4466167,45.420288 14.2879493,46.2776779 14.1999437,47.1437131 C14.1782466,47.3348148 14.1586357,47.5342616 14.1411111,47.7420534 C13.9978077,49.6487197 14.0241984,51.5643482 14.2199719,53.4663432 C14.860872,60.2358509 15.8672855,65.0851617 15.8672855,65.0851617 L16.1476793,69.0206892 C16.1476793,69.0206892 15.8735443,75.6988186 16.604571,77.8944023 C16.8801091,78.1482489 17.1967031,78.3535271 17.5408861,78.5015049 C17.5471449,78.5640928 17.5546554,78.6266807 17.5609142,78.6930239 C17.567173,78.7593671 17.5771871,78.8620113 17.5859494,78.9496343 C17.2579887,79.0985935 16.645879,79.6894233 16.5131927,82.0101828 C16.5131927,82.0101828 16.6959494,83.7488748 16.2390577,84.5712799 C15.782166,85.393685 16.056301,87.7732771 17.4282278,88.0474121 C18.3050324,88.2086819 19.2038986,88.2086819 20.0807032,88.0474121 C20.0807032,88.0474121 20.7216034,88.0474121 20.2634599,85.7604501 L20.1833474,85.1746273 C20.1733333,84.0417862 20.2209001,82.8288326 20.4462166,82.4670745 C20.9031083,81.7347961 20.2634599,81.0037693 20.2634599,81.0037693 C20.2634599,81.0037693 20.2183966,81.0288045 20.1445429,81.062602 C20.0268776,80.4304641 19.8729114,79.4040225 19.9279887,78.6204219 C19.9279887,78.5540788 19.9392546,78.4952461 19.9467651,78.4263994 C20.2259197,78.2805711 20.4861406,78.1010649 20.7216034,77.8918987 L20.7216034,69.2034459 C20.7216034,69.2034459 20.630225,55.8471871 21.6366385,55.5718003 C21.6366385,55.5718003 22.0935302,60.4198594 21.9107736,62.7994515 C21.7280169,65.1790436 22.1849086,67.7401406 22.1849086,67.7401406 L22.3676653,77.4375105 C22.3676653,77.4375105 22.5429114,77.5213783 22.8258087,77.6202672 L22.8070323,77.7967651 C22.6956259,78.8745288 22.5166245,80.5018143 22.3538959,81.4982138 C22.1310113,81.5866841 21.9651982,81.7781864 21.9095218,82.0114346 C21.6353868,82.9264698 21.8181435,85.2134318 21.2686217,85.8543319 C20.9444163,86.2298594 20.5563713,86.9946835 20.7466385,87.535443 C20.6277215,88.0098594 20.6802954,88.7509001 22.0922785,88.8735724 C24.1964838,89.0563291 25.111519,87.9585373 25.111519,87.9585373 C25.111519,87.9585373 25.385654,87.5016456 25.111519,86.6779887 C24.837384,85.8543319 25.2028973,84.3910267 25.2028973,84.3910267 C25.2028973,84.3910267 25.3994233,83.1492827 25.0777215,82.9865541 C25.0501828,82.8388467 25.0251477,82.7449648 25.0251477,82.7449648 C25.0294893,82.4636578 24.9260306,82.191351 24.7359916,81.9838959 C24.728481,81.026301 24.7672855,79.2550633 25.1040084,78.0884248 C25.1240366,78.0220816 25.1440647,77.9632489 25.1653446,77.8944023 C25.436534,77.8475692 25.6979946,77.7557618 25.9389311,77.6227707 C25.9389311,77.6227707 25.8475527,75.5185654 26.4884529,74.0552602 C27.129353,72.591955 26.7625879,66.7362307 26.7625879,66.7362307 C26.7625879,66.7362307 26.4884529,65.19782 26.8752461,63.9510689 C27.3183405,62.5693767 27.6506898,61.1545898 27.8691421,59.7201266 L28.4086498,55.9410689 C28.4086498,55.9410689 29.8293952,51.3408579 27.9580169,46.6192264 C27.8816596,46.4239522 27.7977918,46.2286779 27.7076653,46.0334037 C27.5524473,45.6941772 27.3797046,45.353699 27.1869339,45.0157243 C27.1568917,44.9631505 27.124346,44.9093249 27.093052,44.8567511 C27.2895781,44.8079325 27.4009845,44.7791421 27.4009845,44.7791421 C27.4009845,44.7791421 24.9312658,39.0210549 26.4859494,36.0881857 C26.4859494,36.0881857 27.36218,35.211955 27.4873558,34.249353 C27.6425738,32.976315 27.8115612,31.7045288 28.0894515,30.4527707 L28.13827,30.2324613 C28.13827,30.2324613 28.1457806,30.1899015 28.1582982,30.1135443 C28.1933474,30.0910127 28.2271449,30.0672293 28.2609423,30.0421941 C30.8971449,28.1169902 33.1703376,20.0781997 33.1703376,20.0781997 L33.902616,18.7012658 L34.2506048,17.9652321 L33.5371027,24.190225 L39.1174402,25.5671589 L42.6849508,25.2930239 L42.6749367,24.5256962 L45.3937553,24.3141491 L48.6821238,22.9334599 Z M13.3074402,4.78296765 L12.3160478,4.63776371 C12.1420534,3.74275668 12.0243882,3.15568214 12.0243882,3.15568214 C12.232166,2.89881058 12.4161007,2.62353704 12.57391,2.33327707 C13.0533333,3.06680731 13.2373418,4.06821378 13.3074402,4.77796062 L13.3074402,4.78296765 Z M9.6047398,2.86151899 C9.6735865,3.09684951 9.7361744,3.24831224 9.7361744,3.24831224 L9.86135021,4.28101266 L9.52337553,4.23219409 C9.50413902,3.77201778 9.53182053,3.31107871 9.60599156,2.85651195 L9.6047398,2.86151899 Z M40.8736568,10.0728973 L39.5317722,10.2456399 C39.7207876,9.68985935 39.9548664,8.77857947 39.8184248,7.95367089 C40.0845131,7.70987031 40.2207678,7.35532997 40.1864416,6.99607595 C40.9838115,7.94866385 40.908706,9.63102672 40.8736568,10.0691421 L40.8736568,10.0728973 Z M38.6455274,8.64464135 C39.0454716,8.51092922 39.4163262,8.30235004 39.7383122,8.03002813 C39.853474,8.83991561 39.6131364,9.72991561 39.4303797,10.2581575 L38.1786217,10.4183826 L37.8331364,10.3520394 L38.6455274,8.64464135 Z" id="Shape" fill="url(#linearGradient-1)"></path>
                <polygon id="Path" fill="#FF6174" points="48.443038 23.1700422 45.1772011 24.5332068 41.3831224 11.3033755 42.2731224 10.2468917 43.9041632 9.99403657"></polygon>
                <polygon id="Path" fill="#FFFFFF" opacity="0.2" points="48.443038 23.1700422 45.1772011 24.5332068 41.3831224 11.3033755 42.2731224 10.2468917 43.9041632 9.99403657"></polygon>
                <polygon id="Path" fill="#FF6174" points="42.2731224 10.2468917 36.6051617 10.9741632 39.5104923 24.9738256 45.1772011 24.5332068"></polygon>
                <polygon id="Path" fill="#FFFFFF" opacity="0.07" points="42.2731224 10.2468917 36.6051617 10.9741632 39.5104923 24.9738256 45.1772011 24.5332068"></polygon>
                <path d="M40.7998031,10.5623347 L40.7096765,10.5510689 C40.7096765,10.5172714 41.0852039,7.2126301 39.0110408,6.79579466 L39.0285654,6.70691983 C41.1916034,7.14127989 40.8073136,10.5285373 40.7998031,10.5623347 Z" id="Path" fill="#535461"></path>
                <rect id="Rectangle" fill="#774E55" x="19.8328551" y="20.2083826" width="6.24376934" height="9.13908579"></rect>
                <rect id="Rectangle" fill="#000000" opacity="0.2" x="19.8328551" y="20.2083826" width="6.24376934" height="9.13908579"></rect>
                <polygon id="Path" fill="#FF6174" points="42.4984388 25.5008158 38.9697328 25.7724473 39.5129958 12.0193812 40.6883966 11.295865 42.3169339 11.5674965"></polygon>
                <polygon id="Path" fill="#000000" opacity="0.2" points="42.4984388 25.5008158 38.9697328 25.7724473 39.5129958 12.0193812 40.6883966 11.295865 42.3169339 11.5674965"></polygon>
                <polygon id="Path" fill="#FF6174" points="40.6883966 11.295865 35.0792686 10.209339 33.4507314 24.4155415 38.9697328 25.7724473"></polygon>
                <polygon id="Path" fill="#FF6174" points="7.66326301 4.51008439 6.8483685 4.51008439 5.21983122 18.7150352 8.83866385 18.534782"></polygon>
                <polygon id="Path" fill="#000000" opacity="0.2" points="7.66326301 4.51008439 6.8483685 4.51008439 5.21983122 18.7150352 8.83866385 18.534782"></polygon>
                <polygon id="Path" fill="#FF6174" points="7.3916315 4.32857947 6.39648383 18.6249086 15.0824332 19.5299297 16.0775809 5.59535865"></polygon>
                <path d="M17.8876231,78.5240366 C17.8876231,78.5240366 16.8023488,78.43391 16.6208439,81.6008579 C16.6208439,81.6008579 16.8023488,83.3195218 16.3492124,84.1344163 C15.8960759,84.9493108 16.1677075,87.3013643 17.525865,87.5729958 C18.3947783,87.7331417 19.2856436,87.7331417 20.154557,87.5729958 C20.154557,87.5729958 20.7879466,87.5729958 20.3360619,85.3110689 L19.4310408,78.7055415 L17.8876231,78.5240366 Z" id="Path" fill="#5C3D53"></path>
                <path d="M17.8876231,78.5240366 C17.8876231,78.5240366 16.8023488,78.43391 16.6208439,81.6008579 C16.6208439,81.6008579 16.8023488,83.3195218 16.3492124,84.1344163 C15.8960759,84.9493108 16.1677075,87.3013643 17.525865,87.5729958 C18.3947783,87.7331417 19.2856436,87.7331417 20.154557,87.5729958 C20.154557,87.5729958 20.7879466,87.5729958 20.3360619,85.3110689 L19.4310408,78.7055415 L17.8876231,78.5240366 Z" id="Path" fill="#000000" opacity="0.05"></path>
                <path d="M23.5768636,26.2744023 C23.4992546,27.621294 23.7683826,28.402391 23.7683826,28.402391 L21.4163291,29.0357806 C21.4163291,29.0357806 17.525865,29.5790436 19.0642757,28.0343741 C19.5962729,27.5023769 19.8578903,26.5898453 19.9718003,25.6259916 C20.043075,24.9676245 20.0652506,24.3048656 20.0381435,23.6432068 C20.0172791,23.0232891 19.9637968,22.4048996 19.8779184,21.7906048 C19.8779184,21.7906048 25.5784248,19.8003094 24.3116456,23.057384 C24.0808755,23.6465141 23.8987613,24.2535612 23.7671308,24.8724332 C23.6692025,25.3344213 23.6056063,25.8030247 23.5768636,26.2744023 Z" id="Path" fill="#F8BDC5"></path>
                <path d="M24.3116456,23.0586357 C24.0808755,23.6477659 23.8987613,24.2548129 23.7671308,24.873685 C22.3934581,25.1655904 20.9689559,24.6960163 20.0381435,23.6444585 C20.0172791,23.0245409 19.9637968,22.4061513 19.8779184,21.7918565 C19.8779184,21.7918565 25.5784248,19.8015612 24.3116456,23.0586357 Z" id="Path" fill="#000000" opacity="0.1"></path>
                <circle id="Oval" fill="#F8BDC5" cx="22.9547398" cy="20.8868354" r="3.89046414"></circle>
                <path d="M16.0775809,22.7870042 L16.0775809,23.9636568 L14.0872855,29.1209001 L13.5440225,28.5776371 C13.5140497,28.545455 13.4864393,28.5111512 13.4614065,28.474993 C12.1470605,26.6073699 11.1907173,14.1911814 11.1907173,14.1911814 L9.92518987,3.69268636 C9.92518987,3.69268636 8.56828411,0.438115331 11.5524754,0.615864979 C14.5366667,0.793614627 12.185865,3.60130802 12.185865,3.60130802 C12.185865,3.60130802 14.1761603,13.5540366 13.9045288,13.9157947 C13.6328973,14.2775527 13.9045288,15.3640788 13.9045288,15.3640788 C13.9045288,15.3640788 14.7194233,17.4457525 14.628045,18.9829114 C14.5366667,20.5200703 16.0775809,22.7870042 16.0775809,22.7870042 Z" id="Path" fill="#F8BDC5"></path>
                <path d="M38.5165963,9.03393812 L33.8112377,18.9866667 L33.0877215,20.3410689 C33.0877215,20.3410689 30.834557,28.2922363 28.2321519,30.1961603 C28.0826037,30.307845 27.9204282,30.4015371 27.7489733,30.4753024 L27.2057103,26.1317018 L27.7064135,24.8699297 L27.7439662,24.7735443 C28.3245356,24.2072945 28.7858988,23.5305718 29.100872,22.7832489 C29.644135,21.5164698 31.1825457,18.9829114 31.1825457,18.9829114 C31.1825457,18.9829114 31.4541772,18.2593952 31.4541772,17.7161322 C31.4541772,17.1728692 36.6114205,8.21528833 36.6114205,8.21528833 C36.6114205,8.21528833 37.0633052,4.14331927 39.2401125,6.13361463 C41.4169198,8.12390999 38.5165963,9.03393812 38.5165963,9.03393812 Z" id="Path" fill="#F8BDC5"></path>
                <path d="M20.3298031,81.2378481 C20.3298031,81.2378481 17.2529817,82.5046273 17.6147398,81.3279747 C17.8350492,80.6144726 17.753685,79.2663291 17.6560478,78.3237553 C17.5934599,77.7091421 17.5233615,77.2610127 17.5233615,77.2610127 L20.1520534,77.5326442 C20.0601709,77.7619543 20.0089179,78.005512 20.0005907,78.2524051 C19.9142194,79.4528411 20.3298031,81.2378481 20.3298031,81.2378481 Z" id="Path" fill="#F8BDC5"></path>
                <path d="M25.1140225,77.7179044 C24.6396062,79.365218 24.7635302,82.2342475 24.7635302,82.2342475 C24.7635302,82.2342475 21.9583404,82.5960056 22.2299719,81.8724895 C22.4189873,81.3717862 22.6956259,78.8908017 22.8458368,77.4325035 C22.91218,76.7953586 22.953488,76.353488 22.953488,76.353488 L25.4870464,76.8967511 C25.3145467,77.145929 25.1881999,77.4240616 25.1140225,77.7179044 Z" id="Path" fill="#F8BDC5"></path>
                <path d="M17.5246132,77.2572574 L20.1533052,77.5288889 C20.0614226,77.758199 20.0101696,78.0017567 20.0018425,78.2486498 C19.2737054,78.6297497 18.4110514,78.6560445 17.6610549,78.32 C17.5947117,77.704135 17.5246132,77.2572574 17.5246132,77.2572574 Z" id="Path" fill="#000000" opacity="0.1"></path>
                <path d="M25.4882982,76.8954993 C25.3147799,77.1448753 25.1875752,77.4234536 25.1127707,77.7179044 C24.25782,77.8555977 23.3603094,77.6140084 22.8458368,77.4325035 C22.91218,76.7953586 22.953488,76.353488 22.953488,76.353488 L25.4882982,76.8954993 Z" id="Path" fill="#000000" opacity="0.1"></path>
                <path d="M28.3836146,55.8121378 L27.8503657,59.5498875 C27.6340271,60.968673 27.3050261,62.3679734 26.8664838,63.7345148 C26.4834459,64.9674965 26.7550774,66.4883826 26.7550774,66.4883826 C26.7550774,66.4883826 27.1168354,72.2790155 26.4834459,73.7272996 C25.8500563,75.1755837 25.9401828,77.2560056 25.9401828,77.2560056 C24.4918987,78.0709001 22.4114768,77.0745007 22.4114768,77.0745007 L22.2299719,67.4835302 C22.2299719,67.4835302 21.7780872,64.9499719 21.9583404,62.6016737 C22.1385935,60.2533755 21.6867089,55.454135 21.6867089,55.454135 C20.6853024,55.7257665 20.7816878,68.9355696 20.7816878,68.9355696 L20.7816878,77.5313924 C18.6098875,79.4315612 16.7097187,77.5313924 16.7097187,77.5313924 C15.9862025,75.3595921 16.257834,68.7540647 16.257834,68.7540647 L15.9862025,64.8636006 C15.9862025,64.8636006 14.9847961,60.0681153 14.358917,53.3724613 C14.1653805,51.4912527 14.1394086,49.5965662 14.281308,47.7107595 C14.2988326,47.5054712 14.3180263,47.3081106 14.3388889,47.1186779 C14.4256191,46.2623973 14.5821929,45.4146382 14.8070464,44.5838678 C14.8788038,44.3099456 14.9708538,44.0417455 15.0824332,43.7814909 L24.8048383,44.2333755 L25.3781435,44.2596624 L26.7550774,44.3235021 C26.9052883,44.5500703 27.046737,44.7803938 27.1781716,45.0107173 C27.3684388,45.3449367 27.5399297,45.6816596 27.6926442,46.0121238 C27.7802672,46.2048945 27.8628833,46.398917 27.9429958,46.5916878 C29.7918425,51.2594937 28.3836146,55.8121378 28.3836146,55.8121378 Z" id="Path" fill="#5E52AD"></path>
                <path d="M17.7061181,44.6840084 C17.7061181,44.6840084 17.2805204,48.9399859 14.2800563,47.708256 C14.2975809,47.5029677 14.3167745,47.3056071 14.3376371,47.1161744 C15.0436287,47.3076934 16.9976231,47.5718143 17.0714768,44.6827567 L17.7061181,44.6840084 Z" id="Path" fill="#000000" opacity="0.1"></path>
                <path d="M27.9379887,46.5929395 C25.8600703,47.3352321 25.0764698,45.358706 24.8085935,44.230872 L25.3818987,44.2571589 C25.6935865,46.0309001 26.937834,46.1347961 27.6951477,46.0096203 C27.7802672,46.207398 27.8616315,46.4014205 27.9379887,46.5929395 Z" id="Path" fill="#000000" opacity="0.1"></path>
                <path d="M18.6937553,80.757173 C18.2318565,80.684571 17.525865,80.4304641 17.7474262,79.5429677 C17.7474262,79.5429677 16.8924754,79.2475527 16.982602,82.7762588 C16.982602,82.7762588 16.8924754,84.4949226 16.7109705,84.8579325 C16.5294655,85.2209423 16.7109705,87.3914909 18.6111392,87.2099859 C18.6111392,87.2099859 19.968045,87.6618706 20.3298031,86.9383544 C20.3298031,86.9383544 20.0581716,82.7762588 20.511308,82.0564979 C20.9644444,81.336737 20.3298031,80.6082138 20.3298031,80.6082138 C20.3298031,80.6082138 19.688903,80.9637131 19.228256,80.8585654 C19.0530098,80.8097468 18.8727567,80.7859634 18.6937553,80.757173 Z" id="Path" fill="#5C3D53"></path>
                <path d="M20.9631927,86.6667229 C20.9631927,86.6667229 20.0581716,88.2051336 22.1398453,88.3853868 C24.221519,88.5656399 25.1252883,87.4803657 25.1252883,87.4803657 C25.1252883,87.4803657 25.3969198,87.028481 25.1252883,86.2135865 C24.8536568,85.398692 25.2154149,83.9516596 25.2154149,83.9516596 C25.2154149,83.9516596 25.4870464,82.2329958 24.8536568,82.5947539 C24.2202672,82.956512 20.9631927,86.6667229 20.9631927,86.6667229 Z" id="Path" fill="#5C3D53"></path>
                <path d="M20.9631927,86.6667229 C20.9631927,86.6667229 20.0581716,88.2051336 22.1398453,88.3853868 C24.221519,88.5656399 25.1252883,87.4803657 25.1252883,87.4803657 C25.1252883,87.4803657 25.3969198,87.028481 25.1252883,86.2135865 C24.8536568,85.398692 25.2154149,83.9516596 25.2154149,83.9516596 C25.2154149,83.9516596 25.4870464,82.2329958 24.8536568,82.5947539 C24.2202672,82.956512 20.9631927,86.6667229 20.9631927,86.6667229 Z" id="Path" fill="#000000" opacity="0.05"></path>
                <path d="M23.3164979,81.1477215 C23.3164979,81.1477215 22.2312236,80.6958368 21.9595921,81.5996062 C21.6879606,82.5033755 21.8694655,84.7665541 21.3262025,85.3999437 C20.7829395,86.0333333 20.0594233,87.7519972 22.2312236,87.6618706 C24.4030239,87.571744 24.8599156,86.8469761 24.8599156,86.8469761 C24.8599156,86.8469761 24.769789,84.5850492 25.0414205,83.9516596 C25.313052,83.31827 25.0414205,82.3243741 25.0414205,82.3243741 C25.0414205,82.3243741 25.1252883,81.0513361 23.3164979,81.1477215 Z" id="Path" fill="#5C3D53"></path>
                <circle id="Oval" fill="#000000" opacity="0.2" cx="9.74368495" cy="5.59535865" r="1"></circle>
                <circle id="Oval" fill="#000000" opacity="0.2" cx="13.5440225" cy="6.04724332" r="1"></circle>
                <path d="M13.5890858,6.04849508 L13.4989592,6.04849508 C13.4989592,6.00969058 13.5627989,2.19308017 11.3709705,1.84133615 C10.9391139,1.77248945 10.5861181,1.87012658 10.3219972,2.13174402 C9.41697609,3.02925457 9.79125176,5.5640647 9.79500703,5.58909986 L9.70613221,5.6028692 C9.68985935,5.49646976 9.32184248,2.99670886 10.2594093,2.06790436 C10.5448101,1.78375527 10.9253446,1.67735584 11.3859916,1.75120956 C13.6541772,2.11421941 13.5903376,6.00969058 13.5890858,6.04849508 Z" id="Path" fill="#535461"></path>
                <path d="M39.191294,11.1343882 L39.1099297,11.0955837 C39.123699,11.0655415 40.5181575,8.04504923 38.6755696,6.99232068 L38.7206329,6.91345992 C40.634571,8.00749648 39.206315,11.1030942 39.191294,11.1343882 Z" id="Path" fill="#535461"></path>
                <path d="M23.7683826,28.397384 L21.4163291,29.0307736 C21.4163291,29.0307736 17.525865,29.5740366 19.0642757,28.0293671 C19.5962729,27.4973699 19.8578903,26.5848383 19.9718003,25.6209845 C20.5864135,26.5848383 21.3262025,26.3107032 21.3262025,26.3107032 L23.569353,26.2668917 L23.5781153,26.2668917 C23.4992546,27.621294 23.7683826,28.397384 23.7683826,28.397384 Z" id="Path" fill="#000000" opacity="0.1"></path>
                <path d="M28.2334037,30.1986639 C28.0838555,30.3103485 27.92168,30.4040406 27.750225,30.4778059 L27.206962,26.1342053 L27.7076653,24.8724332 L27.8328411,24.7760478 C28.9631786,25.0977496 28.3798594,29.2585935 28.2334037,30.1986639 Z" id="Path" fill="#000000" opacity="0.1"></path>
                <path d="M16.0775809,22.7870042 L16.0775809,23.9636568 L14.0872855,29.1209001 L13.5440225,28.5776371 C13.5140497,28.545455 13.4864393,28.5111512 13.4614065,28.474993 C13.696737,25.7862166 16.0775809,22.7870042 16.0775809,22.7870042 Z" id="Path" fill="#000000" opacity="0.1"></path>
                <path d="M27.1769198,45.0082138 C25.9113924,45.3249086 19.3046132,46.8770886 17.3443601,45.4075246 C16.5707736,44.8279606 15.6594937,44.6151617 14.8070464,44.5813643 C14.8788038,44.3074421 14.9708538,44.039242 15.0824332,43.7789873 L24.8048383,44.230872 L25.3781435,44.2571589 L26.7550774,44.3209986 C26.9052883,44.5488186 27.0454852,44.7778903 27.1769198,45.0082138 Z" id="Path" fill="#000000" opacity="0.1"></path>
                <path d="M10.1517581,1.38819972 C10.1517581,1.38819972 11.5086639,3.65012658 12.413685,1.38819972" id="Path" fill="#F8BDC5"></path>
                <path d="M38.0647117,6.04724332 C38.0647117,6.04724332 37.5214487,8.76230661 39.6919972,7.49552743" id="Path" fill="#F8BDC5"></path>
                <g id="Group" opacity="0.1" transform="translate(15.021097, 43.686357)" fill="#000000">
                    <path d="M6.2450211,12.6602813 C6.20120956,12.1095077 6.16866385,11.7652743 6.16866385,11.7652743 C5.16725738,12.0369058 5.26364276,25.2467089 5.26364276,25.2467089 L5.26364276,33.8425316 C4.62774965,34.3983122 4.01188467,34.6286357 3.4673699,34.6774543 C4.12078762,34.7350352 4.89938115,34.5522785 5.72053446,33.8425316 L5.72053446,25.2467089 C5.72053446,25.2467089 5.65043601,15.6745148 6.2450211,12.6602813 Z" id="Path"></path>
                    <path d="M12.8718284,2.90658228 C12.7954712,2.71381153 12.7141069,2.51978903 12.6214768,2.32701828 C12.4687623,1.99154712 12.2972714,1.65482419 12.1070042,1.32561181 C11.9818284,1.09528833 11.834121,0.866216596 11.68391,0.638396624 L10.3069761,0.574556962 L9.73367089,0.548270042 L0.0112658228,0.0963853727 L0.00250351617,0.116413502 L9.28178622,0.548270042 L9.85509142,0.574556962 L11.2320253,0.638396624 C11.3822363,0.864964838 11.523685,1.09528833 11.6551195,1.32561181 C11.8453868,1.65983122 12.0168776,1.99655415 12.1695921,2.32701828 C12.2572152,2.51978903 12.3398312,2.71381153 12.4199437,2.90658228 C14.2700422,7.57563994 12.8655696,12.1257806 12.8655696,12.1257806 L12.3323207,15.8635302 C12.1159821,17.2823157 11.7869811,18.6816161 11.3484388,20.0481575 C10.9654008,21.2811392 11.2370323,22.8020253 11.2370323,22.8020253 C11.2370323,22.8020253 11.5987904,28.5926582 10.9654008,30.0409423 C10.3320113,31.4892264 10.4221378,33.5696484 10.4221378,33.5696484 C10.0726043,33.7583026 9.68486364,33.8652951 9.28804501,33.8825879 C9.83574171,33.9318798 10.3860987,33.8232853 10.8740225,33.5696484 C10.8740225,33.5696484 10.7838959,31.4879747 11.4172855,30.0409423 C12.0506751,28.59391 11.688917,22.8020253 11.688917,22.8020253 C11.688917,22.8020253 11.4172855,21.2798875 11.8003235,20.0481575 C12.2388658,18.6816161 12.5678667,17.2823157 12.7842053,15.8635302 L13.3174543,12.1257806 C13.3174543,12.1257806 14.7219269,7.57313643 12.8718284,2.90658228 Z" id="Path"></path>
                </g>
                <path d="M23.569353,26.4521519 C24.8211111,27.04173 27.750225,24.7772996 27.750225,24.7772996 C29.0170042,25.1390577 28.1119831,30.3876793 28.1119831,30.3876793 L28.0631646,30.6054852 C27.7877778,31.843474 27.621294,33.1014909 27.4673277,34.3607595 C27.3509142,35.3108439 26.4834459,36.179564 26.4834459,36.179564 C24.9450352,39.0748805 27.3884669,44.7753868 27.3884669,44.7753868 C27.3884669,44.7753868 19.5161603,46.8570605 17.3456118,45.2272714 C15.1750633,43.5974824 11.916737,44.8655134 11.916737,44.8655134 C13.4551477,43.5086076 13.5440225,35.093038 13.5440225,35.093038 L13.5440225,28.5838959 C13.7255274,25.8688326 16.1727145,22.793263 16.1727145,22.793263 C17.174121,25.5984529 19.9567792,25.7837131 19.9567792,25.7837131 C20.5738959,26.7851195 21.3337131,26.503474 21.3337131,26.503474 L23.569353,26.4521519 Z" id="Path" fill="#EB6475"></path>
                <path d="M21.9420675,15.404135 C21.6315004,15.3366463 21.3100608,15.3366463 20.9994937,15.404135 C20.0156118,15.6757665 19.7064276,16.9162588 18.9466104,17.5972152 C18.6737271,17.8475668 18.3370042,18.0153024 18.0891561,18.2869339 C17.6485373,18.7701125 17.5596624,19.4861181 17.6535443,20.1332771 C17.7474262,20.780436 17.9977778,21.3937975 18.1542475,22.0284388 C18.3087627,22.6637212 18.3674093,23.3185384 18.3282419,23.9711674 C18.3317179,24.1877961 18.2735455,24.4009503 18.1605063,24.5857806 C17.9790014,24.8361322 17.644782,24.914993 17.4094515,25.1152743 C16.6909423,25.7336428 17.2842757,27.0166948 16.7572855,27.8065541 C16.5307173,28.1482841 16.1063713,28.3736006 16.02,28.7741632 C15.9586639,29.0583122 16.0888467,29.3449648 16.216526,29.6065823 C16.5519972,30.2950492 16.8999859,31.0022925 17.4682841,31.5155134 C18.0365823,32.0287342 18.7388186,32.2865963 19.4372996,32.5482138 C19.6488467,32.6270745 19.9142194,32.6959212 20.0756962,32.5394515 C20.2747257,32.3441772 20.1245148,32.0137131 19.9868214,31.7721238 C19.7690155,31.3965963 19.5987764,30.9434599 19.7264557,30.5203657 C19.854135,30.0972714 20.2634599,29.8168776 20.5388467,29.4638819 C21.2485935,28.5500985 21.0157665,27.238256 20.6640225,26.1367089 C20.5150633,25.6723066 20.3473277,25.1778622 20.4737553,24.7059494 C20.5275809,24.5031646 20.6339803,24.3191561 20.7015752,24.1201266 C21.0019972,23.2338819 20.4975387,22.2612658 20.6452461,21.3374684 C20.7220583,20.9767265 20.8484332,20.6283528 21.0207736,20.3022644 L21.8156399,18.5936146 C21.8956158,18.3879802 22.0151157,18.2000123 22.167384,18.0403376 C22.414381,17.841726 22.7275236,17.7442044 23.0436146,17.7674543 C23.6947785,17.7820165 24.311478,18.0629926 24.7497609,18.5447961 C25.6009564,19.4911252 25.5471308,20.9231364 25.4444866,22.1849086 L25.3706329,23.0961885 C25.3168073,23.7521097 25.2454571,24.4518425 24.8323769,24.9625598 C24.5106751,25.3581153 23.9911955,25.6272433 23.8585091,26.120436 C23.7433474,26.544782 23.9599015,27.005429 23.8459916,27.429775 C23.6757525,28.0644163 22.8921519,28.293488 22.47782,28.8067089 C22.1211797,29.2631834 22.0804518,29.8914855 22.3751758,30.3901828 C22.5328973,30.6405345 22.7845007,30.8908861 22.7507032,31.1850492 C22.7219128,31.4216315 22.5091139,31.6131505 22.5103657,31.8509845 C22.5312282,32.0688128 22.6839376,32.2513678 22.8946554,32.3103797 C23.1018681,32.364046 23.3179411,32.3742743 23.5292968,32.3404219 L25.773699,32.1376371 C25.914232,32.137096 26.0520759,32.0990701 26.1730098,32.0274824 C26.3294796,31.9148242 26.3808017,31.7070323 26.4020816,31.5155134 C26.4922082,30.7168917 26.2769058,29.8444163 26.6762166,29.1459353 C26.8013924,28.9218706 26.9854008,28.7353586 27.124346,28.5200563 C27.8904219,27.3183685 27.1180872,25.6885795 27.5349226,24.3254149 C27.7327004,23.678256 28.1933474,23.1224754 28.3160197,22.4577918 C28.4787482,21.5715471 28.0168495,20.7053305 27.8378481,19.8290999 C27.6538397,18.9240788 27.7527286,17.9276793 27.2695499,17.1403235 C26.9002813,16.5394796 26.239353,16.1652039 25.5558931,15.9937131 C24.9300141,15.8359916 24.304135,15.8923207 23.678256,15.8247257 C23.0799156,15.755879 22.524135,15.4980169 21.9420675,15.404135 Z" id="Path" fill="#000000" opacity="0.1"></path>
                <path d="M21.9420675,15.2226301 C21.6315004,15.1551414 21.3100608,15.1551414 20.9994937,15.2226301 C20.0156118,15.4942616 19.7064276,16.7347539 18.9466104,17.4157103 C18.6737271,17.6660619 18.3370042,17.8337975 18.0891561,18.105429 C17.6485373,18.5886076 17.5596624,19.3046132 17.6535443,19.9517722 C17.7474262,20.5989311 17.9977778,21.2122925 18.1542475,21.8469339 C18.3087627,22.4822163 18.3674093,23.1370335 18.3282419,23.7896624 C18.3317179,24.0062912 18.2735455,24.2194454 18.1605063,24.4042757 C17.9790014,24.6546273 17.644782,24.733488 17.4094515,24.9337693 C16.6909423,25.5521378 17.2842757,26.8351899 16.7572855,27.6250492 C16.5307173,27.9667792 16.1063713,28.1920956 16.02,28.5926582 C15.9586639,28.8768073 16.0888467,29.1634599 16.216526,29.4250774 C16.5519972,30.1135443 16.8999859,30.8207876 17.4682841,31.3340084 C18.0365823,31.8472293 18.7388186,32.1050914 19.4372996,32.3667089 C19.6488467,32.4455696 19.9142194,32.5144163 20.0756962,32.3579466 C20.2747257,32.1626723 20.1245148,31.8322082 19.9868214,31.5906188 C19.7690155,31.2150914 19.5987764,30.761955 19.7264557,30.3388608 C19.854135,29.9157665 20.2634599,29.6353727 20.5388467,29.2823769 C21.2485935,28.3685935 21.0157665,27.0567511 20.6640225,25.9552039 C20.5150633,25.4908017 20.3473277,24.9963572 20.4737553,24.5244444 C20.5275809,24.3216596 20.6339803,24.1376512 20.7015752,23.9386217 C21.0019972,23.0523769 20.4975387,22.0797609 20.6452461,21.1559634 C20.7220583,20.7952216 20.8484332,20.4468478 21.0207736,20.1207595 L21.8156399,18.4121097 C21.8956158,18.2064753 22.0151157,18.0185074 22.167384,17.8588326 C22.414381,17.6602211 22.7275236,17.5626995 23.0436146,17.5859494 C23.6947785,17.6005116 24.311478,17.8814877 24.7497609,18.3632911 C25.6009564,19.3096203 25.5471308,20.7416315 25.4444866,22.0034037 L25.3706329,22.9146835 C25.3168073,23.5706048 25.2454571,24.2703376 24.8323769,24.7810549 C24.5106751,25.1766104 23.9911955,25.4457384 23.8585091,25.9389311 C23.7433474,26.3632771 23.9599015,26.8239241 23.8459916,27.24827 C23.6757525,27.8829114 22.8921519,28.1119831 22.47782,28.6252039 C22.1211797,29.0816785 22.0804518,29.7099805 22.3751758,30.2086779 C22.5328973,30.4590295 22.7845007,30.7093812 22.7507032,31.0035443 C22.7219128,31.2401266 22.5091139,31.4316456 22.5103657,31.6694796 C22.5312282,31.8873079 22.6839376,32.0698628 22.8946554,32.1288748 C23.1018681,32.1825411 23.3179411,32.1927694 23.5292968,32.158917 L25.773699,31.9561322 C25.914232,31.9555911 26.0520759,31.9175652 26.1730098,31.8459775 C26.3294796,31.7333193 26.3808017,31.5255274 26.4020816,31.3340084 C26.4922082,30.5353868 26.2769058,29.6629114 26.6762166,28.9644304 C26.8013924,28.7403657 26.9854008,28.5538537 27.124346,28.3385513 C27.8904219,27.1368636 27.1180872,25.5070745 27.5349226,24.14391 C27.7327004,23.4967511 28.1933474,22.9409705 28.3160197,22.2762869 C28.4787482,21.3900422 28.0168495,20.5238256 27.8378481,19.6475949 C27.6538397,18.7425738 27.7527286,17.7461744 27.2695499,16.9588186 C26.9002813,16.3579747 26.239353,15.983699 25.5558931,15.8122082 C24.9300141,15.6544866 24.304135,15.7108158 23.678256,15.6432208 C23.0799156,15.5756259 22.524135,15.3177637 21.9420675,15.2226301 Z" id="Path" fill="#774E55"></path>
                <path d="M17.1177918,35.951744 C17.1177918,35.951744 18.927834,36.495007 21.551519,35.3183544 L22.907173,35.3183544 C22.907173,35.3183544 22.9972996,36.5851336 26.5260056,36.0418706" id="Path" fill="#000000" opacity="0.1"></path>
            </g>
            <path d="M59.4349137,274.812022 L58.6113559,274.724287 C58.7888448,273.056758 59.028794,271.375683 59.3247427,269.727761 L60.1398075,269.874117 C59.8472969,271.502633 59.6101764,273.1641 59.4349137,274.812022 Z M61.1976572,264.999689 L60.3955276,264.795107 C60.8099327,263.170029 61.2890278,261.540703 61.819064,259.952211 L62.604616,260.214195 C62.0806458,261.784097 61.6074124,263.394017 61.1976572,264.999689 Z M193.248925,256.264012 C192.629946,254.727473 191.947086,253.194371 191.219348,251.707765 L191.963255,251.343896 C192.699486,252.848292 193.39043,254.399588 194.017093,255.954723 L193.248925,256.264012 Z M64.354625,255.538276 L63.5900826,255.220095 C64.2339288,253.672843 64.9428665,252.128226 65.6976939,250.62908 L66.4371555,251.001438 C65.6914373,252.483003 64.9907883,254.009228 64.354625,255.538276 L64.354625,255.538276 Z M188.867131,247.308572 C188.034678,245.877758 187.139561,244.458048 186.206033,243.089108 L186.890108,242.622547 C187.834954,244.007877 188.740583,245.444352 189.582737,246.892145 L188.867131,247.308572 Z M68.8405146,246.626734 L68.1295549,246.202209 C68.9876805,244.764522 69.9104894,243.337752 70.8719134,241.961722 L71.5507324,242.435963 C70.6004327,243.795834 69.6885372,245.205826 68.8405214,246.626734 L68.8405146,246.626734 Z M183.2498,239.070379 C182.220054,237.770759 181.13168,236.492973 180.014601,235.272394 L180.625094,234.71325 C181.755514,235.948381 182.857228,237.241128 183.899106,238.556111 L183.2498,239.070379 Z M74.5532565,238.450195 L73.9100163,237.928621 C74.966249,236.625971 76.0823141,235.345557 77.2274904,234.122956 L77.831918,234.688976 C76.7000889,235.89745 75.5969591,237.162907 74.5532634,238.450195 L74.5532565,238.450195 Z M176.517013,231.714348 C175.313417,230.574628 174.054428,229.464425 172.774418,228.414258 L173.299199,227.774252 C174.594574,228.836547 175.868517,229.960094 177.086267,231.113154 L176.517013,231.714348 Z M81.3697342,231.1714 L80.8069514,230.563712 C82.0364247,229.425408 83.322701,228.316617 84.6304055,227.268476 L85.1483098,227.914559 C83.8559778,228.950588 82.5846588,230.046236 81.369741,231.1714 L81.3697342,231.1714 Z M168.806225,225.389308 C167.453441,224.432333 166.049311,223.512551 164.632246,222.655439 L165.060812,221.947108 C166.494455,222.814329 167.915567,223.745025 169.284119,224.713318 L168.806225,225.389308 Z M89.1486707,224.935696 L88.6780652,224.254453 C90.0565223,223.302734 91.4871357,222.388816 92.9304801,221.537768 L93.3509512,222.25095 C91.924569,223.092093 90.510734,223.995285 89.1486707,224.935696 Z M160.273118,220.22784 C158.797024,219.473823 157.275649,218.764681 155.750632,218.119623 L156.073262,217.357123 C157.616473,218.009673 159.156042,218.727492 160.649926,219.490421 L160.273118,220.22784 Z M97.734162,219.874684 L97.3658473,219.1332 C98.8657971,218.388483 100.411834,217.688845 101.961309,217.053893 L102.275452,217.820039 C100.744144,218.447508 99.2162986,219.138861 97.7341416,219.874684 L97.734162,219.874684 Z M151.087839,216.342933 C149.521583,215.809663 147.913688,215.326524 146.309027,214.907064 L146.518452,214.10615 C148.142509,214.530461 149.769824,215.019448 151.354673,215.558985 L151.087839,216.342933 Z M106.951344,216.097926 L106.693401,215.311162 C108.284721,214.789615 109.916471,214.319231 111.543571,213.913098 L111.744106,214.716446 C110.136207,215.117705 108.52366,215.582445 106.951344,216.097926 Z M141.440056,213.820512 C139.811945,213.5183 138.151894,213.271474 136.505993,213.086711 L136.598171,212.26396 C138.263883,212.45095 139.943745,212.700604 141.591263,213.006254 L141.440056,213.820512 Z M116.623993,213.684263 L116.482083,212.868388 C118.131623,212.581133 119.813708,212.350078 121.482245,212.181283 L121.565531,213.005243 C119.916802,213.171815 118.254123,213.400245 116.623993,213.684263 L116.623993,213.684263 Z M131.531889,212.707075 C129.87386,212.639757 128.188341,212.630862 126.542842,212.679986 L126.517778,211.852387 C128.183085,211.802658 129.888011,211.811348 131.565851,211.879878 L131.531889,212.707075 Z" id="Shape-Copy" fill="#3F3D56" fill-rule="nonzero"></path>
        </g>
    </g>
</svg>