<?xml version="1.0" encoding="UTF-8"?>
<svg width="519px" height="305px" viewBox="0 0 519 305" version="1.1" xmlns="http://www.w3.org/2000/svg" xmlns:xlink="http://www.w3.org/1999/xlink">
    <!-- Generator: Sketch 60.1 (88133) - https://sketch.com -->
    <title>Group 11</title>
    <desc>Created with Sketch.</desc>
    <g id="Page-1" stroke="none" stroke-width="1" fill="none" fill-rule="evenodd">
        <g id="Group-11">
            <rect id="Mask" fill="#FFFFFF" opacity="0.0523623512" x="-1.13686838e-13" y="0" width="518.428571" height="304" rx="9"></rect>
            <g id="undraw_social_influencer_sgsv" transform="translate(215.785714, 86.857143)">
                <path d="M302.339554,130.454941 C302.339554,168.343726 279.815273,181.573074 252.030167,181.573074 C224.24506,181.573074 201.720779,168.343735 201.720779,130.454941 C201.720779,92.5661463 252.030167,44.3656601 252.030167,44.3656601 C252.030167,44.3656601 302.339554,92.5661679 302.339554,130.454941 Z" id="Path" fill="#F2F2F2" fill-rule="nonzero"></path>
                <polygon id="Path" fill="#3F3D56" fill-rule="nonzero" points="250.197614 175.777143 250.712711 144.067808 272.155877 104.838669 250.793523 139.093571 251.025162 124.835552 265.803523 96.4536851 251.086234 121.062386 251.086234 121.062695 251.502938 95.4188636 267.328149 72.8233604 251.568328 91.3866071 251.828653 44.3656169 250.192987 106.612825 250.327468 104.045049 234.237922 79.4175325 250.069302 108.974562 248.570276 137.613669 248.525552 136.853669 229.97711 110.936558 248.469416 139.538961 248.281883 143.120584 248.248263 143.174562 248.263685 143.468506 244.460292 216.12901 249.541867 216.12901 250.151656 178.598458 268.59862 150.066071"></polygon>
                <path d="M27.2096841,193.225574 C27.2096841,203.471592 21.1185802,207.049119 13.604842,207.049119 C6.0911039,207.049119 0,203.471592 0,193.225574 C0,182.979556 13.604842,169.944991 13.604842,169.944991 C13.604842,169.944991 27.2096841,182.979543 27.2096841,193.225574 Z" id="Path" fill="#F2F2F2" fill-rule="nonzero"></path>
                <polygon id="Path" fill="#3F3D56" fill-rule="nonzero" points="13.1093831 205.481916 13.2484903 196.906932 19.0471916 186.298393 13.2703896 195.56151 13.3330032 191.70599 17.3294805 184.030731 13.3496591 190.685666 13.3496591 190.685666 13.4622403 183.750974 17.7418669 177.640747 13.4801299 182.660633 13.5504545 169.94513 13.1081494 186.778019 13.144237 186.083718 8.79336039 179.423847 13.0745292 187.416802 12.669237 195.161461 12.6572078 194.956039 7.64133117 187.947321 12.6417857 195.68211 12.5912013 196.650617 12.5822565 196.665114 12.5862662 196.744692 11.5576136 216.393961 12.9320292 216.393961 13.096737 206.244692 18.0854708 198.529026"></polygon>
                <line x1="1.9174763" y1="216.429398" x2="275.81358" y2="216.429398" id="Path" stroke="#3F3D56" stroke-width="2"></line>
                <path d="M275.959572,207.210438 C275.959572,214.140672 271.839891,216.560455 266.757563,216.560455 C266.639829,216.560455 266.522281,216.559147 266.404919,216.556531 C266.169439,216.551482 265.936205,216.540273 265.705778,216.524574 C261.119076,216.199954 257.555558,213.655709 257.555558,207.210438 C257.555558,200.540343 266.079177,192.123814 266.719437,191.500923 L266.72056,191.499806 C266.745235,191.475699 266.757573,191.463922 266.757573,191.463922 C266.757573,191.463922 275.959572,200.2802 275.959572,207.210438 Z" id="Path" fill="#FF6174" fill-rule="nonzero"></path>
                <path d="M266.422297,215.500258 L269.787894,210.797489 L266.413885,216.016629 L266.404919,216.556541 C266.169439,216.551491 265.936205,216.540283 265.705778,216.524583 L266.068526,209.59098 L266.06572,209.537157 L266.071888,209.527065 L266.106088,208.872222 L262.72366,203.640196 L266.116736,208.381081 L266.124592,208.52012 L266.398744,203.281379 L263.502974,197.874994 L266.434067,202.361894 L266.719437,191.500911 L266.72056,191.463898 L266.72056,191.499782 L266.672905,200.064325 L269.555788,196.669 L266.661135,200.802135 L266.584885,205.492563 L269.276584,200.991077 L266.573677,206.182729 L266.531065,208.790328 L270.438816,202.525022 L266.516488,209.70027 L266.422297,215.500258 Z" id="Path" fill="#3F3D56" fill-rule="nonzero"></path>
                <rect id="Rectangle" fill="#3F3D56" fill-rule="nonzero" x="175.371912" y="49.0739063" width="3.18060308" height="26.2237537" rx="1.59030154"></rect>
                <rect id="Rectangle" fill="#3F3D56" fill-rule="nonzero" x="69.633063" y="28.5298016" width="1.78503149" height="8.6330664" rx="0.892515747"></rect>
                <rect id="Rectangle" fill="#3F3D56" fill-rule="nonzero" x="69.5681515" y="44.3354575" width="2.01222029" height="15.0267299" rx="1.00611015"></rect>
                <rect id="Rectangle" fill="#3F3D56" fill-rule="nonzero" x="69.6006088" y="64.6199192" width="1.91485455" height="15.1565498" rx="0.957427273"></rect>
                <rect id="Rectangle" fill="#3F3D56" fill-rule="nonzero" x="70.6440727" y="0" width="106.444514" height="216.332825" rx="11"></rect>
                <rect id="Rectangle" fill="#E6E8EC" fill-rule="nonzero" x="113.598335" y="6.46030536" width="14.8644557" height="3.0183289" rx="1.50916445"></rect>
                <circle id="Oval" fill="#E6E8EC" fill-rule="nonzero" cx="132.422317" cy="7.96946981" r="1.71200795"></circle>
                <path d="M170.515204,14.0896104 L170.515204,202.24513 C170.514269,206.91347 166.729161,210.696429 162.060821,210.696429 L85.6721844,210.696429 C81.0038438,210.696429 77.2187364,206.91347 77.2178013,202.24513 L77.2178013,14.0896104 C77.2178013,11.8473094 78.1082733,9.69679177 79.6938195,8.11124552 C81.2793658,6.52569927 83.4298834,5.63522724 85.6721844,5.63522724 L97.1030286,5.63522724 L97.1030286,7.10340909 C97.1041318,10.9476966 100.220267,14.0638318 104.064555,14.0649351 L142.912769,14.0649351 C146.757509,14.0649248 149.874285,10.9481495 149.874295,7.10340909 L149.874295,5.63522724 L162.060821,5.63522724 C164.303122,5.63522724 166.453639,6.52569927 168.039186,8.11124552 C169.624732,9.69679177 170.515204,11.8473094 170.515204,14.0896104 L170.515204,14.0896104 Z" id="Path" fill="#FFFFFF" fill-rule="nonzero"></path>
                <rect id="Rectangle" fill="#F1F1F1" fill-rule="nonzero" x="77.1098437" y="49.2540732" width="93.4577922" height="107.337662"></rect>
                <path d="M83.895558,171.444384 L83.4035289,171.000537 C81.6562383,169.396317 80.5027008,168.355101 80.5027008,167.058068 C80.493959,166.559491 80.687382,166.078604 81.0389134,165.724937 C81.3904448,165.37127 81.8701524,165.174939 82.3687722,165.180661 C82.9582793,165.183801 83.5165991,165.445943 83.895558,165.897516 C84.2745084,165.445932 84.8328336,165.183787 85.4223437,165.180661 C85.9209635,165.174939 86.4006711,165.37127 86.7522025,165.724937 C87.1037339,166.078604 87.2971569,166.559491 87.2884151,167.058068 C87.2884151,168.35512 86.1348437,169.396335 84.387587,171.000537 L83.895558,171.444384 Z" id="Path" fill="#FF6584" fill-rule="nonzero"></path>
                <path d="M101.73376,169.803318 L102.684788,170.075039 C103.029453,169.075197 103.844705,168.309429 104.864144,168.027964 C105.883584,167.746499 106.976248,167.985495 107.785091,168.666856 L106.332843,170.075039 L109.958882,170.075039 L109.958882,166.550006 L108.497455,167.950845 C107.436264,167.020068 105.978595,166.684379 104.617184,167.057252 C103.255774,167.430125 102.172587,168.46172 101.73376,169.80333 L101.73376,169.803318 Z" id="Path" fill="#F2F2F2" fill-rule="nonzero"></path>
                <circle id="Oval" fill="#FF6174" fill-rule="nonzero" cx="83.2786748" cy="36.9164109" r="4.31818182"></circle>
                <rect id="Rectangle" fill="#FF6174" fill-rule="nonzero" x="90.9897138" y="34.4488784" width="40.0974026" height="4.93506494"></rect>
                <rect id="Rectangle" fill="#F2F2F2" fill-rule="nonzero" x="80.5027008" y="178.799528" width="40.0974026" height="4.93506494"></rect>
                <rect id="Rectangle" fill="#F2F2F2" fill-rule="nonzero" x="80.5027008" y="189.558009" width="84.8214286" height="4.93506494"></rect>
                <path d="M97.7754281,171.132257 L96.7128932,169.272811 C97.2382042,168.011363 96.7549772,166.555644 95.5795912,165.858744 C94.4042052,165.161844 92.8951334,165.436306 92.0403978,166.502434 C91.1856622,167.568562 91.2459429,169.101204 92.1817727,170.096907 C93.1176026,171.09261 94.6435692,171.247701 95.7605891,170.460638 L97.7754281,171.132257 Z" id="Path" fill="#F2F2F2" fill-rule="nonzero"></path>
                <path d="M22.4347281,126.6806 L22.1194854,129.114623 C22.0127646,129.938628 21.9059852,130.763219 21.8485226,131.592115 C21.657369,134.349469 22.0137208,137.117908 21.919933,139.880286 C21.8477206,142.007113 21.5088791,144.132307 21.6725628,146.254058 C21.817333,148.130693 22.351492,149.95258 22.8826006,151.758299 L23.6417463,154.339319 C23.6543324,154.495657 23.7391033,154.637184 23.8709979,154.722059 C24.0028924,154.806934 24.1668225,154.825448 24.3143247,154.772128 L27.6737899,154.467622 C27.4586427,153.481226 27.219363,152.453008 27.1037375,151.450055 C27.0122907,150.656857 26.9573419,149.859974 26.8999903,149.063587 C26.7212114,146.581123 26.5188151,144.100429 26.3164188,141.619779 L25.960869,137.261975 C25.8066482,135.371669 25.6505768,133.470269 25.17467,131.634363 C24.7004176,129.775808 23.7569939,128.070116 22.4347281,126.6806 L22.4347281,126.6806 Z" id="Path" fill="#FF6174" fill-rule="nonzero"></path>
                <path d="M22.4347281,126.6806 L22.1194854,129.114623 C22.0127646,129.938628 21.9059852,130.763219 21.8485226,131.592115 C21.657369,134.349469 22.0137208,137.117908 21.919933,139.880286 C21.8477206,142.007113 21.5088791,144.132307 21.6725628,146.254058 C21.817333,148.130693 22.351492,149.95258 22.8826006,151.758299 L23.6417463,154.339319 C23.6543324,154.495657 23.7391033,154.637184 23.8709979,154.722059 C24.0028924,154.806934 24.1668225,154.825448 24.3143247,154.772128 L27.6737899,154.467622 C27.4586427,153.481226 27.219363,152.453008 27.1037375,151.450055 C27.0122907,150.656857 26.9573419,149.859974 26.8999903,149.063587 C26.7212114,146.581123 26.5188151,144.100429 26.3164188,141.619779 L25.960869,137.261975 C25.8066482,135.371669 25.6505768,133.470269 25.17467,131.634363 C24.7004176,129.775808 23.7569939,128.070116 22.4347281,126.6806 L22.4347281,126.6806 Z" id="Path" fill="#000000" fill-rule="nonzero" opacity="0.1"></path>
                <path d="M28.4195615,210.141339 C28.2217453,210.528926 28.0495816,210.929079 27.9041804,211.339218 C27.5184649,212.471541 27.4601726,213.685224 27.4052946,214.880192 C27.3789614,215.110784 27.4003596,215.344328 27.4681581,215.566295 C27.633017,215.995828 28.1082946,216.213467 28.5525924,216.332951 C30.4132537,216.833327 32.3751487,216.362374 34.2942536,216.190695 C36.1779062,216.022187 38.0967211,216.144065 39.9416859,215.728613 C40.214357,215.67719 40.4779062,215.585657 40.7237518,215.456996 C41.1914581,215.152932 41.5403676,214.69727 41.7119461,214.166455 C41.768066,214.030693 41.8058083,213.888046 41.8241726,213.742295 C41.8850867,213.113596 41.3371125,212.567315 40.7402318,212.360662 C40.1433511,212.154009 39.4943778,212.188148 38.8660422,212.123581 C36.2086928,211.850519 34.0650344,209.828585 33.6372669,207.191715 C33.6149974,207.054459 30.5303628,207.135446 30.2056972,207.31355 C29.8256787,207.522031 29.5956739,208.042462 29.3815907,208.394042 C29.0356859,208.962105 28.7150095,209.544537 28.4195615,210.141339 Z" id="Path" fill="#3F3D56" fill-rule="nonzero"></path>
                <path d="M28.4195615,210.141339 C28.2217453,210.528926 28.0495816,210.929079 27.9041804,211.339218 C27.5184649,212.471541 27.4601726,213.685224 27.4052946,214.880192 C27.3789614,215.110784 27.4003596,215.344328 27.4681581,215.566295 C27.633017,215.995828 28.1082946,216.213467 28.5525924,216.332951 C30.4132537,216.833327 32.3751487,216.362374 34.2942536,216.190695 C36.1779062,216.022187 38.0967211,216.144065 39.9416859,215.728613 C40.214357,215.67719 40.4779062,215.585657 40.7237518,215.456996 C41.1914581,215.152932 41.5403676,214.69727 41.7119461,214.166455 C41.768066,214.030693 41.8058083,213.888046 41.8241726,213.742295 C41.8850867,213.113596 41.3371125,212.567315 40.7402318,212.360662 C40.1433511,212.154009 39.4943778,212.188148 38.8660422,212.123581 C36.2086928,211.850519 34.0650344,209.828585 33.6372669,207.191715 C33.6149974,207.054459 30.5303628,207.135446 30.2056972,207.31355 C29.8256787,207.522031 29.5956739,208.042462 29.3815907,208.394042 C29.0356859,208.962105 28.7150095,209.544537 28.4195615,210.141339 Z" id="Path" fill="#000000" fill-rule="nonzero" opacity="0.1"></path>
                <path d="M33.5339729,210.433683 C33.336158,210.821271 33.1639942,211.221424 33.0185917,211.631562 C32.6328794,212.763888 32.5745839,213.977568 32.519706,215.172536 C32.4933725,215.403128 32.5147707,215.636672 32.5825695,215.858639 C32.7474284,216.288175 33.222706,216.505811 33.6670037,216.625295 C35.5276651,217.125671 37.4895601,216.654721 39.4086649,216.483039 C41.2923175,216.314531 43.2111325,216.436412 45.0560972,216.020956 C45.3287691,215.969536 45.5923187,215.878004 45.8381631,215.74934 C46.3058692,215.445277 46.6547788,214.989616 46.8263575,214.458802 C46.8824802,214.32304 46.9202226,214.180392 46.9385839,214.034639 C46.9994981,213.405943 46.4515239,212.859662 45.8546432,212.653009 C45.2577625,212.446356 44.6087891,212.480495 43.9804536,212.415929 C41.3231028,212.142867 39.1794435,210.120931 38.7516782,207.484059 C38.7294088,207.346803 35.6447742,207.427793 35.3201086,207.605894 C34.9400901,207.814378 34.7100852,208.334809 34.4960021,208.686386 C34.1500972,209.254449 33.8294208,209.836881 33.5339729,210.433683 Z" id="Path" fill="#3F3D56" fill-rule="nonzero"></path>
                <path d="M46.8736045,179.986028 C46.9133657,186.180152 45.1119745,192.234477 42.9991437,198.05695 C42.1626502,200.361847 41.2750181,202.646663 40.3362474,204.911397 C39.7804666,206.253646 39.1542469,207.742512 39.749792,209.067709 C38.0358995,208.415355 36.2810799,208.030053 34.4717093,208.331237 C35.1604593,206.927612 35.095668,205.293273 35.1263549,203.730523 C35.1861753,201.608614 35.4145812,199.494818 35.8094141,197.409109 C36.4155241,194.235516 37.4553508,191.160395 38.89965,188.270229 C39.192469,187.660844 39.3942714,187.011785 39.4986065,186.343799 C39.6861377,184.858271 39.5998521,183.350954 39.244025,181.896531 C38.5838069,178.674594 37.3305192,175.603426 35.5480068,172.839478 C35.5423315,172.900857 35.5366593,172.963363 35.5298334,173.024734 C35.422029,173.94588 35.2668719,174.860866 35.0649781,175.766057 C34.6603799,177.68453 34.1887141,179.604141 34.259193,181.532838 C34.3350407,183.578523 34.2082642,185.626693 33.8807167,187.647408 C33.7766994,188.441346 33.5700189,189.218414 33.2658601,189.959119 C33.0680904,190.402371 32.8101099,190.819477 32.6543901,191.278632 C32.4999229,191.809455 32.4192304,192.359009 32.414583,192.91183 C32.1838687,197.576173 32.4111901,203.544736 33.3647248,208.117034 C31.7578409,208.043083 30.1610316,208.406831 28.7447175,209.169458 C27.5922565,205.917833 26.8580576,201.299463 26.3091149,197.875081 C25.6874868,193.82978 25.813839,189.704725 26.6818881,185.705053 C26.9518801,184.370535 27.0530729,183.007374 26.9830875,181.647619 C26.8603278,178.939258 26.1943253,176.289989 25.5328662,173.661184 C25.1964593,172.326885 24.86004,170.992211 24.5236084,169.657163 C24.0451333,167.75574 23.5658974,165.853936 23.0859006,163.951753 C22.7676661,162.686794 22.4460325,161.394547 22.5460477,160.09322 C22.6163278,159.379789 22.7661418,158.676451 22.9926989,157.996307 C23.7086758,155.681748 24.7791233,153.492165 26.1659117,151.505553 C31.6883357,151.815826 37.2778273,151.298703 42.7922843,150.874771 C43.0604229,150.821721 43.3387072,150.869046 43.574236,151.00775 C43.7614449,151.198679 43.8729201,151.451115 43.8879211,151.718091 C44.578933,155.631186 45.2695676,159.544281 45.9598248,163.457376 C46.2959673,165.091445 46.4932888,166.751019 46.5496792,168.41835 C46.5599195,170.079965 46.2905451,171.735898 46.3530631,173.396375 C46.4371628,175.633085 46.8599529,177.748177 46.8736045,179.986028 Z" id="Path" fill="#2F2E41" fill-rule="nonzero"></path>
                <path d="M35.5298334,173.024734 C35.422029,173.94588 35.2668719,174.860866 35.0649781,175.766057 C33.8636661,173.688472 32.5691492,171.663168 31.463306,169.533299 C31.1780346,168.98435 30.9064148,168.428581 30.6336291,167.873951 C30.3620093,167.319322 30.0903751,166.764694 29.8187265,166.210069 C29.6664211,165.898651 29.5130054,165.586092 29.3754744,165.266738 C29.1508267,164.80671 28.978514,164.322925 28.8617711,163.824465 C29.2640961,163.750593 30.2551528,164.834845 30.5529253,165.117844 C31.1637438,165.720168 31.7404829,166.3561 32.2804541,167.022677 C32.9337914,167.762048 33.5335134,168.547116 34.0750472,169.371894 C34.767122,170.49644 35.2593166,171.732297 35.5298334,173.024734 L35.5298334,173.024734 Z" id="Path" fill="#000000" fill-rule="nonzero" opacity="0.1"></path>
                <path d="M40.1316643,116.009275 C40.1316643,116.009275 37.0630193,120.89638 37.6312859,121.919262 C38.1995524,122.942143 27.9707297,121.010031 27.9707297,121.010031 C27.9707297,121.010031 33.5397562,116.122929 32.9714927,114.077163 C32.4032292,112.031396 40.1316643,116.009275 40.1316643,116.009275 Z" id="Path" fill="#EFB7B9" fill-rule="nonzero"></path>
                <circle id="Oval" fill="#EFB7B9" fill-rule="nonzero" cx="37.4039799" cy="110.5539" r="6.93286867"></circle>
                <path d="M40.2344185,121.133707 C39.4923652,120.101123 38.4849774,119.288338 37.3188531,118.781359 C36.6475755,118.541094 35.9535698,118.369832 35.2475817,118.270225 L32.4816042,117.783961 C31.803699,117.664785 31.0781705,117.550779 30.4492828,117.830511 C30.1278317,117.992792 29.8351855,118.206716 29.5830062,118.46376 C28.6215938,119.354018 27.6899584,120.333224 26.4846274,120.847088 C26.1546289,120.987771 25.8095106,121.090757 25.4800333,121.23264 C24.1314127,121.813364 23.1230925,123.02587 22.550187,124.377819 C21.9491732,125.796101 21.9317617,127.33342 21.9792062,128.873046 C21.9777061,129.404347 22.0299454,129.934437 22.1351265,130.455225 C22.2746741,130.95085 22.4500119,131.435694 22.6597578,131.905933 C23.0417391,132.910262 23.3616448,133.937115 23.6176662,134.980685 C24.3342397,137.723742 24.9299751,140.494631 25.4048722,143.293352 C25.4462698,143.695688 25.5645948,144.08632 25.7534112,144.444002 C26.0203183,144.799954 26.3432749,145.110185 26.7096633,145.362575 C26.9997866,145.602934 27.2679538,145.868624 27.5109945,146.156504 C27.6295771,146.279396 27.7164858,146.42929 27.764225,146.593257 C27.8539568,147.007028 27.4882778,147.361542 27.191483,147.663488 C26.5749346,148.292463 26.1292716,149.068506 25.8967563,149.918023 C25.7518907,150.092233 25.6784018,150.314857 25.6910844,150.541075 C25.75046,150.697736 25.7725722,150.866064 25.7556721,151.032746 C25.6987466,151.184912 25.6098459,151.323099 25.494968,151.437982 C25.2275015,151.786264 25.1227202,152.232745 25.2073247,152.663652 C27.3562987,153.597345 29.6560821,154.135716 31.9961974,154.252903 C32.5692386,154.279605 33.1445253,154.279837 33.7139084,154.350004 C34.1199718,154.400049 34.5211216,154.485465 34.9274964,154.532891 C35.5186704,154.588307 36.1129277,154.603471 36.7061586,154.578278 C39.7919468,154.517142 42.9682718,154.437231 45.8018318,153.213804 C46.0687664,151.760501 45.4936987,150.279661 45.1329948,148.846753 C44.5593151,146.567885 44.4147701,144.204445 43.9879425,141.893555 C43.6958083,140.311909 43.2714883,138.755393 43.0281958,137.1655 C42.7849032,135.575607 42.7278354,133.927234 43.1649187,132.379363 C43.552238,131.007724 43.6691528,129.611227 44.070611,128.243668 C44.4720693,126.876109 44.7534112,125.393461 44.3002057,124.042169 C43.7382406,122.366699 41.999244,121.041178 40.2344185,121.133707 Z" id="Path" fill="#FF6174" fill-rule="nonzero"></path>
                <path d="M43.6391321,106.878593 C43.9762588,105.647507 43.313276,104.366136 42.5200784,103.366104 C41.6678205,102.291608 40.5666378,101.322093 39.2219992,101.052231 C38.1292494,100.832929 36.9969542,101.097683 35.8858953,101.009561 C34.9010877,100.931455 33.9574508,100.578307 32.977714,100.45159 C32.091469,100.356427 31.196104,100.390388 30.319614,100.552411 C29.486403,100.673956 28.6721207,100.901389 27.8965187,101.229193 C24.9453067,102.536831 23.2160907,105.766387 22.8148545,108.969287 C22.4136183,112.172188 23.117192,115.39906 23.8165956,118.550318 L24.4488144,121.398856 C25.1068498,124.36372 25.7670937,127.344039 25.9431583,130.37594 C26.1192229,133.40784 25.790708,136.520355 24.5434937,139.289447 C28.5759997,137.123437 31.7004012,133.586044 33.351758,129.316884 C33.800232,128.144402 34.1322261,126.92789 34.6289774,125.775031 C35.0563633,124.783151 35.6035109,123.8437 35.9823357,122.832276 C36.4095551,121.689638 36.6146903,120.475941 36.5867239,119.256369 C36.5651761,118.339831 36.4118005,117.4276 36.4385331,116.511199 C36.4652657,115.594797 36.6983458,114.638434 37.3318508,113.975729 C37.8949695,113.386652 38.6951286,113.103623 39.4207836,112.732759 C40.5619449,112.146777 41.5588678,111.314888 42.3396771,110.297067 C42.7965778,109.701753 42.8209169,109.447529 42.9371284,108.76083 C43.0501661,108.092789 43.4616117,107.526839 43.6391321,106.878593 Z" id="Path" fill="#2F2E41" fill-rule="nonzero"></path>
                <path d="M43.6487185,158.961609 C43.7189537,159.674375 43.5894792,160.404949 43.7453563,161.104001 C43.8625086,161.629373 44.1347237,162.106779 44.2947679,162.62071 C44.4537183,163.216278 44.5354751,163.829803 44.5380295,164.446212 C44.5611627,164.963142 44.521494,165.591665 44.0642787,165.833952 C43.8634833,165.940365 43.6225904,165.942382 43.4135997,166.031645 C43.2046089,166.120908 43.0252718,166.37428 43.1449471,166.56747 C43.2455977,166.72992 43.4740141,166.731869 43.6612166,166.770285 C43.848419,166.808702 44.0544179,167.002675 43.9457786,167.159896 C43.902137,167.211269 43.8440052,167.248272 43.7789888,167.266065 C43.5875834,167.323647 43.4063677,167.410827 43.241918,167.52444 C43.0757011,167.642877 42.9902355,167.844741 43.0208765,168.046524 C43.0436588,168.143049 43.1096091,168.223711 43.1996824,168.265218 C43.2897557,168.306724 43.3939223,168.304454 43.4821015,168.259062 C43.3982181,168.438211 43.3524017,168.632811 43.3475469,168.830567 C44.0791117,169.145131 44.9026075,168.733855 45.5911169,168.333742 C45.8896898,168.168205 46.1779496,167.984714 46.4543091,167.784281 C47.5799618,166.915058 48.2028398,165.545353 48.1180675,164.125686 C48.0861596,163.773775 48.0321944,163.424213 47.9564904,163.079063 C47.8497427,162.478856 47.7088324,161.885229 47.5344468,161.301077 C47.3376394,160.684903 47.0671177,160.095237 46.8350925,159.49145 C46.3407008,158.2049 46.0224323,156.857911 45.5772679,155.553506 C45.5643641,155.427512 45.4995289,155.312599 45.3983577,155.236406 C45.2971864,155.160214 45.1688357,155.129639 45.0441791,155.152035 C44.5425372,155.125922 44.0397492,155.172195 43.5513003,155.289431 C43.2561218,155.375606 42.7719333,155.565248 42.6396242,155.874415 C42.5204115,156.152984 42.7202231,156.40243 42.8469864,156.641043 C43.2621103,157.35529 43.5344063,158.143435 43.6487185,158.961609 Z" id="Path" fill="#EFB7B9" fill-rule="nonzero"></path>
                <path d="M43.1796992,124.132145 C43.3276448,124.282563 43.4515189,124.454888 43.5469575,124.64305 C44.5319872,126.433304 44.5444821,128.576195 44.5907792,130.619022 C44.6429058,132.918568 44.76875,135.215727 44.8945942,137.51242 L45.2709299,144.380963 C45.3068849,145.037166 45.3429294,145.694332 45.4349622,146.345045 C45.8776683,146.456756 45.8959744,147.028764 45.8446805,147.482457 C45.527763,150.285441 44.739226,153.17089 45.5650443,155.868147 C45.5965941,156.007112 45.6630479,156.13574 45.7581287,156.241883 C45.3419145,156.110517 44.8962535,156.104481 44.4766343,156.224527 C44.0649943,156.3113 43.6692021,156.46186 43.2590119,156.555241 C42.7370732,156.674062 42.1453774,156.725063 41.7892693,157.124716 C41.3869024,155.912652 41.0664913,154.674903 40.8302042,153.419846 C40.6346985,152.279275 40.58148,151.093364 40.1167789,150.033565 C39.92912,149.605596 39.6784156,149.208863 39.4496445,148.801387 C38.2460685,146.657647 37.6568032,144.232886 37.0808812,141.842797 C36.8223139,140.709488 36.760329,139.540187 36.8976299,138.385892 C36.9794254,137.859226 37.0274542,137.327868 37.0414222,136.795071 C37.0047564,136.232966 36.9310974,135.673887 36.8209235,135.121467 C36.577789,133.501115 36.6916736,131.847205 37.154608,130.275471 C37.5858956,128.815836 37.9640542,127.28026 38.8660114,126.054285 C39.7679685,124.82831 41.6578208,124.152829 43.1796992,124.132145 Z" id="Path" fill="#000000" fill-rule="nonzero" opacity="0.1"></path>
                <path d="M43.5206597,123.904836 C43.6686047,124.055254 43.7924787,124.22758 43.887918,124.415741 C44.8729477,126.205995 44.8854427,128.348889 44.9317398,130.391716 C44.9838664,132.691259 45.1097106,134.988421 45.2355547,137.285111 L45.6118904,144.153654 C45.6478455,144.80986 45.6838899,145.467026 45.7759227,146.117739 C46.2186289,146.22945 46.2369349,146.801458 46.1856411,147.255151 C45.8687235,150.058132 45.0801865,152.943581 45.906008,155.640838 C45.9375549,155.779804 46.004009,155.908433 46.0990924,156.014574 C45.6828778,155.883209 45.2372168,155.877174 44.8175979,155.997221 C44.405958,156.083991 44.0101657,156.234554 43.5999755,156.327935 C43.0780369,156.446753 42.4863411,156.497753 42.130233,156.89741 C41.727866,155.685345 41.407455,154.447595 41.1711679,153.192537 C40.9756622,152.051969 40.9224437,150.866055 40.4577425,149.806259 C40.2700836,149.37829 40.0193792,148.981557 39.7906081,148.574081 C38.5870321,146.430338 37.9977669,144.00558 37.4218448,141.615491 C37.1632775,140.482181 37.1012926,139.312879 37.2385935,138.158583 C37.3203907,137.631917 37.3684195,137.100559 37.3823859,136.567762 C37.34572,136.005657 37.2720609,135.446578 37.1618872,134.894158 C36.9187542,133.273806 37.0326387,131.619896 37.4955716,130.048162 C37.9268623,128.588527 38.3050179,127.052951 39.206975,125.826976 C40.1089321,124.601001 41.9987813,123.92552 43.5206597,123.904836 Z" id="Path" fill="#FF6174" fill-rule="nonzero"></path>
                <g id="Group" opacity="0.1" transform="translate(24.366883, 100.243506)" fill="#000000" fill-rule="nonzero">
                    <path d="M18.1532015,3.12259756 C17.3009373,2.04810438 16.1997516,1.0785862 14.8551099,0.808727597 C13.7623601,0.589425649 12.630068,0.854179545 11.5190307,0.766060877 C10.53422,0.687951136 9.59058312,0.334800974 8.61084935,0.208090097 C7.72460549,0.112923197 6.82924108,0.146883924 5.95275244,0.30891039 C5.11953421,0.430452906 4.30524448,0.65788498 3.52963555,0.985689773 C3.11053008,1.17230147 2.71054053,1.39917873 2.33530049,1.66312614 C3.02673752,1.40140437 3.74410348,1.21413303 4.47524026,1.10448604 C5.3517289,0.942459573 6.24709332,0.908498846 7.13333718,1.00366575 C8.11307094,1.13037971 9.05670779,1.48352987 10.0415185,1.56163653 C11.1525558,1.64975519 12.2848479,1.38498896 13.3775977,1.60430325 C14.7222394,1.87416185 15.8234252,2.84368003 16.6756893,3.91817013 C17.4688776,4.91821169 18.1318758,6.19958279 17.794743,7.43066558 C17.6172133,8.07891104 17.2057739,8.64485503 17.09273,9.31290244 C16.9765216,9.99959513 16.9521886,10.253825 16.4952972,10.8491326 C15.9072289,11.6147586 15.1958873,12.2772195 14.3904026,12.8093867 C14.6126903,12.7035172 14.8366096,12.6002972 15.0539005,12.4892521 C16.1950571,11.9032624 17.1919785,11.071373 17.972794,10.053557 C18.4296854,9.45826477 18.4540183,9.20401948 18.5702268,8.51732679 C18.6832675,7.84927938 19.094707,7.28333539 19.2722398,6.63509302 C19.609388,5.40400714 18.9463898,4.12263604 18.1532015,3.12259756 Z" id="Path"></path>
                    <path d="M12.96498,13.7322192 C13.0841265,13.6089442 13.2138315,13.4963315 13.3526109,13.3956693 C12.6901401,13.7163683 11.9932627,13.9987065 11.4874833,14.5277948 C10.8539813,15.1905 10.6209013,16.1468662 10.5941532,17.0632677 C10.5674052,17.9796692 10.7207932,18.8919005 10.7423532,19.8084346 C10.7703221,21.0280065 10.5651848,22.2417038 10.1379589,23.3843394 C9.75914951,24.3957687 9.21199886,25.3352138 8.78460373,26.3270971 C8.28786786,27.4799529 7.95587062,28.6964649 7.50738734,29.8689315 C6.07489587,33.5694164 3.53105654,36.7351731 0.225760714,38.9307687 C0.208944481,38.9689969 0.193796916,39.0078297 0.176619805,39.0459253 C4.20913124,36.8799203 7.33353463,33.3425241 8.98488409,29.0733589 C9.43335812,27.9008739 9.76536461,26.6843649 10.2621005,25.531506 C10.6894956,24.5396227 11.2366463,23.6001776 11.6154557,22.5887484 C12.0426817,21.4461128 12.2478191,20.2324155 12.21985,19.0128435 C12.1982899,18.0963094 12.0449297,17.1840781 12.07165,16.2676766 C12.0983703,15.3512752 12.3314781,14.3949244 12.96498,13.7322192 Z" id="Path"></path>
                </g>
                <path d="M219.445494,215.874107 C219.115489,216.272447 218.550396,216.352602 218.039127,216.405179 C217.378579,216.500952 216.708648,216.513748 216.044925,216.443269 C215.256376,216.325885 214.784016,216.774205 214.06358,216.429389 C213.627882,216.220854 212.957071,216.63792 212.521372,216.429389 C211.924088,216.143516 209.861443,216.084347 209.497828,215.526407 C209.134212,214.968468 209.171188,214.086972 209.746179,213.757674 C209.909213,213.680217 210.077512,213.614368 210.249821,213.560617 C211.212467,213.177532 213.162487,210.287697 214.186596,210.139716 C214.694737,210.116102 215.199362,210.235009 215.643501,210.483012 C216.653277,210.931257 218.436439,211.285314 218.87702,212.422986 C219.220257,213.309311 220.159471,215.007772 219.445494,215.874107 Z" id="Path" fill="#2F2E41" fill-rule="nonzero"></path>
                <path d="M226.699891,215.645429 C227.029893,216.043769 227.594988,216.123924 228.106255,216.176497 C228.766803,216.272272 229.436736,216.285068 230.100459,216.214587 C230.889009,216.097206 231.849656,216.774205 232.570074,216.429401 C233.005772,216.220867 233.676583,216.329491 234.112281,216.120959 C234.709566,215.835087 237.517708,216.472564 237.881323,215.914612 C238.244939,215.35666 238.207963,214.475177 237.632969,214.145875 C237.469937,214.068418 237.301639,214.00257 237.12933,213.948821 C236.166684,213.565737 232.982898,210.059019 231.958786,209.911038 C231.450645,209.88742 230.946021,210.006327 230.501884,210.254333 C229.492105,210.702576 227.708945,211.056636 227.268364,212.194304 C226.925127,213.080629 225.985911,214.779094 226.699891,215.645429 Z" id="Path" fill="#2F2E41" fill-rule="nonzero"></path>
                <path d="M229.889232,152.66298 C230.204828,153.269314 230.48048,153.895615 230.714428,154.537885 C233.514438,161.945217 233.748876,170.039791 233.86452,177.957825 C233.854884,179.245253 233.928407,180.53196 234.08463,181.809911 C234.20197,182.620258 234.387257,183.439386 234.267718,184.249409 C234.164359,184.949803 233.834823,185.640583 233.966247,186.336254 C234.025199,186.648314 234.174775,186.937672 234.233585,187.249756 C234.279131,187.591885 234.269731,187.939094 234.205739,188.278258 L233.830366,191.07139 C233.616526,192.662514 233.122998,194.195 233.149864,195.800203 C233.168188,196.895131 233.186633,197.99202 233.308557,199.080291 C233.432356,200.185295 233.662787,201.281814 233.674597,202.393669 C233.683446,203.22631 233.569418,204.054605 233.495799,204.884026 C233.391846,206.05533 233.368268,207.23238 233.425231,208.406907 C233.469144,209.311853 233.572947,210.251613 234.052836,211.020095 C233.515145,211.791199 232.982852,212.482021 232.121917,212.859532 C230.372495,213.626626 228.365195,213.36641 226.4748,213.09194 C226.579556,212.743019 226.741682,212.347751 226.590536,212.016278 C226.501535,211.855843 226.392447,211.707408 226.265908,211.574562 C225.853296,210.987674 225.566874,210.321597 225.424732,209.618404 C225.19593,208.784498 224.966826,207.886847 225.436761,207.086512 C225.598662,206.801549 225.67011,206.474101 225.641631,206.147597 C225.25025,200.896586 224.081981,195.463755 225.157859,190.310357 C225.272698,189.760292 225.409492,189.213409 225.473663,188.655158 C225.531512,187.852155 225.541122,187.046404 225.502441,186.24225 L225.47998,185.12283 C225.423958,183.928343 225.472432,182.704167 225.23286,181.522656 C225.061286,180.676487 224.740895,179.826277 225.135784,178.964066 C225.310395,178.563322 225.288771,178.104176 225.077269,177.721617 C224.246836,176.266762 223.578929,174.724987 223.085594,173.124098 C222.983191,172.676705 222.842907,172.238836 222.666259,171.81523 C222.425355,171.368859 222.148477,170.942862 221.838374,170.541468 C220.901637,169.182989 220.341424,167.606686 219.791503,166.050889 C219.850043,165.90808 219.805075,165.709589 219.652106,165.730128 C219.500914,165.768646 219.371166,165.865547 219.29131,165.999582 C218.537867,167.012307 218.474597,168.363278 218.440739,169.625079 C218.383551,170.797453 218.403588,171.97232 218.500719,173.142062 C218.565183,173.754892 218.672009,174.362911 218.726957,174.976672 C218.799131,176.121828 218.780969,177.27089 218.672641,178.413192 L218.28794,184.0342 C218.235776,184.498916 218.263789,184.969138 218.370757,185.424374 C218.61771,186.212138 218.737994,187.034122 218.727115,187.859616 C218.625897,191.25503 218.919452,194.650709 219.601877,197.978378 C219.789718,198.897117 220.006947,199.810113 220.166371,200.734207 C220.542077,202.911977 220.593544,205.130968 220.644107,207.340331 C220.675198,208.698859 220.697393,210.106056 220.162229,211.355121 C219.953125,211.740165 219.799611,212.152884 219.706259,212.580982 C219.704364,212.801742 219.675015,213.02141 219.618887,213.234924 C219.46181,213.639186 218.990468,213.811383 218.566697,213.903672 C217.770465,214.076877 216.953516,214.135059 216.140774,214.076442 C215.949952,214.073279 215.761749,214.031484 215.587525,213.953581 C215.284395,213.796528 215.123447,213.463649 214.892915,213.211847 C214.395618,212.668681 213.568929,212.502323 213.115872,211.921744 C212.549379,211.195799 212.787243,210.14376 213.124434,209.286897 C213.461626,208.430034 213.879055,207.49945 213.588793,206.625577 C213.24666,205.595549 212.033939,205.040961 211.708379,204.005579 C212.637562,199.830051 210.355709,195.511459 210.551273,191.238257 C210.596824,190.242938 210.769582,189.254731 210.773042,188.258379 C210.781953,185.691799 209.670256,183.194496 209.853125,180.634425 C210.317841,174.128631 208.102053,167.633922 207.163357,161.179452 C206.985385,160.216037 206.918941,159.235332 206.965338,158.256715 C207.104645,156.64112 207.854692,155.13752 208.756686,153.789945 C209.402963,152.824409 210.180144,151.879375 211.250639,151.427721 C212.132202,151.055777 213.120008,151.05735 214.076794,151.064762 C216.463953,151.083253 218.851161,151.101744 221.238008,151.144664 C222.86232,151.121802 224.484641,151.266982 226.079085,151.577885 C227.370193,151.873271 228.578143,152.475281 229.889232,152.66298 Z" id="Path" fill="#2F2E41" fill-rule="nonzero"></path>
                <path d="M191.319923,123.004408 C191.088777,121.872776 191.525691,120.662227 191.1839,119.558959 C191.060656,119.161125 190.757866,118.74764 190.341547,118.75917 C189.936988,118.770379 189.663311,119.16639 189.304689,119.353953 C188.726639,119.656278 188.024518,119.381698 187.446826,119.078688 C186.869133,118.775678 186.225089,118.432811 185.598542,118.614434 C185.524809,119.006916 185.789711,119.381115 186.078101,119.657361 C186.397429,119.898653 186.661757,120.205134 186.853523,120.556444 C186.947444,120.936246 186.983153,121.328107 186.959429,121.71863 C187.025029,122.615087 187.592811,123.386894 188.160023,124.084182 C189.073973,125.207702 190.044512,126.28398 191.067871,127.30884 C191.066147,127.30711 192.620378,125.38372 192.590533,125.047747 C192.562384,124.730907 192.039446,124.434421 191.849477,124.178948 C191.589338,123.830784 191.408587,123.429883 191.319923,123.004408 L191.319923,123.004408 Z" id="Path" fill="#A1616A" fill-rule="nonzero"></path>
                <path d="M237.604953,146.692612 C237.743522,147.052207 237.847356,147.424239 237.915036,147.803619 C238.315973,149.746986 238.568731,151.717434 238.8179,153.686034 C238.884397,154.211409 238.950733,154.737604 238.971257,155.266772 C239.041743,156.523263 238.783252,157.776409 238.221312,158.902447 C237.649895,160.031332 236.678356,160.906807 235.496283,161.358031 C235.132171,161.487446 234.62323,161.510993 234.464238,161.158796 C234.407635,160.995881 234.408895,160.818439 234.467807,160.656344 C234.611497,160.132071 234.904014,159.66162 235.093767,159.152214 C235.37531,158.391231 235.42227,157.563323 235.228584,156.775385 C235.153824,156.474133 234.996189,156.137919 234.691667,156.077835 C234.843646,156.772634 234.715646,157.499337 234.335417,158.100394 C234.248845,158.26789 234.099615,158.394408 233.920212,158.452409 C233.66095,158.478356 233.418167,158.321674 233.335009,158.074744 C233.260688,157.832449 233.244509,157.57605 233.287786,157.326335 C233.38545,156.063543 233.577703,154.809855 233.862928,153.575825 C234.202405,152.221282 234.740521,150.884913 234.705991,149.488903 C234.674697,148.223799 234.1707,146.981816 234.311865,145.724223 C234.313813,145.646508 234.338873,145.571135 234.383846,145.507725 C234.428083,145.463527 234.482043,145.430286 234.541416,145.410658 C234.894635,145.264626 235.257961,145.144353 235.628546,145.050784 C235.847438,144.995496 236.595184,144.735865 236.804918,144.85199 C236.974869,144.946065 237.027258,145.509535 237.112125,145.700272 C237.262352,146.037951 237.462577,146.351041 237.604953,146.692612 Z" id="Path" fill="#A1616A" fill-rule="nonzero"></path>
                <circle id="Oval" fill="#A1616A" fill-rule="nonzero" cx="212.641921" cy="104.051881" r="5.16555714"></circle>
                <path d="M217.270345,107.790202 C217.269692,108.119392 217.295833,108.448089 217.348511,108.773038 C217.419718,109.101756 217.520516,109.423359 217.649673,109.733914 C217.822374,110.238885 218.065947,110.716758 218.373089,111.153205 C218.685254,111.592395 219.152445,111.89677 219.680319,112.004864 C216.149599,113.659721 212.380579,114.748992 208.511404,115.232751 C209.121004,114.827191 209.628192,114.285721 209.993071,113.650934 C210.186587,113.243347 210.318778,112.809389 210.385356,112.363135 C210.714908,110.495748 210.54754,108.574531 209.900045,106.792261 C209.835889,106.616504 209.773186,106.40083 209.894635,106.258506 C209.946328,106.205904 210.008893,106.165236 210.077951,106.139348 C211.61212,105.489838 213.268923,105.180846 214.934079,105.233687 C215.35963,105.236636 215.785005,105.255457 216.20943,105.286091 C216.437698,105.302568 216.941929,105.254562 217.123388,105.42175 C217.339991,105.621312 217.231442,106.24057 217.238233,106.51115 L217.270345,107.790202 Z" id="Path" fill="#A1616A" fill-rule="nonzero"></path>
                <path d="M220.003319,111.548204 C218.439912,109.544353 215.711699,108.864571 213.390854,109.900593 C210.932081,111.074342 209.721463,113.892792 207.559013,115.550215 C207.067152,115.918205 206.543078,116.241046 205.99317,116.514807 C205.668562,116.694162 205.322306,116.831175 204.962864,116.922496 C204.558645,117.011608 204.136663,116.999224 203.734227,117.096069 C202.967484,117.321278 202.314325,117.828216 201.905897,118.515094 C201.703448,118.87423 201.479034,119.220534 201.233935,119.552031 C201.007925,119.820274 200.72724,120.037013 200.488281,120.293787 C199.62838,121.217801 199.394914,122.54451 199.198872,123.791425 C198.526036,124.499803 197.79186,125.147277 197.004927,125.726279 C196.757533,125.916648 196.482846,126.068621 196.190129,126.177069 C195.4335,126.422234 194.599366,126.110282 193.954569,125.644634 C193.309772,125.178986 192.784561,124.56512 192.148952,124.086986 C191.564733,124.921906 190.95434,125.759612 190.331862,126.566412 C190.237846,126.720004 190.094745,126.83737 189.925724,126.89951 C189.808775,127.292745 190.089198,127.700113 190.298988,128.052671 L191.425389,129.945519 C191.797712,130.634483 192.254405,131.274388 192.784919,131.850454 C193.323119,132.42973 194.058168,132.787247 194.846138,132.853 C195.343548,132.848452 195.836055,132.754171 196.299977,132.57469 C198.446287,131.85277 200.416932,130.700676 202.458744,129.721491 C202.828595,129.510113 203.242944,129.388611 203.668378,129.366784 C204.105439,129.35515 204.496521,129.636656 204.624217,130.054809 C204.858423,131.237207 205.091034,132.415312 205.41296,133.576884 C205.71657,134.672372 205.998614,135.773533 206.259093,136.880368 C206.433051,137.557633 206.557317,138.246698 206.6309,138.942065 C206.664564,139.336904 206.668179,139.733619 206.671772,140.129873 L206.715207,144.918595 C206.719883,145.434137 206.425969,145.755733 206.19977,146.219028 C205.8531,146.937922 205.800862,147.763773 206.054186,148.520619 C206.18123,148.894142 206.380011,149.239266 206.520787,149.60782 C206.861146,150.498883 206.847982,151.48014 206.830252,152.433826 L206.789631,154.619079 C206.779272,154.709537 206.795628,154.801049 206.83668,154.882319 C206.970084,155.09068 207.291542,154.968651 207.494895,154.827724 L208.5167,154.11957 C209.883777,154.308029 211.264884,154.374764 212.643762,154.31899 C216.56535,154.262255 220.487903,154.418274 224.40032,154.692158 C225.705701,154.783537 227.055034,154.882556 228.28901,154.447049 C228.915146,154.226063 229.492049,153.872814 230.131997,153.695713 C230.396151,153.654503 230.646784,153.5513 230.863365,153.394557 C231.221487,153.063291 231.126327,152.48182 230.980286,152.016354 C230.852515,151.609118 230.707436,151.207862 230.54505,150.812586 C230.377849,150.449229 230.241569,150.072427 230.137657,149.686179 C229.941652,148.814477 230.132306,147.807366 229.589631,147.097584 C228.374929,145.508832 229.234698,143.064463 228.724955,141.130609 C228.560022,140.504877 228.31627,139.901614 228.161691,139.273242 C228.064662,138.878785 228.003316,138.476565 227.942081,138.074989 C227.782224,137.206344 227.702914,136.324794 227.705161,135.441565 C227.719966,134.99963 227.775578,134.560196 227.831144,134.121515 L228.217004,131.075164 C228.699488,131.975992 229.034792,132.94819 229.210211,133.954923 C229.561395,135.458576 229.993833,136.942086 230.505622,138.398924 C230.796553,139.277486 231.087525,140.156171 231.401746,141.026673 C231.600767,141.522131 231.754019,142.034767 231.859585,142.558163 C231.929123,142.980339 231.931066,143.410652 231.979914,143.835728 C232.085654,144.747185 232.404577,145.620926 232.910852,146.386185 C233.004467,146.56361 233.159301,146.701024 233.346591,146.7729 C233.473074,146.796322 233.603203,146.791032 233.727368,146.757422 C235.091047,146.488168 236.410919,146.031551 237.649452,145.400557 C237.913222,145.291667 238.142241,145.112803 238.31179,144.883272 C238.645216,144.341316 238.272446,143.664043 238.110378,143.048724 C237.936661,142.38914 237.977131,141.595569 237.457716,141.153526 C235.648799,139.614153 236.546727,136.488736 235.641362,134.292793 C235.48245,133.907355 235.297271,133.532361 235.160236,133.138604 C235.055471,132.837565 234.979505,132.527446 234.903045,132.218017 C234.271036,129.660292 233.594603,127.114097 232.873747,124.579431 C232.126331,121.951417 232.206338,119.214069 231.265428,116.648961 C231.088545,116.111314 230.857555,115.593005 230.576008,115.102003 C230.257596,114.588988 229.832155,114.150781 229.328775,113.817344 C227.963215,112.91444 226.584756,112.145474 224.980801,111.817884 C223.376847,111.490294 221.640373,111.540977 220.003319,111.548204 Z" id="Path" fill="#D0CDE1" fill-rule="nonzero"></path>
                <path d="M207.947755,105.316028 C207.253366,104.942015 207.4363,103.926573 207.31829,103.14674 C207.0755,101.542317 205.262385,100.590488 204.836742,99.0246195 C205.325731,99.0847064 205.821914,99.0144576 206.275005,98.8209925 C206.362453,98.3010799 206.259528,97.767068 205.985107,97.3169019 C207.476283,96.7111227 208.683098,95.5224136 210.19721,94.9764782 C212.101281,94.2899336 214.221731,94.7112894 216.142507,95.3496093 C217.100854,95.6680906 218.098156,96.0815071 218.677551,96.9086487 C219.31395,97.8171664 219.304305,99.0129295 219.270117,100.121641 C219.216497,101.86049 219.147897,103.661705 218.373706,105.219616 C217.387988,107.203176 214.597277,109.040383 212.291546,108.503032 C211.332602,108.279553 211.050378,107.677463 210.646193,106.844144 C210.394628,106.325481 210.300121,105.723359 209.733699,105.4536 C209.180151,105.189965 208.50959,105.618637 207.947755,105.316028 Z" id="Path" fill="#2F2E41" fill-rule="nonzero"></path>
                <g id="Group" opacity="0.1" transform="translate(175.811688, 142.191558)" fill="#000000" fill-rule="nonzero">
                    <path d="M23.2252422,0.161055844 C23.2316598,0.298252706 23.2355123,0.436319372 23.2367995,0.575255844 C23.2302852,0.438400325 23.2267998,0.300169156 23.2252422,0.161055844 Z" id="Path"></path>
                    <path d="M0.851968019,5.35003604 C1.19233328,6.24109903 1.17917208,7.22235649 1.16142435,8.17603929 C1.15679156,8.42498452 1.15215979,8.67392976 1.14752906,8.922875 C1.1258413,8.40860357 1.02618495,7.90060725 0.851968019,7.41625828 C0.71117987,7.04770146 0.512429383,6.70256769 0.385351461,6.32905731 C0.167364986,5.67622166 0.17534466,4.96903235 0.408006494,4.32128166 C0.535173864,4.67228506 0.718656494,5.00101591 0.851968019,5.35003604 Z" id="Path"></path>
                </g>
                <g id="Group" opacity="0.1" transform="translate(176.120130, 97.159091)" fill="#000000" fill-rule="nonzero">
                    <path d="M0.748029576,0.910541071 L0.735467484,0.912490422 C0.617260107,0.645358832 0.37449777,0.3893905 0.0197149675,0.157801786 C0.239803442,0.122213799 0.456861824,0.0842785714 0.672323791,0.0449121753 C0.842955164,0.328525574 0.868699722,0.622891889 0.748029576,0.910541071 L0.748029576,0.910541071 Z" id="Path"></path>
                </g>
                <path d="M16.3525412,94.3250219 L15.1350638,93.2267294 C10.8115644,89.2572469 7.95724627,86.6808593 7.95724627,83.4714755 C7.93561107,82.2377968 8.41421388,81.0478844 9.28404226,80.1727673 C10.1538706,79.2976503 11.3408601,78.8118435 12.5746472,78.8260002 C14.033325,78.8337689 15.4148329,79.4824137 16.3525289,80.599789 C17.2902099,79.4823925 18.6717291,78.8337429 20.1304136,78.8260002 C21.3642008,78.8118402 22.5511915,79.2976439 23.4210222,80.1727586 C24.2908529,81.0478733 24.7694588,82.2377844 24.7478269,83.4714631 C24.7478269,86.680887 21.8934656,89.2572747 17.5700094,93.226717 L16.3525412,94.3250219 Z" id="Path" fill="#FF6584" fill-rule="nonzero"></path>
                <path d="M18.5116321,91.5490479 L17.2941547,90.4507554 C12.9706554,86.4812729 10.1163372,83.9048852 10.1163372,80.6955015 C10.094702,79.4618228 10.5733048,78.2719104 11.4431332,77.3967933 C12.3129615,76.5216763 13.499951,76.0358694 14.7337381,76.0500261 C16.1924159,76.0577949 17.5739238,76.7064397 18.5116198,77.8238149 C19.4493008,76.7064184 20.83082,76.0577689 22.2895045,76.0500261 C23.5232917,76.0358662 24.7102824,76.5216698 25.5801131,77.3967846 C26.4499438,78.2718993 26.9285498,79.4618104 26.9069179,80.6954891 C26.9069179,83.904913 24.0525565,86.4813006 19.7291003,90.450743 L18.5116321,91.5490479 Z" id="Path" stroke="#3F3D56" stroke-width="2"></path>
            </g>
            <g id="undraw_chasing_love_3v98" transform="translate(282.964286, 149.285714)" fill-rule="nonzero">
                <path d="M83.9745315,9.13497993 C83.072366,11.8060643 81.689016,14.2398222 78.8696892,14.2398222 C76.0503624,14.2398222 73.9237017,11.9498271 73.7648495,9.13497993 C73.5618666,5.53816657 75.9853258,4.01524277 78.8696917,4.03013892 C82.2771018,4.0477387 85.0451839,5.96505231 83.9745315,9.13497993 Z" id="Path" fill="#2F2E41"></path>
                <rect id="Rectangle" fill="#2F2E41" x="73.7648469" y="8.73196617" width="10.0753467" height="12.7621051"></rect>
                <polygon id="Path" fill="#F2F2F2" points="57.1881582 47.6950737 21.4155094 47.6950737 12.2610668 90.7913023 66.3426009 90.7913023"></polygon>
                <path d="M66.3426188,42.9839188 C66.3426188,43.7623151 61.3189735,44.4313101 54.1648877,44.714218 C52.1829303,44.792371 50.038428,44.8423886 47.7907593,44.854887 C47.3609204,44.8580158 46.9279553,44.8595803 46.4918638,44.8595803 C35.5286171,44.8595803 26.6411088,44.0202162 26.6411088,42.9839188 C26.6411088,41.9476215 35.5286158,41.1082561 46.4918613,41.1082561 C57.4551067,41.1082561 66.3426188,41.9476151 66.3426188,42.9839188 Z" id="Path" fill="#3F3D56"></path>
                <polygon id="Rectangle" fill="#3F3D56" transform="translate(21.561188, 66.898608) rotate(-77.993180) translate(-21.561188, -66.898608) " points="-2.88708199 66.7423175 46.0094583 66.7423175 46.0094583 67.0548975 -2.88708199 67.0548975"></polygon>
                <polygon id="Rectangle" fill="#3F3D56" transform="translate(71.422535, 66.898609) rotate(-11.992420) translate(-71.422535, -66.898609) " points="71.2661703 42.4503384 71.5789 42.4503384 71.5789 91.3468787 71.2661703 91.3468787"></polygon>
                <rect id="Rectangle" fill="#2F2E41" x="9.49148304" y="90.5006865" width="93.5006524" height="1"></rect>
                <path d="M43.0911815,43.1204345 L42.449288,42.9102659 C40.1582347,42.1378436 38.6530962,41.6445496 38.1169665,40.4360982 C37.9027359,39.975186 37.884175,39.4471895 38.0655115,38.9723719 C38.2468481,38.4975542 38.6126414,38.1163455 39.0795738,37.9155748 C39.6301176,37.6748304 40.2586612,37.68829 40.7983944,37.9523814 C40.9648066,37.3750022 41.3766434,36.8999808 41.9245984,36.6533938 C42.3867995,36.4419596 42.9148981,36.4265974 43.3886083,36.6108063 C43.8623184,36.7950152 44.2413044,37.16311 44.4392437,37.6312491 C44.9753735,38.8397159 44.3309837,40.2866338 43.3661333,42.503507 L43.0911815,43.1204345 Z" id="Path" fill="#80CCFF"></path>
                <path d="M54.1648852,44.714218 C52.1829277,44.792371 50.0384254,44.8423886 47.7907568,44.854887 C47.9945777,44.5521804 48.2802608,44.3136607 48.6144877,44.1671458 C49.1647468,43.9264627 49.7930517,43.9401831 50.3322796,44.2046575 C50.4995208,43.6275082 50.9114514,43.1527328 51.4592436,42.905762 C51.9215752,42.6944312 52.4497503,42.6791897 52.9234992,42.8635078 C53.397248,43.047826 53.7762446,43.4160146 53.9741883,43.8842341 C54.0898158,44.1462978 54.1545319,44.4279665 54.1648852,44.714218 L54.1648852,44.714218 Z" id="Path" fill="#80CCFF"></path>
                <path d="M43.5553856,23.2654264 L43.2912674,23.0660096 C42.3521175,22.3439172 41.7328805,21.876092 41.6764269,21.2307809 C41.6503764,20.9831057 41.7256786,20.7354315 41.8851817,20.5441715 C42.0446849,20.3529116 42.2748076,20.2343514 42.5231341,20.2154958 C42.8165671,20.1913996 43.1057566,20.2975213 43.3139546,20.505697 C43.4828391,20.2645287 43.7492106,20.1098036 44.0423716,20.0825871 C44.2902001,20.0580377 44.5374136,20.1348391 44.7277038,20.2954979 C44.917994,20.4561568 45.035158,20.6869934 45.0525092,20.9354297 C45.1089641,21.5807484 44.580358,22.1489915 43.7808649,23.0231777 L43.5553856,23.2654264 Z" id="Path" fill="#80CCFF"></path>
                <path d="M47.6193192,12.6366752 L47.355201,12.4372584 C46.4160524,11.715166 45.7968141,11.2473408 45.7403604,10.6020297 C45.7143103,10.3543546 45.7896126,10.1066806 45.9491157,9.91542071 C46.1086188,9.72416085 46.3387413,9.60560061 46.5870677,9.58674463 C46.8805009,9.56264809 47.1696908,9.66877029 47.3778881,9.87694709 C47.5467721,9.63577759 47.8131446,9.48105215 48.1063065,9.45383721 C48.3541348,9.42928745 48.6013483,9.50608848 48.7916386,9.66674715 C48.9819288,9.82740583 49.0990929,10.0582423 49.1164441,10.3066785 C49.172899,10.9519972 48.6442915,11.5202403 47.8447985,12.3944265 L47.6193192,12.6366752 Z" id="Path" fill="#80CCFF"></path>
                <path d="M48.5688537,32.076802 L48.4707607,31.520493 C48.137084,29.5261255 47.9074284,28.2214811 48.5873376,27.349552 C48.8428157,27.0098018 49.2249271,26.7879181 49.6466371,26.7344398 C50.0683471,26.6809616 50.4937478,26.8004424 50.8259447,27.0656678 C51.2205944,27.3767995 51.4585087,27.845697 51.4765466,28.347918 C51.9680176,28.2429904 52.480767,28.35944 52.8787043,28.6663594 C53.2169006,28.923891 53.4364657,29.3073392 53.4873887,29.7293654 C53.5383118,30.1513916 53.4162567,30.5760608 53.1490243,30.9066453 C52.4691061,31.7785859 51.1478216,31.8738435 49.1322935,32.0363398 L48.5688537,32.076802 Z" id="Path" fill="#80CCFF"></path>
                <path d="M1.63423329,66.7431949 L1.63423329,67.0557051 L1.63423329,66.7431949 Z" id="Rectangle" fill="#2F2E41" transform="translate(1.634233, 66.899450) rotate(-79.644778) translate(-1.634233, -66.899450) "></path>
                <path d="M84.13604,18.2397914 L84.9930077,18.2397914 C84.9930077,18.2397914 87.0878263,20.905924 86.1356356,24.5242473 C85.1834448,28.1425707 85.9451972,28.8090987 85.9451972,28.8090987 C85.9451972,28.8090987 87.18481,32.7274384 85.8517437,38.6310175 C84.5186774,44.5345966 87.0878263,46.1389618 87.0878263,46.1389618 L84.7073539,41.3780144 L83.3742889,28.8091025 L84.13604,18.2397914 Z" id="Path" fill="#80CCFF"></path>
                <path d="M84.13604,18.2446535 L84.9930077,18.2446535 C84.9930077,18.2446535 87.0878263,20.9107861 86.1356356,24.5291095 C85.1834448,28.1474328 85.9451972,28.8139609 85.9451972,28.8139609 C85.9451972,28.8139609 87.18481,32.7323006 85.8517437,38.6358797 C84.5186774,44.5394588 87.0878263,46.143824 87.0878263,46.143824 L84.7073501,41.3828727 L83.3742889,28.8139634 L84.13604,18.2446535 Z" id="Path" fill="#000000" opacity="0.1"></path>
                <path d="M81.1366402,13.6216689 C81.1366402,13.6216689 80.3748891,16.6686771 80.7557646,16.6686771 C81.1366402,16.6686771 82.4697065,18.2873959 82.4697065,18.2873959 L83.326678,21.4296309 L82.6601449,23.7148879 L80.3748891,23.2387932 L77.5183168,20.096562 L76.6613453,19.2395905 L75.899598,16.4782387 C75.899598,16.4782387 76.8517888,15.3356108 76.1852556,14.38342 C75.5187225,13.4312293 81.1366402,13.6216689 81.1366402,13.6216689 Z" id="Path" fill="#FBBEBE"></path>
                <path d="M81.1366402,13.6216689 C81.1366402,13.6216689 80.3748891,16.6686771 80.7557646,16.6686771 C81.1366402,16.6686771 82.4697065,18.2873959 82.4697065,18.2873959 L83.326678,21.4296309 L82.6601449,23.7148879 L80.3748891,23.2387932 L77.5183168,20.096562 L76.6613453,19.2395905 L75.899598,16.4782387 C75.899598,16.4782387 76.8517888,15.3356108 76.1852556,14.38342 C75.5187225,13.4312293 81.1366402,13.6216689 81.1366402,13.6216689 Z" id="Path" fill="#000000" opacity="0.1"></path>
                <path d="M58.0936363,22.0961614 L55.9988177,18.6682765 C55.9988177,18.6682765 53.7375708,13.6650497 52.118852,15.4742108 C50.5001332,17.2833718 54.5705373,20.9535336 54.5705373,20.9535336 L56.665356,23.7148854 L58.0936363,22.0961614 Z" id="Path" fill="#FBBEBE"></path>
                <path d="M85.8975914,51.8997172 L84.374088,63.0403385 C84.374088,63.0403385 84.5645251,63.89731 82.6601449,67.0395374 C80.7557646,70.1817647 75.6139366,77.0375359 75.6139366,77.0375359 L74.0904332,74.1809649 C74.0904332,74.1809649 75.8995942,65.1351533 79.0418215,63.2307769 L78.660946,49.5192371 L85.8975914,51.8997172 Z" id="Path" fill="#FBBEBE"></path>
                <path d="M85.8975914,51.8997172 L84.374088,63.0403385 C84.374088,63.0403385 84.5645251,63.89731 82.6601449,67.0395374 C80.7557646,70.1817647 75.6139366,77.0375359 75.6139366,77.0375359 L74.0904332,74.1809649 C74.0904332,74.1809649 75.8995942,65.1351533 79.0418215,63.2307769 L78.660946,49.5192371 L85.8975914,51.8997172 Z" id="Path" fill="#000000" opacity="0.1"></path>
                <path d="M74.0904332,73.0383408 L76.1852518,77.0375397 C76.1852518,77.0375397 74.4713087,81.8937101 75.137838,82.3698049 C75.8043673,82.8458996 76.6613427,87.1307561 74.8521817,86.6546562 C73.0430206,86.1785564 71.6147339,84.27418 71.6147339,83.9885237 C71.6147339,83.7028673 72.6621477,79.7036723 72.0908299,78.7514764 C71.5195121,77.7992805 71.1386391,77.5136293 71.1386391,77.5136293 L69.7103536,79.8941056 L69.2342589,79.608448 L71.6147339,75.6092491 C71.6147339,75.6092491 71.9003915,74.8474967 73.0430194,74.371402 L74.0904332,73.0383408 Z" id="Path" fill="#2F2E41"></path>
                <path d="M74.0904332,73.0383408 L76.1852518,77.0375397 C76.1852518,77.0375397 74.4713087,81.8937101 75.137838,82.3698049 C75.8043673,82.8458996 76.6613427,87.1307561 74.8521817,86.6546562 C73.0430206,86.1785564 71.6147339,84.27418 71.6147339,83.9885237 C71.6147339,83.7028673 72.6621477,79.7036723 72.0908299,78.7514764 C71.5195121,77.7992805 71.1386391,77.5136293 71.1386391,77.5136293 L69.7103536,79.8941056 L69.2342589,79.608448 L71.6147339,75.6092491 C71.6147339,75.6092491 71.9003915,74.8474967 73.0430194,74.371402 L74.0904332,73.0383408 Z" id="Path" fill="#000000" opacity="0.1"></path>
                <path d="M78.6831635,50.3190923 C78.6831635,50.3190923 79.4226983,60.8503045 77.8039744,63.6116563 L77.8039744,77.323196 L75.6139366,77.6088536 C75.6139366,77.6088536 71.9003902,70.1817698 73.5191192,63.0403423 C75.1378482,55.8989148 71.1386378,49.519241 71.1386378,49.519241 L78.6831635,50.3190923 Z" id="Path" fill="#FBBEBE"></path>
                <circle id="Oval" fill="#FBBEBE" cx="78.1372416" cy="11.9553354" r="3.99919888"></circle>
                <path d="M82.1840501,22.4770447 L78.1848512,17.4304358 L75.899598,15.9069247 L74.9474073,17.1447718 L72.2812747,17.9065242 C72.2812747,17.9065242 70.5673328,18.287401 68.7581718,20.3822196 C66.9490108,22.4770383 63.711563,23.7148854 63.711563,23.7148854 L61.0454304,23.2387906 C61.0454304,23.2387906 57.9032018,21.8105051 57.9032018,21.4296283 C57.9032018,21.0487515 55.1418423,24.0005417 55.8083793,25.1431773 C56.4749163,26.2858128 57.9031979,27.7140906 58.6649503,28.475843 C59.4267026,29.2375953 59.7123641,31.4276332 64.3780923,30.7611 C69.0438205,30.0945669 70.7577713,27.8093098 70.7577713,27.8093098 C70.7577713,27.8093098 71.6147415,32.1893843 74.090437,33.0463558 C76.5661325,33.9033274 84.6597481,34.4746413 84.6597481,34.4746413 L86.3736913,28.7614993 C86.3736913,28.7614993 88.2780715,26.2858051 85.7071581,22.6674818 C85.7071581,22.6674818 85.6578007,20.6438581 85.3814119,19.297275 C85.2739093,18.7735118 85.1320581,18.3521766 84.9454058,18.1921882 C84.2788726,17.6208742 80.7557685,16.6686835 80.7557685,16.6686835 C80.7557685,16.6686835 81.3270824,18.5730637 81.61274,18.6682829 C81.8983976,18.7635021 82.5649257,22.0009422 82.1840501,22.4770447 Z" id="Path" fill="#80CCFF"></path>
                <path d="M69.3770915,50.8999169 C74.1723083,50.5666509 76.9641369,51.3522074 78.2096074,51.9511334 C78.4411513,52.0559201 78.659196,52.1882806 78.8590078,52.3453415 C78.950414,52.4224683 78.9942119,52.4824573 78.9942119,52.5186408 C78.9942119,52.8042971 85.5643242,53.375611 87.9447992,52.8042971 C90.3252741,52.2329832 86.3260804,39.9497289 85.2786666,38.9023202 C84.2312528,37.8549115 84.7959043,34.0213911 84.7959043,34.0213911 C84.7959043,34.0213911 82.707757,33.5700538 82.1364431,33.7604973 C81.5651291,33.9509408 78.6133389,33.474841 77.5659303,32.9035257 C76.5185216,32.3322105 75.185454,32.7130886 74.3284824,32.5226502 C73.9457004,32.4379038 73.7524036,32.5807327 73.6562311,32.765458 C73.5065349,33.0425555 73.2805036,33.2709039 73.0049473,33.4234184 C70.9834502,34.5879516 69.3609133,42.639672 68.1392457,47.0911615 C66.8061769,51.9473255 69.3770915,50.8999169 69.3770915,50.8999169 Z" id="Path" fill="#2F2E41"></path>
                <path d="M78.1848512,76.4662258 L78.5657268,78.5610444 C78.5657268,78.5610444 80.5653262,81.4176141 79.9940123,83.7980904 C79.9940123,83.7980904 80.470107,86.9403177 82.1840501,87.7972893 C83.8979932,88.6542608 82.4697065,90.6538603 80.8509838,90.558641 C79.2322612,90.4634218 77.7087552,90.6538603 77.5183181,90.1777655 C77.327881,89.7016708 76.1852518,85.0359375 76.1852518,85.0359375 L75.8726411,90.4957898 L74.9204504,90.591009 L75.233061,84.2741851 C75.233061,84.2741851 74.4713087,82.8458996 75.5187187,80.4654246 L75.2543701,76.8114398 C75.2543701,76.8114398 77.8991936,77.4184152 78.1848512,76.4662258 Z" id="Path" fill="#2F2E41"></path>
                <path d="M78.2096086,51.951136 C78.4411526,52.0559226 78.6591973,52.1882832 78.859009,52.3453441 C78.9094541,51.4455227 79.2008298,46.0037525 78.8513844,46.0913586 L78.2096086,51.951136 Z" id="Path" fill="#000000" opacity="0.1"></path>
                <path d="M76.4816714,6.4482215 C76.4816714,6.4482215 76.4373822,6.20167237 74.7052123,6.85123527 C72.9730425,7.50079816 71.9347273,12.2942927 72.8008116,15.1090682 C73.1498412,16.2434112 72.8659122,17.0612756 72.4024975,17.6335171 C70.6634938,19.7809176 71.3480681,23.0062535 73.8810617,24.1105201 C73.9525586,24.1416901 74.0255168,24.1725021 74.0999361,24.2029564 L75.1825367,24.8525206 C75.1825367,24.8525206 73.8024481,23.0366126 74.4930963,20.7137326 C75.0928744,18.7345495 75.1669431,16.6332963 74.7080119,14.6167939 C74.6287752,14.2766237 74.53877,13.925973 74.4365288,13.5681326 C73.5704445,10.536837 73.991671,10.8869017 77.0229666,7.85560863 C77.0229666,7.85560863 78.7551365,9.15473569 80.2707849,9.80429987 C81.7864334,10.453864 83.0855592,11.1034269 82.0029535,13.2686383 C80.9203478,15.4338496 78.3220937,17.382546 80.0542635,20.1973151 C81.7864334,23.0120843 82.0029535,21.929485 81.7864334,23.0120907 L81.7864334,23.0120907 L81.569912,24.0946912 L82.869039,22.7955641 L82.0029535,24.5277327 C82.0029535,24.5277327 84.817729,24.5277327 85.6838133,22.3625214 L86.1168561,22.7955641 C86.1168561,22.7955641 87.8490246,19.7642672 84.6012076,16.949493 C84.6012076,16.949493 83.5186071,16.2999288 85.0342504,14.1347175 C86.5498937,11.9695061 85.3858621,7.31430067 83.4371721,6.44821638 C81.4884821,5.5821321 76.4816714,6.4482215 76.4816714,6.4482215 Z" id="Path" fill="#2F2E41"></path>
                <circle id="Oval" fill="#2F2E41" cx="78.8696892" cy="3.08977219" r="2.01506882"></circle>
                <path d="M76.4516066,2.01506882 C76.4516841,0.98025165 77.2355453,0.11369452 78.2651717,0.0101760102 C78.1988773,0.00359160828 78.1316911,0 78.0636617,0 C76.9507695,0 76.0485922,0.902177327 76.0485922,2.01506946 C76.0485922,3.12796159 76.9507695,4.03013892 78.0636617,4.03013892 C78.1316911,4.03013892 78.1988773,4.02654731 78.2651717,4.01996291 C77.2355443,3.9164391 76.4516868,3.04988378 76.4516066,2.01506882 L76.4516066,2.01506882 Z" id="Path" fill="#2F2E41"></path>
                <path d="M52.7773895,17.0132207 L52.5132713,16.8138026 C51.5741226,16.0917115 50.9548843,15.623885 50.8984307,14.9785752 C50.8723802,14.7309 50.9476824,14.4832258 51.1071855,14.2919659 C51.2666887,14.1007059 51.4968114,13.9821458 51.7451379,13.9632901 C52.038571,13.9391931 52.3277609,14.0453148 52.5359584,14.2534913 C52.7048424,14.0123218 52.9712149,13.8575964 53.2643767,13.8303814 C53.5122051,13.8058317 53.7594186,13.8826327 53.9497088,14.0432914 C54.1399991,14.2039501 54.2571631,14.4347865 54.2745143,14.6832227 C54.3309692,15.3285414 53.8023618,15.8967845 53.0028688,16.7709707 L52.7773895,17.0132207 Z" id="Path" fill="#80CCFF"></path>
                <circle id="Oval" fill="#F1F1F1" cx="96.3714428" cy="63.206333" r="2.30636911"></circle>
                <circle id="Oval" fill="#F1F1F1" cx="32.2863276" cy="13.6575978" r="2.30636911"></circle>
                <circle id="Oval" fill="#F1F1F1" cx="9.93468982" cy="39.7605585" r="2.30636911"></circle>
            </g>
        </g>
    </g>
</svg>