<?xml version="1.0" encoding="UTF-8"?>
<svg width="105px" height="77px" viewBox="0 0 105 77" version="1.1" xmlns="http://www.w3.org/2000/svg" xmlns:xlink="http://www.w3.org/1999/xlink">
    <!-- Generator: Sketch 57.1 (83088) - https://sketch.com -->
    <title>ambassador-big</title>
    <desc>Created with Sketch.</desc>
    <defs>
        <linearGradient x1="50%" y1="0%" x2="50%" y2="100%" id="linearGradient-1">
            <stop stop-color="#36D6F3" offset="0%"></stop>
            <stop stop-color="#19ADE4" offset="100%"></stop>
        </linearGradient>
        <linearGradient x1="50%" y1="0%" x2="50%" y2="100%" id="linearGradient-2">
            <stop stop-color="#F99A9B" offset="0%"></stop>
            <stop stop-color="#F16162" offset="100%"></stop>
        </linearGradient>
        <linearGradient x1="50%" y1="0%" x2="50%" y2="100%" id="linearGradient-3">
            <stop stop-color="#00C9FF" offset="0%"></stop>
            <stop stop-color="#0099FF" offset="100%"></stop>
        </linearGradient>
    </defs>
    <g id="ambassador-big" stroke="none" stroke-width="1" fill="none" fill-rule="evenodd">
        <g id="Group-2" transform="translate(34.000000, 4.500000)" stroke="#073863">
            <g id="Group-Copy">
                <path d="M7.11902232,66.0198835 L7.12042551,66.1972449 C7.11995025,66.1371719 7.09560975,66.0797654 7.05278904,66.0376638 C7.06081953,66.0295596 7.06884231,66.021473 7.07685737,66.013404 C7.08300987,66.0143562 7.08984174,66.0154379 7.09738624,66.0166253 C7.10476777,66.0177345 7.11197522,66.0188196 7.11902232,66.0198834 Z M7.11863899,65.9714302 C8.9250126,64.1606153 10.3375582,63.2482077 11.4421292,63.2571927 C12.5442241,63.2661576 13.9641812,64.1983764 15.7930304,66.0307162 C15.7930133,66.0307148 15.7930019,66.0307125 15.7929903,66.0307126 C15.7929687,66.0307128 15.7929902,66.030691 15.792991,66.030799 L15.5051635,29.6497671 L6.8307229,29.5792057 L7.11863899,65.9714302 Z" id="Rectangle" fill="url(#linearGradient-1)" transform="translate(11.314822, 48.179807) rotate(-345.000000) translate(-11.314822, -48.179807) "></path>
                <path d="M21.2731382,65.3235941 L21.2716873,65.5069895 C21.272184,65.4441996 21.2471838,65.3839082 21.2024298,65.3398989 C21.2104096,65.3318457 21.2183817,65.3238095 21.2263461,65.3157902 C21.2284588,65.3161565 21.2306485,65.3165373 21.2329163,65.3169317 C21.2468379,65.3192267 21.2602194,65.3214416 21.2731382,65.3235938 Z M21.2735753,65.2683445 C23.1031194,63.4346384 24.5242361,62.5038569 25.6244358,62.4949075 C26.7308126,62.4859077 28.1423012,63.3997788 29.9478999,65.2091615 C29.9479068,65.2091684 29.9479161,65.2091723 29.9479258,65.2091724 C29.9479307,65.2091733 29.9479258,65.209169 29.9479261,65.2091355 L30.2358421,28.8169205 L21.5614015,28.8874819 L21.2735753,65.2683445 Z" id="Rectangle-Copy-3" fill="url(#linearGradient-1)" transform="translate(25.751743, 47.417522) rotate(-15.000000) translate(-25.751743, -47.417522) "></path>
                <path d="M17.627848,35.7763193 L16.0186611,37.1426845 C15.5976673,37.5001515 14.9666001,37.4486529 14.6091331,37.0276591 C14.5694601,36.9809356 14.5341669,36.9306635 14.5036992,36.8774776 L13.4187985,34.983619 C13.1773202,34.5620821 12.6678179,34.3750762 12.2109755,34.540304 L10.2470154,35.2506167 C9.7276552,35.4384556 9.15435707,35.1697045 8.96651816,34.6503444 C8.94784719,34.5987206 8.93345886,34.545647 8.92349901,34.4916616 L8.5117561,32.2598892 C8.42539319,31.7917759 8.02103009,31.4494232 7.54508346,31.4414588 L5.42042211,31.4059055 C4.86821467,31.3966651 4.42805294,30.9415217 4.43729338,30.3893142 C4.43804664,30.3442997 4.44183892,30.2993874 4.44864435,30.2548839 L4.8008991,27.9513432 C4.87119807,27.4916289 4.6153,27.0441295 4.18344111,26.8715691 L2.13768738,26.0541354 C1.62482888,25.8492096 1.37520014,25.2673304 1.58012598,24.7544719 C1.59358544,24.7207876 1.60886772,24.6878605 1.62590506,24.6558367 L2.72346752,22.5928325 C2.93859126,22.1884809 2.85151214,21.6896671 2.51211056,21.3821203 L0.81777914,19.8468115 C0.408521826,19.4759653 0.377383457,18.8435665 0.748229645,18.4343092 C0.770257963,18.4099992 0.793469197,18.386788 0.81777914,18.3647597 L2.51211056,16.8294509 C2.85151214,16.5219041 2.93859126,16.0230903 2.72346752,15.6187387 L1.62590506,13.5557345 C1.36650448,13.0681591 1.55147674,12.4626154 2.03905216,12.2032148 C2.07107594,12.1861775 2.10400302,12.1708952 2.13768738,12.1574357 L4.18344111,11.3400021 C4.6153,11.1674417 4.87119807,10.7199422 4.8008991,10.2602279 L4.44864435,7.95668733 C4.36516007,7.41074885 4.74005327,6.90050089 5.28599175,6.81701662 C5.33049527,6.81021119 5.37540756,6.80641891 5.42042211,6.80566565 L7.54508346,6.77011234 C8.02103009,6.76214802 8.42539319,6.41979525 8.5117561,5.95168194 L8.92349901,3.71990963 C9.02369982,3.17679064 9.54521357,2.81773451 10.0883326,2.91793532 C10.142318,2.92789516 10.1953916,2.9422835 10.2470154,2.96095447 L12.2109755,3.67126716 C12.6678179,3.83649502 13.1773202,3.64948911 13.4187985,3.22795216 L14.5036992,1.33409363 C14.7782233,0.854870316 15.3892563,0.688928781 15.8684796,0.963452839 C15.9216656,0.993920535 15.9719377,1.02921371 16.0186611,1.06888672 L17.627848,2.43525184 C18.0011413,2.75221626 18.5490572,2.75221626 18.9223506,2.43525184 L20.5315374,1.06888672 C20.9525312,0.711419697 21.5835984,0.762918317 21.9410654,1.18391211 C21.9807384,1.23063556 22.0160316,1.28090765 22.0464993,1.33409363 L23.1314,3.22795216 C23.3728783,3.64948911 23.8823807,3.83649502 24.339223,3.67126716 L26.3031832,2.96095447 C26.8225433,2.77311556 27.3958415,3.04186665 27.5836804,3.56122682 C27.6023513,3.61285063 27.6167397,3.66592423 27.6266995,3.71990963 L28.0384424,5.95168194 C28.1248053,6.41979525 28.5291684,6.76214802 29.0051151,6.77011234 L31.1297764,6.80566565 C31.6819839,6.81490609 32.1221456,7.27004953 32.1129051,7.82225697 C32.1121519,7.86727151 32.1083596,7.91218381 32.1015542,7.95668733 L31.7492994,10.2602279 C31.6790005,10.7199422 31.9348985,11.1674417 32.3667574,11.3400021 L34.4125111,12.1574357 C34.9253696,12.3623616 35.1749984,12.9442408 34.9700725,13.4570993 C34.9566131,13.4907836 34.9413308,13.5237107 34.9242935,13.5557345 L33.826731,15.6187387 C33.6116073,16.0230903 33.6986864,16.5219041 34.038088,16.8294509 L35.7324194,18.3647597 C36.1416767,18.7356059 36.1728151,19.3680047 35.8019689,19.777262 C35.7799406,19.801572 35.7567293,19.8247832 35.7324194,19.8468115 L34.038088,21.3821203 C33.6986864,21.6896671 33.6116073,22.1884809 33.826731,22.5928325 L34.9242935,24.6558367 C35.183694,25.1434121 34.9987218,25.7489558 34.5111464,26.0083564 C34.4791226,26.0253937 34.4461955,26.040676 34.4125111,26.0541354 L32.3667574,26.8715691 C31.9348985,27.0441295 31.6790005,27.4916289 31.7492994,27.9513432 L32.1015542,30.2548839 C32.1850385,30.8008223 31.8101453,31.3110703 31.2642068,31.3945546 C31.2197033,31.40136 31.174791,31.4051523 31.1297764,31.4059055 L29.0051151,31.4414588 C28.5291684,31.4494232 28.1248053,31.7917759 28.0384424,32.2598892 L27.6266995,34.4916616 C27.5264987,35.0347805 27.004985,35.3938367 26.461866,35.2936359 C26.4078806,35.283676 26.354807,35.2692877 26.3031832,35.2506167 L24.339223,34.540304 C23.8823807,34.3750762 23.3728783,34.5620821 23.1314,34.983619 L22.0464993,36.8774776 C21.7719752,37.3567009 21.1609423,37.5226424 20.6817189,37.2481183 C20.628533,37.2176507 20.5782609,37.1823575 20.5315374,37.1426845 L18.9223506,35.7763193 C18.5490572,35.4593549 18.0011413,35.4593549 17.627848,35.7763193 Z" id="Star" fill="url(#linearGradient-2)"></path>
            </g>
            <g id="Combined-Shape-Copy-4" transform="translate(17.637550, 18.468236) rotate(-360.000000) translate(-17.637550, -18.468236) translate(9.137550, 9.968236)" fill="url(#linearGradient-3)" stroke-width="0.8">
                <path d="M10.5843283,14.0373284 L10.5843283,14.4328569 L10.3518499,14.4328668 L10.3518501,14.4373453 L10.5843285,14.4373355 L10.5950181,14.8371856 L10.7625397,14.832707 L10.7518501,14.4328569 L10.7518501,14.0373284 L10.5843283,14.0373284 Z" id="Combined-Shape-Copy-2" transform="translate(8.741589, 8.741589) rotate(-45.000000) translate(-8.741589, -8.741589) "></path>
            </g>
        </g>
    </g>
</svg>