<?xml version="1.0" encoding="UTF-8"?>
<svg width="520px" height="130px" viewBox="0 0 520 130" version="1.1" xmlns="http://www.w3.org/2000/svg" xmlns:xlink="http://www.w3.org/1999/xlink">
    <!-- Generator: Sketch 55.2 (78181) - https://sketchapp.com -->
    <title>reward-hearts</title>
    <desc>Created with Sketch.</desc>
    <defs>
        <linearGradient x1="10.2277075%" y1="11.5956347%" x2="59.6114475%" y2="88.4043653%" id="linearGradient-1">
            <stop stop-color="#7CF6E7" offset="0%"></stop>
            <stop stop-color="#3EC8B7" offset="100%"></stop>
        </linearGradient>
        <linearGradient x1="11.2183019%" y1="10.0762264%" x2="59.5254222%" y2="91.4474812%" id="linearGradient-2">
            <stop stop-color="#5ACEF9" offset="0%"></stop>
            <stop stop-color="#19ADE4" offset="100%"></stop>
        </linearGradient>
    </defs>
    <g id="reward-hearts" stroke="none" stroke-width="1" fill="none" fill-rule="evenodd">
        <path d="M23.0903939,66.5492242 L17.3430029,72.5516808 C17.1520245,72.7511347 16.8355166,72.7580055 16.6360627,72.5670271 C16.6308368,72.5620233 16.6257202,72.5569067 16.6207164,72.5516808 L10.3510449,66.0037652 C8.54227711,64.0895761 8.54966976,61.0064752 10.373296,59.1019177 C12.1969221,57.1973601 15.1490112,57.1896394 16.9817866,59.0787555 L17.0264349,59.1252325 C17.0337974,59.1174415 17.0411901,59.1096698 17.0486128,59.1019177 C18.8796618,57.1896079 21.8483786,57.1896079 23.6794276,59.1019177 C25.5104765,61.0142274 25.5104765,64.1146941 23.6794276,66.0270038 C23.4939663,66.2206957 23.2968336,66.3947692 23.0903939,66.5492242 Z" id="Combined-Shape-Copy-5" fill="url(#linearGradient-1)" transform="translate(17.026357, 65.000000) rotate(-7.000000) translate(-17.026357, -65.000000) "></path>
        <path d="M486.090394,17.8815389 L480.343003,23.8839955 C480.152024,24.0834494 479.835517,24.0903201 479.636063,23.8993417 C479.630837,23.8943379 479.62572,23.8892213 479.620716,23.8839955 L473.351045,17.3360799 C471.542277,15.4218908 471.54967,12.3387899 473.373296,10.4342323 C475.196922,8.52967473 478.149011,8.52195399 479.981787,10.4110701 L480.026435,10.4575472 C480.033797,10.4497561 480.04119,10.4419845 480.048613,10.4342323 C481.879662,8.52192257 484.848379,8.52192257 486.679428,10.4342323 C488.510477,12.346542 488.510477,15.4470087 486.679428,17.3593184 C486.493966,17.5530104 486.296834,17.7270839 486.090394,17.8815389 Z" id="Combined-Shape-Copy-8" fill="url(#linearGradient-1)" transform="translate(480.026357, 16.332315) rotate(-7.000000) translate(-480.026357, -16.332315) "></path>
        <path d="M500.728434,44.8815389 L494.981043,50.8839955 C494.790064,51.0834494 494.473556,51.0903201 494.274102,50.8993417 C494.268877,50.8943379 494.26376,50.8892213 494.258756,50.8839955 L487.989085,44.3360799 C486.180317,42.4218908 486.187709,39.3387899 488.011336,37.4342323 C489.834962,35.5296747 492.787051,35.521954 494.619826,37.4110701 L494.664475,37.4575472 C494.671837,37.4497561 494.67923,37.4419845 494.686653,37.4342323 C496.517701,35.5219226 499.486418,35.5219226 501.317467,37.4342323 C503.148516,39.346542 503.148516,42.4470087 501.317467,44.3593184 C501.132006,44.5530104 500.934873,44.7270839 500.728434,44.8815389 Z" id="Combined-Shape-Copy-6" fill="url(#linearGradient-2)" transform="translate(494.664397, 43.630583) rotate(-345.000000) translate(-494.664397, -43.630583) "></path>
    </g>
</svg>