<?xml version="1.0" encoding="UTF-8"?>
<svg width="64px" height="64px" viewBox="0 0 64 64" version="1.1" xmlns="http://www.w3.org/2000/svg" xmlns:xlink="http://www.w3.org/1999/xlink">
    <!-- Generator: Sketch 58 (84663) - https://sketch.com -->
    <title>audience-location</title>
    <desc>Created with Sketch.</desc>
    <defs>
        <linearGradient x1="50%" y1="0%" x2="50%" y2="100%" id="linearGradient-1">
            <stop stop-color="#00C9FF" offset="0%"></stop>
            <stop stop-color="#0099FF" offset="100%"></stop>
        </linearGradient>
        <circle id="path-2" cx="31.1448892" cy="39.4807151" r="21.5192849"></circle>
        <linearGradient x1="50%" y1="0%" x2="50%" y2="100%" id="linearGradient-4">
            <stop stop-color="#F99A9B" offset="0%"></stop>
            <stop stop-color="#F16162" offset="100%"></stop>
        </linearGradient>
    </defs>
    <g id="audience-location" stroke="none" stroke-width="1" fill="none" fill-rule="evenodd">
        <mask id="mask-3" fill="white">
            <use xlink:href="#path-2"></use>
        </mask>
        <use id="Oval" stroke="#073863" fill="url(#linearGradient-1)" xlink:href="#path-2"></use>
        <path d="M41.7882629,30.5329226 L41.9850458,29.9270572 C42.4914725,28.367844 44.1660044,27.514392 45.7252176,28.0208187 C45.7670542,28.0344071 45.8085835,28.0489237 45.8497836,28.0643348 C48.248575,28.9631474 49.6722454,29.7875366 50.1207949,30.5375024 C50.7049303,31.5141653 50.9898297,35.3770311 50.975493,42.1260999 C50.974287,42.692588 50.9196016,43.2576973 50.8121623,43.813905 L50.1207949,47.3930767 C47.4324106,49.5756333 45.6227729,50.0339153 44.6918817,48.7679227 C43.99563,47.8210351 41.2370928,40.3098274 40.2273092,34.8166692 C40.0895939,34.0675064 40.1510597,33.5202758 40.4117069,33.1749772 C41.0141429,32.376877 41.4793686,31.4839627 41.7882629,30.5329226 Z" id="Rectangle" stroke="#073863" fill="#3EC8B7" mask="url(#mask-3)"></path>
        <path d="M31.9593477,23.875905 C34.587482,23.875905 35.9035604,24.0855538 35.9035604,21.4574195 C35.9035604,18.8292852 34.587482,17.9614302 31.9593477,17.9614302 C29.3312134,17.9614302 26.3862181,18.8292852 26.3862181,21.4574195 C26.3862181,24.0855538 29.3312134,23.875905 31.9593477,23.875905 Z" id="Oval" stroke="#073863" fill="#FFFFFF" mask="url(#mask-3)"></path>
        <path d="M41.0585131,3 C46.5336564,3 50.9721371,7.43848061 50.9721371,12.9136239 C50.9721371,14.9338205 50.3678676,16.8128824 49.3302144,18.379924 L42.8637388,31.9262279 C42.3879287,32.9230622 41.1941146,33.3454356 40.1972803,32.8696255 C39.7840253,32.6723701 39.4509747,32.3392769 39.2537723,31.9259965 L32.7940676,18.3908657 C31.7519761,16.8216326 31.1448892,14.9385246 31.1448892,12.9136239 C31.1448892,7.43848061 35.5833698,3 41.0585131,3 Z" id="Combined-Shape" stroke="#073863" fill="url(#linearGradient-4)"></path>
        <circle id="Oval" stroke="#073863" fill="#FFFFFF" cx="41.1068278" cy="11.7972949" r="4.75867112"></circle>
        <path d="M13.3972872,31.1277585 L13.4677949,31.1277585 C14.6732252,31.1277585 15.8631237,31.399715 16.9488696,31.9233734 L22.3794159,34.5425415 C23.9094813,35.2804581 25.748057,34.638332 26.4860047,33.1082816 C26.7828632,32.4927795 26.8662986,31.7959458 26.7231427,31.1277585 C26.7231427,31.1277585 26.7231427,31.1277585 26.7231427,31.1277585 C26.4093761,29.6632366 27.3239723,29.388862 29.4669313,30.3046346 C30.4846896,30.7395513 31.1448892,31.7396372 31.1448892,32.8464274 L31.1448892,34.5650962 L31.1448892,37.607248 L31.1448892,40.0980573 C31.1448892,41.1346998 30.9543424,42.1625129 30.5827465,43.1302651 L30.3038906,43.8564933 C30.1150555,44.3482792 29.9154485,44.8358609 29.705214,45.3188862 L29.4371195,45.9348478 C29.0598607,46.8016204 28.3935072,47.5106179 27.5517716,47.9408506 L27.4907859,47.9720219 C26.6691019,48.3920057 26.1894204,49.2732488 26.2827748,50.1913097 L26.4255397,51.5952797 C26.6224556,53.5317788 26.4827076,55.4877495 26.0124834,57.3765835 L25.5714617,59.1481151 C25.4383835,59.6826739 24.8971568,60.0081384 24.362598,59.8750602 C24.1650512,59.8258811 23.9872824,59.7174329 23.8531651,59.5642798 L23.5780146,59.2500761 C22.9235481,58.5027187 22.3002969,57.7285918 21.7098612,56.9296831 L15.4759609,48.4946955 C14.452494,47.1098593 13.5527323,45.6377424 12.7870632,44.0953396 L12.3849137,43.2852292 C11.9347519,42.3784004 12.095066,41.287369 12.7870632,40.5483669 C13.4794387,39.8089609 13.6413482,38.7179747 13.1935501,37.8093593 L12.4147918,36.2292015 C11.9026826,35.1900941 11.6363369,34.047156 11.6363369,32.8887088 C11.6363369,31.9161628 12.4247412,31.1277585 13.3972872,31.1277585 Z" id="Rectangle" stroke="#073863" fill="#3EC8B7"></path>
    </g>
</svg>