<?xml version="1.0" encoding="UTF-8"?>
<svg width="64px" height="64px" viewBox="0 0 64 64" version="1.1" xmlns="http://www.w3.org/2000/svg" xmlns:xlink="http://www.w3.org/1999/xlink">
    <!-- Generator: Sketch 58 (84663) - https://sketch.com -->
    <title>authentic</title>
    <desc>Created with Sketch.</desc>
    <defs>
        <linearGradient x1="50%" y1="0%" x2="50%" y2="100%" id="linearGradient-1">
            <stop stop-color="#36D6F3" offset="0%"></stop>
            <stop stop-color="#19ADE4" offset="100%"></stop>
        </linearGradient>
        <linearGradient x1="50%" y1="0%" x2="50%" y2="100%" id="linearGradient-2">
            <stop stop-color="#63F1BD" offset="0%"></stop>
            <stop stop-color="#3EE8B2" offset="100%"></stop>
        </linearGradient>
        <linearGradient x1="50%" y1="0%" x2="50%" y2="100%" id="linearGradient-3">
            <stop stop-color="#F99A9B" offset="0%"></stop>
            <stop stop-color="#F16162" offset="100%"></stop>
        </linearGradient>
    </defs>
    <g id="authentic" stroke="none" stroke-width="1" fill="none" fill-rule="evenodd">
        <g id="Group-2-Copy" transform="translate(15.404412, 3.000000)" stroke="#073863">
            <g id="Group-Copy">
                <path d="M6.4370023,59.1413461 L6.43862284,59.3461804 C6.43801293,59.269089 6.40684167,59.1954122 6.35199041,59.1413002 C6.35913228,59.1341426 6.36626737,59.1270006 6.37339568,59.1198741 C6.39340094,59.1265646 6.41485908,59.1338011 6.4370023,59.1413461 Z M6.43633641,59.0571788 C8.02464813,57.480896 9.27363889,56.6858924 10.2646816,56.693954 C11.2539785,56.7020013 12.5081396,57.5147494 14.114792,59.1084331 C14.1147889,59.10843 14.1147846,59.1084282 14.1147802,59.1084283 C14.1147779,59.1084279 14.1147802,59.1084297 14.1147803,59.1084449 L13.8579755,26.6486421 L6.17944301,26.5861818 L6.43633641,59.0571788 Z" id="Rectangle" fill="url(#linearGradient-1)" transform="translate(10.150061, 43.220121) rotate(-345.000000) translate(-10.150061, -43.220121) "></path>
                <path d="M19.1353682,58.5182543 L19.1337058,58.7283718 C19.1343401,58.6482062 19.1024864,58.5712242 19.0454482,58.5149538 C19.052442,58.5079423 19.0594293,58.5009455 19.06641,58.4939633 C19.0880253,58.501498 19.1113241,58.5096954 19.1353682,58.5182543 Z M19.1361098,58.4245175 C20.7438022,56.8289284 21.9995353,56.0181653 22.9862075,56.0101393 C23.9797784,56.0020572 25.2273611,56.7991202 26.814565,58.3734597 C26.8145615,58.3734563 26.8145569,58.3734544 26.8145521,58.3734543 C26.8145496,58.3734538 26.814552,58.3734559 26.8145519,58.3734729 L27.0714462,25.9023671 L19.3929137,25.9648274 L19.1361098,58.4245175 Z" id="Rectangle-Copy-3" fill="url(#linearGradient-1)" transform="translate(23.100828, 42.536306) rotate(-15.000000) translate(-23.100828, -42.536306) "></path>
                <path d="M15.7465877,32.1500377 L14.4640783,33.2390201 C14.0430845,33.5964871 13.4120173,33.5449885 13.0545503,33.1239947 C13.0148773,33.0772712 12.9795841,33.0269991 12.9491164,32.9738131 L12.0804464,31.457418 C11.8389681,31.0358811 11.3294657,30.8488752 10.8726234,31.014103 L9.30638526,31.5805701 C8.78702509,31.768409 8.21372696,31.4996579 8.02588805,30.9802978 C8.00721708,30.928674 7.99282875,30.8756004 7.9828689,30.821615 L7.65082932,29.0218591 C7.56446642,28.5537457 7.16010332,28.211393 6.68415669,28.2034287 L4.98029083,28.1749168 C4.42808339,28.1656763 3.98792166,27.7105329 3.9971621,27.1583255 C3.99791536,27.1133109 4.00170764,27.0683986 4.00851307,27.0238951 L4.29433041,25.1548164 C4.36462939,24.6951021 4.10873132,24.2476026 3.67687242,24.0750423 L2.02423351,23.4146877 C1.51137501,23.2097619 1.26174627,22.6278827 1.46667211,22.1150242 C1.48013157,22.0813398 1.49541385,22.0484128 1.51245119,22.016389 L2.40544883,20.3378896 C2.62057258,19.933538 2.53349345,19.4347242 2.19409187,19.1271774 L0.81777914,17.8800395 C0.408521826,17.5091933 0.377383457,16.8767944 0.748229645,16.4675371 C0.770257963,16.4432272 0.793469197,16.4200159 0.81777914,16.3979876 L2.19409187,15.1508497 C2.53349345,14.8433029 2.62057258,14.3444891 2.40544883,13.9401375 L1.51245119,12.2616381 C1.25305061,11.7740627 1.43802287,11.168519 1.92559828,10.9091184 C1.95762207,10.8920811 1.99054914,10.8767988 2.02423351,10.8633393 L3.67687242,10.2029848 C4.10873132,10.0304245 4.36462939,9.58292502 4.29433041,9.12321072 L4.00851307,7.25413198 C3.92502879,6.70819351 4.29992199,6.19794555 4.84586047,6.11446127 C4.89036398,6.10765585 4.93527628,6.10386356 4.98029083,6.10311031 L6.68415669,6.07459843 C7.16010332,6.06663412 7.56446642,5.72428135 7.65082932,5.25616803 L7.9828689,3.45641214 C8.08306971,2.91329315 8.60458346,2.55423702 9.14770245,2.65443783 C9.20168786,2.66439767 9.25476145,2.67878601 9.30638526,2.69745698 L10.8726234,3.26392408 C11.3294657,3.42915194 11.8389681,3.24214603 12.0804464,2.82060908 L12.9491164,1.30421395 C13.2236405,0.82499063 13.8346735,0.659049094 14.3138968,0.933573152 C14.3670828,0.964040848 14.4173549,0.99933402 14.4640783,1.03900703 L15.7465877,2.12798944 C16.1198811,2.44495385 16.667797,2.44495385 17.0410903,2.12798944 L18.3235998,1.03900703 C18.7445936,0.68154001 19.3756608,0.733038631 19.7331278,1.15403242 C19.7728008,1.20075587 19.808094,1.25102797 19.8385617,1.30421395 L20.7072317,2.82060908 C20.94871,3.24214603 21.4582124,3.42915194 21.9150547,3.26392408 L23.4812928,2.69745698 C24.000653,2.50961807 24.5739511,2.77836916 24.76179,3.29772933 C24.780461,3.34935314 24.7948493,3.40242674 24.8048092,3.45641214 L25.1368488,5.25616803 C25.2232117,5.72428135 25.6275748,6.06663412 26.1035214,6.07459843 L27.8073873,6.10311031 C28.3595947,6.11235075 28.7997564,6.56749418 28.790516,7.11970162 C28.7897627,7.16471617 28.7859704,7.20962847 28.779165,7.25413198 L28.4933477,9.12321072 C28.4230487,9.58292502 28.6789468,10.0304245 29.1108057,10.2029848 L30.7634446,10.8633393 C31.2763031,11.0682652 31.5259318,11.6501444 31.321006,12.1630029 C31.3075465,12.1966872 31.2922642,12.2296143 31.2752269,12.2616381 L30.3822293,13.9401375 C30.1671055,14.3444891 30.2541846,14.8433029 30.5935862,15.1508497 L31.9698989,16.3979876 C32.3791563,16.7688338 32.4102946,17.4012327 32.0394484,17.81049 C32.0174201,17.8347999 31.9942089,17.8580111 31.9698989,17.8800395 L30.5935862,19.1271774 C30.2541846,19.4347242 30.1671055,19.933538 30.3822293,20.3378896 L31.2752269,22.016389 C31.5346275,22.5039644 31.3496552,23.1095081 30.8620798,23.3689087 C30.830056,23.385946 30.7971289,23.4012283 30.7634446,23.4146877 L29.1108057,24.0750423 C28.6789468,24.2476026 28.4230487,24.6951021 28.4933477,25.1548164 L28.779165,27.0238951 C28.8626493,27.5698336 28.4877561,28.0800815 27.9418176,28.1635658 C27.8973141,28.1703712 27.8524018,28.1741635 27.8073873,28.1749168 L26.1035214,28.2034287 C25.6275748,28.211393 25.2232117,28.5537457 25.1368488,29.0218591 L24.8048092,30.821615 C24.7046084,31.3647339 24.1830946,31.7237901 23.6399756,31.6235893 C23.5859902,31.6136294 23.5329166,31.5992411 23.4812928,31.5805701 L21.9150547,31.014103 C21.4582124,30.8488752 20.94871,31.0358811 20.7072317,31.457418 L19.8385617,32.9738131 C19.5640376,33.4530365 18.9530046,33.618978 18.4737813,33.3444539 C18.4205953,33.3139862 18.3703232,33.2786931 18.3235998,33.2390201 L17.0410903,32.1500377 C16.667797,31.8330732 16.1198811,31.8330732 15.7465877,32.1500377 Z" id="Star" fill="url(#linearGradient-2)"></path>
            </g>
        </g>
        <path d="M30.9565214,25.5339592 L29.5287851,26.2845644 C28.8552333,26.6386717 28.0221513,26.3797105 27.6680443,25.706159 C27.5270369,25.4379471 27.4783789,25.1307318 27.5296027,24.8320736 L27.8022762,23.2422657 C27.9270277,22.5149085 27.6858822,21.772739 27.1574262,21.2576219 L26.0023633,20.1317137 C25.4574484,19.6005532 25.4462986,18.7282216 25.9774591,18.1833068 C26.1889701,17.966319 26.4661131,17.8251076 26.765983,17.7815339 L28.3622407,17.5495842 C29.0925489,17.4434641 29.723876,16.9847781 30.0504797,16.3230068 L30.7643479,14.8765517 C31.1011237,14.1941695 31.9273148,13.914 32.609697,14.2507759 C32.8814255,14.3848818 33.1013672,14.6048235 33.2354731,14.8765517 L33.9493415,16.3230068 C34.2759452,16.9847781 34.9072722,17.4434641 35.6375802,17.5495842 L37.233838,17.7815339 C37.9868917,17.890959 38.5086558,18.5901363 38.3992308,19.34319 C38.3556569,19.6430599 38.2144457,19.9202029 37.9974577,20.1317137 L36.8423947,21.2576219 C36.3139388,21.772739 36.0727933,22.5149085 36.1975449,23.2422657 L36.4702183,24.8320736 C36.5988552,25.5820844 36.0951321,26.2943691 35.3451212,26.4230061 C35.046463,26.4742299 34.7392476,26.4255718 34.4710358,26.2845644 L33.0432995,25.5339592 C32.3900921,25.1905477 31.609729,25.1905477 30.9565214,25.5339592 Z" id="Star" stroke="#073863" fill="url(#linearGradient-3)" fill-rule="nonzero"></path>
    </g>
</svg>