<?xml version="1.0" encoding="UTF-8"?>
<svg width="135px" height="135px" viewBox="0 0 135 135" version="1.1" xmlns="http://www.w3.org/2000/svg" xmlns:xlink="http://www.w3.org/1999/xlink">
    <!-- Generator: Sketch 57.1 (83088) - https://sketch.com -->
    <title>campaign-engagement</title>
    <desc>Created with Sketch.</desc>
    <defs>
        <linearGradient x1="10.5678984%" y1="8.98064985%" x2="59.6114475%" y2="91.5923872%" id="linearGradient-1">
            <stop stop-color="#FF9B9C" offset="0%"></stop>
            <stop stop-color="#F16162" offset="100%"></stop>
        </linearGradient>
        <linearGradient x1="10.2277075%" y1="8.40761285%" x2="59.6114475%" y2="91.5923872%" id="linearGradient-2">
            <stop stop-color="#7CF6E7" offset="0%"></stop>
            <stop stop-color="#3EC8B7" offset="100%"></stop>
        </linearGradient>
        <linearGradient x1="11.2183019%" y1="10.0762264%" x2="59.5254222%" y2="91.4474812%" id="linearGradient-3">
            <stop stop-color="#5ACEF9" offset="0%"></stop>
            <stop stop-color="#19ADE4" offset="100%"></stop>
        </linearGradient>
    </defs>
    <g id="campaign-engagement" stroke="none" stroke-width="1" fill="none" fill-rule="evenodd">
        <text id="9.34%" stroke="#073863" stroke-width="2" font-family="Muli-Bold, Muli" font-size="41" font-weight="bold" fill="#073863">
            <tspan x="7.877" y="84">9.34%</tspan>
        </text>
        <path d="M93.3961731,24.8262683 C94.6929473,26.1805925 94.6929473,28.3763857 93.3961731,29.7307099 C93.2657087,29.8669642 93.1270891,29.9895105 92.9819551,30.0983486 L89.3751496,33.8643524 C88.9931928,34.2632603 88.360177,34.2770018 87.9612691,33.8950449 C87.9508175,33.8850374 87.9405842,33.8748041 87.9305766,33.8643524 L83.9725871,29.7307099 C82.675813,28.3763857 82.675813,26.1805925 83.9725871,24.8262683 C85.2693613,23.4719442 87.3718475,23.4719442 88.6686216,24.8262683 L88.679,24.8375252 C88.6895566,24.8373567 88.6948368,24.8318055 88.7001386,24.8262683 C89.9969128,23.4719442 92.099399,23.4719442 93.3961731,24.8262683 Z" id="Combined-Shape-Copy-7" fill="url(#linearGradient-1)" transform="translate(88.684377, 29.214609) rotate(-30.000000) translate(-88.684377, -29.214609) "></path>
        <path d="M48.1701926,38.4050851 C49.4669667,39.7594093 49.4669667,41.9552025 48.1701926,43.3095267 C48.0397282,43.445781 47.9011085,43.5683273 47.7559746,43.6771654 L44.1491691,47.4431693 C43.7672123,47.8420771 43.1341964,47.8558186 42.7352886,47.4738618 C42.7248369,47.4638542 42.7146037,47.4536209 42.7045961,47.4431693 L38.7466066,43.3095267 C37.4498325,41.9552025 37.4498325,39.7594093 38.7466066,38.4050851 C40.0433807,37.050761 42.145867,37.050761 43.4426411,38.4050851 L43.4530195,38.416342 C43.4635761,38.4161735 43.4688562,38.4106223 43.4741581,38.4050851 C44.7709322,37.050761 46.8734185,37.050761 48.1701926,38.4050851 Z" id="Combined-Shape-Copy-5" fill="url(#linearGradient-2)" transform="translate(43.458396, 42.793426) rotate(-7.000000) translate(-43.458396, -42.793426) "></path>
        <path d="M74.2117963,102.565956 C75.5085704,103.920281 75.5085704,106.116074 74.2117963,107.470398 C74.0813318,107.606652 73.9427122,107.729199 73.7975783,107.838037 L70.1907727,111.604041 C69.8088159,112.002948 69.1758001,112.01669 68.7768923,111.634733 C68.7664406,111.624725 68.7562073,111.614492 68.7461998,111.604041 L64.7882103,107.470398 C63.4914362,106.116074 63.4914362,103.920281 64.7882103,102.565956 C66.0849844,101.211632 68.1874707,101.211632 69.4842448,102.565956 L69.4946231,102.577213 C69.5051797,102.577045 69.5104599,102.571494 69.5157618,102.565956 C70.8125359,101.211632 72.9150222,101.211632 74.2117963,102.565956 Z" id="Combined-Shape-Copy-6" fill="url(#linearGradient-3)" transform="translate(69.500000, 106.954297) rotate(-345.000000) translate(-69.500000, -106.954297) "></path>
    </g>
</svg>