<?xml version="1.0" encoding="UTF-8"?>
<svg width="105px" height="77px" viewBox="0 0 105 77" version="1.1" xmlns="http://www.w3.org/2000/svg" xmlns:xlink="http://www.w3.org/1999/xlink">
    <!-- Generator: Sketch 57.1 (83088) - https://sketch.com -->
    <title>giveaway-big</title>
    <desc>Created with Sketch.</desc>
    <defs>
        <linearGradient x1="50%" y1="0%" x2="50%" y2="100%" id="linearGradient-1">
            <stop stop-color="#72E6DC" offset="0%"></stop>
            <stop stop-color="#3EC8B7" offset="100%"></stop>
        </linearGradient>
        <linearGradient x1="50%" y1="0%" x2="50%" y2="100%" id="linearGradient-2">
            <stop stop-color="#74C8FF" offset="0%"></stop>
            <stop stop-color="#0099FF" offset="100%"></stop>
        </linearGradient>
        <linearGradient x1="50%" y1="0%" x2="50%" y2="100%" id="linearGradient-3">
            <stop stop-color="#74C8FF" offset="0%"></stop>
            <stop stop-color="#0099FF" offset="100%"></stop>
        </linearGradient>
        <linearGradient x1="50%" y1="0%" x2="50%" y2="100%" id="linearGradient-4">
            <stop stop-color="#F99A9B" offset="0%"></stop>
            <stop stop-color="#F16162" offset="100%"></stop>
        </linearGradient>
        <linearGradient x1="50%" y1="0%" x2="50%" y2="100%" id="linearGradient-5">
            <stop stop-color="#F99A9B" offset="0%"></stop>
            <stop stop-color="#F16162" offset="100%"></stop>
        </linearGradient>
        <linearGradient x1="50%" y1="0%" x2="50%" y2="100%" id="linearGradient-6">
            <stop stop-color="#F99A9B" offset="0%"></stop>
            <stop stop-color="#F16162" offset="100%"></stop>
        </linearGradient>
        <linearGradient x1="50%" y1="0%" x2="50%" y2="100%" id="linearGradient-7">
            <stop stop-color="#F99A9B" offset="0%"></stop>
            <stop stop-color="#F16162" offset="100%"></stop>
        </linearGradient>
        <linearGradient x1="50%" y1="0%" x2="50%" y2="100%" id="linearGradient-8">
            <stop stop-color="#00C9FF" offset="0%"></stop>
            <stop stop-color="#0099FF" offset="100%"></stop>
        </linearGradient>
    </defs>
    <g id="giveaway-big" stroke="none" stroke-width="1" fill="none" fill-rule="evenodd">
        <g id="Group-3" transform="translate(4.000000, 6.000000)">
            <path d="" id="Path-5" stroke="#979797" stroke-width="0.5"></path>
            <path d="" id="Path-7" stroke="#979797"></path>
            <path d="" id="Path-8" stroke="#979797"></path>
            <g id="Group-2" transform="translate(21.184520, 0.000000)" stroke="#073863">
                <path d="M2,10.8093069 L54.6310056,10.8093069 C55.7355751,10.8093069 56.6310056,11.7047374 56.6310056,12.8093069 L56.6310056,41.3404079 C56.6310056,43.5495469 54.8401446,45.3404079 52.6310056,45.3404079 L4,45.3404079 C1.790861,45.3404079 2.705415e-16,43.5495469 0,41.3404079 L0,12.8093069 C-1.3527075e-16,11.7047374 0.8954305,10.8093069 2,10.8093069 Z" id="Rectangle" fill="url(#linearGradient-1)"></path>
                <path d="M2,9.78574556 L54.6310056,9.78574556 C55.7355751,9.78574556 56.6310056,10.6811761 56.6310056,11.7857456 L56.6310056,14.953039 L56.6310056,14.953039 L0,14.953039 L0,11.7857456 C-1.3527075e-16,10.6811761 0.8954305,9.78574556 2,9.78574556 Z" id="Rectangle-Copy-4" fill="#3EC8B7"></path>
                <path d="M34.7465724,8.79744057 L45.2188779,8.79744057 C48.8227312,8.79744057 51.7004149,6.57780006 51.7004149,3.91237953 C51.7004149,2.07744539 49.6955654,0.531047127 47.1684077,0.531047127 C46.6693383,0.531047127 46.1738582,0.593066087 45.7016528,0.714474653 L34.6919431,3.54517696 C32.919491,4.00089148 31.755804,5.24622467 31.755804,6.60491005 C31.755804,7.78328704 33.0706174,8.79744057 34.7465724,8.79744057 Z" id="Rectangle-15" fill="url(#linearGradient-2)"></path>
                <path d="M21.8844332,8.79744057 C23.5603883,8.79744057 24.8752017,7.78328704 24.8752017,6.60491005 C24.8752017,5.24622467 23.7115147,4.00089148 21.9390625,3.54517696 L10.9293529,0.714474653 C10.4571474,0.593066087 9.96166738,0.531047127 9.46259791,0.531047127 C6.93544021,0.531047127 4.93059077,2.07744539 4.93059077,3.91237953 C4.93059077,6.57780006 7.80827444,8.79744057 11.4121277,8.79744057 L21.8844332,8.79744057 Z" id="Rectangle-15" fill="url(#linearGradient-2)"></path>
                <path d="M20.333487,3.67815934 C20.0573446,3.67815934 19.833487,3.90201697 19.833487,4.17815934 L19.833487,9.80930689 C19.833487,10.0854493 20.0573446,10.3093069 20.333487,10.3093069 L36.2169624,10.3093069 C36.4931048,10.3093069 36.7169624,10.0854493 36.7169624,9.80930689 L36.7169624,4.17815934 C36.7169624,3.90201697 36.4931048,3.67815934 36.2169624,3.67815934 L20.333487,3.67815934 Z" id="Rectangle-14" fill="url(#linearGradient-3)"></path>
            </g>
            <g id="Group" transform="translate(22.597794, 49.858769) rotate(25.000000) translate(-22.597794, -49.858769) translate(1.097794, 44.358769)" stroke="#073863">
                <path d="M0.725351339,4.35912747 L3.24546293,9.53146409 C3.48736657,10.0279528 4.08595187,10.2343348 4.58244061,9.99243121 C4.61591044,9.97612374 4.64844343,9.95795982 4.67988763,9.93802428 L10.1759769,6.45351812 C10.4743649,6.26434731 10.850428,6.24666098 11.1652507,6.40699707 C17.4636935,9.61473167 21.7263636,10.991357 23.9532611,10.5368731 C27.3823721,9.83703138 43.3987014,3.57875486 42.6591281,0.882405987 C42.1693926,-0.903080318 37.2640508,0.0210376231 27.9431028,3.65475981 C27.8176266,3.70365868 27.683569,3.72672567 27.5489657,3.72256203" id="Path-6" fill="url(#linearGradient-4)"></path>
                <path d="M0.903005356,5.60516643 C8.64393771,2.53619298 16.7595472,1.71412963 25.2498337,3.13897638 C26.7683404,3.92791636 25.3720396,5.00737953 21.0609314,6.37736588" id="Path-9" fill="url(#linearGradient-5)"></path>
            </g>
            <g id="Group" transform="translate(75.765905, 50.749226) scale(-1, 1) rotate(25.000000) translate(-75.765905, -50.749226) translate(55.265905, 45.249226)" stroke="#073863">
                <path d="M0.725351339,4.23003544 L3.07747203,9.05758356 C3.31937567,9.5540723 3.91796096,9.76045431 4.41444971,9.51855067 C4.44791954,9.50224321 4.48045253,9.48407928 4.51189672,9.46414375 L9.69669566,6.17699482 C9.99501138,5.98788727 10.3709603,5.97015894 10.6857387,6.13037279 C16.6885003,9.18561897 20.75192,10.4964922 22.875998,10.0629926 C26.1508897,9.39462521 41.4469079,3.41780556 40.7405959,0.842721061 C40.273035,-0.861920736 35.5911478,0.0195277438 26.6949342,3.4870665 C26.5694772,3.53596566 26.4354371,3.5590256 26.3008515,3.55486251" id="Path-6" fill="url(#linearGradient-6)"></path>
                <path d="M0.862394004,5.35308222 C8.25518919,2.4221314 16.0058109,1.63703915 24.1142592,2.99780548 C25.5644732,3.75126404 24.2309691,4.78217992 20.1137467,6.09055313" id="Path-9" fill="url(#linearGradient-7)"></path>
            </g>
            <g id="Combined-Shape-Copy-4" transform="translate(49.486294, 25.875802) rotate(-360.000000) translate(-49.486294, -25.875802) translate(38.486294, 14.875802)" fill="url(#linearGradient-8)" stroke="#073863">
                <path d="M13.8023682,18.192883 L13.9001564,18.1886899 C16.2953378,18.0859861 18.192883,16.1102967 18.192883,13.7041705 C18.192883,11.2984701 16.295598,9.32191529 13.8670817,9.21253469 L13.4352845,9.16563559 L13.416878,8.73637278 C13.3141742,6.34119138 11.3384848,4.44364619 8.93235863,4.44364619 C6.52665824,4.44364619 4.5501034,6.34093118 4.44364619,8.71545809 L4.44364619,17.692883 C4.44364619,17.9690253 4.66750382,18.192883 4.94364619,18.192883 L13.8023682,18.192883 Z" id="Combined-Shape-Copy-2" transform="translate(11.318265, 11.318265) rotate(-45.000000) translate(-11.318265, -11.318265) "></path>
            </g>
        </g>
    </g>
</svg>