<?xml version="1.0" encoding="UTF-8"?>
<svg width="64px" height="64px" viewBox="0 0 64 64" version="1.1" xmlns="http://www.w3.org/2000/svg" xmlns:xlink="http://www.w3.org/1999/xlink">
    <!-- Generator: Sketch 58 (84663) - https://sketch.com -->
    <title>influencers-activated</title>
    <desc>Created with Sketch.</desc>
    <defs>
        <linearGradient x1="50%" y1="0%" x2="50%" y2="100%" id="linearGradient-1">
            <stop stop-color="#00C9FF" offset="0%"></stop>
            <stop stop-color="#0099FF" offset="100%"></stop>
        </linearGradient>
        <linearGradient x1="50%" y1="0%" x2="50%" y2="100%" id="linearGradient-2">
            <stop stop-color="#00C9FF" offset="0%"></stop>
            <stop stop-color="#0099FF" offset="100%"></stop>
        </linearGradient>
        <linearGradient x1="50%" y1="0%" x2="50%" y2="100%" id="linearGradient-3">
            <stop stop-color="#72E6DC" offset="0%"></stop>
            <stop stop-color="#3EC8B7" offset="100%"></stop>
        </linearGradient>
    </defs>
    <g id="influencers-activated" stroke="none" stroke-width="1" fill="none" fill-rule="evenodd">
        <path d="M20.6196261,30.4987932 C20.4639409,30.4558803 20.3040882,30.4298531 20.142831,30.4211616 C18.9019914,30.3542821 17.8418756,31.3059649 17.7749962,32.5468046 L16.5548326,55.1849655 C16.5526589,55.2252943 16.5515715,55.2656742 16.5515715,55.3060615 C16.5515715,56.5487021 17.5589308,57.5560615 18.8015715,57.5560615 L38.6012247,57.5560615 C38.6415738,57.5560615 38.6819157,57.5549761 38.7222065,57.5528065 C39.9630496,57.4859901 40.9147862,56.4259227 40.8479697,55.1850796 L39.6289561,32.546864 C39.6202718,32.3855893 39.5942481,32.2257183 39.5513349,32.0700153 C39.2211622,30.8720412 37.9823545,30.1685492 36.7843804,30.498722 L29.9635901,32.3785949 C29.1375542,32.606258 28.2653184,32.6062459 27.4392888,32.3785597 L20.6196261,30.4987932 Z" id="Rectangle-18" stroke="#073863" stroke-width="1.5" fill="url(#linearGradient-1)"></path>
        <path d="M28.6675581,28.5780525 C33.9172904,28.5780525 37.8128132,21.2976671 37.8128132,15.9638292 C37.8128132,10.6299914 33.9172904,6.30606145 28.6675581,6.30606145 C23.4178258,6.30606145 19.5902751,10.6299914 19.5902751,15.9638292 C19.5902751,21.2976671 23.4178258,28.5780525 28.6675581,28.5780525 Z" id="Oval-5" stroke="#073863" stroke-width="1.5" fill="url(#linearGradient-2)"></path>
        <path d="M47.169838,38.1146793 C46.660102,37.6049432 45.8336565,37.6049432 45.3239097,38.1146901 L35.6435404,47.7944662 L31.4511397,43.6022322 C30.9365136,43.0876061 30.1021398,43.0876061 29.5875137,43.6022322 C29.0728876,44.1168583 29.0728876,44.9512321 29.5874923,45.4658368 L34.7060571,50.584445 L34.7028631,50.5816542 C35.2125992,51.0913902 36.0390446,51.0913902 36.5575815,50.5730671 L36.5580815,50.5727999 C36.5619727,50.5688981 36.5619727,50.5688981 36.5686897,50.5621051 L47.169838,39.9605968 C47.6795741,39.4508608 47.6795741,38.6244153 47.169838,38.1146793 Z" id="Combined-Shape" stroke="#073863" fill="url(#linearGradient-3)"></path>
    </g>
</svg>