<?xml version="1.0" encoding="UTF-8"?>
<svg width="105px" height="77px" viewBox="0 0 105 77" version="1.1" xmlns="http://www.w3.org/2000/svg" xmlns:xlink="http://www.w3.org/1999/xlink">
    <!-- Generator: Sketch 57.1 (83088) - https://sketch.com -->
    <title>missions-big</title>
    <desc>Created with Sketch.</desc>
    <defs>
        <linearGradient x1="50%" y1="0%" x2="50%" y2="100%" id="linearGradient-1">
            <stop stop-color="#36D6F3" offset="0%"></stop>
            <stop stop-color="#19ADE4" offset="100%"></stop>
        </linearGradient>
        <linearGradient x1="50%" y1="0%" x2="50%" y2="100%" id="linearGradient-2">
            <stop stop-color="#00C9FF" offset="0%"></stop>
            <stop stop-color="#0099FF" offset="100%"></stop>
        </linearGradient>
        <linearGradient x1="19.899803%" y1="26.7563346%" x2="50%" y2="82%" id="linearGradient-3">
            <stop stop-color="#F99A9B" offset="0%"></stop>
            <stop stop-color="#F16162" offset="100%"></stop>
        </linearGradient>
        <linearGradient x1="50%" y1="0%" x2="50%" y2="100%" id="linearGradient-4">
            <stop stop-color="#EEEEEE" offset="0%"></stop>
            <stop stop-color="#D8D8D8" offset="100%"></stop>
        </linearGradient>
        <linearGradient x1="50%" y1="0%" x2="50%" y2="100%" id="linearGradient-5">
            <stop stop-color="#EEEEEE" offset="0%"></stop>
            <stop stop-color="#D8D8D8" offset="100%"></stop>
        </linearGradient>
        <path d="M39.4704169,12.9442308 C41.9822805,12.9442308 44.0185484,14.8957046 44.0185484,17.3029695 C44.0185484,17.7535271 43.9472158,18.1881178 43.8147834,18.5969352 C45.3086646,19.1340756 46.3768388,20.5637317 46.3768388,22.2428733 C46.3768388,24.3826643 44.6421954,26.1173077 42.5024044,26.1173077 L33.5411011,26.1173077 C31.40131,26.1173077 29.6666667,24.3826643 29.6666667,22.2428733 C29.6666667,21.034692 30.219675,19.9556727 31.0863772,19.24513 C31.0831916,19.1789787 31.0816409,19.1128954 31.0816409,19.0464649 C31.0816409,16.6392 33.1179088,14.6877262 35.6297724,14.6877262 C35.6965095,14.6877262 35.7629109,14.6891038 35.8289473,14.6918308 C36.6575499,13.6310041 37.9802962,12.9442308 39.4704169,12.9442308 Z" id="path-6"></path>
    </defs>
    <g id="missions-big" stroke="none" stroke-width="1" fill="none" fill-rule="evenodd">
        <g id="Group" transform="translate(16.493590, 4.250000)" stroke="#073863">
            <path d="M19.3367349,31.7117415 L36.1610086,65.3602889 C36.4079978,65.8542674 36.2077735,66.4549404 35.713795,66.7019297 C35.5749396,66.7713574 35.4218265,66.8075025 35.2665814,66.8075025 L1.61803399,66.8075025 C1.06574924,66.8075025 0.618033989,66.3597873 0.618033989,65.8075025 C0.618033989,65.6522574 0.654179081,65.4991443 0.723606798,65.3602889 L17.5478805,31.7117415 C17.7948698,31.217763 18.3955428,31.0175387 18.8895213,31.2645279 C19.0830487,31.3612916 19.2399712,31.5182141 19.3367349,31.7117415 Z" id="Triangle" fill="url(#linearGradient-1)"></path>
            <path d="M44.7884615,15.9355178 L44.7884615,3.51282051" id="Line-3" stroke-width="0.75" stroke-linecap="round"></path>
            <path d="M45.6828887,14.1476389 L71.2892137,65.3602889 C71.536203,65.8542674 71.3359786,66.4549404 70.8420001,66.7019297 C70.7031447,66.7713574 70.5500316,66.8075025 70.3947865,66.8075025 L19.1821366,66.8075025 C18.6298518,66.8075025 18.1821366,66.3597873 18.1821366,65.8075025 C18.1821366,65.6522574 18.2182816,65.4991443 18.2877094,65.3602889 L43.8940343,14.1476389 C44.1410236,13.6536604 44.7416966,13.4534361 45.2356751,13.7004253 C45.4292025,13.797189 45.586125,13.9541115 45.6828887,14.1476389 Z" id="Triangle-Copy" fill="url(#linearGradient-2)"></path>
            <path d="M44.4957699,0.375 L44.4957699,6.65064103 L52.2678199,6.65064103 L50.7040484,3.81460506 C50.6004652,3.6267479 50.6004652,3.39889312 50.7040484,3.21103596 L52.2678199,0.375 L44.4957699,0.375 Z" id="Rectangle" stroke-width="0.75" fill="url(#linearGradient-3)"></path>
        </g>
        <path d="M47.7651778,10.3608491 C50.1724427,10.3608491 52.1239165,12.3123229 52.1239165,14.7195878 C52.1239165,15.1834878 52.0514456,15.6304613 51.9172076,16.0498045 C53.3607738,16.6116078 54.3840032,18.0160557 54.3840032,19.6594916 C54.3840032,21.7992827 52.6493598,23.533926 50.5095688,23.533926 L42.2441088,23.533926 C40.1043178,23.533926 38.3696744,21.7992827 38.3696744,19.6594916 C38.3696744,18.4778303 38.8986718,17.4197228 39.7327678,16.7090683 C39.7280273,16.6278632 39.7257264,16.545742 39.7257264,16.4630833 C39.7257264,14.0558184 41.6772002,12.1043446 44.0844651,12.1043446 C44.1485559,12.1043446 44.2123237,12.1057278 44.2757401,12.1084662 C45.0694582,11.0476147 46.3371166,10.3608491 47.7651778,10.3608491 Z" id="Combined-Shape" stroke="#073863" stroke-width="0.7" fill="url(#linearGradient-4)"></path>
        <g id="Combined-Shape">
            <use stroke="#073863" stroke-width="1.25" fill="url(#linearGradient-5)" fill-rule="evenodd" xlink:href="#path-6"></use>
            <path stroke="#FFFFFF" stroke-width="0.7" d="M44.2372186,18.3904004 C45.7320742,19.0629804 46.7268388,20.5586054 46.7268388,22.2428733 C46.7268388,24.575964 44.8354951,26.4673077 42.5024044,26.4673077 L33.5411011,26.4673077 C31.2080104,26.4673077 29.3166667,24.575964 29.3166667,22.2428733 C29.3166667,21.0200436 29.8398469,19.8821779 30.731827,19.0878203 C30.7317029,19.0740591 30.7316409,19.060275 30.7316409,19.0464649 C30.7316409,16.4424916 32.9278611,14.3377262 35.6297724,14.3377262 C35.6417031,14.3377262 35.6536291,14.3377673 35.6655501,14.3378494 C36.5870296,13.2447707 37.9733451,12.5942308 39.4704169,12.5942308 C42.1723282,12.5942308 44.3685484,14.6989962 44.3685484,17.3029695 C44.3685484,17.6727476 44.324137,18.0370183 44.2372186,18.3904004 Z"></path>
        </g>
    </g>
</svg>