<?xml version="1.0" encoding="UTF-8"?>
<svg width="64px" height="64px" viewBox="0 0 64 64" version="1.1" xmlns="http://www.w3.org/2000/svg" xmlns:xlink="http://www.w3.org/1999/xlink">
    <!-- Generator: Sketch 56.3 (81716) - https://sketch.com -->
    <title>personalized-engagement</title>
    <desc>Created with Sketch.</desc>
    <defs>
        <linearGradient x1="50%" y1="0%" x2="50%" y2="117.005991%" id="linearGradient-1">
            <stop stop-color="#FD8C8D" offset="0%"></stop>
            <stop stop-color="#F16162" offset="100%"></stop>
        </linearGradient>
        <linearGradient x1="50%" y1="0%" x2="50%" y2="100%" id="linearGradient-2">
            <stop stop-color="#F99A9B" offset="0%"></stop>
            <stop stop-color="#F16162" offset="100%"></stop>
        </linearGradient>
        <linearGradient x1="10.2277075%" y1="11.5956347%" x2="59.6114475%" y2="88.4043653%" id="linearGradient-3">
            <stop stop-color="#7CF6E7" offset="0%"></stop>
            <stop stop-color="#3EC8B7" offset="100%"></stop>
        </linearGradient>
        <linearGradient x1="11.2183019%" y1="10.0762264%" x2="59.5254222%" y2="91.4474812%" id="linearGradient-4">
            <stop stop-color="#5ACEF9" offset="0%"></stop>
            <stop stop-color="#19ADE4" offset="100%"></stop>
        </linearGradient>
        <linearGradient x1="10.5678984%" y1="12.1247489%" x2="59.6114475%" y2="88.4043653%" id="linearGradient-5">
            <stop stop-color="#FF9B9C" offset="0%"></stop>
            <stop stop-color="#F16162" offset="100%"></stop>
        </linearGradient>
        <linearGradient x1="50%" y1="0%" x2="50%" y2="100%" id="linearGradient-6">
            <stop stop-color="#00C9FF" offset="0%"></stop>
            <stop stop-color="#0099FF" offset="100%"></stop>
        </linearGradient>
        <linearGradient x1="50%" y1="0%" x2="50%" y2="100%" id="linearGradient-7">
            <stop stop-color="#00C9FF" offset="0%"></stop>
            <stop stop-color="#0099FF" offset="100%"></stop>
        </linearGradient>
        <linearGradient x1="50%" y1="0.839826897%" x2="50%" y2="84.8516306%" id="linearGradient-8">
            <stop stop-color="#66BFFB" offset="0%"></stop>
            <stop stop-color="#0099FF" offset="100%"></stop>
        </linearGradient>
        <linearGradient x1="50%" y1="0%" x2="50%" y2="100%" id="linearGradient-9">
            <stop stop-color="#F99A9B" offset="0%"></stop>
            <stop stop-color="#F16162" offset="100%"></stop>
        </linearGradient>
    </defs>
    <g id="personalized-engagement" stroke="none" stroke-width="1" fill="none" fill-rule="evenodd">
        <g id="Group-2" transform="translate(1.500000, 1.500000)" stroke="#073863">
            <g id="Group" transform="translate(3.693038, 11.000000)">
                <path d="M34.0539272,10.1356598 C32.4596649,9.18443385 31.3918649,7.44247254 31.3918649,5.45111319 C31.3918649,2.44054647 33.8324114,9.76996262e-15 36.8429781,9.76996262e-15 L43.2192328,9.76996262e-15 C46.2297995,9.76996262e-15 48.670346,2.44054647 48.670346,5.45111319 C48.670346,8.46167982 46.2297995,10.9022263 43.2192328,10.9022263 L36.8429781,10.9022263 C36.6621033,10.9022263 36.4832861,10.8934169 36.3069321,10.8762037 C34.468812,12.7960465 31.5059028,14.8073083 34.0539272,10.1356598 Z" id="Path-2" fill="url(#linearGradient-1)" fill-rule="nonzero"></path>
                <path d="M12.7020409,15.7753922 L12.0652847,16.1101547 C11.7648873,16.268083 11.393341,16.1525889 11.2354128,15.8521916 C11.1725249,15.7325718 11.1508239,15.5955568 11.1736692,15.4623582 L11.2952789,14.7533197 C11.3509168,14.4289256 11.2433683,14.0979254 11.0076822,13.8681883 L10.4925356,13.3660444 C10.249509,13.1291521 10.2445363,12.7401009 10.4814286,12.4970743 C10.5757604,12.4002999 10.6993634,12.337321 10.8331024,12.3178876 L11.5450175,12.2144403 C11.8707277,12.1671118 12.1522933,11.9625424 12.2979553,11.667399 L12.6163334,11.0222944 C12.7665321,10.7179587 13.1350051,10.5930059 13.4393408,10.7432046 C13.560529,10.8030145 13.6586208,10.9011063 13.7184307,11.0222944 L14.0368089,11.667399 C14.1824709,11.9625424 14.4640365,12.1671118 14.7897466,12.2144403 L15.5016617,12.3178876 C15.8375162,12.3666901 16.0702178,12.6785162 16.0214153,13.0143707 C16.0019818,13.1481097 15.939003,13.2717127 15.8422285,13.3660444 L15.3270819,13.8681883 C15.0913958,14.0979254 14.9838473,14.4289256 15.0394853,14.7533197 L15.1610949,15.4623582 C15.2184657,15.7968556 14.9938102,16.1145275 14.6593128,16.1718983 C14.5261142,16.1947436 14.3890992,16.1730426 14.2694794,16.1101547 L13.6327232,15.7753922 C13.3413992,15.6222341 12.993365,15.6222341 12.7020409,15.7753922 Z" id="Star" fill="url(#linearGradient-2)" fill-rule="nonzero"></path>
                <path d="M22.9712468,5.47384528 L23.0328554,5.41929368 C23.0887103,5.37750388 23.1416937,5.33057738 23.1914092,5.27865558 C23.6906558,4.75725268 23.6906558,3.90327138 23.1914092,3.38186848 C22.7038874,2.87271088 21.9228259,2.87271088 21.4353041,3.38186848 C21.4322821,3.38503158 21.4322821,3.38503158 21.4292768,3.38820478 L20.7052953,3.39117418 L20.6903191,3.37557578 C20.202261,2.87251448 19.4255866,2.87502328 18.9402791,3.38186848 C18.4433042,3.90089878 18.4407829,4.75014678 18.9319623,5.26996968 L21.0492106,7.48118018 L22.9712468,5.47384528 Z" id="Combined-Shape-Copy-8" fill="url(#linearGradient-3)" fill-rule="nonzero" transform="translate(21.065698, 5.240590) rotate(-7.000000) translate(-21.065698, -5.240590) "></path>
                <path d="M42.0128762,6.4972906 L42.0769492,6.44055694 C42.1350383,6.39709555 42.1901411,6.34829199 42.2418451,6.29429332 C42.7610616,5.7520344 42.7610616,4.86389375 42.2418451,4.32163484 C41.7348226,3.79211083 40.9225185,3.79211083 40.4154959,4.32163484 C40.412353,4.32492446 40.412353,4.32492446 40.4092275,4.32822459 L39.6562868,4.33131277 L39.6407114,4.31509033 C39.133131,3.79190657 38.3253897,3.79451583 37.8206698,4.32163484 C37.303816,4.86142635 37.3011939,5.74464416 37.8120205,6.28526008 L40.0139587,8.5849189 L42.0128762,6.4972906 Z" id="Combined-Shape-Copy-9" fill="url(#linearGradient-4)" fill-rule="nonzero"></path>
                <path d="M41.9366543,25.7619411 L41.9982629,25.7073895 C42.0541179,25.6655997 42.1071013,25.6186732 42.1568168,25.5667514 C42.6560633,25.0453486 42.6560633,24.1913672 42.1568168,23.6699644 C41.669295,23.1608067 40.8882334,23.1608067 40.4007117,23.6699644 C40.3976896,23.6731275 40.3976896,23.6731275 40.3946844,23.6763007 L39.6707029,23.6792701 L39.6557266,23.6636716 C39.1676686,23.1606103 38.3909942,23.1631192 37.9056866,23.6699644 C37.4087118,24.1889947 37.4061905,25.0382426 37.8973699,25.5580656 L40.0146182,27.769276 L41.9366543,25.7619411 Z" id="Combined-Shape-Copy-10" fill="url(#linearGradient-5)" fill-rule="nonzero" transform="translate(40.031105, 25.528686) rotate(-30.000000) translate(-40.031105, -25.528686) "></path>
                <path d="M22.3421992,23.6809777 C22.1843494,23.6387068 22.0225583,23.6128398 21.8593975,23.603788 C20.5497351,23.5311307 19.4291435,24.5339215 19.3564863,25.8435839 L18.7309616,37.1187928 C18.7285311,37.1626033 18.7273151,37.2064727 18.7273151,37.2503505 C18.7273151,38.5620267 19.7906389,39.6253505 21.1023151,39.6253505 L31.277802,39.6253505 C31.3216384,39.6253505 31.3654664,39.6241368 31.4092357,39.6217109 C32.7189019,39.549122 33.7217512,38.4285829 33.6491624,37.1189167 L33.0242259,25.8436565 C33.0151815,25.6804752 32.9893178,25.5186633 32.947046,25.3607931 C32.6077791,24.0937522 31.3056093,23.3416428 30.0385684,23.6809097 L26.1900476,24.711402 L22.3421992,23.6809777 Z" id="Rectangle-18" stroke-width="1.25" fill="url(#linearGradient-6)"></path>
                <path d="M26.1707157,23.1074933 C29.1678585,23.1074933 31.3918649,18.9046829 31.3918649,15.8255727 C31.3918649,12.7464625 29.1678585,10.2503505 26.1707157,10.2503505 C23.1735728,10.2503505 20.9883726,12.7464625 20.9883726,15.8255727 C20.9883726,18.9046829 23.1735728,23.1074933 26.1707157,23.1074933 Z" id="Oval-5" stroke-width="1.25" fill="url(#linearGradient-7)"></path>
                <path d="M2.55967528,30.2458267 C1.02673066,29.3311864 1.08926326e-14,27.6562236 1.0658141e-14,25.7414549 C1.03036333e-14,22.8466793 2.34667931,20.5 5.24145495,20.5 L11.3724691,20.5 C14.2672447,20.5 16.6139241,22.8466793 16.6139241,25.7414549 C16.6139241,28.6362306 14.2672447,30.9829099 11.3724691,30.9829099 L5.24145495,30.9829099 C5.06753689,30.9829099 4.89559724,30.9744393 4.72602605,30.9578882 C2.95860303,32.8038908 0.109651764,34.7377965 2.55967528,30.2458267 Z" id="Path-2" fill="url(#linearGradient-8)" transform="translate(8.306962, 26.750000) scale(-1, 1) translate(-8.306962, -26.750000) "></path>
                <path d="M7.8416209,28.2094758 L7.20486468,28.5442383 C6.9044673,28.7021666 6.53292098,28.5866725 6.37499274,28.2862752 C6.31210488,28.1666553 6.29040384,28.0296404 6.31324919,27.8964418 L6.43485881,27.1874033 C6.49049675,26.8630092 6.38294826,26.532009 6.14726218,26.3022719 L5.63211557,25.800128 C5.38908899,25.5632357 5.38411623,25.1741845 5.6210086,24.9311579 C5.71534038,24.8343835 5.83894337,24.7714046 5.97268238,24.7519712 L6.68459748,24.6485239 C7.01030764,24.6011954 7.29187323,24.396626 7.43753524,24.1014825 L7.75591335,23.456378 C7.90611204,23.1520423 8.27458503,23.0270895 8.5789208,23.1772881 C8.70010891,23.237098 8.79820079,23.3351899 8.8580107,23.456378 L9.17638881,24.1014825 C9.32205082,24.396626 9.60361641,24.6011954 9.92932657,24.6485239 L10.6412417,24.7519712 C10.9770961,24.8007737 11.2097977,25.1125998 11.1609952,25.4484543 C11.1415618,25.5821933 11.0785829,25.7057963 10.9818085,25.800128 L10.4666619,26.3022719 C10.2309758,26.532009 10.1234273,26.8630092 10.1790652,27.1874033 L10.3006749,27.8964418 C10.3580457,28.2309392 10.1333902,28.5486111 9.79889277,28.6059819 C9.66569415,28.6288272 9.52867918,28.6071262 9.40905937,28.5442383 L8.77230315,28.2094758 C8.48097913,28.0563177 8.13294492,28.0563177 7.8416209,28.2094758 Z" id="Star" fill="url(#linearGradient-9)"></path>
            </g>
            <circle id="Oval-Copy-4" stroke-width="1.5" cx="30.5" cy="30.5" r="30.5"></circle>
        </g>
    </g>
</svg>