<?xml version="1.0" encoding="UTF-8"?>
<svg width="64px" height="64px" viewBox="0 0 64 64" version="1.1" xmlns="http://www.w3.org/2000/svg" xmlns:xlink="http://www.w3.org/1999/xlink">
    <!-- Generator: Sketch 56.3 (81716) - https://sketch.com -->
    <title>results</title>
    <desc>Created with Sketch.</desc>
    <defs>
        <linearGradient x1="50%" y1="0%" x2="50%" y2="100%" id="linearGradient-1">
            <stop stop-color="#00C9FF" offset="0%"></stop>
            <stop stop-color="#0099FF" offset="100%"></stop>
        </linearGradient>
        <linearGradient x1="50%" y1="0%" x2="50%" y2="100%" id="linearGradient-2">
            <stop stop-color="#00C9FF" offset="0%"></stop>
            <stop stop-color="#0099FF" offset="100%"></stop>
        </linearGradient>
        <linearGradient x1="10.2277075%" y1="11.5956347%" x2="59.6114475%" y2="88.4043653%" id="linearGradient-3">
            <stop stop-color="#7CF6E7" stop-opacity="0.994700612" offset="0%"></stop>
            <stop stop-color="#3EC8B7" offset="100%"></stop>
        </linearGradient>
        <linearGradient x1="11.2183019%" y1="10.0762264%" x2="59.5254222%" y2="91.4474812%" id="linearGradient-4">
            <stop stop-color="#5ACEF9" offset="0%"></stop>
            <stop stop-color="#19ADE4" offset="100%"></stop>
        </linearGradient>
        <linearGradient x1="11.2183019%" y1="10.0762264%" x2="59.5254222%" y2="91.4474812%" id="linearGradient-5">
            <stop stop-color="#F16162" offset="0%"></stop>
            <stop stop-color="#F16162" offset="100%"></stop>
        </linearGradient>
    </defs>
    <g id="results" stroke="none" stroke-width="1" fill="none" fill-rule="evenodd">
        <g id="Group" transform="translate(1.500000, 1.000000)" stroke="#073863">
            <g id="Proven" stroke-width="1.5">
                <circle id="Oval-Copy" cx="30.5" cy="31" r="30.5"></circle>
            </g>
            <path d="M25.4442784,33.1639386 C25.2861029,33.1215186 25.1239641,33.0955725 24.9604499,33.0865143 C23.6507816,33.0139624 22.5302709,34.0168434 22.4577191,35.3265117 L21.6641014,49.652491 C21.661678,49.696238 21.6604655,49.7400436 21.6604655,49.7838577 C21.6604655,51.0955339 22.7237893,52.1588577 24.0354655,52.1588577 L36.964366,52.1588577 C37.0081387,52.1588577 37.0519031,52.1576475 37.0956089,52.1552286 C38.405281,52.0827452 39.4082205,50.9622868 39.335737,49.6526147 L38.5428664,35.3265839 C38.5338156,35.1630495 38.5078727,35.0008899 38.4654519,34.842694 C38.1257235,33.5757768 36.8232798,32.8241419 35.5563626,33.1638703 L30.4999184,34.5197743 L25.4442784,33.1639386 Z" id="Rectangle-18" stroke-width="1.25" fill="url(#linearGradient-1)"></path>
            <path d="M30.477363,32.6184671 C33.9740297,32.6184671 36.5687038,27.769252 36.5687038,24.2165656 C36.5687038,20.6638791 33.9740297,17.7838577 30.477363,17.7838577 C26.9806964,17.7838577 24.4312962,20.6638791 24.4312962,24.2165656 C24.4312962,27.769252 26.9806964,32.6184671 30.477363,32.6184671 Z" id="Oval-5" stroke-width="1.5" fill="url(#linearGradient-2)"></path>
            <path d="M39.4801541,22.3973454 L39.5417627,22.3427938 C39.5956853,22.3024497 39.6468427,22.2571405 39.6948534,22.2069991 C40.1771177,21.7033323 40.1771177,20.8781066 39.6948534,20.3744398 C39.224314,19.8830181 38.4707862,19.8830181 38.0002468,20.3744398 C37.9973278,20.377495 37.9973278,20.377495 37.9944252,20.3805598 L37.2704437,20.3835292 L37.2558815,20.3683619 C36.7848299,19.8828298 36.0355351,19.8852502 35.5671329,20.3744398 C35.0870633,20.8758145 35.084627,21.6964679 35.5590225,22.1985288 L37.6147724,24.3455115 L39.4801541,22.3973454 Z" id="Combined-Shape-Copy-5" fill="url(#linearGradient-3)" transform="translate(37.630991, 22.178459) rotate(-7.000000) translate(-37.630991, -22.178459) "></path>
            <path d="M40.5238864,40.950103 L40.585495,40.8955514 C40.6394176,40.8552073 40.690575,40.8098981 40.7385857,40.7597567 C41.22085,40.2560899 41.22085,39.4308642 40.7385857,38.9271974 C40.2680463,38.4357757 39.5145185,38.4357757 39.0439791,38.9271974 C39.0410602,38.9302526 39.0410602,38.9302526 39.0381575,38.9333174 L38.314176,38.9362868 L38.2996138,38.9211195 C37.8285623,38.4355874 37.0792674,38.4380078 36.6108652,38.9271974 C36.1307957,39.4285721 36.1283593,40.2492255 36.6027549,40.7512864 L38.6585047,42.8982691 L40.5238864,40.950103 Z" id="Combined-Shape-Copy-6" fill="url(#linearGradient-4)" transform="translate(38.674724, 40.839934) rotate(-345.000000) translate(-38.674724, -40.839934) "></path>
            <path d="M23.0334171,45.626542 L23.0950257,45.5719904 C23.1489483,45.5316463 23.2001057,45.4863371 23.2481164,45.4361957 C23.7303807,44.9325289 23.7303807,44.1073032 23.2481164,43.6036364 C22.777577,43.1122147 22.0240492,43.1122147 21.5535098,43.6036364 C21.5505908,43.6066916 21.5505908,43.6066916 21.5476882,43.6097564 L20.8237067,43.6127258 L20.8091445,43.5975584 C20.3380929,43.1120264 19.5887981,43.1144468 19.1203959,43.6036364 C18.6403264,44.1050111 18.63789,44.9256645 19.1122855,45.4277254 L21.1680354,47.5747081 L23.0334171,45.626542 Z" id="Combined-Shape-Copy-7" fill="url(#linearGradient-5)" transform="translate(21.184254, 45.516373) rotate(-337.000000) translate(-21.184254, -45.516373) "></path>
            <path d="M52.8492139,36.2660463 L49.6631385,31.098665 L46.4770631,36.2660463 L47.9652652,36.2660463 L47.9652652,40.3399339 L51.3610117,40.3399339 L51.3610117,36.2660463 L52.8492139,36.2660463 Z" id="Combined-Shape" fill="#F16162"></path>
            <path d="M23.8651098,17.6045716 L20.6790344,12.4371904 L17.492959,17.6045716 L18.9811611,17.6045716 L18.9811611,21.6784592 L22.3769076,21.6784592 L22.3769076,17.6045716 L23.8651098,17.6045716 Z" id="Combined-Shape" fill="#5ACEF9"></path>
            <path d="M16.8383342,39.7097692 L13.6522588,34.5423879 L10.4661834,39.7097692 L11.9543856,39.7097692 L11.9543856,43.7836568 L15.350132,43.7836568 L15.350132,39.7097692 L15.850132,39.7097692 L16.8383342,39.7097692 Z" id="Combined-Shape" fill="#7CF6E7"></path>
        </g>
    </g>
</svg>