<?xml version="1.0" encoding="UTF-8"?>
<svg width="64px" height="64px" viewBox="0 0 64 64" version="1.1" xmlns="http://www.w3.org/2000/svg" xmlns:xlink="http://www.w3.org/1999/xlink">
    <!-- Generator: Sketch 55.2 (78181) - https://sketchapp.com -->
    <title>shop</title>
    <desc>Created with Sketch.</desc>
    <defs>
        <linearGradient x1="50%" y1="0%" x2="50%" y2="100%" id="linearGradient-1">
            <stop stop-color="#F99A9B" offset="0%"></stop>
            <stop stop-color="#F16162" offset="100%"></stop>
        </linearGradient>
        <linearGradient x1="50%" y1="0%" x2="50%" y2="100%" id="linearGradient-2">
            <stop stop-color="#F99A9B" offset="0%"></stop>
            <stop stop-color="#F16162" offset="100%"></stop>
        </linearGradient>
        <linearGradient x1="10.2277075%" y1="8.40761285%" x2="59.6114475%" y2="91.5923872%" id="linearGradient-3">
            <stop stop-color="#00C9FF" offset="0%"></stop>
            <stop stop-color="#0099FF" offset="100%"></stop>
        </linearGradient>
        <linearGradient x1="165.510783%" y1="11.8516761%" x2="-19.6698512%" y2="143.12275%" id="linearGradient-4">
            <stop stop-color="#8CF4E7" offset="0%"></stop>
            <stop stop-color="#3EC8B7" offset="100%"></stop>
        </linearGradient>
        <linearGradient x1="159.270082%" y1="11.8516761%" x2="-15.9057982%" y2="143.12275%" id="linearGradient-5">
            <stop stop-color="#8CF4E7" offset="0%"></stop>
            <stop stop-color="#3EC8B7" offset="100%"></stop>
        </linearGradient>
    </defs>
    <g id="shop" stroke="none" stroke-width="1" fill="none" fill-rule="evenodd">
        <g id="Group" transform="translate(12.500000, 17.000000)" stroke="#073863">
            <path d="M1.65850518,11.9744601 L35.734356,11.9744601 C36.2866408,11.9744601 36.734356,12.4221754 36.734356,12.9744601 C36.734356,13.0364064 36.7286,13.0982188 36.7171623,13.1591 L33.8003779,28.6846399 C33.7115512,29.1574487 33.298652,29.5 32.8175716,29.5 L5.35052839,29.5 C4.88736471,29.5 4.48481188,29.1819498 4.3776582,28.7313517 L0.685634987,13.2058118 C0.557862997,12.6685104 0.889852155,12.1293619 1.42715353,12.0015899 C1.50295058,11.9835651 1.58059442,11.9744601 1.65850518,11.9744601 Z" id="Rectangle" fill="url(#linearGradient-1)"></path>
            <path d="M1,7.04380007 L37.0365204,7.04380007 C37.5888051,7.04380007 38.0365204,7.49151532 38.0365204,8.04380007 L38.0365204,11.6788401 C38.0365204,12.2311249 37.5888051,12.6788401 37.0365204,12.6788401 L1,12.6788401 C0.44771525,12.6788401 -1.05905057e-14,12.2311249 -1.0658141e-14,11.6788401 L-1.0658141e-14,8.04380007 C-1.07257764e-14,7.49151532 0.44771525,7.04380007 1,7.04380007 Z" id="Rectangle-8" fill="url(#linearGradient-2)"></path>
            <path d="M21.3965923,22.0983906 L21.4582008,22.043839 C21.5495958,21.9754587 21.6361634,21.8987873 21.7172342,21.8141186 C22.5288278,20.966507 22.5288278,19.5836367 21.7172342,18.736025 C20.9173654,17.9006585 19.6298892,17.9006585 18.8300204,18.736025 C18.8251016,18.7411734 18.8251016,18.7411734 18.8202099,18.7463384 L18.4597774,19.1277476 L18.0962284,18.7493078 L18.0736359,18.7257812 C17.2727866,17.9003132 15.9925351,17.9044487 15.1962954,18.736025 C14.3883903,19.5797844 14.3843076,20.9549579 15.1841829,21.8014687 L18.0713967,24.8168151 C18.0789588,24.8245993 18.0789588,24.8245993 18.0867429,24.8321614 C18.2861968,25.0231398 18.6027048,25.016269 18.7936832,24.8168151 L21.3965923,22.0983906 Z" id="Combined-Shape-Copy" fill="url(#linearGradient-3)"></path>
            <path d="M17.3843279,0.601555195 C17.0950905,0.299481602 16.6331695,0.299481602 16.3439321,0.601555195 L7.64232335,9.6893358 C7.34429231,10.0005933 7.34429231,10.5117066 7.64232335,10.8229641 C7.93156077,11.1250377 8.39348174,11.1250377 8.68271916,10.8229641 L17.3843279,1.73518346 C17.6823589,1.42392599 17.6823589,0.912812666 17.3843279,0.601555195 Z" id="Rectangle-9" stroke-width="0.75" fill="url(#linearGradient-4)"></path>
            <path d="M30.6050001,10.9897906 C30.9079929,10.6842087 30.9165338,10.1731813 30.6235676,9.85634233 L22.0751482,0.611342199 C21.7907989,0.30382222 21.3289393,0.295402653 21.0349042,0.591950384 C20.7319114,0.897532342 20.7233705,1.40855972 21.0163366,1.72539869 L29.5647561,10.9703988 C29.8491054,11.2779188 30.310965,11.2863384 30.6050001,10.9897906 Z" id="Rectangle-9" stroke-width="0.75" fill="url(#linearGradient-5)"></path>
            <path d="M32.4014803,27.5757462 L33.0765066,23.9489202" id="Line" stroke-linecap="round"></path>
        </g>
        <circle id="Oval" stroke="#073863" stroke-width="1.5" cx="32" cy="32" r="30.5"></circle>
    </g>
</svg>