<?xml version="1.0" encoding="UTF-8"?>
<svg width="91px" height="91px" viewBox="0 0 91 91" version="1.1" xmlns="http://www.w3.org/2000/svg" xmlns:xlink="http://www.w3.org/1999/xlink">
    <!-- Generator: Sketch 57.1 (83088) - https://sketch.com -->
    <title>shoutout-angle copy</title>
    <desc>Created with Sketch.</desc>
    <defs>
        <linearGradient x1="31.0091024%" y1="6.47770746%" x2="70.5016847%" y2="96.984631%" id="linearGradient-1">
            <stop stop-color="#00C9FF" offset="0%"></stop>
            <stop stop-color="#0099FF" offset="100%"></stop>
        </linearGradient>
        <linearGradient x1="34.0730138%" y1="6.47770746%" x2="67.1940293%" y2="96.984631%" id="linearGradient-2">
            <stop stop-color="#00C9FF" offset="0%"></stop>
            <stop stop-color="#0099FF" offset="100%"></stop>
        </linearGradient>
        <linearGradient x1="31.6227348%" y1="6.47770746%" x2="69.8392358%" y2="96.984631%" id="linearGradient-3">
            <stop stop-color="#00C9FF" offset="0%"></stop>
            <stop stop-color="#0099FF" offset="100%"></stop>
        </linearGradient>
        <linearGradient x1="21.2009291%" y1="-7.26152999%" x2="73.630415%" y2="96.984631%" id="linearGradient-4">
            <stop stop-color="#F99A9B" offset="0%"></stop>
            <stop stop-color="#F16162" offset="100%"></stop>
        </linearGradient>
        <linearGradient x1="21.324541%" y1="-7.26152999%" x2="73.5289881%" y2="96.984631%" id="linearGradient-5">
            <stop stop-color="#F99A9B" offset="0%"></stop>
            <stop stop-color="#F16162" offset="100%"></stop>
        </linearGradient>
        <linearGradient x1="10.2277075%" y1="8.40761285%" x2="59.6114475%" y2="91.5923872%" id="linearGradient-6">
            <stop stop-color="#7CF6E7" offset="0%"></stop>
            <stop stop-color="#3EC8B7" offset="100%"></stop>
        </linearGradient>
        <linearGradient x1="11.2183019%" y1="10.0762264%" x2="59.5254222%" y2="91.4474812%" id="linearGradient-7">
            <stop stop-color="#5ACEF9" offset="0%"></stop>
            <stop stop-color="#19ADE4" offset="100%"></stop>
        </linearGradient>
        <linearGradient x1="10.5678984%" y1="8.98064985%" x2="59.6114475%" y2="91.5923872%" id="linearGradient-8">
            <stop stop-color="#FF9B9C" offset="0%"></stop>
            <stop stop-color="#F16162" offset="100%"></stop>
        </linearGradient>
    </defs>
    <g id="shoutout-angle-copy" stroke="none" stroke-width="1" fill="none" fill-rule="evenodd">
        <ellipse id="Oval" stroke="#073863" fill="#D8D8D8" transform="translate(61.725306, 41.006758) rotate(-20.000000) translate(-61.725306, -41.006758) " cx="61.7253062" cy="41.0067583" rx="5.41852694" ry="4.95277704"></ellipse>
        <path d="M26.1373933,41.053789 C26.0056943,41.1748592 25.9487124,41.3570659 25.9879668,41.5315988 L30.5533544,61.8302098 C30.6045889,62.0580082 30.8066625,62.2200187 31.0401511,62.2204938 L67.1747181,62.2940278 C67.2333856,62.2941472 67.2916162,62.2839406 67.3467457,62.2638751 C67.6062347,62.1694289 67.7400282,61.8825077 67.6455819,61.6230188 L51.8858378,18.3234776 C51.8632878,18.2615221 51.8287072,18.2046382 51.7840864,18.1561001 C51.5972001,17.9528069 51.2808971,17.9395065 51.0776039,18.1263928 L26.1373933,41.053789 Z" id="Rectangle" stroke="#073863" fill="url(#linearGradient-1)"></path>
        <path d="M7.72340444,47.3754487 C7.46391549,47.469895 7.33012195,47.7568162 7.4245682,48.0163051 L15.1215381,69.1635561 C15.2159844,69.4230451 15.5029055,69.5568386 15.7623945,69.4623924 L35.1383658,62.4101156 C35.3978547,62.3156693 35.5316483,62.0287481 35.437202,61.7692592 L27.7402321,40.6220082 C27.6457859,40.3625192 27.3588647,40.2287257 27.0993757,40.3231719 L7.72340444,47.3754487 Z" id="Rectangle" stroke="#073863" fill="url(#linearGradient-2)"></path>
        <path d="M5.4702312,52.2073944 C5.21074225,52.3018406 5.07694871,52.5887618 5.17139496,52.8482507 L10.2895925,66.9103829 C10.3840388,67.1698718 10.6709599,67.3036654 10.9304489,67.2092191 L14.3649028,65.9591801 C14.6243917,65.8647339 14.7581853,65.5778127 14.663739,65.3183238 L9.54554148,51.2561916 C9.45109522,50.9967027 9.16417405,50.8629091 8.90468509,50.9573554 L5.4702312,52.2073944 Z" id="Rectangle" stroke="#073863" fill="url(#linearGradient-3)"></path>
        <path d="M8.7959383,44.9791495 C7.58805109,45.4187845 6.96525961,46.7543652 7.4048946,47.9622524 L15.1412117,69.2176089 C15.5808467,70.4254961 16.9164273,71.0482876 18.1243145,70.6086526 C19.3322017,70.1690176 19.9549932,68.833437 19.5153582,67.6255498 L11.7790411,46.3701932 C11.3394061,45.162306 10.0038255,44.5395146 8.7959383,44.9791495 Z" id="Rectangle" stroke="#073863" fill="url(#linearGradient-4)"></path>
        <path d="M22.7584425,66.5708419 C22.7261252,66.5826044 22.6951077,66.5976698 22.6658827,66.6157989 C22.4312228,66.7613645 22.3589976,67.0695982 22.5045633,67.3042581 L30.1353707,79.6055429 C30.5096821,80.2089537 31.2558118,80.4672339 31.9230688,80.2243722 L35.2864694,79.0001945 C35.4010023,78.9585079 35.5100274,78.9030173 35.6111332,78.83495 C36.2983381,78.3723043 36.4803793,77.4401663 36.0177336,76.7529615 L28.1207527,65.0229401 C27.9924649,64.832384 27.7508402,64.7537577 27.5349778,64.8323252 L22.7584425,66.5708419 Z" id="Rectangle" stroke="#073863" fill="url(#linearGradient-5)"></path>
        <path d="M60.112981,17.2844477 L64.3991983,21.7608846 L68.4087957,17.5839155 C68.5313925,17.4916865 68.6475175,17.3885642 68.7562891,17.2749654 C69.8611901,16.1210296 69.8611901,14.2415096 68.7562891,13.0875738 C67.6631129,11.9458831 65.9000915,11.9458831 64.8069177,13.0875713 L64.8068756,13.0876153 L64.8068451,13.0876471 C64.740602,13.1660694 64.6200589,13.2454275 64.4465908,13.2528488 L64.2172606,13.26266 L64.0603286,13.095146 L64.0532754,13.0875738 C62.9600992,11.9458831 61.1970778,11.9458831 60.1039016,13.0875738 C59.0444531,14.19404 58.9961602,15.978283 59.9757661,17.1325442 L60.112981,17.2844477 Z" id="Combined-Shape-Copy-5" stroke="#073863" fill="url(#linearGradient-6)" transform="translate(64.430092, 17.107341) rotate(-27.000000) translate(-64.430092, -17.107341) "></path>
        <path d="M74.8444889,31.7292798 L79.1307062,36.2057167 L83.1403037,32.0287476 C83.2629005,31.9365185 83.3790254,31.8333962 83.487797,31.7197974 C84.592698,30.5658616 84.592698,28.6863417 83.487797,27.5324058 C82.3946208,26.3907152 80.6315994,26.3907152 79.5384256,27.5324033 L79.5383835,27.5324473 L79.538353,27.5324792 C79.47211,27.6109014 79.3515668,27.6902596 79.1780987,27.6976809 L78.9487685,27.7074921 L78.7918365,27.5399781 L78.7847833,27.5324058 C77.6916071,26.3907152 75.9285857,26.3907152 74.8354095,27.5324058 C73.775961,28.638872 73.7276681,30.4231151 74.707274,31.5773763 L74.8444889,31.7292798 Z" id="Combined-Shape-Copy-6" stroke="#073863" fill="url(#linearGradient-7)" transform="translate(79.161600, 31.552173) rotate(-365.000000) translate(-79.161600, -31.552173) "></path>
        <path d="M74.5701966,53.1535455 L78.8564139,57.6299824 L82.8660114,53.4530133 C82.9886082,53.3607843 83.1047331,53.257662 83.2135047,53.1440632 C84.3184057,51.9901274 84.3184057,50.1106074 83.2135047,48.9566716 C82.1203285,47.8149809 80.3573071,47.8149809 79.2641333,48.9566691 L79.2640912,48.9567131 L79.2640607,48.9567449 C79.1978177,49.0351672 79.0772745,49.1145253 78.9038064,49.1219467 L78.6744762,49.1317579 L78.5175442,48.9642439 L78.510491,48.9566716 C77.4173148,47.8149809 75.6542934,47.8149809 74.5611172,48.9566716 C73.5016687,50.0631378 73.4533758,51.8473808 74.4329817,53.001642 L74.5701966,53.1535455 Z" id="Combined-Shape-Copy-7" stroke="#073863" fill="url(#linearGradient-8)" transform="translate(78.887308, 52.976438) rotate(-50.000000) translate(-78.887308, -52.976438) "></path>
    </g>
</svg>