<svg xmlns="http://www.w3.org/2000/svg" width="35" height="35" viewBox="0 0 35 35">
  <g fill="none" fill-rule="evenodd" transform="translate(1 1)">
    <path fill="#80CCFF" d="M14.3574505,0 C12.6549011,0 11.0611429,0.767202614 10,2.05263994 C8.93885714,0.767202614 7.3450989,1.5542289e-16 5.64254945,1.5542289e-16 C2.53125275,0 0,2.51920867 0,5.61579889 C0,8.04055638 1.4527033,10.8451747 4.3178022,13.9517394 C6.52272527,16.342505 8.92127473,18.193512 9.60382418,18.7038721 L9.99986813,19 L10.3958681,18.7039159 C11.0785055,18.193512 13.4771429,16.3424612 15.682022,13.9518269 C18.5472527,10.8452622 20,8.04060013 20,5.61579889 C20,2.51920867 17.4687473,0 14.3574505,0 Z" transform="translate(6 8)"/>
    <circle cx="16.5" cy="16.5" r="16.5" stroke="#80CCFF" stroke-width=".5"/>
  </g>
</svg>
