<?xml version="1.0" encoding="UTF-8"?>
<svg width="64px" height="64px" viewBox="0 0 64 64" version="1.1" xmlns="http://www.w3.org/2000/svg" xmlns:xlink="http://www.w3.org/1999/xlink">
    <!-- Generator: Sketch 55.2 (78181) - https://sketchapp.com -->
    <title>experience</title>
    <desc>Created with Sketch.</desc>
    <defs>
        <linearGradient x1="50%" y1="17.0315215%" x2="50%" y2="100%" id="linearGradient-1">
            <stop stop-color="#F99A9B" offset="0%"></stop>
            <stop stop-color="#F16162" offset="100%"></stop>
        </linearGradient>
        <linearGradient x1="50%" y1="17.0315215%" x2="50%" y2="100%" id="linearGradient-2">
            <stop stop-color="#F99A9B" offset="0%"></stop>
            <stop stop-color="#F16162" offset="100%"></stop>
        </linearGradient>
        <linearGradient x1="10.2277075%" y1="10.1720233%" x2="59.6114475%" y2="89.8279767%" id="linearGradient-3">
            <stop stop-color="#00C9FF" offset="0%"></stop>
            <stop stop-color="#0099FF" offset="100%"></stop>
        </linearGradient>
        <linearGradient x1="50%" y1="0%" x2="50%" y2="100%" id="linearGradient-4">
            <stop stop-color="#72E6DC" offset="0%"></stop>
            <stop stop-color="#3EC8B7" offset="100%"></stop>
        </linearGradient>
        <linearGradient x1="50%" y1="0%" x2="50%" y2="100%" id="linearGradient-5">
            <stop stop-color="#72E6DC" offset="0%"></stop>
            <stop stop-color="#3EC8B7" offset="100%"></stop>
        </linearGradient>
        <linearGradient x1="50%" y1="0%" x2="50%" y2="100%" id="linearGradient-6">
            <stop stop-color="#83EEE5" offset="0%"></stop>
            <stop stop-color="#3EC8B7" offset="100%"></stop>
        </linearGradient>
        <linearGradient x1="10.2277075%" y1="11.5956347%" x2="59.6114475%" y2="88.4043653%" id="linearGradient-7">
            <stop stop-color="#7CF6E7" offset="0%"></stop>
            <stop stop-color="#3EC8B7" offset="100%"></stop>
        </linearGradient>
        <linearGradient x1="11.2183019%" y1="10.0762264%" x2="59.5254222%" y2="91.4474812%" id="linearGradient-8">
            <stop stop-color="#5ACEF9" offset="0%"></stop>
            <stop stop-color="#19ADE4" offset="100%"></stop>
        </linearGradient>
        <linearGradient x1="11.2183019%" y1="10.0762264%" x2="59.5254222%" y2="91.4474812%" id="linearGradient-9">
            <stop stop-color="#F16162" offset="0%"></stop>
            <stop stop-color="#F16162" offset="100%"></stop>
        </linearGradient>
    </defs>
    <g id="experience" stroke="none" stroke-width="1" fill="none" fill-rule="evenodd">
        <path d="M19.2640132,26.7204721 L41.1715669,26.7204721 C41.7238516,26.7204721 42.1715669,27.1681873 42.1715669,27.7204721 L42.1715669,44.5 C42.1715669,45.6045695 41.2761364,46.5 40.1715669,46.5 L19.2640132,46.5 C18.1594437,46.5 17.2640132,45.6045695 17.2640132,44.5 L17.2640132,28.7204721 C17.2640132,27.6159026 18.1594437,26.7204721 19.2640132,26.7204721 Z" id="Rectangle-12" stroke="#073863" fill="url(#linearGradient-1)"></path>
        <path d="M14.8879163,26.2749718 C14.6331154,26.3587561 14.4898147,26.6286653 14.5631543,26.8866664 L15.4098456,29.8652402 C15.4126963,29.8750157 15.4126963,29.8750157 15.4158113,29.8847103 C15.5020694,30.1470348 15.7846515,30.2897648 16.046976,30.2035066 L40.2001827,22.2613927 C40.4549836,22.1776084 40.5982843,21.9076993 40.5249447,21.6496981 L39.6782534,18.6711243 C39.6754028,18.6613488 39.6754028,18.6613488 39.6722877,18.6516542 C39.5860296,18.3893297 39.3034475,18.2465997 39.041123,18.3328579 L14.8879163,26.2749718 Z" id="Rectangle-13" stroke="#073863" fill="url(#linearGradient-2)"></path>
        <path d="M32.3926271,36.9001766 L32.4540153,36.8452189 C32.5364222,36.7828718 32.6145239,36.7129227 32.6877156,36.6356254 C33.4224352,35.8596933 33.4224352,34.5909441 32.6877156,33.8150119 C31.9676442,33.0545497 30.8120722,33.0545497 30.0920009,33.8150119 C30.0875572,33.8197152 30.0875572,33.8197152 30.0831378,33.8244338 L29.7208153,34.2121433 L29.3553265,33.8274171 L29.3346602,33.8056543 C28.6137477,33.0542464 27.464669,33.0579998 26.7478645,33.8150119 C26.0164849,34.5874167 26.0127807,35.8491141 26.7367174,36.623853 L29.3324321,39.3651688 C29.3418986,39.3749859 29.3418986,39.3749859 29.3517157,39.3844524 C29.5522302,39.5743169 29.868695,39.5656833 30.0585595,39.3651688 L32.3926271,36.9001766 Z" id="Combined-Shape-Copy" stroke="#073863" fill="url(#linearGradient-3)"></path>
        <path d="M28.2047376,21.1357416 L30.6661824,20.3832024 C31.2971755,20.1902885 31.6493725,19.4401828 31.4209461,18.6930335 C31.2779937,18.2254572 30.8409995,17.9644543 30.4630764,18.079997 C30.3924935,18.1015764 30.3259847,18.1357038 30.2657845,18.1814245 L27.9693636,19.9255026 C27.7288312,20.1081813 27.625524,20.4655884 27.7314777,20.8121474 C27.806857,21.0587018 28.0268839,21.1901169 28.2047376,21.1357416 Z" id="Rectangle-15" stroke="#073863" fill="url(#linearGradient-4)" transform="translate(29.590356, 19.600295) rotate(-1.000000) translate(-29.590356, -19.600295) "></path>
        <path d="M25.221121,22.1701395 C25.3989746,22.1157642 25.5078988,21.8837786 25.4325196,21.6372242 C25.3265659,21.2906652 25.0410608,21.05213 24.7394977,21.0351865 L21.8604025,20.8734225 C21.7849275,20.8691819 21.7107054,20.8780802 21.6401225,20.8996595 C21.2621994,21.0152022 21.0458658,21.4759474 21.1888182,21.9435237 C21.4172447,22.690673 22.128683,23.1155927 22.7596762,22.9226787 L25.221121,22.1701395 Z" id="Rectangle-15" stroke="#073863" fill="url(#linearGradient-5)" transform="translate(23.300565, 21.920921) rotate(-1.000000) translate(-23.300565, -21.920921) "></path>
        <path d="M25.1171191,20.5417908 C24.8530428,20.622527 24.7044163,20.9020528 24.7851526,21.166129 L25.0571461,22.0557798 C25.1378823,22.319856 25.4174081,22.4684825 25.6814843,22.3877463 L27.9722652,21.6873843 C28.2363414,21.6066481 28.3849679,21.3271223 28.3042317,21.0630461 L28.0322382,20.1733953 C27.951502,19.9093191 27.6719762,19.7606926 27.4078999,19.8414288 L25.1171191,20.5417908 Z" id="Rectangle-14" stroke="#073863" fill="url(#linearGradient-6)" transform="translate(26.544692, 21.114588) rotate(-1.000000) translate(-26.544692, -21.114588) "></path>
        <path d="M40.7064167,38.9520583 L40.7064167,42.8371245" id="Line-3" stroke="#073863" stroke-linecap="round"></path>
        <path d="M40.7064167,44.080084 L40.7064167,44.6685622" id="Line-3" stroke="#073863" stroke-linecap="round"></path>
        <circle id="Oval-Copy" stroke="#073863" stroke-width="1.5" cx="32" cy="32" r="30.5"></circle>
        <path d="M47.3886054,15.4881612 L47.450214,15.4336096 C47.5060689,15.3918199 47.5590523,15.3448934 47.6087678,15.2929715 C48.1080144,14.7715687 48.1080144,13.9175874 47.6087678,13.3961845 C47.121246,12.8870269 46.3401845,12.8870269 45.8526627,13.3961845 C45.8496407,13.3993476 45.8496407,13.3993476 45.8466354,13.4025208 L45.1226539,13.4054902 L45.1076776,13.3898918 C44.6196196,12.8868305 43.8429452,12.8893393 43.3576377,13.3961845 C42.8606628,13.9152148 42.8581415,14.7644628 43.3493209,15.2842857 L45.4665692,17.4954962 L47.3886054,15.4881612 Z" id="Combined-Shape-Copy-5" stroke="#073863" fill="url(#linearGradient-7)" transform="translate(45.483201, 15.254907) rotate(-7.000000) translate(-45.483201, -15.254907) "></path>
        <path d="M46.8097577,23.3876879 L46.8713663,23.3331363 C46.9272212,23.2913465 46.9802046,23.24442 47.0299201,23.1924982 C47.5291667,22.6710954 47.5291667,21.817114 47.0299201,21.2957112 C46.5423983,20.7865535 45.7613368,20.7865535 45.273815,21.2957112 C45.270793,21.2988743 45.270793,21.2988743 45.2677877,21.3020474 L44.5438062,21.3050168 L44.52883,21.2894184 C44.0407719,20.7863571 43.2640975,20.788866 42.77879,21.2957112 C42.2818151,21.8147415 42.2792938,22.6639894 42.7704732,23.1838123 L44.8877215,25.3950228 L46.8097577,23.3876879 Z" id="Combined-Shape-Copy-6" stroke="#073863" fill="url(#linearGradient-8)" transform="translate(44.904353, 23.265917) rotate(-345.000000) translate(-44.904353, -23.265917) "></path>
        <path d="M54.081658,19.8295795 L54.1432666,19.7750279 C54.1991215,19.7332381 54.2521049,19.6863117 54.3018204,19.6343898 C54.801067,19.112987 54.801067,18.2590056 54.3018204,17.7376028 C53.8142986,17.2284451 53.0332371,17.2284451 52.5457153,17.7376028 C52.5426932,17.7407659 52.5426932,17.7407659 52.539688,17.7439391 L51.8157065,17.7469085 L51.8007302,17.73131 C51.3126722,17.2282488 50.5359978,17.2307576 50.0506903,17.7376028 C49.5537154,18.2566331 49.5511941,19.1058811 50.0423735,19.625704 L52.1596218,21.8369144 L54.081658,19.8295795 Z" id="Combined-Shape-Copy-7" stroke="#073863" fill="url(#linearGradient-9)" transform="translate(52.176254, 19.707808) rotate(-337.000000) translate(-52.176254, -19.707808) "></path>
    </g>
</svg>