<svg xmlns="http://www.w3.org/2000/svg" width="206" height="414" viewBox="0 0 206 414">
  <g fill="none" fill-rule="evenodd" opacity=".9" transform="translate(-20)">
    <path fill="#FBD1A1" d="M121.723377,2.2243822 L222.666958,31.1694883 C252.949435,39.8528487 270.458978,71.4409008 261.775618,101.723377 L232.830512,202.666958 C224.147151,232.949435 192.559099,250.458978 162.276623,241.775618 L61.3330416,212.830512 C31.050565,204.147151 13.5410218,172.559099 22.2243822,142.276623 L51.1694883,41.3330416 C59.8528487,11.050565 91.4409008,-6.45897822 121.723377,2.2243822 Z"/>
    <path fill="#5E5E5E" d="M92.3182205,213.078931 L179.038512,186.565877 C209.865638,177.141079 242.496271,194.491094 251.921069,225.318221 L278.434123,312.038512 C287.858921,342.865638 270.508906,375.496271 239.681779,384.921069 L152.961488,411.434123 C122.134362,420.858921 89.5037294,403.508906 80.078931,372.681779 L53.5658773,285.961488 C44.1410789,255.134362 61.4910939,222.503729 92.3182205,213.078931 Z"/>
  </g>
</svg>
