<svg xmlns="http://www.w3.org/2000/svg" width="42" height="70" viewBox="0 0 42 70">
  <g fill="none" fill-rule="evenodd" transform="scale(1 -1) rotate(36 149.023 -60.675)">
    <path fill="#5E5E5E" d="M64.2262549,3.61848822 L71.6199096,18.3277905 C72.5862144,20.250205 71.8111343,22.5919748 69.8887197,23.5582796 C69.3458443,23.8311568 68.7466684,23.9732734 68.1390701,23.9732734 L53.4297537,23.9732734 C51.2781444,23.9732734 49.5339204,22.2290494 49.5339204,20.0774401 C49.5339204,19.4754249 49.6734381,18.8816003 49.9415239,18.3425713 L57.2571856,3.63326904 C58.2153272,1.70677288 60.5537881,0.921766402 62.4802842,1.87990799 C63.2350377,2.25528414 63.8476806,2.8653338 64.2262549,3.61848822 Z" transform="rotate(-7 60.785 12.722)"/>
    <rect width="64.476" height="64.476" x="8.748" y="15.823" fill="#FBD1A1" opacity=".9" rx="19.479" transform="rotate(-19 40.986 48.06)"/>
  </g>
</svg>
