<svg xmlns="http://www.w3.org/2000/svg" width="46" height="44" viewBox="0 0 46 44">
  <g fill="none" fill-rule="evenodd" opacity=".9" transform="scale(-1 1) rotate(-60 .627 66.57)">
    <path fill="#5E5E5E" d="M2.76806479,11.9939025 L8.57778702,10.2150649 C10.6430135,9.58272794 12.8290637,10.7467907 13.4604668,12.8150718 L15.2366772,18.6333872 C15.8680803,20.7016683 14.7057367,22.8909519 12.6405103,23.5232889 L6.83078803,25.3021264 C4.76556153,25.9344634 2.57951132,24.7704007 1.94810822,22.7021195 L0.171897883,16.8838042 C-0.45950522,14.815523 0.702838296,12.6262395 2.76806479,11.9939025 Z" transform="rotate(180 7.704 17.759)"/>
    <path fill="#FBD1A1" d="M35.6378025,6.0639575 L46.9180421,28.4692698 C49.0646916,32.7330402 47.348426,37.9297122 43.0846556,40.0763616 C41.8738663,40.6859489 40.5366728,41.0022055 39.1810914,40.9995846 L16.825593,40.9563618 C12.0519406,40.9471323 8.18961285,37.0698405 8.19884236,32.2961882 C8.20140443,30.9710487 8.50861837,29.6642408 9.09674163,28.4767594 L20.1720005,6.11466981 C22.2906423,1.83691358 27.4759475,0.0866055009 31.7537037,2.20524731 C33.4323298,3.03661944 34.79544,4.39081962 35.6378025,6.0639575 Z" transform="rotate(36 27.985 24.124)"/>
  </g>
</svg>
