<svg xmlns="http://www.w3.org/2000/svg" width="160" height="256" viewBox="0 0 160 256">
  <g fill="none" fill-rule="evenodd" transform="translate(-14 -32)">
    <g transform="rotate(-110 108.903 97.421)">
      <path fill="#FBD1A1" d="M133.720444,7.87920126 L149.762586,39.8720987 C151.761935,43.8594077 150.150375,48.7125532 146.163066,50.7119025 C145.040089,51.274995 143.801239,51.5683623 142.544995,51.5686844 L110.613647,51.5768704 C106.153151,51.5780139 102.536277,47.962994 102.535133,43.5024975 C102.534814,42.2555744 102.823217,41.0255114 103.377747,39.9086796 L119.266952,7.90759611 C121.250619,3.91246221 126.097395,2.28184635 130.092529,4.26551364 C131.661786,5.04468256 132.935115,6.31301762 133.720444,7.87920126 Z" transform="rotate(-7 126.578 27.499)"/>
      <path fill="#5E5E5E" d="M61.1481669,37.1985497 L118.046202,37.1614359 C140.34868,37.1468883 158.440205,55.2148263 158.454752,77.5173051 C158.454764,77.5348509 158.454764,77.5523968 158.454752,77.5699427 L158.417551,134.697843 C158.403041,156.979768 140.343607,175.039222 118.061682,175.053756 L61.1636468,175.09087 C38.8611681,175.105418 20.7696437,157.03748 20.7550961,134.735001 C20.7550846,134.717455 20.7550846,134.699909 20.755096,134.682363 L20.7922977,77.5544628 C20.8068076,55.2725376 38.8662417,37.2130839 61.1481669,37.1985497 Z" opacity=".9" transform="rotate(-19 89.605 106.126)"/>
    </g>
    <g opacity=".9" transform="scale(-1 1) rotate(-50 90.348 430.758)">
      <path fill="#5E5E5E" d="M10.0325521,68.5439423 L31.0892634,62.0532746 C38.574454,59.7459872 46.4975571,63.993449 48.7860096,71.5402461 L55.2236923,92.7702636 C57.5121447,100.317061 53.299356,108.305375 45.8141654,110.612662 L24.7574541,117.10333 C17.2722636,119.410617 9.34916044,115.163155 7.06070803,107.616358 L0.62302533,86.3863407 C-1.66542709,78.8395436 2.54736156,70.8512297 10.0325521,68.5439423 Z" transform="rotate(180 27.923 89.578)"/>
      <path fill="#FBD1A1" d="M131.120697,36.541692 L184.835725,142.950436 C190.765424,154.69709 186.049851,169.026605 174.303197,174.956304 C170.936803,176.655657 167.215114,177.531667 163.444168,177.512301 L57.6615337,176.969034 C44.503242,176.901457 33.8911209,166.179773 33.9586977,153.021481 C33.97721,149.416839 34.8133974,145.863385 36.4042821,142.628749 L88.471888,36.7632712 C94.2792124,24.9556384 108.558957,20.0914274 120.366589,25.8987518 C125.012449,28.1837157 128.787583,31.9198252 131.120697,36.541692 Z" transform="rotate(36 110.678 100.48)"/>
    </g>
  </g>
</svg>
