<svg xmlns="http://www.w3.org/2000/svg" width="63" height="54" viewBox="0 0 63 54">
  <g fill="none" fill-rule="evenodd" transform="rotate(40 41.608 26.89)">
    <path fill="#FBD1A1" d="M46.0768418,5.59033382 L51.4764217,16.3755091 C52.1830164,17.7868683 51.6116918,19.5038092 50.2003325,20.2104039 C49.8053195,20.4081665 49.3698386,20.5116648 48.9280875,20.5127712 L38.1318841,20.5398112 C36.553532,20.5437644 35.2708202,19.2674618 35.266867,17.6891097 C35.2657515,17.2437005 35.3687607,16.8041962 35.5676747,16.4056691 L40.9642982,5.59345378 C41.6691697,4.18123315 43.385412,3.60781343 44.7976327,4.31268498 C45.351063,4.58891468 45.7999369,5.03724108 46.0768418,5.59033382 Z" transform="rotate(-176 43.523 12.276)"/>
    <path fill="#5E5E5E" d="M21.3978079,12.6242411 L40.1761844,12.569397 C48.067936,12.5463483 54.4841493,18.9251924 54.507198,26.816944 C54.5072789,26.8446629 54.5072792,26.872382 54.5071989,26.9001009 L54.4517353,46.0325386 C54.4289518,53.8918355 48.0634838,60.2574414 40.2041874,60.2803953 L21.4258109,60.3352395 C13.5340593,60.3582881 7.11784596,53.9794441 7.0947973,46.0876924 C7.09471634,46.0599735 7.09471604,46.0322545 7.0947964,46.0045355 L7.15025996,26.8720979 C7.1730435,19.0128009 13.5385114,12.647195 21.3978079,12.6242411 Z" opacity=".9" transform="rotate(-19 30.801 36.452)"/>
  </g>
</svg>
