<svg xmlns="http://www.w3.org/2000/svg" width="36" height="84" viewBox="0 0 36 84">
  <g fill="none" fill-rule="evenodd" transform="translate(-42 -1)">
    <path fill="#FBD1A1" d="M62.7725057,3.90157028 L70.1110662,18.5686894 C71.07382,20.4928848 70.2944176,22.8332195 68.3702222,23.7959733 C67.8295883,24.0664745 67.2334216,24.2074489 66.6288922,24.2077422 L52.0150787,24.2148317 C49.8634697,24.2158755 48.1183997,22.4724979 48.1173559,20.3208888 C48.1170643,19.7198868 48.2558255,19.1269661 48.5227846,18.5885087 L55.7980376,3.91430005 C56.7537609,1.98660306 59.0912349,1.19866271 61.0189319,2.15438602 C61.7778595,2.53065096 62.3934729,3.14402127 62.7725057,3.90157028 Z" transform="rotate(-7 59.32 12.981)"/>
    <path fill="#5E5E5E" d="M29.1988423,17.4772443 L54.7603425,17.4456979 C65.518381,17.4324211 74.2502574,26.1427714 74.2635343,36.9008099 C74.263554,36.9168112 74.2635541,36.9328126 74.2635344,36.948814 L74.2318366,62.7141481 C74.2186246,73.4534446 65.5160211,82.156082 54.7767246,82.1693357 L29.2152243,82.2008821 C18.4571858,82.2141589 9.72530948,73.5038086 9.7120326,62.7457701 C9.71201285,62.7297688 9.71201282,62.7137674 9.71203251,62.697766 L9.74373027,36.9324319 C9.75694228,26.1931353 18.4595458,17.490498 29.1988423,17.4772443 Z" opacity=".9" transform="rotate(-19 41.988 49.823)"/>
  </g>
</svg>
