<svg xmlns="http://www.w3.org/2000/svg" width="241" height="292" viewBox="0 0 241 292">
  <g fill="none" fill-rule="evenodd" opacity=".9" transform="rotate(-3 -472.808 204.204)">
    <path fill="#5E5E5E" d="M37.2254529,65.9617202 L50.407792,92.9918351 C53.0707705,98.4522176 50.8030264,105.037503 45.3426439,107.700481 C43.8646044,108.421308 42.2437558,108.801575 40.599355,108.813304 L13.9962176,109.003063 C7.92123993,109.046395 2.96136962,104.15678 2.91803724,98.0818027 C2.90581536,96.3683578 3.29404916,94.6757509 4.05178956,93.1389126 L17.4725878,65.9190394 C20.1591383,60.4702158 26.754162,58.230951 32.2029856,60.9175014 C34.3899355,61.9957803 36.1566349,63.770131 37.2254529,65.9617202 Z" transform="rotate(-18 27.269 87.568)"/>
    <path fill="#FBD1A1" d="M84.5061765,8.8951625 C143.356798,-31.4410434 362.903279,76.1759677 356.908241,116.4538 C350.913202,156.731632 326.591813,323.898048 267.305311,330.147465 C208.018809,336.396881 68.2075855,282.578397 25.1224394,228.472872 C-17.9627067,174.367348 25.6555552,49.2313684 84.5061765,8.8951625 Z"/>
  </g>
</svg>
