<svg xmlns="http://www.w3.org/2000/svg" width="72" height="131" viewBox="0 0 72 131">
  <g fill="none" fill-rule="evenodd" transform="rotate(-50 54.802 86.597)">
    <path fill="#FBD1A1" d="M101.245977,6.29285529 L113.082365,29.949499 C114.635194,33.05304 113.378093,36.8277734 110.274552,38.380602 C109.402562,38.8168944 108.441003,39.0442724 107.465955,39.0447455 L83.8952883,39.0561802 C80.4249511,39.0578638 77.6103221,36.2459644 77.6086385,32.7756271 C77.6081683,31.806269 77.8319766,30.8499454 78.2625558,29.9814657 L89.9968348,6.31338718 C91.538324,3.20419849 95.3084434,1.93332695 98.4176321,3.47481617 C99.6417088,4.08169509 100.634634,5.07100205 101.245977,6.29285529 Z" transform="rotate(-7 95.678 20.938)"/>
    <path fill="#5E5E5E" d="M47.0949069,28.1891037 L88.3231331,28.1382225 C105.674808,28.1168082 119.75848,42.1657603 119.779894,59.5174353 C119.779926,59.5432439 119.779926,59.5690526 119.779894,59.5948612 L119.728769,101.151852 C119.707459,118.473298 105.671002,132.50981 88.3495558,132.531187 L47.1213296,132.582068 C29.7696546,132.603482 15.685983,118.55453 15.6645687,101.202855 C15.6645369,101.177046 15.6645368,101.151238 15.6645686,101.125429 L15.715694,59.5684386 C15.7370037,42.2469925 29.7734609,28.2104807 47.0949069,28.1891037 Z" opacity=".9" transform="rotate(-19 67.722 80.36)"/>
  </g>
</svg>
