<svg xmlns="http://www.w3.org/2000/svg" width="32" height="32" viewBox="0 0 32 32">
  <g fill="none" fill-rule="evenodd" transform="translate(1 1)">
    <circle cx="15" cy="15" r="15" stroke="#5E5E5E" stroke-width=".5"/>
    <path fill="#5E5E5E" d="M21.5,8 L9.5,8 C8.687,8 8,8.68530788 8,9.49630542 L8,17.7259852 C8,18.5369828 8.687,19.2222906 9.5,19.2222906 L16.6395,19.2222906 L19.06525,21.8839686 C19.1135,21.9368381 19.181,21.9655172 19.25,21.9655172 C19.28025,21.9655172 19.31075,21.9600308 19.34025,21.9488085 C19.4365,21.9116502 19.5,21.8191287 19.5,21.716133 L19.5,19.2222906 L21.5,19.2222906 C22.313,19.2222906 23,18.5369828 23,17.7259852 L23,9.49630542 C23,8.68530788 22.313,8 21.5,8 Z"/>
  </g>
</svg>
