<svg xmlns="http://www.w3.org/2000/svg" width="32" height="32" viewBox="0 0 32 32">
  <g fill="none" fill-rule="evenodd" transform="translate(1 1)">
    <circle cx="15" cy="15" r="15" stroke="#FBD1A1" stroke-width=".5"/>
    <path fill="#FBD1A1" d="M11.6071686,21.4637689 C10.8146391,20.5770745 10.0221433,19.6549349 9.51779102,18.5554364 C9.01347248,17.3850144 8.86936699,16.0372667 9.12154315,14.7604427 C9.37371931,13.4836187 9.95007371,12.2777182 10.778638,11.2491766 C10.7066022,12.135871 11.0308142,13.0580106 11.6432034,13.7319011 C11.2829566,12.029469 11.8593447,10.1851566 13.0120873,8.83740892 C14.1648299,7.4896613 15.7498889,6.6029336 17.40695,6 C16.5784195,6.85121603 16.4703488,8.19896365 16.7945608,9.33394052 C17.1187728,10.4688841 17.8032317,11.4619806 18.4156209,12.4905222 C19.0280101,13.5190638 19.6043983,14.5830839 19.6404331,15.7535059 C19.9646451,15.1505723 20.3248919,14.5476054 20.5410333,13.8737483 C20.7571746,13.1998578 20.8652453,12.4905222 20.6851388,11.8166318 C21.3335628,12.5969242 21.6938096,13.3771834 21.8739161,14.3702798 C22.0540227,15.3633763 22.0180216,16.3919179 21.909951,17.3850144 C21.7658455,18.4845128 21.4776683,19.6194564 20.8652791,20.541596 C20.1448192,21.6410945 18.9920428,22.4213537 17.7312296,22.8469617 C15.4977128,23.2371245 13.3002645,22.9179185 11.6071686,21.4637689 Z"/>
    <path fill="#FBD1A1" d="M14.3482428,22.7735599 C17.2626647,23.9276586 20.1415667,20.429354 18.5421767,17.724488 C18.5421767,17.6884118 18.5066236,17.6884118 18.5066236,17.6523695 C18.6488027,19.1310183 18.2933716,20.2129647 17.6180624,20.8260902 C17.9734936,19.9605331 17.7246884,18.9507052 17.2981844,18.085148 C16.8716804,17.2556671 16.2674775,16.4983046 15.8054204,15.704866 C15.3433633,14.875385 14.9879655,13.9376756 15.2012175,13 C14.3482095,13.6491678 13.7440066,14.6229196 13.4952015,15.6687898 C13.2463964,16.7146601 13.3885755,17.8687588 13.8506326,18.8425105 C13.3175026,18.4458081 12.9265517,17.7966403 12.8909986,17.1113963 C12.3223155,17.7966403 11.9669177,18.6982397 12.0024375,19.599873 C12.0024708,21.0064033 13.1042506,22.2686628 14.3482428,22.7735599 Z"/>
  </g>
</svg>
