<?xml version="1.0" encoding="UTF-8"?>
<svg width="235px" height="295px" viewBox="0 0 235 295" version="1.1" xmlns="http://www.w3.org/2000/svg" xmlns:xlink="http://www.w3.org/1999/xlink">
    <!-- Generator: Sketch 55.2 (78181) - https://sketchapp.com -->
    <title>engaging-card</title>
    <desc>Created with Sketch.</desc>
    <defs>
        <rect id="path-1" x="4.5" y="4.5" width="226" height="286" rx="7"></rect>
        <filter x="-3.5%" y="-2.4%" width="107.1%" height="105.6%" filterUnits="objectBoundingBox" id="filter-2">
            <feOffset dx="0" dy="1" in="SourceAlpha" result="shadowOffsetOuter1"></feOffset>
            <feGaussianBlur stdDeviation="2.5" in="shadowOffsetOuter1" result="shadowBlurOuter1"></feGaussianBlur>
            <feColorMatrix values="0 0 0 0 0   0 0 0 0 0   0 0 0 0 0  0 0 0 0.21 0" type="matrix" in="shadowBlurOuter1"></feColorMatrix>
        </filter>
        <linearGradient x1="50%" y1="0%" x2="50%" y2="117.005991%" id="linearGradient-3">
            <stop stop-color="#FD8C8D" offset="0%"></stop>
            <stop stop-color="#F16162" offset="100%"></stop>
        </linearGradient>
        <linearGradient x1="50%" y1="0.839826897%" x2="50%" y2="84.8516306%" id="linearGradient-4">
            <stop stop-color="#66BFFB" offset="0%"></stop>
            <stop stop-color="#0099FF" offset="100%"></stop>
        </linearGradient>
        <linearGradient x1="10.2277075%" y1="11.5956347%" x2="59.6114475%" y2="88.4043653%" id="linearGradient-5">
            <stop stop-color="#7CF6E7" offset="0%"></stop>
            <stop stop-color="#3EC8B7" offset="100%"></stop>
        </linearGradient>
        <linearGradient x1="50%" y1="0%" x2="50%" y2="100%" id="linearGradient-6">
            <stop stop-color="#F99A9B" offset="0%"></stop>
            <stop stop-color="#F16162" offset="100%"></stop>
        </linearGradient>
        <linearGradient x1="11.2183019%" y1="10.0762264%" x2="59.5254222%" y2="91.4474812%" id="linearGradient-7">
            <stop stop-color="#5ACEF9" offset="0%"></stop>
            <stop stop-color="#19ADE4" offset="100%"></stop>
        </linearGradient>
        <linearGradient x1="10.5678984%" y1="12.1247489%" x2="59.6114475%" y2="88.4043653%" id="linearGradient-8">
            <stop stop-color="#FF9B9C" offset="0%"></stop>
            <stop stop-color="#F16162" offset="100%"></stop>
        </linearGradient>
    </defs>
    <g id="engaging-card" stroke="none" stroke-width="1" fill="none" fill-rule="evenodd">
        <g id="Rectangle-Copy">
            <use fill="black" fill-opacity="1" filter="url(#filter-2)" xlink:href="#path-1"></use>
            <use fill="#FFFFFF" fill-rule="evenodd" xlink:href="#path-1"></use>
        </g>
        <g id="Engaging" transform="translate(86.500000, 38.500000)" stroke="#073863">
            <path d="M19.2558307,43.9173679 C17.7228861,43.0027276 16.6961554,41.3277648 16.6961554,39.4129962 C16.6961554,36.5182205 19.0428347,34.1715412 21.9376104,34.1715412 L28.0686245,34.1715412 C30.9634002,34.1715412 33.3100795,36.5182205 33.3100795,39.4129962 C33.3100795,42.3077718 30.9634002,44.6544511 28.0686245,44.6544511 L21.9376104,44.6544511 C21.7636923,44.6544511 21.5917527,44.6459805 21.4221815,44.6294294 C19.6547584,46.4754321 16.8058072,48.4093377 19.2558307,43.9173679 Z" id="Path-2" fill="url(#linearGradient-3)" fill-rule="nonzero"></path>
            <path d="M27.5627918,28.4173679 C26.0298472,27.5027276 25.0031165,25.8277648 25.0031165,23.9129962 C25.0031165,21.0182205 27.3497959,18.6715412 30.2445715,18.6715412 L36.3755856,18.6715412 C39.2703613,18.6715412 41.6170406,21.0182205 41.6170406,23.9129962 C41.6170406,26.8077718 39.2703613,29.1544511 36.3755856,29.1544511 L30.2445715,29.1544511 C30.0706534,29.1544511 29.8987138,29.1459805 29.7291426,29.1294294 C27.9617196,30.9754321 25.1127683,32.9093377 27.5627918,28.4173679 Z" id="Path-2" fill="url(#linearGradient-4)" fill-rule="nonzero" transform="translate(33.310079, 24.921541) scale(-1, 1) translate(-33.310079, -24.921541) "></path>
            <path d="M26.9085218,39.9757025 L26.9701304,39.9211509 C27.0259853,39.8793611 27.0789687,39.8324346 27.1286842,39.7805128 C27.6279308,39.2591099 27.6279308,38.4051286 27.1286842,37.8837257 C26.6411625,37.3745681 25.8601009,37.3745681 25.3725792,37.8837257 C25.3695571,37.8868889 25.3695571,37.8868889 25.3665519,37.890062 L24.6425704,37.8930314 L24.6275941,37.877433 C24.139536,37.3743717 23.3628617,37.3768805 22.8775541,37.8837257 C22.3805793,38.402756 22.378058,39.252004 22.8692374,39.7718269 L24.9864857,41.9830374 L26.9085218,39.9757025 Z" id="Combined-Shape-Copy-8" fill="url(#linearGradient-5)" fill-rule="nonzero"></path>
            <circle id="Oval-Copy-4" stroke-width="1.5" cx="31" cy="31" r="30.5"></circle>
            <path d="M32.8447383,26.381017 L32.2079821,26.7157795 C31.9075847,26.8737078 31.5360384,26.7582137 31.3781102,26.4578164 C31.3152223,26.3381966 31.2935213,26.2011816 31.3163666,26.067983 L31.4379763,25.3589445 C31.4936142,25.0345504 31.3860657,24.7035502 31.1503796,24.4738131 L30.635233,23.9716692 C30.3922064,23.7347769 30.3872337,23.3457257 30.624126,23.1026991 C30.7184578,23.0059247 30.8420608,22.9429458 30.9757998,22.9235124 L31.6877149,22.8200651 C32.0134251,22.7727366 32.2949907,22.5681672 32.4406527,22.2730238 L32.7590308,21.6279192 C32.9092295,21.3235835 33.2777025,21.1986307 33.5820382,21.3488294 C33.7032264,21.4086393 33.8013182,21.5067311 33.8611281,21.6279192 L34.1795063,22.2730238 C34.3251683,22.5681672 34.6067339,22.7727366 34.932444,22.8200651 L35.6443591,22.9235124 C35.9802136,22.9723149 36.2129152,23.284141 36.1641127,23.6199955 C36.1446792,23.7537345 36.0817004,23.8773375 35.9849259,23.9716692 L35.4697793,24.4738131 C35.2340932,24.7035502 35.1265447,25.0345504 35.1821827,25.3589445 L35.3037923,26.067983 C35.3611631,26.4024804 35.1365076,26.7201523 34.8020102,26.7775231 C34.6688116,26.8003684 34.5317966,26.7786674 34.4121768,26.7157795 L33.7754206,26.381017 C33.4840966,26.2278589 33.1360624,26.2278589 32.8447383,26.381017 Z" id="Star" fill="url(#linearGradient-6)" fill-rule="nonzero"></path>
            <path d="M38.1091311,12.819043 L38.1707397,12.7644914 C38.2265946,12.7227016 38.279578,12.6757751 38.3292935,12.6238533 C38.8285401,12.1024504 38.8285401,11.2484691 38.3292935,10.7270662 C37.8417717,10.2179086 37.0607102,10.2179086 36.5731884,10.7270662 C36.5701664,10.7302293 36.5701664,10.7302293 36.5671611,10.7334025 L35.8431796,10.7363719 L35.8282034,10.7207735 C35.3401453,10.2177122 34.5634709,10.220221 34.0781634,10.7270662 C33.5811885,11.2460965 33.5786672,12.0953445 34.0698466,12.6151674 L36.1870949,14.8263779 L38.1091311,12.819043 Z" id="Combined-Shape-Copy-8" fill="url(#linearGradient-5)" fill-rule="nonzero" transform="translate(36.203582, 12.585788) rotate(-7.000000) translate(-36.203582, -12.585788) "></path>
            <path d="M45.7109132,40.6587392 L45.7725218,40.6041876 C45.8283767,40.5623978 45.8813602,40.5154713 45.9310756,40.4635495 C46.4303222,39.9421467 46.4303222,39.0881653 45.9310756,38.5667625 C45.4435539,38.0576048 44.6624923,38.0576048 44.1749706,38.5667625 C44.1719485,38.5699256 44.1719485,38.5699256 44.1689433,38.5730988 L43.4449618,38.5760682 L43.4299855,38.5604697 C42.9419274,38.0574084 42.1652531,38.0599173 41.6799455,38.5667625 C41.1829707,39.0857928 41.1804494,39.9350407 41.6716288,40.4548637 L43.7888771,42.6660741 L45.7109132,40.6587392 Z" id="Combined-Shape-Copy-9" fill="url(#linearGradient-7)" fill-rule="nonzero" transform="translate(43.805364, 40.425484) rotate(15.000000) translate(-43.805364, -40.425484) "></path>
            <path d="M17.3737964,24.2814482 L17.435405,24.2268966 C17.49126,24.1851068 17.5442434,24.1381803 17.5939589,24.0862585 C18.0932054,23.5648557 18.0932054,22.7108743 17.5939589,22.1894715 C17.1064371,21.6803138 16.3253755,21.6803138 15.8378538,22.1894715 C15.8348317,22.1926346 15.8348317,22.1926346 15.8318265,22.1958078 L15.107845,22.1987772 L15.0928687,22.1831787 C14.6048107,21.6801174 13.8281363,21.6826263 13.3428287,22.1894715 C12.8458539,22.7085018 12.8433326,23.5577497 13.334512,24.0775727 L15.4517603,26.2887831 L17.3737964,24.2814482 Z" id="Combined-Shape-Copy-10" fill="url(#linearGradient-8)" fill-rule="nonzero" transform="translate(15.468248, 24.048193) rotate(-30.000000) translate(-15.468248, -24.048193) "></path>
        </g>
        <path d="M40.6485,170 L40.6485,160.032 L46.9485,160.032 L46.9485,160.984 L41.7825,160.984 L41.7825,164.456 L46.6685,164.456 L46.6685,165.422 L41.7825,165.422 L41.7825,169.048 L46.9485,169.048 L46.9485,170 L40.6485,170 Z M49.2115,170 L49.2115,159.696 L50.3455,159.696 L50.3455,170 L49.2115,170 Z M53.0145,170 L53.0145,162.958 L54.1485,162.958 L54.1485,170 L53.0145,170 Z M52.9025,159.976 L54.2885,159.976 L54.2885,161.264 L52.9025,161.264 L52.9025,159.976 Z M58.3295,163.854 L58.3295,167.704 C58.3295,168.226669 58.4368323,168.592999 58.6515,168.803 C58.8661677,169.013001 59.169498,169.118 59.5615,169.118 C59.8228346,169.118 60.0748321,169.076 60.3175,168.992 L60.3175,169.958 C60.0281652,170.051334 59.7015018,170.098 59.3375,170.098 C58.6654966,170.098 58.1405019,169.909002 57.7625,169.531 C57.3844981,169.152998 57.1955,168.595337 57.1955,167.858 L57.1955,163.854 L55.8235,163.854 L55.8235,162.958 L57.1955,162.958 L57.1955,161.152 L58.3295,160.746 L58.3295,162.958 L60.3455,162.958 L60.3455,163.854 L58.3295,163.854 Z M68.0825,166.444 L62.9165,166.444 C62.9258334,167.340004 63.133498,168.016664 63.5395,168.474 C63.945502,168.931336 64.5358295,169.16 65.3105,169.16 C66.1318374,169.16 66.8878299,168.884669 67.5785,168.334 L67.9565,169.16 C67.6484985,169.449335 67.2541691,169.677999 66.7735,169.846 C66.2928309,170.014001 65.8005025,170.098 65.2965,170.098 C64.1951612,170.098 63.3318365,169.77367 62.7065,169.125 C62.0811635,168.47633 61.7685,167.587339 61.7685,166.458 C61.7685,165.73933 61.9084986,165.102336 62.1885,164.547 C62.4685014,163.991664 62.8604975,163.560002 63.3645,163.252 C63.8685025,162.943998 64.4424968,162.79 65.0865,162.79 C66.019838,162.79 66.7524973,163.095664 67.2845,163.707 C67.8165027,164.318336 68.0825,165.160661 68.0825,166.234 L68.0825,166.444 Z M65.1005,163.672 C64.5124971,163.672 64.0341685,163.849332 63.6655,164.204 C63.2968315,164.558668 63.0611672,165.057997 62.9585,165.702 L67.0605,165.702 C67.0044997,165.03933 66.810835,164.535335 66.4795,164.19 C66.148165,163.844665 65.6885029,163.672 65.1005,163.672 Z M74.5405,170 L74.5405,160.032 L75.6885,160.032 L75.6885,170 L74.5405,170 Z M81.9975,162.79 C83.6868418,162.79 84.5315,163.718657 84.5315,165.576 L84.5315,170 L83.3975,170 L83.3975,165.632 C83.3975,164.978663 83.2668346,164.500335 83.0055,164.197 C82.7441654,163.893665 82.3335028,163.742 81.7735,163.742 C81.1201634,163.742 80.597502,163.942665 80.2055,164.344 C79.813498,164.745335 79.6175,165.286663 79.6175,165.968 L79.6175,170 L78.4835,170 L78.4835,164.932 C78.4835,164.203996 78.446167,163.546003 78.3715,162.958 L79.4495,162.958 L79.5615,164.218 C79.7761677,163.760664 80.0981645,163.408335 80.5275,163.161 C80.9568355,162.913665 81.4468306,162.79 81.9975,162.79 Z M89.8465,160.62 C89.4731648,160.62 89.181501,160.724999 88.9715,160.935 C88.7614989,161.145001 88.6565,161.506664 88.6565,162.02 L88.6565,162.958 L90.3785,162.958 L90.3785,163.854 L88.6565,163.854 L88.6565,170 L87.5225,170 L87.5225,163.854 L86.1505,163.854 L86.1505,162.958 L87.5225,162.958 L87.5225,161.88 C87.5225,161.142663 87.7068315,160.585002 88.0755,160.207 C88.4441685,159.828998 88.95983,159.64 89.6225,159.64 C89.9491683,159.64 90.2664985,159.682 90.5745,159.766 L90.5745,160.732 C90.3131654,160.657333 90.0705011,160.62 89.8465,160.62 Z M91.8625,170 L91.8625,159.696 L92.9965,159.696 L92.9965,170 L91.8625,170 Z M101.5595,162.958 L101.5595,170 L100.4535,170 L100.4535,168.782 C100.229499,169.211335 99.9168353,169.537999 99.5155,169.762 C99.1141647,169.986001 98.6615025,170.098 98.1575,170.098 C97.3268292,170.098 96.6968355,169.864669 96.2675,169.398 C95.8381645,168.931331 95.6235,168.240671 95.6235,167.326 L95.6235,162.958 L96.7575,162.958 L96.7575,167.298 C96.7575,167.93267 96.8881654,168.399332 97.1495,168.698 C97.4108346,168.996668 97.8074973,169.146 98.3395,169.146 C98.9648365,169.146 99.4688314,168.943002 99.8515,168.537 C100.234169,168.130998 100.4255,167.59667 100.4255,166.934 L100.4255,162.958 L101.5595,162.958 Z M110.1085,166.444 L104.9425,166.444 C104.951833,167.340004 105.159498,168.016664 105.5655,168.474 C105.971502,168.931336 106.561829,169.16 107.3365,169.16 C108.157837,169.16 108.91383,168.884669 109.6045,168.334 L109.9825,169.16 C109.674498,169.449335 109.280169,169.677999 108.7995,169.846 C108.318831,170.014001 107.826503,170.098 107.3225,170.098 C106.221161,170.098 105.357836,169.77367 104.7325,169.125 C104.107164,168.47633 103.7945,167.587339 103.7945,166.458 C103.7945,165.73933 103.934499,165.102336 104.2145,164.547 C104.494501,163.991664 104.886497,163.560002 105.3905,163.252 C105.894503,162.943998 106.468497,162.79 107.1125,162.79 C108.045838,162.79 108.778497,163.095664 109.3105,163.707 C109.842503,164.318336 110.1085,165.160661 110.1085,166.234 L110.1085,166.444 Z M107.1265,163.672 C106.538497,163.672 106.060169,163.849332 105.6915,164.204 C105.322831,164.558668 105.087167,165.057997 104.9845,165.702 L109.0865,165.702 C109.0305,165.03933 108.836835,164.535335 108.5055,164.19 C108.174165,163.844665 107.714503,163.672 107.1265,163.672 Z M115.8155,162.79 C117.504842,162.79 118.3495,163.718657 118.3495,165.576 L118.3495,170 L117.2155,170 L117.2155,165.632 C117.2155,164.978663 117.084835,164.500335 116.8235,164.197 C116.562165,163.893665 116.151503,163.742 115.5915,163.742 C114.938163,163.742 114.415502,163.942665 114.0235,164.344 C113.631498,164.745335 113.4355,165.286663 113.4355,165.968 L113.4355,170 L112.3015,170 L112.3015,164.932 C112.3015,164.203996 112.264167,163.546003 112.1895,162.958 L113.2675,162.958 L113.3795,164.218 C113.594168,163.760664 113.916165,163.408335 114.3455,163.161 C114.774835,162.913665 115.264831,162.79 115.8155,162.79 Z M123.9165,170.098 C123.235163,170.098 122.640169,169.948668 122.1315,169.65 C121.622831,169.351332 121.230835,168.929003 120.9555,168.383 C120.680165,167.836997 120.5425,167.200004 120.5425,166.472 C120.5425,165.743996 120.682499,165.102336 120.9625,164.547 C121.242501,163.991664 121.641497,163.560002 122.1595,163.252 C122.677503,162.943998 123.28183,162.79 123.9725,162.79 C124.448502,162.79 124.908164,162.871666 125.3515,163.035 C125.794836,163.198334 126.161165,163.424665 126.4505,163.714 L126.0725,164.554 C125.717832,164.273999 125.374835,164.068667 125.0435,163.938 C124.712165,163.807333 124.373835,163.742 124.0285,163.742 C123.30983,163.742 122.745169,163.982331 122.3345,164.463 C121.923831,164.943669 121.7185,165.613329 121.7185,166.472 C121.7185,167.321338 121.921498,167.981664 122.3275,168.453 C122.733502,168.924336 123.300496,169.16 124.0285,169.16 C124.373835,169.16 124.712165,169.094667 125.0435,168.964 C125.374835,168.833333 125.717832,168.628001 126.0725,168.348 L126.4505,169.188 C126.151832,169.468001 125.776169,169.689666 125.3235,169.853 C124.870831,170.016334 124.401836,170.098 123.9165,170.098 Z M134.2575,166.444 L129.0915,166.444 C129.100833,167.340004 129.308498,168.016664 129.7145,168.474 C130.120502,168.931336 130.710829,169.16 131.4855,169.16 C132.306837,169.16 133.06283,168.884669 133.7535,168.334 L134.1315,169.16 C133.823498,169.449335 133.429169,169.677999 132.9485,169.846 C132.467831,170.014001 131.975503,170.098 131.4715,170.098 C130.370161,170.098 129.506836,169.77367 128.8815,169.125 C128.256164,168.47633 127.9435,167.587339 127.9435,166.458 C127.9435,165.73933 128.083499,165.102336 128.3635,164.547 C128.643501,163.991664 129.035497,163.560002 129.5395,163.252 C130.043503,162.943998 130.617497,162.79 131.2615,162.79 C132.194838,162.79 132.927497,163.095664 133.4595,163.707 C133.991503,164.318336 134.2575,165.160661 134.2575,166.234 L134.2575,166.444 Z M131.2755,163.672 C130.687497,163.672 130.209169,163.849332 129.8405,164.204 C129.471831,164.558668 129.236167,165.057997 129.1335,165.702 L133.2355,165.702 C133.1795,165.03933 132.985835,164.535335 132.6545,164.19 C132.323165,163.844665 131.863503,163.672 131.2755,163.672 Z M139.7265,162.79 C139.959834,162.79 140.174499,162.818 140.3705,162.874 L140.3425,163.91 C140.127832,163.835333 139.880501,163.798 139.6005,163.798 C138.919163,163.798 138.412835,164.010331 138.0815,164.435 C137.750165,164.859669 137.5845,165.37533 137.5845,165.982 L137.5845,170 L136.4505,170 L136.4505,164.932 C136.4505,164.203996 136.413167,163.546003 136.3385,162.958 L137.4165,162.958 L137.5285,164.26 C137.705834,163.783998 137.990498,163.420001 138.3825,163.168 C138.774502,162.915999 139.222497,162.79 139.7265,162.79 Z M144.2995,170.098 C143.114161,170.098 142.17617,169.79467 141.4855,169.188 L141.8635,168.348 C142.246169,168.646668 142.633498,168.861333 143.0255,168.992 C143.417502,169.122667 143.856164,169.188 144.3415,169.188 C144.873503,169.188 145.277165,169.097001 145.5525,168.915 C145.827835,168.732999 145.9655,168.469335 145.9655,168.124 C145.9655,167.843999 145.872168,167.620001 145.6855,167.452 C145.498832,167.283999 145.190835,167.153334 144.7615,167.06 L143.5715,166.78 C142.983497,166.649333 142.528502,166.416002 142.2065,166.08 C141.884498,165.743998 141.7235,165.342669 141.7235,164.876 C141.7235,164.259997 141.970831,163.758335 142.4655,163.371 C142.960169,162.983665 143.613496,162.79 144.4255,162.79 C144.920169,162.79 145.386831,162.869333 145.8255,163.028 C146.264169,163.186667 146.632832,163.415332 146.9315,163.714 L146.5535,164.54 C145.89083,163.989331 145.181504,163.714 144.4255,163.714 C143.921497,163.714 143.531835,163.809666 143.2565,164.001 C142.981165,164.192334 142.8435,164.460665 142.8435,164.806 C142.8435,165.095335 142.929832,165.323999 143.1025,165.492 C143.275168,165.660001 143.552831,165.790666 143.9355,165.884 L145.1255,166.178 C145.778837,166.327334 146.264165,166.558332 146.5815,166.871 C146.898835,167.183668 147.0575,167.591997 147.0575,168.096 C147.0575,168.70267 146.810169,169.187998 146.3155,169.552 C145.820831,169.916002 145.148838,170.098 144.2995,170.098 Z M156.4135,170.098 C155.732163,170.098 155.137169,169.948668 154.6285,169.65 C154.119831,169.351332 153.727835,168.929003 153.4525,168.383 C153.177165,167.836997 153.0395,167.200004 153.0395,166.472 C153.0395,165.743996 153.179499,165.102336 153.4595,164.547 C153.739501,163.991664 154.138497,163.560002 154.6565,163.252 C155.174503,162.943998 155.77883,162.79 156.4695,162.79 C156.945502,162.79 157.405164,162.871666 157.8485,163.035 C158.291836,163.198334 158.658165,163.424665 158.9475,163.714 L158.5695,164.554 C158.214832,164.273999 157.871835,164.068667 157.5405,163.938 C157.209165,163.807333 156.870835,163.742 156.5255,163.742 C155.80683,163.742 155.242169,163.982331 154.8315,164.463 C154.420831,164.943669 154.2155,165.613329 154.2155,166.472 C154.2155,167.321338 154.418498,167.981664 154.8245,168.453 C155.230502,168.924336 155.797496,169.16 156.5255,169.16 C156.870835,169.16 157.209165,169.094667 157.5405,168.964 C157.871835,168.833333 158.214832,168.628001 158.5695,168.348 L158.9475,169.188 C158.648832,169.468001 158.273169,169.689666 157.8205,169.853 C157.367831,170.016334 156.898836,170.098 156.4135,170.098 Z M164.1365,162.79 C164.369834,162.79 164.584499,162.818 164.7805,162.874 L164.7525,163.91 C164.537832,163.835333 164.290501,163.798 164.0105,163.798 C163.329163,163.798 162.822835,164.010331 162.4915,164.435 C162.160165,164.859669 161.9945,165.37533 161.9945,165.982 L161.9945,170 L160.8605,170 L160.8605,164.932 C160.8605,164.203996 160.823167,163.546003 160.7485,162.958 L161.8265,162.958 L161.9385,164.26 C162.115834,163.783998 162.400498,163.420001 162.7925,163.168 C163.184502,162.915999 163.632497,162.79 164.1365,162.79 Z M172.1535,166.444 L166.9875,166.444 C166.996833,167.340004 167.204498,168.016664 167.6105,168.474 C168.016502,168.931336 168.606829,169.16 169.3815,169.16 C170.202837,169.16 170.95883,168.884669 171.6495,168.334 L172.0275,169.16 C171.719498,169.449335 171.325169,169.677999 170.8445,169.846 C170.363831,170.014001 169.871503,170.098 169.3675,170.098 C168.266161,170.098 167.402836,169.77367 166.7775,169.125 C166.152164,168.47633 165.8395,167.587339 165.8395,166.458 C165.8395,165.73933 165.979499,165.102336 166.2595,164.547 C166.539501,163.991664 166.931497,163.560002 167.4355,163.252 C167.939503,162.943998 168.513497,162.79 169.1575,162.79 C170.090838,162.79 170.823497,163.095664 171.3555,163.707 C171.887503,164.318336 172.1535,165.160661 172.1535,166.234 L172.1535,166.444 Z M169.1715,163.672 C168.583497,163.672 168.105169,163.849332 167.7365,164.204 C167.367831,164.558668 167.132167,165.057997 167.0295,165.702 L171.1315,165.702 C171.0755,165.03933 170.881835,164.535335 170.5505,164.19 C170.219165,163.844665 169.759503,163.672 169.1715,163.672 Z M180.5485,162.958 L180.5485,170 L179.4285,170 L179.4285,168.726 C179.223166,169.164669 178.912835,169.502999 178.4975,169.741 C178.082165,169.979001 177.599169,170.098 177.0485,170.098 C176.423164,170.098 175.874836,169.948668 175.4035,169.65 C174.932164,169.351332 174.568168,168.929003 174.3115,168.383 C174.054832,167.836997 173.9265,167.200004 173.9265,166.472 C173.9265,165.743996 174.057165,165.102336 174.3185,164.547 C174.579835,163.991664 174.946164,163.560002 175.4175,163.252 C175.888836,162.943998 176.432497,162.79 177.0485,162.79 C177.599169,162.79 178.079831,162.911332 178.4905,163.154 C178.901169,163.396668 179.213832,163.737331 179.4285,164.176 L179.4285,162.958 L180.5485,162.958 Z M177.2725,169.16 C177.96317,169.16 178.495165,168.924336 178.8685,168.453 C179.241835,167.981664 179.4285,167.312004 179.4285,166.444 C179.4285,165.575996 179.241835,164.908669 178.8685,164.442 C178.495165,163.975331 177.96317,163.742 177.2725,163.742 C176.58183,163.742 176.042835,163.982331 175.6555,164.463 C175.268165,164.943669 175.0745,165.613329 175.0745,166.472 C175.0745,167.330671 175.265831,167.993331 175.6485,168.46 C176.031169,168.926669 176.572496,169.16 177.2725,169.16 Z M184.7295,163.854 L184.7295,167.704 C184.7295,168.226669 184.836832,168.592999 185.0515,168.803 C185.266168,169.013001 185.569498,169.118 185.9615,169.118 C186.222835,169.118 186.474832,169.076 186.7175,168.992 L186.7175,169.958 C186.428165,170.051334 186.101502,170.098 185.7375,170.098 C185.065497,170.098 184.540502,169.909002 184.1625,169.531 C183.784498,169.152998 183.5955,168.595337 183.5955,167.858 L183.5955,163.854 L182.2235,163.854 L182.2235,162.958 L183.5955,162.958 L183.5955,161.152 L184.7295,160.746 L184.7295,162.958 L186.7455,162.958 L186.7455,163.854 L184.7295,163.854 Z M194.4825,166.444 L189.3165,166.444 C189.325833,167.340004 189.533498,168.016664 189.9395,168.474 C190.345502,168.931336 190.935829,169.16 191.7105,169.16 C192.531837,169.16 193.28783,168.884669 193.9785,168.334 L194.3565,169.16 C194.048498,169.449335 193.654169,169.677999 193.1735,169.846 C192.692831,170.014001 192.200503,170.098 191.6965,170.098 C190.595161,170.098 189.731836,169.77367 189.1065,169.125 C188.481164,168.47633 188.1685,167.587339 188.1685,166.458 C188.1685,165.73933 188.308499,165.102336 188.5885,164.547 C188.868501,163.991664 189.260497,163.560002 189.7645,163.252 C190.268503,162.943998 190.842497,162.79 191.4865,162.79 C192.419838,162.79 193.152497,163.095664 193.6845,163.707 C194.216503,164.318336 194.4825,165.160661 194.4825,166.234 L194.4825,166.444 Z M191.5005,163.672 C190.912497,163.672 190.434169,163.849332 190.0655,164.204 C189.696831,164.558668 189.461167,165.057997 189.3585,165.702 L193.4605,165.702 C193.4045,165.03933 193.210835,164.535335 192.8795,164.19 C192.548165,163.844665 192.088503,163.672 191.5005,163.672 Z M40.7395,188.098 C40.0581633,188.098 39.4631692,187.948668 38.9545,187.65 C38.4458308,187.351332 38.0538347,186.929003 37.7785,186.383 C37.5031653,185.836997 37.3655,185.200004 37.3655,184.472 C37.3655,183.743996 37.5054986,183.102336 37.7855,182.547 C38.0655014,181.991664 38.4644974,181.560002 38.9825,181.252 C39.5005026,180.943998 40.1048299,180.79 40.7955,180.79 C41.2715024,180.79 41.7311644,180.871666 42.1745,181.035 C42.6178355,181.198334 42.9841652,181.424665 43.2735,181.714 L42.8955,182.554 C42.5408316,182.273999 42.197835,182.068667 41.8665,181.938 C41.535165,181.807333 41.1968351,181.742 40.8515,181.742 C40.1328297,181.742 39.5681687,181.982331 39.1575,182.463 C38.7468313,182.943669 38.5415,183.613329 38.5415,184.472 C38.5415,185.321338 38.744498,185.981664 39.1505,186.453 C39.556502,186.924336 40.1234964,187.16 40.8515,187.16 C41.1968351,187.16 41.535165,187.094667 41.8665,186.964 C42.197835,186.833333 42.5408316,186.628001 42.8955,186.348 L43.2735,187.188 C42.9748318,187.468001 42.5991689,187.689666 42.1465,187.853 C41.6938311,188.016334 41.2248358,188.098 40.7395,188.098 Z M48.0985,188.098 C47.43583,188.098 46.8525025,187.948668 46.3485,187.65 C45.8444975,187.351332 45.4548347,186.926669 45.1795,186.376 C44.9041653,185.825331 44.7665,185.181337 44.7665,184.444 C44.7665,183.706663 44.9041653,183.062669 45.1795,182.512 C45.4548347,181.961331 45.8444975,181.536668 46.3485,181.238 C46.8525025,180.939332 47.43583,180.79 48.0985,180.79 C48.76117,180.79 49.3444975,180.939332 49.8485,181.238 C50.3525025,181.536668 50.7421653,181.961331 51.0175,182.512 C51.2928347,183.062669 51.4305,183.706663 51.4305,184.444 C51.4305,185.181337 51.2928347,185.825331 51.0175,186.376 C50.7421653,186.926669 50.3525025,187.351332 49.8485,187.65 C49.3444975,187.948668 48.76117,188.098 48.0985,188.098 Z M48.0985,187.16 C48.7985035,187.16 49.3351648,186.929002 49.7085,186.467 C50.0818352,186.004998 50.2685,185.330671 50.2685,184.444 C50.2685,183.585329 50.0771686,182.920336 49.6945,182.449 C49.3118314,181.977664 48.7798367,181.742 48.0985,181.742 C47.4078299,181.742 46.8711686,181.977664 46.4885,182.449 C46.1058314,182.920336 45.9145,183.585329 45.9145,184.444 C45.9145,185.330671 46.1034981,186.004998 46.4815,186.467 C46.8595019,186.929002 47.3984965,187.16 48.0985,187.16 Z M57.1795,180.79 C58.8688418,180.79 59.7135,181.718657 59.7135,183.576 L59.7135,188 L58.5795,188 L58.5795,183.632 C58.5795,182.978663 58.4488346,182.500335 58.1875,182.197 C57.9261654,181.893665 57.5155028,181.742 56.9555,181.742 C56.3021634,181.742 55.779502,181.942665 55.3875,182.344 C54.995498,182.745335 54.7995,183.286663 54.7995,183.968 L54.7995,188 L53.6655,188 L53.6655,182.932 C53.6655,182.203996 53.628167,181.546003 53.5535,180.958 L54.6315,180.958 L54.7435,182.218 C54.9581677,181.760664 55.2801645,181.408335 55.7095,181.161 C56.1388355,180.913665 56.6288306,180.79 57.1795,180.79 Z M63.8385,181.854 L63.8385,185.704 C63.8385,186.226669 63.9458323,186.592999 64.1605,186.803 C64.3751677,187.013001 64.678498,187.118 65.0705,187.118 C65.3318346,187.118 65.5838321,187.076 65.8265,186.992 L65.8265,187.958 C65.5371652,188.051334 65.2105018,188.098 64.8465,188.098 C64.1744966,188.098 63.6495019,187.909002 63.2715,187.531 C62.8934981,187.152998 62.7045,186.595337 62.7045,185.858 L62.7045,181.854 L61.3325,181.854 L61.3325,180.958 L62.7045,180.958 L62.7045,179.152 L63.8385,178.746 L63.8385,180.958 L65.8545,180.958 L65.8545,181.854 L63.8385,181.854 Z M73.5915,184.444 L68.4255,184.444 C68.4348334,185.340004 68.642498,186.016664 69.0485,186.474 C69.454502,186.931336 70.0448295,187.16 70.8195,187.16 C71.6408374,187.16 72.3968299,186.884669 73.0875,186.334 L73.4655,187.16 C73.1574985,187.449335 72.7631691,187.677999 72.2825,187.846 C71.8018309,188.014001 71.3095025,188.098 70.8055,188.098 C69.7041612,188.098 68.8408365,187.77367 68.2155,187.125 C67.5901635,186.47633 67.2775,185.587339 67.2775,184.458 C67.2775,183.73933 67.4174986,183.102336 67.6975,182.547 C67.9775014,181.991664 68.3694975,181.560002 68.8735,181.252 C69.3775025,180.943998 69.9514968,180.79 70.5955,180.79 C71.528838,180.79 72.2614973,181.095664 72.7935,181.707 C73.3255027,182.318336 73.5915,183.160661 73.5915,184.234 L73.5915,184.444 Z M70.6095,181.672 C70.0214971,181.672 69.5431685,181.849332 69.1745,182.204 C68.8058315,182.558668 68.5701672,183.057997 68.4675,183.702 L72.5695,183.702 C72.5134997,183.03933 72.319835,182.535335 71.9885,182.19 C71.657165,181.844665 71.1975029,181.672 70.6095,181.672 Z M79.2985,180.79 C80.9878418,180.79 81.8325,181.718657 81.8325,183.576 L81.8325,188 L80.6985,188 L80.6985,183.632 C80.6985,182.978663 80.5678346,182.500335 80.3065,182.197 C80.0451654,181.893665 79.6345028,181.742 79.0745,181.742 C78.4211634,181.742 77.898502,181.942665 77.5065,182.344 C77.114498,182.745335 76.9185,183.286663 76.9185,183.968 L76.9185,188 L75.7845,188 L75.7845,182.932 C75.7845,182.203996 75.747167,181.546003 75.6725,180.958 L76.7505,180.958 L76.8625,182.218 C77.0771677,181.760664 77.3991645,181.408335 77.8285,181.161 C78.2578355,180.913665 78.7478306,180.79 79.2985,180.79 Z M85.9575,181.854 L85.9575,185.704 C85.9575,186.226669 86.0648323,186.592999 86.2795,186.803 C86.4941677,187.013001 86.797498,187.118 87.1895,187.118 C87.4508346,187.118 87.7028321,187.076 87.9455,186.992 L87.9455,187.958 C87.6561652,188.051334 87.3295018,188.098 86.9655,188.098 C86.2934966,188.098 85.7685019,187.909002 85.3905,187.531 C85.0124981,187.152998 84.8235,186.595337 84.8235,185.858 L84.8235,181.854 L83.4515,181.854 L83.4515,180.958 L84.8235,180.958 L84.8235,179.152 L85.9575,178.746 L85.9575,180.958 L87.9735,180.958 L87.9735,181.854 L85.9575,181.854 Z M95.4535,181.854 L95.4535,185.704 C95.4535,186.226669 95.5608323,186.592999 95.7755,186.803 C95.9901677,187.013001 96.293498,187.118 96.6855,187.118 C96.9468346,187.118 97.1988321,187.076 97.4415,186.992 L97.4415,187.958 C97.1521652,188.051334 96.8255018,188.098 96.4615,188.098 C95.7894966,188.098 95.2645019,187.909002 94.8865,187.531 C94.5084981,187.152998 94.3195,186.595337 94.3195,185.858 L94.3195,181.854 L92.9475,181.854 L92.9475,180.958 L94.3195,180.958 L94.3195,179.152 L95.4535,178.746 L95.4535,180.958 L97.4695,180.958 L97.4695,181.854 L95.4535,181.854 Z M102.8265,180.79 C104.515842,180.79 105.3605,181.718657 105.3605,183.576 L105.3605,188 L104.2265,188 L104.2265,183.632 C104.2265,182.978663 104.095835,182.500335 103.8345,182.197 C103.573165,181.893665 103.162503,181.742 102.6025,181.742 C101.949163,181.742 101.426502,181.942665 101.0345,182.344 C100.642498,182.745335 100.4465,183.286663 100.4465,183.968 L100.4465,188 L99.3125,188 L99.3125,177.696 L100.4465,177.696 L100.4465,182.106 C100.670501,181.676665 100.990165,181.350001 101.4055,181.126 C101.820835,180.901999 102.294497,180.79 102.8265,180.79 Z M114.1755,180.958 L114.1755,188 L113.0555,188 L113.0555,186.726 C112.850166,187.164669 112.539835,187.502999 112.1245,187.741 C111.709165,187.979001 111.226169,188.098 110.6755,188.098 C110.050164,188.098 109.501836,187.948668 109.0305,187.65 C108.559164,187.351332 108.195168,186.929003 107.9385,186.383 C107.681832,185.836997 107.5535,185.200004 107.5535,184.472 C107.5535,183.743996 107.684165,183.102336 107.9455,182.547 C108.206835,181.991664 108.573164,181.560002 109.0445,181.252 C109.515836,180.943998 110.059497,180.79 110.6755,180.79 C111.226169,180.79 111.706831,180.911332 112.1175,181.154 C112.528169,181.396668 112.840832,181.737331 113.0555,182.176 L113.0555,180.958 L114.1755,180.958 Z M110.8995,187.16 C111.59017,187.16 112.122165,186.924336 112.4955,186.453 C112.868835,185.981664 113.0555,185.312004 113.0555,184.444 C113.0555,183.575996 112.868835,182.908669 112.4955,182.442 C112.122165,181.975331 111.59017,181.742 110.8995,181.742 C110.20883,181.742 109.669835,181.982331 109.2825,182.463 C108.895165,182.943669 108.7015,183.613329 108.7015,184.472 C108.7015,185.330671 108.892831,185.993331 109.2755,186.46 C109.658169,186.926669 110.199496,187.16 110.8995,187.16 Z M118.3565,181.854 L118.3565,185.704 C118.3565,186.226669 118.463832,186.592999 118.6785,186.803 C118.893168,187.013001 119.196498,187.118 119.5885,187.118 C119.849835,187.118 120.101832,187.076 120.3445,186.992 L120.3445,187.958 C120.055165,188.051334 119.728502,188.098 119.3645,188.098 C118.692497,188.098 118.167502,187.909002 117.7895,187.531 C117.411498,187.152998 117.2225,186.595337 117.2225,185.858 L117.2225,181.854 L115.8505,181.854 L115.8505,180.958 L117.2225,180.958 L117.2225,179.152 L118.3565,178.746 L118.3565,180.958 L120.3725,180.958 L120.3725,181.854 L118.3565,181.854 Z M128.7205,188.098 C127.535161,188.098 126.59717,187.79467 125.9065,187.188 L126.2845,186.348 C126.667169,186.646668 127.054498,186.861333 127.4465,186.992 C127.838502,187.122667 128.277164,187.188 128.7625,187.188 C129.294503,187.188 129.698165,187.097001 129.9735,186.915 C130.248835,186.732999 130.3865,186.469335 130.3865,186.124 C130.3865,185.843999 130.293168,185.620001 130.1065,185.452 C129.919832,185.283999 129.611835,185.153334 129.1825,185.06 L127.9925,184.78 C127.404497,184.649333 126.949502,184.416002 126.6275,184.08 C126.305498,183.743998 126.1445,183.342669 126.1445,182.876 C126.1445,182.259997 126.391831,181.758335 126.8865,181.371 C127.381169,180.983665 128.034496,180.79 128.8465,180.79 C129.341169,180.79 129.807831,180.869333 130.2465,181.028 C130.685169,181.186667 131.053832,181.415332 131.3525,181.714 L130.9745,182.54 C130.31183,181.989331 129.602504,181.714 128.8465,181.714 C128.342497,181.714 127.952835,181.809666 127.6775,182.001 C127.402165,182.192334 127.2645,182.460665 127.2645,182.806 C127.2645,183.095335 127.350832,183.323999 127.5235,183.492 C127.696168,183.660001 127.973831,183.790666 128.3565,183.884 L129.5465,184.178 C130.199837,184.327334 130.685165,184.558332 131.0025,184.871 C131.319835,185.183668 131.4785,185.591997 131.4785,186.096 C131.4785,186.70267 131.231169,187.187998 130.7365,187.552 C130.241831,187.916002 129.569838,188.098 128.7205,188.098 Z M135.1975,181.854 L135.1975,185.704 C135.1975,186.226669 135.304832,186.592999 135.5195,186.803 C135.734168,187.013001 136.037498,187.118 136.4295,187.118 C136.690835,187.118 136.942832,187.076 137.1855,186.992 L137.1855,187.958 C136.896165,188.051334 136.569502,188.098 136.2055,188.098 C135.533497,188.098 135.008502,187.909002 134.6305,187.531 C134.252498,187.152998 134.0635,186.595337 134.0635,185.858 L134.0635,181.854 L132.6915,181.854 L132.6915,180.958 L134.0635,180.958 L134.0635,179.152 L135.1975,178.746 L135.1975,180.958 L137.2135,180.958 L137.2135,181.854 L135.1975,181.854 Z M145.2585,180.958 L145.2585,188 L144.1385,188 L144.1385,186.726 C143.933166,187.164669 143.622835,187.502999 143.2075,187.741 C142.792165,187.979001 142.309169,188.098 141.7585,188.098 C141.133164,188.098 140.584836,187.948668 140.1135,187.65 C139.642164,187.351332 139.278168,186.929003 139.0215,186.383 C138.764832,185.836997 138.6365,185.200004 138.6365,184.472 C138.6365,183.743996 138.767165,183.102336 139.0285,182.547 C139.289835,181.991664 139.656164,181.560002 140.1275,181.252 C140.598836,180.943998 141.142497,180.79 141.7585,180.79 C142.309169,180.79 142.789831,180.911332 143.2005,181.154 C143.611169,181.396668 143.923832,181.737331 144.1385,182.176 L144.1385,180.958 L145.2585,180.958 Z M141.9825,187.16 C142.67317,187.16 143.205165,186.924336 143.5785,186.453 C143.951835,185.981664 144.1385,185.312004 144.1385,184.444 C144.1385,183.575996 143.951835,182.908669 143.5785,182.442 C143.205165,181.975331 142.67317,181.742 141.9825,181.742 C141.29183,181.742 140.752835,181.982331 140.3655,182.463 C139.978165,182.943669 139.7845,183.613329 139.7845,184.472 C139.7845,185.330671 139.975831,185.993331 140.3585,186.46 C140.741169,186.926669 141.282496,187.16 141.9825,187.16 Z M151.4415,180.79 C153.130842,180.79 153.9755,181.718657 153.9755,183.576 L153.9755,188 L152.8415,188 L152.8415,183.632 C152.8415,182.978663 152.710835,182.500335 152.4495,182.197 C152.188165,181.893665 151.777503,181.742 151.2175,181.742 C150.564163,181.742 150.041502,181.942665 149.6495,182.344 C149.257498,182.745335 149.0615,183.286663 149.0615,183.968 L149.0615,188 L147.9275,188 L147.9275,182.932 C147.9275,182.203996 147.890167,181.546003 147.8155,180.958 L148.8935,180.958 L149.0055,182.218 C149.220168,181.760664 149.542165,181.408335 149.9715,181.161 C150.400835,180.913665 150.890831,180.79 151.4415,180.79 Z M162.7905,177.696 L162.7905,188 L161.6705,188 L161.6705,186.726 C161.465166,187.164669 161.154835,187.502999 160.7395,187.741 C160.324165,187.979001 159.841169,188.098 159.2905,188.098 C158.674497,188.098 158.130836,187.944002 157.6595,187.636 C157.188164,187.327998 156.821835,186.896336 156.5605,186.341 C156.299165,185.785664 156.1685,185.144004 156.1685,184.416 C156.1685,183.687996 156.296832,183.051003 156.5535,182.505 C156.810168,181.958997 157.176498,181.536668 157.6525,181.238 C158.128502,180.939332 158.674497,180.79 159.2905,180.79 C159.841169,180.79 160.321831,180.908999 160.7325,181.147 C161.143169,181.385001 161.451166,181.718665 161.6565,182.148 L161.6565,177.696 L162.7905,177.696 Z M159.5145,187.16 C160.20517,187.16 160.737165,186.924336 161.1105,186.453 C161.483835,185.981664 161.6705,185.312004 161.6705,184.444 C161.6705,183.585329 161.483835,182.920336 161.1105,182.449 C160.737165,181.977664 160.20517,181.742 159.5145,181.742 C158.82383,181.742 158.284835,181.975331 157.8975,182.442 C157.510165,182.908669 157.3165,183.566662 157.3165,184.416 C157.3165,185.284004 157.510165,185.958331 157.8975,186.439 C158.284835,186.919669 158.82383,187.16 159.5145,187.16 Z M167.8395,188.098 C166.654161,188.098 165.71617,187.79467 165.0255,187.188 L165.4035,186.348 C165.786169,186.646668 166.173498,186.861333 166.5655,186.992 C166.957502,187.122667 167.396164,187.188 167.8815,187.188 C168.413503,187.188 168.817165,187.097001 169.0925,186.915 C169.367835,186.732999 169.5055,186.469335 169.5055,186.124 C169.5055,185.843999 169.412168,185.620001 169.2255,185.452 C169.038832,185.283999 168.730835,185.153334 168.3015,185.06 L167.1115,184.78 C166.523497,184.649333 166.068502,184.416002 165.7465,184.08 C165.424498,183.743998 165.2635,183.342669 165.2635,182.876 C165.2635,182.259997 165.510831,181.758335 166.0055,181.371 C166.500169,180.983665 167.153496,180.79 167.9655,180.79 C168.460169,180.79 168.926831,180.869333 169.3655,181.028 C169.804169,181.186667 170.172832,181.415332 170.4715,181.714 L170.0935,182.54 C169.43083,181.989331 168.721504,181.714 167.9655,181.714 C167.461497,181.714 167.071835,181.809666 166.7965,182.001 C166.521165,182.192334 166.3835,182.460665 166.3835,182.806 C166.3835,183.095335 166.469832,183.323999 166.6425,183.492 C166.815168,183.660001 167.092831,183.790666 167.4755,183.884 L168.6655,184.178 C169.318837,184.327334 169.804165,184.558332 170.1215,184.871 C170.438835,185.183668 170.5975,185.591997 170.5975,186.096 C170.5975,186.70267 170.350169,187.187998 169.8555,187.552 C169.360831,187.916002 168.688838,188.098 167.8395,188.098 Z M179.9115,188.098 C179.24883,188.098 178.665503,187.948668 178.1615,187.65 C177.657497,187.351332 177.267835,186.926669 176.9925,186.376 C176.717165,185.825331 176.5795,185.181337 176.5795,184.444 C176.5795,183.706663 176.717165,183.062669 176.9925,182.512 C177.267835,181.961331 177.657497,181.536668 178.1615,181.238 C178.665503,180.939332 179.24883,180.79 179.9115,180.79 C180.57417,180.79 181.157497,180.939332 181.6615,181.238 C182.165503,181.536668 182.555165,181.961331 182.8305,182.512 C183.105835,183.062669 183.2435,183.706663 183.2435,184.444 C183.2435,185.181337 183.105835,185.825331 182.8305,186.376 C182.555165,186.926669 182.165503,187.351332 181.6615,187.65 C181.157497,187.948668 180.57417,188.098 179.9115,188.098 Z M179.9115,187.16 C180.611503,187.16 181.148165,186.929002 181.5215,186.467 C181.894835,186.004998 182.0815,185.330671 182.0815,184.444 C182.0815,183.585329 181.890169,182.920336 181.5075,182.449 C181.124831,181.977664 180.592837,181.742 179.9115,181.742 C179.22083,181.742 178.684169,181.977664 178.3015,182.449 C177.918831,182.920336 177.7275,183.585329 177.7275,184.444 C177.7275,185.330671 177.916498,186.004998 178.2945,186.467 C178.672502,186.929002 179.211496,187.16 179.9115,187.16 Z M191.3725,180.958 L191.3725,188 L190.2665,188 L190.2665,186.782 C190.042499,187.211335 189.729835,187.537999 189.3285,187.762 C188.927165,187.986001 188.474503,188.098 187.9705,188.098 C187.139829,188.098 186.509835,187.864669 186.0805,187.398 C185.651165,186.931331 185.4365,186.240671 185.4365,185.326 L185.4365,180.958 L186.5705,180.958 L186.5705,185.298 C186.5705,185.93267 186.701165,186.399332 186.9625,186.698 C187.223835,186.996668 187.620497,187.146 188.1525,187.146 C188.777836,187.146 189.281831,186.943002 189.6645,186.537 C190.047169,186.130998 190.2385,185.59667 190.2385,184.934 L190.2385,180.958 L191.3725,180.958 Z M195.5395,181.854 L195.5395,185.704 C195.5395,186.226669 195.646832,186.592999 195.8615,186.803 C196.076168,187.013001 196.379498,187.118 196.7715,187.118 C197.032835,187.118 197.284832,187.076 197.5275,186.992 L197.5275,187.958 C197.238165,188.051334 196.911502,188.098 196.5475,188.098 C195.875497,188.098 195.350502,187.909002 194.9725,187.531 C194.594498,187.152998 194.4055,186.595337 194.4055,185.858 L194.4055,181.854 L193.0335,181.854 L193.0335,180.958 L194.4055,180.958 L194.4055,179.152 L195.5395,178.746 L195.5395,180.958 L197.5555,180.958 L197.5555,181.854 L195.5395,181.854 Z M35.4525,198.958 L35.4525,206 L34.3325,206 L34.3325,204.726 C34.1271656,205.164669 33.8168354,205.502999 33.4015,205.741 C32.9861646,205.979001 32.5031694,206.098 31.9525,206.098 C31.3271635,206.098 30.7788357,205.948668 30.3075,205.65 C29.8361643,205.351332 29.4721679,204.929003 29.2155,204.383 C28.958832,203.836997 28.8305,203.200004 28.8305,202.472 C28.8305,201.743996 28.9611654,201.102336 29.2225,200.547 C29.4838346,199.991664 29.8501643,199.560002 30.3215,199.252 C30.7928357,198.943998 31.3364969,198.79 31.9525,198.79 C32.5031694,198.79 32.9838313,198.911332 33.3945,199.154 C33.8051687,199.396668 34.1178323,199.737331 34.3325,200.176 L34.3325,198.958 L35.4525,198.958 Z M32.1765,205.16 C32.8671701,205.16 33.3991648,204.924336 33.7725,204.453 C34.1458352,203.981664 34.3325,203.312004 34.3325,202.444 C34.3325,201.575996 34.1458352,200.908669 33.7725,200.442 C33.3991648,199.975331 32.8671701,199.742 32.1765,199.742 C31.4858299,199.742 30.9468353,199.982331 30.5595,200.463 C30.1721647,200.943669 29.9785,201.613329 29.9785,202.472 C29.9785,203.330671 30.1698314,203.993331 30.5525,204.46 C30.9351686,204.926669 31.4764965,205.16 32.1765,205.16 Z M41.6355,198.79 C43.3248418,198.79 44.1695,199.718657 44.1695,201.576 L44.1695,206 L43.0355,206 L43.0355,201.632 C43.0355,200.978663 42.9048346,200.500335 42.6435,200.197 C42.3821654,199.893665 41.9715028,199.742 41.4115,199.742 C40.7581634,199.742 40.235502,199.942665 39.8435,200.344 C39.451498,200.745335 39.2555,201.286663 39.2555,201.968 L39.2555,206 L38.1215,206 L38.1215,200.932 C38.1215,200.203996 38.084167,199.546003 38.0095,198.958 L39.0875,198.958 L39.1995,200.218 C39.4141677,199.760664 39.7361645,199.408335 40.1655,199.161 C40.5948355,198.913665 41.0848306,198.79 41.6355,198.79 Z M52.9845,195.696 L52.9845,206 L51.8645,206 L51.8645,204.726 C51.6591656,205.164669 51.3488354,205.502999 50.9335,205.741 C50.5181646,205.979001 50.0351694,206.098 49.4845,206.098 C48.8684969,206.098 48.3248357,205.944002 47.8535,205.636 C47.3821643,205.327998 47.0158346,204.896336 46.7545,204.341 C46.4931654,203.785664 46.3625,203.144004 46.3625,202.416 C46.3625,201.687996 46.490832,201.051003 46.7475,200.505 C47.0041679,199.958997 47.3704976,199.536668 47.8465,199.238 C48.3225024,198.939332 48.8684969,198.79 49.4845,198.79 C50.0351694,198.79 50.5158313,198.908999 50.9265,199.147 C51.3371687,199.385001 51.6451656,199.718665 51.8505,200.148 L51.8505,195.696 L52.9845,195.696 Z M49.7085,205.16 C50.3991701,205.16 50.9311648,204.924336 51.3045,204.453 C51.6778352,203.981664 51.8645,203.312004 51.8645,202.444 C51.8645,201.585329 51.6778352,200.920336 51.3045,200.449 C50.9311648,199.977664 50.3991701,199.742 49.7085,199.742 C49.0178299,199.742 48.4788353,199.975331 48.0915,200.442 C47.7041647,200.908669 47.5105,201.566662 47.5105,202.416 C47.5105,203.284004 47.7041647,203.958331 48.0915,204.439 C48.4788353,204.919669 49.0178299,205.16 49.7085,205.16 Z M63.0545,198.79 C63.2878345,198.79 63.502499,198.818 63.6985,198.874 L63.6705,199.91 C63.4558323,199.835333 63.2085014,199.798 62.9285,199.798 C62.2471633,199.798 61.740835,200.010331 61.4095,200.435 C61.078165,200.859669 60.9125,201.37533 60.9125,201.982 L60.9125,206 L59.7785,206 L59.7785,200.932 C59.7785,200.203996 59.741167,199.546003 59.6665,198.958 L60.7445,198.958 L60.8565,200.26 C61.0338342,199.783998 61.318498,199.420001 61.7105,199.168 C62.102502,198.915999 62.5504975,198.79 63.0545,198.79 Z M71.0715,202.444 L65.9055,202.444 C65.9148334,203.340004 66.122498,204.016664 66.5285,204.474 C66.934502,204.931336 67.5248295,205.16 68.2995,205.16 C69.1208374,205.16 69.8768299,204.884669 70.5675,204.334 L70.9455,205.16 C70.6374985,205.449335 70.2431691,205.677999 69.7625,205.846 C69.2818309,206.014001 68.7895025,206.098 68.2855,206.098 C67.1841612,206.098 66.3208365,205.77367 65.6955,205.125 C65.0701635,204.47633 64.7575,203.587339 64.7575,202.458 C64.7575,201.73933 64.8974986,201.102336 65.1775,200.547 C65.4575014,199.991664 65.8494975,199.560002 66.3535,199.252 C66.8575025,198.943998 67.4314968,198.79 68.0755,198.79 C69.008838,198.79 69.7414973,199.095664 70.2735,199.707 C70.8055027,200.318336 71.0715,201.160661 71.0715,202.234 L71.0715,202.444 Z M68.0895,199.672 C67.5014971,199.672 67.0231685,199.849332 66.6545,200.204 C66.2858315,200.558668 66.0501672,201.057997 65.9475,201.702 L70.0495,201.702 C69.9934997,201.03933 69.799835,200.535335 69.4685,200.19 C69.137165,199.844665 68.6775029,199.672 68.0895,199.672 Z M79.5365,198.958 L79.5365,205.944 C79.5365,206.989339 79.2681693,207.780331 78.7315,208.317 C78.1948306,208.853669 77.4038386,209.122 76.3585,209.122 C75.2851613,209.122 74.3611705,208.879336 73.5865,208.394 L73.7825,207.47 C74.2305022,207.722001 74.6528313,207.903999 75.0495,208.016 C75.4461686,208.128001 75.8824976,208.184 76.3585,208.184 C77.0398367,208.184 77.5531649,208.004335 77.8985,207.645 C78.2438351,207.285665 78.4165,206.751337 78.4165,206.042 L78.4165,204.376 C78.2018323,204.824002 77.8868354,205.171665 77.4715,205.419 C77.0561646,205.666335 76.5638362,205.79 75.9945,205.79 C75.3784969,205.79 74.8301691,205.645335 74.3495,205.356 C73.8688309,205.066665 73.4978346,204.656003 73.2365,204.124 C72.9751654,203.591997 72.8445,202.98067 72.8445,202.29 C72.8445,201.59933 72.9751654,200.988003 73.2365,200.456 C73.4978346,199.923997 73.8688309,199.513335 74.3495,199.224 C74.8301691,198.934665 75.3784969,198.79 75.9945,198.79 C76.5545028,198.79 77.0421646,198.911332 77.4575,199.154 C77.8728354,199.396668 78.1878323,199.737331 78.4025,200.176 L78.4025,198.958 L79.5365,198.958 Z M76.2185,204.838 C76.8998367,204.838 77.4341647,204.611669 77.8215,204.159 C78.2088353,203.706331 78.4025,203.083337 78.4025,202.29 C78.4025,201.496663 78.2088353,200.873669 77.8215,200.421 C77.4341647,199.968331 76.8998367,199.742 76.2185,199.742 C75.5278299,199.742 74.9841686,199.968331 74.5875,200.421 C74.1908313,200.873669 73.9925,201.496663 73.9925,202.29 C73.9925,203.083337 74.1908313,203.706331 74.5875,204.159 C74.9841686,204.611669 75.5278299,204.838 76.2185,204.838 Z M88.0855,198.958 L88.0855,206 L86.9795,206 L86.9795,204.782 C86.7554989,205.211335 86.4428353,205.537999 86.0415,205.762 C85.6401647,205.986001 85.1875025,206.098 84.6835,206.098 C83.8528292,206.098 83.2228355,205.864669 82.7935,205.398 C82.3641645,204.931331 82.1495,204.240671 82.1495,203.326 L82.1495,198.958 L83.2835,198.958 L83.2835,203.298 C83.2835,203.93267 83.4141654,204.399332 83.6755,204.698 C83.9368346,204.996668 84.3334973,205.146 84.8655,205.146 C85.4908365,205.146 85.9948314,204.943002 86.3775,204.537 C86.7601686,204.130998 86.9515,203.59667 86.9515,202.934 L86.9515,198.958 L88.0855,198.958 Z M90.7405,206 L90.7405,195.696 L91.8745,195.696 L91.8745,206 L90.7405,206 Z M100.7455,198.958 L100.7455,206 L99.6255,206 L99.6255,204.726 C99.4201656,205.164669 99.1098354,205.502999 98.6945,205.741 C98.2791646,205.979001 97.7961694,206.098 97.2455,206.098 C96.6201635,206.098 96.0718357,205.948668 95.6005,205.65 C95.1291643,205.351332 94.7651679,204.929003 94.5085,204.383 C94.251832,203.836997 94.1235,203.200004 94.1235,202.472 C94.1235,201.743996 94.2541654,201.102336 94.5155,200.547 C94.7768346,199.991664 95.1431643,199.560002 95.6145,199.252 C96.0858357,198.943998 96.6294969,198.79 97.2455,198.79 C97.7961694,198.79 98.2768313,198.911332 98.6875,199.154 C99.0981687,199.396668 99.4108323,199.737331 99.6255,200.176 L99.6255,198.958 L100.7455,198.958 Z M97.4695,205.16 C98.1601701,205.16 98.6921648,204.924336 99.0655,204.453 C99.4388352,203.981664 99.6255,203.312004 99.6255,202.444 C99.6255,201.575996 99.4388352,200.908669 99.0655,200.442 C98.6921648,199.975331 98.1601701,199.742 97.4695,199.742 C96.7788299,199.742 96.2398353,199.982331 95.8525,200.463 C95.4651647,200.943669 95.2715,201.613329 95.2715,202.472 C95.2715,203.330671 95.4628314,203.993331 95.8455,204.46 C96.2281686,204.926669 96.7694965,205.16 97.4695,205.16 Z M106.6905,198.79 C106.923834,198.79 107.138499,198.818 107.3345,198.874 L107.3065,199.91 C107.091832,199.835333 106.844501,199.798 106.5645,199.798 C105.883163,199.798 105.376835,200.010331 105.0455,200.435 C104.714165,200.859669 104.5485,201.37533 104.5485,201.982 L104.5485,206 L103.4145,206 L103.4145,200.932 C103.4145,200.203996 103.377167,199.546003 103.3025,198.958 L104.3805,198.958 L104.4925,200.26 C104.669834,199.783998 104.954498,199.420001 105.3465,199.168 C105.738502,198.915999 106.186497,198.79 106.6905,198.79 Z M108.9535,206 L108.9535,195.696 L110.0875,195.696 L110.0875,206 L108.9535,206 Z M118.9445,198.958 L115.6545,206.644 C115.309165,207.446671 114.875169,208.034665 114.3525,208.408 C113.829831,208.781335 113.185837,209.037999 112.4205,209.178 L112.1825,208.296 C112.84517,208.146666 113.346832,207.948335 113.6875,207.701 C114.028168,207.453665 114.310499,207.073336 114.5345,206.56 L114.8145,205.93 L111.8325,198.958 L113.0225,198.958 L115.4025,204.768 L117.8105,198.958 L118.9445,198.958 Z M131.0585,198.958 L131.0585,205.944 C131.0585,206.989339 130.790169,207.780331 130.2535,208.317 C129.716831,208.853669 128.925839,209.122 127.8805,209.122 C126.807161,209.122 125.883171,208.879336 125.1085,208.394 L125.3045,207.47 C125.752502,207.722001 126.174831,207.903999 126.5715,208.016 C126.968169,208.128001 127.404498,208.184 127.8805,208.184 C128.561837,208.184 129.075165,208.004335 129.4205,207.645 C129.765835,207.285665 129.9385,206.751337 129.9385,206.042 L129.9385,204.376 C129.723832,204.824002 129.408835,205.171665 128.9935,205.419 C128.578165,205.666335 128.085836,205.79 127.5165,205.79 C126.900497,205.79 126.352169,205.645335 125.8715,205.356 C125.390831,205.066665 125.019835,204.656003 124.7585,204.124 C124.497165,203.591997 124.3665,202.98067 124.3665,202.29 C124.3665,201.59933 124.497165,200.988003 124.7585,200.456 C125.019835,199.923997 125.390831,199.513335 125.8715,199.224 C126.352169,198.934665 126.900497,198.79 127.5165,198.79 C128.076503,198.79 128.564165,198.911332 128.9795,199.154 C129.394835,199.396668 129.709832,199.737331 129.9245,200.176 L129.9245,198.958 L131.0585,198.958 Z M127.7405,204.838 C128.421837,204.838 128.956165,204.611669 129.3435,204.159 C129.730835,203.706331 129.9245,203.083337 129.9245,202.29 C129.9245,201.496663 129.730835,200.873669 129.3435,200.421 C128.956165,199.968331 128.421837,199.742 127.7405,199.742 C127.04983,199.742 126.506169,199.968331 126.1095,200.421 C125.712831,200.873669 125.5145,201.496663 125.5145,202.29 C125.5145,203.083337 125.712831,203.706331 126.1095,204.159 C126.506169,204.611669 127.04983,204.838 127.7405,204.838 Z M139.6075,202.444 L134.4415,202.444 C134.450833,203.340004 134.658498,204.016664 135.0645,204.474 C135.470502,204.931336 136.060829,205.16 136.8355,205.16 C137.656837,205.16 138.41283,204.884669 139.1035,204.334 L139.4815,205.16 C139.173498,205.449335 138.779169,205.677999 138.2985,205.846 C137.817831,206.014001 137.325503,206.098 136.8215,206.098 C135.720161,206.098 134.856836,205.77367 134.2315,205.125 C133.606164,204.47633 133.2935,203.587339 133.2935,202.458 C133.2935,201.73933 133.433499,201.102336 133.7135,200.547 C133.993501,199.991664 134.385497,199.560002 134.8895,199.252 C135.393503,198.943998 135.967497,198.79 136.6115,198.79 C137.544838,198.79 138.277497,199.095664 138.8095,199.707 C139.341503,200.318336 139.6075,201.160661 139.6075,202.234 L139.6075,202.444 Z M136.6255,199.672 C136.037497,199.672 135.559169,199.849332 135.1905,200.204 C134.821831,200.558668 134.586167,201.057997 134.4835,201.702 L138.5855,201.702 C138.5295,201.03933 138.335835,200.535335 138.0045,200.19 C137.673165,199.844665 137.213503,199.672 136.6255,199.672 Z M145.3145,198.79 C147.003842,198.79 147.8485,199.718657 147.8485,201.576 L147.8485,206 L146.7145,206 L146.7145,201.632 C146.7145,200.978663 146.583835,200.500335 146.3225,200.197 C146.061165,199.893665 145.650503,199.742 145.0905,199.742 C144.437163,199.742 143.914502,199.942665 143.5225,200.344 C143.130498,200.745335 142.9345,201.286663 142.9345,201.968 L142.9345,206 L141.8005,206 L141.8005,200.932 C141.8005,200.203996 141.763167,199.546003 141.6885,198.958 L142.7665,198.958 L142.8785,200.218 C143.093168,199.760664 143.415165,199.408335 143.8445,199.161 C144.273835,198.913665 144.763831,198.79 145.3145,198.79 Z M156.3555,202.444 L151.1895,202.444 C151.198833,203.340004 151.406498,204.016664 151.8125,204.474 C152.218502,204.931336 152.808829,205.16 153.5835,205.16 C154.404837,205.16 155.16083,204.884669 155.8515,204.334 L156.2295,205.16 C155.921498,205.449335 155.527169,205.677999 155.0465,205.846 C154.565831,206.014001 154.073503,206.098 153.5695,206.098 C152.468161,206.098 151.604836,205.77367 150.9795,205.125 C150.354164,204.47633 150.0415,203.587339 150.0415,202.458 C150.0415,201.73933 150.181499,201.102336 150.4615,200.547 C150.741501,199.991664 151.133497,199.560002 151.6375,199.252 C152.141503,198.943998 152.715497,198.79 153.3595,198.79 C154.292838,198.79 155.025497,199.095664 155.5575,199.707 C156.089503,200.318336 156.3555,201.160661 156.3555,202.234 L156.3555,202.444 Z M153.3735,199.672 C152.785497,199.672 152.307169,199.849332 151.9385,200.204 C151.569831,200.558668 151.334167,201.057997 151.2315,201.702 L155.3335,201.702 C155.2775,201.03933 155.083835,200.535335 154.7525,200.19 C154.421165,199.844665 153.961503,199.672 153.3735,199.672 Z M161.8245,198.79 C162.057834,198.79 162.272499,198.818 162.4685,198.874 L162.4405,199.91 C162.225832,199.835333 161.978501,199.798 161.6985,199.798 C161.017163,199.798 160.510835,200.010331 160.1795,200.435 C159.848165,200.859669 159.6825,201.37533 159.6825,201.982 L159.6825,206 L158.5485,206 L158.5485,200.932 C158.5485,200.203996 158.511167,199.546003 158.4365,198.958 L159.5145,198.958 L159.6265,200.26 C159.803834,199.783998 160.088498,199.420001 160.4805,199.168 C160.872502,198.915999 161.320497,198.79 161.8245,198.79 Z M170.1495,198.958 L170.1495,206 L169.0295,206 L169.0295,204.726 C168.824166,205.164669 168.513835,205.502999 168.0985,205.741 C167.683165,205.979001 167.200169,206.098 166.6495,206.098 C166.024164,206.098 165.475836,205.948668 165.0045,205.65 C164.533164,205.351332 164.169168,204.929003 163.9125,204.383 C163.655832,203.836997 163.5275,203.200004 163.5275,202.472 C163.5275,201.743996 163.658165,201.102336 163.9195,200.547 C164.180835,199.991664 164.547164,199.560002 165.0185,199.252 C165.489836,198.943998 166.033497,198.79 166.6495,198.79 C167.200169,198.79 167.680831,198.911332 168.0915,199.154 C168.502169,199.396668 168.814832,199.737331 169.0295,200.176 L169.0295,198.958 L170.1495,198.958 Z M166.8735,205.16 C167.56417,205.16 168.096165,204.924336 168.4695,204.453 C168.842835,203.981664 169.0295,203.312004 169.0295,202.444 C169.0295,201.575996 168.842835,200.908669 168.4695,200.442 C168.096165,199.975331 167.56417,199.742 166.8735,199.742 C166.18283,199.742 165.643835,199.982331 165.2565,200.463 C164.869165,200.943669 164.6755,201.613329 164.6755,202.472 C164.6755,203.330671 164.866831,203.993331 165.2495,204.46 C165.632169,204.926669 166.173496,205.16 166.8735,205.16 Z M174.3305,199.854 L174.3305,203.704 C174.3305,204.226669 174.437832,204.592999 174.6525,204.803 C174.867168,205.013001 175.170498,205.118 175.5625,205.118 C175.823835,205.118 176.075832,205.076 176.3185,204.992 L176.3185,205.958 C176.029165,206.051334 175.702502,206.098 175.3385,206.098 C174.666497,206.098 174.141502,205.909002 173.7635,205.531 C173.385498,205.152998 173.1965,204.595337 173.1965,203.858 L173.1965,199.854 L171.8245,199.854 L171.8245,198.958 L173.1965,198.958 L173.1965,197.152 L174.3305,196.746 L174.3305,198.958 L176.3465,198.958 L176.3465,199.854 L174.3305,199.854 Z M184.0835,202.444 L178.9175,202.444 C178.926833,203.340004 179.134498,204.016664 179.5405,204.474 C179.946502,204.931336 180.536829,205.16 181.3115,205.16 C182.132837,205.16 182.88883,204.884669 183.5795,204.334 L183.9575,205.16 C183.649498,205.449335 183.255169,205.677999 182.7745,205.846 C182.293831,206.014001 181.801503,206.098 181.2975,206.098 C180.196161,206.098 179.332836,205.77367 178.7075,205.125 C178.082164,204.47633 177.7695,203.587339 177.7695,202.458 C177.7695,201.73933 177.909499,201.102336 178.1895,200.547 C178.469501,199.991664 178.861497,199.560002 179.3655,199.252 C179.869503,198.943998 180.443497,198.79 181.0875,198.79 C182.020838,198.79 182.753497,199.095664 183.2855,199.707 C183.817503,200.318336 184.0835,201.160661 184.0835,202.234 L184.0835,202.444 Z M181.1015,199.672 C180.513497,199.672 180.035169,199.849332 179.6665,200.204 C179.297831,200.558668 179.062167,201.057997 178.9595,201.702 L183.0615,201.702 C183.0055,201.03933 182.811835,200.535335 182.4805,200.19 C182.149165,199.844665 181.689503,199.672 181.1015,199.672 Z M196.6035,198.958 L196.6035,206 L195.4835,206 L195.4835,204.726 C195.278166,205.164669 194.967835,205.502999 194.5525,205.741 C194.137165,205.979001 193.654169,206.098 193.1035,206.098 C192.478164,206.098 191.929836,205.948668 191.4585,205.65 C190.987164,205.351332 190.623168,204.929003 190.3665,204.383 C190.109832,203.836997 189.9815,203.200004 189.9815,202.472 C189.9815,201.743996 190.112165,201.102336 190.3735,200.547 C190.634835,199.991664 191.001164,199.560002 191.4725,199.252 C191.943836,198.943998 192.487497,198.79 193.1035,198.79 C193.654169,198.79 194.134831,198.911332 194.5455,199.154 C194.956169,199.396668 195.268832,199.737331 195.4835,200.176 L195.4835,198.958 L196.6035,198.958 Z M193.3275,205.16 C194.01817,205.16 194.550165,204.924336 194.9235,204.453 C195.296835,203.981664 195.4835,203.312004 195.4835,202.444 C195.4835,201.575996 195.296835,200.908669 194.9235,200.442 C194.550165,199.975331 194.01817,199.742 193.3275,199.742 C192.63683,199.742 192.097835,199.982331 191.7105,200.463 C191.323165,200.943669 191.1295,201.613329 191.1295,202.472 C191.1295,203.330671 191.320831,203.993331 191.7035,204.46 C192.086169,204.926669 192.627496,205.16 193.3275,205.16 Z M202.7865,198.79 C204.475842,198.79 205.3205,199.718657 205.3205,201.576 L205.3205,206 L204.1865,206 L204.1865,201.632 C204.1865,200.978663 204.055835,200.500335 203.7945,200.197 C203.533165,199.893665 203.122503,199.742 202.5625,199.742 C201.909163,199.742 201.386502,199.942665 200.9945,200.344 C200.602498,200.745335 200.4065,201.286663 200.4065,201.968 L200.4065,206 L199.2725,206 L199.2725,200.932 C199.2725,200.203996 199.235167,199.546003 199.1605,198.958 L200.2385,198.958 L200.3505,200.218 C200.565168,199.760664 200.887165,199.408335 201.3165,199.161 C201.745835,198.913665 202.235831,198.79 202.7865,198.79 Z M49.132,220.444 L43.966,220.444 C43.9753334,221.340004 44.182998,222.016664 44.589,222.474 C44.995002,222.931336 45.5853295,223.16 46.36,223.16 C47.1813374,223.16 47.9373299,222.884669 48.628,222.334 L49.006,223.16 C48.6979985,223.449335 48.3036691,223.677999 47.823,223.846 C47.3423309,224.014001 46.8500025,224.098 46.346,224.098 C45.2446612,224.098 44.3813365,223.77367 43.756,223.125 C43.1306635,222.47633 42.818,221.587339 42.818,220.458 C42.818,219.73933 42.9579986,219.102336 43.238,218.547 C43.5180014,217.991664 43.9099975,217.560002 44.414,217.252 C44.9180025,216.943998 45.4919968,216.79 46.136,216.79 C47.069338,216.79 47.8019973,217.095664 48.334,217.707 C48.8660027,218.318336 49.132,219.160661 49.132,220.234 L49.132,220.444 Z M46.15,217.672 C45.5619971,217.672 45.0836685,217.849332 44.715,218.204 C44.3463315,218.558668 44.1106672,219.057997 44.008,219.702 L48.11,219.702 C48.0539997,219.03933 47.860335,218.535335 47.529,218.19 C47.197665,217.844665 46.7380029,217.672 46.15,217.672 Z M54.839,216.79 C56.5283418,216.79 57.373,217.718657 57.373,219.576 L57.373,224 L56.239,224 L56.239,219.632 C56.239,218.978663 56.1083346,218.500335 55.847,218.197 C55.5856654,217.893665 55.1750028,217.742 54.615,217.742 C53.9616634,217.742 53.439002,217.942665 53.047,218.344 C52.654998,218.745335 52.459,219.286663 52.459,219.968 L52.459,224 L51.325,224 L51.325,218.932 C51.325,218.203996 51.287667,217.546003 51.213,216.958 L52.291,216.958 L52.403,218.218 C52.6176677,217.760664 52.9396645,217.408335 53.369,217.161 C53.7983355,216.913665 54.2883306,216.79 54.839,216.79 Z M66.258,216.958 L66.258,223.944 C66.258,224.989339 65.9896693,225.780331 65.453,226.317 C64.9163306,226.853669 64.1253386,227.122 63.08,227.122 C62.0066613,227.122 61.0826705,226.879336 60.308,226.394 L60.504,225.47 C60.9520022,225.722001 61.3743313,225.903999 61.771,226.016 C62.1676686,226.128001 62.6039976,226.184 63.08,226.184 C63.7613367,226.184 64.2746649,226.004335 64.62,225.645 C64.9653351,225.285665 65.138,224.751337 65.138,224.042 L65.138,222.376 C64.9233323,222.824002 64.6083354,223.171665 64.193,223.419 C63.7776646,223.666335 63.2853362,223.79 62.716,223.79 C62.0999969,223.79 61.5516691,223.645335 61.071,223.356 C60.5903309,223.066665 60.2193346,222.656003 59.958,222.124 C59.6966654,221.591997 59.566,220.98067 59.566,220.29 C59.566,219.59933 59.6966654,218.988003 59.958,218.456 C60.2193346,217.923997 60.5903309,217.513335 61.071,217.224 C61.5516691,216.934665 62.0999969,216.79 62.716,216.79 C63.2760028,216.79 63.7636646,216.911332 64.179,217.154 C64.5943354,217.396668 64.9093323,217.737331 65.124,218.176 L65.124,216.958 L66.258,216.958 Z M62.94,222.838 C63.6213367,222.838 64.1556647,222.611669 64.543,222.159 C64.9303353,221.706331 65.124,221.083337 65.124,220.29 C65.124,219.496663 64.9303353,218.873669 64.543,218.421 C64.1556647,217.968331 63.6213367,217.742 62.94,217.742 C62.2493299,217.742 61.7056686,217.968331 61.309,218.421 C60.9123313,218.873669 60.714,219.496663 60.714,220.29 C60.714,221.083337 60.9123313,221.706331 61.309,222.159 C61.7056686,222.611669 62.2493299,222.838 62.94,222.838 Z M75.115,216.958 L75.115,224 L73.995,224 L73.995,222.726 C73.7896656,223.164669 73.4793354,223.502999 73.064,223.741 C72.6486646,223.979001 72.1656694,224.098 71.615,224.098 C70.9896635,224.098 70.4413357,223.948668 69.97,223.65 C69.4986643,223.351332 69.1346679,222.929003 68.878,222.383 C68.621332,221.836997 68.493,221.200004 68.493,220.472 C68.493,219.743996 68.6236654,219.102336 68.885,218.547 C69.1463346,217.991664 69.5126643,217.560002 69.984,217.252 C70.4553357,216.943998 70.9989969,216.79 71.615,216.79 C72.1656694,216.79 72.6463313,216.911332 73.057,217.154 C73.4676687,217.396668 73.7803323,217.737331 73.995,218.176 L73.995,216.958 L75.115,216.958 Z M71.839,223.16 C72.5296701,223.16 73.0616648,222.924336 73.435,222.453 C73.8083352,221.981664 73.995,221.312004 73.995,220.444 C73.995,219.575996 73.8083352,218.908669 73.435,218.442 C73.0616648,217.975331 72.5296701,217.742 71.839,217.742 C71.1483299,217.742 70.6093353,217.982331 70.222,218.463 C69.8346647,218.943669 69.641,219.613329 69.641,220.472 C69.641,221.330671 69.8323314,221.993331 70.215,222.46 C70.5976686,222.926669 71.1389965,223.16 71.839,223.16 Z M84.056,216.958 L84.056,223.944 C84.056,224.989339 83.7876693,225.780331 83.251,226.317 C82.7143306,226.853669 81.9233386,227.122 80.878,227.122 C79.8046613,227.122 78.8806705,226.879336 78.106,226.394 L78.302,225.47 C78.7500022,225.722001 79.1723313,225.903999 79.569,226.016 C79.9656686,226.128001 80.4019976,226.184 80.878,226.184 C81.5593367,226.184 82.0726649,226.004335 82.418,225.645 C82.7633351,225.285665 82.936,224.751337 82.936,224.042 L82.936,222.376 C82.7213323,222.824002 82.4063354,223.171665 81.991,223.419 C81.5756646,223.666335 81.0833362,223.79 80.514,223.79 C79.8979969,223.79 79.3496691,223.645335 78.869,223.356 C78.3883309,223.066665 78.0173346,222.656003 77.756,222.124 C77.4946654,221.591997 77.364,220.98067 77.364,220.29 C77.364,219.59933 77.4946654,218.988003 77.756,218.456 C78.0173346,217.923997 78.3883309,217.513335 78.869,217.224 C79.3496691,216.934665 79.8979969,216.79 80.514,216.79 C81.0740028,216.79 81.5616646,216.911332 81.977,217.154 C82.3923354,217.396668 82.7073323,217.737331 82.922,218.176 L82.922,216.958 L84.056,216.958 Z M80.738,222.838 C81.4193367,222.838 81.9536647,222.611669 82.341,222.159 C82.7283353,221.706331 82.922,221.083337 82.922,220.29 C82.922,219.496663 82.7283353,218.873669 82.341,218.421 C81.9536647,217.968331 81.4193367,217.742 80.738,217.742 C80.0473299,217.742 79.5036686,217.968331 79.107,218.421 C78.7103313,218.873669 78.512,219.496663 78.512,220.29 C78.512,221.083337 78.7103313,221.706331 79.107,222.159 C79.5036686,222.611669 80.0473299,222.838 80.738,222.838 Z M92.605,220.444 L87.439,220.444 C87.4483334,221.340004 87.655998,222.016664 88.062,222.474 C88.468002,222.931336 89.0583295,223.16 89.833,223.16 C90.6543374,223.16 91.4103299,222.884669 92.101,222.334 L92.479,223.16 C92.1709985,223.449335 91.7766691,223.677999 91.296,223.846 C90.8153309,224.014001 90.3230025,224.098 89.819,224.098 C88.7176612,224.098 87.8543365,223.77367 87.229,223.125 C86.6036635,222.47633 86.291,221.587339 86.291,220.458 C86.291,219.73933 86.4309986,219.102336 86.711,218.547 C86.9910014,217.991664 87.3829975,217.560002 87.887,217.252 C88.3910025,216.943998 88.9649968,216.79 89.609,216.79 C90.542338,216.79 91.2749973,217.095664 91.807,217.707 C92.3390027,218.318336 92.605,219.160661 92.605,220.234 L92.605,220.444 Z M89.623,217.672 C89.0349971,217.672 88.5566685,217.849332 88.188,218.204 C87.8193315,218.558668 87.5836672,219.057997 87.481,219.702 L91.583,219.702 C91.5269997,219.03933 91.333335,218.535335 91.002,218.19 C90.670665,217.844665 90.2110029,217.672 89.623,217.672 Z M102.61,216.79 C104.168674,216.79 104.948,217.718657 104.948,219.576 L104.948,224 L103.814,224 L103.814,219.632 C103.814,218.96933 103.699668,218.488668 103.471,218.19 C103.242332,217.891332 102.871336,217.742 102.358,217.742 C101.760664,217.742 101.294002,217.942665 100.958,218.344 C100.621998,218.745335 100.454,219.29133 100.454,219.982 L100.454,224 L99.32,224 L99.32,219.632 C99.32,218.978663 99.2033345,218.500335 98.97,218.197 C98.7366655,217.893665 98.3633359,217.742 97.85,217.742 C97.2526637,217.742 96.7836684,217.942665 96.443,218.344 C96.1023316,218.745335 95.932,219.29133 95.932,219.982 L95.932,224 L94.798,224 L94.798,218.932 C94.798,218.203996 94.760667,217.546003 94.686,216.958 L95.764,216.958 L95.876,218.19 C96.072001,217.741998 96.3636647,217.396668 96.751,217.154 C97.1383353,216.911332 97.5886641,216.79 98.102,216.79 C98.6620028,216.79 99.1193316,216.901999 99.474,217.126 C99.8286684,217.350001 100.089999,217.695331 100.258,218.162 C100.472668,217.741998 100.787665,217.408335 101.203,217.161 C101.618335,216.913665 102.087331,216.79 102.61,216.79 Z M113.469,220.444 L108.303,220.444 C108.312333,221.340004 108.519998,222.016664 108.926,222.474 C109.332002,222.931336 109.922329,223.16 110.697,223.16 C111.518337,223.16 112.27433,222.884669 112.965,222.334 L113.343,223.16 C113.034998,223.449335 112.640669,223.677999 112.16,223.846 C111.679331,224.014001 111.187003,224.098 110.683,224.098 C109.581661,224.098 108.718336,223.77367 108.093,223.125 C107.467664,222.47633 107.155,221.587339 107.155,220.458 C107.155,219.73933 107.294999,219.102336 107.575,218.547 C107.855001,217.991664 108.246997,217.560002 108.751,217.252 C109.255003,216.943998 109.828997,216.79 110.473,216.79 C111.406338,216.79 112.138997,217.095664 112.671,217.707 C113.203003,218.318336 113.469,219.160661 113.469,220.234 L113.469,220.444 Z M110.487,217.672 C109.898997,217.672 109.420669,217.849332 109.052,218.204 C108.683331,218.558668 108.447667,219.057997 108.345,219.702 L112.447,219.702 C112.391,219.03933 112.197335,218.535335 111.866,218.19 C111.534665,217.844665 111.075003,217.672 110.487,217.672 Z M119.176,216.79 C120.865342,216.79 121.71,217.718657 121.71,219.576 L121.71,224 L120.576,224 L120.576,219.632 C120.576,218.978663 120.445335,218.500335 120.184,218.197 C119.922665,217.893665 119.512003,217.742 118.952,217.742 C118.298663,217.742 117.776002,217.942665 117.384,218.344 C116.991998,218.745335 116.796,219.286663 116.796,219.968 L116.796,224 L115.662,224 L115.662,218.932 C115.662,218.203996 115.624667,217.546003 115.55,216.958 L116.628,216.958 L116.74,218.218 C116.954668,217.760664 117.276665,217.408335 117.706,217.161 C118.135335,216.913665 118.625331,216.79 119.176,216.79 Z M125.835,217.854 L125.835,221.704 C125.835,222.226669 125.942332,222.592999 126.157,222.803 C126.371668,223.013001 126.674998,223.118 127.067,223.118 C127.328335,223.118 127.580332,223.076 127.823,222.992 L127.823,223.958 C127.533665,224.051334 127.207002,224.098 126.843,224.098 C126.170997,224.098 125.646002,223.909002 125.268,223.531 C124.889998,223.152998 124.701,222.595337 124.701,221.858 L124.701,217.854 L123.329,217.854 L123.329,216.958 L124.701,216.958 L124.701,215.152 L125.835,214.746 L125.835,216.958 L127.851,216.958 L127.851,217.854 L125.835,217.854 Z M137.095,216.79 C137.328334,216.79 137.542999,216.818 137.739,216.874 L137.711,217.91 C137.496332,217.835333 137.249001,217.798 136.969,217.798 C136.287663,217.798 135.781335,218.010331 135.45,218.435 C135.118665,218.859669 134.953,219.37533 134.953,219.982 L134.953,224 L133.819,224 L133.819,218.932 C133.819,218.203996 133.781667,217.546003 133.707,216.958 L134.785,216.958 L134.897,218.26 C135.074334,217.783998 135.358998,217.420001 135.751,217.168 C136.143002,216.915999 136.590997,216.79 137.095,216.79 Z M145.42,216.958 L145.42,224 L144.3,224 L144.3,222.726 C144.094666,223.164669 143.784335,223.502999 143.369,223.741 C142.953665,223.979001 142.470669,224.098 141.92,224.098 C141.294664,224.098 140.746336,223.948668 140.275,223.65 C139.803664,223.351332 139.439668,222.929003 139.183,222.383 C138.926332,221.836997 138.798,221.200004 138.798,220.472 C138.798,219.743996 138.928665,219.102336 139.19,218.547 C139.451335,217.991664 139.817664,217.560002 140.289,217.252 C140.760336,216.943998 141.303997,216.79 141.92,216.79 C142.470669,216.79 142.951331,216.911332 143.362,217.154 C143.772669,217.396668 144.085332,217.737331 144.3,218.176 L144.3,216.958 L145.42,216.958 Z M142.144,223.16 C142.83467,223.16 143.366665,222.924336 143.74,222.453 C144.113335,221.981664 144.3,221.312004 144.3,220.444 C144.3,219.575996 144.113335,218.908669 143.74,218.442 C143.366665,217.975331 142.83467,217.742 142.144,217.742 C141.45333,217.742 140.914335,217.982331 140.527,218.463 C140.139665,218.943669 139.946,219.613329 139.946,220.472 C139.946,221.330671 140.137331,221.993331 140.52,222.46 C140.902669,222.926669 141.443996,223.16 142.144,223.16 Z M149.601,217.854 L149.601,221.704 C149.601,222.226669 149.708332,222.592999 149.923,222.803 C150.137668,223.013001 150.440998,223.118 150.833,223.118 C151.094335,223.118 151.346332,223.076 151.589,222.992 L151.589,223.958 C151.299665,224.051334 150.973002,224.098 150.609,224.098 C149.936997,224.098 149.412002,223.909002 149.034,223.531 C148.655998,223.152998 148.467,222.595337 148.467,221.858 L148.467,217.854 L147.095,217.854 L147.095,216.958 L148.467,216.958 L148.467,215.152 L149.601,214.746 L149.601,216.958 L151.617,216.958 L151.617,217.854 L149.601,217.854 Z M159.354,220.444 L154.188,220.444 C154.197333,221.340004 154.404998,222.016664 154.811,222.474 C155.217002,222.931336 155.807329,223.16 156.582,223.16 C157.403337,223.16 158.15933,222.884669 158.85,222.334 L159.228,223.16 C158.919998,223.449335 158.525669,223.677999 158.045,223.846 C157.564331,224.014001 157.072003,224.098 156.568,224.098 C155.466661,224.098 154.603336,223.77367 153.978,223.125 C153.352664,222.47633 153.04,221.587339 153.04,220.458 C153.04,219.73933 153.179999,219.102336 153.46,218.547 C153.740001,217.991664 154.131997,217.560002 154.636,217.252 C155.140003,216.943998 155.713997,216.79 156.358,216.79 C157.291338,216.79 158.023997,217.095664 158.556,217.707 C159.088003,218.318336 159.354,219.160661 159.354,220.234 L159.354,220.444 Z M156.372,217.672 C155.783997,217.672 155.305669,217.849332 154.937,218.204 C154.568331,218.558668 154.332667,219.057997 154.23,219.702 L158.332,219.702 C158.276,219.03933 158.082335,218.535335 157.751,218.19 C157.419665,217.844665 156.960003,217.672 156.372,217.672 Z M167.184,217.854 L167.184,221.704 C167.184,222.226669 167.291332,222.592999 167.506,222.803 C167.720668,223.013001 168.023998,223.118 168.416,223.118 C168.677335,223.118 168.929332,223.076 169.172,222.992 L169.172,223.958 C168.882665,224.051334 168.556002,224.098 168.192,224.098 C167.519997,224.098 166.995002,223.909002 166.617,223.531 C166.238998,223.152998 166.05,222.595337 166.05,221.858 L166.05,217.854 L164.678,217.854 L164.678,216.958 L166.05,216.958 L166.05,215.152 L167.184,214.746 L167.184,216.958 L169.2,216.958 L169.2,217.854 L167.184,217.854 Z M174.557,216.79 C176.246342,216.79 177.091,217.718657 177.091,219.576 L177.091,224 L175.957,224 L175.957,219.632 C175.957,218.978663 175.826335,218.500335 175.565,218.197 C175.303665,217.893665 174.893003,217.742 174.333,217.742 C173.679663,217.742 173.157002,217.942665 172.765,218.344 C172.372998,218.745335 172.177,219.286663 172.177,219.968 L172.177,224 L171.043,224 L171.043,213.696 L172.177,213.696 L172.177,218.106 C172.401001,217.676665 172.720665,217.350001 173.136,217.126 C173.551335,216.901999 174.024997,216.79 174.557,216.79 Z M185.906,216.958 L185.906,224 L184.786,224 L184.786,222.726 C184.580666,223.164669 184.270335,223.502999 183.855,223.741 C183.439665,223.979001 182.956669,224.098 182.406,224.098 C181.780664,224.098 181.232336,223.948668 180.761,223.65 C180.289664,223.351332 179.925668,222.929003 179.669,222.383 C179.412332,221.836997 179.284,221.200004 179.284,220.472 C179.284,219.743996 179.414665,219.102336 179.676,218.547 C179.937335,217.991664 180.303664,217.560002 180.775,217.252 C181.246336,216.943998 181.789997,216.79 182.406,216.79 C182.956669,216.79 183.437331,216.911332 183.848,217.154 C184.258669,217.396668 184.571332,217.737331 184.786,218.176 L184.786,216.958 L185.906,216.958 Z M182.63,223.16 C183.32067,223.16 183.852665,222.924336 184.226,222.453 C184.599335,221.981664 184.786,221.312004 184.786,220.444 C184.786,219.575996 184.599335,218.908669 184.226,218.442 C183.852665,217.975331 183.32067,217.742 182.63,217.742 C181.93933,217.742 181.400335,217.982331 181.013,218.463 C180.625665,218.943669 180.432,219.613329 180.432,220.472 C180.432,221.330671 180.623331,221.993331 181.006,222.46 C181.388669,222.926669 181.929996,223.16 182.63,223.16 Z M190.087,217.854 L190.087,221.704 C190.087,222.226669 190.194332,222.592999 190.409,222.803 C190.623668,223.013001 190.926998,223.118 191.319,223.118 C191.580335,223.118 191.832332,223.076 192.075,222.992 L192.075,223.958 C191.785665,224.051334 191.459002,224.098 191.095,224.098 C190.422997,224.098 189.898002,223.909002 189.52,223.531 C189.141998,223.152998 188.953,222.595337 188.953,221.858 L188.953,217.854 L187.581,217.854 L187.581,216.958 L188.953,216.958 L188.953,215.152 L190.087,214.746 L190.087,216.958 L192.103,216.958 L192.103,217.854 L190.087,217.854 Z M57.9515,242 L57.9515,234.958 L59.0855,234.958 L59.0855,242 L57.9515,242 Z M57.8395,231.976 L59.2255,231.976 L59.2255,233.264 L57.8395,233.264 L57.8395,231.976 Z M64.1345,242.098 C62.9491607,242.098 62.0111701,241.79467 61.3205,241.188 L61.6985,240.348 C62.0811686,240.646668 62.468498,240.861333 62.8605,240.992 C63.252502,241.122667 63.6911642,241.188 64.1765,241.188 C64.7085027,241.188 65.1121653,241.097001 65.3875,240.915 C65.6628347,240.732999 65.8005,240.469335 65.8005,240.124 C65.8005,239.843999 65.7071676,239.620001 65.5205,239.452 C65.3338324,239.283999 65.0258355,239.153334 64.5965,239.06 L63.4065,238.78 C62.8184971,238.649333 62.3635016,238.416002 62.0415,238.08 C61.7194984,237.743998 61.5585,237.342669 61.5585,236.876 C61.5585,236.259997 61.8058309,235.758335 62.3005,235.371 C62.7951691,234.983665 63.4484959,234.79 64.2605,234.79 C64.7551691,234.79 65.2218311,234.869333 65.6605,235.028 C66.0991689,235.186667 66.4678318,235.415332 66.7665,235.714 L66.3885,236.54 C65.72583,235.989331 65.0165038,235.714 64.2605,235.714 C63.7564975,235.714 63.3668347,235.809666 63.0915,236.001 C62.8161653,236.192334 62.6785,236.460665 62.6785,236.806 C62.6785,237.095335 62.7648325,237.323999 62.9375,237.492 C63.1101675,237.660001 63.3878314,237.790666 63.7705,237.884 L64.9605,238.178 C65.6138366,238.327334 66.0991651,238.558332 66.4165,238.871 C66.7338349,239.183668 66.8925,239.591997 66.8925,240.096 C66.8925,240.70267 66.6451691,241.187998 66.1505,241.552 C65.6558309,241.916002 64.9838376,242.098 64.1345,242.098 Z M79.4965,234.958 L79.4965,242 L78.3765,242 L78.3765,240.726 C78.1711656,241.164669 77.8608354,241.502999 77.4455,241.741 C77.0301646,241.979001 76.5471694,242.098 75.9965,242.098 C75.3711635,242.098 74.8228357,241.948668 74.3515,241.65 C73.8801643,241.351332 73.5161679,240.929003 73.2595,240.383 C73.002832,239.836997 72.8745,239.200004 72.8745,238.472 C72.8745,237.743996 73.0051654,237.102336 73.2665,236.547 C73.5278346,235.991664 73.8941643,235.560002 74.3655,235.252 C74.8368357,234.943998 75.3804969,234.79 75.9965,234.79 C76.5471694,234.79 77.0278313,234.911332 77.4385,235.154 C77.8491687,235.396668 78.1618323,235.737331 78.3765,236.176 L78.3765,234.958 L79.4965,234.958 Z M76.2205,241.16 C76.9111701,241.16 77.4431648,240.924336 77.8165,240.453 C78.1898352,239.981664 78.3765,239.312004 78.3765,238.444 C78.3765,237.575996 78.1898352,236.908669 77.8165,236.442 C77.4431648,235.975331 76.9111701,235.742 76.2205,235.742 C75.5298299,235.742 74.9908353,235.982331 74.6035,236.463 C74.2161647,236.943669 74.0225,237.613329 74.0225,238.472 C74.0225,239.330671 74.2138314,239.993331 74.5965,240.46 C74.9791686,240.926669 75.5204965,241.16 76.2205,241.16 Z M85.6795,234.79 C86.2955031,234.79 86.8414976,234.939332 87.3175,235.238 C87.7935024,235.536668 88.1621654,235.958997 88.4235,236.505 C88.6848346,237.051003 88.8155,237.687996 88.8155,238.416 C88.8155,239.144004 88.6848346,239.785664 88.4235,240.341 C88.1621654,240.896336 87.7935024,241.327998 87.3175,241.636 C86.8414976,241.944002 86.2955031,242.098 85.6795,242.098 C85.1288306,242.098 84.6481687,241.976668 84.2375,241.734 C83.8268313,241.491332 83.5141677,241.146002 83.2995,240.698 L83.2995,242 L82.1655,242 L82.1655,231.696 L83.2995,231.696 L83.2995,236.204 C83.5048344,235.746664 83.8151646,235.396668 84.2305,235.154 C84.6458354,234.911332 85.1288306,234.79 85.6795,234.79 Z M85.4695,241.16 C86.1508367,241.16 86.6828314,240.919669 87.0655,240.439 C87.4481686,239.958331 87.6395,239.284004 87.6395,238.416 C87.6395,237.566662 87.4505019,236.908669 87.0725,236.442 C86.6944981,235.975331 86.1601701,235.742 85.4695,235.742 C84.7694965,235.742 84.2328352,235.975331 83.8595,236.442 C83.4861648,236.908669 83.2995,237.575996 83.2995,238.444 C83.2995,239.312004 83.4861648,239.981664 83.8595,240.453 C84.2328352,240.924336 84.7694965,241.16 85.4695,241.16 Z M93.9485,242.098 C93.28583,242.098 92.7025025,241.948668 92.1985,241.65 C91.6944975,241.351332 91.3048347,240.926669 91.0295,240.376 C90.7541653,239.825331 90.6165,239.181337 90.6165,238.444 C90.6165,237.706663 90.7541653,237.062669 91.0295,236.512 C91.3048347,235.961331 91.6944975,235.536668 92.1985,235.238 C92.7025025,234.939332 93.28583,234.79 93.9485,234.79 C94.61117,234.79 95.1944975,234.939332 95.6985,235.238 C96.2025025,235.536668 96.5921653,235.961331 96.8675,236.512 C97.1428347,237.062669 97.2805,237.706663 97.2805,238.444 C97.2805,239.181337 97.1428347,239.825331 96.8675,240.376 C96.5921653,240.926669 96.2025025,241.351332 95.6985,241.65 C95.1944975,241.948668 94.61117,242.098 93.9485,242.098 Z M93.9485,241.16 C94.6485035,241.16 95.1851648,240.929002 95.5585,240.467 C95.9318352,240.004998 96.1185,239.330671 96.1185,238.444 C96.1185,237.585329 95.9271686,236.920336 95.5445,236.449 C95.1618314,235.977664 94.6298367,235.742 93.9485,235.742 C93.2578299,235.742 92.7211686,235.977664 92.3385,236.449 C91.9558314,236.920336 91.7645,237.585329 91.7645,238.444 C91.7645,239.330671 91.9534981,240.004998 92.3315,240.467 C92.7095019,240.929002 93.2484965,241.16 93.9485,241.16 Z M104.4855,234.972 L105.6195,234.972 L102.5815,242 L101.5035,242 L98.5075,234.972 L99.6975,234.972 L102.0775,240.768 L104.4855,234.972 Z M113.1465,238.444 L107.9805,238.444 C107.989833,239.340004 108.197498,240.016664 108.6035,240.474 C109.009502,240.931336 109.599829,241.16 110.3745,241.16 C111.195837,241.16 111.95183,240.884669 112.6425,240.334 L113.0205,241.16 C112.712498,241.449335 112.318169,241.677999 111.8375,241.846 C111.356831,242.014001 110.864503,242.098 110.3605,242.098 C109.259161,242.098 108.395836,241.77367 107.7705,241.125 C107.145164,240.47633 106.8325,239.587339 106.8325,238.458 C106.8325,237.73933 106.972499,237.102336 107.2525,236.547 C107.532501,235.991664 107.924497,235.560002 108.4285,235.252 C108.932503,234.943998 109.506497,234.79 110.1505,234.79 C111.083838,234.79 111.816497,235.095664 112.3485,235.707 C112.880503,236.318336 113.1465,237.160661 113.1465,238.234 L113.1465,238.444 Z M110.1645,235.672 C109.576497,235.672 109.098169,235.849332 108.7295,236.204 C108.360831,236.558668 108.125167,237.057997 108.0225,237.702 L112.1245,237.702 C112.0685,237.03933 111.874835,236.535335 111.5435,236.19 C111.212165,235.844665 110.752503,235.672 110.1645,235.672 Z M125.6665,234.958 L125.6665,242 L124.5465,242 L124.5465,240.726 C124.341166,241.164669 124.030835,241.502999 123.6155,241.741 C123.200165,241.979001 122.717169,242.098 122.1665,242.098 C121.541164,242.098 120.992836,241.948668 120.5215,241.65 C120.050164,241.351332 119.686168,240.929003 119.4295,240.383 C119.172832,239.836997 119.0445,239.200004 119.0445,238.472 C119.0445,237.743996 119.175165,237.102336 119.4365,236.547 C119.697835,235.991664 120.064164,235.560002 120.5355,235.252 C121.006836,234.943998 121.550497,234.79 122.1665,234.79 C122.717169,234.79 123.197831,234.911332 123.6085,235.154 C124.019169,235.396668 124.331832,235.737331 124.5465,236.176 L124.5465,234.958 L125.6665,234.958 Z M122.3905,241.16 C123.08117,241.16 123.613165,240.924336 123.9865,240.453 C124.359835,239.981664 124.5465,239.312004 124.5465,238.444 C124.5465,237.575996 124.359835,236.908669 123.9865,236.442 C123.613165,235.975331 123.08117,235.742 122.3905,235.742 C121.69983,235.742 121.160835,235.982331 120.7735,236.463 C120.386165,236.943669 120.1925,237.613329 120.1925,238.472 C120.1925,239.330671 120.383831,239.993331 120.7665,240.46 C121.149169,240.926669 121.690496,241.16 122.3905,241.16 Z M133.3895,234.972 L134.5235,234.972 L131.4855,242 L130.4075,242 L127.4115,234.972 L128.6015,234.972 L130.9815,240.768 L133.3895,234.972 Z M142.0505,238.444 L136.8845,238.444 C136.893833,239.340004 137.101498,240.016664 137.5075,240.474 C137.913502,240.931336 138.503829,241.16 139.2785,241.16 C140.099837,241.16 140.85583,240.884669 141.5465,240.334 L141.9245,241.16 C141.616498,241.449335 141.222169,241.677999 140.7415,241.846 C140.260831,242.014001 139.768503,242.098 139.2645,242.098 C138.163161,242.098 137.299836,241.77367 136.6745,241.125 C136.049164,240.47633 135.7365,239.587339 135.7365,238.458 C135.7365,237.73933 135.876499,237.102336 136.1565,236.547 C136.436501,235.991664 136.828497,235.560002 137.3325,235.252 C137.836503,234.943998 138.410497,234.79 139.0545,234.79 C139.987838,234.79 140.720497,235.095664 141.2525,235.707 C141.784503,236.318336 142.0505,237.160661 142.0505,238.234 L142.0505,238.444 Z M139.0685,235.672 C138.480497,235.672 138.002169,235.849332 137.6335,236.204 C137.264831,236.558668 137.029167,237.057997 136.9265,237.702 L141.0285,237.702 C140.9725,237.03933 140.778835,236.535335 140.4475,236.19 C140.116165,235.844665 139.656503,235.672 139.0685,235.672 Z M147.5195,234.79 C147.752834,234.79 147.967499,234.818 148.1635,234.874 L148.1355,235.91 C147.920832,235.835333 147.673501,235.798 147.3935,235.798 C146.712163,235.798 146.205835,236.010331 145.8745,236.435 C145.543165,236.859669 145.3775,237.37533 145.3775,237.982 L145.3775,242 L144.2435,242 L144.2435,236.932 C144.2435,236.203996 144.206167,235.546003 144.1315,234.958 L145.2095,234.958 L145.3215,236.26 C145.498834,235.783998 145.783498,235.420001 146.1755,235.168 C146.567502,234.915999 147.015497,234.79 147.5195,234.79 Z M155.8445,234.958 L155.8445,242 L154.7245,242 L154.7245,240.726 C154.519166,241.164669 154.208835,241.502999 153.7935,241.741 C153.378165,241.979001 152.895169,242.098 152.3445,242.098 C151.719164,242.098 151.170836,241.948668 150.6995,241.65 C150.228164,241.351332 149.864168,240.929003 149.6075,240.383 C149.350832,239.836997 149.2225,239.200004 149.2225,238.472 C149.2225,237.743996 149.353165,237.102336 149.6145,236.547 C149.875835,235.991664 150.242164,235.560002 150.7135,235.252 C151.184836,234.943998 151.728497,234.79 152.3445,234.79 C152.895169,234.79 153.375831,234.911332 153.7865,235.154 C154.197169,235.396668 154.509832,235.737331 154.7245,236.176 L154.7245,234.958 L155.8445,234.958 Z M152.5685,241.16 C153.25917,241.16 153.791165,240.924336 154.1645,240.453 C154.537835,239.981664 154.7245,239.312004 154.7245,238.444 C154.7245,237.575996 154.537835,236.908669 154.1645,236.442 C153.791165,235.975331 153.25917,235.742 152.5685,235.742 C151.87783,235.742 151.338835,235.982331 150.9515,236.463 C150.564165,236.943669 150.3705,237.613329 150.3705,238.472 C150.3705,239.330671 150.561831,239.993331 150.9445,240.46 C151.327169,240.926669 151.868496,241.16 152.5685,241.16 Z M164.7855,234.958 L164.7855,241.944 C164.7855,242.989339 164.517169,243.780331 163.9805,244.317 C163.443831,244.853669 162.652839,245.122 161.6075,245.122 C160.534161,245.122 159.610171,244.879336 158.8355,244.394 L159.0315,243.47 C159.479502,243.722001 159.901831,243.903999 160.2985,244.016 C160.695169,244.128001 161.131498,244.184 161.6075,244.184 C162.288837,244.184 162.802165,244.004335 163.1475,243.645 C163.492835,243.285665 163.6655,242.751337 163.6655,242.042 L163.6655,240.376 C163.450832,240.824002 163.135835,241.171665 162.7205,241.419 C162.305165,241.666335 161.812836,241.79 161.2435,241.79 C160.627497,241.79 160.079169,241.645335 159.5985,241.356 C159.117831,241.066665 158.746835,240.656003 158.4855,240.124 C158.224165,239.591997 158.0935,238.98067 158.0935,238.29 C158.0935,237.59933 158.224165,236.988003 158.4855,236.456 C158.746835,235.923997 159.117831,235.513335 159.5985,235.224 C160.079169,234.934665 160.627497,234.79 161.2435,234.79 C161.803503,234.79 162.291165,234.911332 162.7065,235.154 C163.121835,235.396668 163.436832,235.737331 163.6515,236.176 L163.6515,234.958 L164.7855,234.958 Z M161.4675,240.838 C162.148837,240.838 162.683165,240.611669 163.0705,240.159 C163.457835,239.706331 163.6515,239.083337 163.6515,238.29 C163.6515,237.496663 163.457835,236.873669 163.0705,236.421 C162.683165,235.968331 162.148837,235.742 161.4675,235.742 C160.77683,235.742 160.233169,235.968331 159.8365,236.421 C159.439831,236.873669 159.2415,237.496663 159.2415,238.29 C159.2415,239.083337 159.439831,239.706331 159.8365,240.159 C160.233169,240.611669 160.77683,240.838 161.4675,240.838 Z M173.3345,238.444 L168.1685,238.444 C168.177833,239.340004 168.385498,240.016664 168.7915,240.474 C169.197502,240.931336 169.787829,241.16 170.5625,241.16 C171.383837,241.16 172.13983,240.884669 172.8305,240.334 L173.2085,241.16 C172.900498,241.449335 172.506169,241.677999 172.0255,241.846 C171.544831,242.014001 171.052503,242.098 170.5485,242.098 C169.447161,242.098 168.583836,241.77367 167.9585,241.125 C167.333164,240.47633 167.0205,239.587339 167.0205,238.458 C167.0205,237.73933 167.160499,237.102336 167.4405,236.547 C167.720501,235.991664 168.112497,235.560002 168.6165,235.252 C169.120503,234.943998 169.694497,234.79 170.3385,234.79 C171.271838,234.79 172.004497,235.095664 172.5365,235.707 C173.068503,236.318336 173.3345,237.160661 173.3345,238.234 L173.3345,238.444 Z M170.3525,235.672 C169.764497,235.672 169.286169,235.849332 168.9175,236.204 C168.548831,236.558668 168.313167,237.057997 168.2105,237.702 L172.3125,237.702 C172.2565,237.03933 172.062835,236.535335 171.7315,236.19 C171.400165,235.844665 170.940503,235.672 170.3525,235.672 Z M175.3315,240.558 L176.7735,240.558 L176.7735,242 L175.3315,242 L175.3315,240.558 Z" id="EliteInfuencerscreatecontentthatstandsoutandregularlygenerateanengagementratethatisaboveaverage." fill="#545454" fill-rule="nonzero"></path>
        <path d="M79.363,130 L79.363,120.032 L86.027,120.032 L86.027,121.46 L81.127,121.46 L81.127,124.218 L85.733,124.218 L85.733,125.646 L81.127,125.646 L81.127,128.572 L86.027,128.572 L86.027,130 L79.363,130 Z M94.87,120.032 L96.564,120.032 L96.564,130 L95.22,130 L89.844,123.014 L89.844,130 L88.164,130 L88.164,120.032 L89.508,120.032 L94.87,127.004 L94.87,120.032 Z M107.521,124.61 L107.521,129.398 C107.063664,129.622001 106.513003,129.799333 105.869,129.93 C105.224997,130.060667 104.567003,130.126 103.895,130.126 C102.868328,130.126 101.977004,129.920669 101.221,129.51 C100.464996,129.099331 99.8863353,128.511337 99.485,127.746 C99.0836647,126.980663 98.883,126.066005 98.883,125.002 C98.883,123.956661 99.0836647,123.051337 99.485,122.286 C99.8863353,121.520663 100.457996,120.932669 101.2,120.522 C101.942004,120.111331 102.812328,119.906 103.811,119.906 C104.511003,119.906 105.166664,120.008666 105.778,120.214 C106.389336,120.419334 106.900331,120.708665 107.311,121.082 L106.695,122.398 C106.228331,122.033998 105.771002,121.772667 105.323,121.614 C104.874998,121.455333 104.385003,121.376 103.853,121.376 C102.826328,121.376 102.049336,121.683997 101.522,122.3 C100.994664,122.916003 100.731,123.816661 100.731,125.002 C100.731,126.224673 101.001664,127.14633 101.543,127.767 C102.084336,128.38767 102.891661,128.698 103.965,128.698 C104.618337,128.698 105.26233,128.609334 105.897,128.432 L105.897,125.912 L103.741,125.912 L103.741,124.61 L107.521,124.61 Z M117.638,130 L116.644,127.662 L111.772,127.662 L110.764,130 L108.944,130 L113.452,120.032 L114.922,120.032 L119.444,130 L117.638,130 Z M112.374,126.262 L116.042,126.262 L114.208,121.992 L112.374,126.262 Z M129.001,124.61 L129.001,129.398 C128.543664,129.622001 127.993003,129.799333 127.349,129.93 C126.704997,130.060667 126.047003,130.126 125.375,130.126 C124.348328,130.126 123.457004,129.920669 122.701,129.51 C121.944996,129.099331 121.366335,128.511337 120.965,127.746 C120.563665,126.980663 120.363,126.066005 120.363,125.002 C120.363,123.956661 120.563665,123.051337 120.965,122.286 C121.366335,121.520663 121.937996,120.932669 122.68,120.522 C123.422004,120.111331 124.292328,119.906 125.291,119.906 C125.991003,119.906 126.646664,120.008666 127.258,120.214 C127.869336,120.419334 128.380331,120.708665 128.791,121.082 L128.175,122.398 C127.708331,122.033998 127.251002,121.772667 126.803,121.614 C126.354998,121.455333 125.865003,121.376 125.333,121.376 C124.306328,121.376 123.529336,121.683997 123.002,122.3 C122.474664,122.916003 122.211,123.816661 122.211,125.002 C122.211,126.224673 122.481664,127.14633 123.023,127.767 C123.564336,128.38767 124.371661,128.698 125.445,128.698 C126.098337,128.698 126.74233,128.609334 127.377,128.432 L127.377,125.912 L125.221,125.912 L125.221,124.61 L129.001,124.61 Z M131.502,130 L131.502,120.032 L133.308,120.032 L133.308,130 L131.502,130 Z M142.641,120.032 L144.335,120.032 L144.335,130 L142.991,130 L137.615,123.014 L137.615,130 L135.935,130 L135.935,120.032 L137.279,120.032 L142.641,127.004 L142.641,120.032 Z M155.292,124.61 L155.292,129.398 C154.834664,129.622001 154.284003,129.799333 153.64,129.93 C152.995997,130.060667 152.338003,130.126 151.666,130.126 C150.639328,130.126 149.748004,129.920669 148.992,129.51 C148.235996,129.099331 147.657335,128.511337 147.256,127.746 C146.854665,126.980663 146.654,126.066005 146.654,125.002 C146.654,123.956661 146.854665,123.051337 147.256,122.286 C147.657335,121.520663 148.228996,120.932669 148.971,120.522 C149.713004,120.111331 150.583328,119.906 151.582,119.906 C152.282003,119.906 152.937664,120.008666 153.549,120.214 C154.160336,120.419334 154.671331,120.708665 155.082,121.082 L154.466,122.398 C153.999331,122.033998 153.542002,121.772667 153.094,121.614 C152.645998,121.455333 152.156003,121.376 151.624,121.376 C150.597328,121.376 149.820336,121.683997 149.293,122.3 C148.765664,122.916003 148.502,123.816661 148.502,125.002 C148.502,126.224673 148.772664,127.14633 149.314,127.767 C149.855336,128.38767 150.662661,128.698 151.736,128.698 C152.389337,128.698 153.03333,128.609334 153.668,128.432 L153.668,125.912 L151.512,125.912 L151.512,124.61 L155.292,124.61 Z" id="ENGAGING" fill="#000000" fill-rule="nonzero"></path>
    </g>
</svg>