<?xml version="1.0" encoding="UTF-8"?>
<svg width="235px" height="295px" viewBox="0 0 235 295" version="1.1" xmlns="http://www.w3.org/2000/svg" xmlns:xlink="http://www.w3.org/1999/xlink">
    <!-- Generator: Sketch 55.2 (78181) - https://sketchapp.com -->
    <title>proven-card</title>
    <desc>Created with Sketch.</desc>
    <defs>
        <rect id="path-1" x="4.5" y="4.5" width="226" height="286" rx="7"></rect>
        <filter x="-3.5%" y="-2.4%" width="107.1%" height="105.6%" filterUnits="objectBoundingBox" id="filter-2">
            <feOffset dx="0" dy="1" in="SourceAlpha" result="shadowOffsetOuter1"></feOffset>
            <feGaussianBlur stdDeviation="2.5" in="shadowOffsetOuter1" result="shadowBlurOuter1"></feGaussianBlur>
            <feColorMatrix values="0 0 0 0 0   0 0 0 0 0   0 0 0 0 0  0 0 0 0.21 0" type="matrix" in="shadowBlurOuter1"></feColorMatrix>
        </filter>
        <linearGradient x1="50%" y1="0%" x2="50%" y2="100%" id="linearGradient-3">
            <stop stop-color="#72E6DC" offset="0%"></stop>
            <stop stop-color="#3EC8B7" offset="100%"></stop>
        </linearGradient>
        <linearGradient x1="50%" y1="0%" x2="50%" y2="100%" id="linearGradient-4">
            <stop stop-color="#72E6DC" offset="0%"></stop>
            <stop stop-color="#3EC8B7" offset="100%"></stop>
        </linearGradient>
        <linearGradient x1="50%" y1="0%" x2="50%" y2="100%" id="linearGradient-5">
            <stop stop-color="#72E6DC" offset="0%"></stop>
            <stop stop-color="#3EC8B7" offset="100%"></stop>
        </linearGradient>
        <linearGradient x1="10.2277075%" y1="15.8556087%" x2="59.6114475%" y2="84.1443913%" id="linearGradient-6">
            <stop stop-color="#00C9FF" offset="0%"></stop>
            <stop stop-color="#0099FF" offset="100%"></stop>
        </linearGradient>
        <linearGradient x1="10.5678984%" y1="10.8969288%" x2="59.6114475%" y2="89.6493379%" id="linearGradient-7">
            <stop stop-color="#FF9B9C" offset="0%"></stop>
            <stop stop-color="#F16162" offset="100%"></stop>
        </linearGradient>
    </defs>
    <g id="proven-card" stroke="none" stroke-width="1" fill="none" fill-rule="evenodd">
        <g id="Rectangle-Copy-2">
            <use fill="black" fill-opacity="1" filter="url(#filter-2)" xlink:href="#path-1"></use>
            <use fill="#FFFFFF" fill-rule="evenodd" xlink:href="#path-1"></use>
        </g>
        <g id="Proven" transform="translate(86.500000, 38.500000)" stroke="#073863">
            <circle id="Oval-Copy" stroke-width="1.5" cx="31" cy="30.9403969" r="30.5"></circle>
            <g id="Group-2" transform="translate(17.000000, 11.500000)">
                <path d="M25.5506826,6.47664108 L22.064713,7.77939018 L18.5603004,18.4697012 L24.724052,15.5776962 C24.9711481,15.4617599 25.1417027,15.2508717 25.191575,15.010156 L26.7750146,7.36747536 C26.8628013,6.94376144 26.5595092,6.5205124 26.0720742,6.43120325 C25.8970707,6.39913864 25.7155805,6.41504511 25.5506273,6.47666177 L25.5506827,6.47664108 L25.5506826,6.47664108 Z" id="Rectangle-6" stroke-width="1.25"></path>
                <path d="M7.68455511,6.56311915 L4.1985855,7.86586826 L0.694172893,18.5561793 L6.85792448,15.6641743 C7.10502051,15.5482379 7.27557513,15.3373497 7.3254475,15.0966341 L8.90888707,7.45395343 C8.99667372,7.03023951 8.6933817,6.60699047 8.20594666,6.51768132 C8.03094317,6.48561671 7.84945297,6.50152318 7.68449972,6.56313984 L7.68455511,6.56311915 Z" id="Rectangle-6" stroke-width="1.25" transform="translate(4.809073, 12.528851) scale(-1, 1) translate(-4.809073, -12.528851) "></path>
                <path d="M7.8320277,32.502183 L19.5833533,32.502183 C20.135638,32.502183 20.5833533,32.9498983 20.5833533,33.502183 L20.5833533,35.8447069 C20.5833533,36.3969917 20.135638,36.8447069 19.5833533,36.8447069 L7.8320277,36.8447069 C7.27974295,36.8447069 6.8320277,36.3969917 6.8320277,35.8447069 L6.8320277,33.502183 C6.8320277,32.9498983 7.27974295,32.502183 7.8320277,32.502183 Z" id="Rectangle-5" fill="url(#linearGradient-3)" fill-rule="nonzero"></path>
                <rect id="Rectangle-7" fill="url(#linearGradient-4)" fill-rule="nonzero" x="3.9370118" y="36.1209529" width="19.5413574" height="4.34252386" rx="1"></rect>
                <path d="M12.7560753,31.7932537 L2.91165035,1.30729239 C2.74193744,0.781729858 3.03041057,0.218097755 3.5559731,0.0483848538 C3.65525284,0.0163257719 3.75893788,0 3.86326549,0 L23.5521155,0 C24.1044002,0 24.5521155,0.44771525 24.5521155,1 C24.5521155,1.10432761 24.5357897,1.20801265 24.5037306,1.30729239 L14.6593056,31.7932537 C14.4895927,32.3188162 13.9259606,32.6072893 13.4003981,32.4375764 C13.0945647,32.3388177 12.854834,32.0990871 12.7560753,31.7932537 Z" id="Triangle" fill="url(#linearGradient-5)" fill-rule="nonzero"></path>
                <path d="M15.5770203,23.1601273 L14.0695675,27.79959" id="Line-3" stroke-width="0.75" stroke-linecap="round"></path>
                <path d="M16.5622588,20.2651113 L16.2408294,21.2164219" id="Line-3" stroke-width="0.75" stroke-linecap="round"></path>
                <path d="M16.8748034,11.7570555 L16.9371712,11.7041474 C17.0248912,11.6413055 17.107879,11.5709279 17.1855077,11.4932992 C17.9560899,10.7227171 17.9560899,9.47335655 17.1855077,8.70277439 C16.4149256,7.93219224 15.165565,7.93219224 14.3949829,8.70277439 C14.3902784,8.70748922 14.3902784,8.70748922 14.3856005,8.71221866 L14.0326417,9.06984772 L13.6767579,8.71512933 L13.6549578,8.69339197 C12.8833376,7.93184846 11.6409605,7.9356911 10.8738772,8.70277439 C10.1067963,9.4698553 10.1029442,10.7122432 10.8621402,11.4815622 L13.652665,14.2720871 C13.8479272,14.4673492 14.1645097,14.4673492 14.3597718,14.2720871 L16.8748034,11.7570555 Z" id="Combined-Shape-Copy" fill="url(#linearGradient-6)" fill-rule="nonzero"></path>
            </g>
            <path d="M34.3869548,22.8918296 L34.4485634,22.837278 C34.5553202,22.7574041 34.6564045,22.6678756 34.7510284,22.5690523 C35.6976324,21.5804387 35.6976324,19.968959 34.7510284,18.9803454 C33.8161494,18.003977 32.3097783,18.003977 31.3748992,18.9803454 C31.3691605,18.9863519 31.3691605,18.9863519 31.3634534,18.9923779 L31.0030209,19.3737871 L30.6394719,18.9953473 L30.6135873,18.9683937 C29.6775356,18.0035672 28.1796157,18.0084058 27.2489773,18.9803454 C26.3066743,19.9644671 26.3019168,21.5669691 27.2352242,22.5546888 L30.9724967,26.4578191 L34.3869548,22.8918296 Z" id="Combined-Shape-Copy-7" fill="url(#linearGradient-7)" fill-rule="nonzero"></path>
        </g>
        <path d="M87.758,120.032 L92.084,120.032 C93.1573387,120.032 93.9926637,120.290997 94.59,120.809 C95.1873363,121.327003 95.486,122.033996 95.486,122.93 C95.486,123.826004 95.185003,124.535331 94.583,125.058 C93.980997,125.580669 93.1480053,125.842 92.084,125.842 L89.564,125.842 L89.564,130 L87.758,130 L87.758,120.032 Z M91.874,124.442 C92.4993365,124.442 92.9729984,124.313668 93.295,124.057 C93.6170016,123.800332 93.778,123.429336 93.778,122.944 C93.778,122.449331 93.6193349,122.073668 93.302,121.817 C92.9846651,121.560332 92.5086698,121.432 91.874,121.432 L89.564,121.432 L89.564,124.442 L91.874,124.442 Z M105.757,130 L103.853,130 L102.579,126.682 C102.466999,126.373998 102.294334,126.159334 102.061,126.038 C101.827665,125.916666 101.524335,125.856 101.151,125.856 L99.345,125.856 L99.345,130 L97.553,130 L97.553,120.032 L101.823,120.032 C102.952339,120.032 103.810997,120.279331 104.399,120.774 C104.987003,121.268669 105.281,121.977995 105.281,122.902 C105.281,123.56467 105.106002,124.126998 104.756,124.589 C104.405998,125.051002 103.909003,125.379999 103.265,125.576 C103.853003,125.697334 104.277665,126.107996 104.539,126.808 L105.757,130 Z M101.571,124.456 C102.252337,124.456 102.756332,124.330001 103.083,124.078 C103.409668,123.825999 103.573,123.443336 103.573,122.93 C103.573,122.425997 103.412002,122.050335 103.09,121.803 C102.767998,121.555665 102.26167,121.432 101.571,121.432 L99.317,121.432 L99.317,124.456 L101.571,124.456 Z M112.206,130.126 C111.244662,130.126 110.407004,129.918335 109.693,129.503 C108.978996,129.087665 108.428335,128.495004 108.041,127.725 C107.653665,126.954996 107.46,126.047339 107.46,125.002 C107.46,123.965995 107.651331,123.063004 108.034,122.293 C108.416669,121.522996 108.964996,120.932669 109.679,120.522 C110.393004,120.111331 111.235328,119.906 112.206,119.906 C113.176672,119.906 114.018996,120.111331 114.733,120.522 C115.447004,120.932669 115.992998,121.522996 116.371,122.293 C116.749002,123.063004 116.938,123.965995 116.938,125.002 C116.938,126.047339 116.746669,126.954996 116.364,127.725 C115.981331,128.495004 115.435337,129.087665 114.726,129.503 C114.016663,129.918335 113.176672,130.126 112.206,130.126 Z M112.206,128.684 C113.130005,128.684 113.848664,128.36667 114.362,127.732 C114.875336,127.09733 115.132,126.187339 115.132,125.002 C115.132,123.825994 114.875336,122.923003 114.362,122.293 C113.848664,121.662997 113.130005,121.348 112.206,121.348 C111.281995,121.348 110.563336,121.660664 110.05,122.286 C109.536664,122.911336 109.28,123.816661 109.28,125.002 C109.28,126.187339 109.536664,127.09733 110.05,127.732 C110.563336,128.36667 111.281995,128.684 112.206,128.684 Z M126.299,120.032 L128.133,120.032 L123.695,130 L122.225,130 L117.787,120.032 L119.663,120.032 L122.981,127.732 L126.299,120.032 Z M129.556,130 L129.556,120.032 L136.22,120.032 L136.22,121.46 L131.32,121.46 L131.32,124.218 L135.926,124.218 L135.926,125.646 L131.32,125.646 L131.32,128.572 L136.22,128.572 L136.22,130 L129.556,130 Z M145.063,120.032 L146.757,120.032 L146.757,130 L145.413,130 L140.037,123.014 L140.037,130 L138.357,130 L138.357,120.032 L139.701,120.032 L145.063,127.004 L145.063,120.032 Z" id="PROVEN" fill="#000000" fill-rule="nonzero"></path>
        <path d="M32.912,170.112 C31.3533255,170.112 30.1120046,169.692004 29.188,168.852 L29.622,167.97 C30.1166691,168.390002 30.6206641,168.688666 31.134,168.866 C31.6473359,169.043334 32.2446633,169.132 32.926,169.132 C33.7286707,169.132 34.3469978,168.975668 34.781,168.663 C35.2150022,168.350332 35.432,167.909336 35.432,167.34 C35.432,167.003998 35.327001,166.731001 35.117,166.521 C34.9069989,166.310999 34.6316684,166.145334 34.291,166.024 C33.9503316,165.902666 33.4953362,165.776667 32.926,165.646 C32.1606628,165.477999 31.5306691,165.296001 31.036,165.1 C30.5413309,164.903999 30.1400015,164.621669 29.832,164.253 C29.5239985,163.884331 29.37,163.401336 29.37,162.804 C29.37,162.234664 29.5193318,161.733002 29.818,161.299 C30.1166682,160.864998 30.5389973,160.526668 31.085,160.284 C31.6310027,160.041332 32.2679964,159.92 32.996,159.92 C33.6866701,159.92 34.3306637,160.027332 34.928,160.242 C35.5253363,160.456668 36.0293313,160.769331 36.44,161.18 L35.992,162.062 C35.525331,161.660665 35.0516691,161.366668 34.571,161.18 C34.0903309,160.993332 33.5653362,160.9 32.996,160.9 C32.2213295,160.9 31.6146689,161.065665 31.176,161.397 C30.7373311,161.728335 30.518,162.18333 30.518,162.762 C30.518,163.266003 30.7093314,163.643999 31.092,163.896 C31.4746686,164.148001 32.0626627,164.367332 32.856,164.554 C33.714671,164.759334 34.3889975,164.948332 34.879,165.121 C35.3690024,165.293668 35.7773317,165.554998 36.104,165.905 C36.4306683,166.255002 36.594,166.71933 36.594,167.298 C36.594,167.858003 36.4446682,168.350331 36.146,168.775 C35.8473318,169.199669 35.4203361,169.528665 34.865,169.762 C34.3096639,169.995335 33.6586704,170.112 32.912,170.112 Z M42.215,162.79 C43.9043418,162.79 44.749,163.718657 44.749,165.576 L44.749,170 L43.615,170 L43.615,165.632 C43.615,164.978663 43.4843346,164.500335 43.223,164.197 C42.9616654,163.893665 42.5510028,163.742 41.991,163.742 C41.3376634,163.742 40.815002,163.942665 40.423,164.344 C40.030998,164.745335 39.835,165.286663 39.835,165.968 L39.835,170 L38.701,170 L38.701,159.696 L39.835,159.696 L39.835,164.106 C40.0590011,163.676665 40.3786646,163.350001 40.794,163.126 C41.2093354,162.901999 41.6829973,162.79 42.215,162.79 Z M50.174,170.098 C49.51133,170.098 48.9280025,169.948668 48.424,169.65 C47.9199975,169.351332 47.5303347,168.926669 47.255,168.376 C46.9796653,167.825331 46.842,167.181337 46.842,166.444 C46.842,165.706663 46.9796653,165.062669 47.255,164.512 C47.5303347,163.961331 47.9199975,163.536668 48.424,163.238 C48.9280025,162.939332 49.51133,162.79 50.174,162.79 C50.83667,162.79 51.4199975,162.939332 51.924,163.238 C52.4280025,163.536668 52.8176653,163.961331 53.093,164.512 C53.3683347,165.062669 53.506,165.706663 53.506,166.444 C53.506,167.181337 53.3683347,167.825331 53.093,168.376 C52.8176653,168.926669 52.4280025,169.351332 51.924,169.65 C51.4199975,169.948668 50.83667,170.098 50.174,170.098 Z M50.174,169.16 C50.8740035,169.16 51.4106648,168.929002 51.784,168.467 C52.1573352,168.004998 52.344,167.330671 52.344,166.444 C52.344,165.585329 52.1526686,164.920336 51.77,164.449 C51.3873314,163.977664 50.8553367,163.742 50.174,163.742 C49.4833299,163.742 48.9466686,163.977664 48.564,164.449 C48.1813314,164.920336 47.99,165.585329 47.99,166.444 C47.99,167.330671 48.1789981,168.004998 48.557,168.467 C48.9350019,168.929002 49.4739965,169.16 50.174,169.16 Z M61.535,162.958 L61.535,170 L60.429,170 L60.429,168.782 C60.2049989,169.211335 59.8923353,169.537999 59.491,169.762 C59.0896647,169.986001 58.6370025,170.098 58.133,170.098 C57.3023292,170.098 56.6723355,169.864669 56.243,169.398 C55.8136645,168.931331 55.599,168.240671 55.599,167.326 L55.599,162.958 L56.733,162.958 L56.733,167.298 C56.733,167.93267 56.8636654,168.399332 57.125,168.698 C57.3863346,168.996668 57.7829973,169.146 58.315,169.146 C58.9403365,169.146 59.4443314,168.943002 59.827,168.537 C60.2096686,168.130998 60.401,167.59667 60.401,166.934 L60.401,162.958 L61.535,162.958 Z M65.602,163.854 L65.602,167.704 C65.602,168.226669 65.7093323,168.592999 65.924,168.803 C66.1386677,169.013001 66.441998,169.118 66.834,169.118 C67.0953346,169.118 67.3473321,169.076 67.59,168.992 L67.59,169.958 C67.3006652,170.051334 66.9740018,170.098 66.61,170.098 C65.9379966,170.098 65.4130019,169.909002 65.035,169.531 C64.6569981,169.152998 64.468,168.595337 64.468,167.858 L64.468,163.854 L63.096,163.854 L63.096,162.958 L64.468,162.958 L64.468,161.152 L65.602,160.746 L65.602,162.958 L67.618,162.958 L67.618,163.854 L65.602,163.854 Z M73.673,170.112 C72.7489954,170.112 71.9463367,169.906669 71.265,169.496 C70.5836633,169.085331 70.0586685,168.495004 69.69,167.725 C69.3213315,166.954996 69.137,166.052005 69.137,165.016 C69.137,163.970661 69.3189982,163.065337 69.683,162.3 C70.0470018,161.534663 70.5696633,160.946669 71.251,160.536 C71.9323367,160.125331 72.739662,159.92 73.673,159.92 C74.606338,159.92 75.4136633,160.125331 76.095,160.536 C76.7763367,160.946669 77.2989982,161.534663 77.663,162.3 C78.0270018,163.065337 78.209,163.965995 78.209,165.002 C78.209,166.047339 78.0246685,166.952663 77.656,167.718 C77.2873315,168.483337 76.7623367,169.073665 76.081,169.489 C75.3996633,169.904335 74.5970046,170.112 73.673,170.112 Z M73.673,169.132 C74.7276719,169.132 75.5489971,168.77267 76.137,168.054 C76.7250029,167.33533 77.019,166.318007 77.019,165.002 C77.019,163.685993 76.7273362,162.673337 76.144,161.964 C75.5606637,161.254663 74.7370053,160.9 73.673,160.9 C72.6089947,160.9 71.7830029,161.256996 71.195,161.971 C70.6069971,162.685004 70.313,163.695327 70.313,165.002 C70.313,166.318007 70.6069971,167.33533 71.195,168.054 C71.7830029,168.77267 72.6089947,169.132 73.673,169.132 Z M86.434,162.958 L86.434,170 L85.328,170 L85.328,168.782 C85.1039989,169.211335 84.7913353,169.537999 84.39,169.762 C83.9886647,169.986001 83.5360025,170.098 83.032,170.098 C82.2013292,170.098 81.5713355,169.864669 81.142,169.398 C80.7126645,168.931331 80.498,168.240671 80.498,167.326 L80.498,162.958 L81.632,162.958 L81.632,167.298 C81.632,167.93267 81.7626654,168.399332 82.024,168.698 C82.2853346,168.996668 82.6819973,169.146 83.214,169.146 C83.8393365,169.146 84.3433314,168.943002 84.726,168.537 C85.1086686,168.130998 85.3,167.59667 85.3,166.934 L85.3,162.958 L86.434,162.958 Z M90.501,163.854 L90.501,167.704 C90.501,168.226669 90.6083323,168.592999 90.823,168.803 C91.0376677,169.013001 91.340998,169.118 91.733,169.118 C91.9943346,169.118 92.2463321,169.076 92.489,168.992 L92.489,169.958 C92.1996652,170.051334 91.8730018,170.098 91.509,170.098 C90.8369966,170.098 90.3120019,169.909002 89.934,169.531 C89.5559981,169.152998 89.367,168.595337 89.367,167.858 L89.367,163.854 L87.995,163.854 L87.995,162.958 L89.367,162.958 L89.367,161.152 L90.501,160.746 L90.501,162.958 L92.517,162.958 L92.517,163.854 L90.501,163.854 Z M96.64,170.098 C95.4546607,170.098 94.5166701,169.79467 93.826,169.188 L94.204,168.348 C94.5866686,168.646668 94.973998,168.861333 95.366,168.992 C95.758002,169.122667 96.1966642,169.188 96.682,169.188 C97.2140027,169.188 97.6176653,169.097001 97.893,168.915 C98.1683347,168.732999 98.306,168.469335 98.306,168.124 C98.306,167.843999 98.2126676,167.620001 98.026,167.452 C97.8393324,167.283999 97.5313355,167.153334 97.102,167.06 L95.912,166.78 C95.3239971,166.649333 94.8690016,166.416002 94.547,166.08 C94.2249984,165.743998 94.064,165.342669 94.064,164.876 C94.064,164.259997 94.3113309,163.758335 94.806,163.371 C95.3006691,162.983665 95.9539959,162.79 96.766,162.79 C97.2606691,162.79 97.7273311,162.869333 98.166,163.028 C98.6046689,163.186667 98.9733318,163.415332 99.272,163.714 L98.894,164.54 C98.23133,163.989331 97.5220038,163.714 96.766,163.714 C96.2619975,163.714 95.8723347,163.809666 95.597,164.001 C95.3216653,164.192334 95.184,164.460665 95.184,164.806 C95.184,165.095335 95.2703325,165.323999 95.443,165.492 C95.6156675,165.660001 95.8933314,165.790666 96.276,165.884 L97.466,166.178 C98.1193366,166.327334 98.6046651,166.558332 98.922,166.871 C99.2393349,167.183668 99.398,167.591997 99.398,168.096 C99.398,168.70267 99.1506691,169.187998 98.656,169.552 C98.1613309,169.916002 97.4893376,170.098 96.64,170.098 Z M108.554,170.098 C107.872663,170.098 107.277669,169.948668 106.769,169.65 C106.260331,169.351332 105.868335,168.929003 105.593,168.383 C105.317665,167.836997 105.18,167.200004 105.18,166.472 C105.18,165.743996 105.319999,165.102336 105.6,164.547 C105.880001,163.991664 106.278997,163.560002 106.797,163.252 C107.315003,162.943998 107.91933,162.79 108.61,162.79 C109.086002,162.79 109.545664,162.871666 109.989,163.035 C110.432336,163.198334 110.798665,163.424665 111.088,163.714 L110.71,164.554 C110.355332,164.273999 110.012335,164.068667 109.681,163.938 C109.349665,163.807333 109.011335,163.742 108.666,163.742 C107.94733,163.742 107.382669,163.982331 106.972,164.463 C106.561331,164.943669 106.356,165.613329 106.356,166.472 C106.356,167.321338 106.558998,167.981664 106.965,168.453 C107.371002,168.924336 107.937996,169.16 108.666,169.16 C109.011335,169.16 109.349665,169.094667 109.681,168.964 C110.012335,168.833333 110.355332,168.628001 110.71,168.348 L111.088,169.188 C110.789332,169.468001 110.413669,169.689666 109.961,169.853 C109.508331,170.016334 109.039336,170.098 108.554,170.098 Z M116.177,162.79 C116.410334,162.79 116.624999,162.818 116.821,162.874 L116.793,163.91 C116.578332,163.835333 116.331001,163.798 116.051,163.798 C115.369663,163.798 114.863335,164.010331 114.532,164.435 C114.200665,164.859669 114.035,165.37533 114.035,165.982 L114.035,170 L112.901,170 L112.901,164.932 C112.901,164.203996 112.863667,163.546003 112.789,162.958 L113.867,162.958 L113.979,164.26 C114.156334,163.783998 114.440998,163.420001 114.833,163.168 C115.225002,162.915999 115.672997,162.79 116.177,162.79 Z M124.402,162.958 L124.402,170 L123.282,170 L123.282,168.726 C123.076666,169.164669 122.766335,169.502999 122.351,169.741 C121.935665,169.979001 121.452669,170.098 120.902,170.098 C120.276664,170.098 119.728336,169.948668 119.257,169.65 C118.785664,169.351332 118.421668,168.929003 118.165,168.383 C117.908332,167.836997 117.78,167.200004 117.78,166.472 C117.78,165.743996 117.910665,165.102336 118.172,164.547 C118.433335,163.991664 118.799664,163.560002 119.271,163.252 C119.742336,162.943998 120.285997,162.79 120.902,162.79 C121.452669,162.79 121.933331,162.911332 122.344,163.154 C122.754669,163.396668 123.067332,163.737331 123.282,164.176 L123.282,162.958 L124.402,162.958 Z M121.126,169.16 C121.81667,169.16 122.348665,168.924336 122.722,168.453 C123.095335,167.981664 123.282,167.312004 123.282,166.444 C123.282,165.575996 123.095335,164.908669 122.722,164.442 C122.348665,163.975331 121.81667,163.742 121.126,163.742 C120.43533,163.742 119.896335,163.982331 119.509,164.463 C119.121665,164.943669 118.928,165.613329 118.928,166.472 C118.928,167.330671 119.119331,167.993331 119.502,168.46 C119.884669,168.926669 120.425996,169.16 121.126,169.16 Z M129.673,160.62 C129.299665,160.62 129.008001,160.724999 128.798,160.935 C128.587999,161.145001 128.483,161.506664 128.483,162.02 L128.483,162.958 L130.205,162.958 L130.205,163.854 L128.483,163.854 L128.483,170 L127.349,170 L127.349,163.854 L125.977,163.854 L125.977,162.958 L127.349,162.958 L127.349,161.88 C127.349,161.142663 127.533331,160.585002 127.902,160.207 C128.270669,159.828998 128.78633,159.64 129.449,159.64 C129.775668,159.64 130.092998,159.682 130.401,159.766 L130.401,160.732 C130.139665,160.657333 129.897001,160.62 129.673,160.62 Z M133.25,163.854 L133.25,167.704 C133.25,168.226669 133.357332,168.592999 133.572,168.803 C133.786668,169.013001 134.089998,169.118 134.482,169.118 C134.743335,169.118 134.995332,169.076 135.238,168.992 L135.238,169.958 C134.948665,170.051334 134.622002,170.098 134.258,170.098 C133.585997,170.098 133.061002,169.909002 132.683,169.531 C132.304998,169.152998 132.116,168.595337 132.116,167.858 L132.116,163.854 L130.744,163.854 L130.744,162.958 L132.116,162.958 L132.116,161.152 L133.25,160.746 L133.25,162.958 L135.266,162.958 L135.266,163.854 L133.25,163.854 Z M142.903,166.444 L137.737,166.444 C137.746333,167.340004 137.953998,168.016664 138.36,168.474 C138.766002,168.931336 139.356329,169.16 140.131,169.16 C140.952337,169.16 141.70833,168.884669 142.399,168.334 L142.777,169.16 C142.468998,169.449335 142.074669,169.677999 141.594,169.846 C141.113331,170.014001 140.621003,170.098 140.117,170.098 C139.015661,170.098 138.152336,169.77367 137.527,169.125 C136.901664,168.47633 136.589,167.587339 136.589,166.458 C136.589,165.73933 136.728999,165.102336 137.009,164.547 C137.289001,163.991664 137.680997,163.560002 138.185,163.252 C138.689003,162.943998 139.262997,162.79 139.907,162.79 C140.840338,162.79 141.572997,163.095664 142.105,163.707 C142.637003,164.318336 142.903,165.160661 142.903,166.234 L142.903,166.444 Z M139.921,163.672 C139.332997,163.672 138.854669,163.849332 138.486,164.204 C138.117331,164.558668 137.881667,165.057997 137.779,165.702 L141.881,165.702 C141.825,165.03933 141.631335,164.535335 141.3,164.19 C140.968665,163.844665 140.509003,163.672 139.921,163.672 Z M151.198,159.696 L151.198,170 L150.078,170 L150.078,168.726 C149.872666,169.164669 149.562335,169.502999 149.147,169.741 C148.731665,169.979001 148.248669,170.098 147.698,170.098 C147.081997,170.098 146.538336,169.944002 146.067,169.636 C145.595664,169.327998 145.229335,168.896336 144.968,168.341 C144.706665,167.785664 144.576,167.144004 144.576,166.416 C144.576,165.687996 144.704332,165.051003 144.961,164.505 C145.217668,163.958997 145.583998,163.536668 146.06,163.238 C146.536002,162.939332 147.081997,162.79 147.698,162.79 C148.248669,162.79 148.729331,162.908999 149.14,163.147 C149.550669,163.385001 149.858666,163.718665 150.064,164.148 L150.064,159.696 L151.198,159.696 Z M147.922,169.16 C148.61267,169.16 149.144665,168.924336 149.518,168.453 C149.891335,167.981664 150.078,167.312004 150.078,166.444 C150.078,165.585329 149.891335,164.920336 149.518,164.449 C149.144665,163.977664 148.61267,163.742 147.922,163.742 C147.23133,163.742 146.692335,163.975331 146.305,164.442 C145.917665,164.908669 145.724,165.566662 145.724,166.416 C145.724,167.284004 145.917665,167.958331 146.305,168.439 C146.692335,168.919669 147.23133,169.16 147.922,169.16 Z M161.306,162.79 C161.922003,162.79 162.467998,162.939332 162.944,163.238 C163.420002,163.536668 163.788665,163.958997 164.05,164.505 C164.311335,165.051003 164.442,165.687996 164.442,166.416 C164.442,167.144004 164.311335,167.785664 164.05,168.341 C163.788665,168.896336 163.420002,169.327998 162.944,169.636 C162.467998,169.944002 161.922003,170.098 161.306,170.098 C160.755331,170.098 160.274669,169.976668 159.864,169.734 C159.453331,169.491332 159.140668,169.146002 158.926,168.698 L158.926,170 L157.792,170 L157.792,159.696 L158.926,159.696 L158.926,164.204 C159.131334,163.746664 159.441665,163.396668 159.857,163.154 C160.272335,162.911332 160.755331,162.79 161.306,162.79 Z M161.096,169.16 C161.777337,169.16 162.309331,168.919669 162.692,168.439 C163.074669,167.958331 163.266,167.284004 163.266,166.416 C163.266,165.566662 163.077002,164.908669 162.699,164.442 C162.320998,163.975331 161.78667,163.742 161.096,163.742 C160.395996,163.742 159.859335,163.975331 159.486,164.442 C159.112665,164.908669 158.926,165.575996 158.926,166.444 C158.926,167.312004 159.112665,167.981664 159.486,168.453 C159.859335,168.924336 160.395996,169.16 161.096,169.16 Z M172.667,162.958 L169.377,170.644 C169.031665,171.446671 168.597669,172.034665 168.075,172.408 C167.552331,172.781335 166.908337,173.037999 166.143,173.178 L165.905,172.296 C166.56767,172.146666 167.069332,171.948335 167.41,171.701 C167.750668,171.453665 168.032999,171.073336 168.257,170.56 L168.537,169.93 L165.555,162.958 L166.745,162.958 L169.125,168.768 L171.533,162.958 L172.667,162.958 Z M178.449,170 L178.449,160.032 L184.749,160.032 L184.749,160.984 L179.583,160.984 L179.583,164.456 L184.469,164.456 L184.469,165.422 L179.583,165.422 L179.583,169.048 L184.749,169.048 L184.749,170 L178.449,170 Z M186.912,170 L186.912,159.696 L188.046,159.696 L188.046,170 L186.912,170 Z M190.615,170 L190.615,162.958 L191.749,162.958 L191.749,170 L190.615,170 Z M190.503,159.976 L191.889,159.976 L191.889,161.264 L190.503,161.264 L190.503,159.976 Z M195.83,163.854 L195.83,167.704 C195.83,168.226669 195.937332,168.592999 196.152,168.803 C196.366668,169.013001 196.669998,169.118 197.062,169.118 C197.323335,169.118 197.575332,169.076 197.818,168.992 L197.818,169.958 C197.528665,170.051334 197.202002,170.098 196.838,170.098 C196.165997,170.098 195.641002,169.909002 195.263,169.531 C194.884998,169.152998 194.696,168.595337 194.696,167.858 L194.696,163.854 L193.324,163.854 L193.324,162.958 L194.696,162.958 L194.696,161.152 L195.83,160.746 L195.83,162.958 L197.846,162.958 L197.846,163.854 L195.83,163.854 Z M205.483,166.444 L200.317,166.444 C200.326333,167.340004 200.533998,168.016664 200.94,168.474 C201.346002,168.931336 201.936329,169.16 202.711,169.16 C203.532337,169.16 204.28833,168.884669 204.979,168.334 L205.357,169.16 C205.048998,169.449335 204.654669,169.677999 204.174,169.846 C203.693331,170.014001 203.201003,170.098 202.697,170.098 C201.595661,170.098 200.732336,169.77367 200.107,169.125 C199.481664,168.47633 199.169,167.587339 199.169,166.458 C199.169,165.73933 199.308999,165.102336 199.589,164.547 C199.869001,163.991664 200.260997,163.560002 200.765,163.252 C201.269003,162.943998 201.842997,162.79 202.487,162.79 C203.420338,162.79 204.152997,163.095664 204.685,163.707 C205.217003,164.318336 205.483,165.160661 205.483,166.234 L205.483,166.444 Z M202.501,163.672 C201.912997,163.672 201.434669,163.849332 201.066,164.204 C200.697331,164.558668 200.461667,165.057997 200.359,165.702 L204.461,165.702 C204.405,165.03933 204.211335,164.535335 203.88,164.19 C203.548665,163.844665 203.089003,163.672 202.501,163.672 Z M26.1605,188 L26.1605,178.032 L27.3085,178.032 L27.3085,188 L26.1605,188 Z M33.5175,180.79 C35.2068418,180.79 36.0515,181.718657 36.0515,183.576 L36.0515,188 L34.9175,188 L34.9175,183.632 C34.9175,182.978663 34.7868346,182.500335 34.5255,182.197 C34.2641654,181.893665 33.8535028,181.742 33.2935,181.742 C32.6401634,181.742 32.117502,181.942665 31.7255,182.344 C31.333498,182.745335 31.1375,183.286663 31.1375,183.968 L31.1375,188 L30.0035,188 L30.0035,182.932 C30.0035,182.203996 29.966167,181.546003 29.8915,180.958 L30.9695,180.958 L31.0815,182.218 C31.2961677,181.760664 31.6181645,181.408335 32.0475,181.161 C32.4768355,180.913665 32.9668306,180.79 33.5175,180.79 Z M41.2665,178.62 C40.8931648,178.62 40.601501,178.724999 40.3915,178.935 C40.1814989,179.145001 40.0765,179.506664 40.0765,180.02 L40.0765,180.958 L41.7985,180.958 L41.7985,181.854 L40.0765,181.854 L40.0765,188 L38.9425,188 L38.9425,181.854 L37.5705,181.854 L37.5705,180.958 L38.9425,180.958 L38.9425,179.88 C38.9425,179.142663 39.1268315,178.585002 39.4955,178.207 C39.8641685,177.828998 40.37983,177.64 41.0425,177.64 C41.3691683,177.64 41.6864985,177.682 41.9945,177.766 L41.9945,178.732 C41.7331654,178.657333 41.4905011,178.62 41.2665,178.62 Z M43.2825,188 L43.2825,177.696 L44.4165,177.696 L44.4165,188 L43.2825,188 Z M52.8795,180.958 L52.8795,188 L51.7735,188 L51.7735,186.782 C51.5494989,187.211335 51.2368353,187.537999 50.8355,187.762 C50.4341647,187.986001 49.9815025,188.098 49.4775,188.098 C48.6468292,188.098 48.0168355,187.864669 47.5875,187.398 C47.1581645,186.931331 46.9435,186.240671 46.9435,185.326 L46.9435,180.958 L48.0775,180.958 L48.0775,185.298 C48.0775,185.93267 48.2081654,186.399332 48.4695,186.698 C48.7308346,186.996668 49.1274973,187.146 49.6595,187.146 C50.2848365,187.146 50.7888314,186.943002 51.1715,186.537 C51.5541686,186.130998 51.7455,185.59667 51.7455,184.934 L51.7455,180.958 L52.8795,180.958 Z M61.3285,184.444 L56.1625,184.444 C56.1718334,185.340004 56.379498,186.016664 56.7855,186.474 C57.191502,186.931336 57.7818295,187.16 58.5565,187.16 C59.3778374,187.16 60.1338299,186.884669 60.8245,186.334 L61.2025,187.16 C60.8944985,187.449335 60.5001691,187.677999 60.0195,187.846 C59.5388309,188.014001 59.0465025,188.098 58.5425,188.098 C57.4411612,188.098 56.5778365,187.77367 55.9525,187.125 C55.3271635,186.47633 55.0145,185.587339 55.0145,184.458 C55.0145,183.73933 55.1544986,183.102336 55.4345,182.547 C55.7145014,181.991664 56.1064975,181.560002 56.6105,181.252 C57.1145025,180.943998 57.6884968,180.79 58.3325,180.79 C59.265838,180.79 59.9984973,181.095664 60.5305,181.707 C61.0625027,182.318336 61.3285,183.160661 61.3285,184.234 L61.3285,184.444 Z M58.3465,181.672 C57.7584971,181.672 57.2801685,181.849332 56.9115,182.204 C56.5428315,182.558668 56.3071672,183.057997 56.2045,183.702 L60.3065,183.702 C60.2504997,183.03933 60.056835,182.535335 59.7255,182.19 C59.394165,181.844665 58.9345029,181.672 58.3465,181.672 Z M66.9355,180.79 C68.6248418,180.79 69.4695,181.718657 69.4695,183.576 L69.4695,188 L68.3355,188 L68.3355,183.632 C68.3355,182.978663 68.2048346,182.500335 67.9435,182.197 C67.6821654,181.893665 67.2715028,181.742 66.7115,181.742 C66.0581634,181.742 65.535502,181.942665 65.1435,182.344 C64.751498,182.745335 64.5555,183.286663 64.5555,183.968 L64.5555,188 L63.4215,188 L63.4215,182.932 C63.4215,182.203996 63.384167,181.546003 63.3095,180.958 L64.3875,180.958 L64.4995,182.218 C64.7141677,181.760664 65.0361645,181.408335 65.4655,181.161 C65.8948355,180.913665 66.3848306,180.79 66.9355,180.79 Z M74.9365,188.098 C74.2551633,188.098 73.6601692,187.948668 73.1515,187.65 C72.6428308,187.351332 72.2508347,186.929003 71.9755,186.383 C71.7001653,185.836997 71.5625,185.200004 71.5625,184.472 C71.5625,183.743996 71.7024986,183.102336 71.9825,182.547 C72.2625014,181.991664 72.6614974,181.560002 73.1795,181.252 C73.6975026,180.943998 74.3018299,180.79 74.9925,180.79 C75.4685024,180.79 75.9281644,180.871666 76.3715,181.035 C76.8148355,181.198334 77.1811652,181.424665 77.4705,181.714 L77.0925,182.554 C76.7378316,182.273999 76.394835,182.068667 76.0635,181.938 C75.732165,181.807333 75.3938351,181.742 75.0485,181.742 C74.3298297,181.742 73.7651687,181.982331 73.3545,182.463 C72.9438313,182.943669 72.7385,183.613329 72.7385,184.472 C72.7385,185.321338 72.941498,185.981664 73.3475,186.453 C73.753502,186.924336 74.3204964,187.16 75.0485,187.16 C75.3938351,187.16 75.732165,187.094667 76.0635,186.964 C76.394835,186.833333 76.7378316,186.628001 77.0925,186.348 L77.4705,187.188 C77.1718318,187.468001 76.7961689,187.689666 76.3435,187.853 C75.8908311,188.016334 75.4218358,188.098 74.9365,188.098 Z M85.1775,184.444 L80.0115,184.444 C80.0208334,185.340004 80.228498,186.016664 80.6345,186.474 C81.040502,186.931336 81.6308295,187.16 82.4055,187.16 C83.2268374,187.16 83.9828299,186.884669 84.6735,186.334 L85.0515,187.16 C84.7434985,187.449335 84.3491691,187.677999 83.8685,187.846 C83.3878309,188.014001 82.8955025,188.098 82.3915,188.098 C81.2901612,188.098 80.4268365,187.77367 79.8015,187.125 C79.1761635,186.47633 78.8635,185.587339 78.8635,184.458 C78.8635,183.73933 79.0034986,183.102336 79.2835,182.547 C79.5635014,181.991664 79.9554975,181.560002 80.4595,181.252 C80.9635025,180.943998 81.5374968,180.79 82.1815,180.79 C83.114838,180.79 83.8474973,181.095664 84.3795,181.707 C84.9115027,182.318336 85.1775,183.160661 85.1775,184.234 L85.1775,184.444 Z M82.1955,181.672 C81.6074971,181.672 81.1291685,181.849332 80.7605,182.204 C80.3918315,182.558668 80.1561672,183.057997 80.0535,183.702 L84.1555,183.702 C84.0994997,183.03933 83.905835,182.535335 83.5745,182.19 C83.243165,181.844665 82.7835029,181.672 82.1955,181.672 Z M90.5465,180.79 C90.7798345,180.79 90.994499,180.818 91.1905,180.874 L91.1625,181.91 C90.9478323,181.835333 90.7005014,181.798 90.4205,181.798 C89.7391633,181.798 89.232835,182.010331 88.9015,182.435 C88.570165,182.859669 88.4045,183.37533 88.4045,183.982 L88.4045,188 L87.2705,188 L87.2705,182.932 C87.2705,182.203996 87.233167,181.546003 87.1585,180.958 L88.2365,180.958 L88.3485,182.26 C88.5258342,181.783998 88.810498,181.420001 89.2025,181.168 C89.594502,180.915999 90.0424975,180.79 90.5465,180.79 Z M95.0195,188.098 C93.8341607,188.098 92.8961701,187.79467 92.2055,187.188 L92.5835,186.348 C92.9661686,186.646668 93.353498,186.861333 93.7455,186.992 C94.137502,187.122667 94.5761642,187.188 95.0615,187.188 C95.5935027,187.188 95.9971653,187.097001 96.2725,186.915 C96.5478347,186.732999 96.6855,186.469335 96.6855,186.124 C96.6855,185.843999 96.5921676,185.620001 96.4055,185.452 C96.2188324,185.283999 95.9108355,185.153334 95.4815,185.06 L94.2915,184.78 C93.7034971,184.649333 93.2485016,184.416002 92.9265,184.08 C92.6044984,183.743998 92.4435,183.342669 92.4435,182.876 C92.4435,182.259997 92.6908309,181.758335 93.1855,181.371 C93.6801691,180.983665 94.3334959,180.79 95.1455,180.79 C95.6401691,180.79 96.1068311,180.869333 96.5455,181.028 C96.9841689,181.186667 97.3528318,181.415332 97.6515,181.714 L97.2735,182.54 C96.61083,181.989331 95.9015038,181.714 95.1455,181.714 C94.6414975,181.714 94.2518347,181.809666 93.9765,182.001 C93.7011653,182.192334 93.5635,182.460665 93.5635,182.806 C93.5635,183.095335 93.6498325,183.323999 93.8225,183.492 C93.9951675,183.660001 94.2728314,183.790666 94.6555,183.884 L95.8455,184.178 C96.4988366,184.327334 96.9841651,184.558332 97.3015,184.871 C97.6188349,185.183668 97.7775,185.591997 97.7775,186.096 C97.7775,186.70267 97.5301691,187.187998 97.0355,187.552 C96.5408309,187.916002 95.8688376,188.098 95.0195,188.098 Z M110.1815,180.958 L110.1815,188 L109.0615,188 L109.0615,186.726 C108.856166,187.164669 108.545835,187.502999 108.1305,187.741 C107.715165,187.979001 107.232169,188.098 106.6815,188.098 C106.056164,188.098 105.507836,187.948668 105.0365,187.65 C104.565164,187.351332 104.201168,186.929003 103.9445,186.383 C103.687832,185.836997 103.5595,185.200004 103.5595,184.472 C103.5595,183.743996 103.690165,183.102336 103.9515,182.547 C104.212835,181.991664 104.579164,181.560002 105.0505,181.252 C105.521836,180.943998 106.065497,180.79 106.6815,180.79 C107.232169,180.79 107.712831,180.911332 108.1235,181.154 C108.534169,181.396668 108.846832,181.737331 109.0615,182.176 L109.0615,180.958 L110.1815,180.958 Z M106.9055,187.16 C107.59617,187.16 108.128165,186.924336 108.5015,186.453 C108.874835,185.981664 109.0615,185.312004 109.0615,184.444 C109.0615,183.575996 108.874835,182.908669 108.5015,182.442 C108.128165,181.975331 107.59617,181.742 106.9055,181.742 C106.21483,181.742 105.675835,181.982331 105.2885,182.463 C104.901165,182.943669 104.7075,183.613329 104.7075,184.472 C104.7075,185.330671 104.898831,185.993331 105.2815,186.46 C105.664169,186.926669 106.205496,187.16 106.9055,187.16 Z M116.0265,180.79 C116.259834,180.79 116.474499,180.818 116.6705,180.874 L116.6425,181.91 C116.427832,181.835333 116.180501,181.798 115.9005,181.798 C115.219163,181.798 114.712835,182.010331 114.3815,182.435 C114.050165,182.859669 113.8845,183.37533 113.8845,183.982 L113.8845,188 L112.7505,188 L112.7505,182.932 C112.7505,182.203996 112.713167,181.546003 112.6385,180.958 L113.7165,180.958 L113.8285,182.26 C114.005834,181.783998 114.290498,181.420001 114.6825,181.168 C115.074502,180.915999 115.522497,180.79 116.0265,180.79 Z M123.9435,184.444 L118.7775,184.444 C118.786833,185.340004 118.994498,186.016664 119.4005,186.474 C119.806502,186.931336 120.396829,187.16 121.1715,187.16 C121.992837,187.16 122.74883,186.884669 123.4395,186.334 L123.8175,187.16 C123.509498,187.449335 123.115169,187.677999 122.6345,187.846 C122.153831,188.014001 121.661503,188.098 121.1575,188.098 C120.056161,188.098 119.192836,187.77367 118.5675,187.125 C117.942164,186.47633 117.6295,185.587339 117.6295,184.458 C117.6295,183.73933 117.769499,183.102336 118.0495,182.547 C118.329501,181.991664 118.721497,181.560002 119.2255,181.252 C119.729503,180.943998 120.303497,180.79 120.9475,180.79 C121.880838,180.79 122.613497,181.095664 123.1455,181.707 C123.677503,182.318336 123.9435,183.160661 123.9435,184.234 L123.9435,184.444 Z M120.9615,181.672 C120.373497,181.672 119.895169,181.849332 119.5265,182.204 C119.157831,182.558668 118.922167,183.057997 118.8195,183.702 L122.9215,183.702 C122.8655,183.03933 122.671835,182.535335 122.3405,182.19 C122.009165,181.844665 121.549503,181.672 120.9615,181.672 Z M133.0155,188.098 C132.334163,188.098 131.739169,187.948668 131.2305,187.65 C130.721831,187.351332 130.329835,186.929003 130.0545,186.383 C129.779165,185.836997 129.6415,185.200004 129.6415,184.472 C129.6415,183.743996 129.781499,183.102336 130.0615,182.547 C130.341501,181.991664 130.740497,181.560002 131.2585,181.252 C131.776503,180.943998 132.38083,180.79 133.0715,180.79 C133.547502,180.79 134.007164,180.871666 134.4505,181.035 C134.893836,181.198334 135.260165,181.424665 135.5495,181.714 L135.1715,182.554 C134.816832,182.273999 134.473835,182.068667 134.1425,181.938 C133.811165,181.807333 133.472835,181.742 133.1275,181.742 C132.40883,181.742 131.844169,181.982331 131.4335,182.463 C131.022831,182.943669 130.8175,183.613329 130.8175,184.472 C130.8175,185.321338 131.020498,185.981664 131.4265,186.453 C131.832502,186.924336 132.399496,187.16 133.1275,187.16 C133.472835,187.16 133.811165,187.094667 134.1425,186.964 C134.473835,186.833333 134.816832,186.628001 135.1715,186.348 L135.5495,187.188 C135.250832,187.468001 134.875169,187.689666 134.4225,187.853 C133.969831,188.016334 133.500836,188.098 133.0155,188.098 Z M140.2745,188.098 C139.61183,188.098 139.028503,187.948668 138.5245,187.65 C138.020497,187.351332 137.630835,186.926669 137.3555,186.376 C137.080165,185.825331 136.9425,185.181337 136.9425,184.444 C136.9425,183.706663 137.080165,183.062669 137.3555,182.512 C137.630835,181.961331 138.020497,181.536668 138.5245,181.238 C139.028503,180.939332 139.61183,180.79 140.2745,180.79 C140.93717,180.79 141.520497,180.939332 142.0245,181.238 C142.528503,181.536668 142.918165,181.961331 143.1935,182.512 C143.468835,183.062669 143.6065,183.706663 143.6065,184.444 C143.6065,185.181337 143.468835,185.825331 143.1935,186.376 C142.918165,186.926669 142.528503,187.351332 142.0245,187.65 C141.520497,187.948668 140.93717,188.098 140.2745,188.098 Z M140.2745,187.16 C140.974503,187.16 141.511165,186.929002 141.8845,186.467 C142.257835,186.004998 142.4445,185.330671 142.4445,184.444 C142.4445,183.585329 142.253169,182.920336 141.8705,182.449 C141.487831,181.977664 140.955837,181.742 140.2745,181.742 C139.58383,181.742 139.047169,181.977664 138.6645,182.449 C138.281831,182.920336 138.0905,183.585329 138.0905,184.444 C138.0905,185.330671 138.279498,186.004998 138.6575,186.467 C139.035502,186.929002 139.574496,187.16 140.2745,187.16 Z M149.2555,180.79 C150.944842,180.79 151.7895,181.718657 151.7895,183.576 L151.7895,188 L150.6555,188 L150.6555,183.632 C150.6555,182.978663 150.524835,182.500335 150.2635,182.197 C150.002165,181.893665 149.591503,181.742 149.0315,181.742 C148.378163,181.742 147.855502,181.942665 147.4635,182.344 C147.071498,182.745335 146.8755,183.286663 146.8755,183.968 L146.8755,188 L145.7415,188 L145.7415,182.932 C145.7415,182.203996 145.704167,181.546003 145.6295,180.958 L146.7075,180.958 L146.8195,182.218 C147.034168,181.760664 147.356165,181.408335 147.7855,181.161 C148.214835,180.913665 148.704831,180.79 149.2555,180.79 Z M156.6825,188.098 C155.497161,188.098 154.55917,187.79467 153.8685,187.188 L154.2465,186.348 C154.629169,186.646668 155.016498,186.861333 155.4085,186.992 C155.800502,187.122667 156.239164,187.188 156.7245,187.188 C157.256503,187.188 157.660165,187.097001 157.9355,186.915 C158.210835,186.732999 158.3485,186.469335 158.3485,186.124 C158.3485,185.843999 158.255168,185.620001 158.0685,185.452 C157.881832,185.283999 157.573835,185.153334 157.1445,185.06 L155.9545,184.78 C155.366497,184.649333 154.911502,184.416002 154.5895,184.08 C154.267498,183.743998 154.1065,183.342669 154.1065,182.876 C154.1065,182.259997 154.353831,181.758335 154.8485,181.371 C155.343169,180.983665 155.996496,180.79 156.8085,180.79 C157.303169,180.79 157.769831,180.869333 158.2085,181.028 C158.647169,181.186667 159.015832,181.415332 159.3145,181.714 L158.9365,182.54 C158.27383,181.989331 157.564504,181.714 156.8085,181.714 C156.304497,181.714 155.914835,181.809666 155.6395,182.001 C155.364165,182.192334 155.2265,182.460665 155.2265,182.806 C155.2265,183.095335 155.312832,183.323999 155.4855,183.492 C155.658168,183.660001 155.935831,183.790666 156.3185,183.884 L157.5085,184.178 C158.161837,184.327334 158.647165,184.558332 158.9645,184.871 C159.281835,185.183668 159.4405,185.591997 159.4405,186.096 C159.4405,186.70267 159.193169,187.187998 158.6985,187.552 C158.203831,187.916002 157.531838,188.098 156.6825,188.098 Z M161.6175,188 L161.6175,180.958 L162.7515,180.958 L162.7515,188 L161.6175,188 Z M161.5055,177.976 L162.8915,177.976 L162.8915,179.264 L161.5055,179.264 L161.5055,177.976 Z M167.7005,188.098 C166.515161,188.098 165.57717,187.79467 164.8865,187.188 L165.2645,186.348 C165.647169,186.646668 166.034498,186.861333 166.4265,186.992 C166.818502,187.122667 167.257164,187.188 167.7425,187.188 C168.274503,187.188 168.678165,187.097001 168.9535,186.915 C169.228835,186.732999 169.3665,186.469335 169.3665,186.124 C169.3665,185.843999 169.273168,185.620001 169.0865,185.452 C168.899832,185.283999 168.591835,185.153334 168.1625,185.06 L166.9725,184.78 C166.384497,184.649333 165.929502,184.416002 165.6075,184.08 C165.285498,183.743998 165.1245,183.342669 165.1245,182.876 C165.1245,182.259997 165.371831,181.758335 165.8665,181.371 C166.361169,180.983665 167.014496,180.79 167.8265,180.79 C168.321169,180.79 168.787831,180.869333 169.2265,181.028 C169.665169,181.186667 170.033832,181.415332 170.3325,181.714 L169.9545,182.54 C169.29183,181.989331 168.582504,181.714 167.8265,181.714 C167.322497,181.714 166.932835,181.809666 166.6575,182.001 C166.382165,182.192334 166.2445,182.460665 166.2445,182.806 C166.2445,183.095335 166.330832,183.323999 166.5035,183.492 C166.676168,183.660001 166.953831,183.790666 167.3365,183.884 L168.5265,184.178 C169.179837,184.327334 169.665165,184.558332 169.9825,184.871 C170.299835,185.183668 170.4585,185.591997 170.4585,186.096 C170.4585,186.70267 170.211169,187.187998 169.7165,187.552 C169.221831,187.916002 168.549838,188.098 167.7005,188.098 Z M174.0775,181.854 L174.0775,185.704 C174.0775,186.226669 174.184832,186.592999 174.3995,186.803 C174.614168,187.013001 174.917498,187.118 175.3095,187.118 C175.570835,187.118 175.822832,187.076 176.0655,186.992 L176.0655,187.958 C175.776165,188.051334 175.449502,188.098 175.0855,188.098 C174.413497,188.098 173.888502,187.909002 173.5105,187.531 C173.132498,187.152998 172.9435,186.595337 172.9435,185.858 L172.9435,181.854 L171.5715,181.854 L171.5715,180.958 L172.9435,180.958 L172.9435,179.152 L174.0775,178.746 L174.0775,180.958 L176.0935,180.958 L176.0935,181.854 L174.0775,181.854 Z M183.7305,184.444 L178.5645,184.444 C178.573833,185.340004 178.781498,186.016664 179.1875,186.474 C179.593502,186.931336 180.183829,187.16 180.9585,187.16 C181.779837,187.16 182.53583,186.884669 183.2265,186.334 L183.6045,187.16 C183.296498,187.449335 182.902169,187.677999 182.4215,187.846 C181.940831,188.014001 181.448503,188.098 180.9445,188.098 C179.843161,188.098 178.979836,187.77367 178.3545,187.125 C177.729164,186.47633 177.4165,185.587339 177.4165,184.458 C177.4165,183.73933 177.556499,183.102336 177.8365,182.547 C178.116501,181.991664 178.508497,181.560002 179.0125,181.252 C179.516503,180.943998 180.090497,180.79 180.7345,180.79 C181.667838,180.79 182.400497,181.095664 182.9325,181.707 C183.464503,182.318336 183.7305,183.160661 183.7305,184.234 L183.7305,184.444 Z M180.7485,181.672 C180.160497,181.672 179.682169,181.849332 179.3135,182.204 C178.944831,182.558668 178.709167,183.057997 178.6065,183.702 L182.7085,183.702 C182.6525,183.03933 182.458835,182.535335 182.1275,182.19 C181.796165,181.844665 181.336503,181.672 180.7485,181.672 Z M189.3375,180.79 C191.026842,180.79 191.8715,181.718657 191.8715,183.576 L191.8715,188 L190.7375,188 L190.7375,183.632 C190.7375,182.978663 190.606835,182.500335 190.3455,182.197 C190.084165,181.893665 189.673503,181.742 189.1135,181.742 C188.460163,181.742 187.937502,181.942665 187.5455,182.344 C187.153498,182.745335 186.9575,183.286663 186.9575,183.968 L186.9575,188 L185.8235,188 L185.8235,182.932 C185.8235,182.203996 185.786167,181.546003 185.7115,180.958 L186.7895,180.958 L186.9015,182.218 C187.116168,181.760664 187.438165,181.408335 187.8675,181.161 C188.296835,180.913665 188.786831,180.79 189.3375,180.79 Z M195.8965,181.854 L195.8965,185.704 C195.8965,186.226669 196.003832,186.592999 196.2185,186.803 C196.433168,187.013001 196.736498,187.118 197.1285,187.118 C197.389835,187.118 197.641832,187.076 197.8845,186.992 L197.8845,187.958 C197.595165,188.051334 197.268502,188.098 196.9045,188.098 C196.232497,188.098 195.707502,187.909002 195.3295,187.531 C194.951498,187.152998 194.7625,186.595337 194.7625,185.858 L194.7625,181.854 L193.3905,181.854 L193.3905,180.958 L194.7625,180.958 L194.7625,179.152 L195.8965,178.746 L195.8965,180.958 L197.9125,180.958 L197.9125,181.854 L195.8965,181.854 Z M199.6555,188 L199.6555,177.696 L200.7895,177.696 L200.7895,188 L199.6555,188 Z M209.5465,180.958 L206.2565,188.644 C205.911165,189.446671 205.477169,190.034665 204.9545,190.408 C204.431831,190.781335 203.787837,191.037999 203.0225,191.178 L202.7845,190.296 C203.44717,190.146666 203.948832,189.948335 204.2895,189.701 C204.630168,189.453665 204.912499,189.073336 205.1365,188.56 L205.4165,187.93 L202.4345,180.958 L203.6245,180.958 L206.0045,186.768 L208.4125,180.958 L209.5465,180.958 Z M40.99,198.79 C41.2233345,198.79 41.437999,198.818 41.634,198.874 L41.606,199.91 C41.3913323,199.835333 41.1440014,199.798 40.864,199.798 C40.1826633,199.798 39.676335,200.010331 39.345,200.435 C39.013665,200.859669 38.848,201.37533 38.848,201.982 L38.848,206 L37.714,206 L37.714,200.932 C37.714,200.203996 37.676667,199.546003 37.602,198.958 L38.68,198.958 L38.792,200.26 C38.9693342,199.783998 39.253998,199.420001 39.646,199.168 C40.038002,198.915999 40.4859975,198.79 40.99,198.79 Z M49.215,198.958 L49.215,206 L48.095,206 L48.095,204.726 C47.8896656,205.164669 47.5793354,205.502999 47.164,205.741 C46.7486646,205.979001 46.2656694,206.098 45.715,206.098 C45.0896635,206.098 44.5413357,205.948668 44.07,205.65 C43.5986643,205.351332 43.2346679,204.929003 42.978,204.383 C42.721332,203.836997 42.593,203.200004 42.593,202.472 C42.593,201.743996 42.7236654,201.102336 42.985,200.547 C43.2463346,199.991664 43.6126643,199.560002 44.084,199.252 C44.5553357,198.943998 45.0989969,198.79 45.715,198.79 C46.2656694,198.79 46.7463313,198.911332 47.157,199.154 C47.5676687,199.396668 47.8803323,199.737331 48.095,200.176 L48.095,198.958 L49.215,198.958 Z M45.939,205.16 C46.6296701,205.16 47.1616648,204.924336 47.535,204.453 C47.9083352,203.981664 48.095,203.312004 48.095,202.444 C48.095,201.575996 47.9083352,200.908669 47.535,200.442 C47.1616648,199.975331 46.6296701,199.742 45.939,199.742 C45.2483299,199.742 44.7093353,199.982331 44.322,200.463 C43.9346647,200.943669 43.741,201.613329 43.741,202.472 C43.741,203.330671 43.9323314,203.993331 44.315,204.46 C44.6976686,204.926669 45.2389965,205.16 45.939,205.16 Z M53.296,199.854 L53.296,203.704 C53.296,204.226669 53.4033323,204.592999 53.618,204.803 C53.8326677,205.013001 54.135998,205.118 54.528,205.118 C54.7893346,205.118 55.0413321,205.076 55.284,204.992 L55.284,205.958 C54.9946652,206.051334 54.6680018,206.098 54.304,206.098 C53.6319966,206.098 53.1070019,205.909002 52.729,205.531 C52.3509981,205.152998 52.162,204.595337 52.162,203.858 L52.162,199.854 L50.79,199.854 L50.79,198.958 L52.162,198.958 L52.162,197.152 L53.296,196.746 L53.296,198.958 L55.312,198.958 L55.312,199.854 L53.296,199.854 Z M62.949,202.444 L57.783,202.444 C57.7923334,203.340004 57.999998,204.016664 58.406,204.474 C58.812002,204.931336 59.4023295,205.16 60.177,205.16 C60.9983374,205.16 61.7543299,204.884669 62.445,204.334 L62.823,205.16 C62.5149985,205.449335 62.1206691,205.677999 61.64,205.846 C61.1593309,206.014001 60.6670025,206.098 60.163,206.098 C59.0616612,206.098 58.1983365,205.77367 57.573,205.125 C56.9476635,204.47633 56.635,203.587339 56.635,202.458 C56.635,201.73933 56.7749986,201.102336 57.055,200.547 C57.3350014,199.991664 57.7269975,199.560002 58.231,199.252 C58.7350025,198.943998 59.3089968,198.79 59.953,198.79 C60.886338,198.79 61.6189973,199.095664 62.151,199.707 C62.6830027,200.318336 62.949,201.160661 62.949,202.234 L62.949,202.444 Z M59.967,199.672 C59.3789971,199.672 58.9006685,199.849332 58.532,200.204 C58.1633315,200.558668 57.9276672,201.057997 57.825,201.702 L61.927,201.702 C61.8709997,201.03933 61.677335,200.535335 61.346,200.19 C61.014665,199.844665 60.5550029,199.672 59.967,199.672 Z M71.244,195.696 L71.244,206 L70.124,206 L70.124,204.726 C69.9186656,205.164669 69.6083354,205.502999 69.193,205.741 C68.7776646,205.979001 68.2946694,206.098 67.744,206.098 C67.1279969,206.098 66.5843357,205.944002 66.113,205.636 C65.6416643,205.327998 65.2753346,204.896336 65.014,204.341 C64.7526654,203.785664 64.622,203.144004 64.622,202.416 C64.622,201.687996 64.750332,201.051003 65.007,200.505 C65.2636679,199.958997 65.6299976,199.536668 66.106,199.238 C66.5820024,198.939332 67.1279969,198.79 67.744,198.79 C68.2946694,198.79 68.7753313,198.908999 69.186,199.147 C69.5966687,199.385001 69.9046656,199.718665 70.11,200.148 L70.11,195.696 L71.244,195.696 Z M67.968,205.16 C68.6586701,205.16 69.1906648,204.924336 69.564,204.453 C69.9373352,203.981664 70.124,203.312004 70.124,202.444 C70.124,201.585329 69.9373352,200.920336 69.564,200.449 C69.1906648,199.977664 68.6586701,199.742 67.968,199.742 C67.2773299,199.742 66.7383353,199.975331 66.351,200.442 C65.9636647,200.908669 65.77,201.566662 65.77,202.416 C65.77,203.284004 65.9636647,203.958331 66.351,204.439 C66.7383353,204.919669 67.2773299,205.16 67.968,205.16 Z M84.684,202.878 L84.684,203.83 L83.172,203.83 L83.172,206 L82.024,206 L82.024,203.83 L77.432,203.83 L77.432,202.962 L82.234,196.032 L83.172,196.032 L83.172,202.878 L84.684,202.878 Z M78.622,202.878 L82.024,202.878 L82.024,197.978 L78.622,202.878 Z M94.148,198.79 C95.8373418,198.79 96.682,199.718657 96.682,201.576 L96.682,206 L95.548,206 L95.548,201.632 C95.548,200.978663 95.4173346,200.500335 95.156,200.197 C94.8946654,199.893665 94.4840028,199.742 93.924,199.742 C93.2706634,199.742 92.748002,199.942665 92.356,200.344 C91.963998,200.745335 91.768,201.286663 91.768,201.968 L91.768,206 L90.634,206 L90.634,195.696 L91.768,195.696 L91.768,200.106 C91.9920011,199.676665 92.3116646,199.350001 92.727,199.126 C93.1423354,198.901999 93.6159973,198.79 94.148,198.79 Z M105.089,202.444 L99.923,202.444 C99.9323334,203.340004 100.139998,204.016664 100.546,204.474 C100.952002,204.931336 101.542329,205.16 102.317,205.16 C103.138337,205.16 103.89433,204.884669 104.585,204.334 L104.963,205.16 C104.654998,205.449335 104.260669,205.677999 103.78,205.846 C103.299331,206.014001 102.807003,206.098 102.303,206.098 C101.201661,206.098 100.338336,205.77367 99.713,205.125 C99.0876635,204.47633 98.775,203.587339 98.775,202.458 C98.775,201.73933 98.9149986,201.102336 99.195,200.547 C99.4750014,199.991664 99.8669975,199.560002 100.371,199.252 C100.875003,198.943998 101.448997,198.79 102.093,198.79 C103.026338,198.79 103.758997,199.095664 104.291,199.707 C104.823003,200.318336 105.089,201.160661 105.089,202.234 L105.089,202.444 Z M102.107,199.672 C101.518997,199.672 101.040669,199.849332 100.672,200.204 C100.303331,200.558668 100.067667,201.057997 99.965,201.702 L104.067,201.702 C104.011,201.03933 103.817335,200.535335 103.486,200.19 C103.154665,199.844665 102.695003,199.672 102.107,199.672 Z M113.384,198.958 L113.384,206 L112.264,206 L112.264,204.726 C112.058666,205.164669 111.748335,205.502999 111.333,205.741 C110.917665,205.979001 110.434669,206.098 109.884,206.098 C109.258664,206.098 108.710336,205.948668 108.239,205.65 C107.767664,205.351332 107.403668,204.929003 107.147,204.383 C106.890332,203.836997 106.762,203.200004 106.762,202.472 C106.762,201.743996 106.892665,201.102336 107.154,200.547 C107.415335,199.991664 107.781664,199.560002 108.253,199.252 C108.724336,198.943998 109.267997,198.79 109.884,198.79 C110.434669,198.79 110.915331,198.911332 111.326,199.154 C111.736669,199.396668 112.049332,199.737331 112.264,200.176 L112.264,198.958 L113.384,198.958 Z M110.108,205.16 C110.79867,205.16 111.330665,204.924336 111.704,204.453 C112.077335,203.981664 112.264,203.312004 112.264,202.444 C112.264,201.575996 112.077335,200.908669 111.704,200.442 C111.330665,199.975331 110.79867,199.742 110.108,199.742 C109.41733,199.742 108.878335,199.982331 108.491,200.463 C108.103665,200.943669 107.91,201.613329 107.91,202.472 C107.91,203.330671 108.101331,203.993331 108.484,204.46 C108.866669,204.926669 109.407996,205.16 110.108,205.16 Z M119.229,198.79 C119.462334,198.79 119.676999,198.818 119.873,198.874 L119.845,199.91 C119.630332,199.835333 119.383001,199.798 119.103,199.798 C118.421663,199.798 117.915335,200.010331 117.584,200.435 C117.252665,200.859669 117.087,201.37533 117.087,201.982 L117.087,206 L115.953,206 L115.953,200.932 C115.953,200.203996 115.915667,199.546003 115.841,198.958 L116.919,198.958 L117.031,200.26 C117.208334,199.783998 117.492998,199.420001 117.885,199.168 C118.277002,198.915999 118.724997,198.79 119.229,198.79 Z M123.45,199.854 L123.45,203.704 C123.45,204.226669 123.557332,204.592999 123.772,204.803 C123.986668,205.013001 124.289998,205.118 124.682,205.118 C124.943335,205.118 125.195332,205.076 125.438,204.992 L125.438,205.958 C125.148665,206.051334 124.822002,206.098 124.458,206.098 C123.785997,206.098 123.261002,205.909002 122.883,205.531 C122.504998,205.152998 122.316,204.595337 122.316,203.858 L122.316,199.854 L120.944,199.854 L120.944,198.958 L122.316,198.958 L122.316,197.152 L123.45,196.746 L123.45,198.958 L125.466,198.958 L125.466,199.854 L123.45,199.854 Z M129.589,206.098 C128.403661,206.098 127.46567,205.79467 126.775,205.188 L127.153,204.348 C127.535669,204.646668 127.922998,204.861333 128.315,204.992 C128.707002,205.122667 129.145664,205.188 129.631,205.188 C130.163003,205.188 130.566665,205.097001 130.842,204.915 C131.117335,204.732999 131.255,204.469335 131.255,204.124 C131.255,203.843999 131.161668,203.620001 130.975,203.452 C130.788332,203.283999 130.480335,203.153334 130.051,203.06 L128.861,202.78 C128.272997,202.649333 127.818002,202.416002 127.496,202.08 C127.173998,201.743998 127.013,201.342669 127.013,200.876 C127.013,200.259997 127.260331,199.758335 127.755,199.371 C128.249669,198.983665 128.902996,198.79 129.715,198.79 C130.209669,198.79 130.676331,198.869333 131.115,199.028 C131.553669,199.186667 131.922332,199.415332 132.221,199.714 L131.843,200.54 C131.18033,199.989331 130.471004,199.714 129.715,199.714 C129.210997,199.714 128.821335,199.809666 128.546,200.001 C128.270665,200.192334 128.133,200.460665 128.133,200.806 C128.133,201.095335 128.219332,201.323999 128.392,201.492 C128.564668,201.660001 128.842331,201.790666 129.225,201.884 L130.415,202.178 C131.068337,202.327334 131.553665,202.558332 131.871,202.871 C132.188335,203.183668 132.347,203.591997 132.347,204.096 C132.347,204.70267 132.099669,205.187998 131.605,205.552 C131.110331,205.916002 130.438338,206.098 129.589,206.098 Z M141.461,206.098 C140.79833,206.098 140.215003,205.948668 139.711,205.65 C139.206997,205.351332 138.817335,204.926669 138.542,204.376 C138.266665,203.825331 138.129,203.181337 138.129,202.444 C138.129,201.706663 138.266665,201.062669 138.542,200.512 C138.817335,199.961331 139.206997,199.536668 139.711,199.238 C140.215003,198.939332 140.79833,198.79 141.461,198.79 C142.12367,198.79 142.706997,198.939332 143.211,199.238 C143.715003,199.536668 144.104665,199.961331 144.38,200.512 C144.655335,201.062669 144.793,201.706663 144.793,202.444 C144.793,203.181337 144.655335,203.825331 144.38,204.376 C144.104665,204.926669 143.715003,205.351332 143.211,205.65 C142.706997,205.948668 142.12367,206.098 141.461,206.098 Z M141.461,205.16 C142.161003,205.16 142.697665,204.929002 143.071,204.467 C143.444335,204.004998 143.631,203.330671 143.631,202.444 C143.631,201.585329 143.439669,200.920336 143.057,200.449 C142.674331,199.977664 142.142337,199.742 141.461,199.742 C140.77033,199.742 140.233669,199.977664 139.851,200.449 C139.468331,200.920336 139.277,201.585329 139.277,202.444 C139.277,203.330671 139.465998,204.004998 139.844,204.467 C140.222002,204.929002 140.760996,205.16 141.461,205.16 Z M150.204,198.79 C150.437334,198.79 150.651999,198.818 150.848,198.874 L150.82,199.91 C150.605332,199.835333 150.358001,199.798 150.078,199.798 C149.396663,199.798 148.890335,200.010331 148.559,200.435 C148.227665,200.859669 148.062,201.37533 148.062,201.982 L148.062,206 L146.928,206 L146.928,200.932 C146.928,200.203996 146.890667,199.546003 146.816,198.958 L147.894,198.958 L148.006,200.26 C148.183334,199.783998 148.467998,199.420001 148.86,199.168 C149.252002,198.915999 149.699997,198.79 150.204,198.79 Z M159.906,198.79 C161.595342,198.79 162.44,199.718657 162.44,201.576 L162.44,206 L161.306,206 L161.306,201.632 C161.306,200.978663 161.175335,200.500335 160.914,200.197 C160.652665,199.893665 160.242003,199.742 159.682,199.742 C159.028663,199.742 158.506002,199.942665 158.114,200.344 C157.721998,200.745335 157.526,201.286663 157.526,201.968 L157.526,206 L156.392,206 L156.392,195.696 L157.526,195.696 L157.526,200.106 C157.750001,199.676665 158.069665,199.350001 158.485,199.126 C158.900335,198.901999 159.373997,198.79 159.906,198.79 Z M164.953,206 L164.953,198.958 L166.087,198.958 L166.087,206 L164.953,206 Z M164.841,195.976 L166.227,195.976 L166.227,197.264 L164.841,197.264 L164.841,195.976 Z M174.928,198.958 L174.928,205.944 C174.928,206.989339 174.659669,207.780331 174.123,208.317 C173.586331,208.853669 172.795339,209.122 171.75,209.122 C170.676661,209.122 169.752671,208.879336 168.978,208.394 L169.174,207.47 C169.622002,207.722001 170.044331,207.903999 170.441,208.016 C170.837669,208.128001 171.273998,208.184 171.75,208.184 C172.431337,208.184 172.944665,208.004335 173.29,207.645 C173.635335,207.285665 173.808,206.751337 173.808,206.042 L173.808,204.376 C173.593332,204.824002 173.278335,205.171665 172.863,205.419 C172.447665,205.666335 171.955336,205.79 171.386,205.79 C170.769997,205.79 170.221669,205.645335 169.741,205.356 C169.260331,205.066665 168.889335,204.656003 168.628,204.124 C168.366665,203.591997 168.236,202.98067 168.236,202.29 C168.236,201.59933 168.366665,200.988003 168.628,200.456 C168.889335,199.923997 169.260331,199.513335 169.741,199.224 C170.221669,198.934665 170.769997,198.79 171.386,198.79 C171.946003,198.79 172.433665,198.911332 172.849,199.154 C173.264335,199.396668 173.579332,199.737331 173.794,200.176 L173.794,198.958 L174.928,198.958 Z M171.61,204.838 C172.291337,204.838 172.825665,204.611669 173.213,204.159 C173.600335,203.706331 173.794,203.083337 173.794,202.29 C173.794,201.496663 173.600335,200.873669 173.213,200.421 C172.825665,199.968331 172.291337,199.742 171.61,199.742 C170.91933,199.742 170.375669,199.968331 169.979,200.421 C169.582331,200.873669 169.384,201.496663 169.384,202.29 C169.384,203.083337 169.582331,203.706331 169.979,204.159 C170.375669,204.611669 170.91933,204.838 171.61,204.838 Z M180.997,198.79 C182.686342,198.79 183.531,199.718657 183.531,201.576 L183.531,206 L182.397,206 L182.397,201.632 C182.397,200.978663 182.266335,200.500335 182.005,200.197 C181.743665,199.893665 181.333003,199.742 180.773,199.742 C180.119663,199.742 179.597002,199.942665 179.205,200.344 C178.812998,200.745335 178.617,201.286663 178.617,201.968 L178.617,206 L177.483,206 L177.483,195.696 L178.617,195.696 L178.617,200.106 C178.841001,199.676665 179.160665,199.350001 179.576,199.126 C179.991335,198.901999 180.464997,198.79 180.997,198.79 Z M191.938,202.444 L186.772,202.444 C186.781333,203.340004 186.988998,204.016664 187.395,204.474 C187.801002,204.931336 188.391329,205.16 189.166,205.16 C189.987337,205.16 190.74333,204.884669 191.434,204.334 L191.812,205.16 C191.503998,205.449335 191.109669,205.677999 190.629,205.846 C190.148331,206.014001 189.656003,206.098 189.152,206.098 C188.050661,206.098 187.187336,205.77367 186.562,205.125 C185.936664,204.47633 185.624,203.587339 185.624,202.458 C185.624,201.73933 185.763999,201.102336 186.044,200.547 C186.324001,199.991664 186.715997,199.560002 187.22,199.252 C187.724003,198.943998 188.297997,198.79 188.942,198.79 C189.875338,198.79 190.607997,199.095664 191.14,199.707 C191.672003,200.318336 191.938,201.160661 191.938,202.234 L191.938,202.444 Z M188.956,199.672 C188.367997,199.672 187.889669,199.849332 187.521,200.204 C187.152331,200.558668 186.916667,201.057997 186.814,201.702 L190.916,201.702 C190.86,201.03933 190.666335,200.535335 190.335,200.19 C190.003665,199.844665 189.544003,199.672 188.956,199.672 Z M197.307,198.79 C197.540334,198.79 197.754999,198.818 197.951,198.874 L197.923,199.91 C197.708332,199.835333 197.461001,199.798 197.181,199.798 C196.499663,199.798 195.993335,200.010331 195.662,200.435 C195.330665,200.859669 195.165,201.37533 195.165,201.982 L195.165,206 L194.031,206 L194.031,200.932 C194.031,200.203996 193.993667,199.546003 193.919,198.958 L194.997,198.958 L195.109,200.26 C195.286334,199.783998 195.570998,199.420001 195.963,199.168 C196.355002,198.915999 196.802997,198.79 197.307,198.79 Z M33.5315,216.79 C34.1475031,216.79 34.6934976,216.939332 35.1695,217.238 C35.6455024,217.536668 36.0141654,217.958997 36.2755,218.505 C36.5368346,219.051003 36.6675,219.687996 36.6675,220.416 C36.6675,221.144004 36.5368346,221.785664 36.2755,222.341 C36.0141654,222.896336 35.6455024,223.327998 35.1695,223.636 C34.6934976,223.944002 34.1475031,224.098 33.5315,224.098 C32.9808306,224.098 32.5001687,223.976668 32.0895,223.734 C31.6788313,223.491332 31.3661677,223.146002 31.1515,222.698 L31.1515,224 L30.0175,224 L30.0175,213.696 L31.1515,213.696 L31.1515,218.204 C31.3568344,217.746664 31.6671646,217.396668 32.0825,217.154 C32.4978354,216.911332 32.9808306,216.79 33.5315,216.79 Z M33.3215,223.16 C34.0028367,223.16 34.5348314,222.919669 34.9175,222.439 C35.3001686,221.958331 35.4915,221.284004 35.4915,220.416 C35.4915,219.566662 35.3025019,218.908669 34.9245,218.442 C34.5464981,217.975331 34.0121701,217.742 33.3215,217.742 C32.6214965,217.742 32.0848352,217.975331 31.7115,218.442 C31.3381648,218.908669 31.1515,219.575996 31.1515,220.444 C31.1515,221.312004 31.3381648,221.981664 31.7115,222.453 C32.0848352,222.924336 32.6214965,223.16 33.3215,223.16 Z M44.8925,216.958 L41.6025,224.644 C41.2571649,225.446671 40.8231693,226.034665 40.3005,226.408 C39.7778307,226.781335 39.1338372,227.037999 38.3685,227.178 L38.1305,226.296 C38.79317,226.146666 39.2948316,225.948335 39.6355,225.701 C39.9761684,225.453665 40.2584989,225.073336 40.4825,224.56 L40.7625,223.93 L37.7805,216.958 L38.9705,216.958 L41.3505,222.768 L43.7585,216.958 L44.8925,216.958 Z M54.0485,216.79 C54.6645031,216.79 55.2104976,216.939332 55.6865,217.238 C56.1625024,217.536668 56.5311654,217.958997 56.7925,218.505 C57.0538346,219.051003 57.1845,219.687996 57.1845,220.416 C57.1845,221.144004 57.0538346,221.785664 56.7925,222.341 C56.5311654,222.896336 56.1625024,223.327998 55.6865,223.636 C55.2104976,223.944002 54.6645031,224.098 54.0485,224.098 C53.4978306,224.098 53.0171687,223.976668 52.6065,223.734 C52.1958313,223.491332 51.8831677,223.146002 51.6685,222.698 L51.6685,224 L50.5345,224 L50.5345,213.696 L51.6685,213.696 L51.6685,218.204 C51.8738344,217.746664 52.1841646,217.396668 52.5995,217.154 C53.0148354,216.911332 53.4978306,216.79 54.0485,216.79 Z M53.8385,223.16 C54.5198367,223.16 55.0518314,222.919669 55.4345,222.439 C55.8171686,221.958331 56.0085,221.284004 56.0085,220.416 C56.0085,219.566662 55.8195019,218.908669 55.4415,218.442 C55.0634981,217.975331 54.5291701,217.742 53.8385,217.742 C53.1384965,217.742 52.6018352,217.975331 52.2285,218.442 C51.8551648,218.908669 51.6685,219.575996 51.6685,220.444 C51.6685,221.312004 51.8551648,221.981664 52.2285,222.453 C52.6018352,222.924336 53.1384965,223.16 53.8385,223.16 Z M62.5815,216.79 C62.8148345,216.79 63.029499,216.818 63.2255,216.874 L63.1975,217.91 C62.9828323,217.835333 62.7355014,217.798 62.4555,217.798 C61.7741633,217.798 61.267835,218.010331 60.9365,218.435 C60.605165,218.859669 60.4395,219.37533 60.4395,219.982 L60.4395,224 L59.3055,224 L59.3055,218.932 C59.3055,218.203996 59.268167,217.546003 59.1935,216.958 L60.2715,216.958 L60.3835,218.26 C60.5608342,217.783998 60.845498,217.420001 61.2375,217.168 C61.629502,216.915999 62.0774975,216.79 62.5815,216.79 Z M70.8065,216.958 L70.8065,224 L69.6865,224 L69.6865,222.726 C69.4811656,223.164669 69.1708354,223.502999 68.7555,223.741 C68.3401646,223.979001 67.8571694,224.098 67.3065,224.098 C66.6811635,224.098 66.1328357,223.948668 65.6615,223.65 C65.1901643,223.351332 64.8261679,222.929003 64.5695,222.383 C64.312832,221.836997 64.1845,221.200004 64.1845,220.472 C64.1845,219.743996 64.3151654,219.102336 64.5765,218.547 C64.8378346,217.991664 65.2041643,217.560002 65.6755,217.252 C66.1468357,216.943998 66.6904969,216.79 67.3065,216.79 C67.8571694,216.79 68.3378313,216.911332 68.7485,217.154 C69.1591687,217.396668 69.4718323,217.737331 69.6865,218.176 L69.6865,216.958 L70.8065,216.958 Z M67.5305,223.16 C68.2211701,223.16 68.7531648,222.924336 69.1265,222.453 C69.4998352,221.981664 69.6865,221.312004 69.6865,220.444 C69.6865,219.575996 69.4998352,218.908669 69.1265,218.442 C68.7531648,217.975331 68.2211701,217.742 67.5305,217.742 C66.8398299,217.742 66.3008353,217.982331 65.9135,218.463 C65.5261647,218.943669 65.3325,219.613329 65.3325,220.472 C65.3325,221.330671 65.5238314,221.993331 65.9065,222.46 C66.2891686,222.926669 66.8304965,223.16 67.5305,223.16 Z M76.8895,216.79 C78.5788418,216.79 79.4235,217.718657 79.4235,219.576 L79.4235,224 L78.2895,224 L78.2895,219.632 C78.2895,218.978663 78.1588346,218.500335 77.8975,218.197 C77.6361654,217.893665 77.2255028,217.742 76.6655,217.742 C76.0121634,217.742 75.489502,217.942665 75.0975,218.344 C74.705498,218.745335 74.5095,219.286663 74.5095,219.968 L74.5095,224 L73.3755,224 L73.3755,218.932 C73.3755,218.203996 73.338167,217.546003 73.2635,216.958 L74.3415,216.958 L74.4535,218.218 C74.6681677,217.760664 74.9901645,217.408335 75.4195,217.161 C75.8488355,216.913665 76.3388306,216.79 76.8895,216.79 Z M88.1385,213.696 L88.1385,224 L87.0185,224 L87.0185,222.726 C86.8131656,223.164669 86.5028354,223.502999 86.0875,223.741 C85.6721646,223.979001 85.1891694,224.098 84.6385,224.098 C84.0224969,224.098 83.4788357,223.944002 83.0075,223.636 C82.5361643,223.327998 82.1698346,222.896336 81.9085,222.341 C81.6471654,221.785664 81.5165,221.144004 81.5165,220.416 C81.5165,219.687996 81.644832,219.051003 81.9015,218.505 C82.1581679,217.958997 82.5244976,217.536668 83.0005,217.238 C83.4765024,216.939332 84.0224969,216.79 84.6385,216.79 C85.1891694,216.79 85.6698313,216.908999 86.0805,217.147 C86.4911687,217.385001 86.7991656,217.718665 87.0045,218.148 L87.0045,213.696 L88.1385,213.696 Z M84.8625,223.16 C85.5531701,223.16 86.0851648,222.924336 86.4585,222.453 C86.8318352,221.981664 87.0185,221.312004 87.0185,220.444 C87.0185,219.585329 86.8318352,218.920336 86.4585,218.449 C86.0851648,217.977664 85.5531701,217.742 84.8625,217.742 C84.1718299,217.742 83.6328353,217.975331 83.2455,218.442 C82.8581647,218.908669 82.6645,219.566662 82.6645,220.416 C82.6645,221.284004 82.8581647,221.958331 83.2455,222.439 C83.6328353,222.919669 84.1718299,223.16 84.8625,223.16 Z M93.0875,224.098 C91.9021607,224.098 90.9641701,223.79467 90.2735,223.188 L90.6515,222.348 C91.0341686,222.646668 91.421498,222.861333 91.8135,222.992 C92.205502,223.122667 92.6441642,223.188 93.1295,223.188 C93.6615027,223.188 94.0651653,223.097001 94.3405,222.915 C94.6158347,222.732999 94.7535,222.469335 94.7535,222.124 C94.7535,221.843999 94.6601676,221.620001 94.4735,221.452 C94.2868324,221.283999 93.9788355,221.153334 93.5495,221.06 L92.3595,220.78 C91.7714971,220.649333 91.3165016,220.416002 90.9945,220.08 C90.6724984,219.743998 90.5115,219.342669 90.5115,218.876 C90.5115,218.259997 90.7588309,217.758335 91.2535,217.371 C91.7481691,216.983665 92.4014959,216.79 93.2135,216.79 C93.7081691,216.79 94.1748311,216.869333 94.6135,217.028 C95.0521689,217.186667 95.4208318,217.415332 95.7195,217.714 L95.3415,218.54 C94.67883,217.989331 93.9695038,217.714 93.2135,217.714 C92.7094975,217.714 92.3198347,217.809666 92.0445,218.001 C91.7691653,218.192334 91.6315,218.460665 91.6315,218.806 C91.6315,219.095335 91.7178325,219.323999 91.8905,219.492 C92.0631675,219.660001 92.3408314,219.790666 92.7235,219.884 L93.9135,220.178 C94.5668366,220.327334 95.0521651,220.558332 95.3695,220.871 C95.6868349,221.183668 95.8455,221.591997 95.8455,222.096 C95.8455,222.70267 95.5981691,223.187998 95.1035,223.552 C94.6088309,223.916002 93.9368376,224.098 93.0875,224.098 Z M103.5595,217.854 L103.5595,221.704 C103.5595,222.226669 103.666832,222.592999 103.8815,222.803 C104.096168,223.013001 104.399498,223.118 104.7915,223.118 C105.052835,223.118 105.304832,223.076 105.5475,222.992 L105.5475,223.958 C105.258165,224.051334 104.931502,224.098 104.5675,224.098 C103.895497,224.098 103.370502,223.909002 102.9925,223.531 C102.614498,223.152998 102.4255,222.595337 102.4255,221.858 L102.4255,217.854 L101.0535,217.854 L101.0535,216.958 L102.4255,216.958 L102.4255,215.152 L103.5595,214.746 L103.5595,216.958 L105.5755,216.958 L105.5755,217.854 L103.5595,217.854 Z M110.8325,216.79 C112.521842,216.79 113.3665,217.718657 113.3665,219.576 L113.3665,224 L112.2325,224 L112.2325,219.632 C112.2325,218.978663 112.101835,218.500335 111.8405,218.197 C111.579165,217.893665 111.168503,217.742 110.6085,217.742 C109.955163,217.742 109.432502,217.942665 109.0405,218.344 C108.648498,218.745335 108.4525,219.286663 108.4525,219.968 L108.4525,224 L107.3185,224 L107.3185,213.696 L108.4525,213.696 L108.4525,218.106 C108.676501,217.676665 108.996165,217.350001 109.4115,217.126 C109.826835,216.901999 110.300497,216.79 110.8325,216.79 Z M121.7735,220.444 L116.6075,220.444 C116.616833,221.340004 116.824498,222.016664 117.2305,222.474 C117.636502,222.931336 118.226829,223.16 119.0015,223.16 C119.822837,223.16 120.57883,222.884669 121.2695,222.334 L121.6475,223.16 C121.339498,223.449335 120.945169,223.677999 120.4645,223.846 C119.983831,224.014001 119.491503,224.098 118.9875,224.098 C117.886161,224.098 117.022836,223.77367 116.3975,223.125 C115.772164,222.47633 115.4595,221.587339 115.4595,220.458 C115.4595,219.73933 115.599499,219.102336 115.8795,218.547 C116.159501,217.991664 116.551497,217.560002 117.0555,217.252 C117.559503,216.943998 118.133497,216.79 118.7775,216.79 C119.710838,216.79 120.443497,217.095664 120.9755,217.707 C121.507503,218.318336 121.7735,219.160661 121.7735,220.234 L121.7735,220.444 Z M118.7915,217.672 C118.203497,217.672 117.725169,217.849332 117.3565,218.204 C116.987831,218.558668 116.752167,219.057997 116.6495,219.702 L120.7515,219.702 C120.6955,219.03933 120.501835,218.535335 120.1705,218.19 C119.839165,217.844665 119.379503,217.672 118.7915,217.672 Z M129.9705,216.958 L126.6805,224.644 C126.335165,225.446671 125.901169,226.034665 125.3785,226.408 C124.855831,226.781335 124.211837,227.037999 123.4465,227.178 L123.2085,226.296 C123.87117,226.146666 124.372832,225.948335 124.7135,225.701 C125.054168,225.453665 125.336499,225.073336 125.5605,224.56 L125.8405,223.93 L122.8585,216.958 L124.0485,216.958 L126.4285,222.768 L128.8365,216.958 L129.9705,216.958 Z M145.1885,216.958 L146.3085,216.958 L143.7045,224 L142.6125,224 L140.5965,218.498 L138.5945,224 L137.5025,224 L134.8985,216.958 L136.0885,216.958 L138.0765,222.642 L140.1345,216.958 L141.1285,216.958 L143.1585,222.656 L145.1885,216.958 Z M150.9775,224.098 C150.31483,224.098 149.731503,223.948668 149.2275,223.65 C148.723497,223.351332 148.333835,222.926669 148.0585,222.376 C147.783165,221.825331 147.6455,221.181337 147.6455,220.444 C147.6455,219.706663 147.783165,219.062669 148.0585,218.512 C148.333835,217.961331 148.723497,217.536668 149.2275,217.238 C149.731503,216.939332 150.31483,216.79 150.9775,216.79 C151.64017,216.79 152.223497,216.939332 152.7275,217.238 C153.231503,217.536668 153.621165,217.961331 153.8965,218.512 C154.171835,219.062669 154.3095,219.706663 154.3095,220.444 C154.3095,221.181337 154.171835,221.825331 153.8965,222.376 C153.621165,222.926669 153.231503,223.351332 152.7275,223.65 C152.223497,223.948668 151.64017,224.098 150.9775,224.098 Z M150.9775,223.16 C151.677503,223.16 152.214165,222.929002 152.5875,222.467 C152.960835,222.004998 153.1475,221.330671 153.1475,220.444 C153.1475,219.585329 152.956169,218.920336 152.5735,218.449 C152.190831,217.977664 151.658837,217.742 150.9775,217.742 C150.28683,217.742 149.750169,217.977664 149.3675,218.449 C148.984831,218.920336 148.7935,219.585329 148.7935,220.444 C148.7935,221.330671 148.982498,222.004998 149.3605,222.467 C149.738502,222.929002 150.277496,223.16 150.9775,223.16 Z M159.7205,216.79 C159.953834,216.79 160.168499,216.818 160.3645,216.874 L160.3365,217.91 C160.121832,217.835333 159.874501,217.798 159.5945,217.798 C158.913163,217.798 158.406835,218.010331 158.0755,218.435 C157.744165,218.859669 157.5785,219.37533 157.5785,219.982 L157.5785,224 L156.4445,224 L156.4445,218.932 C156.4445,218.203996 156.407167,217.546003 156.3325,216.958 L157.4105,216.958 L157.5225,218.26 C157.699834,217.783998 157.984498,217.420001 158.3765,217.168 C158.768502,216.915999 159.216497,216.79 159.7205,216.79 Z M168.1135,224 L166.6295,224 L163.0175,220.612 L163.0175,224 L161.8835,224 L161.8835,213.696 L163.0175,213.696 L163.0175,220.192 L166.3355,216.972 L167.7775,216.972 L164.2495,220.346 L168.1135,224 Z M183.0655,216.958 L184.1855,216.958 L181.5815,224 L180.4895,224 L178.4735,218.498 L176.4715,224 L175.3795,224 L172.7755,216.958 L173.9655,216.958 L175.9535,222.642 L178.0115,216.958 L179.0055,216.958 L181.0355,222.656 L183.0655,216.958 Z M186.0265,224 L186.0265,216.958 L187.1605,216.958 L187.1605,224 L186.0265,224 Z M185.9145,213.976 L187.3005,213.976 L187.3005,215.264 L185.9145,215.264 L185.9145,213.976 Z M191.2415,217.854 L191.2415,221.704 C191.2415,222.226669 191.348832,222.592999 191.5635,222.803 C191.778168,223.013001 192.081498,223.118 192.4735,223.118 C192.734835,223.118 192.986832,223.076 193.2295,222.992 L193.2295,223.958 C192.940165,224.051334 192.613502,224.098 192.2495,224.098 C191.577497,224.098 191.052502,223.909002 190.6745,223.531 C190.296498,223.152998 190.1075,222.595337 190.1075,221.858 L190.1075,217.854 L188.7355,217.854 L188.7355,216.958 L190.1075,216.958 L190.1075,215.152 L191.2415,214.746 L191.2415,216.958 L193.2575,216.958 L193.2575,217.854 L191.2415,217.854 Z M198.5145,216.79 C200.203842,216.79 201.0485,217.718657 201.0485,219.576 L201.0485,224 L199.9145,224 L199.9145,219.632 C199.9145,218.978663 199.783835,218.500335 199.5225,218.197 C199.261165,217.893665 198.850503,217.742 198.2905,217.742 C197.637163,217.742 197.114502,217.942665 196.7225,218.344 C196.330498,218.745335 196.1345,219.286663 196.1345,219.968 L196.1345,224 L195.0005,224 L195.0005,213.696 L196.1345,213.696 L196.1345,218.106 C196.358501,217.676665 196.678165,217.350001 197.0935,217.126 C197.508835,216.901999 197.982497,216.79 198.5145,216.79 Z M203.3655,222.558 L204.8075,222.558 L204.8075,224 L203.3655,224 L203.3655,222.558 Z" id="ShoutOutscraftedbyEliteInfuencersareconsistentlyrated4heartsorhigherbybrandstheyworkwith." fill="#545454" fill-rule="nonzero"></path>
    </g>
</svg>