<?xml version="1.0" encoding="UTF-8"?>
<svg width="235px" height="295px" viewBox="0 0 235 295" version="1.1" xmlns="http://www.w3.org/2000/svg" xmlns:xlink="http://www.w3.org/1999/xlink">
    <!-- Generator: Sketch 55.2 (78181) - https://sketchapp.com -->
    <title>authentic-card</title>
    <desc>Created with Sketch.</desc>
    <defs>
        <rect id="path-1" x="4.5" y="4.5" width="226" height="286" rx="7"></rect>
        <filter x="-3.5%" y="-2.4%" width="107.1%" height="105.6%" filterUnits="objectBoundingBox" id="filter-2">
            <feOffset dx="0" dy="1" in="SourceAlpha" result="shadowOffsetOuter1"></feOffset>
            <feGaussianBlur stdDeviation="2.5" in="shadowOffsetOuter1" result="shadowBlurOuter1"></feGaussianBlur>
            <feColorMatrix values="0 0 0 0 0   0 0 0 0 0   0 0 0 0 0  0 0 0 0.21 0" type="matrix" in="shadowBlurOuter1"></feColorMatrix>
        </filter>
        <linearGradient x1="50%" y1="0%" x2="50%" y2="100%" id="linearGradient-3">
            <stop stop-color="#36D6F3" offset="0%"></stop>
            <stop stop-color="#19ADE4" offset="100%"></stop>
        </linearGradient>
        <linearGradient x1="50%" y1="0%" x2="50%" y2="100%" id="linearGradient-4">
            <stop stop-color="#72E6DC" offset="0%"></stop>
            <stop stop-color="#3EC8B7" offset="100%"></stop>
        </linearGradient>
    </defs>
    <g id="authentic-card" stroke="none" stroke-width="1" fill="none" fill-rule="evenodd">
        <g id="Rectangle">
            <use fill="black" fill-opacity="1" filter="url(#filter-2)" xlink:href="#path-1"></use>
            <use fill="#FFFFFF" fill-rule="evenodd" xlink:href="#path-1"></use>
        </g>
        <g id="Group" transform="translate(83.000000, 39.000000)" stroke="#073863">
            <circle id="Oval-Copy" stroke-width="1.5" cx="30.5" cy="30.5" r="30.5"></circle>
            <path d="M41.6183207,31.5901408 C44.5421136,28.6663479 44.5421136,23.925943 41.6183207,21.0021501 C38.6945279,18.0783572 33.954123,18.0783572 31.0303301,21.0021501 L30.5,21.5324802 L29.9696699,21.0021501 C27.045877,18.0783572 22.3054721,18.0783572 19.3816793,21.0021501 C16.4578864,23.925943 16.4578864,28.6663479 19.3816793,31.5901408 L29.6161165,41.824578 C30.1042719,42.3127334 30.8957281,42.3127334 31.3838835,41.824578 L41.6183207,31.5901408 Z" id="Combined-Shape" stroke-width="1.5" fill="url(#linearGradient-3)"></path>
            <path d="M44.7144974,30.8365449 L35.8414413,39.709601 L31.9810538,35.8492135 C31.5278603,35.39602 30.7930886,35.39602 30.3398951,35.8492135 C29.8867016,36.3024069 29.8867016,37.0371787 30.3398951,37.4903722 L34.9972323,42.1478308 C35.0048377,42.1556748 35.0048377,42.1556748 35.01257,42.1634551 C35.4546377,42.6055227 36.168911,42.612749 36.6218718,42.1788703 C36.634035,42.1672678 36.634035,42.1672678 36.6460487,42.1553671 C36.6538304,42.1475372 36.6538304,42.1475372 36.6679522,42.1330556 L46.3394802,32.4615277 C46.7882067,32.0128011 46.7882067,31.2852715 46.3394802,30.8365449 C45.8907536,30.3878184 45.163224,30.3878184 44.7144974,30.8365449 Z" id="Combined-Shape" fill="url(#linearGradient-4)"></path>
        </g>
        <path d="M19.896,170 L19.896,160.032 L26.196,160.032 L26.196,160.984 L21.03,160.984 L21.03,164.456 L25.916,164.456 L25.916,165.422 L21.03,165.422 L21.03,169.048 L26.196,169.048 L26.196,170 L19.896,170 Z M28.459,170 L28.459,159.696 L29.593,159.696 L29.593,170 L28.459,170 Z M32.262,170 L32.262,162.958 L33.396,162.958 L33.396,170 L32.262,170 Z M32.15,159.976 L33.536,159.976 L33.536,161.264 L32.15,161.264 L32.15,159.976 Z M37.577,163.854 L37.577,167.704 C37.577,168.226669 37.6843323,168.592999 37.899,168.803 C38.1136677,169.013001 38.416998,169.118 38.809,169.118 C39.0703346,169.118 39.3223321,169.076 39.565,168.992 L39.565,169.958 C39.2756652,170.051334 38.9490018,170.098 38.585,170.098 C37.9129966,170.098 37.3880019,169.909002 37.01,169.531 C36.6319981,169.152998 36.443,168.595337 36.443,167.858 L36.443,163.854 L35.071,163.854 L35.071,162.958 L36.443,162.958 L36.443,161.152 L37.577,160.746 L37.577,162.958 L39.593,162.958 L39.593,163.854 L37.577,163.854 Z M47.33,166.444 L42.164,166.444 C42.1733334,167.340004 42.380998,168.016664 42.787,168.474 C43.193002,168.931336 43.7833295,169.16 44.558,169.16 C45.3793374,169.16 46.1353299,168.884669 46.826,168.334 L47.204,169.16 C46.8959985,169.449335 46.5016691,169.677999 46.021,169.846 C45.5403309,170.014001 45.0480025,170.098 44.544,170.098 C43.4426612,170.098 42.5793365,169.77367 41.954,169.125 C41.3286635,168.47633 41.016,167.587339 41.016,166.458 C41.016,165.73933 41.1559986,165.102336 41.436,164.547 C41.7160014,163.991664 42.1079975,163.560002 42.612,163.252 C43.1160025,162.943998 43.6899968,162.79 44.334,162.79 C45.267338,162.79 45.9999973,163.095664 46.532,163.707 C47.0640027,164.318336 47.33,165.160661 47.33,166.234 L47.33,166.444 Z M44.348,163.672 C43.7599971,163.672 43.2816685,163.849332 42.913,164.204 C42.5443315,164.558668 42.3086672,165.057997 42.206,165.702 L46.308,165.702 C46.2519997,165.03933 46.058335,164.535335 45.727,164.19 C45.395665,163.844665 44.9360029,163.672 44.348,163.672 Z M53.788,170 L53.788,160.032 L54.936,160.032 L54.936,170 L53.788,170 Z M61.245,162.79 C62.9343418,162.79 63.779,163.718657 63.779,165.576 L63.779,170 L62.645,170 L62.645,165.632 C62.645,164.978663 62.5143346,164.500335 62.253,164.197 C61.9916654,163.893665 61.5810028,163.742 61.021,163.742 C60.3676634,163.742 59.845002,163.942665 59.453,164.344 C59.060998,164.745335 58.865,165.286663 58.865,165.968 L58.865,170 L57.731,170 L57.731,164.932 C57.731,164.203996 57.693667,163.546003 57.619,162.958 L58.697,162.958 L58.809,164.218 C59.0236677,163.760664 59.3456645,163.408335 59.775,163.161 C60.2043355,162.913665 60.6943306,162.79 61.245,162.79 Z M69.094,160.62 C68.7206648,160.62 68.429001,160.724999 68.219,160.935 C68.0089989,161.145001 67.904,161.506664 67.904,162.02 L67.904,162.958 L69.626,162.958 L69.626,163.854 L67.904,163.854 L67.904,170 L66.77,170 L66.77,163.854 L65.398,163.854 L65.398,162.958 L66.77,162.958 L66.77,161.88 C66.77,161.142663 66.9543315,160.585002 67.323,160.207 C67.6916685,159.828998 68.20733,159.64 68.87,159.64 C69.1966683,159.64 69.5139985,159.682 69.822,159.766 L69.822,160.732 C69.5606654,160.657333 69.3180011,160.62 69.094,160.62 Z M71.11,170 L71.11,159.696 L72.244,159.696 L72.244,170 L71.11,170 Z M80.807,162.958 L80.807,170 L79.701,170 L79.701,168.782 C79.4769989,169.211335 79.1643353,169.537999 78.763,169.762 C78.3616647,169.986001 77.9090025,170.098 77.405,170.098 C76.5743292,170.098 75.9443355,169.864669 75.515,169.398 C75.0856645,168.931331 74.871,168.240671 74.871,167.326 L74.871,162.958 L76.005,162.958 L76.005,167.298 C76.005,167.93267 76.1356654,168.399332 76.397,168.698 C76.6583346,168.996668 77.0549973,169.146 77.587,169.146 C78.2123365,169.146 78.7163314,168.943002 79.099,168.537 C79.4816686,168.130998 79.673,167.59667 79.673,166.934 L79.673,162.958 L80.807,162.958 Z M89.356,166.444 L84.19,166.444 C84.1993334,167.340004 84.406998,168.016664 84.813,168.474 C85.219002,168.931336 85.8093295,169.16 86.584,169.16 C87.4053374,169.16 88.1613299,168.884669 88.852,168.334 L89.23,169.16 C88.9219985,169.449335 88.5276691,169.677999 88.047,169.846 C87.5663309,170.014001 87.0740025,170.098 86.57,170.098 C85.4686612,170.098 84.6053365,169.77367 83.98,169.125 C83.3546635,168.47633 83.042,167.587339 83.042,166.458 C83.042,165.73933 83.1819986,165.102336 83.462,164.547 C83.7420014,163.991664 84.1339975,163.560002 84.638,163.252 C85.1420025,162.943998 85.7159968,162.79 86.36,162.79 C87.293338,162.79 88.0259973,163.095664 88.558,163.707 C89.0900027,164.318336 89.356,165.160661 89.356,166.234 L89.356,166.444 Z M86.374,163.672 C85.7859971,163.672 85.3076685,163.849332 84.939,164.204 C84.5703315,164.558668 84.3346672,165.057997 84.232,165.702 L88.334,165.702 C88.2779997,165.03933 88.084335,164.535335 87.753,164.19 C87.421665,163.844665 86.9620029,163.672 86.374,163.672 Z M95.063,162.79 C96.7523418,162.79 97.597,163.718657 97.597,165.576 L97.597,170 L96.463,170 L96.463,165.632 C96.463,164.978663 96.3323346,164.500335 96.071,164.197 C95.8096654,163.893665 95.3990028,163.742 94.839,163.742 C94.1856634,163.742 93.663002,163.942665 93.271,164.344 C92.878998,164.745335 92.683,165.286663 92.683,165.968 L92.683,170 L91.549,170 L91.549,164.932 C91.549,164.203996 91.511667,163.546003 91.437,162.958 L92.515,162.958 L92.627,164.218 C92.8416677,163.760664 93.1636645,163.408335 93.593,163.161 C94.0223355,162.913665 94.5123306,162.79 95.063,162.79 Z M103.164,170.098 C102.482663,170.098 101.887669,169.948668 101.379,169.65 C100.870331,169.351332 100.478335,168.929003 100.203,168.383 C99.9276653,167.836997 99.79,167.200004 99.79,166.472 C99.79,165.743996 99.9299986,165.102336 100.21,164.547 C100.490001,163.991664 100.888997,163.560002 101.407,163.252 C101.925003,162.943998 102.52933,162.79 103.22,162.79 C103.696002,162.79 104.155664,162.871666 104.599,163.035 C105.042336,163.198334 105.408665,163.424665 105.698,163.714 L105.32,164.554 C104.965332,164.273999 104.622335,164.068667 104.291,163.938 C103.959665,163.807333 103.621335,163.742 103.276,163.742 C102.55733,163.742 101.992669,163.982331 101.582,164.463 C101.171331,164.943669 100.966,165.613329 100.966,166.472 C100.966,167.321338 101.168998,167.981664 101.575,168.453 C101.981002,168.924336 102.547996,169.16 103.276,169.16 C103.621335,169.16 103.959665,169.094667 104.291,168.964 C104.622335,168.833333 104.965332,168.628001 105.32,168.348 L105.698,169.188 C105.399332,169.468001 105.023669,169.689666 104.571,169.853 C104.118331,170.016334 103.649336,170.098 103.164,170.098 Z M113.505,166.444 L108.339,166.444 C108.348333,167.340004 108.555998,168.016664 108.962,168.474 C109.368002,168.931336 109.958329,169.16 110.733,169.16 C111.554337,169.16 112.31033,168.884669 113.001,168.334 L113.379,169.16 C113.070998,169.449335 112.676669,169.677999 112.196,169.846 C111.715331,170.014001 111.223003,170.098 110.719,170.098 C109.617661,170.098 108.754336,169.77367 108.129,169.125 C107.503664,168.47633 107.191,167.587339 107.191,166.458 C107.191,165.73933 107.330999,165.102336 107.611,164.547 C107.891001,163.991664 108.282997,163.560002 108.787,163.252 C109.291003,162.943998 109.864997,162.79 110.509,162.79 C111.442338,162.79 112.174997,163.095664 112.707,163.707 C113.239003,164.318336 113.505,165.160661 113.505,166.234 L113.505,166.444 Z M110.523,163.672 C109.934997,163.672 109.456669,163.849332 109.088,164.204 C108.719331,164.558668 108.483667,165.057997 108.381,165.702 L112.483,165.702 C112.427,165.03933 112.233335,164.535335 111.902,164.19 C111.570665,163.844665 111.111003,163.672 110.523,163.672 Z M118.974,162.79 C119.207334,162.79 119.421999,162.818 119.618,162.874 L119.59,163.91 C119.375332,163.835333 119.128001,163.798 118.848,163.798 C118.166663,163.798 117.660335,164.010331 117.329,164.435 C116.997665,164.859669 116.832,165.37533 116.832,165.982 L116.832,170 L115.698,170 L115.698,164.932 C115.698,164.203996 115.660667,163.546003 115.586,162.958 L116.664,162.958 L116.776,164.26 C116.953334,163.783998 117.237998,163.420001 117.63,163.168 C118.022002,162.915999 118.469997,162.79 118.974,162.79 Z M123.547,170.098 C122.361661,170.098 121.42367,169.79467 120.733,169.188 L121.111,168.348 C121.493669,168.646668 121.880998,168.861333 122.273,168.992 C122.665002,169.122667 123.103664,169.188 123.589,169.188 C124.121003,169.188 124.524665,169.097001 124.8,168.915 C125.075335,168.732999 125.213,168.469335 125.213,168.124 C125.213,167.843999 125.119668,167.620001 124.933,167.452 C124.746332,167.283999 124.438335,167.153334 124.009,167.06 L122.819,166.78 C122.230997,166.649333 121.776002,166.416002 121.454,166.08 C121.131998,165.743998 120.971,165.342669 120.971,164.876 C120.971,164.259997 121.218331,163.758335 121.713,163.371 C122.207669,162.983665 122.860996,162.79 123.673,162.79 C124.167669,162.79 124.634331,162.869333 125.073,163.028 C125.511669,163.186667 125.880332,163.415332 126.179,163.714 L125.801,164.54 C125.13833,163.989331 124.429004,163.714 123.673,163.714 C123.168997,163.714 122.779335,163.809666 122.504,164.001 C122.228665,164.192334 122.091,164.460665 122.091,164.806 C122.091,165.095335 122.177332,165.323999 122.35,165.492 C122.522668,165.660001 122.800331,165.790666 123.183,165.884 L124.373,166.178 C125.026337,166.327334 125.511665,166.558332 125.829,166.871 C126.146335,167.183668 126.305,167.591997 126.305,168.096 C126.305,168.70267 126.057669,169.187998 125.563,169.552 C125.068331,169.916002 124.396338,170.098 123.547,170.098 Z M136.221,162.79 C137.910342,162.79 138.755,163.718657 138.755,165.576 L138.755,170 L137.621,170 L137.621,165.632 C137.621,164.978663 137.490335,164.500335 137.229,164.197 C136.967665,163.893665 136.557003,163.742 135.997,163.742 C135.343663,163.742 134.821002,163.942665 134.429,164.344 C134.036998,164.745335 133.841,165.286663 133.841,165.968 L133.841,170 L132.707,170 L132.707,159.696 L133.841,159.696 L133.841,164.106 C134.065001,163.676665 134.384665,163.350001 134.8,163.126 C135.215335,162.901999 135.688997,162.79 136.221,162.79 Z M147.57,162.958 L147.57,170 L146.45,170 L146.45,168.726 C146.244666,169.164669 145.934335,169.502999 145.519,169.741 C145.103665,169.979001 144.620669,170.098 144.07,170.098 C143.444664,170.098 142.896336,169.948668 142.425,169.65 C141.953664,169.351332 141.589668,168.929003 141.333,168.383 C141.076332,167.836997 140.948,167.200004 140.948,166.472 C140.948,165.743996 141.078665,165.102336 141.34,164.547 C141.601335,163.991664 141.967664,163.560002 142.439,163.252 C142.910336,162.943998 143.453997,162.79 144.07,162.79 C144.620669,162.79 145.101331,162.911332 145.512,163.154 C145.922669,163.396668 146.235332,163.737331 146.45,164.176 L146.45,162.958 L147.57,162.958 Z M144.294,169.16 C144.98467,169.16 145.516665,168.924336 145.89,168.453 C146.263335,167.981664 146.45,167.312004 146.45,166.444 C146.45,165.575996 146.263335,164.908669 145.89,164.442 C145.516665,163.975331 144.98467,163.742 144.294,163.742 C143.60333,163.742 143.064335,163.982331 142.677,164.463 C142.289665,164.943669 142.096,165.613329 142.096,166.472 C142.096,167.330671 142.287331,167.993331 142.67,168.46 C143.052669,168.926669 143.593996,169.16 144.294,169.16 Z M155.293,162.972 L156.427,162.972 L153.389,170 L152.311,170 L149.315,162.972 L150.505,162.972 L152.885,168.768 L155.293,162.972 Z M163.954,166.444 L158.788,166.444 C158.797333,167.340004 159.004998,168.016664 159.411,168.474 C159.817002,168.931336 160.407329,169.16 161.182,169.16 C162.003337,169.16 162.75933,168.884669 163.45,168.334 L163.828,169.16 C163.519998,169.449335 163.125669,169.677999 162.645,169.846 C162.164331,170.014001 161.672003,170.098 161.168,170.098 C160.066661,170.098 159.203336,169.77367 158.578,169.125 C157.952664,168.47633 157.64,167.587339 157.64,166.458 C157.64,165.73933 157.779999,165.102336 158.06,164.547 C158.340001,163.991664 158.731997,163.560002 159.236,163.252 C159.740003,162.943998 160.313997,162.79 160.958,162.79 C161.891338,162.79 162.623997,163.095664 163.156,163.707 C163.688003,164.318336 163.954,165.160661 163.954,166.234 L163.954,166.444 Z M160.972,163.672 C160.383997,163.672 159.905669,163.849332 159.537,164.204 C159.168331,164.558668 158.932667,165.057997 158.83,165.702 L162.932,165.702 C162.876,165.03933 162.682335,164.535335 162.351,164.19 C162.019665,163.844665 161.560003,163.672 160.972,163.672 Z M176.474,162.958 L176.474,170 L175.354,170 L175.354,168.726 C175.148666,169.164669 174.838335,169.502999 174.423,169.741 C174.007665,169.979001 173.524669,170.098 172.974,170.098 C172.348664,170.098 171.800336,169.948668 171.329,169.65 C170.857664,169.351332 170.493668,168.929003 170.237,168.383 C169.980332,167.836997 169.852,167.200004 169.852,166.472 C169.852,165.743996 169.982665,165.102336 170.244,164.547 C170.505335,163.991664 170.871664,163.560002 171.343,163.252 C171.814336,162.943998 172.357997,162.79 172.974,162.79 C173.524669,162.79 174.005331,162.911332 174.416,163.154 C174.826669,163.396668 175.139332,163.737331 175.354,164.176 L175.354,162.958 L176.474,162.958 Z M173.198,169.16 C173.88867,169.16 174.420665,168.924336 174.794,168.453 C175.167335,167.981664 175.354,167.312004 175.354,166.444 C175.354,165.575996 175.167335,164.908669 174.794,164.442 C174.420665,163.975331 173.88867,163.742 173.198,163.742 C172.50733,163.742 171.968335,163.982331 171.581,164.463 C171.193665,164.943669 171,165.613329 171,166.472 C171,167.330671 171.191331,167.993331 171.574,168.46 C171.956669,168.926669 172.497996,169.16 173.198,169.16 Z M186.544,162.79 C186.777334,162.79 186.991999,162.818 187.188,162.874 L187.16,163.91 C186.945332,163.835333 186.698001,163.798 186.418,163.798 C185.736663,163.798 185.230335,164.010331 184.899,164.435 C184.567665,164.859669 184.402,165.37533 184.402,165.982 L184.402,170 L183.268,170 L183.268,164.932 C183.268,164.203996 183.230667,163.546003 183.156,162.958 L184.234,162.958 L184.346,164.26 C184.523334,163.783998 184.807998,163.420001 185.2,163.168 C185.592002,162.915999 186.039997,162.79 186.544,162.79 Z M194.561,166.444 L189.395,166.444 C189.404333,167.340004 189.611998,168.016664 190.018,168.474 C190.424002,168.931336 191.014329,169.16 191.789,169.16 C192.610337,169.16 193.36633,168.884669 194.057,168.334 L194.435,169.16 C194.126998,169.449335 193.732669,169.677999 193.252,169.846 C192.771331,170.014001 192.279003,170.098 191.775,170.098 C190.673661,170.098 189.810336,169.77367 189.185,169.125 C188.559664,168.47633 188.247,167.587339 188.247,166.458 C188.247,165.73933 188.386999,165.102336 188.667,164.547 C188.947001,163.991664 189.338997,163.560002 189.843,163.252 C190.347003,162.943998 190.920997,162.79 191.565,162.79 C192.498338,162.79 193.230997,163.095664 193.763,163.707 C194.295003,164.318336 194.561,165.160661 194.561,166.234 L194.561,166.444 Z M191.579,163.672 C190.990997,163.672 190.512669,163.849332 190.144,164.204 C189.775331,164.558668 189.539667,165.057997 189.437,165.702 L193.539,165.702 C193.483,165.03933 193.289335,164.535335 192.958,164.19 C192.626665,163.844665 192.167003,163.672 191.579,163.672 Z M202.956,162.958 L202.956,170 L201.836,170 L201.836,168.726 C201.630666,169.164669 201.320335,169.502999 200.905,169.741 C200.489665,169.979001 200.006669,170.098 199.456,170.098 C198.830664,170.098 198.282336,169.948668 197.811,169.65 C197.339664,169.351332 196.975668,168.929003 196.719,168.383 C196.462332,167.836997 196.334,167.200004 196.334,166.472 C196.334,165.743996 196.464665,165.102336 196.726,164.547 C196.987335,163.991664 197.353664,163.560002 197.825,163.252 C198.296336,162.943998 198.839997,162.79 199.456,162.79 C200.006669,162.79 200.487331,162.911332 200.898,163.154 C201.308669,163.396668 201.621332,163.737331 201.836,164.176 L201.836,162.958 L202.956,162.958 Z M199.68,169.16 C200.37067,169.16 200.902665,168.924336 201.276,168.453 C201.649335,167.981664 201.836,167.312004 201.836,166.444 C201.836,165.575996 201.649335,164.908669 201.276,164.442 C200.902665,163.975331 200.37067,163.742 199.68,163.742 C198.98933,163.742 198.450335,163.982331 198.063,164.463 C197.675665,164.943669 197.482,165.613329 197.482,166.472 C197.482,167.330671 197.673331,167.993331 198.056,168.46 C198.438669,168.926669 198.979996,169.16 199.68,169.16 Z M205.625,170 L205.625,159.696 L206.759,159.696 L206.759,170 L205.625,170 Z M40.251,180.958 L40.251,188 L39.131,188 L39.131,186.726 C38.9256656,187.164669 38.6153354,187.502999 38.2,187.741 C37.7846646,187.979001 37.3016694,188.098 36.751,188.098 C36.1256635,188.098 35.5773357,187.948668 35.106,187.65 C34.6346643,187.351332 34.2706679,186.929003 34.014,186.383 C33.757332,185.836997 33.629,185.200004 33.629,184.472 C33.629,183.743996 33.7596654,183.102336 34.021,182.547 C34.2823346,181.991664 34.6486643,181.560002 35.12,181.252 C35.5913357,180.943998 36.1349969,180.79 36.751,180.79 C37.3016694,180.79 37.7823313,180.911332 38.193,181.154 C38.6036687,181.396668 38.9163323,181.737331 39.131,182.176 L39.131,180.958 L40.251,180.958 Z M36.975,187.16 C37.6656701,187.16 38.1976648,186.924336 38.571,186.453 C38.9443352,185.981664 39.131,185.312004 39.131,184.444 C39.131,183.575996 38.9443352,182.908669 38.571,182.442 C38.1976648,181.975331 37.6656701,181.742 36.975,181.742 C36.2843299,181.742 35.7453353,181.982331 35.358,182.463 C34.9706647,182.943669 34.777,183.613329 34.777,184.472 C34.777,185.330671 34.9683314,185.993331 35.351,186.46 C35.7336686,186.926669 36.2749965,187.16 36.975,187.16 Z M48.814,180.958 L48.814,188 L47.708,188 L47.708,186.782 C47.4839989,187.211335 47.1713353,187.537999 46.77,187.762 C46.3686647,187.986001 45.9160025,188.098 45.412,188.098 C44.5813292,188.098 43.9513355,187.864669 43.522,187.398 C43.0926645,186.931331 42.878,186.240671 42.878,185.326 L42.878,180.958 L44.012,180.958 L44.012,185.298 C44.012,185.93267 44.1426654,186.399332 44.404,186.698 C44.6653346,186.996668 45.0619973,187.146 45.594,187.146 C46.2193365,187.146 46.7233314,186.943002 47.106,186.537 C47.4886686,186.130998 47.68,185.59667 47.68,184.934 L47.68,180.958 L48.814,180.958 Z M57.671,177.696 L57.671,188 L56.551,188 L56.551,186.726 C56.3456656,187.164669 56.0353354,187.502999 55.62,187.741 C55.2046646,187.979001 54.7216694,188.098 54.171,188.098 C53.5549969,188.098 53.0113357,187.944002 52.54,187.636 C52.0686643,187.327998 51.7023346,186.896336 51.441,186.341 C51.1796654,185.785664 51.049,185.144004 51.049,184.416 C51.049,183.687996 51.177332,183.051003 51.434,182.505 C51.6906679,181.958997 52.0569976,181.536668 52.533,181.238 C53.0090024,180.939332 53.5549969,180.79 54.171,180.79 C54.7216694,180.79 55.2023313,180.908999 55.613,181.147 C56.0236687,181.385001 56.3316656,181.718665 56.537,182.148 L56.537,177.696 L57.671,177.696 Z M54.395,187.16 C55.0856701,187.16 55.6176648,186.924336 55.991,186.453 C56.3643352,185.981664 56.551,185.312004 56.551,184.444 C56.551,183.585329 56.3643352,182.920336 55.991,182.449 C55.6176648,181.977664 55.0856701,181.742 54.395,181.742 C53.7043299,181.742 53.1653353,181.975331 52.778,182.442 C52.3906647,182.908669 52.197,183.566662 52.197,184.416 C52.197,185.284004 52.3906647,185.958331 52.778,186.439 C53.1653353,186.919669 53.7043299,187.16 54.395,187.16 Z M60.34,188 L60.34,180.958 L61.474,180.958 L61.474,188 L60.34,188 Z M60.228,177.976 L61.614,177.976 L61.614,179.264 L60.228,179.264 L60.228,177.976 Z M70.037,184.444 L64.871,184.444 C64.8803334,185.340004 65.087998,186.016664 65.494,186.474 C65.900002,186.931336 66.4903295,187.16 67.265,187.16 C68.0863374,187.16 68.8423299,186.884669 69.533,186.334 L69.911,187.16 C69.6029985,187.449335 69.2086691,187.677999 68.728,187.846 C68.2473309,188.014001 67.7550025,188.098 67.251,188.098 C66.1496612,188.098 65.2863365,187.77367 64.661,187.125 C64.0356635,186.47633 63.723,185.587339 63.723,184.458 C63.723,183.73933 63.8629986,183.102336 64.143,182.547 C64.4230014,181.991664 64.8149975,181.560002 65.319,181.252 C65.8230025,180.943998 66.3969968,180.79 67.041,180.79 C67.974338,180.79 68.7069973,181.095664 69.239,181.707 C69.7710027,182.318336 70.037,183.160661 70.037,184.234 L70.037,184.444 Z M67.055,181.672 C66.4669971,181.672 65.9886685,181.849332 65.62,182.204 C65.2513315,182.558668 65.0156672,183.057997 64.913,183.702 L69.015,183.702 C68.9589997,183.03933 68.765335,182.535335 68.434,182.19 C68.102665,181.844665 67.6430029,181.672 67.055,181.672 Z M75.744,180.79 C77.4333418,180.79 78.278,181.718657 78.278,183.576 L78.278,188 L77.144,188 L77.144,183.632 C77.144,182.978663 77.0133346,182.500335 76.752,182.197 C76.4906654,181.893665 76.0800028,181.742 75.52,181.742 C74.8666634,181.742 74.344002,181.942665 73.952,182.344 C73.559998,182.745335 73.364,183.286663 73.364,183.968 L73.364,188 L72.23,188 L72.23,182.932 C72.23,182.203996 72.192667,181.546003 72.118,180.958 L73.196,180.958 L73.308,182.218 C73.5226677,181.760664 73.8446645,181.408335 74.274,181.161 C74.7033355,180.913665 75.1933306,180.79 75.744,180.79 Z M83.845,188.098 C83.1636633,188.098 82.5686692,187.948668 82.06,187.65 C81.5513308,187.351332 81.1593347,186.929003 80.884,186.383 C80.6086653,185.836997 80.471,185.200004 80.471,184.472 C80.471,183.743996 80.6109986,183.102336 80.891,182.547 C81.1710014,181.991664 81.5699974,181.560002 82.088,181.252 C82.6060026,180.943998 83.2103299,180.79 83.901,180.79 C84.3770024,180.79 84.8366644,180.871666 85.28,181.035 C85.7233355,181.198334 86.0896652,181.424665 86.379,181.714 L86.001,182.554 C85.6463316,182.273999 85.303335,182.068667 84.972,181.938 C84.640665,181.807333 84.3023351,181.742 83.957,181.742 C83.2383297,181.742 82.6736687,181.982331 82.263,182.463 C81.8523313,182.943669 81.647,183.613329 81.647,184.472 C81.647,185.321338 81.849998,185.981664 82.256,186.453 C82.662002,186.924336 83.2289964,187.16 83.957,187.16 C84.3023351,187.16 84.640665,187.094667 84.972,186.964 C85.303335,186.833333 85.6463316,186.628001 86.001,186.348 L86.379,187.188 C86.0803318,187.468001 85.7046689,187.689666 85.252,187.853 C84.7993311,188.016334 84.3303358,188.098 83.845,188.098 Z M94.186,184.444 L89.02,184.444 C89.0293334,185.340004 89.236998,186.016664 89.643,186.474 C90.049002,186.931336 90.6393295,187.16 91.414,187.16 C92.2353374,187.16 92.9913299,186.884669 93.682,186.334 L94.06,187.16 C93.7519985,187.449335 93.3576691,187.677999 92.877,187.846 C92.3963309,188.014001 91.9040025,188.098 91.4,188.098 C90.2986612,188.098 89.4353365,187.77367 88.81,187.125 C88.1846635,186.47633 87.872,185.587339 87.872,184.458 C87.872,183.73933 88.0119986,183.102336 88.292,182.547 C88.5720014,181.991664 88.9639975,181.560002 89.468,181.252 C89.9720025,180.943998 90.5459968,180.79 91.19,180.79 C92.123338,180.79 92.8559973,181.095664 93.388,181.707 C93.9200027,182.318336 94.186,183.160661 94.186,184.234 L94.186,184.444 Z M91.204,181.672 C90.6159971,181.672 90.1376685,181.849332 89.769,182.204 C89.4003315,182.558668 89.1646672,183.057997 89.062,183.702 L93.164,183.702 C93.1079997,183.03933 92.914335,182.535335 92.583,182.19 C92.251665,181.844665 91.7920029,181.672 91.204,181.672 Z M97.625,186.558 L97.625,187.58 C97.625,187.972002 97.5596673,188.331332 97.429,188.658 C97.2983327,188.984668 97.0790015,189.301998 96.771,189.61 L96.239,189.204 C96.6030018,188.783998 96.8083331,188.382669 96.855,188 L96.183,188 L96.183,186.558 L97.625,186.558 Z M112.021,180.79 C113.579674,180.79 114.359,181.718657 114.359,183.576 L114.359,188 L113.225,188 L113.225,183.632 C113.225,182.96933 113.110668,182.488668 112.882,182.19 C112.653332,181.891332 112.282336,181.742 111.769,181.742 C111.171664,181.742 110.705002,181.942665 110.369,182.344 C110.032998,182.745335 109.865,183.29133 109.865,183.982 L109.865,188 L108.731,188 L108.731,183.632 C108.731,182.978663 108.614334,182.500335 108.381,182.197 C108.147665,181.893665 107.774336,181.742 107.261,181.742 C106.663664,181.742 106.194668,181.942665 105.854,182.344 C105.513332,182.745335 105.343,183.29133 105.343,183.982 L105.343,188 L104.209,188 L104.209,182.932 C104.209,182.203996 104.171667,181.546003 104.097,180.958 L105.175,180.958 L105.287,182.19 C105.483001,181.741998 105.774665,181.396668 106.162,181.154 C106.549335,180.911332 106.999664,180.79 107.513,180.79 C108.073003,180.79 108.530332,180.901999 108.885,181.126 C109.239668,181.350001 109.500999,181.695331 109.669,182.162 C109.883668,181.741998 110.198665,181.408335 110.614,181.161 C111.029335,180.913665 111.498331,180.79 112.021,180.79 Z M123.188,180.958 L123.188,188 L122.068,188 L122.068,186.726 C121.862666,187.164669 121.552335,187.502999 121.137,187.741 C120.721665,187.979001 120.238669,188.098 119.688,188.098 C119.062664,188.098 118.514336,187.948668 118.043,187.65 C117.571664,187.351332 117.207668,186.929003 116.951,186.383 C116.694332,185.836997 116.566,185.200004 116.566,184.472 C116.566,183.743996 116.696665,183.102336 116.958,182.547 C117.219335,181.991664 117.585664,181.560002 118.057,181.252 C118.528336,180.943998 119.071997,180.79 119.688,180.79 C120.238669,180.79 120.719331,180.911332 121.13,181.154 C121.540669,181.396668 121.853332,181.737331 122.068,182.176 L122.068,180.958 L123.188,180.958 Z M119.912,187.16 C120.60267,187.16 121.134665,186.924336 121.508,186.453 C121.881335,185.981664 122.068,185.312004 122.068,184.444 C122.068,183.575996 121.881335,182.908669 121.508,182.442 C121.134665,181.975331 120.60267,181.742 119.912,181.742 C119.22133,181.742 118.682335,181.982331 118.295,182.463 C117.907665,182.943669 117.714,183.613329 117.714,184.472 C117.714,185.330671 117.905331,185.993331 118.288,186.46 C118.670669,186.926669 119.211996,187.16 119.912,187.16 Z M132.059,177.696 L132.059,188 L130.939,188 L130.939,186.726 C130.733666,187.164669 130.423335,187.502999 130.008,187.741 C129.592665,187.979001 129.109669,188.098 128.559,188.098 C127.942997,188.098 127.399336,187.944002 126.928,187.636 C126.456664,187.327998 126.090335,186.896336 125.829,186.341 C125.567665,185.785664 125.437,185.144004 125.437,184.416 C125.437,183.687996 125.565332,183.051003 125.822,182.505 C126.078668,181.958997 126.444998,181.536668 126.921,181.238 C127.397002,180.939332 127.942997,180.79 128.559,180.79 C129.109669,180.79 129.590331,180.908999 130.001,181.147 C130.411669,181.385001 130.719666,181.718665 130.925,182.148 L130.925,177.696 L132.059,177.696 Z M128.783,187.16 C129.47367,187.16 130.005665,186.924336 130.379,186.453 C130.752335,185.981664 130.939,185.312004 130.939,184.444 C130.939,183.585329 130.752335,182.920336 130.379,182.449 C130.005665,181.977664 129.47367,181.742 128.783,181.742 C128.09233,181.742 127.553335,181.975331 127.166,182.442 C126.778665,182.908669 126.585,183.566662 126.585,184.416 C126.585,185.284004 126.778665,185.958331 127.166,186.439 C127.553335,186.919669 128.09233,187.16 128.783,187.16 Z M140.622,184.444 L135.456,184.444 C135.465333,185.340004 135.672998,186.016664 136.079,186.474 C136.485002,186.931336 137.075329,187.16 137.85,187.16 C138.671337,187.16 139.42733,186.884669 140.118,186.334 L140.496,187.16 C140.187998,187.449335 139.793669,187.677999 139.313,187.846 C138.832331,188.014001 138.340003,188.098 137.836,188.098 C136.734661,188.098 135.871336,187.77367 135.246,187.125 C134.620664,186.47633 134.308,185.587339 134.308,184.458 C134.308,183.73933 134.447999,183.102336 134.728,182.547 C135.008001,181.991664 135.399997,181.560002 135.904,181.252 C136.408003,180.943998 136.981997,180.79 137.626,180.79 C138.559338,180.79 139.291997,181.095664 139.824,181.707 C140.356003,182.318336 140.622,183.160661 140.622,184.234 L140.622,184.444 Z M137.64,181.672 C137.051997,181.672 136.573669,181.849332 136.205,182.204 C135.836331,182.558668 135.600667,183.057997 135.498,183.702 L139.6,183.702 C139.544,183.03933 139.350335,182.535335 139.019,182.19 C138.687665,181.844665 138.228003,181.672 137.64,181.672 Z M152.834,180.958 L152.834,188 L151.728,188 L151.728,186.782 C151.503999,187.211335 151.191335,187.537999 150.79,187.762 C150.388665,187.986001 149.936003,188.098 149.432,188.098 C148.601329,188.098 147.971335,187.864669 147.542,187.398 C147.112665,186.931331 146.898,186.240671 146.898,185.326 L146.898,180.958 L148.032,180.958 L148.032,185.298 C148.032,185.93267 148.162665,186.399332 148.424,186.698 C148.685335,186.996668 149.081997,187.146 149.614,187.146 C150.239336,187.146 150.743331,186.943002 151.126,186.537 C151.508669,186.130998 151.7,185.59667 151.7,184.934 L151.7,180.958 L152.834,180.958 Z M159.003,180.79 C159.619003,180.79 160.164998,180.943998 160.641,181.252 C161.117002,181.560002 161.485665,181.991664 161.747,182.547 C162.008335,183.102336 162.139,183.743996 162.139,184.472 C162.139,185.200004 162.008335,185.836997 161.747,186.383 C161.485665,186.929003 161.119336,187.351332 160.648,187.65 C160.176664,187.948668 159.628336,188.098 159.003,188.098 C158.452331,188.098 157.971669,187.976668 157.561,187.734 C157.150331,187.491332 156.837668,187.146002 156.623,186.698 L156.623,191.024 L155.489,191.024 L155.489,182.932 C155.489,182.203996 155.451667,181.546003 155.377,180.958 L156.455,180.958 L156.567,182.316 C156.763001,181.830664 157.073331,181.455001 157.498,181.189 C157.922669,180.922999 158.42433,180.79 159.003,180.79 Z M158.793,187.16 C159.48367,187.16 160.017998,186.926669 160.396,186.46 C160.774002,185.993331 160.963,185.330671 160.963,184.472 C160.963,183.613329 160.771669,182.943669 160.389,182.463 C160.006331,181.982331 159.474337,181.742 158.793,181.742 C158.092996,181.742 157.556335,181.975331 157.183,182.442 C156.809665,182.908669 156.623,183.575996 156.623,184.444 C156.623,185.312004 156.809665,185.981664 157.183,186.453 C157.556335,186.924336 158.092996,187.16 158.793,187.16 Z M171.397,188.098 C170.73433,188.098 170.151003,187.948668 169.647,187.65 C169.142997,187.351332 168.753335,186.926669 168.478,186.376 C168.202665,185.825331 168.065,185.181337 168.065,184.444 C168.065,183.706663 168.202665,183.062669 168.478,182.512 C168.753335,181.961331 169.142997,181.536668 169.647,181.238 C170.151003,180.939332 170.73433,180.79 171.397,180.79 C172.05967,180.79 172.642997,180.939332 173.147,181.238 C173.651003,181.536668 174.040665,181.961331 174.316,182.512 C174.591335,183.062669 174.729,183.706663 174.729,184.444 C174.729,185.181337 174.591335,185.825331 174.316,186.376 C174.040665,186.926669 173.651003,187.351332 173.147,187.65 C172.642997,187.948668 172.05967,188.098 171.397,188.098 Z M171.397,187.16 C172.097003,187.16 172.633665,186.929002 173.007,186.467 C173.380335,186.004998 173.567,185.330671 173.567,184.444 C173.567,183.585329 173.375669,182.920336 172.993,182.449 C172.610331,181.977664 172.078337,181.742 171.397,181.742 C170.70633,181.742 170.169669,181.977664 169.787,182.449 C169.404331,182.920336 169.213,183.585329 169.213,184.444 C169.213,185.330671 169.401998,186.004998 169.78,186.467 C170.158002,186.929002 170.696997,187.16 171.397,187.16 Z M179.652,178.62 C179.278665,178.62 178.987001,178.724999 178.777,178.935 C178.566999,179.145001 178.462,179.506664 178.462,180.02 L178.462,180.958 L180.184,180.958 L180.184,181.854 L178.462,181.854 L178.462,188 L177.328,188 L177.328,181.854 L175.956,181.854 L175.956,180.958 L177.328,180.958 L177.328,179.88 C177.328,179.142663 177.512331,178.585002 177.881,178.207 C178.249669,177.828998 178.76533,177.64 179.428,177.64 C179.754668,177.64 180.071998,177.682 180.38,177.766 L180.38,178.732 C180.118665,178.657333 179.876001,178.62 179.652,178.62 Z M192.466,180.958 L192.466,188 L191.346,188 L191.346,186.726 C191.140666,187.164669 190.830335,187.502999 190.415,187.741 C189.999665,187.979001 189.516669,188.098 188.966,188.098 C188.340664,188.098 187.792336,187.948668 187.321,187.65 C186.849664,187.351332 186.485668,186.929003 186.229,186.383 C185.972332,185.836997 185.844,185.200004 185.844,184.472 C185.844,183.743996 185.974665,183.102336 186.236,182.547 C186.497335,181.991664 186.863664,181.560002 187.335,181.252 C187.806336,180.943998 188.349997,180.79 188.966,180.79 C189.516669,180.79 189.997331,180.911332 190.408,181.154 C190.818669,181.396668 191.131332,181.737331 191.346,182.176 L191.346,180.958 L192.466,180.958 Z M189.19,187.16 C189.88067,187.16 190.412665,186.924336 190.786,186.453 C191.159335,185.981664 191.346,185.312004 191.346,184.444 C191.346,183.575996 191.159335,182.908669 190.786,182.442 C190.412665,181.975331 189.88067,181.742 189.19,181.742 C188.49933,181.742 187.960335,181.982331 187.573,182.463 C187.185665,182.943669 186.992,183.613329 186.992,184.472 C186.992,185.330671 187.183331,185.993331 187.566,186.46 C187.948669,186.926669 188.489996,187.16 189.19,187.16 Z M29.749,198.79 C31.3076745,198.79 32.087,199.718657 32.087,201.576 L32.087,206 L30.953,206 L30.953,201.632 C30.953,200.96933 30.8386678,200.488668 30.61,200.19 C30.3813322,199.891332 30.0103359,199.742 29.497,199.742 C28.8996637,199.742 28.4330017,199.942665 28.097,200.344 C27.7609983,200.745335 27.593,201.29133 27.593,201.982 L27.593,206 L26.459,206 L26.459,201.632 C26.459,200.978663 26.3423345,200.500335 26.109,200.197 C25.8756655,199.893665 25.5023359,199.742 24.989,199.742 C24.3916637,199.742 23.9226684,199.942665 23.582,200.344 C23.2413316,200.745335 23.071,201.29133 23.071,201.982 L23.071,206 L21.937,206 L21.937,200.932 C21.937,200.203996 21.899667,199.546003 21.825,198.958 L22.903,198.958 L23.015,200.19 C23.211001,199.741998 23.5026647,199.396668 23.89,199.154 C24.2773353,198.911332 24.7276641,198.79 25.241,198.79 C25.8010028,198.79 26.2583316,198.901999 26.613,199.126 C26.9676684,199.350001 27.2289992,199.695331 27.397,200.162 C27.6116677,199.741998 27.9266646,199.408335 28.342,199.161 C28.7573354,198.913665 29.2263307,198.79 29.749,198.79 Z M34.714,206 L34.714,198.958 L35.848,198.958 L35.848,206 L34.714,206 Z M34.602,195.976 L35.988,195.976 L35.988,197.264 L34.602,197.264 L34.602,195.976 Z M42.031,198.79 C43.7203418,198.79 44.565,199.718657 44.565,201.576 L44.565,206 L43.431,206 L43.431,201.632 C43.431,200.978663 43.3003346,200.500335 43.039,200.197 C42.7776654,199.893665 42.3670028,199.742 41.807,199.742 C41.1536634,199.742 40.631002,199.942665 40.239,200.344 C39.846998,200.745335 39.651,201.286663 39.651,201.968 L39.651,206 L38.517,206 L38.517,200.932 C38.517,200.203996 38.479667,199.546003 38.405,198.958 L39.483,198.958 L39.595,200.218 C39.8096677,199.760664 40.1316645,199.408335 40.561,199.161 C40.9903355,198.913665 41.4803306,198.79 42.031,198.79 Z M47.178,206 L47.178,198.958 L48.312,198.958 L48.312,206 L47.178,206 Z M47.066,195.976 L48.452,195.976 L48.452,197.264 L47.066,197.264 L47.066,195.976 Z M58.793,198.79 C60.3516745,198.79 61.131,199.718657 61.131,201.576 L61.131,206 L59.997,206 L59.997,201.632 C59.997,200.96933 59.8826678,200.488668 59.654,200.19 C59.4253322,199.891332 59.0543359,199.742 58.541,199.742 C57.9436637,199.742 57.4770017,199.942665 57.141,200.344 C56.8049983,200.745335 56.637,201.29133 56.637,201.982 L56.637,206 L55.503,206 L55.503,201.632 C55.503,200.978663 55.3863345,200.500335 55.153,200.197 C54.9196655,199.893665 54.5463359,199.742 54.033,199.742 C53.4356637,199.742 52.9666684,199.942665 52.626,200.344 C52.2853316,200.745335 52.115,201.29133 52.115,201.982 L52.115,206 L50.981,206 L50.981,200.932 C50.981,200.203996 50.943667,199.546003 50.869,198.958 L51.947,198.958 L52.059,200.19 C52.255001,199.741998 52.5466647,199.396668 52.934,199.154 C53.3213353,198.911332 53.7716641,198.79 54.285,198.79 C54.8450028,198.79 55.3023316,198.901999 55.657,199.126 C56.0116684,199.350001 56.2729992,199.695331 56.441,200.162 C56.6556677,199.741998 56.9706646,199.408335 57.386,199.161 C57.8013354,198.913665 58.2703307,198.79 58.793,198.79 Z M69.652,198.958 L69.652,206 L68.546,206 L68.546,204.782 C68.3219989,205.211335 68.0093353,205.537999 67.608,205.762 C67.2066647,205.986001 66.7540025,206.098 66.25,206.098 C65.4193292,206.098 64.7893355,205.864669 64.36,205.398 C63.9306645,204.931331 63.716,204.240671 63.716,203.326 L63.716,198.958 L64.85,198.958 L64.85,203.298 C64.85,203.93267 64.9806654,204.399332 65.242,204.698 C65.5033346,204.996668 65.8999973,205.146 66.432,205.146 C67.0573365,205.146 67.5613314,204.943002 67.944,204.537 C68.3266686,204.130998 68.518,203.59667 68.518,202.934 L68.518,198.958 L69.652,198.958 Z M80.119,198.79 C81.6776745,198.79 82.457,199.718657 82.457,201.576 L82.457,206 L81.323,206 L81.323,201.632 C81.323,200.96933 81.2086678,200.488668 80.98,200.19 C80.7513322,199.891332 80.3803359,199.742 79.867,199.742 C79.2696637,199.742 78.8030017,199.942665 78.467,200.344 C78.1309983,200.745335 77.963,201.29133 77.963,201.982 L77.963,206 L76.829,206 L76.829,201.632 C76.829,200.978663 76.7123345,200.500335 76.479,200.197 C76.2456655,199.893665 75.8723359,199.742 75.359,199.742 C74.7616637,199.742 74.2926684,199.942665 73.952,200.344 C73.6113316,200.745335 73.441,201.29133 73.441,201.982 L73.441,206 L72.307,206 L72.307,200.932 C72.307,200.203996 72.269667,199.546003 72.195,198.958 L73.273,198.958 L73.385,200.19 C73.581001,199.741998 73.8726647,199.396668 74.26,199.154 C74.6473353,198.911332 75.0976641,198.79 75.611,198.79 C76.1710028,198.79 76.6283316,198.901999 76.983,199.126 C77.3376684,199.350001 77.5989992,199.695331 77.767,200.162 C77.9816677,199.741998 78.2966646,199.408335 78.712,199.161 C79.1273354,198.913665 79.5963307,198.79 80.119,198.79 Z M92.121,206.098 C91.45833,206.098 90.8750025,205.948668 90.371,205.65 C89.8669975,205.351332 89.4773347,204.926669 89.202,204.376 C88.9266653,203.825331 88.789,203.181337 88.789,202.444 C88.789,201.706663 88.9266653,201.062669 89.202,200.512 C89.4773347,199.961331 89.8669975,199.536668 90.371,199.238 C90.8750025,198.939332 91.45833,198.79 92.121,198.79 C92.78367,198.79 93.3669975,198.939332 93.871,199.238 C94.3750025,199.536668 94.7646653,199.961331 95.04,200.512 C95.3153347,201.062669 95.453,201.706663 95.453,202.444 C95.453,203.181337 95.3153347,203.825331 95.04,204.376 C94.7646653,204.926669 94.3750025,205.351332 93.871,205.65 C93.3669975,205.948668 92.78367,206.098 92.121,206.098 Z M92.121,205.16 C92.8210035,205.16 93.3576648,204.929002 93.731,204.467 C94.1043352,204.004998 94.291,203.330671 94.291,202.444 C94.291,201.585329 94.0996686,200.920336 93.717,200.449 C93.3343314,199.977664 92.8023367,199.742 92.121,199.742 C91.4303299,199.742 90.8936686,199.977664 90.511,200.449 C90.1283314,200.920336 89.937,201.585329 89.937,202.444 C89.937,203.330671 90.1259981,204.004998 90.504,204.467 C90.8820019,204.929002 91.4209965,205.16 92.121,205.16 Z M100.376,196.62 C100.002665,196.62 99.711001,196.724999 99.501,196.935 C99.2909989,197.145001 99.186,197.506664 99.186,198.02 L99.186,198.958 L100.908,198.958 L100.908,199.854 L99.186,199.854 L99.186,206 L98.052,206 L98.052,199.854 L96.68,199.854 L96.68,198.958 L98.052,198.958 L98.052,197.88 C98.052,197.142663 98.2363315,196.585002 98.605,196.207 C98.9736685,195.828998 99.48933,195.64 100.152,195.64 C100.478668,195.64 100.795998,195.682 101.104,195.766 L101.104,196.732 C100.842665,196.657333 100.600001,196.62 100.376,196.62 Z M111.608,200.876 C112.261337,201.053334 112.767665,201.358998 113.127,201.793 C113.486335,202.227002 113.666,202.74733 113.666,203.354 C113.666,204.203338 113.344003,204.872998 112.7,205.363 C112.055997,205.853002 111.188005,206.098 110.096,206.098 C109.003995,206.098 108.136003,205.853002 107.492,205.363 C106.847997,204.872998 106.526,204.203338 106.526,203.354 C106.526,202.74733 106.710331,202.224669 107.079,201.786 C107.447669,201.347331 107.953997,201.044001 108.598,200.876 C108.000664,200.698666 107.543335,200.407002 107.226,200.001 C106.908665,199.594998 106.75,199.116669 106.75,198.566 C106.75,198.033997 106.889999,197.569669 107.17,197.173 C107.450001,196.776331 107.844331,196.468334 108.353,196.249 C108.861669,196.029666 109.442663,195.92 110.096,195.92 C110.749337,195.92 111.330331,196.029666 111.839,196.249 C112.347669,196.468334 112.741999,196.776331 113.022,197.173 C113.302001,197.569669 113.442,198.033997 113.442,198.566 C113.442,199.116669 113.281002,199.594998 112.959,200.001 C112.636998,200.407002 112.18667,200.698666 111.608,200.876 Z M107.898,198.65 C107.898,199.182003 108.096331,199.613665 108.493,199.945 C108.889669,200.276335 109.423997,200.479333 110.096,200.554 C110.768003,200.479333 111.302331,200.276335 111.699,199.945 C112.095669,199.613665 112.294,199.182003 112.294,198.65 C112.294,198.099331 112.100335,197.665335 111.713,197.348 C111.325665,197.030665 110.78667,196.872 110.096,196.872 C109.40533,196.872 108.866335,197.030665 108.479,197.348 C108.091665,197.665335 107.898,198.099331 107.898,198.65 Z M110.096,205.146 C110.880004,205.146 111.481998,204.987335 111.902,204.67 C112.322002,204.352665 112.532,203.89067 112.532,203.284 C112.532,202.733331 112.310336,202.292335 111.867,201.961 C111.423664,201.629665 110.833337,201.426667 110.096,201.352 C109.358663,201.426667 108.768336,201.629665 108.325,201.961 C107.881664,202.292335 107.66,202.733331 107.66,203.284 C107.66,203.89067 107.869998,204.352665 108.29,204.67 C108.710002,204.987335 109.311996,205.146 110.096,205.146 Z M119.387,199.742 C120.012336,199.742 120.560664,199.874999 121.032,200.141 C121.503336,200.407001 121.864999,200.777998 122.117,201.254 C122.369001,201.730002 122.495,202.280664 122.495,202.906 C122.495,203.531336 122.357335,204.086664 122.082,204.572 C121.806665,205.057336 121.414669,205.432999 120.906,205.699 C120.397331,205.965001 119.802337,206.098 119.121,206.098 C118.51433,206.098 117.917003,205.988334 117.329,205.769 C116.740997,205.549666 116.246335,205.248669 115.845,204.866 L116.279,203.984 C117.203005,204.749337 118.150328,205.132 119.121,205.132 C119.821003,205.132 120.369331,204.933669 120.766,204.537 C121.162669,204.140331 121.361,203.601337 121.361,202.92 C121.361,202.25733 121.165002,201.723002 120.773,201.317 C120.380998,200.910998 119.858337,200.708 119.205,200.708 C118.252995,200.708 117.492336,201.095329 116.923,201.87 L116.125,201.87 L116.125,196.032 L122.103,196.032 L122.103,196.984 L117.273,196.984 L117.273,200.54 C117.823669,200.007997 118.528329,199.742 119.387,199.742 Z M126.816,202.01 C126.059996,202.01 125.472002,201.753336 125.052,201.24 C124.631998,200.726664 124.422,199.966005 124.422,198.958 C124.422,197.959328 124.631998,197.203336 125.052,196.69 C125.472002,196.176664 126.059996,195.92 126.816,195.92 C127.572004,195.92 128.162331,196.176664 128.587,196.69 C129.011669,197.203336 129.224,197.959328 129.224,198.958 C129.224,199.966005 129.011669,200.726664 128.587,201.24 C128.162331,201.753336 127.572004,202.01 126.816,202.01 Z M127.88,206 L126.774,206 L132.542,196.032 L133.648,196.032 L127.88,206 Z M126.816,201.198 C127.282669,201.198 127.625666,201.018335 127.845,200.659 C128.064334,200.299665 128.174,199.732671 128.174,198.958 C128.174,198.192663 128.064334,197.630335 127.845,197.271 C127.625666,196.911665 127.282669,196.732 126.816,196.732 C126.358664,196.732 126.018001,196.911665 125.794,197.271 C125.569999,197.630335 125.458,198.192663 125.458,198.958 C125.458,199.732671 125.569999,200.299665 125.794,200.659 C126.018001,201.018335 126.358664,201.198 126.816,201.198 Z M133.606,206.098 C132.849996,206.098 132.262002,205.841336 131.842,205.328 C131.421998,204.814664 131.212,204.054005 131.212,203.046 C131.212,202.037995 131.421998,201.279669 131.842,200.771 C132.262002,200.262331 132.849996,200.008 133.606,200.008 C134.362004,200.008 134.952331,200.262331 135.377,200.771 C135.801669,201.279669 136.014,202.037995 136.014,203.046 C136.014,204.054005 135.801669,204.814664 135.377,205.328 C134.952331,205.841336 134.362004,206.098 133.606,206.098 Z M133.606,205.286 C134.082002,205.286 134.429666,205.108668 134.649,204.754 C134.868334,204.399332 134.978,203.830004 134.978,203.046 C134.978,202.280663 134.866001,201.718335 134.642,201.359 C134.417999,200.999665 134.072669,200.82 133.606,200.82 C133.139331,200.82 132.796334,200.999665 132.577,201.359 C132.357666,201.718335 132.248,202.280663 132.248,203.046 C132.248,203.820671 132.357666,204.387665 132.577,204.747 C132.796334,205.106335 133.139331,205.286 133.606,205.286 Z M148.674,198.958 L148.674,206 L147.554,206 L147.554,204.726 C147.348666,205.164669 147.038335,205.502999 146.623,205.741 C146.207665,205.979001 145.724669,206.098 145.174,206.098 C144.548664,206.098 144.000336,205.948668 143.529,205.65 C143.057664,205.351332 142.693668,204.929003 142.437,204.383 C142.180332,203.836997 142.052,203.200004 142.052,202.472 C142.052,201.743996 142.182665,201.102336 142.444,200.547 C142.705335,199.991664 143.071664,199.560002 143.543,199.252 C144.014336,198.943998 144.557997,198.79 145.174,198.79 C145.724669,198.79 146.205331,198.911332 146.616,199.154 C147.026669,199.396668 147.339332,199.737331 147.554,200.176 L147.554,198.958 L148.674,198.958 Z M145.398,205.16 C146.08867,205.16 146.620665,204.924336 146.994,204.453 C147.367335,203.981664 147.554,203.312004 147.554,202.444 C147.554,201.575996 147.367335,200.908669 146.994,200.442 C146.620665,199.975331 146.08867,199.742 145.398,199.742 C144.70733,199.742 144.168335,199.982331 143.781,200.463 C143.393665,200.943669 143.2,201.613329 143.2,202.472 C143.2,203.330671 143.391331,203.993331 143.774,204.46 C144.156669,204.926669 144.697996,205.16 145.398,205.16 Z M157.237,198.958 L157.237,206 L156.131,206 L156.131,204.782 C155.906999,205.211335 155.594335,205.537999 155.193,205.762 C154.791665,205.986001 154.339003,206.098 153.835,206.098 C153.004329,206.098 152.374335,205.864669 151.945,205.398 C151.515665,204.931331 151.301,204.240671 151.301,203.326 L151.301,198.958 L152.435,198.958 L152.435,203.298 C152.435,203.93267 152.565665,204.399332 152.827,204.698 C153.088335,204.996668 153.484997,205.146 154.017,205.146 C154.642336,205.146 155.146331,204.943002 155.529,204.537 C155.911669,204.130998 156.103,203.59667 156.103,202.934 L156.103,198.958 L157.237,198.958 Z M161.404,199.854 L161.404,203.704 C161.404,204.226669 161.511332,204.592999 161.726,204.803 C161.940668,205.013001 162.243998,205.118 162.636,205.118 C162.897335,205.118 163.149332,205.076 163.392,204.992 L163.392,205.958 C163.102665,206.051334 162.776002,206.098 162.412,206.098 C161.739997,206.098 161.215002,205.909002 160.837,205.531 C160.458998,205.152998 160.27,204.595337 160.27,203.858 L160.27,199.854 L158.898,199.854 L158.898,198.958 L160.27,198.958 L160.27,197.152 L161.404,196.746 L161.404,198.958 L163.42,198.958 L163.42,199.854 L161.404,199.854 Z M168.777,198.79 C170.466342,198.79 171.311,199.718657 171.311,201.576 L171.311,206 L170.177,206 L170.177,201.632 C170.177,200.978663 170.046335,200.500335 169.785,200.197 C169.523665,199.893665 169.113003,199.742 168.553,199.742 C167.899663,199.742 167.377002,199.942665 166.985,200.344 C166.592998,200.745335 166.397,201.286663 166.397,201.968 L166.397,206 L165.263,206 L165.263,195.696 L166.397,195.696 L166.397,200.106 C166.621001,199.676665 166.940665,199.350001 167.356,199.126 C167.771335,198.901999 168.244997,198.79 168.777,198.79 Z M179.818,202.444 L174.652,202.444 C174.661333,203.340004 174.868998,204.016664 175.275,204.474 C175.681002,204.931336 176.271329,205.16 177.046,205.16 C177.867337,205.16 178.62333,204.884669 179.314,204.334 L179.692,205.16 C179.383998,205.449335 178.989669,205.677999 178.509,205.846 C178.028331,206.014001 177.536003,206.098 177.032,206.098 C175.930661,206.098 175.067336,205.77367 174.442,205.125 C173.816664,204.47633 173.504,203.587339 173.504,202.458 C173.504,201.73933 173.643999,201.102336 173.924,200.547 C174.204001,199.991664 174.595997,199.560002 175.1,199.252 C175.604003,198.943998 176.177997,198.79 176.822,198.79 C177.755338,198.79 178.487997,199.095664 179.02,199.707 C179.552003,200.318336 179.818,201.160661 179.818,202.234 L179.818,202.444 Z M176.836,199.672 C176.247997,199.672 175.769669,199.849332 175.401,200.204 C175.032331,200.558668 174.796667,201.057997 174.694,201.702 L178.796,201.702 C178.74,201.03933 178.546335,200.535335 178.215,200.19 C177.883665,199.844665 177.424003,199.672 176.836,199.672 Z M185.525,198.79 C187.214342,198.79 188.059,199.718657 188.059,201.576 L188.059,206 L186.925,206 L186.925,201.632 C186.925,200.978663 186.794335,200.500335 186.533,200.197 C186.271665,199.893665 185.861003,199.742 185.301,199.742 C184.647663,199.742 184.125002,199.942665 183.733,200.344 C183.340998,200.745335 183.145,201.286663 183.145,201.968 L183.145,206 L182.011,206 L182.011,200.932 C182.011,200.203996 181.973667,199.546003 181.899,198.958 L182.977,198.958 L183.089,200.218 C183.303668,199.760664 183.625665,199.408335 184.055,199.161 C184.484335,198.913665 184.974331,198.79 185.525,198.79 Z M192.184,199.854 L192.184,203.704 C192.184,204.226669 192.291332,204.592999 192.506,204.803 C192.720668,205.013001 193.023998,205.118 193.416,205.118 C193.677335,205.118 193.929332,205.076 194.172,204.992 L194.172,205.958 C193.882665,206.051334 193.556002,206.098 193.192,206.098 C192.519997,206.098 191.995002,205.909002 191.617,205.531 C191.238998,205.152998 191.05,204.595337 191.05,203.858 L191.05,199.854 L189.678,199.854 L189.678,198.958 L191.05,198.958 L191.05,197.152 L192.184,196.746 L192.184,198.958 L194.2,198.958 L194.2,199.854 L192.184,199.854 Z M196.043,206 L196.043,198.958 L197.177,198.958 L197.177,206 L196.043,206 Z M195.931,195.976 L197.317,195.976 L197.317,197.264 L195.931,197.264 L195.931,195.976 Z M202.8,206.098 C202.118663,206.098 201.523669,205.948668 201.015,205.65 C200.506331,205.351332 200.114335,204.929003 199.839,204.383 C199.563665,203.836997 199.426,203.200004 199.426,202.472 C199.426,201.743996 199.565999,201.102336 199.846,200.547 C200.126001,199.991664 200.524997,199.560002 201.043,199.252 C201.561003,198.943998 202.16533,198.79 202.856,198.79 C203.332002,198.79 203.791664,198.871666 204.235,199.035 C204.678336,199.198334 205.044665,199.424665 205.334,199.714 L204.956,200.554 C204.601332,200.273999 204.258335,200.068667 203.927,199.938 C203.595665,199.807333 203.257335,199.742 202.912,199.742 C202.19333,199.742 201.628669,199.982331 201.218,200.463 C200.807331,200.943669 200.602,201.613329 200.602,202.472 C200.602,203.321338 200.804998,203.981664 201.211,204.453 C201.617002,204.924336 202.183996,205.16 202.912,205.16 C203.257335,205.16 203.595665,205.094667 203.927,204.964 C204.258335,204.833333 204.601332,204.628001 204.956,204.348 L205.334,205.188 C205.035332,205.468001 204.659669,205.689666 204.207,205.853 C203.754331,206.016334 203.285336,206.098 202.8,206.098 Z M38.3775,224.098 C37.1921607,224.098 36.2541701,223.79467 35.5635,223.188 L35.9415,222.348 C36.3241686,222.646668 36.711498,222.861333 37.1035,222.992 C37.495502,223.122667 37.9341642,223.188 38.4195,223.188 C38.9515027,223.188 39.3551653,223.097001 39.6305,222.915 C39.9058347,222.732999 40.0435,222.469335 40.0435,222.124 C40.0435,221.843999 39.9501676,221.620001 39.7635,221.452 C39.5768324,221.283999 39.2688355,221.153334 38.8395,221.06 L37.6495,220.78 C37.0614971,220.649333 36.6065016,220.416002 36.2845,220.08 C35.9624984,219.743998 35.8015,219.342669 35.8015,218.876 C35.8015,218.259997 36.0488309,217.758335 36.5435,217.371 C37.0381691,216.983665 37.6914959,216.79 38.5035,216.79 C38.9981691,216.79 39.4648311,216.869333 39.9035,217.028 C40.3421689,217.186667 40.7108318,217.415332 41.0095,217.714 L40.6315,218.54 C39.96883,217.989331 39.2595038,217.714 38.5035,217.714 C37.9994975,217.714 37.6098347,217.809666 37.3345,218.001 C37.0591653,218.192334 36.9215,218.460665 36.9215,218.806 C36.9215,219.095335 37.0078325,219.323999 37.1805,219.492 C37.3531675,219.660001 37.6308314,219.790666 38.0135,219.884 L39.2035,220.178 C39.8568366,220.327334 40.3421651,220.558332 40.6595,220.871 C40.9768349,221.183668 41.1355,221.591997 41.1355,222.096 C41.1355,222.70267 40.8881691,223.187998 40.3935,223.552 C39.8988309,223.916002 39.2268376,224.098 38.3775,224.098 Z M46.3245,224.098 C45.66183,224.098 45.0785025,223.948668 44.5745,223.65 C44.0704975,223.351332 43.6808347,222.926669 43.4055,222.376 C43.1301653,221.825331 42.9925,221.181337 42.9925,220.444 C42.9925,219.706663 43.1301653,219.062669 43.4055,218.512 C43.6808347,217.961331 44.0704975,217.536668 44.5745,217.238 C45.0785025,216.939332 45.66183,216.79 46.3245,216.79 C46.98717,216.79 47.5704975,216.939332 48.0745,217.238 C48.5785025,217.536668 48.9681653,217.961331 49.2435,218.512 C49.5188347,219.062669 49.6565,219.706663 49.6565,220.444 C49.6565,221.181337 49.5188347,221.825331 49.2435,222.376 C48.9681653,222.926669 48.5785025,223.351332 48.0745,223.65 C47.5704975,223.948668 46.98717,224.098 46.3245,224.098 Z M46.3245,223.16 C47.0245035,223.16 47.5611648,222.929002 47.9345,222.467 C48.3078352,222.004998 48.4945,221.330671 48.4945,220.444 C48.4945,219.585329 48.3031686,218.920336 47.9205,218.449 C47.5378314,217.977664 47.0058367,217.742 46.3245,217.742 C45.6338299,217.742 45.0971686,217.977664 44.7145,218.449 C44.3318314,218.920336 44.1405,219.585329 44.1405,220.444 C44.1405,221.330671 44.3294981,222.004998 44.7075,222.467 C45.0855019,222.929002 45.6244965,223.16 46.3245,223.16 Z M54.8455,224.098 C54.1641633,224.098 53.5691692,223.948668 53.0605,223.65 C52.5518308,223.351332 52.1598347,222.929003 51.8845,222.383 C51.6091653,221.836997 51.4715,221.200004 51.4715,220.472 C51.4715,219.743996 51.6114986,219.102336 51.8915,218.547 C52.1715014,217.991664 52.5704974,217.560002 53.0885,217.252 C53.6065026,216.943998 54.2108299,216.79 54.9015,216.79 C55.3775024,216.79 55.8371644,216.871666 56.2805,217.035 C56.7238355,217.198334 57.0901652,217.424665 57.3795,217.714 L57.0015,218.554 C56.6468316,218.273999 56.303835,218.068667 55.9725,217.938 C55.641165,217.807333 55.3028351,217.742 54.9575,217.742 C54.2388297,217.742 53.6741687,217.982331 53.2635,218.463 C52.8528313,218.943669 52.6475,219.613329 52.6475,220.472 C52.6475,221.321338 52.850498,221.981664 53.2565,222.453 C53.662502,222.924336 54.2294964,223.16 54.9575,223.16 C55.3028351,223.16 55.641165,223.094667 55.9725,222.964 C56.303835,222.833333 56.6468316,222.628001 57.0015,222.348 L57.3795,223.188 C57.0808318,223.468001 56.7051689,223.689666 56.2525,223.853 C55.7998311,224.016334 55.3308358,224.098 54.8455,224.098 Z M59.2925,224 L59.2925,216.958 L60.4265,216.958 L60.4265,224 L59.2925,224 Z M59.1805,213.976 L60.5665,213.976 L60.5665,215.264 L59.1805,215.264 L59.1805,213.976 Z M69.2975,216.958 L69.2975,224 L68.1775,224 L68.1775,222.726 C67.9721656,223.164669 67.6618354,223.502999 67.2465,223.741 C66.8311646,223.979001 66.3481694,224.098 65.7975,224.098 C65.1721635,224.098 64.6238357,223.948668 64.1525,223.65 C63.6811643,223.351332 63.3171679,222.929003 63.0605,222.383 C62.803832,221.836997 62.6755,221.200004 62.6755,220.472 C62.6755,219.743996 62.8061654,219.102336 63.0675,218.547 C63.3288346,217.991664 63.6951643,217.560002 64.1665,217.252 C64.6378357,216.943998 65.1814969,216.79 65.7975,216.79 C66.3481694,216.79 66.8288313,216.911332 67.2395,217.154 C67.6501687,217.396668 67.9628323,217.737331 68.1775,218.176 L68.1775,216.958 L69.2975,216.958 Z M66.0215,223.16 C66.7121701,223.16 67.2441648,222.924336 67.6175,222.453 C67.9908352,221.981664 68.1775,221.312004 68.1775,220.444 C68.1775,219.575996 67.9908352,218.908669 67.6175,218.442 C67.2441648,217.975331 66.7121701,217.742 66.0215,217.742 C65.3308299,217.742 64.7918353,217.982331 64.4045,218.463 C64.0171647,218.943669 63.8235,219.613329 63.8235,220.472 C63.8235,221.330671 64.0148314,221.993331 64.3975,222.46 C64.7801686,222.926669 65.3214965,223.16 66.0215,223.16 Z M71.9665,224 L71.9665,213.696 L73.1005,213.696 L73.1005,224 L71.9665,224 Z M87.7065,216.79 C89.2651745,216.79 90.0445,217.718657 90.0445,219.576 L90.0445,224 L88.9105,224 L88.9105,219.632 C88.9105,218.96933 88.7961678,218.488668 88.5675,218.19 C88.3388322,217.891332 87.9678359,217.742 87.4545,217.742 C86.8571637,217.742 86.3905017,217.942665 86.0545,218.344 C85.7184983,218.745335 85.5505,219.29133 85.5505,219.982 L85.5505,224 L84.4165,224 L84.4165,219.632 C84.4165,218.978663 84.2998345,218.500335 84.0665,218.197 C83.8331655,217.893665 83.4598359,217.742 82.9465,217.742 C82.3491637,217.742 81.8801684,217.942665 81.5395,218.344 C81.1988316,218.745335 81.0285,219.29133 81.0285,219.982 L81.0285,224 L79.8945,224 L79.8945,218.932 C79.8945,218.203996 79.857167,217.546003 79.7825,216.958 L80.8605,216.958 L80.9725,218.19 C81.168501,217.741998 81.4601647,217.396668 81.8475,217.154 C82.2348353,216.911332 82.6851641,216.79 83.1985,216.79 C83.7585028,216.79 84.2158316,216.901999 84.5705,217.126 C84.9251684,217.350001 85.1864992,217.695331 85.3545,218.162 C85.5691677,217.741998 85.8841646,217.408335 86.2995,217.161 C86.7148354,216.913665 87.1838307,216.79 87.7065,216.79 Z M98.5655,220.444 L93.3995,220.444 C93.4088334,221.340004 93.616498,222.016664 94.0225,222.474 C94.428502,222.931336 95.0188295,223.16 95.7935,223.16 C96.6148374,223.16 97.3708299,222.884669 98.0615,222.334 L98.4395,223.16 C98.1314985,223.449335 97.7371691,223.677999 97.2565,223.846 C96.7758309,224.014001 96.2835025,224.098 95.7795,224.098 C94.6781612,224.098 93.8148365,223.77367 93.1895,223.125 C92.5641635,222.47633 92.2515,221.587339 92.2515,220.458 C92.2515,219.73933 92.3914986,219.102336 92.6715,218.547 C92.9515014,217.991664 93.3434975,217.560002 93.8475,217.252 C94.3515025,216.943998 94.9254968,216.79 95.5695,216.79 C96.502838,216.79 97.2354973,217.095664 97.7675,217.707 C98.2995027,218.318336 98.5655,219.160661 98.5655,220.234 L98.5655,220.444 Z M95.5835,217.672 C94.9954971,217.672 94.5171685,217.849332 94.1485,218.204 C93.7798315,218.558668 93.5441672,219.057997 93.4415,219.702 L97.5435,219.702 C97.4874997,219.03933 97.293835,218.535335 96.9625,218.19 C96.631165,217.844665 96.1715029,217.672 95.5835,217.672 Z M106.9605,213.696 L106.9605,224 L105.8405,224 L105.8405,222.726 C105.635166,223.164669 105.324835,223.502999 104.9095,223.741 C104.494165,223.979001 104.011169,224.098 103.4605,224.098 C102.844497,224.098 102.300836,223.944002 101.8295,223.636 C101.358164,223.327998 100.991835,222.896336 100.7305,222.341 C100.469165,221.785664 100.3385,221.144004 100.3385,220.416 C100.3385,219.687996 100.466832,219.051003 100.7235,218.505 C100.980168,217.958997 101.346498,217.536668 101.8225,217.238 C102.298502,216.939332 102.844497,216.79 103.4605,216.79 C104.011169,216.79 104.491831,216.908999 104.9025,217.147 C105.313169,217.385001 105.621166,217.718665 105.8265,218.148 L105.8265,213.696 L106.9605,213.696 Z M103.6845,223.16 C104.37517,223.16 104.907165,222.924336 105.2805,222.453 C105.653835,221.981664 105.8405,221.312004 105.8405,220.444 C105.8405,219.585329 105.653835,218.920336 105.2805,218.449 C104.907165,217.977664 104.37517,217.742 103.6845,217.742 C102.99383,217.742 102.454835,217.975331 102.0675,218.442 C101.680165,218.908669 101.4865,219.566662 101.4865,220.416 C101.4865,221.284004 101.680165,221.958331 102.0675,222.439 C102.454835,222.919669 102.99383,223.16 103.6845,223.16 Z M109.6295,224 L109.6295,216.958 L110.7635,216.958 L110.7635,224 L109.6295,224 Z M109.5175,213.976 L110.9035,213.976 L110.9035,215.264 L109.5175,215.264 L109.5175,213.976 Z M119.6345,216.958 L119.6345,224 L118.5145,224 L118.5145,222.726 C118.309166,223.164669 117.998835,223.502999 117.5835,223.741 C117.168165,223.979001 116.685169,224.098 116.1345,224.098 C115.509164,224.098 114.960836,223.948668 114.4895,223.65 C114.018164,223.351332 113.654168,222.929003 113.3975,222.383 C113.140832,221.836997 113.0125,221.200004 113.0125,220.472 C113.0125,219.743996 113.143165,219.102336 113.4045,218.547 C113.665835,217.991664 114.032164,217.560002 114.5035,217.252 C114.974836,216.943998 115.518497,216.79 116.1345,216.79 C116.685169,216.79 117.165831,216.911332 117.5765,217.154 C117.987169,217.396668 118.299832,217.737331 118.5145,218.176 L118.5145,216.958 L119.6345,216.958 Z M116.3585,223.16 C117.04917,223.16 117.581165,222.924336 117.9545,222.453 C118.327835,221.981664 118.5145,221.312004 118.5145,220.444 C118.5145,219.575996 118.327835,218.908669 117.9545,218.442 C117.581165,217.975331 117.04917,217.742 116.3585,217.742 C115.66783,217.742 115.128835,217.982331 114.7415,218.463 C114.354165,218.943669 114.1605,219.613329 114.1605,220.472 C114.1605,221.330671 114.351831,221.993331 114.7345,222.46 C115.117169,222.926669 115.658496,223.16 116.3585,223.16 Z M129.1305,214.62 C128.757165,214.62 128.465501,214.724999 128.2555,214.935 C128.045499,215.145001 127.9405,215.506664 127.9405,216.02 L127.9405,216.958 L129.6625,216.958 L129.6625,217.854 L127.9405,217.854 L127.9405,224 L126.8065,224 L126.8065,217.854 L125.4345,217.854 L125.4345,216.958 L126.8065,216.958 L126.8065,215.88 C126.8065,215.142663 126.990831,214.585002 127.3595,214.207 C127.728169,213.828998 128.24383,213.64 128.9065,213.64 C129.233168,213.64 129.550498,213.682 129.8585,213.766 L129.8585,214.732 C129.597165,214.657333 129.354501,214.62 129.1305,214.62 Z M134.4595,224.098 C133.79683,224.098 133.213503,223.948668 132.7095,223.65 C132.205497,223.351332 131.815835,222.926669 131.5405,222.376 C131.265165,221.825331 131.1275,221.181337 131.1275,220.444 C131.1275,219.706663 131.265165,219.062669 131.5405,218.512 C131.815835,217.961331 132.205497,217.536668 132.7095,217.238 C133.213503,216.939332 133.79683,216.79 134.4595,216.79 C135.12217,216.79 135.705497,216.939332 136.2095,217.238 C136.713503,217.536668 137.103165,217.961331 137.3785,218.512 C137.653835,219.062669 137.7915,219.706663 137.7915,220.444 C137.7915,221.181337 137.653835,221.825331 137.3785,222.376 C137.103165,222.926669 136.713503,223.351332 136.2095,223.65 C135.705497,223.948668 135.12217,224.098 134.4595,224.098 Z M134.4595,223.16 C135.159503,223.16 135.696165,222.929002 136.0695,222.467 C136.442835,222.004998 136.6295,221.330671 136.6295,220.444 C136.6295,219.585329 136.438169,218.920336 136.0555,218.449 C135.672831,217.977664 135.140837,217.742 134.4595,217.742 C133.76883,217.742 133.232169,217.977664 132.8495,218.449 C132.466831,218.920336 132.2755,219.585329 132.2755,220.444 C132.2755,221.330671 132.464498,222.004998 132.8425,222.467 C133.220502,222.929002 133.759496,223.16 134.4595,223.16 Z M140.0265,224 L140.0265,213.696 L141.1605,213.696 L141.1605,224 L140.0265,224 Z M143.8295,224 L143.8295,213.696 L144.9635,213.696 L144.9635,224 L143.8295,224 Z M150.5445,224.098 C149.88183,224.098 149.298503,223.948668 148.7945,223.65 C148.290497,223.351332 147.900835,222.926669 147.6255,222.376 C147.350165,221.825331 147.2125,221.181337 147.2125,220.444 C147.2125,219.706663 147.350165,219.062669 147.6255,218.512 C147.900835,217.961331 148.290497,217.536668 148.7945,217.238 C149.298503,216.939332 149.88183,216.79 150.5445,216.79 C151.20717,216.79 151.790497,216.939332 152.2945,217.238 C152.798503,217.536668 153.188165,217.961331 153.4635,218.512 C153.738835,219.062669 153.8765,219.706663 153.8765,220.444 C153.8765,221.181337 153.738835,221.825331 153.4635,222.376 C153.188165,222.926669 152.798503,223.351332 152.2945,223.65 C151.790497,223.948668 151.20717,224.098 150.5445,224.098 Z M150.5445,223.16 C151.244503,223.16 151.781165,222.929002 152.1545,222.467 C152.527835,222.004998 152.7145,221.330671 152.7145,220.444 C152.7145,219.585329 152.523169,218.920336 152.1405,218.449 C151.757831,217.977664 151.225837,217.742 150.5445,217.742 C149.85383,217.742 149.317169,217.977664 148.9345,218.449 C148.551831,218.920336 148.3605,219.585329 148.3605,220.444 C148.3605,221.330671 148.549498,222.004998 148.9275,222.467 C149.305502,222.929002 149.844496,223.16 150.5445,223.16 Z M165.6035,216.958 L166.7235,216.958 L164.1195,224 L163.0275,224 L161.0115,218.498 L159.0095,224 L157.9175,224 L155.3135,216.958 L156.5035,216.958 L158.4915,222.642 L160.5495,216.958 L161.5435,216.958 L163.5735,222.656 L165.6035,216.958 Z M174.4745,220.444 L169.3085,220.444 C169.317833,221.340004 169.525498,222.016664 169.9315,222.474 C170.337502,222.931336 170.927829,223.16 171.7025,223.16 C172.523837,223.16 173.27983,222.884669 173.9705,222.334 L174.3485,223.16 C174.040498,223.449335 173.646169,223.677999 173.1655,223.846 C172.684831,224.014001 172.192503,224.098 171.6885,224.098 C170.587161,224.098 169.723836,223.77367 169.0985,223.125 C168.473164,222.47633 168.1605,221.587339 168.1605,220.458 C168.1605,219.73933 168.300499,219.102336 168.5805,218.547 C168.860501,217.991664 169.252497,217.560002 169.7565,217.252 C170.260503,216.943998 170.834497,216.79 171.4785,216.79 C172.411838,216.79 173.144497,217.095664 173.6765,217.707 C174.208503,218.318336 174.4745,219.160661 174.4745,220.234 L174.4745,220.444 Z M171.4925,217.672 C170.904497,217.672 170.426169,217.849332 170.0575,218.204 C169.688831,218.558668 169.453167,219.057997 169.3505,219.702 L173.4525,219.702 C173.3965,219.03933 173.202835,218.535335 172.8715,218.19 C172.540165,217.844665 172.080503,217.672 171.4925,217.672 Z M179.9435,216.79 C180.176834,216.79 180.391499,216.818 180.5875,216.874 L180.5595,217.91 C180.344832,217.835333 180.097501,217.798 179.8175,217.798 C179.136163,217.798 178.629835,218.010331 178.2985,218.435 C177.967165,218.859669 177.8015,219.37533 177.8015,219.982 L177.8015,224 L176.6675,224 L176.6675,218.932 C176.6675,218.203996 176.630167,217.546003 176.5555,216.958 L177.6335,216.958 L177.7455,218.26 C177.922834,217.783998 178.207498,217.420001 178.5995,217.168 C178.991502,216.915999 179.439497,216.79 179.9435,216.79 Z M184.5165,224.098 C183.331161,224.098 182.39317,223.79467 181.7025,223.188 L182.0805,222.348 C182.463169,222.646668 182.850498,222.861333 183.2425,222.992 C183.634502,223.122667 184.073164,223.188 184.5585,223.188 C185.090503,223.188 185.494165,223.097001 185.7695,222.915 C186.044835,222.732999 186.1825,222.469335 186.1825,222.124 C186.1825,221.843999 186.089168,221.620001 185.9025,221.452 C185.715832,221.283999 185.407835,221.153334 184.9785,221.06 L183.7885,220.78 C183.200497,220.649333 182.745502,220.416002 182.4235,220.08 C182.101498,219.743998 181.9405,219.342669 181.9405,218.876 C181.9405,218.259997 182.187831,217.758335 182.6825,217.371 C183.177169,216.983665 183.830496,216.79 184.6425,216.79 C185.137169,216.79 185.603831,216.869333 186.0425,217.028 C186.481169,217.186667 186.849832,217.415332 187.1485,217.714 L186.7705,218.54 C186.10783,217.989331 185.398504,217.714 184.6425,217.714 C184.138497,217.714 183.748835,217.809666 183.4735,218.001 C183.198165,218.192334 183.0605,218.460665 183.0605,218.806 C183.0605,219.095335 183.146832,219.323999 183.3195,219.492 C183.492168,219.660001 183.769831,219.790666 184.1525,219.884 L185.3425,220.178 C185.995837,220.327334 186.481165,220.558332 186.7985,220.871 C187.115835,221.183668 187.2745,221.591997 187.2745,222.096 C187.2745,222.70267 187.027169,223.187998 186.5325,223.552 C186.037831,223.916002 185.365838,224.098 184.5165,224.098 Z M189.2855,222.558 L190.7275,222.558 L190.7275,224 L189.2855,224 L189.2855,222.558 Z" id="EliteInfuencershavearealaudience,madeupofaminimumof85%authenticsocialmediafollowers." fill="#545454" fill-rule="nonzero"></path>
        <path d="M79.3695,130 L78.3755,127.662 L73.5035,127.662 L72.4955,130 L70.6755,130 L75.1835,120.032 L76.6535,120.032 L81.1755,130 L79.3695,130 Z M74.1055,126.262 L77.7735,126.262 L75.9395,121.992 L74.1055,126.262 Z M86.7705,130.126 C85.3984931,130.126 84.3601702,129.77367 83.6555,129.069 C82.9508298,128.36433 82.5985,127.330673 82.5985,125.968 L82.5985,120.032 L84.3765,120.032 L84.3765,126.066 C84.3765,126.924671 84.5771647,127.575664 84.9785,128.019 C85.3798353,128.462336 85.9771627,128.684 86.7705,128.684 C87.5451705,128.684 88.135498,128.460002 88.5415,128.012 C88.947502,127.563998 89.1505,126.915338 89.1505,126.066 L89.1505,120.032 L90.9285,120.032 L90.9285,125.968 C90.9285,127.32134 90.5738369,128.352663 89.8645,129.062 C89.1551631,129.771337 88.1238401,130.126 86.7705,130.126 Z M95.8235,130 L95.8235,121.516 L92.5755,121.516 L92.5755,120.032 L100.9055,120.032 L100.9055,121.516 L97.6435,121.516 L97.6435,130 L95.8235,130 Z M109.5105,120.032 L111.3025,120.032 L111.3025,130 L109.5105,130 L109.5105,125.674 L104.4005,125.674 L104.4005,130 L102.6225,130 L102.6225,120.032 L104.4005,120.032 L104.4005,124.204 L109.5105,124.204 L109.5105,120.032 Z M113.9295,130 L113.9295,120.032 L120.5935,120.032 L120.5935,121.46 L115.6935,121.46 L115.6935,124.218 L120.2995,124.218 L120.2995,125.646 L115.6935,125.646 L115.6935,128.572 L120.5935,128.572 L120.5935,130 L113.9295,130 Z M129.4365,120.032 L131.1305,120.032 L131.1305,130 L129.7865,130 L124.4105,123.014 L124.4105,130 L122.7305,130 L122.7305,120.032 L124.0745,120.032 L129.4365,127.004 L129.4365,120.032 Z M136.1095,130 L136.1095,121.516 L132.8615,121.516 L132.8615,120.032 L141.1915,120.032 L141.1915,121.516 L137.9295,121.516 L137.9295,130 L136.1095,130 Z M142.9085,130 L142.9085,120.032 L144.7145,120.032 L144.7145,130 L142.9085,130 Z M151.8635,130.126 C150.883495,130.126 150.02717,129.916002 149.2945,129.496 C148.56183,129.075998 147.999502,128.481004 147.6075,127.711 C147.215498,126.940996 147.0195,126.038005 147.0195,125.002 C147.0195,123.975328 147.215498,123.077004 147.6075,122.307 C147.999502,121.536996 148.56183,120.944335 149.2945,120.529 C150.02717,120.113665 150.883495,119.906 151.8635,119.906 C152.535503,119.906 153.16783,120.010999 153.7605,120.221 C154.35317,120.431001 154.845498,120.722665 155.2375,121.096 L154.6495,122.412 C154.201498,122.047998 153.755836,121.784334 153.3125,121.621 C152.869164,121.457666 152.395503,121.376 151.8915,121.376 C150.930162,121.376 150.185836,121.688664 149.6585,122.314 C149.131164,122.939336 148.8675,123.835328 148.8675,125.002 C148.8675,126.178006 149.128831,127.080997 149.6515,127.711 C150.174169,128.341003 150.920828,128.656 151.8915,128.656 C152.395503,128.656 152.869164,128.574334 153.3125,128.411 C153.755836,128.247666 154.201498,127.984002 154.6495,127.62 L155.2375,128.936 C154.845498,129.309335 154.35317,129.600999 153.7605,129.811 C153.16783,130.021001 152.535503,130.126 151.8635,130.126 Z" id="AUTHENTIC" fill="#000000" fill-rule="nonzero"></path>
    </g>
</svg>