<?xml version="1.0" encoding="UTF-8"?>
<svg width="20px" height="20px" viewBox="0 0 20 20" version="1.1" xmlns="http://www.w3.org/2000/svg" xmlns:xlink="http://www.w3.org/1999/xlink">
    <!-- Generator: Sketch 52.2 (67145) - http://www.bohemiancoding.com/sketch -->
    <title>FB</title>
    <desc>Created with Sketch.</desc>
    <g id="Sign-up-Flow---UI" stroke="none" stroke-width="1" fill="none" fill-rule="evenodd">
        <g id="Sign-up-page-1" transform="translate(-192.000000, -216.000000)" fill="#FFFFFF" fill-rule="nonzero">
            <g id="Social-Login" transform="translate(176.000000, 132.000000)">
                <g id="fb" transform="translate(0.000000, 68.000000)">
                    <path d="M34.8954752,16 L17.1038662,16 C16.4946322,16 16,16.4936442 16,17.1038662 L16,34.8954752 C16,35.5056972 16.4946322,36 17.1038662,36 L26.6823421,36 L26.6823421,28.2548245 L24.0761378,28.2548245 L24.0761378,25.2359876 L26.6823421,25.2359876 L26.6823421,23.0098136 C26.6823421,20.4269907 28.2594349,19.0198248 30.563986,19.0198248 C31.6688402,19.0198248 32.6162814,19.102483 32.8925772,19.1383784 L32.8925772,21.8381084 L31.2940789,21.838767 C30.0410327,21.838767 29.799315,22.4344991 29.799315,23.3081736 L29.799315,25.2349997 L32.7888428,25.2349997 L32.3979451,28.2535072 L29.7989857,28.2535072 L29.7989857,35.9990121 L34.8951459,35.9990121 C35.5050385,35.9990121 36,35.5040506 36,34.8954752 L36,17.1032075 C35.9996707,16.4936442 35.5053678,16 34.8954752,16 Z" id="FB"></path>
                </g>
            </g>
        </g>
    </g>
</svg>