<?xml version="1.0" encoding="UTF-8"?>
<svg width="20px" height="20px" viewBox="0 0 20 20" version="1.1" xmlns="http://www.w3.org/2000/svg" xmlns:xlink="http://www.w3.org/1999/xlink">
    <!-- Generator: Sketch 52.5 (67469) - http://www.bohemiancoding.com/sketch -->
    <title>Facebook</title>
    <desc>Created with Sketch.</desc>
    <g id="Profile-UI" stroke="none" stroke-width="1" fill="none" fill-rule="evenodd">
        <g id="My-Profile" transform="translate(-697.000000, -483.000000)" fill="#FF6161">
            <g id="Social-Accounts" transform="translate(697.000000, 442.000000)">
                <g id="Facebook" transform="translate(0.000000, 41.000000)">
                    <g id="fb">
                        <path d="M18.8954752,0 L1.10386617,0 C0.494632154,0 0,0.493644207 0,1.10386617 L0,18.8954752 C0,19.5056972 0.494632154,20 1.10386617,20 L10.6823421,20 L10.6823421,12.2548245 L8.07613779,12.2548245 L8.07613779,9.23598762 L10.6823421,9.23598762 L10.6823421,7.00981361 C10.6823421,4.42699071 12.2594349,3.0198248 14.563986,3.0198248 C15.6688402,3.0198248 16.6162814,3.10248304 16.8925772,3.13837845 L16.8925772,5.83810841 L15.2940789,5.83876704 C14.0410327,5.83876704 13.799315,6.43449911 13.799315,7.30817362 L13.799315,9.23499967 L16.7888428,9.23499967 L16.3979451,12.2535072 L13.7989857,12.2535072 L13.7989857,19.9990121 L18.8951459,19.9990121 C19.5050385,19.9990121 20,19.5040506 20,18.8954752 L20,1.10320753 C19.9996707,0.493644207 19.5053678,0 18.8954752,0 Z" id="FB" fill-rule="nonzero"></path>
                    </g>
                </g>
            </g>
        </g>
    </g>
</svg>