<?xml version="1.0" encoding="UTF-8"?>
<svg width="22px" height="22px" viewBox="0 0 22 22" version="1.1" xmlns="http://www.w3.org/2000/svg" xmlns:xlink="http://www.w3.org/1999/xlink">
    <!-- Generator: Sketch 52.5 (67469) - http://www.bohemiancoding.com/sketch -->
    <title>Check mark</title>
    <desc>Created with Sketch.</desc>
    <g id="Page-1" stroke="none" stroke-width="1" fill="none" fill-rule="evenodd">
        <g id="Ratings-Legend---Brands" transform="translate(-218.000000, -192.000000)">
            <g id="caption" transform="translate(218.000000, 192.000000)">
                <g id="Check-mark">
                    <g id="correct">
                        <path d="M6.48717949,10.3606838 C6.18632479,10.0598291 5.6974359,10.0598291 5.3965812,10.3606838 C5.0957265,10.6615385 5.0957265,11.1504274 5.3965812,11.4512821 L8.95042735,15.0051282 C9.1008547,15.1555556 9.28888889,15.2307692 9.4957265,15.2307692 C9.51452991,15.2307692 9.51452991,15.2307692 9.53333333,15.2307692 C9.74017094,15.2119658 9.94700855,15.1179487 10.0974359,14.9487179 L18.991453,4.28717949 C19.2547009,3.96752137 19.217094,3.47863248 18.8974359,3.1965812 C18.5777778,2.93333333 18.0888889,2.97094017 17.8068376,3.29059829 L9.43931624,13.3128205 L6.48717949,10.3606838 Z" id="Path" fill="#91DC5A"></path>
                        <path d="M16.7538462,1.74871795 C12.4290598,-0.958974359 6.88205128,-0.31965812 3.27179487,3.29059829 C-0.977777778,7.54017094 -0.977777778,14.4786325 3.27179487,18.7282051 C5.3965812,20.8529915 8.1982906,21.9247863 10.9811966,21.9247863 C13.7641026,21.9247863 16.565812,20.8529915 18.6905983,18.7282051 C22.3196581,15.0991453 22.9401709,9.53333333 20.2136752,5.20854701 C19.9880342,4.85128205 19.5179487,4.73846154 19.1606838,4.96410256 C18.8034188,5.18974359 18.6905983,5.65982906 18.9162393,6.01709402 C21.2666667,9.74017094 20.7213675,14.5162393 17.6,17.6376068 C13.9521368,21.2854701 7.99145299,21.2854701 4.34358974,17.6376068 C0.695726496,13.9897436 0.695726496,8.02905983 4.34358974,4.38119658 C7.46495726,1.27863248 12.2222222,0.733333333 15.9452991,3.04615385 C16.3025641,3.27179487 16.7726496,3.15897436 16.9982906,2.8017094 C17.2239316,2.44444444 17.1111111,1.97435897 16.7538462,1.74871795 Z" id="Path" fill="#D9DFE6"></path>
                    </g>
                </g>
            </g>
        </g>
    </g>
</svg>