<?xml version="1.0" encoding="UTF-8"?>
<svg width="21px" height="20px" viewBox="0 0 21 20" version="1.1" xmlns="http://www.w3.org/2000/svg" xmlns:xlink="http://www.w3.org/1999/xlink">
    <!-- Generator: Sketch 52.2 (67145) - http://www.bohemiancoding.com/sketch -->
    <title>Shape</title>
    <desc>Created with Sketch.</desc>
    <g id="Sign-up-Flow---UI" stroke="none" stroke-width="1" fill="none" fill-rule="evenodd">
        <g id="Sign-up-2" transform="translate(-549.000000, -274.000000)" fill="#FFFFFF" fill-rule="nonzero">
            <g id="Post-Signup-" transform="translate(519.000000, 151.000000)">
                <g id="Marketplace-button" transform="translate(15.000000, 108.000000)">
                    <g id="heart" transform="translate(15.000000, 15.000000)">
                        <path d="M20.8470504,5.13067298 C20.2490395,2.0336122 18.1106973,0.0373139853 15.3562226,0.0373139853 C13.8158914,0.0373139853 12.1487093,0.690308729 10.5177704,1.92167025 C8.86870988,0.652994743 7.20152784,0 5.64307506,0 C2.88860038,0 0.732136655,2.01495521 0.152247249,5.14932998 C-0.71758686,9.79492115 2.07313091,15.9703857 10.2459472,19.3286444 C10.3365549,19.3659584 10.4271627,19.3846154 10.5177704,19.3846154 C10.6083781,19.3846154 10.6989858,19.3659584 10.7895935,19.3286444 C18.9442883,15.8957578 21.7168845,9.73895017 20.8470504,5.13067298 Z M10.5177704,17.798771 C3.34163898,14.7390242 0.858987462,9.40312431 1.60197076,5.42918487 C2.03688782,3.0597468 3.63158369,1.51121641 5.64307506,1.51121641 C7.00219086,1.51121641 8.52440055,2.18286814 10.0466102,3.47020064 C10.3184334,3.69408455 10.6989858,3.69408455 10.970809,3.47020064 C12.4930187,2.22018213 13.9971068,1.56718738 15.3562226,1.56718738 C17.367714,1.56718738 18.9442883,3.07840379 19.3973269,5.42918487 C20.1403102,9.36581032 17.6757802,14.6830532 10.5177704,17.798771 Z" id="Shape"></path>
                    </g>
                </g>
            </g>
        </g>
    </g>
</svg>