<?xml version="1.0" encoding="UTF-8"?>
<svg width="20px" height="20px" viewBox="0 0 20 20" version="1.1" xmlns="http://www.w3.org/2000/svg" xmlns:xlink="http://www.w3.org/1999/xlink">
    <!-- Generator: Sketch 52.5 (67469) - http://www.bohemiancoding.com/sketch -->
    <title>Instagram</title>
    <desc>Created with Sketch.</desc>
    <g id="Profile-UI" stroke="none" stroke-width="1" fill="none" fill-rule="evenodd">
        <g id="My-Profile" transform="translate(-697.000000, -443.000000)" fill="#FF6161">
            <g id="Social-Accounts" transform="translate(697.000000, 442.000000)">
                <g id="Instagram" transform="translate(0.000000, 1.000000)">
                    <g id="instagram-logo-(1)">
                        <path d="M14.3733021,0 L5.47826115,0 C2.45754978,0 0,2.45766721 0,5.47837857 L0,14.3734195 C0,17.3942483 2.45754978,19.8517981 5.47826115,19.8517981 L14.3733021,19.8517981 C17.3942483,19.8517981 19.8517981,17.3941309 19.8517981,14.3734195 L19.8517981,5.47837857 C19.8519155,2.45766721 17.3942483,0 14.3733021,0 Z M18.0905677,14.3734195 C18.0905677,16.4230411 16.4230411,18.0904503 14.3734195,18.0904503 L5.47826115,18.0904503 C3.42875693,18.0905677 1.76134774,16.4230411 1.76134774,14.3734195 L1.76134774,5.47837857 C1.76134774,3.42887435 3.42875693,1.76134774 5.47826115,1.76134774 L14.3733021,1.76134774 C16.4229237,1.76134774 18.0904503,3.42887435 18.0904503,5.47837857 L18.0904503,14.3734195 L18.0905677,14.3734195 Z" id="Shape" fill-rule="nonzero"></path>
                        <path d="M10.0333389,4.59016393 C7.21271662,4.59016393 4.91803279,6.88484776 4.91803279,9.70547003 C4.91803279,12.5259749 7.21271662,14.8205413 10.0333389,14.8205413 C12.8539611,14.8205413 15.148645,12.5259749 15.148645,9.70547003 C15.148645,6.88484776 12.8539611,4.59016393 10.0333389,4.59016393 Z M10.0333389,13.0590761 C8.18404118,13.0590761 6.67938052,11.5546503 6.67938052,9.70535261 C6.67938052,7.85593748 8.18392376,6.35139425 10.0333389,6.35139425 C11.882754,6.35139425 13.3872972,7.85593748 13.3872972,9.70535261 C13.3872972,11.5546503 11.8826366,13.0590761 10.0333389,13.0590761 Z" id="Shape" fill-rule="nonzero"></path>
                        <path d="M15.4098361,3.27868852 C15.0652757,3.27868852 14.7267958,3.41818182 14.4834575,3.66259314 C14.238927,3.90581222 14.0983607,4.24441133 14.0983607,4.59016393 C14.0983607,4.93484352 14.2390462,5.2733234 14.4834575,5.51773472 C14.7266766,5.7609538 15.0652757,5.90163934 15.4098361,5.90163934 C15.7555887,5.90163934 16.0929955,5.7609538 16.3374069,5.51773472 C16.5818182,5.2733234 16.7213115,4.93472429 16.7213115,4.59016393 C16.7213115,4.24441133 16.5818182,3.90581222 16.3374069,3.66259314 C16.0941878,3.41818182 15.7555887,3.27868852 15.4098361,3.27868852 Z" id="Path"></path>
                    </g>
                </g>
            </g>
        </g>
    </g>
</svg>