<?xml version="1.0" encoding="UTF-8"?>
<svg width="20px" height="20px" viewBox="0 0 20 20" version="1.1" xmlns="http://www.w3.org/2000/svg" xmlns:xlink="http://www.w3.org/1999/xlink">
    <!-- Generator: Sketch 52.5 (67469) - http://www.bohemiancoding.com/sketch -->
    <title>Snapchat</title>
    <desc>Created with Sketch.</desc>
    <g id="Profile-UI" stroke="none" stroke-width="1" fill="none" fill-rule="evenodd">
        <g id="My-Profile" transform="translate(-697.000000, -594.000000)">
            <g id="snapchat" transform="translate(697.000000, 594.000000)">
                <g id="Snapchat">
                    <g id="Group-2">
                        <path d="M19.1780822,1.55919367 L19.1780822,17.6188885 C19.1780822,18.4799471 18.4799471,19.1780822 17.6188885,19.1780822 L1.55919367,19.1780822 C0.698135048,19.1780822 -3.85469434e-13,18.4799471 -3.85469434e-13,17.6188885 L-3.85469434e-13,1.55919367 C-3.85469434e-13,0.698135048 0.698135048,-3.85469434e-13 1.55919367,-3.85469434e-13 L17.6188885,-3.85469434e-13 C18.4799471,-3.85469434e-13 19.1780822,0.698135048 19.1780822,1.55919367 Z" id="Path" fill="#FF6161"></path>
                        <path d="M15.2645194,12.5917419 C15.538722,12.6506458 15.6733833,12.9074178 15.5655628,13.1652553 C15.3610545,13.6565773 14.4689046,13.7868659 13.9516101,13.8947802 C13.7611323,13.934506 13.9906512,14.8953845 13.1367799,14.6728588 C11.8976827,14.3494204 11.0895626,15.1446984 10.600329,15.4252147 C9.83506256,15.7673744 8.84073476,15.7763546 8.06540309,15.4576346 C6.84384396,14.8057349 7.15190253,14.4288722 5.33405172,14.709084 C4.6743183,14.8107578 4.80043933,13.9235472 4.64702002,13.8947802 C4.18035698,13.8078704 3.35622394,13.6710369 3.0829363,13.2536872 C2.89993118,12.974693 3.0330674,12.64197 3.35195382,12.5877846 L3.91804965,12.3672376 C4.83780287,12.0084873 5.51644686,11.2135138 5.72492015,10.2503522 L5.72797024,10.2343706 L4.61026651,10.2343706 C4.17883195,10.2343706 3.82944468,9.8856659 3.82944468,9.45507425 C3.82944468,9.0244826 4.17883195,8.67577793 4.61026651,8.67577793 L5.81749025,8.67577793 L5.7444407,7.88049995 C5.5547254,5.79664331 7.19872135,4 9.29519747,4 C11.3916736,4 13.0356695,5.79664331 12.8459542,7.88049995 L12.7733622,8.67577793 L13.9801284,8.67577793 C14.411563,8.67577793 14.7609503,9.0244826 14.7609503,9.45507425 C14.7609503,9.8856659 14.411563,10.2343706 13.9801284,10.2343706 L12.8702024,10.2343706 C13.0754731,11.2065123 13.7591498,12.0095528 14.6875957,12.3684553 L15.2645194,12.5917419 Z" id="Path" fill="#F0F0FA"></path>
                    </g>
                </g>
            </g>
        </g>
    </g>
</svg>