<?xml version="1.0" encoding="UTF-8"?>
<svg width="12px" height="12px" viewBox="0 0 12 12" version="1.1" xmlns="http://www.w3.org/2000/svg" xmlns:xlink="http://www.w3.org/1999/xlink">
    <!-- Generator: Sketch 52.5 (67469) - http://www.bohemiancoding.com/sketch -->
    <title>Shape</title>
    <desc>Created with Sketch.</desc>
    <g id="Profile-UI" stroke="none" stroke-width="1" fill="none" fill-rule="evenodd">
        <g id="My-Profile" transform="translate(-236.000000, -486.000000)" fill="#0248AC" fill-rule="nonzero">
            <g id="interests-and-location" transform="translate(236.000000, 452.000000)">
                <g id="Entertain" transform="translate(0.000000, 31.000000)">
                    <g id="tag-black-shape" transform="translate(0.000000, 3.000000)">
                        <path d="M11.7071161,6.37622069 L6.04369538,0.720786787 C5.84297406,0.519984094 5.57372729,0.349754013 5.2357886,0.209874602 C4.89773894,0.0699674484 4.58884727,0 4.30894715,0 L1.01387155,0 C0.739242613,0 0.501622971,0.100401346 0.300957137,0.300954354 C0.100291303,0.501618332 0,0.739235777 0,1.01386217 L0,4.3089073 C0,4.5887771 0.0698848661,4.89758267 0.2098488,5.23562921 C0.349812734,5.57367574 0.520072132,5.84020123 0.720793453,6.03564955 L6.38413095,11.7069246 C6.57952559,11.9023175 6.81697878,12 7.09704536,12 C7.37142461,12 7.61190179,11.9023175 7.81781107,11.7069246 L11.7070051,7.80988755 C11.9023998,7.61441148 12,7.37698824 12,7.0970907 C12,6.82249205 11.9023998,6.58221129 11.7071161,6.37622069 Z M3.34648289,3.34640979 C3.14255563,3.55021447 2.89671221,3.65217391 2.60863855,3.65217391 C2.32067909,3.65217391 2.07472146,3.55021447 1.87090841,3.34640979 C1.66709536,3.14257655 1.56521739,2.89674322 1.56521739,2.60870993 C1.56521739,2.32064808 1.66709536,2.0747291 1.87090841,1.87101007 C2.07475001,1.66717684 2.32067909,1.56521739 2.60863855,1.56521739 C2.89671221,1.56521739 3.14264129,1.66717684 3.34648289,1.87101007 C3.55021028,2.0747291 3.65217391,2.32067664 3.65217391,2.60870993 C3.65217391,2.89674322 3.5503245,3.14257655 3.34648289,3.34640979 Z" id="Shape"></path>
                    </g>
                </g>
            </g>
        </g>
    </g>
</svg>