<?xml version="1.0" encoding="UTF-8"?>
<svg width="20px" height="16px" viewBox="0 0 20 16" version="1.1" xmlns="http://www.w3.org/2000/svg" xmlns:xlink="http://www.w3.org/1999/xlink">
    <!-- Generator: Sketch 52.5 (67469) - http://www.bohemiancoding.com/sketch -->
    <title>Google</title>
    <desc>Created with Sketch.</desc>
    <defs>
        <path d="M19.6782852,1.75895712 C19.577521,1.66132373 19.4095549,1.62876676 19.275151,1.66132373 L18.6032865,1.889185 C19.0064207,1.43349996 19.275151,0.945257961 19.4431171,0.489572926 C19.510319,0.326825592 19.4767181,0.196635226 19.3759152,0.0989643206 C19.275151,0.00133092325 19.1071849,-0.0312260452 18.972781,0.0338503837 C18.0321862,0.424458989 17.2259565,0.749953658 16.554092,0.945220453 C16.554092,0.977777421 16.520491,0.945220453 16.48689,0.945220453 C15.9493907,0.652282752 14.6392626,0.00129341522 13.6986678,0.00129341522 C11.3135411,0.0338503837 9.39875043,1.9868184 9.39875043,4.36291447 L9.39875043,4.49310484 C5.90506272,3.8421155 3.99027209,2.8656315 1.90747663,0.74991615 L1.57162179,0.424421481 L1.3700547,0.815030087 C0.227892774,2.93074543 1.03412244,4.85115648 2.3442505,6.15313515 C1.73958792,6.05550175 1.33645373,5.86019745 0.966920508,5.56725975 C0.832555349,5.46962635 0.664589221,5.43706938 0.496623094,5.53470278 C0.362257934,5.59981672 0.295055998,5.79508351 0.328656966,5.95783085 C0.798954381,7.48763328 1.97471727,8.72453553 3.25124436,9.47315827 C2.64658178,9.47315827 2.1426834,9.40804433 1.63878502,9.08254966 C1.50441986,9.01743572 1.30285276,9.01743572 1.1684876,9.11510663 C1.03412244,9.21277753 0.966920508,9.37548736 1.03412244,9.53823469 C1.63878502,11.198265 2.81454791,12.0770781 4.69577628,12.3049394 C3.72158048,12.8582953 2.4450534,13.3139804 0.463060837,13.3465373 C0.261493742,13.3465373 0.0935276141,13.4767277 0.0263643896,13.639475 C-0.0408375457,13.8347793 0.0263643896,13.9975267 0.160729549,14.127717 C1.37009341,15.0716441 4.05751274,15.625 7.38323432,15.625 C13.295611,15.625 18.1330278,10.5147562 18.1330278,4.23272411 L18.1330278,4.13509071 C18.8720942,3.77703907 19.4767568,3.09349277 19.7790881,2.14956573 C19.8126503,2.01933786 19.7790494,1.85659052 19.6782852,1.75895712 Z M17.7534435,3.52886056 L17.5566432,3.58923921 L17.5566432,4.10235337 C17.5566432,9.59552346 13.1288065,14.0625 7.71704395,14.0625 C4.73234648,14.0625 2.73165052,13.6097645 1.64930556,13.1268396 C3.91241452,12.9759278 5.22436613,12.3119018 6.24113619,11.5875319 L7.06110595,11.0442632 L6.07714224,11.0442632 C4.20763387,11.0442632 3.05967621,10.5613384 2.40370041,9.4144223 C2.99406351,9.59552346 3.61723297,9.59552346 4.30601512,9.56533414 C4.56839033,9.53514482 4.83080333,9.53514482 5.09317853,9.53514482 L5.19155978,8.93149746 C3.94522087,8.59948445 2.46927531,7.5732909 1.74768681,6.1849298 C2.40366261,6.45656416 3.12521332,6.51694281 3.78118913,6.51694281 L4.79795918,6.51694281 L3.97802722,5.97363932 C3.28924507,5.5209038 1.25574275,3.92125221 2.23970646,1.6273853 C4.33882147,3.52886056 6.33955524,4.40414227 9.94738437,5.00778963 L10.340985,5.06816828 L10.340985,4.22307589 C10.340985,2.35178995 11.9153118,0.812482231 13.8832392,0.782292907 C14.6375963,0.752103583 15.883973,1.38594026 16.2447294,1.56704143 C16.4415297,1.65757462 16.63833,1.68776394 16.8350925,1.62742008 C17.3270744,1.47650824 17.9174375,1.26521775 18.5734133,1.02377272 C18.2782317,1.47650824 17.8846311,1.89905443 17.3598807,2.29144608 C17.2286931,2.38197927 17.1958868,2.56308044 17.2614995,2.71399228 C17.3271122,2.86490412 17.5238747,2.92528276 17.6878686,2.86490412 L18.9670139,2.47254725 C18.7374072,2.86486934 18.376613,3.31760485 17.7534435,3.52886056 Z" id="path-1"></path>
    </defs>
    <g id="Profile-UI" stroke="none" stroke-width="1" fill="none" fill-rule="evenodd">
        <g id="My-Profile" transform="translate(-698.000000, -523.000000)">
            <g id="Social-Accounts" transform="translate(697.000000, 442.000000)">
                <g id="Twitter-Copy" transform="translate(1.000000, 81.000000)">
                    <mask id="mask-2" fill="white">
                        <use xlink:href="#path-1"></use>
                    </mask>
                    <use id="Shape" fill="#FF6161" fill-rule="nonzero" xlink:href="#path-1"></use>
                </g>
            </g>
        </g>
    </g>
</svg>