<?xml version="1.0" encoding="UTF-8"?>
<svg width="42px" height="34px" viewBox="0 0 42 34" version="1.1" xmlns="http://www.w3.org/2000/svg" xmlns:xlink="http://www.w3.org/1999/xlink">
    <!-- Generator: Sketch 52.4 (67378) - http://www.bohemiancoding.com/sketch -->
    <title>Artboard</title>
    <desc>Created with Sketch.</desc>
    <g id="Artboard" stroke="none" stroke-width="1" fill="none" fill-rule="evenodd">
        <path d="M39.7880363,4.70850505 C39.5996603,4.50265924 39.285652,4.43401761 39.0343875,4.50265924 L37.7783545,4.98307156 C38.5320033,4.022326 39.0343875,2.99293881 39.3483958,2.03219325 C39.474028,1.68906418 39.4112119,1.41457675 39.2227635,1.20865186 C39.0343875,1.00280606 38.7203793,0.934164429 38.4691148,1.07136861 C36.7106975,1.89490999 35.2034723,2.58116812 33.9474393,2.99285973 C33.9474393,3.06150136 33.8846232,2.99285973 33.8218071,2.99285973 C32.8169662,2.37524323 30.3677163,1.00272698 28.609299,1.00272698 C24.1503673,1.07136861 20.5707166,5.18891737 20.5707166,10.1985701 L20.5707166,10.4730575 C14.0393594,9.10054124 10.4597087,7.04176686 6.56597736,2.58108904 L5.93810558,1.89483091 L5.5612812,2.71837229 C3.42603954,7.17905012 4.93326469,11.2279572 7.38251461,13.9729898 C6.25211384,13.7671439 5.49846508,13.3553733 4.80763245,12.7377568 C4.55644031,12.531911 4.24243206,12.4632693 3.9284238,12.6691151 C3.67723167,12.8063984 3.55159942,13.21809 3.61441555,13.5612191 C4.49362419,16.7865848 6.69168198,19.3944131 9.07811577,20.9727752 C7.947715,20.9727752 7.00569023,20.8354919 6.06366547,20.1492338 C5.81247334,20.0119506 5.43564896,20.0119506 5.18445683,20.2178754 C4.93326469,20.4238003 4.80763245,20.7668503 4.93326469,21.1099794 C6.06366547,24.6099116 8.26172325,26.4627611 11.7786302,26.9431735 C9.95739678,28.1098439 7.57096299,29.0705895 3.86568005,29.1392311 C3.48885567,29.1392311 3.17484741,29.4137185 3.04928753,29.7568476 C2.92365528,30.1686183 3.04928753,30.5117473 3.30047966,30.7862348 C5.56135357,32.7763675 10.5854133,33.943038 16.8027623,33.943038 C27.855795,33.943038 36.8992182,23.1688328 36.8992182,9.92408262 L36.8992182,9.71823682 C38.2808835,8.96333706 39.4112843,7.52217918 39.9764847,5.53204643 C40.0392284,5.25747991 39.9764123,4.91435085 39.7880363,4.70850505 Z M36.0199372,8.62012892 L35.6431128,8.75741218 L35.6431128,9.92408262 C35.6431128,22.4139331 27.1648899,32.5705217 16.8026899,32.5705217 C11.0877252,32.5705217 7.25688236,31.5411345 5.18445683,30.4431057 C9.51775627,30.0999766 12.0298223,28.5901771 13.976688,26.9431735 L15.5467292,25.7079405 L13.6626797,25.7079405 C10.083029,25.7079405 7.88497124,24.6099116 6.62893822,22.0021624 C7.75933899,22.4139331 8.95255589,22.4139331 10.271405,22.3452915 C10.7737893,22.2766498 11.2762459,22.2766498 11.7786302,22.2766498 L11.9670062,20.9041336 C9.5805724,20.1492338 6.7544981,17.815972 5.37283283,14.6592479 C6.62886585,15.2768644 8.01045875,15.4141476 9.26649177,15.4141476 L11.2133574,15.4141476 L9.64338852,14.1788356 C8.32453938,13.1494484 4.43088043,9.51231193 6.31492996,4.29673435 C10.3342212,8.62012892 14.1651363,10.6102617 21.0732456,11.9827779 L21.8268943,12.1200612 L21.8268943,10.1985701 C21.8268943,5.94381712 24.8413446,2.44388486 28.6094437,2.37524323 C30.0538527,2.3066016 32.4403589,3.74775948 33.1311192,4.15953018 C33.5079435,4.36537598 33.8847679,4.43401761 34.2615199,4.29681343 C35.2035447,3.95368437 36.3339455,3.47327205 37.5899785,2.92429718 C37.0247781,3.95368437 36.2711293,4.91442993 35.2663608,5.80661294 C35.0151687,6.01245875 34.9523526,6.42422944 35.0779848,6.76735851 C35.2036171,7.11048757 35.5803691,7.24777083 35.8943773,7.11048757 L38.3436273,6.21838364 C37.9039867,7.11040849 37.2131541,8.13979568 36.0199372,8.62012892 Z" id="Shape" fill="#FFFFFF" fill-rule="nonzero"></path>
    </g>
</svg>