<?xml version="1.0" encoding="UTF-8"?>
<svg width="261px" height="414px" viewBox="0 0 261 414" version="1.1" xmlns="http://www.w3.org/2000/svg" xmlns:xlink="http://www.w3.org/1999/xlink">
    <!-- Generator: Sketch 54.1 (76490) - https://sketchapp.com -->
    <title>Web shape 6</title>
    <desc>Created with Sketch.</desc>
    <g id="Web-shape-6" stroke="none" stroke-width="1" fill="none" fill-rule="evenodd" opacity="0.900000036">
        <g id="Rectangle-4">
            <path d="M101.723377,2.2243822 L202.666958,31.1694883 C232.949435,39.8528487 250.458978,71.4409008 241.775618,101.723377 L212.830512,202.666958 C204.147151,232.949435 172.559099,250.458978 142.276623,241.775618 L41.3330416,212.830512 C11.050565,204.147151 -6.45897822,172.559099 2.2243822,142.276623 L31.1694883,41.3330416 C39.8528487,11.050565 71.4409008,-6.45897822 101.723377,2.2243822 Z" fill="#0099FF"></path>
            <path d="M72.3182205,213.078931 L159.038512,186.565877 C189.865638,177.141079 222.496271,194.491094 231.921069,225.318221 L258.434123,312.038512 C267.858921,342.865638 250.508906,375.496271 219.681779,384.921069 L132.961488,411.434123 C102.134362,420.858921 69.5037294,403.508906 60.078931,372.681779 L33.5658773,285.961488 C24.1410789,255.134362 41.4910939,222.503729 72.3182205,213.078931 Z" fill="#171C34"></path>
        </g>
    </g>
</svg>