<?xml version="1.0" encoding="UTF-8"?>
<svg width="545px" height="502px" viewBox="0 0 545 502" version="1.1" xmlns="http://www.w3.org/2000/svg" xmlns:xlink="http://www.w3.org/1999/xlink">
    <!-- Generator: Sketch 54.1 (76490) - https://sketchapp.com -->
    <title>Web- Shape 1</title>
    <desc>Created with Sketch.</desc>
    <g id="Web--Shape-1" stroke="none" stroke-width="1" fill="none" fill-rule="evenodd" opacity="0.900000036">
        <g transform="translate(272.500000, 251.000000) rotate(-2.000000) translate(-272.500000, -251.000000) translate(9.000000, 10.000000)">
            <g transform="translate(263.834058, 241.091166) rotate(-3.000000) translate(-263.834058, -241.091166) translate(12.334058, 13.091166)">
                <path d="M46.7007221,82.6936588 L72.671607,134.368867 C75.3996833,139.797018 73.2108395,146.408948 67.7826877,149.137024 C66.2501225,149.907259 64.5586715,150.308428 62.8434401,150.308485 L11.1721574,150.31023 C5.09702514,150.310435 0.171991132,145.385733 0.171786044,139.310601 C0.171728659,137.610732 0.565633246,135.933978 1.32258283,134.411945 L27.0229807,82.7349927 C29.7282288,77.295428 36.3309042,75.0788264 41.7704689,77.7840745 C43.901808,78.8440493 45.6318029,80.5667915 46.7007221,82.6936588 Z" id="Rectangle-4" fill="#171C34" transform="translate(36.960996, 121.504303) rotate(342.000000) translate(-36.960996, -121.504303) "></path>
                <path d="M117.581901,12.2921542 C200.699007,-43.3122543 510.773357,105.040326 502.306323,160.564265 C493.839289,216.088204 459.489209,446.531041 375.756491,455.146008 C292.023773,463.760976 94.5627437,389.570929 33.7118541,314.985191 C-27.1390354,240.399453 34.4647951,67.8965626 117.581901,12.2921542 Z" id="Rectangle-3" fill="#0099FF"></path>
            </g>
        </g>
    </g>
</svg>