<?xml version="1.0" encoding="UTF-8"?>
<svg width="389px" height="384px" viewBox="0 0 389 384" version="1.1" xmlns="http://www.w3.org/2000/svg" xmlns:xlink="http://www.w3.org/1999/xlink">
    <!-- Generator: Sketch 54.1 (76490) - https://sketchapp.com -->
    <title>Web - shape 2</title>
    <desc>Created with Sketch.</desc>
    <g id="Web---shape-2" stroke="none" stroke-width="1" fill="none" fill-rule="evenodd" opacity="0.900000036">
        <g transform="translate(194.500000, 192.000000) rotate(20.000000) translate(-194.500000, -192.000000) translate(42.000000, 44.000000)" id="Web---Shape-3">
            <g transform="translate(152.500000, 148.000000) rotate(280.000000) translate(-152.500000, -148.000000) translate(26.014706, 16.145455)">
                <path d="M94.0076976,209.643058 L117.345658,202.508636 C125.641782,199.972509 134.423261,204.64124 136.959641,212.936539 L144.094771,236.272181 C146.631151,244.567481 141.961956,253.348087 133.665832,255.884215 L110.327871,263.018637 C102.031747,265.554764 93.2502684,260.886033 90.7138888,252.590733 L83.5787582,229.255091 C81.0423786,220.959792 85.7115738,212.179185 94.0076976,209.643058 Z" id="Rectangle-4" fill="#0099FF"></path>
                <path d="M165.393949,78.8531296 L207.49958,162.611995 C216.280718,180.079924 209.238683,201.358997 191.770755,210.140135 C186.837015,212.620329 181.391468,213.911916 175.869407,213.911652 L92.1102585,213.907652 C72.5593783,213.906719 56.7110154,198.056842 56.711949,178.505962 C56.7122102,173.036462 57.9798482,167.641414 60.4154032,162.744119 L102.06892,78.9892533 C110.774879,61.4837344 132.023481,54.3502817 149.529,63.0562408 C156.387003,66.4669077 161.953829,72.0098529 165.393949,78.8531296 Z" id="Rectangle-4" fill="#171C34" transform="translate(133.995371, 136.628313) rotate(323.000000) translate(-133.995371, -136.628313) "></path>
            </g>
        </g>
    </g>
</svg>