<?xml version="1.0" encoding="UTF-8"?>
<svg width="386px" height="394px" viewBox="0 0 386 394" version="1.1" xmlns="http://www.w3.org/2000/svg" xmlns:xlink="http://www.w3.org/1999/xlink">
    <!-- Generator: Sketch 54.1 (76490) - https://sketchapp.com -->
    <title>Web - Shape 3</title>
    <desc>Created with Sketch.</desc>
    <g id="Web---Shape-3" stroke="none" stroke-width="1" fill="none" fill-rule="evenodd" opacity="0.900000036">
        <g transform="translate(193.000000, 197.000000) rotate(-80.000000) translate(-193.000000, -197.000000) translate(23.000000, 32.000000)" id="Rectangle-4">
            <g transform="translate(170.000000, 165.000000) rotate(280.000000) translate(-170.000000, -165.000000) translate(29.000000, 18.000000)">
                <path d="M104.795466,233.723679 L130.811553,225.769763 C140.059691,222.942324 149.848881,228.147328 152.676321,237.395466 L160.630237,263.411553 C163.457676,272.659691 158.252672,282.448881 149.004534,285.276321 L122.988447,293.230237 C113.740309,296.057676 103.951119,290.852672 101.123679,281.604534 L93.1697632,255.588447 C90.3423237,246.340309 95.5473282,236.551119 104.795466,233.723679 Z" fill="#0099FF"></path>
                <path d="M172.060253,83.4955351 L225.605805,190.021807 C234.386254,207.490083 227.343379,228.768877 209.875103,237.549326 C204.942198,240.028857 199.497712,241.320216 193.976695,241.320216 L87.4504228,241.320216 C67.8995427,241.320216 52.0504228,225.471096 52.0504228,205.920216 C52.0504228,200.449931 53.318167,195.05407 55.7541591,190.156115 L108.734879,83.6298429 C117.441151,66.1244798 138.68988,58.9914074 156.195243,67.6976798 C163.053419,71.1085858 168.620286,76.6518891 172.060253,83.4955351 Z" fill="#171C34" transform="translate(140.788986, 140.788991) rotate(323.000000) translate(-140.788986, -140.788991) "></path>
            </g>
        </g>
    </g>
</svg>